<svg xmlns="http://www.w3.org/2000/svg" height="140mm" version="1.1" viewBox="0 -10 200 140" width="200mm">
<!--
FlexBox2 - 
Created with Boxes.py (https://festi.info/boxes.py)
Creation date: 2019-10-31 14:54:13
Command line (remove spaces beteen dashes): boxes FlexBox2 - -FingerJoint_angle=90.0 - -FingerJoint_style=rectangular - -FingerJoint_surroundingspaces=2.0 - -FingerJoint_edge_width=1.0 - -FingerJoint_finger=2.0 - -FingerJoint_play=0.0 - -FingerJoint_space=2.0 - -FingerJoint_width=1.0 - -Flex_stretch=1.05 - -Flex_connection=1.0 - -Flex_distance=0.5 - -Flex_width=5.0 - -x=50 - -y=50 - -h=50 - -outside=0 - -outside=1 - -radius=15 - -latchsize=9 - -thickness=3.0 - -format=svg - -tabs=0.0 - -debug=0 - -reference=0 - -burn=0.05
Url: http://localhost:8008/FlexBox2?FingerJoint_angle=90.0&FingerJoint_style=rectangular&FingerJoint_surroundingspaces=2.0&FingerJoint_edge_width=1.0&FingerJoint_finger=2.0&FingerJoint_play=0.0&FingerJoint_space=2.0&FingerJoint_width=1.0&Flex_stretch=1.05&Flex_connection=1.0&Flex_distance=0.5&Flex_width=5.0&x=50&y=50&h=50&outside=0&outside=1&radius=15&latchsize=9&thickness=3.0&format=svg&tabs=0.0&debug=0&reference=0&burn=0.05&render=1
SettingsUrl: http://localhost:8008/FlexBox2?FingerJoint_angle=90.0&FingerJoint_style=rectangular&FingerJoint_surroundingspaces=2.0&FingerJoint_edge_width=1.0&FingerJoint_finger=2.0&FingerJoint_play=0.0&FingerJoint_space=2.0&FingerJoint_width=1.0&Flex_stretch=1.05&Flex_connection=1.0&Flex_distance=0.5&Flex_width=5.0&x=50&y=50&h=50&outside=0&outside=1&radius=15&latchsize=9&thickness=3.0&format=svg&tabs=0.0&debug=0&reference=0&burn=0.05
--><g id="surface8809">
<path d="M -0.000000000000001776 0 H 11.5 C 11.527344 0 11.550781 0.0234375 11.550781 0.0507812 V 3.050781 C 11.550781 3.023438 11.527344 3 11.5 3 H 17.5 C 17.472656 3 17.449219 3.023438 17.449219 3.050781 V 0.0507812 C 17.449219 0.0234375 17.472656 0 17.5 0 H 29 M 31.03125 0 V 15.699219 M 31.03125 18.699219 V 47.101562 M 32.53125 50.101562 V 34.398438 M 32.53125 31.398438 V 3 M 34.03125 0 V 15.699219 M 34.03125 18.699219 V 47.101562 M 35.53125 50.101562 V 34.398438 M 35.53125 31.398438 V 3 M 37.03125 0 V 15.699219 M 37.03125 18.699219 V 47.101562 M 38.53125 50.101562 V 34.398438 M 38.53125 31.398438 V 3 M 40.03125 0 V 15.699219 M 40.03125 18.699219 V 47.101562 M 41.53125 50.101562 V 34.398438 M 41.53125 31.398438 V 3 M 43.03125 0 V 15.699219 M 43.03125 18.699219 V 47.101562 M 44.53125 50.101562 V 34.398438 M 44.53125 31.398438 V 3 M 46.03125 0 V 15.699219 M 46.03125 18.699219 V 47.101562 M 47.53125 50.101562 V 34.398438 M 47.53125 31.398438 V 3 M 49.03125 0 V 15.699219 M 49.03125 18.699219 V 47.101562 M 50.53125 50.101562 V 34.398438 M 50.53125 31.398438 V 3 M 29 0 H 52.5625 L 66.5625 0 M 68.59375 0 V 15.699219 M 68.59375 18.699219 V 47.101562 M 70.09375 50.101562 V 34.398438 M 70.09375 31.398438 V 3 M 71.59375 0 V 15.699219 M 71.59375 18.699219 V 47.101562 M 73.09375 50.101562 V 34.398438 M 73.09375 31.398438 V 3 M 74.59375 0 V 15.699219 M 74.59375 18.699219 V 47.101562 M 76.09375 50.101562 V 34.398438 M 76.09375 31.398438 V 3 M 77.59375 0 V 15.699219 M 77.59375 18.699219 V 47.101562 M 79.09375 50.101562 V 34.398438 M 79.09375 31.398438 V 3 M 80.59375 0 V 15.699219 M 80.59375 18.699219 V 47.101562 M 82.09375 50.101562 V 34.398438 M 82.09375 31.398438 V 3 M 83.59375 0 V 15.699219 M 83.59375 18.699219 V 47.101562 M 85.09375 50.101562 V 34.398438 M 85.09375 31.398438 V 3 M 86.59375 0 V 15.699219 M 86.59375 18.699219 V 47.101562 M 88.09375 50.101562 V 34.398438 M 88.09375 31.398438 V 3 M 66.5625 0 H 90.125 C 90.152344 0 90.175781 0.0234375 90.175781 0.0507812 V 3.351562 C 90.175781 3.324219 90.152344 3.300781 90.125 3.300781 H 104.226562 C 104.199219 3.300781 104.175781 3.324219 104.175781 3.351562 V 0.0507812 C 104.175781 -0.390625 104.535156 -0.75 104.976562 -0.75 C 105.398438 -0.75 105.738281 -0.410156 105.738281 0.0117188 C 105.738281 0.894531 107.0625 0.894531 107.0625 0.0117188 C 107.0625 -0.410156 107.402344 -0.75 107.824219 -0.75 C 108.246094 -0.75 108.585938 -0.410156 108.585938 0.0117188 C 108.585938 0.894531 109.910156 0.894531 109.910156 0.0117188 C 109.910156 -0.410156 110.25 -0.75 110.671875 -0.75 C 111.09375 -0.75 111.433594 -0.410156 111.433594 0.0117188 C 111.433594 0.894531 112.757812 0.894531 112.757812 0.0117188 C 112.757812 -0.410156 113.097656 -0.75 113.519531 -0.75 C 113.941406 -0.75 114.28125 -0.410156 114.28125 0.0117188 C 114.28125 0.894531 115.605469 0.894531 115.605469 0.0117188 C 115.605469 -0.410156 115.945312 -0.75 116.367188 -0.75 C 116.808594 -0.75 117.167969 -0.390625 117.167969 0.0507812 V 50.050781 C 117.167969 50.492188 116.808594 50.851562 116.367187 50.851562 C 115.945312 50.851562 115.605469 50.511719 115.605469 50.089844 C 115.605469 49.207031 114.28125 49.207031 114.28125 50.089844 C 114.28125 50.511719 113.941406 50.851562 113.519531 50.851562 C 113.097656 50.851562 112.757812 50.511719 112.757812 50.089844 C 112.757812 49.207031 111.433594 49.207031 111.433594 50.089844 C 111.433594 50.511719 111.09375 50.851562 110.671875 50.851562 C 110.25 50.851562 109.910156 50.511719 109.910156 50.089844 C 109.910156 49.207031 108.585937 49.207031 108.585937 50.089844 C 108.585937 50.511719 108.246094 50.851562 107.824219 50.851562 C 107.402344 50.851562 107.0625 50.511719 107.0625 50.089844 C 107.0625 49.207031 105.738281 49.207031 105.738281 50.089844 C 105.738281 50.511719 105.398437 50.851562 104.976562 50.851562 C 104.535156 50.851562 104.175781 50.492188 104.175781 50.050781 V 46.75 C 104.175781 46.777344 104.199219 46.800781 104.226562 46.800781 H 90.125 C 90.152344 46.800781 90.175781 46.777344 90.175781 46.75 V 50.050781 C 90.175781 50.078125 90.152344 50.101562 90.125 50.101562 H 66.5625 L 52.5625 50.101562 H 29 L 17.5 50.101562 C 17.472656 50.101562 17.449219 50.078125 17.449219 50.050781 V 47.050781 C 17.449219 47.078125 17.472656 47.101562 17.5 47.101562 H 11.5 C 11.527344 47.101562 11.550781 47.078125 11.550781 47.050781 V 50.050781 C 11.550781 50.078125 11.527344 50.101562 11.5 50.101562 H -0.000000000000014211 C -0.0273438 50.101562 -0.0507813 50.078125 -0.0507813 50.050781 V 47.050781 L -0.0507813 40.050781 C -0.0507813 40.078125 -0.0273438 40.101562 -0.000000000000010658 40.101562 H -3 C -3.027344 40.101562 -3.050781 40.078125 -3.050781 40.050781 V 34.050781 C -3.050781 34.023438 -3.027344 34 -3 34 H -0.000000000000008882 C -0.0273438 34 -0.0507813 34.023438 -0.0507813 34.050781 V 28.050781 C -0.0507813 28.078125 -0.0273438 28.101562 -0.000000000000008882 28.101562 H -3 C -3.027344 28.101562 -3.050781 28.078125 -3.050781 28.050781 V 22.050781 C -3.050781 22.023438 -3.027344 22 -3 22 H -0.000000000000007105 C -0.0273438 22 -0.0507813 22.023438 -0.0507813 22.050781 V 16.050781 C -0.0507813 16.078125 -0.0273438 16.101562 -0.000000000000005329 16.101562 H -3 C -3.027344 16.101562 -3.050781 16.078125 -3.050781 16.050781 V 10.050781 C -3.050781 10.023438 -3.027344 10 -3 10 H -0.000000000000003553 C -0.0273438 10 -0.0507813 10.023438 -0.0507813 10.050781 V 3.050781 L -0.0507813 0.0507812 C -0.0507813 0.0234375 -0.0273438 0 -0.000000000000001776 0 " style="fill:none;stroke-width:0.1;stroke-linecap:butt;stroke-linejoin:miter;stroke:rgb(0%,0%,0%);stroke-opacity:1;stroke-miterlimit:10;" transform="matrix(1.0000,0.0000,0.0000,-1.0000,13.0508,109.4453)"/>
<path d="M 0 0 H 7 C 7.027344 0 7.050781 0.0234375 7.050781 0.0507812 V 3.050781 C 7.050781 3.023438 7.027344 3 7 3 H 13 C 12.972656 3 12.949219 3.023438 12.949219 3.050781 V 0.0507812 C 12.949219 0.0234375 12.972656 0 13 0 H 19 C 19.027344 0 19.050781 0.0234375 19.050781 0.0507812 V 3.050781 C 19.050781 3.023438 19.027344 3 19 3 H 25 C 24.972656 3 24.949219 3.023438 24.949219 3.050781 V 0.0507812 C 24.949219 0.0234375 24.972656 0 25 0 H 31 C 31.027344 0 31.050781 0.0234375 31.050781 0.0507812 V 3.050781 C 31.050781 3.023438 31.027344 3 31 3 H 37 C 36.972656 3 36.949219 3.023438 36.949219 3.050781 V 0.0507812 C 36.949219 0.0234375 36.972656 0 37 0 H 44 L 47 0 C 47.027344 0 47.050781 0.0234375 47.050781 0.0507812 V 3.050781 L 47.050781 10.050781 C 47.050781 10.078125 47.027344 10.101562 47 10.101562 H 44 C 44.027344 10.101562 44.050781 10.078125 44.050781 10.050781 V 16.050781 C 44.050781 16.023438 44.027344 16 44 16 H 47 C 47.027344 16 47.050781 16.023438 47.050781 16.050781 V 22.050781 C 47.050781 22.078125 47.027344 22.101562 47 22.101562 H 44 C 44.027344 22.101562 44.050781 22.078125 44.050781 22.050781 V 28.050781 C 44.050781 28.023438 44.027344 28 44 28 H 47 C 47.027344 28 47.050781 28.023438 47.050781 28.050781 V 34.050781 C 47.050781 34.078125 47.027344 34.101562 47 34.101562 H 44 C 44.027344 34.101562 44.050781 34.078125 44.050781 34.050781 V 40.050781 C 44.050781 40.023438 44.027344 40 44 40 H 47 C 47.027344 40 47.050781 40.023438 47.050781 40.050781 V 47.050781 L 47.050781 50.050781 C 47.050781 50.078125 47.027344 50.101562 47 50.101562 H 44 L 37 50.101562 C 36.972656 50.101562 36.949219 50.078125 36.949219 50.050781 V 47.050781 C 36.949219 47.078125 36.972656 47.101562 37 47.101562 H 31 C 31.027344 47.101562 31.050781 47.078125 31.050781 47.050781 V 50.050781 C 31.050781 50.078125 31.027344 50.101562 31 50.101562 H 25 C 24.972656 50.101562 24.949219 50.078125 24.949219 50.050781 V 47.050781 C 24.949219 47.078125 24.972656 47.101562 25 47.101562 H 19 C 19.027344 47.101562 19.050781 47.078125 19.050781 47.050781 V 50.050781 C 19.050781 50.078125 19.027344 50.101562 19 50.101562 H 13 C 12.972656 50.101562 12.949219 50.078125 12.949219 50.050781 V 47.050781 C 12.949219 47.078125 12.972656 47.101562 13 47.101562 H 7 C 7.027344 47.101562 7.050781 47.078125 7.050781 47.050781 V 50.050781 C 7.050781 50.078125 7.027344 50.101562 7 50.101562 H 0 L -3 50.101562 C -3.027344 50.101562 -3.050781 50.078125 -3.050781 50.050781 V 47.050781 L -3.050781 40.050781 C -3.050781 40.023438 -3.027344 40 -3 40 H 0 C -0.0273438 40 -0.0507812 40.023438 -0.0507812 40.050781 V 34.050781 C -0.0507812 34.078125 -0.0273438 34.101562 0 34.101562 H -3 C -3.027344 34.101562 -3.050781 34.078125 -3.050781 34.050781 V 28.050781 C -3.050781 28.023438 -3.027344 28 -3 28 H 0 C -0.0273438 28 -0.0507812 28.023438 -0.0507812 28.050781 V 22.050781 C -0.0507812 22.078125 -0.0273438 22.101562 0 22.101562 H -3 C -3.027344 22.101562 -3.050781 22.078125 -3.050781 22.050781 V 16.050781 C -3.050781 16.023438 -3.027344 16 -3 16 H 0 C -0.0273438 16 -0.0507812 16.023438 -0.0507812 16.050781 V 10.050781 C -0.0507812 10.078125 -0.0273438 10.101562 0 10.101562 H -3 C -3.027344 10.101562 -3.050781 10.078125 -3.050781 10.050781 V 3.050781 L -3.050781 0.0507812 C -3.050781 0.0234375 -3.027344 0 -3 0 H 0 " style="fill:none;stroke-width:0.1;stroke-linecap:butt;stroke-linejoin:miter;stroke:rgb(0%,0%,0%);stroke-opacity:1;stroke-miterlimit:10;" transform="matrix(1.0000,0.0000,0.0000,-1.0000,134.7734,110.1953)"/>
<path d="M -0.0078125 0 H 6.992187 C 6.964844 0 6.941406 0.0234375 6.941406 0.0507812 V -2.949219 C 6.941406 -2.976562 6.964844 -3 6.992188 -3 H 12.992188 C 13.019531 -3 13.042969 -2.976562 13.042969 -2.949219 V 0.0507812 C 13.042969 0.0234375 13.019531 0 12.992187 0 H 18.992188 C 18.964844 0 18.941406 0.0234375 18.941406 0.0507812 V -2.949219 C 18.941406 -2.976562 18.964844 -3 18.992188 -3 H 24.992188 C 25.019531 -3 25.042969 -2.976562 25.042969 -2.949219 V 0.0507812 C 25.042969 0.0234375 25.019531 0 24.992188 0 H 30.992188 C 30.964844 0 30.941406 0.0234375 30.941406 0.0507812 V -2.949219 C 30.941406 -2.976562 30.964844 -3 30.992188 -3 H 36.992188 C 37.019531 -3 37.042969 -2.976562 37.042969 -2.949219 V 0.0507812 C 37.042969 0.0234375 37.019531 0 36.992188 0 H 43.992188 C 44.019531 0 44.042969 0.0234375 44.042969 0.0507812 V 11.550781 C 44.042969 11.523438 44.019531 11.5 43.992187 11.5 H 46.992187 C 47.019531 11.5 47.042969 11.523438 47.042969 11.550781 V 17.550781 C 47.042969 17.578125 47.019531 17.601562 46.992187 17.601562 H 43.992187 C 44.019531 17.601562 44.042969 17.578125 44.042969 17.550781 V 29.050781 C 44.042969 31.691406 43.347656 34.289062 42.027344 36.574219 C 40.707031 38.863281 38.804687 40.761719 36.519531 42.082031 C 34.230469 43.402344 31.636719 44.097656 28.996094 44.097656 H 14.996094 C 12.355469 44.097656 9.757812 43.402344 7.472656 42.082031 C 5.183594 40.761719 3.285156 38.859375 1.964844 36.574219 C 0.644531 34.285156 -0.0507813 31.691406 -0.0507813 29.050781 C -0.0507813 29.078125 -0.0273438 29.101562 -0.000000000000017764 29.101562 H -3 C -3.027344 29.101562 -3.050781 29.078125 -3.050781 29.050781 V 15.550781 C -3.050781 15.523438 -3.027344 15.5 -3 15.5 H -0.000000000000008882 C -0.0273438 15.5 -0.0507813 15.523438 -0.0507813 15.550781 V 2.050781 L -0.0507812 1.050781 V 0.0507812 C -0.0507812 0.0234375 -0.0273438 0 0 0 " style="fill:none;stroke-width:0.1;stroke-linecap:butt;stroke-linejoin:miter;stroke:rgb(0%,0%,0%);stroke-opacity:1;stroke-miterlimit:10;" transform="matrix(1.0000,0.0000,0.0000,-1.0000,13.0586,54.0977)"/>
<path d="M -0.0078125 0 H 6.992188 C 6.964844 0 6.941406 0.0234375 6.941406 0.0507812 V -2.949219 C 6.941406 -2.976562 6.964844 -3 6.992188 -3 H 12.992188 C 13.019531 -3 13.042969 -2.976562 13.042969 -2.949219 V 0.0507812 C 13.042969 0.0234375 13.019531 0 12.992188 0 H 18.992188 C 18.964844 0 18.941406 0.0234375 18.941406 0.0507812 V -2.949219 C 18.941406 -2.976562 18.964844 -3 18.992188 -3 H 24.992188 C 25.019531 -3 25.042969 -2.976562 25.042969 -2.949219 V 0.0507812 C 25.042969 0.0234375 25.019531 0 24.992188 0 H 30.992188 C 30.964844 0 30.941406 0.0234375 30.941406 0.0507812 V -2.949219 C 30.941406 -2.976562 30.964844 -3 30.992188 -3 H 36.992188 C 37.019531 -3 37.042969 -2.976562 37.042969 -2.949219 V 0.0507812 C 37.042969 0.0234375 37.019531 0 36.992188 0 H 43.992188 C 44.019531 0 44.042969 0.0234375 44.042969 0.0507812 V 11.550781 C 44.042969 11.523438 44.019531 11.5 43.992187 11.5 H 46.992187 C 47.019531 11.5 47.042969 11.523438 47.042969 11.550781 V 17.550781 C 47.042969 17.578125 47.019531 17.601562 46.992187 17.601562 H 43.992187 C 44.019531 17.601562 44.042969 17.578125 44.042969 17.550781 V 29.050781 C 44.042969 31.691406 43.347656 34.289062 42.027344 36.574219 C 40.707031 38.863281 38.804687 40.761719 36.519531 42.082031 C 34.230469 43.402344 31.636719 44.097656 28.996094 44.097656 H 14.996094 C 12.355469 44.097656 9.757812 43.402344 7.472656 42.082031 C 5.183594 40.761719 3.285156 38.859375 1.964844 36.574219 C 0.644531 34.285156 -0.0507813 31.691406 -0.0507813 29.050781 C -0.0507813 29.078125 -0.0273438 29.101562 -0.000000000000014211 29.101562 H -3 C -3.027344 29.101562 -3.050781 29.078125 -3.050781 29.050781 V 15.550781 C -3.050781 15.523438 -3.027344 15.5 -3 15.5 H -0.000000000000014211 C -0.0273438 15.5 -0.0507813 15.523438 -0.0507813 15.550781 L -0.0507812 2.050781 V 1.050781 L -0.0507812 0.0507812 C -0.0507812 0.0234375 -0.0273438 0 0 0 " style="fill:none;stroke-width:0.1;stroke-linecap:butt;stroke-linejoin:miter;stroke:rgb(0%,0%,0%);stroke-opacity:1;stroke-miterlimit:10;" transform="matrix(-1.0000,0.0000,-0.0000,-1.0000,108.6406,54.0977)"/>
<path d="M 0 0 H 7 C 6.972656 0 6.949219 0.0234375 6.949219 0.0507812 V -2.949219 C 6.949219 -2.976562 6.972656 -3 7 -3 H 13 C 13.027344 -3 13.050781 -2.976562 13.050781 -2.949219 V 0.0507812 C 13.050781 0.0234375 13.027344 0 13 0 H 19 C 18.972656 0 18.949219 0.0234375 18.949219 0.0507812 V -2.949219 C 18.949219 -2.976562 18.972656 -3 19 -3 H 25 C 25.027344 -3 25.050781 -2.976562 25.050781 -2.949219 V 0.0507812 C 25.050781 0.0234375 25.027344 0 25 0 H 31 C 30.972656 0 30.949219 0.0234375 30.949219 0.0507812 V -2.949219 C 30.949219 -2.976562 30.972656 -3 31 -3 H 37 C 37.027344 -3 37.050781 -2.976562 37.050781 -2.949219 V 0.0507812 C 37.050781 0.0234375 37.027344 0 37 0 H 44 L 47 0 C 47.027344 0 47.050781 0.0234375 47.050781 0.0507812 H 47.050781 V 1.050781 V 2.050781 C 47.050781 2.078125 47.027344 2.101562 47 2.101562 H 44 L 0 2.101562 H -3 C -3.027344 2.101562 -3.050781 2.078125 -3.050781 2.050781 H -3.050781 V 1.050781 V 0.0507812 C -3.050781 0.0234375 -3.027344 0 -3 0 H 0 " style="fill:none;stroke-width:0.1;stroke-linecap:butt;stroke-linejoin:miter;stroke:rgb(0%,0%,0%);stroke-opacity:1;stroke-miterlimit:10;" transform="matrix(1.0000,0.0000,0.0000,-1.0000,116.2500,54.0977)"/>
</g>
</svg>