<svg xmlns="http://www.w3.org/2000/svg" height="200mm" version="1.1" viewBox="0 -10 290 200" width="290mm">
<!--
FlexBox2 - 
Created with Boxes.py (https://festi.info/boxes.py)
Creation date: 2019-10-31 14:02:25
Command line (remove spaces beteen dashes): boxes FlexBox2 - -FingerJoint_angle=90.0 - -FingerJoint_style=rectangular - -FingerJoint_surroundingspaces=2.0 - -FingerJoint_edge_width=1.0 - -FingerJoint_finger=2.0 - -FingerJoint_play=0.0 - -FingerJoint_space=2.0 - -FingerJoint_width=1.0 - -Flex_stretch=1.05 - -Flex_connection=1.0 - -Flex_distance=0.5 - -Flex_width=5.0 - -x=80.0 - -y=80.0 - -h=80.0 - -outside=0 - -outside=1 - -radius=15 - -latchsize=9 - -thickness=3.0 - -format=svg - -tabs=0.0 - -debug=0 - -reference=0 - -burn=0.1
Url: http://localhost:8008/FlexBox2?FingerJoint_angle=90.0&FingerJoint_style=rectangular&FingerJoint_surroundingspaces=2.0&FingerJoint_edge_width=1.0&FingerJoint_finger=2.0&FingerJoint_play=0.0&FingerJoint_space=2.0&FingerJoint_width=1.0&Flex_stretch=1.05&Flex_connection=1.0&Flex_distance=0.5&Flex_width=5.0&x=80.0&y=80.0&h=80.0&outside=0&outside=1&radius=15&latchsize=9&thickness=3.0&format=svg&tabs=0.0&debug=0&reference=0&burn=0.1&render=1
SettingsUrl: http://localhost:8008/FlexBox2?FingerJoint_angle=90.0&FingerJoint_style=rectangular&FingerJoint_surroundingspaces=2.0&FingerJoint_edge_width=1.0&FingerJoint_finger=2.0&FingerJoint_play=0.0&FingerJoint_space=2.0&FingerJoint_width=1.0&Flex_stretch=1.05&Flex_connection=1.0&Flex_distance=0.5&Flex_width=5.0&x=80.0&y=80.0&h=80.0&outside=0&outside=1&radius=15&latchsize=9&thickness=3.0&format=svg&tabs=0.0&debug=0&reference=0&burn=0.1
--><g id="surface8659">
<path d="M -0.000000000000001776 0 H 8.5 C 8.554687 0 8.601562 0.0429688 8.601562 0.101562 V 3.101562 C 8.601562 3.046875 8.558594 3 8.5 3 H 14.5 C 14.445312 3 14.398437 3.042969 14.398437 3.101562 V 0.101562 C 14.398437 0.046875 14.441406 0 14.5 0 H 20.5 C 20.554688 0 20.601562 0.0429688 20.601562 0.101562 V 3.101562 C 20.601562 3.046875 20.558594 3 20.5 3 H 26.5 C 26.445312 3 26.398437 3.042969 26.398437 3.101562 L 26.398438 0.101562 C 26.398438 0.046875 26.441406 0 26.5 0 H 32.5 C 32.554688 0 32.601562 0.0429688 32.601562 0.101562 V 3.101562 C 32.601562 3.046875 32.558594 3 32.5 3 H 38.5 C 38.445312 3 38.398437 3.042969 38.398437 3.101562 L 38.398438 0.101562 C 38.398438 0.046875 38.441406 0 38.5 0 H 44.5 C 44.554688 0 44.601562 0.0429688 44.601562 0.101562 V 3.101562 C 44.601562 3.046875 44.558594 3 44.5 3 H 50.5 C 50.445312 3 50.398437 3.042969 50.398437 3.101562 L 50.398438 0.101562 C 50.398438 0.046875 50.441406 0 50.5 0 H 59 M 61.03125 0 V 15.441406 M 61.03125 18.441406 V 46.320312 M 61.03125 49.320312 V 77.199219 M 62.53125 80.199219 V 64.761719 M 62.53125 61.761719 V 33.878906 M 62.53125 30.878906 V 3 M 64.03125 0 V 15.441406 M 64.03125 18.441406 V 46.320312 M 64.03125 49.320312 V 77.199219 M 65.53125 80.199219 V 64.761719 M 65.53125 61.761719 V 33.878906 M 65.53125 30.878906 V 3 M 67.03125 0 V 15.441406 M 67.03125 18.441406 V 46.320312 M 67.03125 49.320312 V 77.199219 M 68.53125 80.199219 V 64.761719 M 68.53125 61.761719 V 33.878906 M 68.53125 30.878906 V 3 M 70.03125 0 V 15.441406 M 70.03125 18.441406 V 46.320312 M 70.03125 49.320312 V 77.199219 M 71.53125 80.199219 V 64.761719 M 71.53125 61.761719 V 33.878906 M 71.53125 30.878906 V 3 M 73.03125 0 V 15.441406 M 73.03125 18.441406 V 46.320312 M 73.03125 49.320312 V 77.199219 M 74.53125 80.199219 V 64.761719 M 74.53125 61.761719 V 33.878906 M 74.53125 30.878906 V 3 M 76.03125 0 V 15.441406 M 76.03125 18.441406 V 46.320312 M 76.03125 49.320312 V 77.199219 M 77.53125 80.199219 V 64.761719 M 77.53125 61.761719 V 33.878906 M 77.53125 30.878906 V 3 M 79.03125 0 V 15.441406 M 79.03125 18.441406 V 46.320312 M 79.03125 49.320312 V 77.199219 M 80.53125 80.199219 V 64.761719 M 80.53125 61.761719 V 33.878906 M 80.53125 30.878906 V 3 M 59 0 H 82.5625 L 126.5625 0 M 128.59375 0 V 15.441406 M 128.59375 18.441406 V 46.320312 M 128.59375 49.320312 V 77.199219 M 130.09375 80.199219 V 64.761719 M 130.09375 61.761719 V 33.878906 M 130.09375 30.878906 V 3 M 131.59375 0 V 15.441406 M 131.59375 18.441406 V 46.320312 M 131.59375 49.320312 V 77.199219 M 133.09375 80.199219 V 64.761719 M 133.09375 61.761719 V 33.878906 M 133.09375 30.878906 V 3 M 134.59375 0 V 15.441406 M 134.59375 18.441406 V 46.320312 M 134.59375 49.320312 V 77.199219 M 136.09375 80.199219 V 64.761719 M 136.09375 61.761719 V 33.878906 M 136.09375 30.878906 V 3 M 137.59375 0 V 15.441406 M 137.59375 18.441406 V 46.320312 M 137.59375 49.320312 V 77.199219 M 139.09375 80.199219 V 64.761719 M 139.09375 61.761719 V 33.878906 M 139.09375 30.878906 V 3 M 140.59375 0 V 15.441406 M 140.59375 18.441406 V 46.320312 M 140.59375 49.320312 V 77.199219 M 142.09375 80.199219 V 64.761719 M 142.09375 61.761719 V 33.878906 M 142.09375 30.878906 V 3 M 143.59375 0 V 15.441406 M 143.59375 18.441406 V 46.320312 M 143.59375 49.320312 V 77.199219 M 145.09375 80.199219 V 64.761719 M 145.09375 61.761719 V 33.878906 M 145.09375 30.878906 V 3 M 146.59375 0 V 15.441406 M 146.59375 18.441406 V 46.320312 M 146.59375 49.320312 V 77.199219 M 148.09375 80.199219 V 64.761719 M 148.09375 61.761719 V 33.878906 M 148.09375 30.878906 V 3 M 126.5625 0 H 150.125 C 150.179688 0 150.226562 0.0429688 150.226562 0.101562 V 3.402344 C 150.226562 3.347656 150.183594 3.300781 150.125 3.300781 H 164.226562 C 164.171875 3.300781 164.125 3.34375 164.125 3.402344 V 0.101562 C 164.125 -0.367188 164.503906 -0.75 164.976562 -0.75 C 165.425781 -0.75 165.789062 -0.386719 165.789062 0.0625 C 165.789062 0.878906 167.015625 0.878906 167.015625 0.0625 C 167.015625 -0.386719 167.378906 -0.75 167.828125 -0.75 C 168.277344 -0.75 168.640625 -0.386719 168.640625 0.0625 C 168.640625 0.878906 169.867188 0.878906 169.867188 0.0625 C 169.867188 -0.386719 170.230469 -0.75 170.679688 -0.75 C 171.128906 -0.75 171.492188 -0.386719 171.492188 0.0625 C 171.492188 0.878906 172.71875 0.878906 172.71875 0.0625 C 172.71875 -0.386719 173.082031 -0.75 173.53125 -0.75 C 173.980469 -0.75 174.34375 -0.386719 174.34375 0.0625 C 174.34375 0.878906 175.570312 0.878906 175.570312 0.0625 C 175.570312 -0.386719 175.933594 -0.75 176.382812 -0.75 C 176.851562 -0.75 177.234375 -0.371094 177.234375 0.101562 V 80.101562 C 177.234375 80.570312 176.855469 80.953125 176.382812 80.953125 C 175.933594 80.953125 175.570312 80.589844 175.570312 80.140625 C 175.570312 79.324219 174.34375 79.324219 174.34375 80.140625 C 174.34375 80.589844 173.980469 80.953125 173.53125 80.953125 C 173.082031 80.953125 172.71875 80.589844 172.71875 80.140625 C 172.71875 79.324219 171.492187 79.324219 171.492187 80.140625 C 171.492187 80.589844 171.128906 80.953125 170.679687 80.953125 C 170.230469 80.953125 169.867187 80.589844 169.867187 80.140625 C 169.867187 79.324219 168.640625 79.324219 168.640625 80.140625 C 168.640625 80.589844 168.277344 80.953125 167.828125 80.953125 C 167.378906 80.953125 167.015625 80.589844 167.015625 80.140625 C 167.015625 79.324219 165.789062 79.324219 165.789062 80.140625 C 165.789062 80.589844 165.425781 80.953125 164.976562 80.953125 C 164.507812 80.953125 164.125 80.574219 164.125 80.101562 V 76.800781 C 164.125 76.855469 164.167969 76.902344 164.226562 76.902344 H 150.125 C 150.179687 76.902344 150.226562 76.859375 150.226562 76.800781 V 80.101562 C 150.226562 80.15625 150.183594 80.203125 150.125 80.203125 H 126.5625 L 82.5625 80.203125 H 59 L 50.5 80.203125 C 50.445312 80.203125 50.398437 80.160156 50.398437 80.101562 V 77.101562 C 50.398437 77.15625 50.441406 77.203125 50.5 77.203125 H 44.5 C 44.554687 77.203125 44.601562 77.160156 44.601562 77.101562 V 80.101562 C 44.601562 80.15625 44.558594 80.203125 44.5 80.203125 H 38.5 C 38.445312 80.203125 38.398437 80.160156 38.398437 80.101562 V 77.101562 C 38.398437 77.15625 38.441406 77.203125 38.5 77.203125 H 32.5 C 32.554687 77.203125 32.601562 77.160156 32.601562 77.101562 V 80.101562 C 32.601562 80.15625 32.558594 80.203125 32.5 80.203125 H 26.5 C 26.445312 80.203125 26.398437 80.160156 26.398437 80.101562 V 77.101562 C 26.398437 77.15625 26.441406 77.203125 26.5 77.203125 H 20.5 C 20.554687 77.203125 20.601562 77.160156 20.601562 77.101562 V 80.101562 C 20.601562 80.15625 20.558594 80.203125 20.5 80.203125 H 14.5 C 14.445312 80.203125 14.398437 80.160156 14.398437 80.101562 V 77.101562 C 14.398437 77.15625 14.441406 77.203125 14.5 77.203125 H 8.5 C 8.554687 77.203125 8.601562 77.160156 8.601562 77.101562 V 80.101562 C 8.601562 80.15625 8.558594 80.203125 8.5 80.203125 H -0.000000000000021316 C -0.0546875 80.203125 -0.101563 80.160156 -0.101563 80.101562 V 77.101562 L -0.101563 67.101562 C -0.101563 67.15625 -0.0585938 67.203125 -0.000000000000017764 67.203125 H -3 C -3.054688 67.203125 -3.101563 67.160156 -3.101563 67.101562 V 61.101562 C -3.101563 61.046875 -3.058594 61 -3 61 H -0.000000000000015987 C -0.0546875 61 -0.101563 61.042969 -0.101563 61.101562 V 55.101562 C -0.101563 55.15625 -0.0585938 55.203125 -0.000000000000014211 55.203125 H -3 C -3.054688 55.203125 -3.101563 55.160156 -3.101563 55.101562 V 49.101562 C -3.101563 49.046875 -3.058594 49 -3 49 H -0.000000000000014211 C -0.0546875 49 -0.101563 49.042969 -0.101563 49.101562 V 43.101562 C -0.101563 43.15625 -0.0585938 43.203125 -0.000000000000012434 43.203125 H -3 C -3.054688 43.203125 -3.101563 43.160156 -3.101563 43.101562 V 37.101562 C -3.101563 37.046875 -3.058594 37 -3 37 H -0.000000000000010658 C -0.0546875 37 -0.101563 37.042969 -0.101563 37.101562 V 31.101562 C -0.101563 31.15625 -0.0585938 31.203125 -0.000000000000008882 31.203125 H -3 C -3.054688 31.203125 -3.101563 31.160156 -3.101563 31.101562 V 25.101562 C -3.101563 25.046875 -3.058594 25 -3 25 H -0.000000000000007105 C -0.0546875 25 -0.101563 25.042969 -0.101563 25.101562 V 19.101562 C -0.101563 19.15625 -0.0585938 19.203125 -0.000000000000005329 19.203125 H -3 C -3.054688 19.203125 -3.101563 19.160156 -3.101563 19.101562 V 13.101562 C -3.101563 13.046875 -3.058594 13 -3 13 H -0.000000000000005329 C -0.0546875 13 -0.101563 13.042969 -0.101563 13.101562 V 3.101562 L -0.101563 0.101562 C -0.101563 0.046875 -0.0585938 0 -0.000000000000001776 0 " style="fill:none;stroke-width:0.2;stroke-linecap:butt;stroke-linejoin:miter;stroke:rgb(0%,0%,0%);stroke-opacity:1;stroke-miterlimit:10;" transform="matrix(1.0000,0.0000,0.0000,-1.0000,13.1016,169.6523)"/>
<path d="M 0 0 H 10 C 10.054688 0 10.101562 0.0429688 10.101562 0.101562 V 3.101562 C 10.101562 3.046875 10.058594 3 10 3 H 16 C 15.945312 3 15.898438 3.042969 15.898438 3.101562 V 0.101562 C 15.898438 0.046875 15.941406 0 16 0 H 22 C 22.054688 0 22.101562 0.0429688 22.101562 0.101562 V 3.101562 C 22.101562 3.046875 22.058594 3 22 3 H 28 C 27.945312 3 27.898438 3.042969 27.898438 3.101562 V 0.101562 C 27.898438 0.046875 27.941406 0 28 0 H 34 C 34.054688 0 34.101562 0.0429688 34.101562 0.101562 V 3.101562 C 34.101562 3.046875 34.058594 3 34 3 H 40 C 39.945312 3 39.898438 3.042969 39.898438 3.101562 V 0.101562 C 39.898438 0.046875 39.941406 0 40 0 H 46 C 46.054688 0 46.101562 0.0429688 46.101562 0.101562 V 3.101562 C 46.101562 3.046875 46.058594 3 46 3 H 52 C 51.945312 3 51.898438 3.042969 51.898438 3.101562 V 0.101562 C 51.898438 0.046875 51.941406 0 52 0 H 58 C 58.054688 0 58.101562 0.0429688 58.101562 0.101562 V 3.101562 C 58.101562 3.046875 58.058594 3 58 3 H 64 C 63.945312 3 63.898438 3.042969 63.898438 3.101562 V 0.101562 C 63.898438 0.046875 63.941406 0 64 0 H 74 L 77 0 C 77.054688 0 77.101562 0.0429688 77.101562 0.101562 V 3.101562 L 77.101562 13.101562 C 77.101562 13.15625 77.058594 13.203125 77 13.203125 H 74 C 74.054688 13.203125 74.101562 13.160156 74.101562 13.101562 V 19.101562 C 74.101562 19.046875 74.058594 19 74 19 H 77 C 77.054688 19 77.101562 19.042969 77.101562 19.101562 V 25.101562 C 77.101562 25.15625 77.058594 25.203125 77 25.203125 H 74 C 74.054688 25.203125 74.101562 25.160156 74.101562 25.101562 V 31.101562 C 74.101562 31.046875 74.058594 31 74 31 H 77 C 77.054688 31 77.101562 31.042969 77.101562 31.101562 V 37.101562 C 77.101562 37.15625 77.058594 37.203125 77 37.203125 H 74 C 74.054688 37.203125 74.101562 37.160156 74.101562 37.101562 V 43.101562 C 74.101562 43.046875 74.058594 43 74 43 H 77 C 77.054688 43 77.101562 43.042969 77.101562 43.101562 V 49.101562 C 77.101562 49.15625 77.058594 49.203125 77 49.203125 H 74 C 74.054688 49.203125 74.101562 49.160156 74.101562 49.101562 V 55.101562 C 74.101562 55.046875 74.058594 55 74 55 H 77 C 77.054688 55 77.101562 55.042969 77.101562 55.101562 V 61.101562 C 77.101562 61.15625 77.058594 61.203125 77 61.203125 H 74 C 74.054688 61.203125 74.101562 61.160156 74.101562 61.101562 V 67.101562 C 74.101562 67.046875 74.058594 67 74 67 H 77 C 77.054688 67 77.101562 67.042969 77.101562 67.101562 V 77.101562 L 77.101562 80.101562 C 77.101562 80.15625 77.058594 80.203125 77 80.203125 H 74 L 64 80.203125 C 63.945312 80.203125 63.898437 80.160156 63.898437 80.101562 V 77.101562 C 63.898437 77.15625 63.941406 77.203125 64 77.203125 H 58 C 58.054687 77.203125 58.101562 77.160156 58.101562 77.101562 V 80.101562 C 58.101562 80.15625 58.058594 80.203125 58 80.203125 H 52 C 51.945312 80.203125 51.898437 80.160156 51.898437 80.101562 V 77.101562 C 51.898437 77.15625 51.941406 77.203125 52 77.203125 H 46 C 46.054687 77.203125 46.101562 77.160156 46.101562 77.101562 V 80.101562 C 46.101562 80.15625 46.058594 80.203125 46 80.203125 H 40 C 39.945312 80.203125 39.898437 80.160156 39.898437 80.101562 V 77.101562 C 39.898437 77.15625 39.941406 77.203125 40 77.203125 H 34 C 34.054687 77.203125 34.101562 77.160156 34.101562 77.101562 V 80.101562 C 34.101562 80.15625 34.058594 80.203125 34 80.203125 H 28 C 27.945312 80.203125 27.898437 80.160156 27.898437 80.101562 V 77.101562 C 27.898437 77.15625 27.941406 77.203125 28 77.203125 H 22 C 22.054687 77.203125 22.101562 77.160156 22.101562 77.101562 V 80.101562 C 22.101562 80.15625 22.058594 80.203125 22 80.203125 H 16 C 15.945312 80.203125 15.898437 80.160156 15.898437 80.101562 V 77.101562 C 15.898437 77.15625 15.941406 77.203125 16 77.203125 H 10 C 10.054687 77.203125 10.101562 77.160156 10.101562 77.101562 V 80.101562 C 10.101562 80.15625 10.058594 80.203125 10 80.203125 H -0.000000000000028422 L -3 80.203125 C -3.054688 80.203125 -3.101563 80.160156 -3.101563 80.101562 V 77.101562 L -3.101562 67.101562 C -3.101562 67.046875 -3.058594 67 -3 67 H 0 C -0.0546875 67 -0.101562 67.042969 -0.101562 67.101562 V 61.101562 C -0.101562 61.15625 -0.0585938 61.203125 0 61.203125 H -3 C -3.054688 61.203125 -3.101562 61.160156 -3.101562 61.101562 V 55.101562 C -3.101562 55.046875 -3.058594 55 -3 55 H 0 C -0.0546875 55 -0.101562 55.042969 -0.101562 55.101562 V 49.101562 C -0.101562 49.15625 -0.0585938 49.203125 0 49.203125 H -3 C -3.054688 49.203125 -3.101562 49.160156 -3.101562 49.101562 V 43.101562 C -3.101562 43.046875 -3.058594 43 -3 43 H 0 C -0.0546875 43 -0.101562 43.042969 -0.101562 43.101562 V 37.101562 C -0.101562 37.15625 -0.0585938 37.203125 0 37.203125 H -3 C -3.054688 37.203125 -3.101562 37.160156 -3.101562 37.101562 V 31.101562 C -3.101562 31.046875 -3.058594 31 -3 31 H 0 C -0.0546875 31 -0.101562 31.042969 -0.101562 31.101562 V 25.101562 C -0.101562 25.15625 -0.0585938 25.203125 0 25.203125 H -3 C -3.054688 25.203125 -3.101562 25.160156 -3.101562 25.101562 V 19.101562 C -3.101562 19.046875 -3.058594 19 -3 19 H 0 C -0.0546875 19 -0.101562 19.042969 -0.101562 19.101562 V 13.101562 C -0.101562 13.15625 -0.0585938 13.203125 0 13.203125 H -3 C -3.054688 13.203125 -3.101562 13.160156 -3.101562 13.101562 V 3.101562 L -3.101562 0.101562 C -3.101562 0.046875 -3.058594 0 -3 0 H 0 " style="fill:none;stroke-width:0.2;stroke-linecap:butt;stroke-linejoin:miter;stroke:rgb(0%,0%,0%);stroke-opacity:1;stroke-miterlimit:10;" transform="matrix(1.0000,0.0000,0.0000,-1.0000,194.9258,170.4023)"/>
<path d="M -0.000000000000001776 0 H 10 C 9.945312 0 9.898437 0.0429688 9.898437 0.101562 L 9.898438 -2.898438 C 9.898438 -2.953125 9.941406 -3 10 -3 H 16 C 16.054688 -3 16.101562 -2.957031 16.101562 -2.898438 V 0.101562 C 16.101562 0.046875 16.058594 0 16 0 H 22 C 21.945312 0 21.898438 0.0429688 21.898438 0.101562 V -2.898438 C 21.898438 -2.953125 21.941406 -3 22 -3 H 28 C 28.054688 -3 28.101562 -2.957031 28.101562 -2.898438 V 0.101562 C 28.101562 0.046875 28.058594 0 28 0 H 34 C 33.945312 0 33.898438 0.0429688 33.898438 0.101562 V -2.898438 C 33.898438 -2.953125 33.941406 -3 34 -3 H 40 C 40.054688 -3 40.101562 -2.957031 40.101562 -2.898438 V 0.101562 C 40.101562 0.046875 40.058594 0 40 0 H 46 C 45.945312 0 45.898438 0.0429688 45.898438 0.101562 V -2.898438 C 45.898438 -2.953125 45.941406 -3 46 -3 H 52 C 52.054688 -3 52.101562 -2.957031 52.101562 -2.898438 V 0.101562 C 52.101562 0.046875 52.058594 0 52 0 H 58 C 57.945312 0 57.898438 0.0429688 57.898438 0.101562 V -2.898438 C 57.898438 -2.953125 57.941406 -3 58 -3 H 64 C 64.054688 -3 64.101562 -2.957031 64.101562 -2.898438 V 0.101562 C 64.101562 0.046875 64.058594 0 64 0 H 74 C 74.054688 0 74.101562 0.0429688 74.101562 0.101562 V 8.601562 C 74.101562 8.546875 74.058594 8.5 74 8.5 H 77 C 77.054687 8.5 77.101562 8.542969 77.101562 8.601562 V 14.601562 C 77.101562 14.65625 77.058594 14.703125 77 14.703125 H 74 C 74.054687 14.703125 74.101562 14.660156 74.101562 14.601562 V 20.601562 C 74.101562 20.546875 74.058594 20.5 74 20.5 H 77 C 77.054687 20.5 77.101562 20.542969 77.101562 20.601562 V 26.601562 C 77.101562 26.65625 77.058594 26.703125 77 26.703125 H 74 C 74.054687 26.703125 74.101562 26.660156 74.101562 26.601562 V 32.601562 C 74.101562 32.546875 74.058594 32.5 74 32.5 H 77 C 77.054687 32.5 77.101562 32.542969 77.101562 32.601562 V 38.601562 C 77.101562 38.65625 77.058594 38.703125 77 38.703125 H 74 C 74.054687 38.703125 74.101562 38.660156 74.101562 38.601562 V 44.601562 C 74.101562 44.546875 74.058594 44.5 74 44.5 H 77 C 77.054687 44.5 77.101562 44.542969 77.101562 44.601562 V 50.601562 C 77.101562 50.65625 77.058594 50.703125 77 50.703125 H 74 C 74.054687 50.703125 74.101562 50.660156 74.101562 50.601562 V 59.101562 C 74.101562 61.753906 73.402344 64.355469 72.078125 66.652344 C 70.753906 68.949219 68.847656 70.855469 66.550781 72.179688 C 64.253906 73.503906 61.652344 74.203125 59 74.203125 H 15 C 12.347656 74.203125 9.746094 73.503906 7.449219 72.179688 C 5.152344 70.855469 3.246094 68.949219 1.921875 66.652344 C 0.597656 64.355469 -0.101563 61.753906 -0.101563 59.101562 C -0.101563 59.15625 -0.0585938 59.203125 -0.000000000000037303 59.203125 H -3 C -3.054688 59.203125 -3.101563 59.160156 -3.101563 59.101562 V 45.601562 C -3.101563 45.546875 -3.058594 45.5 -3 45.5 H -0.000000000000028422 C -0.0546875 45.5 -0.101563 45.542969 -0.101563 45.601562 V 32.101562 L -0.101563 25.101562 C -0.101563 25.15625 -0.0585938 25.203125 -0.000000000000015987 25.203125 H -3 C -3.054688 25.203125 -3.101563 25.160156 -3.101563 25.101562 V 19.101562 C -3.101563 19.046875 -3.058594 19 -3 19 H -0.000000000000012434 C -0.0546875 19 -0.101563 19.042969 -0.101563 19.101562 V 13.101562 C -0.101563 13.15625 -0.0585938 13.203125 -0.000000000000008882 13.203125 H -3 C -3.054688 13.203125 -3.101563 13.160156 -3.101563 13.101562 V 7.101562 C -3.101563 7.046875 -3.058594 7 -3 7 H -0.000000000000005329 C -0.0546875 7 -0.101563 7.042969 -0.101563 7.101562 V 0.101562 C -0.101563 0.046875 -0.0585938 0 -0.000000000000001776 0 " style="fill:none;stroke-width:0.2;stroke-linecap:butt;stroke-linejoin:miter;stroke:rgb(0%,0%,0%);stroke-opacity:1;stroke-miterlimit:10;" transform="matrix(1.0000,0.0000,0.0000,-1.0000,13.1016,84.2031)"/>
<path d="M 0 0 H 10 C 9.945312 0 9.898438 0.0429688 9.898438 0.101562 V -2.898438 C 9.898438 -2.953125 9.941406 -3 10 -3 H 16 C 16.054688 -3 16.101562 -2.957031 16.101562 -2.898438 V 0.101562 C 16.101562 0.046875 16.058594 0 16 0 H 22 C 21.945312 0 21.898438 0.0429688 21.898438 0.101562 V -2.898438 C 21.898438 -2.953125 21.941406 -3 22 -3 H 28 C 28.054688 -3 28.101562 -2.957031 28.101562 -2.898438 V 0.101562 C 28.101562 0.046875 28.058594 0 28 0 H 34 C 33.945312 0 33.898438 0.0429688 33.898438 0.101562 V -2.898438 C 33.898438 -2.953125 33.941406 -3 34 -3 H 40 C 40.054688 -3 40.101562 -2.957031 40.101562 -2.898438 V 0.101562 C 40.101562 0.046875 40.058594 0 40 0 H 46 C 45.945312 0 45.898438 0.0429688 45.898438 0.101562 V -2.898438 C 45.898438 -2.953125 45.941406 -3 46 -3 H 52 C 52.054688 -3 52.101562 -2.957031 52.101562 -2.898438 V 0.101562 C 52.101562 0.046875 52.058594 0 52 0 H 58 C 57.945312 0 57.898438 0.0429688 57.898438 0.101562 V -2.898438 C 57.898438 -2.953125 57.941406 -3 58 -3 H 64 C 64.054688 -3 64.101562 -2.957031 64.101562 -2.898438 V 0.101562 C 64.101562 0.046875 64.058594 0 64 0 H 74 C 74.054688 0 74.101562 0.0429688 74.101562 0.101562 V 8.601562 C 74.101562 8.546875 74.058594 8.5 74 8.5 H 77 C 77.054687 8.5 77.101562 8.542969 77.101562 8.601562 V 14.601562 C 77.101562 14.65625 77.058594 14.703125 77 14.703125 H 74 C 74.054687 14.703125 74.101562 14.660156 74.101562 14.601562 V 20.601562 C 74.101562 20.546875 74.058594 20.5 74 20.5 H 77 C 77.054687 20.5 77.101562 20.542969 77.101562 20.601562 V 26.601562 C 77.101562 26.65625 77.058594 26.703125 77 26.703125 H 74 C 74.054687 26.703125 74.101562 26.660156 74.101562 26.601562 V 32.601562 C 74.101562 32.546875 74.058594 32.5 74 32.5 H 77 C 77.054687 32.5 77.101562 32.542969 77.101562 32.601562 V 38.601562 C 77.101562 38.65625 77.058594 38.703125 77 38.703125 H 74 C 74.054687 38.703125 74.101562 38.660156 74.101562 38.601562 V 44.601562 C 74.101562 44.546875 74.058594 44.5 74 44.5 H 77 C 77.054687 44.5 77.101562 44.542969 77.101562 44.601562 V 50.601562 C 77.101562 50.65625 77.058594 50.703125 77 50.703125 H 74 C 74.054687 50.703125 74.101562 50.660156 74.101562 50.601562 V 59.101562 C 74.101562 61.753906 73.402344 64.355469 72.078125 66.652344 C 70.753906 68.949219 68.847656 70.855469 66.550781 72.179688 C 64.253906 73.503906 61.652344 74.203125 59 74.203125 H 15 C 12.347656 74.203125 9.746094 73.503906 7.449219 72.179688 C 5.152344 70.855469 3.246094 68.949219 1.921875 66.652344 C 0.597656 64.355469 -0.101563 61.753906 -0.101563 59.101562 C -0.101563 59.15625 -0.0585938 59.203125 -0.000000000000028422 59.203125 H -3 C -3.054688 59.203125 -3.101563 59.160156 -3.101563 59.101562 V 45.601562 C -3.101563 45.546875 -3.058594 45.5 -3 45.5 H -0.000000000000028422 C -0.0546875 45.5 -0.101563 45.542969 -0.101563 45.601562 V 32.101562 L -0.101563 25.101562 C -0.101563 25.15625 -0.0585938 25.203125 -0.000000000000028422 25.203125 H -3 C -3.054688 25.203125 -3.101563 25.160156 -3.101563 25.101562 V 19.101562 C -3.101563 19.046875 -3.058594 19 -3 19 H -0.000000000000028422 C -0.0546875 19 -0.101563 19.042969 -0.101563 19.101562 L -0.101562 13.101562 C -0.101562 13.15625 -0.0585938 13.203125 0 13.203125 H -3 C -3.054688 13.203125 -3.101562 13.160156 -3.101562 13.101562 V 7.101562 C -3.101562 7.046875 -3.058594 7 -3 7 H 0 C -0.0546875 7 -0.101562 7.042969 -0.101562 7.101562 V 0.101562 C -0.101562 0.046875 -0.0585938 0 0 0 " style="fill:none;stroke-width:0.2;stroke-linecap:butt;stroke-linejoin:miter;stroke:rgb(0%,0%,0%);stroke-opacity:1;stroke-miterlimit:10;" transform="matrix(-1.0000,0.0000,-0.0000,-1.0000,168.8008,84.2031)"/>
<path d="M 0 0 H 10 C 9.945312 0 9.898438 0.0429688 9.898438 0.101562 V -2.898438 C 9.898438 -2.953125 9.941406 -3 10 -3 H 16 C 16.054688 -3 16.101562 -2.957031 16.101562 -2.898438 V 0.101562 C 16.101562 0.046875 16.058594 0 16 0 H 22 C 21.945312 0 21.898438 0.0429688 21.898438 0.101562 V -2.898438 C 21.898438 -2.953125 21.941406 -3 22 -3 H 28 C 28.054688 -3 28.101562 -2.957031 28.101562 -2.898438 V 0.101562 C 28.101562 0.046875 28.058594 0 28 0 H 34 C 33.945312 0 33.898438 0.0429688 33.898438 0.101562 V -2.898438 C 33.898438 -2.953125 33.941406 -3 34 -3 H 40 C 40.054688 -3 40.101562 -2.957031 40.101562 -2.898438 V 0.101562 C 40.101562 0.046875 40.058594 0 40 0 H 46 C 45.945312 0 45.898438 0.0429688 45.898438 0.101562 V -2.898438 C 45.898438 -2.953125 45.941406 -3 46 -3 H 52 C 52.054688 -3 52.101562 -2.957031 52.101562 -2.898438 V 0.101562 C 52.101562 0.046875 52.058594 0 52 0 H 58 C 57.945312 0 57.898438 0.0429688 57.898438 0.101562 V -2.898438 C 57.898438 -2.953125 57.941406 -3 58 -3 H 64 C 64.054688 -3 64.101562 -2.957031 64.101562 -2.898438 V 0.101562 C 64.101562 0.046875 64.058594 0 64 0 H 74 L 77 0 C 77.054688 0 77.101562 0.0429688 77.101562 0.101562 H 77.101562 V 7.101562 C 77.101562 7.15625 77.058594 7.203125 77 7.203125 H 74 C 74.054688 7.203125 74.101562 7.160156 74.101562 7.101562 V 13.101562 C 74.101562 13.046875 74.058594 13 74 13 H 77 C 77.054688 13 77.101562 13.042969 77.101562 13.101562 V 19.101562 C 77.101562 19.15625 77.058594 19.203125 77 19.203125 H 74 C 74.054688 19.203125 74.101562 19.160156 74.101562 19.101562 V 25.101562 C 74.101562 25.046875 74.058594 25 74 25 H 77 C 77.054688 25 77.101562 25.042969 77.101562 25.101562 V 32.101562 C 77.101562 32.15625 77.058594 32.203125 77 32.203125 H 74 L 0 32.203125 H -3 C -3.054688 32.203125 -3.101562 32.160156 -3.101562 32.101562 H -3.101562 V 25.101562 C -3.101562 25.046875 -3.058594 25 -3 25 H 0 C -0.0546875 25 -0.101562 25.042969 -0.101562 25.101562 V 19.101562 C -0.101562 19.15625 -0.0585938 19.203125 0 19.203125 H -3 C -3.054688 19.203125 -3.101562 19.160156 -3.101562 19.101562 V 13.101562 C -3.101562 13.046875 -3.058594 13 -3 13 H 0 C -0.0546875 13 -0.101562 13.042969 -0.101562 13.101562 V 7.101562 C -0.101562 7.15625 -0.0585938 7.203125 0 7.203125 H -3 C -3.054688 7.203125 -3.101562 7.160156 -3.101562 7.101562 V 0.101562 C -3.101562 0.046875 -3.058594 0 -3 0 H 0 " style="fill:none;stroke-width:0.2;stroke-linecap:butt;stroke-linejoin:miter;stroke:rgb(0%,0%,0%);stroke-opacity:1;stroke-miterlimit:10;" transform="matrix(1.0000,0.0000,0.0000,-1.0000,176.5000,84.2031)"/>
</g>
</svg>