<svg xmlns="http://www.w3.org/2000/svg" height="140mm" version="1.1" viewBox="0 -10 200 140" width="200mm">
<!--
FlexBox3 - 
Created with Boxes.py (https://festi.info/boxes.py)
Creation date: 2019-10-31 15:12:41
Command line (remove spaces beteen dashes): boxes FlexBox3 - -FingerJoint_angle=90.0 - -FingerJoint_style=rectangular - -FingerJoint_surroundingspaces=1 - -FingerJoint_edge_width=1.0 - -FingerJoint_finger=2.0 - -FingerJoint_play=0.0 - -FingerJoint_space=2.0 - -FingerJoint_width=1.0 - -Flex_stretch=1.05 - -Flex_connection=1.0 - -Flex_distance=0.5 - -Flex_width=5.0 - -x=50 - -y=50 - -outside=0 - -outside=1 - -z=50 - -h=5 - -radius=5 - -c=0.5 - -thickness=3.0 - -format=svg - -tabs=0.0 - -debug=0 - -reference=0 - -burn=0.05
Url: http://localhost:8008/FlexBox3?FingerJoint_angle=90.0&FingerJoint_style=rectangular&FingerJoint_surroundingspaces=1&FingerJoint_edge_width=1.0&FingerJoint_finger=2.0&FingerJoint_play=0.0&FingerJoint_space=2.0&FingerJoint_width=1.0&Flex_stretch=1.05&Flex_connection=1.0&Flex_distance=0.5&Flex_width=5.0&x=50&y=50&outside=0&outside=1&z=50&h=5&radius=5&c=0.5&thickness=3.0&format=svg&tabs=0.0&debug=0&reference=0&burn=0.05&render=1
SettingsUrl: http://localhost:8008/FlexBox3?FingerJoint_angle=90.0&FingerJoint_style=rectangular&FingerJoint_surroundingspaces=1&FingerJoint_edge_width=1.0&FingerJoint_finger=2.0&FingerJoint_play=0.0&FingerJoint_space=2.0&FingerJoint_width=1.0&Flex_stretch=1.05&Flex_connection=1.0&Flex_distance=0.5&Flex_width=5.0&x=50&y=50&outside=0&outside=1&z=50&h=5&radius=5&c=0.5&thickness=3.0&format=svg&tabs=0.0&debug=0&reference=0&burn=0.05
--><g id="surface8874">
<path d="M 0 0 H 4.5 C 4.527344 0 4.550781 0.0234375 4.550781 0.0507812 V 3.050781 C 4.550781 3.023438 4.527344 3 4.5 3 H 10.5 C 10.472656 3 10.449219 3.023438 10.449219 3.050781 V 0.0507812 C 10.449219 0.0234375 10.472656 0 10.5 0 H 16.5 C 16.527344 0 16.550781 0.0234375 16.550781 0.0507812 V 3.050781 C 16.550781 3.023438 16.527344 3 16.5 3 H 22.5 C 22.472656 3 22.449219 3.023438 22.449219 3.050781 V 0.0507812 C 22.449219 0.0234375 22.472656 0 22.5 0 H 28.5 C 28.527344 0 28.550781 0.0234375 28.550781 0.0507812 V 3.050781 C 28.550781 3.023438 28.527344 3 28.5 3 H 34.5 C 34.472656 3 34.449219 3.023438 34.449219 3.050781 V 0.0507812 C 34.449219 0.0234375 34.472656 0 34.5 0 H 39 M 41.230469 0 V 15.699219 M 41.230469 18.699219 V 47.101562 M 42.730469 50.101562 V 34.398438 M 42.730469 31.398438 V 3 M 44.230469 0 V 15.699219 M 44.230469 18.699219 V 47.101562 M 39 0 H 46.460938 C 46.433594 0 46.410156 0.0234375 46.410156 0.0507812 V -0.449219 C 46.410156 -0.476562 46.433594 -0.5 46.460938 -0.5 H 52.460938 C 52.433594 -0.5 52.410156 -0.476562 52.410156 -0.449219 V -3.449219 C 52.410156 -3.476562 52.433594 -3.5 52.460938 -3.5 H 58.460938 C 58.488281 -3.5 58.511719 -3.476562 58.511719 -3.449219 V -0.449219 C 58.511719 -0.476562 58.488281 -0.5 58.460938 -0.5 H 64.460938 C 64.433594 -0.5 64.410156 -0.476562 64.410156 -0.449219 V -3.449219 C 64.410156 -3.476562 64.433594 -3.5 64.460938 -3.5 H 70.460938 C 70.488281 -3.5 70.511719 -3.476562 70.511719 -3.449219 V -0.449219 C 70.511719 -0.476562 70.488281 -0.5 70.460938 -0.5 H 76.460938 C 76.433594 -0.5 76.410156 -0.476562 76.410156 -0.449219 V -3.449219 C 76.410156 -3.476562 76.433594 -3.5 76.460938 -3.5 H 82.460938 C 82.488281 -3.5 82.511719 -3.476562 82.511719 -3.449219 V -0.449219 C 82.511719 -0.476562 82.488281 -0.5 82.460938 -0.5 H 88.460938 C 88.488281 -0.5 88.511719 -0.476562 88.511719 -0.449219 V 4.050781 C 88.511719 4.023438 88.488281 4 88.460938 4 H 91.460938 C 91.488281 4 91.511719 4.023438 91.511719 4.050781 V 10.050781 C 91.511719 10.078125 91.488281 10.101562 91.460938 10.101562 H 88.460938 C 88.488281 10.101562 88.511719 10.078125 88.511719 10.050781 V 16.050781 C 88.511719 16.023438 88.488281 16 88.460938 16 H 91.460938 C 91.488281 16 91.511719 16.023438 91.511719 16.050781 V 22.050781 C 91.511719 22.078125 91.488281 22.101562 91.460938 22.101562 H 88.460938 C 88.488281 22.101562 88.511719 22.078125 88.511719 22.050781 V 28.050781 C 88.511719 28.023438 88.488281 28 88.460938 28 H 91.460938 C 91.488281 28 91.511719 28.023438 91.511719 28.050781 V 34.050781 C 91.511719 34.078125 91.488281 34.101562 91.460938 34.101562 H 88.460938 C 88.488281 34.101562 88.511719 34.078125 88.511719 34.050781 V 40.050781 C 88.511719 40.023438 88.488281 40 88.460938 40 H 91.460938 C 91.488281 40 91.511719 40.023438 91.511719 40.050781 V 46.050781 C 91.511719 46.078125 91.488281 46.101562 91.460937 46.101562 H 88.460937 C 88.488281 46.101562 88.511719 46.078125 88.511719 46.050781 V 50.550781 C 88.511719 50.578125 88.488281 50.601562 88.460937 50.601562 H 82.460937 C 82.488281 50.601562 82.511719 50.578125 82.511719 50.550781 V 53.550781 C 82.511719 53.578125 82.488281 53.601562 82.460937 53.601562 H 76.460937 C 76.433594 53.601562 76.410156 53.578125 76.410156 53.550781 V 50.550781 C 76.410156 50.578125 76.433594 50.601562 76.460937 50.601562 H 70.460937 C 70.488281 50.601562 70.511719 50.578125 70.511719 50.550781 V 53.550781 C 70.511719 53.578125 70.488281 53.601562 70.460937 53.601562 H 64.460937 C 64.433594 53.601562 64.410156 53.578125 64.410156 53.550781 V 50.550781 C 64.410156 50.578125 64.433594 50.601562 64.460937 50.601562 H 58.460937 C 58.488281 50.601562 58.511719 50.578125 58.511719 50.550781 V 53.550781 C 58.511719 53.578125 58.488281 53.601562 58.460937 53.601562 H 52.460937 C 52.433594 53.601562 52.410156 53.578125 52.410156 53.550781 V 50.550781 C 52.410156 50.578125 52.433594 50.601562 52.460937 50.601562 H 46.460937 C 46.433594 50.601562 46.410156 50.578125 46.410156 50.550781 V 50.050781 C 46.410156 50.078125 46.433594 50.101562 46.460937 50.101562 H 39 L 34.5 50.101562 C 34.472656 50.101562 34.449219 50.078125 34.449219 50.050781 V 47.050781 C 34.449219 47.078125 34.472656 47.101562 34.5 47.101562 H 28.5 C 28.527344 47.101562 28.550781 47.078125 28.550781 47.050781 V 50.050781 C 28.550781 50.078125 28.527344 50.101562 28.5 50.101562 H 22.5 C 22.472656 50.101562 22.449219 50.078125 22.449219 50.050781 V 47.050781 C 22.449219 47.078125 22.472656 47.101562 22.5 47.101562 H 16.5 C 16.527344 47.101562 16.550781 47.078125 16.550781 47.050781 V 50.050781 C 16.550781 50.078125 16.527344 50.101562 16.5 50.101562 H 10.5 C 10.472656 50.101562 10.449219 50.078125 10.449219 50.050781 V 47.050781 C 10.449219 47.078125 10.472656 47.101562 10.5 47.101562 H 4.5 C 4.527344 47.101562 4.550781 47.078125 4.550781 47.050781 V 50.050781 C 4.550781 50.078125 4.527344 50.101562 4.5 50.101562 H -0.000000000000012434 C -0.0273438 50.101562 -0.0507813 50.078125 -0.0507813 50.050781 V 47.050781 L -0.0507813 40.050781 C -0.0507813 40.078125 -0.0273438 40.101562 -0.00000000000000977 40.101562 H -3 C -3.027344 40.101562 -3.050781 40.078125 -3.050781 40.050781 V 34.050781 C -3.050781 34.023438 -3.027344 34 -3 34 H -0.000000000000008438 C -0.0273438 34 -0.0507813 34.023438 -0.0507813 34.050781 V 28.050781 C -0.0507813 28.078125 -0.0273438 28.101562 -0.000000000000007105 28.101562 H -3 C -3.027344 28.101562 -3.050781 28.078125 -3.050781 28.050781 V 22.050781 C -3.050781 22.023438 -3.027344 22 -3 22 H -0.000000000000005329 C -0.0273438 22 -0.0507813 22.023438 -0.0507813 22.050781 V 16.050781 C -0.0507813 16.078125 -0.0273438 16.101562 -0.000000000000003997 16.101562 H -3 C -3.027344 16.101562 -3.050781 16.078125 -3.050781 16.050781 V 10.050781 C -3.050781 10.023438 -3.027344 10 -3 10 H -0.000000000000002665 C -0.0273438 10 -0.0507813 10.023438 -0.0507813 10.050781 V 3.050781 L -0.0507812 0.0507812 C -0.0507812 0.0234375 -0.0273438 0 0 0 " style="fill:none;stroke-width:0.1;stroke-linecap:butt;stroke-linejoin:miter;stroke:rgb(0%,0%,0%);stroke-opacity:1;stroke-miterlimit:10;" transform="matrix(1.0000,0.0000,0.0000,-1.0000,13.0508,112.1992)"/>
<path d="M 0 0 H 7 C 7.027344 0 7.050781 0.0234375 7.050781 0.0507812 V 3.050781 C 7.050781 3.023438 7.027344 3 7 3 H 13 C 12.972656 3 12.949219 3.023438 12.949219 3.050781 V 0.0507812 C 12.949219 0.0234375 12.972656 0 13 0 H 19 C 19.027344 0 19.050781 0.0234375 19.050781 0.0507812 V 3.050781 C 19.050781 3.023438 19.027344 3 19 3 H 25 C 24.972656 3 24.949219 3.023438 24.949219 3.050781 V 0.0507812 C 24.949219 0.0234375 24.972656 0 25 0 H 31 C 31.027344 0 31.050781 0.0234375 31.050781 0.0507812 V 3.050781 C 31.050781 3.023438 31.027344 3 31 3 H 37 C 36.972656 3 36.949219 3.023438 36.949219 3.050781 V 0.0507812 C 36.949219 0.0234375 36.972656 0 37 0 H 44 L 47 0 C 47.027344 0 47.050781 0.0234375 47.050781 0.0507812 V 3.050781 L 47.050781 10.050781 C 47.050781 10.078125 47.027344 10.101562 47 10.101562 H 44 C 44.027344 10.101562 44.050781 10.078125 44.050781 10.050781 V 16.050781 C 44.050781 16.023438 44.027344 16 44 16 H 47 C 47.027344 16 47.050781 16.023438 47.050781 16.050781 V 22.050781 C 47.050781 22.078125 47.027344 22.101562 47 22.101562 H 44 C 44.027344 22.101562 44.050781 22.078125 44.050781 22.050781 V 28.050781 C 44.050781 28.023438 44.027344 28 44 28 H 47 C 47.027344 28 47.050781 28.023438 47.050781 28.050781 V 34.050781 C 47.050781 34.078125 47.027344 34.101562 47 34.101562 H 44 C 44.027344 34.101562 44.050781 34.078125 44.050781 34.050781 V 40.050781 C 44.050781 40.023438 44.027344 40 44 40 H 47 C 47.027344 40 47.050781 40.023438 47.050781 40.050781 V 47.050781 L 47.050781 50.050781 C 47.050781 50.078125 47.027344 50.101562 47 50.101562 H 44 L 37 50.101562 C 36.972656 50.101562 36.949219 50.078125 36.949219 50.050781 V 47.050781 C 36.949219 47.078125 36.972656 47.101562 37 47.101562 H 31 C 31.027344 47.101562 31.050781 47.078125 31.050781 47.050781 V 50.050781 C 31.050781 50.078125 31.027344 50.101562 31 50.101562 H 25 C 24.972656 50.101562 24.949219 50.078125 24.949219 50.050781 V 47.050781 C 24.949219 47.078125 24.972656 47.101562 25 47.101562 H 19 C 19.027344 47.101562 19.050781 47.078125 19.050781 47.050781 V 50.050781 C 19.050781 50.078125 19.027344 50.101562 19 50.101562 H 13 C 12.972656 50.101562 12.949219 50.078125 12.949219 50.050781 V 47.050781 C 12.949219 47.078125 12.972656 47.101562 13 47.101562 H 7 C 7.027344 47.101562 7.050781 47.078125 7.050781 47.050781 V 50.050781 C 7.050781 50.078125 7.027344 50.101562 7 50.101562 H -0.000000000000014211 L -3 50.101562 C -3.027344 50.101562 -3.050781 50.078125 -3.050781 50.050781 V 47.050781 L -3.050781 40.050781 C -3.050781 40.023438 -3.027344 40 -3 40 H 0 C -0.0273438 40 -0.0507812 40.023438 -0.0507812 40.050781 V 34.050781 C -0.0507812 34.078125 -0.0273438 34.101562 0 34.101562 H -3 C -3.027344 34.101562 -3.050781 34.078125 -3.050781 34.050781 V 28.050781 C -3.050781 28.023438 -3.027344 28 -3 28 H 0 C -0.0273438 28 -0.0507812 28.023438 -0.0507812 28.050781 V 22.050781 C -0.0507812 22.078125 -0.0273438 22.101562 0 22.101562 H -3 C -3.027344 22.101562 -3.050781 22.078125 -3.050781 22.050781 V 16.050781 C -3.050781 16.023438 -3.027344 16 -3 16 H 0 C -0.0273438 16 -0.0507812 16.023438 -0.0507812 16.050781 V 10.050781 C -0.0507812 10.078125 -0.0273438 10.101562 0 10.101562 H -3 C -3.027344 10.101562 -3.050781 10.078125 -3.050781 10.050781 V 3.050781 L -3.050781 0.0507812 C -3.050781 0.0234375 -3.027344 0 -3 0 H 0 " style="fill:none;stroke-width:0.1;stroke-linecap:butt;stroke-linejoin:miter;stroke:rgb(0%,0%,0%);stroke-opacity:1;stroke-miterlimit:10;" transform="matrix(1.0000,0.0000,0.0000,-1.0000,109.1094,115.6992)"/>
<path d="M 0 0 H 2.5 L 5 0 C 5.027344 0 5.050781 0.0234375 5.050781 0.0507812 V 3.050781 L 5.050781 54.050781 V 57.050781 C 5.050781 57.078125 5.027344 57.101562 5 57.101562 H 5 L 2.5 57.101562 H 0 L -3 57.101562 C -3.027344 57.101562 -3.050781 57.078125 -3.050781 57.050781 V 54.050781 L -3.050781 49.550781 C -3.050781 49.523438 -3.027344 49.5 -3 49.5 H 0 C -0.0273438 49.5 -0.0507812 49.523438 -0.0507812 49.550781 V 43.550781 C -0.0507812 43.578125 -0.0273438 43.601562 0 43.601562 H -3 C -3.027344 43.601562 -3.050781 43.578125 -3.050781 43.550781 V 37.550781 C -3.050781 37.523438 -3.027344 37.5 -3 37.5 H 0 C -0.0273438 37.5 -0.0507812 37.523438 -0.0507812 37.550781 V 31.550781 C -0.0507812 31.578125 -0.0273438 31.601562 0 31.601562 H -3 C -3.027344 31.601562 -3.050781 31.578125 -3.050781 31.550781 V 25.550781 C -3.050781 25.523438 -3.027344 25.5 -3 25.5 H 0 C -0.0273438 25.5 -0.0507812 25.523438 -0.0507812 25.550781 V 19.550781 C -0.0507812 19.578125 -0.0273438 19.601562 0 19.601562 H -3 C -3.027344 19.601562 -3.050781 19.578125 -3.050781 19.550781 V 13.550781 C -3.050781 13.523438 -3.027344 13.5 -3 13.5 H 0 C -0.0273438 13.5 -0.0507812 13.523438 -0.0507812 13.550781 V 7.550781 C -0.0507812 7.578125 -0.0273438 7.601562 0 7.601562 H -3 C -3.027344 7.601562 -3.050781 7.578125 -3.050781 7.550781 V 3.050781 L -3.050781 0.0507812 C -3.050781 0.0234375 -3.027344 0 -3 0 H 0 " style="fill:none;stroke-width:0.1;stroke-linecap:butt;stroke-linejoin:miter;stroke:rgb(0%,0%,0%);stroke-opacity:1;stroke-miterlimit:10;" transform="matrix(1.0000,0.0000,0.0000,-1.0000,160.7109,115.6992)"/>
<path d="M 0.00390625 0.00390625 C 1.417969 0.00390625 2.804687 0.375 4.027344 1.082031 C 5.25 1.789062 6.265625 2.804688 6.972656 4.027344 C 7.679687 5.25 8.050781 6.640625 8.050781 8.050781 V 14.050781 C 8.050781 14.078125 8.027344 14.101562 8 14.101562 H 5 C 5.027344 14.101562 5.050781 14.078125 5.050781 14.050781 V 20.050781 C 5.050781 20.023438 5.027344 20 5 20 H 8 C 8.027344 20 8.050781 20.023438 8.050781 20.050781 V 26.050781 C 8.050781 26.078125 8.027344 26.101562 8 26.101562 H 5 C 5.027344 26.101562 5.050781 26.078125 5.050781 26.050781 V 32.050781 C 5.050781 32.023438 5.027344 32 5 32 H 8 C 8.027344 32 8.050781 32.023438 8.050781 32.050781 V 38.050781 C 8.050781 38.078125 8.027344 38.101562 8 38.101562 H 5 C 5.027344 38.101562 5.050781 38.078125 5.050781 38.050781 V 44.050781 C 5.050781 44.023438 5.027344 44 5 44 H 8 C 8.027344 44 8.050781 44.023438 8.050781 44.050781 V 50.050781 C 8.050781 50.078125 8.027344 50.101562 8 50.101562 H 5 L 2.5 50.101562 H -0.000000000000056843 C -0.0273438 50.101562 -0.0507813 50.078125 -0.0507813 50.050781 H -0.0507813 V 0.0507812 C -0.0507813 0.0234375 -0.0273438 0 -0.000000000000028422 0 " style="fill:none;stroke-width:0.1;stroke-linecap:butt;stroke-linejoin:miter;stroke:rgb(0%,0%,0%);stroke-opacity:1;stroke-miterlimit:10;" transform="matrix(1.0000,0.0000,0.0000,-1.0000,167.3086,115.7031)"/>
<path d="M 0.00390625 0.00390625 C 1.417969 0.00390625 2.804687 0.375 4.027344 1.082031 C 5.25 1.789062 6.265625 2.804688 6.972656 4.027344 C 7.679687 5.25 8.050781 6.640625 8.050781 8.050781 V 14.050781 C 8.050781 14.078125 8.027344 14.101562 8 14.101562 H 5 C 5.027344 14.101562 5.050781 14.078125 5.050781 14.050781 V 20.050781 C 5.050781 20.023438 5.027344 20 5 20 H 8 C 8.027344 20 8.050781 20.023438 8.050781 20.050781 V 26.050781 C 8.050781 26.078125 8.027344 26.101562 8 26.101562 H 5 C 5.027344 26.101562 5.050781 26.078125 5.050781 26.050781 V 32.050781 C 5.050781 32.023438 5.027344 32 5 32 H 8 C 8.027344 32 8.050781 32.023438 8.050781 32.050781 V 38.050781 C 8.050781 38.078125 8.027344 38.101562 8 38.101562 H 5 C 5.027344 38.101562 5.050781 38.078125 5.050781 38.050781 V 44.050781 C 5.050781 44.023438 5.027344 44 5 44 H 8 C 8.027344 44 8.050781 44.023438 8.050781 44.050781 V 50.050781 C 8.050781 50.078125 8.027344 50.101562 8 50.101562 H 5 L 2.5 50.101562 H -0.000000000000056843 C -0.0273438 50.101562 -0.0507813 50.078125 -0.0507813 50.050781 H -0.0507813 V 0.0507812 C -0.0507813 0.0234375 -0.0273438 0 -0.000000000000028422 0 " style="fill:none;stroke-width:0.1;stroke-linecap:butt;stroke-linejoin:miter;stroke:rgb(0%,0%,0%);stroke-opacity:1;stroke-miterlimit:10;" transform="matrix(-1.0000,0.0000,-0.0000,-1.0000,184.9141,115.7031)"/>
<path d="M -0.00390625 0.00390625 H 6.996094 C 6.96875 0.00390625 6.945312 0.0273438 6.945312 0.0546875 L 6.945313 -2.945312 C 6.945313 -2.972656 6.96875 -2.996094 6.996094 -2.996094 H 12.996094 C 13.023438 -2.996094 13.046875 -2.972656 13.046875 -2.945312 V 0.0546875 C 13.046875 0.0273438 13.023438 0.00390625 12.996094 0.00390625 H 18.996094 C 18.96875 0.00390625 18.945312 0.0273438 18.945312 0.0546875 V -2.945312 C 18.945312 -2.972656 18.96875 -2.996094 18.996094 -2.996094 H 24.996094 C 25.023438 -2.996094 25.046875 -2.972656 25.046875 -2.945312 V 0.0546875 C 25.046875 0.0273438 25.023438 0.00390625 24.996094 0.00390625 H 30.996094 C 30.96875 0.00390625 30.945312 0.0273438 30.945312 0.0546875 L 30.945313 -2.945312 C 30.945313 -2.972656 30.96875 -2.996094 30.996094 -2.996094 H 36.996094 C 37.023438 -2.996094 37.046875 -2.972656 37.046875 -2.945312 V 0.0546875 C 37.046875 0.0273438 37.023438 0.00390625 36.996094 0.00390625 H 43.996094 C 44.023438 0.00390625 44.046875 0.0273438 44.046875 0.0546875 V 4.554688 C 44.046875 4.527344 44.023438 4.503906 43.996094 4.503906 H 46.996094 C 47.023438 4.503906 47.046875 4.527344 47.046875 4.554688 V 10.554688 C 47.046875 10.582031 47.023438 10.605469 46.996094 10.605469 H 43.996094 C 44.023438 10.605469 44.046875 10.582031 44.046875 10.554688 V 16.554688 C 44.046875 16.527344 44.023438 16.503906 43.996094 16.503906 H 46.996094 C 47.023438 16.503906 47.046875 16.527344 47.046875 16.554688 V 22.554688 C 47.046875 22.582031 47.023437 22.605469 46.996094 22.605469 H 43.996094 C 44.023437 22.605469 44.046875 22.582031 44.046875 22.554688 V 28.554688 C 44.046875 28.527344 44.023437 28.503906 43.996094 28.503906 H 46.996094 C 47.023437 28.503906 47.046875 28.527344 47.046875 28.554688 V 34.554688 C 47.046875 34.582031 47.023437 34.605469 46.996094 34.605469 H 43.996094 C 44.023437 34.605469 44.046875 34.582031 44.046875 34.554688 V 39.054688 C 44.046875 39.941406 43.8125 40.8125 43.371094 41.578125 C 42.929687 42.347656 42.289062 42.984375 41.523437 43.425781 C 40.753906 43.867188 39.886719 44.101562 39 44.101562 H -0.000000000000017319 C -0.0273438 44.101562 -0.0507813 44.078125 -0.0507813 44.050781 V 37.050781 C -0.0507813 37.078125 -0.0273438 37.101562 -0.000000000000014655 37.101562 H -3 C -3.027344 37.101562 -3.050781 37.078125 -3.050781 37.050781 V 31.050781 C -3.050781 31.023438 -3.027344 31 -3 31 H -0.00000000000001199 C -0.0273438 31 -0.0507813 31.023438 -0.0507813 31.050781 V 25.050781 C -0.0507813 25.078125 -0.0273438 25.101562 -0.00000000000000977 25.101562 H -3 C -3.027344 25.101562 -3.050781 25.078125 -3.050781 25.050781 V 19.050781 C -3.050781 19.023438 -3.027344 19 -3 19 H -0.00000000000000755 C -0.0273438 19 -0.0507813 19.023438 -0.0507813 19.050781 V 13.050781 C -0.0507813 13.078125 -0.0273438 13.101562 -0.000000000000004885 13.101562 H -3 C -3.027344 13.101562 -3.050781 13.078125 -3.050781 13.050781 V 7.050781 C -3.050781 7.023438 -3.027344 7 -3 7 H -0.000000000000002665 C -0.0273438 7 -0.0507813 7.023438 -0.0507813 7.050781 L -0.0507812 0.0507812 C -0.0507812 0.0234375 -0.0273438 0 0 0 " style="fill:none;stroke-width:0.1;stroke-linecap:butt;stroke-linejoin:miter;stroke:rgb(0%,0%,0%);stroke-opacity:1;stroke-miterlimit:10;" transform="matrix(1.0000,0.0000,0.0000,-1.0000,13.0547,54.1055)"/>
<path d="M -0.00390625 0.00390625 H 6.996094 C 6.96875 0.00390625 6.945312 0.0273438 6.945312 0.0546875 V -2.945312 C 6.945312 -2.972656 6.96875 -2.996094 6.996094 -2.996094 H 12.996094 C 13.023438 -2.996094 13.046875 -2.972656 13.046875 -2.945312 V 0.0546875 C 13.046875 0.0273438 13.023438 0.00390625 12.996094 0.00390625 H 18.996094 C 18.96875 0.00390625 18.945312 0.0273438 18.945312 0.0546875 V -2.945312 C 18.945312 -2.972656 18.96875 -2.996094 18.996094 -2.996094 H 24.996094 C 25.023438 -2.996094 25.046875 -2.972656 25.046875 -2.945312 V 0.0546875 C 25.046875 0.0273438 25.023438 0.00390625 24.996094 0.00390625 H 30.996094 C 30.96875 0.00390625 30.945312 0.0273438 30.945312 0.0546875 V -2.945312 C 30.945312 -2.972656 30.96875 -2.996094 30.996094 -2.996094 H 36.996094 C 37.023438 -2.996094 37.046875 -2.972656 37.046875 -2.945312 V 0.0546875 C 37.046875 0.0273438 37.023437 0.00390625 36.996094 0.00390625 H 43.996094 C 44.023437 0.00390625 44.046875 0.0273438 44.046875 0.0546875 V 4.554688 C 44.046875 4.527344 44.023437 4.503906 43.996094 4.503906 H 46.996094 C 47.023437 4.503906 47.046875 4.527344 47.046875 4.554688 V 10.554688 C 47.046875 10.582031 47.023437 10.605469 46.996094 10.605469 H 43.996094 C 44.023437 10.605469 44.046875 10.582031 44.046875 10.554688 V 16.554688 C 44.046875 16.527344 44.023437 16.503906 43.996094 16.503906 H 46.996094 C 47.023437 16.503906 47.046875 16.527344 47.046875 16.554688 V 22.554688 C 47.046875 22.582031 47.023437 22.605469 46.996094 22.605469 H 43.996094 C 44.023437 22.605469 44.046875 22.582031 44.046875 22.554688 V 28.554688 C 44.046875 28.527344 44.023437 28.503906 43.996094 28.503906 H 46.996094 C 47.023437 28.503906 47.046875 28.527344 47.046875 28.554688 V 34.554688 C 47.046875 34.582031 47.023437 34.605469 46.996094 34.605469 H 43.996094 C 44.023437 34.605469 44.046875 34.582031 44.046875 34.554688 V 39.054688 C 44.046875 39.941406 43.8125 40.8125 43.371094 41.578125 C 42.929687 42.347656 42.289062 42.984375 41.523437 43.425781 C 40.753906 43.867188 39.886719 44.101562 39 44.101562 H -0.000000000000028422 C -0.0273438 44.101562 -0.0507813 44.078125 -0.0507813 44.050781 V 37.050781 C -0.0507813 37.078125 -0.0273438 37.101562 -0.000000000000014211 37.101562 H -3 C -3.027344 37.101562 -3.050781 37.078125 -3.050781 37.050781 V 31.050781 C -3.050781 31.023438 -3.027344 31 -3 31 H -0.000000000000014211 C -0.0273438 31 -0.0507813 31.023438 -0.0507813 31.050781 V 25.050781 C -0.0507813 25.078125 -0.0273438 25.101562 -0.000000000000014211 25.101562 H -3 C -3.027344 25.101562 -3.050781 25.078125 -3.050781 25.050781 V 19.050781 C -3.050781 19.023438 -3.027344 19 -3 19 H -0.000000000000014211 C -0.0273438 19 -0.0507813 19.023438 -0.0507813 19.050781 V 13.050781 C -0.0507813 13.078125 -0.0273438 13.101562 -0.000000000000014211 13.101562 H -3 C -3.027344 13.101562 -3.050781 13.078125 -3.050781 13.050781 V 7.050781 C -3.050781 7.023438 -3.027344 7 -3 7 H 0 C -0.0273438 7 -0.0507812 7.023438 -0.0507812 7.050781 V 0.0507812 C -0.0507812 0.0234375 -0.0273438 0 0 0 " style="fill:none;stroke-width:0.1;stroke-linecap:butt;stroke-linejoin:miter;stroke:rgb(0%,0%,0%);stroke-opacity:1;stroke-miterlimit:10;" transform="matrix(-1.0000,0.0000,-0.0000,-1.0000,108.6445,54.1055)"/>
<path d="M 0 0 H 7 C 6.972656 0 6.949219 0.0234375 6.949219 0.0507812 V -2.949219 C 6.949219 -2.976562 6.972656 -3 7 -3 H 13 C 13.027344 -3 13.050781 -2.976562 13.050781 -2.949219 V 0.0507812 C 13.050781 0.0234375 13.027344 0 13 0 H 19 C 18.972656 0 18.949219 0.0234375 18.949219 0.0507812 V -2.949219 C 18.949219 -2.976562 18.972656 -3 19 -3 H 25 C 25.027344 -3 25.050781 -2.976562 25.050781 -2.949219 V 0.0507812 C 25.050781 0.0234375 25.027344 0 25 0 H 31 C 30.972656 0 30.949219 0.0234375 30.949219 0.0507812 V -2.949219 C 30.949219 -2.976562 30.972656 -3 31 -3 H 37 C 37.027344 -3 37.050781 -2.976562 37.050781 -2.949219 V 0.0507812 C 37.050781 0.0234375 37.027344 0 37 0 H 44 L 47 0 C 47.027344 0 47.050781 0.0234375 47.050781 0.0507812 H 47.050781 V 7.050781 C 47.050781 7.078125 47.027344 7.101562 47 7.101562 H 44 C 44.027344 7.101562 44.050781 7.078125 44.050781 7.050781 V 13.050781 C 44.050781 13.023438 44.027344 13 44 13 H 47 C 47.027344 13 47.050781 13.023438 47.050781 13.050781 V 19.050781 C 47.050781 19.078125 47.027344 19.101562 47 19.101562 H 44 C 44.027344 19.101562 44.050781 19.078125 44.050781 19.050781 V 25.050781 C 44.050781 25.023438 44.027344 25 44 25 H 47 C 47.027344 25 47.050781 25.023438 47.050781 25.050781 V 31.050781 C 47.050781 31.078125 47.027344 31.101562 47 31.101562 H 44 C 44.027344 31.101562 44.050781 31.078125 44.050781 31.050781 V 37.050781 C 44.050781 37.023438 44.027344 37 44 37 H 47 C 47.027344 37 47.050781 37.023438 47.050781 37.050781 V 44.050781 C 47.050781 44.078125 47.027344 44.101562 47 44.101562 H 44 L 0 44.101562 H -3 C -3.027344 44.101562 -3.050781 44.078125 -3.050781 44.050781 H -3.050781 V 37.050781 C -3.050781 37.023438 -3.027344 37 -3 37 H 0 C -0.0273438 37 -0.0507812 37.023438 -0.0507812 37.050781 V 31.050781 C -0.0507812 31.078125 -0.0273438 31.101562 0 31.101562 H -3 C -3.027344 31.101562 -3.050781 31.078125 -3.050781 31.050781 V 25.050781 C -3.050781 25.023438 -3.027344 25 -3 25 H 0 C -0.0273438 25 -0.0507812 25.023438 -0.0507812 25.050781 V 19.050781 C -0.0507812 19.078125 -0.0273438 19.101562 0 19.101562 H -3 C -3.027344 19.101562 -3.050781 19.078125 -3.050781 19.050781 V 13.050781 C -3.050781 13.023438 -3.027344 13 -3 13 H 0 C -0.0273438 13 -0.0507812 13.023438 -0.0507812 13.050781 V 7.050781 C -0.0507812 7.078125 -0.0273438 7.101562 0 7.101562 H -3 C -3.027344 7.101562 -3.050781 7.078125 -3.050781 7.050781 V 0.0507812 C -3.050781 0.0234375 -3.027344 0 -3 0 H 0 " style="fill:none;stroke-width:0.1;stroke-linecap:butt;stroke-linejoin:miter;stroke:rgb(0%,0%,0%);stroke-opacity:1;stroke-miterlimit:10;" transform="matrix(1.0000,0.0000,0.0000,-1.0000,116.2500,54.1016)"/>
</g>
</svg>