<svg xmlns="http://www.w3.org/2000/svg" height="1150mm" version="1.1" viewBox="0 -10 190 1150" width="190mm">
<!--
IntegratedHingeBox - 
Created with Boxes.py (https://festi.info/boxes.py)
Creation date: 2019-11-05 13:30:02
Command line (remove spaces beteen dashes): boxes IntegratedHingeBox - -FingerJoint_angle=90.0 - -FingerJoint_style=rectangular - -FingerJoint_surroundingspaces=2.0 - -FingerJoint_edge_width=1.0 - -FingerJoint_finger=2.0 - -FingerJoint_play=0.0 - -FingerJoint_space=2.0 - -FingerJoint_width=1.0 - -ChestHinge_hinge_strength=1.0 - -ChestHinge_pin_height=2.0 - -ChestHinge_play=0.1 - -x=150 - -y=150 - -h=150 - -outside=0 - -outside=1 - -lidheight=50 - -thickness=3.0 - -format=svg - -tabs=0.0 - -debug=0 - -reference=0 - -burn=0.05
Url: http://localhost:8008/IntegratedHingeBox?FingerJoint_angle=90.0&FingerJoint_style=rectangular&FingerJoint_surroundingspaces=2.0&FingerJoint_edge_width=1.0&FingerJoint_finger=2.0&FingerJoint_play=0.0&FingerJoint_space=2.0&FingerJoint_width=1.0&ChestHinge_hinge_strength=1.0&ChestHinge_pin_height=2.0&ChestHinge_play=0.1&x=150&y=150&h=150&outside=0&outside=1&lidheight=50&thickness=3.0&format=svg&tabs=0.0&debug=0&reference=0&burn=0.05&render=1
SettingsUrl: http://localhost:8008/IntegratedHingeBox?FingerJoint_angle=90.0&FingerJoint_style=rectangular&FingerJoint_surroundingspaces=2.0&FingerJoint_edge_width=1.0&FingerJoint_finger=2.0&FingerJoint_play=0.0&FingerJoint_space=2.0&FingerJoint_width=1.0&ChestHinge_hinge_strength=1.0&ChestHinge_pin_height=2.0&ChestHinge_play=0.1&x=150&y=150&h=150&outside=0&outside=1&lidheight=50&thickness=3.0&format=svg&tabs=0.0&debug=0&reference=0&burn=0.05
--><g id="surface4774">
<path d="M 144 147.101562 H 135 C 134.972656 147.101562 134.949219 147.078125 134.949219 147.050781 V 144.050781 C 134.949219 144.078125 134.972656 144.101562 135 144.101562 H 129 C 129.027344 144.101562 129.050781 144.078125 129.050781 144.050781 V 147.050781 C 129.050781 147.078125 129.027344 147.101562 129 147.101562 H 123 C 122.972656 147.101562 122.949219 147.078125 122.949219 147.050781 V 144.050781 C 122.949219 144.078125 122.972656 144.101562 123 144.101562 H 117 C 117.027344 144.101562 117.050781 144.078125 117.050781 144.050781 V 147.050781 C 117.050781 147.078125 117.027344 147.101562 117 147.101562 H 111 C 110.972656 147.101562 110.949219 147.078125 110.949219 147.050781 V 144.050781 C 110.949219 144.078125 110.972656 144.101562 111 144.101562 H 105 C 105.027344 144.101562 105.050781 144.078125 105.050781 144.050781 V 147.050781 C 105.050781 147.078125 105.027344 147.101562 105 147.101562 H 99 C 98.972656 147.101562 98.949219 147.078125 98.949219 147.050781 V 144.050781 C 98.949219 144.078125 98.972656 144.101562 99 144.101562 H 93 C 93.027344 144.101562 93.050781 144.078125 93.050781 144.050781 V 147.050781 C 93.050781 147.078125 93.027344 147.101562 93 147.101562 H 87 C 86.972656 147.101562 86.949219 147.078125 86.949219 147.050781 V 144.050781 C 86.949219 144.078125 86.972656 144.101562 87 144.101562 H 81 C 81.027344 144.101562 81.050781 144.078125 81.050781 144.050781 V 147.050781 C 81.050781 147.078125 81.027344 147.101562 81 147.101562 H 75 C 74.972656 147.101562 74.949219 147.078125 74.949219 147.050781 V 144.050781 C 74.949219 144.078125 74.972656 144.101562 75 144.101562 H 69 C 69.027344 144.101562 69.050781 144.078125 69.050781 144.050781 V 147.050781 C 69.050781 147.078125 69.027344 147.101562 69 147.101562 H 63 C 62.972656 147.101562 62.949219 147.078125 62.949219 147.050781 V 144.050781 C 62.949219 144.078125 62.972656 144.101562 63 144.101562 H 57 C 57.027344 144.101562 57.050781 144.078125 57.050781 144.050781 V 147.050781 C 57.050781 147.078125 57.027344 147.101562 57 147.101562 H 51 C 50.972656 147.101562 50.949219 147.078125 50.949219 147.050781 V 144.050781 C 50.949219 144.078125 50.972656 144.101562 51 144.101562 H 45 C 45.027344 144.101562 45.050781 144.078125 45.050781 144.050781 V 147.050781 C 45.050781 147.078125 45.027344 147.101562 45 147.101562 H 39 C 38.972656 147.101562 38.949219 147.078125 38.949219 147.050781 V 144.050781 C 38.949219 144.078125 38.972656 144.101562 39 144.101562 H 33 C 33.027344 144.101562 33.050781 144.078125 33.050781 144.050781 V 147.050781 C 33.050781 147.078125 33.027344 147.101562 33 147.101562 H 27 C 26.972656 147.101562 26.949219 147.078125 26.949219 147.050781 V 144.050781 C 26.949219 144.078125 26.972656 144.101562 27 144.101562 H 21 C 21.027344 144.101562 21.050781 144.078125 21.050781 144.050781 V 147.050781 C 21.050781 147.078125 21.027344 147.101562 21 147.101562 H 15 C 14.972656 147.101562 14.949219 147.078125 14.949219 147.050781 V 144.050781 C 14.949219 144.078125 14.972656 144.101562 15 144.101562 H 9 C 9.027344 144.101562 9.050781 144.078125 9.050781 144.050781 V 147.050781 C 9.050781 147.078125 9.027344 147.101562 9 147.101562 H -0.000000000000028422 C -0.0273438 147.101562 -0.0507813 147.078125 -0.0507813 147.050781 V 144.050781 L -0.0507813 135.050781 C -0.0507813 135.078125 -0.0273438 135.101562 -0.000000000000028422 135.101562 H -3 C -3.027344 135.101562 -3.050781 135.078125 -3.050781 135.050781 V 129.050781 C -3.050781 129.023438 -3.027344 129 -3 129 H -0.000000000000028422 C -0.0273438 129 -0.0507813 129.023438 -0.0507813 129.050781 V 123.050781 C -0.0507813 123.078125 -0.0273438 123.101562 -0.000000000000028422 123.101562 H -3 C -3.027344 123.101562 -3.050781 123.078125 -3.050781 123.050781 V 117.050781 C -3.050781 117.023438 -3.027344 117 -3 117 H -0.000000000000028422 C -0.0273438 117 -0.0507813 117.023438 -0.0507813 117.050781 V 111.050781 C -0.0507813 111.078125 -0.0273438 111.101562 -0.000000000000028422 111.101562 H -3 C -3.027344 111.101562 -3.050781 111.078125 -3.050781 111.050781 V 105.050781 C -3.050781 105.023438 -3.027344 105 -3 105 H -0.000000000000028422 C -0.0273438 105 -0.0507813 105.023438 -0.0507813 105.050781 V 99.050781 C -0.0507813 99.078125 -0.0273438 99.101562 -0.000000000000028422 99.101562 H -3 C -3.027344 99.101562 -3.050781 99.078125 -3.050781 99.050781 V 93.050781 C -3.050781 93.023438 -3.027344 93 -3 93 H -0.000000000000028422 C -0.0273438 93 -0.0507813 93.023438 -0.0507813 93.050781 V 87.050781 C -0.0507813 87.078125 -0.0273438 87.101562 -0.000000000000028422 87.101562 H -3 C -3.027344 87.101562 -3.050781 87.078125 -3.050781 87.050781 V 81.050781 C -3.050781 81.023438 -3.027344 81 -3 81 H -0.000000000000028422 C -0.0273438 81 -0.0507813 81.023438 -0.0507813 81.050781 V 75.050781 C -0.0507813 75.078125 -0.0273438 75.101562 -0.000000000000028422 75.101562 H -3 C -3.027344 75.101562 -3.050781 75.078125 -3.050781 75.050781 V 69.050781 C -3.050781 69.023438 -3.027344 69 -3 69 H -0.000000000000028422 C -0.0273438 69 -0.0507813 69.023438 -0.0507813 69.050781 V 63.050781 C -0.0507813 63.078125 -0.0273438 63.101562 -0.000000000000028422 63.101562 H -3 C -3.027344 63.101562 -3.050781 63.078125 -3.050781 63.050781 V 57.050781 C -3.050781 57.023438 -3.027344 57 -3 57 H -0.000000000000028422 C -0.0273438 57 -0.0507813 57.023438 -0.0507813 57.050781 V 51.050781 C -0.0507813 51.078125 -0.0273438 51.101562 -0.000000000000028422 51.101562 H -3 C -3.027344 51.101562 -3.050781 51.078125 -3.050781 51.050781 V 45.050781 C -3.050781 45.023438 -3.027344 45 -3 45 H -0.000000000000028422 C -0.0273438 45 -0.0507813 45.023438 -0.0507813 45.050781 V 39.050781 C -0.0507813 39.078125 -0.0273438 39.101562 -0.000000000000028422 39.101562 H -3 C -3.027344 39.101562 -3.050781 39.078125 -3.050781 39.050781 V 33.050781 C -3.050781 33.023438 -3.027344 33 -3 33 H -0.000000000000028422 C -0.0273438 33 -0.0507813 33.023438 -0.0507813 33.050781 V 27.050781 C -0.0507813 27.078125 -0.0273438 27.101562 -0.000000000000028422 27.101562 H -3 C -3.027344 27.101562 -3.050781 27.078125 -3.050781 27.050781 V 21.050781 C -3.050781 21.023438 -3.027344 21 -3 21 H -0.000000000000028422 C -0.0273438 21 -0.0507813 21.023438 -0.0507813 21.050781 V 15.050781 C -0.0507813 15.078125 -0.0273438 15.101562 -0.000000000000028422 15.101562 H -3 C -3.027344 15.101562 -3.050781 15.078125 -3.050781 15.050781 V 9.050781 C -3.050781 9.023438 -3.027344 9 -3 9 H 0 C -0.0273438 9 -0.0507812 9.023438 -0.0507812 9.050781 V 0.0507812 C -0.0507812 0.0234375 -0.0273438 0 0 0 H 0 " style="fill:none;stroke-width:0.1;stroke-linecap:butt;stroke-linejoin:miter;stroke:rgb(0%,0%,0%);stroke-opacity:1;stroke-miterlimit:10;" transform="matrix(-1.0000,-0.0000,-0.0000,1.0000,165.8750,977.0977)"/>
<path d="M -0.00000000000181899 -0.000000000000904166 C 1.140625 -0.000000000000905054 2.257812 -0.328125 3.21875 -0.945313 C 4.179687 -1.5625 4.941406 -2.441406 5.414062 -3.480469 C 5.886719 -4.519531 6.054687 -5.671875 5.890625 -6.800781 C 5.726562 -7.929688 5.246094 -8.988281 4.496094 -9.851563 C 3.75 -10.714844 2.769531 -11.34375 1.675781 -11.664063 C 0.582031 -11.984375 -0.582031 -11.984375 -1.675781 -11.664063 C -2.769531 -11.34375 -3.75 -10.714844 -4.496094 -9.851563 C -5.242188 -8.988281 -5.726563 -7.929688 -5.890625 -6.800781 C -6.054688 -5.671875 -5.886719 -4.519531 -5.414063 -3.480469 C -4.941406 -2.441406 -4.179688 -1.5625 -3.21875 -0.945313 C -2.257813 -0.328125 -1.144531 -0.000000000000904166 -0.00000000000181899 -0.000000000000904166 " style="fill:none;stroke-width:0.1;stroke-linecap:butt;stroke-linejoin:miter;stroke:rgb(0%,0%,100%);stroke-opacity:1;stroke-miterlimit:10;" transform="matrix(-0.0000,-1.0000,-1.0000,0.0000,12.9258,977.0977)"/>
<path d="M 0 0.00390625 C -0.0273438 0.00390625 -0.0507812 0.0234375 -0.0507812 0.0507812 V -4.4375 C -0.0507812 -4.410156 -0.0273438 -4.386719 0 -4.386719 H -3 C -2.972656 -4.386719 -2.949219 -4.410156 -2.949219 -4.4375 V 0.0507812 C -2.949219 0.0234375 -2.972656 0 -3 0 H 0 " style="fill:none;stroke-width:0.1;stroke-linecap:butt;stroke-linejoin:miter;stroke:rgb(0%,0%,100%);stroke-opacity:1;stroke-miterlimit:10;" transform="matrix(1.0000,-0.0000,-0.0000,-1.0000,21.8750,972.6602)"/>
<path d="M 144 147.101562 H 6 C 6.027344 147.101562 6.050781 147.078125 6.050781 147.050781 C 6.050781 148.839844 5.519531 150.589844 4.527344 152.078125 C 3.53125 153.566406 2.121094 154.726562 0.464844 155.410156 C -1.1875 156.09375 -3.007813 156.273438 -4.765625 155.925781 C -6.519531 155.578125 -8.132813 154.714844 -9.398438 153.449219 C -10.664063 152.183594 -11.527344 150.570312 -11.875 148.816406 C -12.222656 147.0625 -12.046875 145.242188 -11.359375 143.585938 C -10.675781 141.933594 -9.515625 140.519531 -8.027344 139.523438 C -6.539063 138.527344 -4.789063 138 -3 138 H -0.000000000000038192 C -0.0664063 138 -0.0664063 138.101562 -0.000000000000038192 138.101562 H -0.000000000000038192 C -0.0273438 138.101562 -0.0507813 138.078125 -0.0507813 138.050781 H -0.0507813 V 127.550781 C -0.0507813 127.578125 -0.0273438 127.601562 -0.000000000000035083 127.601562 H -3 C -3.027344 127.601562 -3.050781 127.578125 -3.050781 127.550781 V 121.550781 C -3.050781 121.523438 -3.027344 121.5 -3 121.5 H -0.000000000000033307 C -0.0273438 121.5 -0.0507813 121.523438 -0.0507813 121.550781 V 115.550781 C -0.0507813 115.578125 -0.0273438 115.601562 -0.000000000000031974 115.601562 H -3 C -3.027344 115.601562 -3.050781 115.578125 -3.050781 115.550781 V 109.550781 C -3.050781 109.523438 -3.027344 109.5 -3 109.5 H -0.000000000000030198 C -0.0273438 109.5 -0.0507813 109.523438 -0.0507813 109.550781 V 103.550781 C -0.0507813 103.578125 -0.0273438 103.601562 -0.000000000000028422 103.601562 H -3 C -3.027344 103.601562 -3.050781 103.578125 -3.050781 103.550781 V 97.550781 C -3.050781 97.523438 -3.027344 97.5 -3 97.5 H -0.000000000000026645 C -0.0273438 97.5 -0.0507813 97.523438 -0.0507813 97.550781 V 91.550781 C -0.0507813 91.578125 -0.0273438 91.601562 -0.000000000000025313 91.601562 H -3 C -3.027344 91.601562 -3.050781 91.578125 -3.050781 91.550781 V 85.550781 C -3.050781 85.523438 -3.027344 85.5 -3 85.5 H -0.000000000000023537 C -0.0273438 85.5 -0.0507813 85.523438 -0.0507813 85.550781 V 79.550781 C -0.0507813 79.578125 -0.0273438 79.601562 -0.00000000000002176 79.601562 H -3 C -3.027344 79.601562 -3.050781 79.578125 -3.050781 79.550781 V 73.550781 C -3.050781 73.523438 -3.027344 73.5 -3 73.5 H -0.000000000000019984 C -0.0273438 73.5 -0.0507813 73.523438 -0.0507813 73.550781 V 67.550781 C -0.0507813 67.578125 -0.0273438 67.601562 -0.000000000000018652 67.601562 H -3 C -3.027344 67.601562 -3.050781 67.578125 -3.050781 67.550781 V 61.550781 C -3.050781 61.523438 -3.027344 61.5 -3 61.5 H -0.000000000000016875 C -0.0273438 61.5 -0.0507813 61.523438 -0.0507813 61.550781 V 55.550781 C -0.0507813 55.578125 -0.0273438 55.601562 -0.000000000000015099 55.601562 H -3 C -3.027344 55.601562 -3.050781 55.578125 -3.050781 55.550781 V 49.550781 C -3.050781 49.523438 -3.027344 49.5 -3 49.5 H -0.000000000000013323 C -0.0273438 49.5 -0.0507813 49.523438 -0.0507813 49.550781 V 43.550781 C -0.0507813 43.578125 -0.0273438 43.601562 -0.00000000000001199 43.601562 H -3 C -3.027344 43.601562 -3.050781 43.578125 -3.050781 43.550781 V 37.550781 C -3.050781 37.523438 -3.027344 37.5 -3 37.5 H -0.000000000000010214 C -0.0273438 37.5 -0.0507813 37.523438 -0.0507813 37.550781 V 31.550781 C -0.0507813 31.578125 -0.0273438 31.601562 -0.000000000000008438 31.601562 H -3 C -3.027344 31.601562 -3.050781 31.578125 -3.050781 31.550781 V 25.550781 C -3.050781 25.523438 -3.027344 25.5 -3 25.5 H -0.000000000000006661 C -0.0273438 25.5 -0.0507813 25.523438 -0.0507813 25.550781 V 19.550781 C -0.0507813 19.578125 -0.0273438 19.601562 -0.000000000000005329 19.601562 H -3 C -3.027344 19.601562 -3.050781 19.578125 -3.050781 19.550781 V 13.550781 C -3.050781 13.523438 -3.027344 13.5 -3 13.5 H -0.000000000000003553 C -0.0273438 13.5 -0.0507813 13.523438 -0.0507813 13.550781 V 3.050781 L -0.0507812 0.0507812 C -0.0507812 0.0234375 -0.0273438 0 0 0 H 0 " style="fill:none;stroke-width:0.1;stroke-linecap:butt;stroke-linejoin:miter;stroke:rgb(0%,0%,0%);stroke-opacity:1;stroke-miterlimit:10;" transform="matrix(1.0000,0.0000,0.0000,-1.0000,21.8750,1124.1992)"/>
<path d="M 0 0.00390625 C -0.0664062 0.00390625 -0.0664062 0.105469 0 0.105469 H -3 C -2.933594 0.105469 -2.933594 0.00390625 -3 0.00390625 C -1.375 0.00390625 0.21875 -0.421875 1.625 -1.234375 C 3.03125 -2.046875 4.199219 -3.214844 5.011719 -4.621094 C 5.824219 -6.027344 6.25 -7.621094 6.25 -9.246094 C 6.25 -9.273438 6.273437 -9.296875 6.300781 -9.296875 H 144 C 144.027344 -9.296875 144.050781 -9.273438 144.050781 -9.246094 H 144.050781 V 0.753906 C 144.050781 0.726562 144.027344 0.703125 144 0.703125 H 147 C 147.027344 0.703125 147.050781 0.726562 147.050781 0.753906 V 6.753906 C 147.050781 6.78125 147.027344 6.804688 147 6.804688 H 144 C 144.027344 6.804688 144.050781 6.78125 144.050781 6.753906 V 12.753906 C 144.050781 12.726562 144.027344 12.703125 144 12.703125 H 147 C 147.027344 12.703125 147.050781 12.726562 147.050781 12.753906 V 18.753906 C 147.050781 18.78125 147.027344 18.804688 147 18.804688 H 144 C 144.027344 18.804688 144.050781 18.78125 144.050781 18.753906 V 24.753906 C 144.050781 24.726562 144.027344 24.703125 144 24.703125 H 147 C 147.027344 24.703125 147.050781 24.726562 147.050781 24.753906 V 30.753906 C 147.050781 30.78125 147.027344 30.804688 147 30.804688 H 144 C 144.027344 30.804688 144.050781 30.78125 144.050781 30.753906 V 40.753906 L 144.050781 43.753906 C 144.050781 43.78125 144.027344 43.804688 144 43.804688 H 144 L 135 43.804688 C 134.972656 43.804688 134.949219 43.78125 134.949219 43.753906 V 40.753906 C 134.949219 40.78125 134.972656 40.804688 135 40.804688 H 129 C 129.027344 40.804688 129.050781 40.78125 129.050781 40.753906 V 43.753906 C 129.050781 43.78125 129.027344 43.804688 129 43.804688 H 123 C 122.972656 43.804688 122.949219 43.78125 122.949219 43.753906 V 40.753906 C 122.949219 40.78125 122.972656 40.804688 123 40.804688 H 117 C 117.027344 40.804688 117.050781 40.78125 117.050781 40.753906 V 43.753906 C 117.050781 43.78125 117.027344 43.804688 117 43.804688 H 111 C 110.972656 43.804688 110.949219 43.78125 110.949219 43.753906 V 40.753906 C 110.949219 40.78125 110.972656 40.804688 111 40.804688 H 105 C 105.027344 40.804688 105.050781 40.78125 105.050781 40.753906 V 43.753906 C 105.050781 43.78125 105.027344 43.804688 105 43.804688 H 99 C 98.972656 43.804688 98.949219 43.78125 98.949219 43.753906 V 40.753906 C 98.949219 40.78125 98.972656 40.804688 99 40.804688 H 93 C 93.027344 40.804688 93.050781 40.78125 93.050781 40.753906 V 43.753906 C 93.050781 43.78125 93.027344 43.804688 93 43.804688 H 87 C 86.972656 43.804688 86.949219 43.78125 86.949219 43.753906 V 40.753906 C 86.949219 40.78125 86.972656 40.804688 87 40.804688 H 81 C 81.027344 40.804688 81.050781 40.78125 81.050781 40.753906 V 43.753906 C 81.050781 43.78125 81.027344 43.804688 81 43.804688 H 75 C 74.972656 43.804688 74.949219 43.78125 74.949219 43.753906 V 40.753906 C 74.949219 40.78125 74.972656 40.804688 75 40.804688 H 69 C 69.027344 40.804688 69.050781 40.78125 69.050781 40.753906 V 43.753906 C 69.050781 43.78125 69.027344 43.804688 69 43.804688 H 63 C 62.972656 43.804688 62.949219 43.78125 62.949219 43.753906 V 40.753906 C 62.949219 40.78125 62.972656 40.804688 63 40.804688 H 57 C 57.027344 40.804688 57.050781 40.78125 57.050781 40.753906 V 43.753906 C 57.050781 43.78125 57.027344 43.804688 57 43.804688 H 51 C 50.972656 43.804688 50.949219 43.78125 50.949219 43.753906 V 40.753906 C 50.949219 40.78125 50.972656 40.804688 51 40.804688 H 45 C 45.027344 40.804688 45.050781 40.78125 45.050781 40.753906 V 43.753906 C 45.050781 43.78125 45.027344 43.804688 45 43.804688 H 39 C 38.972656 43.804688 38.949219 43.78125 38.949219 43.753906 V 40.753906 C 38.949219 40.78125 38.972656 40.804688 39 40.804688 H 33 C 33.027344 40.804688 33.050781 40.78125 33.050781 40.753906 V 43.753906 C 33.050781 43.78125 33.027344 43.804688 33 43.804688 H 27 C 26.972656 43.804688 26.949219 43.78125 26.949219 43.753906 V 40.753906 C 26.949219 40.78125 26.972656 40.804688 27 40.804688 H 21 C 21.027344 40.804688 21.050781 40.78125 21.050781 40.753906 V 43.753906 C 21.050781 43.78125 21.027344 43.804688 21 43.804688 H 15 C 14.972656 43.804688 14.949219 43.78125 14.949219 43.753906 V 40.753906 C 14.949219 40.78125 14.972656 40.804688 15 40.804688 H 9 C 9.027344 40.804688 9.050781 40.78125 9.050781 40.753906 V 43.753906 C 9.050781 43.78125 9.027344 43.804688 9 43.804688 H 0.000000000000011102 C -0.0273437 43.804688 -0.0507812 43.78125 -0.0507812 43.753906 V 40.753906 L -0.0507812 29.402344 C -0.0507812 29.429688 -0.0273437 29.453125 0.00000000000000755 29.453125 H -3 C -3.027344 29.453125 -3.050781 29.429688 -3.050781 29.402344 V 23.402344 C -3.050781 23.375 -3.027344 23.351562 -3 23.351562 H 0.000000000000005773 C -0.0273437 23.351562 -0.0507812 23.375 -0.0507812 23.402344 V 17.402344 C -0.0507812 17.429688 -0.0273437 17.453125 0.000000000000004441 17.453125 H -3 C -3.027344 17.453125 -3.050781 17.429688 -3.050781 17.402344 V 11.402344 C -3.050781 11.375 -3.027344 11.351562 -3 11.351562 H 0.000000000000002665 C -0.0273437 11.351562 -0.0507812 11.375 -0.0507812 11.402344 V 0.0507812 C -0.0507812 0.0234375 -0.0273438 0 0 0 H 0 " style="fill:none;stroke-width:0.1;stroke-linecap:butt;stroke-linejoin:miter;stroke:rgb(0%,0%,0%);stroke-opacity:1;stroke-miterlimit:10;" transform="matrix(1.0000,-0.0000,-0.0000,-1.0000,21.8750,966.3047)"/>
<path d="M 144 138.101562 H 135 C 134.972656 138.101562 134.949219 138.078125 134.949219 138.050781 V 135.050781 C 134.949219 135.078125 134.972656 135.101562 135 135.101562 H 129 C 129.027344 135.101562 129.050781 135.078125 129.050781 135.050781 V 138.050781 C 129.050781 138.078125 129.027344 138.101562 129 138.101562 H 123 C 122.972656 138.101562 122.949219 138.078125 122.949219 138.050781 V 135.050781 C 122.949219 135.078125 122.972656 135.101562 123 135.101562 H 117 C 117.027344 135.101562 117.050781 135.078125 117.050781 135.050781 V 138.050781 C 117.050781 138.078125 117.027344 138.101562 117 138.101562 H 111 C 110.972656 138.101562 110.949219 138.078125 110.949219 138.050781 V 135.050781 C 110.949219 135.078125 110.972656 135.101562 111 135.101562 H 105 C 105.027344 135.101562 105.050781 135.078125 105.050781 135.050781 V 138.050781 C 105.050781 138.078125 105.027344 138.101562 105 138.101562 H 99 C 98.972656 138.101562 98.949219 138.078125 98.949219 138.050781 V 135.050781 C 98.949219 135.078125 98.972656 135.101562 99 135.101562 H 93 C 93.027344 135.101562 93.050781 135.078125 93.050781 135.050781 V 138.050781 C 93.050781 138.078125 93.027344 138.101562 93 138.101562 H 87 C 86.972656 138.101562 86.949219 138.078125 86.949219 138.050781 V 135.050781 C 86.949219 135.078125 86.972656 135.101562 87 135.101562 H 81 C 81.027344 135.101562 81.050781 135.078125 81.050781 135.050781 V 138.050781 C 81.050781 138.078125 81.027344 138.101562 81 138.101562 H 75 C 74.972656 138.101562 74.949219 138.078125 74.949219 138.050781 V 135.050781 C 74.949219 135.078125 74.972656 135.101562 75 135.101562 H 69 C 69.027344 135.101562 69.050781 135.078125 69.050781 135.050781 V 138.050781 C 69.050781 138.078125 69.027344 138.101562 69 138.101562 H 63 C 62.972656 138.101562 62.949219 138.078125 62.949219 138.050781 V 135.050781 C 62.949219 135.078125 62.972656 135.101562 63 135.101562 H 57 C 57.027344 135.101562 57.050781 135.078125 57.050781 135.050781 V 138.050781 C 57.050781 138.078125 57.027344 138.101562 57 138.101562 H 51 C 50.972656 138.101562 50.949219 138.078125 50.949219 138.050781 V 135.050781 C 50.949219 135.078125 50.972656 135.101562 51 135.101562 H 45 C 45.027344 135.101562 45.050781 135.078125 45.050781 135.050781 V 138.050781 C 45.050781 138.078125 45.027344 138.101562 45 138.101562 H 39 C 38.972656 138.101562 38.949219 138.078125 38.949219 138.050781 V 135.050781 C 38.949219 135.078125 38.972656 135.101562 39 135.101562 H 33 C 33.027344 135.101562 33.050781 135.078125 33.050781 135.050781 V 138.050781 C 33.050781 138.078125 33.027344 138.101562 33 138.101562 H 27 C 26.972656 138.101562 26.949219 138.078125 26.949219 138.050781 V 135.050781 C 26.949219 135.078125 26.972656 135.101562 27 135.101562 H 21 C 21.027344 135.101562 21.050781 135.078125 21.050781 135.050781 V 138.050781 C 21.050781 138.078125 21.027344 138.101562 21 138.101562 H 15 C 14.972656 138.101562 14.949219 138.078125 14.949219 138.050781 V 135.050781 C 14.949219 135.078125 14.972656 135.101562 15 135.101562 H 9 C 9.027344 135.101562 9.050781 135.078125 9.050781 135.050781 V 138.050781 C 9.050781 138.078125 9.027344 138.101562 9 138.101562 H 0 C -0.0273438 138.101562 -0.0507812 138.078125 -0.0507812 138.050781 V 135.050781 L -0.0507812 124.550781 C -0.0507812 124.578125 -0.0273438 124.601562 0 124.601562 H -3 C -3.027344 124.601562 -3.050781 124.578125 -3.050781 124.550781 V 118.550781 C -3.050781 118.523438 -3.027344 118.5 -3 118.5 H 0 C -0.0273438 118.5 -0.0507812 118.523438 -0.0507812 118.550781 V 112.550781 C -0.0507812 112.578125 -0.0273438 112.601562 0 112.601562 H -3 C -3.027344 112.601562 -3.050781 112.578125 -3.050781 112.550781 V 106.550781 C -3.050781 106.523438 -3.027344 106.5 -3 106.5 H 0 C -0.0273438 106.5 -0.0507812 106.523438 -0.0507812 106.550781 V 100.550781 C -0.0507812 100.578125 -0.0273438 100.601562 0 100.601562 H -3 C -3.027344 100.601562 -3.050781 100.578125 -3.050781 100.550781 V 94.550781 C -3.050781 94.523438 -3.027344 94.5 -3 94.5 H 0 C -0.0273438 94.5 -0.0507812 94.523438 -0.0507812 94.550781 V 88.550781 C -0.0507812 88.578125 -0.0273438 88.601562 0 88.601562 H -3 C -3.027344 88.601562 -3.050781 88.578125 -3.050781 88.550781 V 82.550781 C -3.050781 82.523438 -3.027344 82.5 -3 82.5 H 0 C -0.0273438 82.5 -0.0507812 82.523438 -0.0507812 82.550781 V 76.550781 C -0.0507812 76.578125 -0.0273438 76.601562 0 76.601562 H -3 C -3.027344 76.601562 -3.050781 76.578125 -3.050781 76.550781 V 70.550781 C -3.050781 70.523438 -3.027344 70.5 -3 70.5 H 0 C -0.0273438 70.5 -0.0507812 70.523438 -0.0507812 70.550781 V 64.550781 C -0.0507812 64.578125 -0.0273438 64.601562 0 64.601562 H -3 C -3.027344 64.601562 -3.050781 64.578125 -3.050781 64.550781 V 58.550781 C -3.050781 58.523438 -3.027344 58.5 -3 58.5 H 0 C -0.0273438 58.5 -0.0507812 58.523438 -0.0507812 58.550781 V 52.550781 C -0.0507812 52.578125 -0.0273438 52.601562 0 52.601562 H -3 C -3.027344 52.601562 -3.050781 52.578125 -3.050781 52.550781 V 46.550781 C -3.050781 46.523438 -3.027344 46.5 -3 46.5 H 0 C -0.0273438 46.5 -0.0507812 46.523438 -0.0507812 46.550781 V 40.550781 C -0.0507812 40.578125 -0.0273438 40.601562 0 40.601562 H -3 C -3.027344 40.601562 -3.050781 40.578125 -3.050781 40.550781 V 34.550781 C -3.050781 34.523438 -3.027344 34.5 -3 34.5 H 0 C -0.0273438 34.5 -0.0507812 34.523438 -0.0507812 34.550781 V 28.550781 C -0.0507812 28.578125 -0.0273438 28.601562 0 28.601562 H -3 C -3.027344 28.601562 -3.050781 28.578125 -3.050781 28.550781 V 22.550781 C -3.050781 22.523438 -3.027344 22.5 -3 22.5 H 0 C -0.0273438 22.5 -0.0507812 22.523438 -0.0507812 22.550781 V 16.550781 C -0.0507812 16.578125 -0.0273438 16.601562 0 16.601562 H -3 C -3.027344 16.601562 -3.050781 16.578125 -3.050781 16.550781 V 10.550781 C -3.050781 10.523438 -3.027344 10.5 -3 10.5 H 0 C -0.0273438 10.5 -0.0507812 10.523438 -0.0507812 10.550781 V 0.0507812 C -0.0507812 0.0234375 -0.0273438 0 0 0 H 0 " style="fill:none;stroke-width:0.1;stroke-linecap:butt;stroke-linejoin:miter;stroke:rgb(0%,0%,0%);stroke-opacity:1;stroke-miterlimit:10;" transform="matrix(-1.0000,-0.0000,-0.0000,1.0000,165.8750,782.8984)"/>
<path d="M 0.00000000000181899 0.000000000000881073 C 1.140625 0.000000000000881073 2.257813 -0.328125 3.21875 -0.945312 C 4.179688 -1.5625 4.941406 -2.441406 5.414063 -3.480469 C 5.886719 -4.519531 6.054688 -5.671875 5.890625 -6.800781 C 5.726563 -7.929687 5.246094 -8.988281 4.496094 -9.851562 C 3.75 -10.714844 2.769531 -11.34375 1.675781 -11.664062 C 0.582031 -11.984375 -0.582031 -11.984375 -1.675781 -11.664062 C -2.769531 -11.34375 -3.75 -10.714844 -4.496094 -9.851562 C -5.242187 -8.988281 -5.726562 -7.929687 -5.890625 -6.800781 C -6.054687 -5.671875 -5.886719 -4.519531 -5.414062 -3.480469 C -4.941406 -2.441406 -4.179687 -1.5625 -3.21875 -0.945312 C -2.257812 -0.328125 -1.144531 0.000000000000881073 0.00000000000181899 0.000000000000881073 " style="fill:none;stroke-width:0.1;stroke-linecap:butt;stroke-linejoin:miter;stroke:rgb(0%,0%,100%);stroke-opacity:1;stroke-miterlimit:10;" transform="matrix(-0.0000,-1.0000,-1.0000,0.0000,162.9258,773.8984)"/>
<path d="M 0 0.00390625 C -0.0273438 0.00390625 -0.0507812 0.0234375 -0.0507812 0.0507812 V -4.4375 C -0.0507812 -4.410156 -0.0273438 -4.386719 0 -4.386719 H -3 C -2.972656 -4.386719 -2.949219 -4.410156 -2.949219 -4.4375 V 0.0507812 C -2.949219 0.0234375 -2.972656 0 -3 0 H 0 " style="fill:none;stroke-width:0.1;stroke-linecap:butt;stroke-linejoin:miter;stroke:rgb(0%,0%,100%);stroke-opacity:1;stroke-miterlimit:10;" transform="matrix(1.0000,-0.0000,-0.0000,-1.0000,168.8750,769.4609)"/>
<path d="M 144 138.101562 C 144.066406 138.101562 144.066406 138 144 138 H 147 C 148.789062 138 150.539062 138.53125 152.027344 139.523438 C 153.515625 140.519531 154.675781 141.929688 155.359375 143.585938 C 156.042969 145.238281 156.222656 147.058594 155.875 148.816406 C 155.527344 150.570312 154.664062 152.183594 153.398437 153.449219 C 152.132812 154.714844 150.519531 155.578125 148.765625 155.925781 C 147.011719 156.273438 145.191406 156.097656 143.535156 155.410156 C 141.882812 154.726562 140.46875 153.566406 139.472656 152.078125 C 138.476562 150.589844 137.949219 148.839844 137.949219 147.050781 C 137.949219 147.078125 137.972656 147.101562 138 147.101562 H -0.000000000000049738 C -0.0273438 147.101562 -0.0507813 147.078125 -0.0507813 147.050781 H -0.0507813 V 138.050781 C -0.0507813 138.078125 -0.0273438 138.101562 -0.000000000000046629 138.101562 H -3 C -3.027344 138.101562 -3.050781 138.078125 -3.050781 138.050781 V 132.050781 C -3.050781 132.023438 -3.027344 132 -3 132 H -0.000000000000044409 C -0.0273438 132 -0.0507813 132.023438 -0.0507813 132.050781 V 126.050781 C -0.0507813 126.078125 -0.0273438 126.101562 -0.000000000000042633 126.101562 H -3 C -3.027344 126.101562 -3.050781 126.078125 -3.050781 126.050781 V 120.050781 C -3.050781 120.023438 -3.027344 120 -3 120 H -0.000000000000040412 C -0.0273438 120 -0.0507813 120.023438 -0.0507813 120.050781 V 114.050781 C -0.0507813 114.078125 -0.0273438 114.101562 -0.000000000000038636 114.101562 H -3 C -3.027344 114.101562 -3.050781 114.078125 -3.050781 114.050781 V 108.050781 C -3.050781 108.023438 -3.027344 108 -3 108 H -0.000000000000036415 C -0.0273438 108 -0.0507813 108.023438 -0.0507813 108.050781 V 102.050781 C -0.0507813 102.078125 -0.0273438 102.101562 -0.000000000000034639 102.101562 H -3 C -3.027344 102.101562 -3.050781 102.078125 -3.050781 102.050781 V 96.050781 C -3.050781 96.023438 -3.027344 96 -3 96 H -0.000000000000032419 C -0.0273438 96 -0.0507813 96.023438 -0.0507813 96.050781 V 90.050781 C -0.0507813 90.078125 -0.0273438 90.101562 -0.000000000000030642 90.101562 H -3 C -3.027344 90.101562 -3.050781 90.078125 -3.050781 90.050781 V 84.050781 C -3.050781 84.023438 -3.027344 84 -3 84 H -0.000000000000028422 C -0.0273438 84 -0.0507813 84.023438 -0.0507813 84.050781 V 78.050781 C -0.0507813 78.078125 -0.0273438 78.101562 -0.000000000000026201 78.101562 H -3 C -3.027344 78.101562 -3.050781 78.078125 -3.050781 78.050781 V 72.050781 C -3.050781 72.023438 -3.027344 72 -3 72 H -0.000000000000024425 C -0.0273438 72 -0.0507813 72.023438 -0.0507813 72.050781 V 66.050781 C -0.0507813 66.078125 -0.0273438 66.101562 -0.000000000000022204 66.101562 H -3 C -3.027344 66.101562 -3.050781 66.078125 -3.050781 66.050781 V 60.050781 C -3.050781 60.023438 -3.027344 60 -3 60 H -0.000000000000020428 C -0.0273438 60 -0.0507813 60.023438 -0.0507813 60.050781 V 54.050781 C -0.0507813 54.078125 -0.0273438 54.101562 -0.000000000000018208 54.101562 H -3 C -3.027344 54.101562 -3.050781 54.078125 -3.050781 54.050781 V 48.050781 C -3.050781 48.023438 -3.027344 48 -3 48 H -0.000000000000015987 C -0.0273438 48 -0.0507813 48.023438 -0.0507813 48.050781 V 42.050781 C -0.0507813 42.078125 -0.0273438 42.101562 -0.000000000000014211 42.101562 H -3 C -3.027344 42.101562 -3.050781 42.078125 -3.050781 42.050781 V 36.050781 C -3.050781 36.023438 -3.027344 36 -3 36 H -0.00000000000001199 C -0.0273438 36 -0.0507813 36.023438 -0.0507813 36.050781 V 30.050781 C -0.0507813 30.078125 -0.0273438 30.101562 -0.000000000000010214 30.101562 H -3 C -3.027344 30.101562 -3.050781 30.078125 -3.050781 30.050781 V 24.050781 C -3.050781 24.023438 -3.027344 24 -3 24 H -0.000000000000007994 C -0.0273438 24 -0.0507813 24.023438 -0.0507813 24.050781 V 18.050781 C -0.0507813 18.078125 -0.0273438 18.101562 -0.000000000000006217 18.101562 H -3 C -3.027344 18.101562 -3.050781 18.078125 -3.050781 18.050781 V 12.050781 C -3.050781 12.023438 -3.027344 12 -3 12 H -0.000000000000003997 C -0.0273438 12 -0.0507813 12.023438 -0.0507813 12.050781 V 3.050781 L -0.0507812 0.0507812 C -0.0507812 0.0234375 -0.0273438 0 0 0 H 0 " style="fill:none;stroke-width:0.1;stroke-linecap:butt;stroke-linejoin:miter;stroke:rgb(0%,0%,0%);stroke-opacity:1;stroke-miterlimit:10;" transform="matrix(1.0000,0.0000,0.0000,-1.0000,21.8750,921.0000)"/>
<path d="M 0 -0.00390625 H 137.699219 C 137.726562 -0.00390625 137.75 0.0195312 137.75 0.046875 C 137.75 1.671875 138.175781 3.265625 138.988281 4.671875 C 139.800781 6.078125 140.96875 7.246094 142.375 8.058594 C 143.78125 8.871094 145.375 9.296875 147 9.296875 C 146.933594 9.296875 146.933594 9.398438 147 9.398438 H 144 C 144.066406 9.398438 144.066406 9.296875 144 9.296875 H 144 C 144.027344 9.296875 144.050781 9.320312 144.050781 9.347656 H 144.050781 V 20.699219 C 144.050781 20.671875 144.027344 20.648438 144 20.648438 H 147 C 147.027344 20.648438 147.050781 20.671875 147.050781 20.699219 V 26.699219 C 147.050781 26.726562 147.027344 26.75 147 26.75 H 144 C 144.027344 26.75 144.050781 26.726562 144.050781 26.699219 V 32.699219 C 144.050781 32.671875 144.027344 32.648438 144 32.648438 H 147 C 147.027344 32.648438 147.050781 32.671875 147.050781 32.699219 V 38.699219 C 147.050781 38.726562 147.027344 38.75 147 38.75 H 144 C 144.027344 38.75 144.050781 38.726562 144.050781 38.699219 V 50.050781 L 144.050781 53.050781 C 144.050781 53.078125 144.027344 53.101562 144 53.101562 H 144 L 135 53.101562 C 134.972656 53.101562 134.949219 53.078125 134.949219 53.050781 V 50.050781 C 134.949219 50.078125 134.972656 50.101562 135 50.101562 H 129 C 129.027344 50.101562 129.050781 50.078125 129.050781 50.050781 V 53.050781 C 129.050781 53.078125 129.027344 53.101562 129 53.101562 H 123 C 122.972656 53.101562 122.949219 53.078125 122.949219 53.050781 V 50.050781 C 122.949219 50.078125 122.972656 50.101562 123 50.101562 H 117 C 117.027344 50.101562 117.050781 50.078125 117.050781 50.050781 V 53.050781 C 117.050781 53.078125 117.027344 53.101562 117 53.101562 H 111 C 110.972656 53.101562 110.949219 53.078125 110.949219 53.050781 V 50.050781 C 110.949219 50.078125 110.972656 50.101562 111 50.101562 H 105 C 105.027344 50.101562 105.050781 50.078125 105.050781 50.050781 V 53.050781 C 105.050781 53.078125 105.027344 53.101562 105 53.101562 H 99 C 98.972656 53.101562 98.949219 53.078125 98.949219 53.050781 V 50.050781 C 98.949219 50.078125 98.972656 50.101562 99 50.101562 H 93 C 93.027344 50.101562 93.050781 50.078125 93.050781 50.050781 V 53.050781 C 93.050781 53.078125 93.027344 53.101562 93 53.101562 H 87 C 86.972656 53.101562 86.949219 53.078125 86.949219 53.050781 V 50.050781 C 86.949219 50.078125 86.972656 50.101562 87 50.101562 H 81 C 81.027344 50.101562 81.050781 50.078125 81.050781 50.050781 V 53.050781 C 81.050781 53.078125 81.027344 53.101562 81 53.101562 H 75 C 74.972656 53.101562 74.949219 53.078125 74.949219 53.050781 V 50.050781 C 74.949219 50.078125 74.972656 50.101562 75 50.101562 H 69 C 69.027344 50.101562 69.050781 50.078125 69.050781 50.050781 V 53.050781 C 69.050781 53.078125 69.027344 53.101562 69 53.101562 H 63 C 62.972656 53.101562 62.949219 53.078125 62.949219 53.050781 V 50.050781 C 62.949219 50.078125 62.972656 50.101562 63 50.101562 H 57 C 57.027344 50.101562 57.050781 50.078125 57.050781 50.050781 V 53.050781 C 57.050781 53.078125 57.027344 53.101562 57 53.101562 H 51 C 50.972656 53.101562 50.949219 53.078125 50.949219 53.050781 V 50.050781 C 50.949219 50.078125 50.972656 50.101562 51 50.101562 H 45 C 45.027344 50.101562 45.050781 50.078125 45.050781 50.050781 V 53.050781 C 45.050781 53.078125 45.027344 53.101562 45 53.101562 H 39 C 38.972656 53.101562 38.949219 53.078125 38.949219 53.050781 V 50.050781 C 38.949219 50.078125 38.972656 50.101562 39 50.101562 H 33 C 33.027344 50.101562 33.050781 50.078125 33.050781 50.050781 V 53.050781 C 33.050781 53.078125 33.027344 53.101562 33 53.101562 H 27 C 26.972656 53.101562 26.949219 53.078125 26.949219 53.050781 V 50.050781 C 26.949219 50.078125 26.972656 50.101562 27 50.101562 H 21 C 21.027344 50.101562 21.050781 50.078125 21.050781 50.050781 V 53.050781 C 21.050781 53.078125 21.027344 53.101562 21 53.101562 H 15 C 14.972656 53.101562 14.949219 53.078125 14.949219 53.050781 V 50.050781 C 14.949219 50.078125 14.972656 50.101562 15 50.101562 H 9 C 9.027344 50.101562 9.050781 50.078125 9.050781 50.050781 V 53.050781 C 9.050781 53.078125 9.027344 53.101562 9 53.101562 H 0.00000000000001199 C -0.0273437 53.101562 -0.0507812 53.078125 -0.0507812 53.050781 V 50.050781 L -0.0507812 40.050781 C -0.0507812 40.078125 -0.0273437 40.101562 0.000000000000008882 40.101562 H -3 C -3.027344 40.101562 -3.050781 40.078125 -3.050781 40.050781 V 34.050781 C -3.050781 34.023438 -3.027344 34 -3 34 H 0.00000000000000755 C -0.0273437 34 -0.0507812 34.023438 -0.0507812 34.050781 V 28.050781 C -0.0507812 28.078125 -0.0273437 28.101562 0.000000000000006217 28.101562 H -3 C -3.027344 28.101562 -3.050781 28.078125 -3.050781 28.050781 V 22.050781 C -3.050781 22.023438 -3.027344 22 -3 22 H 0.000000000000004885 C -0.0273437 22 -0.0507812 22.023438 -0.0507812 22.050781 V 16.050781 C -0.0507812 16.078125 -0.0273437 16.101562 0.000000000000003553 16.101562 H -3 C -3.027344 16.101562 -3.050781 16.078125 -3.050781 16.050781 V 10.050781 C -3.050781 10.023438 -3.027344 10 -3 10 H 0.00000000000000222 C -0.0273437 10 -0.0507812 10.023438 -0.0507812 10.050781 V 0.0507812 C -0.0507812 0.0234375 -0.0273438 0 0 0 H 0 " style="fill:none;stroke-width:0.1;stroke-linecap:butt;stroke-linejoin:miter;stroke:rgb(0%,0%,0%);stroke-opacity:1;stroke-miterlimit:10;" transform="matrix(1.0000,-0.0000,-0.0000,-1.0000,21.8750,772.3945)"/>
<path d="M 0 0 H 9 C 9.027344 0 9.050781 0.0234375 9.050781 0.0507812 V 3.050781 C 9.050781 3.023438 9.027344 3 9 3 H 15 C 14.972656 3 14.949219 3.023438 14.949219 3.050781 V 0.0507812 C 14.949219 0.0234375 14.972656 0 15 0 H 21 C 21.027344 0 21.050781 0.0234375 21.050781 0.0507812 V 3.050781 C 21.050781 3.023438 21.027344 3 21 3 H 27 C 26.972656 3 26.949219 3.023438 26.949219 3.050781 V 0.0507812 C 26.949219 0.0234375 26.972656 0 27 0 H 33 C 33.027344 0 33.050781 0.0234375 33.050781 0.0507812 V 3.050781 C 33.050781 3.023438 33.027344 3 33 3 H 39 C 38.972656 3 38.949219 3.023438 38.949219 3.050781 V 0.0507812 C 38.949219 0.0234375 38.972656 0 39 0 H 45 C 45.027344 0 45.050781 0.0234375 45.050781 0.0507812 V 3.050781 C 45.050781 3.023438 45.027344 3 45 3 H 51 C 50.972656 3 50.949219 3.023438 50.949219 3.050781 V 0.0507812 C 50.949219 0.0234375 50.972656 0 51 0 H 57 C 57.027344 0 57.050781 0.0234375 57.050781 0.0507812 V 3.050781 C 57.050781 3.023438 57.027344 3 57 3 H 63 C 62.972656 3 62.949219 3.023438 62.949219 3.050781 V 0.0507812 C 62.949219 0.0234375 62.972656 0 63 0 H 69 C 69.027344 0 69.050781 0.0234375 69.050781 0.0507812 V 3.050781 C 69.050781 3.023438 69.027344 3 69 3 H 75 C 74.972656 3 74.949219 3.023438 74.949219 3.050781 V 0.0507812 C 74.949219 0.0234375 74.972656 0 75 0 H 81 C 81.027344 0 81.050781 0.0234375 81.050781 0.0507812 V 3.050781 C 81.050781 3.023438 81.027344 3 81 3 H 87 C 86.972656 3 86.949219 3.023438 86.949219 3.050781 V 0.0507812 C 86.949219 0.0234375 86.972656 0 87 0 H 93 C 93.027344 0 93.050781 0.0234375 93.050781 0.0507812 V 3.050781 C 93.050781 3.023438 93.027344 3 93 3 H 99 C 98.972656 3 98.949219 3.023438 98.949219 3.050781 V 0.0507812 C 98.949219 0.0234375 98.972656 0 99 0 H 105 C 105.027344 0 105.050781 0.0234375 105.050781 0.0507812 V 3.050781 C 105.050781 3.023438 105.027344 3 105 3 H 111 C 110.972656 3 110.949219 3.023438 110.949219 3.050781 V 0.0507812 C 110.949219 0.0234375 110.972656 0 111 0 H 117 C 117.027344 0 117.050781 0.0234375 117.050781 0.0507812 V 3.050781 C 117.050781 3.023438 117.027344 3 117 3 H 123 C 122.972656 3 122.949219 3.023438 122.949219 3.050781 V 0.0507812 C 122.949219 0.0234375 122.972656 0 123 0 H 129 C 129.027344 0 129.050781 0.0234375 129.050781 0.0507812 V 3.050781 C 129.050781 3.023438 129.027344 3 129 3 H 135 C 134.972656 3 134.949219 3.023438 134.949219 3.050781 V 0.0507812 C 134.949219 0.0234375 134.972656 0 135 0 H 144 L 147 0 C 147.027344 0 147.050781 0.0234375 147.050781 0.0507812 V 3.050781 L 147.050781 12.050781 C 147.050781 12.078125 147.027344 12.101562 147 12.101562 H 144 C 144.027344 12.101562 144.050781 12.078125 144.050781 12.050781 V 18.050781 C 144.050781 18.023438 144.027344 18 144 18 H 147 C 147.027344 18 147.050781 18.023438 147.050781 18.050781 V 24.050781 C 147.050781 24.078125 147.027344 24.101562 147 24.101562 H 144 C 144.027344 24.101562 144.050781 24.078125 144.050781 24.050781 V 30.050781 C 144.050781 30.023438 144.027344 30 144 30 H 147 C 147.027344 30 147.050781 30.023438 147.050781 30.050781 V 36.050781 C 147.050781 36.078125 147.027344 36.101562 147 36.101562 H 144 C 144.027344 36.101562 144.050781 36.078125 144.050781 36.050781 V 42.050781 C 144.050781 42.023438 144.027344 42 144 42 H 147 C 147.027344 42 147.050781 42.023438 147.050781 42.050781 V 48.050781 C 147.050781 48.078125 147.027344 48.101562 147 48.101562 H 144 C 144.027344 48.101562 144.050781 48.078125 144.050781 48.050781 V 54.050781 C 144.050781 54.023438 144.027344 54 144 54 H 147 C 147.027344 54 147.050781 54.023438 147.050781 54.050781 V 60.050781 C 147.050781 60.078125 147.027344 60.101562 147 60.101562 H 144 C 144.027344 60.101562 144.050781 60.078125 144.050781 60.050781 V 66.050781 C 144.050781 66.023438 144.027344 66 144 66 H 147 C 147.027344 66 147.050781 66.023438 147.050781 66.050781 V 72.050781 C 147.050781 72.078125 147.027344 72.101562 147 72.101562 H 144 C 144.027344 72.101562 144.050781 72.078125 144.050781 72.050781 V 78.050781 C 144.050781 78.023438 144.027344 78 144 78 H 147 C 147.027344 78 147.050781 78.023438 147.050781 78.050781 V 84.050781 C 147.050781 84.078125 147.027344 84.101562 147 84.101562 H 144 C 144.027344 84.101562 144.050781 84.078125 144.050781 84.050781 V 90.050781 C 144.050781 90.023438 144.027344 90 144 90 H 147 C 147.027344 90 147.050781 90.023438 147.050781 90.050781 V 96.050781 C 147.050781 96.078125 147.027344 96.101562 147 96.101562 H 144 C 144.027344 96.101562 144.050781 96.078125 144.050781 96.050781 V 102.050781 C 144.050781 102.023438 144.027344 102 144 102 H 147 C 147.027344 102 147.050781 102.023438 147.050781 102.050781 V 108.050781 C 147.050781 108.078125 147.027344 108.101562 147 108.101562 H 144 C 144.027344 108.101562 144.050781 108.078125 144.050781 108.050781 V 114.050781 C 144.050781 114.023438 144.027344 114 144 114 H 147 C 147.027344 114 147.050781 114.023438 147.050781 114.050781 V 120.050781 C 147.050781 120.078125 147.027344 120.101562 147 120.101562 H 144 C 144.027344 120.101562 144.050781 120.078125 144.050781 120.050781 V 126.050781 C 144.050781 126.023438 144.027344 126 144 126 H 147 C 147.027344 126 147.050781 126.023438 147.050781 126.050781 V 132.050781 C 147.050781 132.078125 147.027344 132.101562 147 132.101562 H 144 C 144.027344 132.101562 144.050781 132.078125 144.050781 132.050781 V 138.050781 C 144.050781 138.023438 144.027344 138 144 138 H 147 C 147.027344 138 147.050781 138.023438 147.050781 138.050781 V 147.050781 C 147.050781 147.078125 147.027344 147.101562 147 147.101562 H 144 L -0.000000000000035971 147.101562 H -3 C -3.027344 147.101562 -3.050781 147.078125 -3.050781 147.050781 H -3.050781 V 138.050781 C -3.050781 138.023438 -3.027344 138 -3 138 H -0.000000000000033751 C -0.0273438 138 -0.0507813 138.023438 -0.0507813 138.050781 V 132.050781 C -0.0507813 132.078125 -0.0273438 132.101562 -0.000000000000032419 132.101562 H -3 C -3.027344 132.101562 -3.050781 132.078125 -3.050781 132.050781 V 126.050781 C -3.050781 126.023438 -3.027344 126 -3 126 H -0.000000000000031086 C -0.0273438 126 -0.0507813 126.023438 -0.0507813 126.050781 V 120.050781 C -0.0507813 120.078125 -0.0273438 120.101562 -0.000000000000029754 120.101562 H -3 C -3.027344 120.101562 -3.050781 120.078125 -3.050781 120.050781 V 114.050781 C -3.050781 114.023438 -3.027344 114 -3 114 H -0.000000000000027978 C -0.0273438 114 -0.0507813 114.023438 -0.0507813 114.050781 V 108.050781 C -0.0507813 108.078125 -0.0273438 108.101562 -0.000000000000026645 108.101562 H -3 C -3.027344 108.101562 -3.050781 108.078125 -3.050781 108.050781 V 102.050781 C -3.050781 102.023438 -3.027344 102 -3 102 H -0.000000000000025313 C -0.0273438 102 -0.0507813 102.023438 -0.0507813 102.050781 V 96.050781 C -0.0507813 96.078125 -0.0273438 96.101562 -0.000000000000023537 96.101562 H -3 C -3.027344 96.101562 -3.050781 96.078125 -3.050781 96.050781 V 90.050781 C -3.050781 90.023438 -3.027344 90 -3 90 H -0.000000000000022204 C -0.0273438 90 -0.0507813 90.023438 -0.0507813 90.050781 V 84.050781 C -0.0507813 84.078125 -0.0273438 84.101562 -0.000000000000020872 84.101562 H -3 C -3.027344 84.101562 -3.050781 84.078125 -3.050781 84.050781 V 78.050781 C -3.050781 78.023438 -3.027344 78 -3 78 H -0.000000000000019096 C -0.0273438 78 -0.0507813 78.023438 -0.0507813 78.050781 V 72.050781 C -0.0507813 72.078125 -0.0273438 72.101562 -0.000000000000017764 72.101562 H -3 C -3.027344 72.101562 -3.050781 72.078125 -3.050781 72.050781 V 66.050781 C -3.050781 66.023438 -3.027344 66 -3 66 H -0.000000000000016431 C -0.0273438 66 -0.0507813 66.023438 -0.0507813 66.050781 V 60.050781 C -0.0507813 60.078125 -0.0273438 60.101562 -0.000000000000014655 60.101562 H -3 C -3.027344 60.101562 -3.050781 60.078125 -3.050781 60.050781 V 54.050781 C -3.050781 54.023438 -3.027344 54 -3 54 H -0.000000000000013323 C -0.0273438 54 -0.0507813 54.023438 -0.0507813 54.050781 V 48.050781 C -0.0507813 48.078125 -0.0273438 48.101562 -0.00000000000001199 48.101562 H -3 C -3.027344 48.101562 -3.050781 48.078125 -3.050781 48.050781 V 42.050781 C -3.050781 42.023438 -3.027344 42 -3 42 H -0.000000000000010214 C -0.0273438 42 -0.0507813 42.023438 -0.0507813 42.050781 V 36.050781 C -0.0507813 36.078125 -0.0273438 36.101562 -0.000000000000008882 36.101562 H -3 C -3.027344 36.101562 -3.050781 36.078125 -3.050781 36.050781 V 30.050781 C -3.050781 30.023438 -3.027344 30 -3 30 H -0.00000000000000755 C -0.0273438 30 -0.0507813 30.023438 -0.0507813 30.050781 V 24.050781 C -0.0507813 24.078125 -0.0273438 24.101562 -0.000000000000006217 24.101562 H -3 C -3.027344 24.101562 -3.050781 24.078125 -3.050781 24.050781 V 18.050781 C -3.050781 18.023438 -3.027344 18 -3 18 H -0.000000000000004441 C -0.0273438 18 -0.0507813 18.023438 -0.0507813 18.050781 V 12.050781 C -0.0507813 12.078125 -0.0273438 12.101562 -0.000000000000003109 12.101562 H -3 C -3.027344 12.101562 -3.050781 12.078125 -3.050781 12.050781 V 3.050781 L -3.050781 0.0507812 C -3.050781 0.0234375 -3.027344 0 -3 0 H 0 " style="fill:none;stroke-width:0.1;stroke-linecap:butt;stroke-linejoin:miter;stroke:rgb(0%,0%,0%);stroke-opacity:1;stroke-miterlimit:10;" transform="matrix(1.0000,0.0000,0.0000,-1.0000,21.8750,717.8008)"/>
<path d="M 0 0 H 9 C 9.027344 0 9.050781 0.0234375 9.050781 0.0507812 V 3.050781 C 9.050781 3.023438 9.027344 3 9 3 H 15 C 14.972656 3 14.949219 3.023438 14.949219 3.050781 V 0.0507812 C 14.949219 0.0234375 14.972656 0 15 0 H 21 C 21.027344 0 21.050781 0.0234375 21.050781 0.0507812 V 3.050781 C 21.050781 3.023438 21.027344 3 21 3 H 27 C 26.972656 3 26.949219 3.023438 26.949219 3.050781 V 0.0507812 C 26.949219 0.0234375 26.972656 0 27 0 H 33 C 33.027344 0 33.050781 0.0234375 33.050781 0.0507812 V 3.050781 C 33.050781 3.023438 33.027344 3 33 3 H 39 C 38.972656 3 38.949219 3.023438 38.949219 3.050781 V 0.0507812 C 38.949219 0.0234375 38.972656 0 39 0 H 45 C 45.027344 0 45.050781 0.0234375 45.050781 0.0507812 V 3.050781 C 45.050781 3.023438 45.027344 3 45 3 H 51 C 50.972656 3 50.949219 3.023438 50.949219 3.050781 V 0.0507812 C 50.949219 0.0234375 50.972656 0 51 0 H 57 C 57.027344 0 57.050781 0.0234375 57.050781 0.0507812 V 3.050781 C 57.050781 3.023438 57.027344 3 57 3 H 63 C 62.972656 3 62.949219 3.023438 62.949219 3.050781 V 0.0507812 C 62.949219 0.0234375 62.972656 0 63 0 H 69 C 69.027344 0 69.050781 0.0234375 69.050781 0.0507812 V 3.050781 C 69.050781 3.023438 69.027344 3 69 3 H 75 C 74.972656 3 74.949219 3.023438 74.949219 3.050781 V 0.0507812 C 74.949219 0.0234375 74.972656 0 75 0 H 81 C 81.027344 0 81.050781 0.0234375 81.050781 0.0507812 V 3.050781 C 81.050781 3.023438 81.027344 3 81 3 H 87 C 86.972656 3 86.949219 3.023438 86.949219 3.050781 V 0.0507812 C 86.949219 0.0234375 86.972656 0 87 0 H 93 C 93.027344 0 93.050781 0.0234375 93.050781 0.0507812 V 3.050781 C 93.050781 3.023438 93.027344 3 93 3 H 99 C 98.972656 3 98.949219 3.023438 98.949219 3.050781 V 0.0507812 C 98.949219 0.0234375 98.972656 0 99 0 H 105 C 105.027344 0 105.050781 0.0234375 105.050781 0.0507812 V 3.050781 C 105.050781 3.023438 105.027344 3 105 3 H 111 C 110.972656 3 110.949219 3.023438 110.949219 3.050781 V 0.0507812 C 110.949219 0.0234375 110.972656 0 111 0 H 117 C 117.027344 0 117.050781 0.0234375 117.050781 0.0507812 V 3.050781 C 117.050781 3.023438 117.027344 3 117 3 H 123 C 122.972656 3 122.949219 3.023438 122.949219 3.050781 V 0.0507812 C 122.949219 0.0234375 122.972656 0 123 0 H 129 C 129.027344 0 129.050781 0.0234375 129.050781 0.0507812 V 3.050781 C 129.050781 3.023438 129.027344 3 129 3 H 135 C 134.972656 3 134.949219 3.023438 134.949219 3.050781 V 0.0507812 C 134.949219 0.0234375 134.972656 0 135 0 H 144 L 147 0 C 147.027344 0 147.050781 0.0234375 147.050781 0.0507812 V 3.050781 L 147.050781 13.550781 C 147.050781 13.578125 147.027344 13.601562 147 13.601562 H 144 C 144.027344 13.601562 144.050781 13.578125 144.050781 13.550781 V 19.550781 C 144.050781 19.523438 144.027344 19.5 144 19.5 H 147 C 147.027344 19.5 147.050781 19.523438 147.050781 19.550781 V 25.550781 C 147.050781 25.578125 147.027344 25.601562 147 25.601562 H 144 C 144.027344 25.601562 144.050781 25.578125 144.050781 25.550781 V 31.550781 C 144.050781 31.523438 144.027344 31.5 144 31.5 H 147 C 147.027344 31.5 147.050781 31.523438 147.050781 31.550781 V 37.550781 C 147.050781 37.578125 147.027344 37.601562 147 37.601562 H 144 C 144.027344 37.601562 144.050781 37.578125 144.050781 37.550781 V 43.550781 C 144.050781 43.523438 144.027344 43.5 144 43.5 H 147 C 147.027344 43.5 147.050781 43.523438 147.050781 43.550781 V 49.550781 C 147.050781 49.578125 147.027344 49.601562 147 49.601562 H 144 C 144.027344 49.601562 144.050781 49.578125 144.050781 49.550781 V 55.550781 C 144.050781 55.523438 144.027344 55.5 144 55.5 H 147 C 147.027344 55.5 147.050781 55.523438 147.050781 55.550781 V 61.550781 C 147.050781 61.578125 147.027344 61.601562 147 61.601562 H 144 C 144.027344 61.601562 144.050781 61.578125 144.050781 61.550781 V 67.550781 C 144.050781 67.523438 144.027344 67.5 144 67.5 H 147 C 147.027344 67.5 147.050781 67.523438 147.050781 67.550781 V 73.550781 C 147.050781 73.578125 147.027344 73.601562 147 73.601562 H 144 C 144.027344 73.601562 144.050781 73.578125 144.050781 73.550781 V 79.550781 C 144.050781 79.523438 144.027344 79.5 144 79.5 H 147 C 147.027344 79.5 147.050781 79.523438 147.050781 79.550781 V 85.550781 C 147.050781 85.578125 147.027344 85.601562 147 85.601562 H 144 C 144.027344 85.601562 144.050781 85.578125 144.050781 85.550781 V 91.550781 C 144.050781 91.523438 144.027344 91.5 144 91.5 H 147 C 147.027344 91.5 147.050781 91.523438 147.050781 91.550781 V 97.550781 C 147.050781 97.578125 147.027344 97.601562 147 97.601562 H 144 C 144.027344 97.601562 144.050781 97.578125 144.050781 97.550781 V 103.550781 C 144.050781 103.523438 144.027344 103.5 144 103.5 H 147 C 147.027344 103.5 147.050781 103.523438 147.050781 103.550781 V 109.550781 C 147.050781 109.578125 147.027344 109.601562 147 109.601562 H 144 C 144.027344 109.601562 144.050781 109.578125 144.050781 109.550781 V 115.550781 C 144.050781 115.523438 144.027344 115.5 144 115.5 H 147 C 147.027344 115.5 147.050781 115.523438 147.050781 115.550781 V 121.550781 C 147.050781 121.578125 147.027344 121.601562 147 121.601562 H 144 C 144.027344 121.601562 144.050781 121.578125 144.050781 121.550781 V 127.550781 C 144.050781 127.523438 144.027344 127.5 144 127.5 H 147 C 147.027344 127.5 147.050781 127.523438 147.050781 127.550781 V 138.050781 C 147.050781 138.078125 147.027344 138.101562 147 138.101562 H 144 C 144.027344 138.101562 144.050781 138.078125 144.050781 138.050781 V 147.050781 C 144.050781 147.078125 144.027344 147.101562 144 147.101562 H 144 L -0.000000000000035971 147.101562 C -0.0273438 147.101562 -0.0507813 147.078125 -0.0507813 147.050781 H -0.0507813 V 138.050781 C -0.0507813 138.078125 -0.0273438 138.101562 -0.000000000000033751 138.101562 H -3 C -3.027344 138.101562 -3.050781 138.078125 -3.050781 138.050781 V 127.550781 C -3.050781 127.523438 -3.027344 127.5 -3 127.5 H -0.00000000000003153 C -0.0273438 127.5 -0.0507813 127.523438 -0.0507813 127.550781 V 121.550781 C -0.0507813 121.578125 -0.0273438 121.601562 -0.000000000000029754 121.601562 H -3 C -3.027344 121.601562 -3.050781 121.578125 -3.050781 121.550781 V 115.550781 C -3.050781 115.523438 -3.027344 115.5 -3 115.5 H -0.000000000000028422 C -0.0273438 115.5 -0.0507813 115.523438 -0.0507813 115.550781 V 109.550781 C -0.0507813 109.578125 -0.0273438 109.601562 -0.000000000000027089 109.601562 H -3 C -3.027344 109.601562 -3.050781 109.578125 -3.050781 109.550781 V 103.550781 C -3.050781 103.523438 -3.027344 103.5 -3 103.5 H -0.000000000000025313 C -0.0273438 103.5 -0.0507813 103.523438 -0.0507813 103.550781 V 97.550781 C -0.0507813 97.578125 -0.0273438 97.601562 -0.000000000000023981 97.601562 H -3 C -3.027344 97.601562 -3.050781 97.578125 -3.050781 97.550781 V 91.550781 C -3.050781 91.523438 -3.027344 91.5 -3 91.5 H -0.000000000000022649 C -0.0273438 91.5 -0.0507813 91.523438 -0.0507813 91.550781 V 85.550781 C -0.0507813 85.578125 -0.0273438 85.601562 -0.000000000000020872 85.601562 H -3 C -3.027344 85.601562 -3.050781 85.578125 -3.050781 85.550781 V 79.550781 C -3.050781 79.523438 -3.027344 79.5 -3 79.5 H -0.00000000000001954 C -0.0273438 79.5 -0.0507813 79.523438 -0.0507813 79.550781 V 73.550781 C -0.0507813 73.578125 -0.0273438 73.601562 -0.000000000000018208 73.601562 H -3 C -3.027344 73.601562 -3.050781 73.578125 -3.050781 73.550781 V 67.550781 C -3.050781 67.523438 -3.027344 67.5 -3 67.5 H -0.000000000000016431 C -0.0273438 67.5 -0.0507813 67.523438 -0.0507813 67.550781 V 61.550781 C -0.0507813 61.578125 -0.0273438 61.601562 -0.000000000000015099 61.601562 H -3 C -3.027344 61.601562 -3.050781 61.578125 -3.050781 61.550781 V 55.550781 C -3.050781 55.523438 -3.027344 55.5 -3 55.5 H -0.000000000000013767 C -0.0273438 55.5 -0.0507813 55.523438 -0.0507813 55.550781 V 49.550781 C -0.0507813 49.578125 -0.0273438 49.601562 -0.000000000000012434 49.601562 H -3 C -3.027344 49.601562 -3.050781 49.578125 -3.050781 49.550781 V 43.550781 C -3.050781 43.523438 -3.027344 43.5 -3 43.5 H -0.000000000000010658 C -0.0273438 43.5 -0.0507813 43.523438 -0.0507813 43.550781 V 37.550781 C -0.0507813 37.578125 -0.0273438 37.601562 -0.000000000000009326 37.601562 H -3 C -3.027344 37.601562 -3.050781 37.578125 -3.050781 37.550781 V 31.550781 C -3.050781 31.523438 -3.027344 31.5 -3 31.5 H -0.000000000000007994 C -0.0273438 31.5 -0.0507813 31.523438 -0.0507813 31.550781 V 25.550781 C -0.0507813 25.578125 -0.0273438 25.601562 -0.000000000000006217 25.601562 H -3 C -3.027344 25.601562 -3.050781 25.578125 -3.050781 25.550781 V 19.550781 C -3.050781 19.523438 -3.027344 19.5 -3 19.5 H -0.000000000000004885 C -0.0273438 19.5 -0.0507813 19.523438 -0.0507813 19.550781 V 13.550781 C -0.0507813 13.578125 -0.0273438 13.601562 -0.000000000000003553 13.601562 H -3 C -3.027344 13.601562 -3.050781 13.578125 -3.050781 13.550781 V 3.050781 L -3.050781 0.0507812 C -3.050781 0.0234375 -3.027344 0 -3 0 H 0 " style="fill:none;stroke-width:0.1;stroke-linecap:butt;stroke-linejoin:miter;stroke:rgb(0%,0%,0%);stroke-opacity:1;stroke-miterlimit:10;" transform="matrix(1.0000,0.0000,0.0000,-1.0000,21.8750,569.1992)"/>
<path d="M 0 0 H 9 C 9.027344 0 9.050781 0.0234375 9.050781 0.0507812 V 3.050781 C 9.050781 3.023438 9.027344 3 9 3 H 15 C 14.972656 3 14.949219 3.023438 14.949219 3.050781 V 0.0507812 C 14.949219 0.0234375 14.972656 0 15 0 H 21 C 21.027344 0 21.050781 0.0234375 21.050781 0.0507812 V 3.050781 C 21.050781 3.023438 21.027344 3 21 3 H 27 C 26.972656 3 26.949219 3.023438 26.949219 3.050781 V 0.0507812 C 26.949219 0.0234375 26.972656 0 27 0 H 33 C 33.027344 0 33.050781 0.0234375 33.050781 0.0507812 V 3.050781 C 33.050781 3.023438 33.027344 3 33 3 H 39 C 38.972656 3 38.949219 3.023438 38.949219 3.050781 V 0.0507812 C 38.949219 0.0234375 38.972656 0 39 0 H 45 C 45.027344 0 45.050781 0.0234375 45.050781 0.0507812 V 3.050781 C 45.050781 3.023438 45.027344 3 45 3 H 51 C 50.972656 3 50.949219 3.023438 50.949219 3.050781 V 0.0507812 C 50.949219 0.0234375 50.972656 0 51 0 H 57 C 57.027344 0 57.050781 0.0234375 57.050781 0.0507812 V 3.050781 C 57.050781 3.023438 57.027344 3 57 3 H 63 C 62.972656 3 62.949219 3.023438 62.949219 3.050781 V 0.0507812 C 62.949219 0.0234375 62.972656 0 63 0 H 69 C 69.027344 0 69.050781 0.0234375 69.050781 0.0507812 V 3.050781 C 69.050781 3.023438 69.027344 3 69 3 H 75 C 74.972656 3 74.949219 3.023438 74.949219 3.050781 V 0.0507812 C 74.949219 0.0234375 74.972656 0 75 0 H 81 C 81.027344 0 81.050781 0.0234375 81.050781 0.0507812 V 3.050781 C 81.050781 3.023438 81.027344 3 81 3 H 87 C 86.972656 3 86.949219 3.023438 86.949219 3.050781 V 0.0507812 C 86.949219 0.0234375 86.972656 0 87 0 H 93 C 93.027344 0 93.050781 0.0234375 93.050781 0.0507812 V 3.050781 C 93.050781 3.023438 93.027344 3 93 3 H 99 C 98.972656 3 98.949219 3.023438 98.949219 3.050781 V 0.0507812 C 98.949219 0.0234375 98.972656 0 99 0 H 105 C 105.027344 0 105.050781 0.0234375 105.050781 0.0507812 V 3.050781 C 105.050781 3.023438 105.027344 3 105 3 H 111 C 110.972656 3 110.949219 3.023438 110.949219 3.050781 V 0.0507812 C 110.949219 0.0234375 110.972656 0 111 0 H 117 C 117.027344 0 117.050781 0.0234375 117.050781 0.0507812 V 3.050781 C 117.050781 3.023438 117.027344 3 117 3 H 123 C 122.972656 3 122.949219 3.023438 122.949219 3.050781 V 0.0507812 C 122.949219 0.0234375 122.972656 0 123 0 H 129 C 129.027344 0 129.050781 0.0234375 129.050781 0.0507812 V 3.050781 C 129.050781 3.023438 129.027344 3 129 3 H 135 C 134.972656 3 134.949219 3.023438 134.949219 3.050781 V 0.0507812 C 134.949219 0.0234375 134.972656 0 135 0 H 144 L 147 0 C 147.027344 0 147.050781 0.0234375 147.050781 0.0507812 V 3.050781 L 147.050781 13.050781 C 147.050781 13.078125 147.027344 13.101562 147 13.101562 H 144 C 144.027344 13.101562 144.050781 13.078125 144.050781 13.050781 V 19.050781 C 144.050781 19.023438 144.027344 19 144 19 H 147 C 147.027344 19 147.050781 19.023438 147.050781 19.050781 V 25.050781 C 147.050781 25.078125 147.027344 25.101562 147 25.101562 H 144 C 144.027344 25.101562 144.050781 25.078125 144.050781 25.050781 V 31.050781 C 144.050781 31.023438 144.027344 31 144 31 H 147 C 147.027344 31 147.050781 31.023438 147.050781 31.050781 V 37.050781 C 147.050781 37.078125 147.027344 37.101562 147 37.101562 H 144 C 144.027344 37.101562 144.050781 37.078125 144.050781 37.050781 V 43.050781 C 144.050781 43.023438 144.027344 43 144 43 H 147 C 147.027344 43 147.050781 43.023438 147.050781 43.050781 V 53.050781 C 147.050781 53.078125 147.027344 53.101562 147 53.101562 H 144 L -0.000000000000012879 53.101562 H -3 C -3.027344 53.101562 -3.050781 53.078125 -3.050781 53.050781 H -3.050781 V 43.050781 C -3.050781 43.023438 -3.027344 43 -3 43 H -0.000000000000010658 C -0.0273438 43 -0.0507813 43.023438 -0.0507813 43.050781 V 37.050781 C -0.0507813 37.078125 -0.0273438 37.101562 -0.000000000000009326 37.101562 H -3 C -3.027344 37.101562 -3.050781 37.078125 -3.050781 37.050781 V 31.050781 C -3.050781 31.023438 -3.027344 31 -3 31 H -0.00000000000000755 C -0.0273438 31 -0.0507813 31.023438 -0.0507813 31.050781 V 25.050781 C -0.0507813 25.078125 -0.0273438 25.101562 -0.000000000000006217 25.101562 H -3 C -3.027344 25.101562 -3.050781 25.078125 -3.050781 25.050781 V 19.050781 C -3.050781 19.023438 -3.027344 19 -3 19 H -0.000000000000004885 C -0.0273438 19 -0.0507813 19.023438 -0.0507813 19.050781 V 13.050781 C -0.0507813 13.078125 -0.0273438 13.101562 -0.000000000000003109 13.101562 H -3 C -3.027344 13.101562 -3.050781 13.078125 -3.050781 13.050781 V 3.050781 L -3.050781 0.0507812 C -3.050781 0.0234375 -3.027344 0 -3 0 H 0 " style="fill:none;stroke-width:0.1;stroke-linecap:butt;stroke-linejoin:miter;stroke:rgb(0%,0%,0%);stroke-opacity:1;stroke-miterlimit:10;" transform="matrix(1.0000,0.0000,0.0000,-1.0000,21.8750,420.6016)"/>
<path d="M 0 0 H 9 C 9.027344 0 9.050781 0.0234375 9.050781 0.0507812 V 3.050781 C 9.050781 3.023438 9.027344 3 9 3 H 15 C 14.972656 3 14.949219 3.023438 14.949219 3.050781 V 0.0507812 C 14.949219 0.0234375 14.972656 0 15 0 H 21 C 21.027344 0 21.050781 0.0234375 21.050781 0.0507812 V 3.050781 C 21.050781 3.023438 21.027344 3 21 3 H 27 C 26.972656 3 26.949219 3.023438 26.949219 3.050781 V 0.0507812 C 26.949219 0.0234375 26.972656 0 27 0 H 33 C 33.027344 0 33.050781 0.0234375 33.050781 0.0507812 V 3.050781 C 33.050781 3.023438 33.027344 3 33 3 H 39 C 38.972656 3 38.949219 3.023438 38.949219 3.050781 V 0.0507812 C 38.949219 0.0234375 38.972656 0 39 0 H 45 C 45.027344 0 45.050781 0.0234375 45.050781 0.0507812 V 3.050781 C 45.050781 3.023438 45.027344 3 45 3 H 51 C 50.972656 3 50.949219 3.023438 50.949219 3.050781 V 0.0507812 C 50.949219 0.0234375 50.972656 0 51 0 H 57 C 57.027344 0 57.050781 0.0234375 57.050781 0.0507812 V 3.050781 C 57.050781 3.023438 57.027344 3 57 3 H 63 C 62.972656 3 62.949219 3.023438 62.949219 3.050781 V 0.0507812 C 62.949219 0.0234375 62.972656 0 63 0 H 69 C 69.027344 0 69.050781 0.0234375 69.050781 0.0507812 V 3.050781 C 69.050781 3.023438 69.027344 3 69 3 H 75 C 74.972656 3 74.949219 3.023438 74.949219 3.050781 V 0.0507812 C 74.949219 0.0234375 74.972656 0 75 0 H 81 C 81.027344 0 81.050781 0.0234375 81.050781 0.0507812 V 3.050781 C 81.050781 3.023438 81.027344 3 81 3 H 87 C 86.972656 3 86.949219 3.023438 86.949219 3.050781 V 0.0507812 C 86.949219 0.0234375 86.972656 0 87 0 H 93 C 93.027344 0 93.050781 0.0234375 93.050781 0.0507812 V 3.050781 C 93.050781 3.023438 93.027344 3 93 3 H 99 C 98.972656 3 98.949219 3.023438 98.949219 3.050781 V 0.0507812 C 98.949219 0.0234375 98.972656 0 99 0 H 105 C 105.027344 0 105.050781 0.0234375 105.050781 0.0507812 V 3.050781 C 105.050781 3.023438 105.027344 3 105 3 H 111 C 110.972656 3 110.949219 3.023438 110.949219 3.050781 V 0.0507812 C 110.949219 0.0234375 110.972656 0 111 0 H 117 C 117.027344 0 117.050781 0.0234375 117.050781 0.0507812 V 3.050781 C 117.050781 3.023438 117.027344 3 117 3 H 123 C 122.972656 3 122.949219 3.023438 122.949219 3.050781 V 0.0507812 C 122.949219 0.0234375 122.972656 0 123 0 H 129 C 129.027344 0 129.050781 0.0234375 129.050781 0.0507812 V 3.050781 C 129.050781 3.023438 129.027344 3 129 3 H 135 C 134.972656 3 134.949219 3.023438 134.949219 3.050781 V 0.0507812 C 134.949219 0.0234375 134.972656 0 135 0 H 144 L 147 0 C 147.027344 0 147.050781 0.0234375 147.050781 0.0507812 V 3.050781 L 147.050781 14.402344 C 147.050781 14.429688 147.027344 14.453125 147 14.453125 H 144 C 144.027344 14.453125 144.050781 14.429688 144.050781 14.402344 V 20.402344 C 144.050781 20.375 144.027344 20.351562 144 20.351562 H 147 C 147.027344 20.351562 147.050781 20.375 147.050781 20.402344 V 26.402344 C 147.050781 26.429688 147.027344 26.453125 147 26.453125 H 144 C 144.027344 26.453125 144.050781 26.429688 144.050781 26.402344 V 32.402344 C 144.050781 32.375 144.027344 32.351562 144 32.351562 H 147 C 147.027344 32.351562 147.050781 32.375 147.050781 32.402344 V 43.753906 C 147.050781 43.78125 147.027344 43.804688 147 43.804688 H 144 C 144.027344 43.804688 144.050781 43.78125 144.050781 43.753906 V 48.265625 C 144.050781 48.238281 144.027344 48.214844 144 48.214844 H 147 C 147.027344 48.214844 147.050781 48.238281 147.050781 48.265625 V 52.753906 C 147.050781 52.78125 147.027344 52.804688 147 52.804688 H -3 C -3.027344 52.804688 -3.050781 52.78125 -3.050781 52.753906 V 48.265625 C -3.050781 48.238281 -3.027344 48.214844 -3 48.214844 H -0.00000000000001199 C -0.0273438 48.214844 -0.0507813 48.238281 -0.0507813 48.265625 V 43.753906 C -0.0507813 43.78125 -0.0273438 43.804688 -0.000000000000010658 43.804688 H -0.000000000000010658 L -3 43.804688 C -3.027344 43.804688 -3.050781 43.78125 -3.050781 43.753906 H -3.050781 V 32.402344 C -3.050781 32.375 -3.027344 32.351562 -3 32.351562 H -0.000000000000007994 C -0.0273438 32.351562 -0.0507813 32.375 -0.0507813 32.402344 V 26.402344 C -0.0507813 26.429688 -0.0273438 26.453125 -0.000000000000006661 26.453125 H -3 C -3.027344 26.453125 -3.050781 26.429688 -3.050781 26.402344 V 20.402344 C -3.050781 20.375 -3.027344 20.351562 -3 20.351562 H -0.000000000000005329 C -0.0273438 20.351562 -0.0507813 20.375 -0.0507813 20.402344 V 14.402344 C -0.0507813 14.429688 -0.0273438 14.453125 -0.000000000000003553 14.453125 H -3 C -3.027344 14.453125 -3.050781 14.429688 -3.050781 14.402344 V 3.050781 L -3.050781 0.0507812 C -3.050781 0.0234375 -3.027344 0 -3 0 H 0 " style="fill:none;stroke-width:0.1;stroke-linecap:butt;stroke-linejoin:miter;stroke:rgb(0%,0%,0%);stroke-opacity:1;stroke-miterlimit:10;" transform="matrix(1.0000,0.0000,0.0000,-1.0000,21.8750,366.0000)"/>
<path d="M 0 0 H 9 C 8.972656 0 8.949219 0.0234375 8.949219 0.0507812 V -2.949219 C 8.949219 -2.976562 8.972656 -3 9 -3 H 15 C 15.027344 -3 15.050781 -2.976562 15.050781 -2.949219 V 0.0507812 C 15.050781 0.0234375 15.027344 0 15 0 H 21 C 20.972656 0 20.949219 0.0234375 20.949219 0.0507812 V -2.949219 C 20.949219 -2.976562 20.972656 -3 21 -3 H 27 C 27.027344 -3 27.050781 -2.976562 27.050781 -2.949219 V 0.0507812 C 27.050781 0.0234375 27.027344 0 27 0 H 33 C 32.972656 0 32.949219 0.0234375 32.949219 0.0507812 V -2.949219 C 32.949219 -2.976562 32.972656 -3 33 -3 H 39 C 39.027344 -3 39.050781 -2.976562 39.050781 -2.949219 V 0.0507812 C 39.050781 0.0234375 39.027344 0 39 0 H 45 C 44.972656 0 44.949219 0.0234375 44.949219 0.0507812 V -2.949219 C 44.949219 -2.976562 44.972656 -3 45 -3 H 51 C 51.027344 -3 51.050781 -2.976562 51.050781 -2.949219 V 0.0507812 C 51.050781 0.0234375 51.027344 0 51 0 H 57 C 56.972656 0 56.949219 0.0234375 56.949219 0.0507812 V -2.949219 C 56.949219 -2.976562 56.972656 -3 57 -3 H 63 C 63.027344 -3 63.050781 -2.976562 63.050781 -2.949219 V 0.0507812 C 63.050781 0.0234375 63.027344 0 63 0 H 69 C 68.972656 0 68.949219 0.0234375 68.949219 0.0507812 V -2.949219 C 68.949219 -2.976562 68.972656 -3 69 -3 H 75 C 75.027344 -3 75.050781 -2.976562 75.050781 -2.949219 V 0.0507812 C 75.050781 0.0234375 75.027344 0 75 0 H 81 C 80.972656 0 80.949219 0.0234375 80.949219 0.0507812 V -2.949219 C 80.949219 -2.976562 80.972656 -3 81 -3 H 87 C 87.027344 -3 87.050781 -2.976562 87.050781 -2.949219 V 0.0507812 C 87.050781 0.0234375 87.027344 0 87 0 H 93 C 92.972656 0 92.949219 0.0234375 92.949219 0.0507812 V -2.949219 C 92.949219 -2.976562 92.972656 -3 93 -3 H 99 C 99.027344 -3 99.050781 -2.976562 99.050781 -2.949219 V 0.0507812 C 99.050781 0.0234375 99.027344 0 99 0 H 105 C 104.972656 0 104.949219 0.0234375 104.949219 0.0507812 V -2.949219 C 104.949219 -2.976562 104.972656 -3 105 -3 H 111 C 111.027344 -3 111.050781 -2.976562 111.050781 -2.949219 V 0.0507812 C 111.050781 0.0234375 111.027344 0 111 0 H 117 C 116.972656 0 116.949219 0.0234375 116.949219 0.0507812 V -2.949219 C 116.949219 -2.976562 116.972656 -3 117 -3 H 123 C 123.027344 -3 123.050781 -2.976562 123.050781 -2.949219 V 0.0507812 C 123.050781 0.0234375 123.027344 0 123 0 H 129 C 128.972656 0 128.949219 0.0234375 128.949219 0.0507812 V -2.949219 C 128.949219 -2.976562 128.972656 -3 129 -3 H 135 C 135.027344 -3 135.050781 -2.976562 135.050781 -2.949219 V 0.0507812 C 135.050781 0.0234375 135.027344 0 135 0 H 144 C 144.027344 0 144.050781 0.0234375 144.050781 0.0507812 H 144.050781 V 9.050781 C 144.050781 9.023438 144.027344 9 144 9 H 147 C 147.027344 9 147.050781 9.023438 147.050781 9.050781 V 15.050781 C 147.050781 15.078125 147.027344 15.101562 147 15.101562 H 144 C 144.027344 15.101562 144.050781 15.078125 144.050781 15.050781 V 21.050781 C 144.050781 21.023438 144.027344 21 144 21 H 147 C 147.027344 21 147.050781 21.023438 147.050781 21.050781 V 27.050781 C 147.050781 27.078125 147.027344 27.101562 147 27.101562 H 144 C 144.027344 27.101562 144.050781 27.078125 144.050781 27.050781 V 33.050781 C 144.050781 33.023438 144.027344 33 144 33 H 147 C 147.027344 33 147.050781 33.023438 147.050781 33.050781 V 39.050781 C 147.050781 39.078125 147.027344 39.101562 147 39.101562 H 144 C 144.027344 39.101562 144.050781 39.078125 144.050781 39.050781 V 45.050781 C 144.050781 45.023438 144.027344 45 144 45 H 147 C 147.027344 45 147.050781 45.023438 147.050781 45.050781 V 51.050781 C 147.050781 51.078125 147.027344 51.101562 147 51.101562 H 144 C 144.027344 51.101562 144.050781 51.078125 144.050781 51.050781 V 57.050781 C 144.050781 57.023438 144.027344 57 144 57 H 147 C 147.027344 57 147.050781 57.023438 147.050781 57.050781 V 63.050781 C 147.050781 63.078125 147.027344 63.101562 147 63.101562 H 144 C 144.027344 63.101562 144.050781 63.078125 144.050781 63.050781 V 69.050781 C 144.050781 69.023438 144.027344 69 144 69 H 147 C 147.027344 69 147.050781 69.023438 147.050781 69.050781 V 75.050781 C 147.050781 75.078125 147.027344 75.101562 147 75.101562 H 144 C 144.027344 75.101562 144.050781 75.078125 144.050781 75.050781 V 81.050781 C 144.050781 81.023438 144.027344 81 144 81 H 147 C 147.027344 81 147.050781 81.023438 147.050781 81.050781 V 87.050781 C 147.050781 87.078125 147.027344 87.101562 147 87.101562 H 144 C 144.027344 87.101562 144.050781 87.078125 144.050781 87.050781 V 93.050781 C 144.050781 93.023438 144.027344 93 144 93 H 147 C 147.027344 93 147.050781 93.023438 147.050781 93.050781 V 99.050781 C 147.050781 99.078125 147.027344 99.101562 147 99.101562 H 144 C 144.027344 99.101562 144.050781 99.078125 144.050781 99.050781 V 105.050781 C 144.050781 105.023438 144.027344 105 144 105 H 147 C 147.027344 105 147.050781 105.023438 147.050781 105.050781 V 111.050781 C 147.050781 111.078125 147.027344 111.101562 147 111.101562 H 144 C 144.027344 111.101562 144.050781 111.078125 144.050781 111.050781 V 117.050781 C 144.050781 117.023438 144.027344 117 144 117 H 147 C 147.027344 117 147.050781 117.023438 147.050781 117.050781 V 123.050781 C 147.050781 123.078125 147.027344 123.101562 147 123.101562 H 144 C 144.027344 123.101562 144.050781 123.078125 144.050781 123.050781 V 129.050781 C 144.050781 129.023438 144.027344 129 144 129 H 147 C 147.027344 129 147.050781 129.023438 147.050781 129.050781 V 135.050781 C 147.050781 135.078125 147.027344 135.101562 147 135.101562 H 144 C 144.027344 135.101562 144.050781 135.078125 144.050781 135.050781 V 144.050781 C 144.050781 144.078125 144.027344 144.101562 144 144.101562 H 144 L 135 144.101562 C 135.027344 144.101562 135.050781 144.078125 135.050781 144.050781 V 147.050781 C 135.050781 147.078125 135.027344 147.101562 135 147.101562 H 129 C 128.972656 147.101562 128.949219 147.078125 128.949219 147.050781 V 144.050781 C 128.949219 144.078125 128.972656 144.101562 129 144.101562 H 123 C 123.027344 144.101562 123.050781 144.078125 123.050781 144.050781 V 147.050781 C 123.050781 147.078125 123.027344 147.101562 123 147.101562 H 117 C 116.972656 147.101562 116.949219 147.078125 116.949219 147.050781 V 144.050781 C 116.949219 144.078125 116.972656 144.101562 117 144.101562 H 111 C 111.027344 144.101562 111.050781 144.078125 111.050781 144.050781 V 147.050781 C 111.050781 147.078125 111.027344 147.101562 111 147.101562 H 105 C 104.972656 147.101562 104.949219 147.078125 104.949219 147.050781 V 144.050781 C 104.949219 144.078125 104.972656 144.101562 105 144.101562 H 99 C 99.027344 144.101562 99.050781 144.078125 99.050781 144.050781 V 147.050781 C 99.050781 147.078125 99.027344 147.101562 99 147.101562 H 93 C 92.972656 147.101562 92.949219 147.078125 92.949219 147.050781 V 144.050781 C 92.949219 144.078125 92.972656 144.101562 93 144.101562 H 87 C 87.027344 144.101562 87.050781 144.078125 87.050781 144.050781 V 147.050781 C 87.050781 147.078125 87.027344 147.101562 87 147.101562 H 81 C 80.972656 147.101562 80.949219 147.078125 80.949219 147.050781 V 144.050781 C 80.949219 144.078125 80.972656 144.101562 81 144.101562 H 75 C 75.027344 144.101562 75.050781 144.078125 75.050781 144.050781 V 147.050781 C 75.050781 147.078125 75.027344 147.101562 75 147.101562 H 69 C 68.972656 147.101562 68.949219 147.078125 68.949219 147.050781 V 144.050781 C 68.949219 144.078125 68.972656 144.101562 69 144.101562 H 63 C 63.027344 144.101562 63.050781 144.078125 63.050781 144.050781 V 147.050781 C 63.050781 147.078125 63.027344 147.101562 63 147.101562 H 57 C 56.972656 147.101562 56.949219 147.078125 56.949219 147.050781 V 144.050781 C 56.949219 144.078125 56.972656 144.101562 57 144.101562 H 51 C 51.027344 144.101562 51.050781 144.078125 51.050781 144.050781 V 147.050781 C 51.050781 147.078125 51.027344 147.101562 51 147.101562 H 45 C 44.972656 147.101562 44.949219 147.078125 44.949219 147.050781 V 144.050781 C 44.949219 144.078125 44.972656 144.101562 45 144.101562 H 39 C 39.027344 144.101562 39.050781 144.078125 39.050781 144.050781 V 147.050781 C 39.050781 147.078125 39.027344 147.101562 39 147.101562 H 33 C 32.972656 147.101562 32.949219 147.078125 32.949219 147.050781 V 144.050781 C 32.949219 144.078125 32.972656 144.101562 33 144.101562 H 27 C 27.027344 144.101562 27.050781 144.078125 27.050781 144.050781 V 147.050781 C 27.050781 147.078125 27.027344 147.101562 27 147.101562 H 21 C 20.972656 147.101562 20.949219 147.078125 20.949219 147.050781 V 144.050781 C 20.949219 144.078125 20.972656 144.101562 21 144.101562 H 15 C 15.027344 144.101562 15.050781 144.078125 15.050781 144.050781 V 147.050781 C 15.050781 147.078125 15.027344 147.101562 15 147.101562 H 9 C 8.972656 147.101562 8.949219 147.078125 8.949219 147.050781 V 144.050781 C 8.949219 144.078125 8.972656 144.101562 9 144.101562 H -0.000000000000035083 C -0.0273438 144.101562 -0.0507813 144.078125 -0.0507813 144.050781 H -0.0507813 V 135.050781 C -0.0507813 135.078125 -0.0273438 135.101562 -0.000000000000032863 135.101562 H -3 C -3.027344 135.101562 -3.050781 135.078125 -3.050781 135.050781 V 129.050781 C -3.050781 129.023438 -3.027344 129 -3 129 H -0.00000000000003153 C -0.0273438 129 -0.0507813 129.023438 -0.0507813 129.050781 V 123.050781 C -0.0507813 123.078125 -0.0273438 123.101562 -0.000000000000030198 123.101562 H -3 C -3.027344 123.101562 -3.050781 123.078125 -3.050781 123.050781 V 117.050781 C -3.050781 117.023438 -3.027344 117 -3 117 H -0.000000000000028422 C -0.0273438 117 -0.0507813 117.023438 -0.0507813 117.050781 V 111.050781 C -0.0507813 111.078125 -0.0273438 111.101562 -0.000000000000027089 111.101562 H -3 C -3.027344 111.101562 -3.050781 111.078125 -3.050781 111.050781 V 105.050781 C -3.050781 105.023438 -3.027344 105 -3 105 H -0.000000000000025757 C -0.0273438 105 -0.0507813 105.023438 -0.0507813 105.050781 V 99.050781 C -0.0507813 99.078125 -0.0273438 99.101562 -0.000000000000024425 99.101562 H -3 C -3.027344 99.101562 -3.050781 99.078125 -3.050781 99.050781 V 93.050781 C -3.050781 93.023438 -3.027344 93 -3 93 H -0.000000000000022649 C -0.0273438 93 -0.0507813 93.023438 -0.0507813 93.050781 V 87.050781 C -0.0507813 87.078125 -0.0273438 87.101562 -0.000000000000021316 87.101562 H -3 C -3.027344 87.101562 -3.050781 87.078125 -3.050781 87.050781 V 81.050781 C -3.050781 81.023438 -3.027344 81 -3 81 H -0.000000000000019984 C -0.0273438 81 -0.0507813 81.023438 -0.0507813 81.050781 V 75.050781 C -0.0507813 75.078125 -0.0273438 75.101562 -0.000000000000018208 75.101562 H -3 C -3.027344 75.101562 -3.050781 75.078125 -3.050781 75.050781 V 69.050781 C -3.050781 69.023438 -3.027344 69 -3 69 H -0.000000000000016875 C -0.0273438 69 -0.0507813 69.023438 -0.0507813 69.050781 V 63.050781 C -0.0507813 63.078125 -0.0273438 63.101562 -0.000000000000015543 63.101562 H -3 C -3.027344 63.101562 -3.050781 63.078125 -3.050781 63.050781 V 57.050781 C -3.050781 57.023438 -3.027344 57 -3 57 H -0.000000000000013767 C -0.0273438 57 -0.0507813 57.023438 -0.0507813 57.050781 V 51.050781 C -0.0507813 51.078125 -0.0273438 51.101562 -0.000000000000012434 51.101562 H -3 C -3.027344 51.101562 -3.050781 51.078125 -3.050781 51.050781 V 45.050781 C -3.050781 45.023438 -3.027344 45 -3 45 H -0.000000000000011102 C -0.0273438 45 -0.0507813 45.023438 -0.0507813 45.050781 V 39.050781 C -0.0507813 39.078125 -0.0273438 39.101562 -0.000000000000009326 39.101562 H -3 C -3.027344 39.101562 -3.050781 39.078125 -3.050781 39.050781 V 33.050781 C -3.050781 33.023438 -3.027344 33 -3 33 H -0.000000000000007994 C -0.0273438 33 -0.0507813 33.023438 -0.0507813 33.050781 V 27.050781 C -0.0507813 27.078125 -0.0273438 27.101562 -0.000000000000006661 27.101562 H -3 C -3.027344 27.101562 -3.050781 27.078125 -3.050781 27.050781 V 21.050781 C -3.050781 21.023438 -3.027344 21 -3 21 H -0.000000000000004885 C -0.0273438 21 -0.0507813 21.023438 -0.0507813 21.050781 V 15.050781 C -0.0507813 15.078125 -0.0273438 15.101562 -0.000000000000003553 15.101562 H -3 C -3.027344 15.101562 -3.050781 15.078125 -3.050781 15.050781 V 9.050781 C -3.050781 9.023438 -3.027344 9 -3 9 H -0.00000000000000222 C -0.0273438 9 -0.0507813 9.023438 -0.0507813 9.050781 L -0.0507812 0.0507812 C -0.0507812 0.0234375 -0.0273438 0 0 0 H 0 " style="fill:none;stroke-width:0.1;stroke-linecap:butt;stroke-linejoin:miter;stroke:rgb(0%,0%,0%);stroke-opacity:1;stroke-miterlimit:10;" transform="matrix(1.0000,0.0000,0.0000,-1.0000,21.8750,308.6992)"/>
<path d="M 0 0 H 9 C 8.972656 0 8.949219 0.0234375 8.949219 0.0507812 V -2.949219 C 8.949219 -2.976562 8.972656 -3 9 -3 H 15 C 15.027344 -3 15.050781 -2.976562 15.050781 -2.949219 V 0.0507812 C 15.050781 0.0234375 15.027344 0 15 0 H 21 C 20.972656 0 20.949219 0.0234375 20.949219 0.0507812 V -2.949219 C 20.949219 -2.976562 20.972656 -3 21 -3 H 27 C 27.027344 -3 27.050781 -2.976562 27.050781 -2.949219 V 0.0507812 C 27.050781 0.0234375 27.027344 0 27 0 H 33 C 32.972656 0 32.949219 0.0234375 32.949219 0.0507812 V -2.949219 C 32.949219 -2.976562 32.972656 -3 33 -3 H 39 C 39.027344 -3 39.050781 -2.976562 39.050781 -2.949219 V 0.0507812 C 39.050781 0.0234375 39.027344 0 39 0 H 45 C 44.972656 0 44.949219 0.0234375 44.949219 0.0507812 V -2.949219 C 44.949219 -2.976562 44.972656 -3 45 -3 H 51 C 51.027344 -3 51.050781 -2.976562 51.050781 -2.949219 V 0.0507812 C 51.050781 0.0234375 51.027344 0 51 0 H 57 C 56.972656 0 56.949219 0.0234375 56.949219 0.0507812 V -2.949219 C 56.949219 -2.976562 56.972656 -3 57 -3 H 63 C 63.027344 -3 63.050781 -2.976562 63.050781 -2.949219 V 0.0507812 C 63.050781 0.0234375 63.027344 0 63 0 H 69 C 68.972656 0 68.949219 0.0234375 68.949219 0.0507812 V -2.949219 C 68.949219 -2.976562 68.972656 -3 69 -3 H 75 C 75.027344 -3 75.050781 -2.976562 75.050781 -2.949219 V 0.0507812 C 75.050781 0.0234375 75.027344 0 75 0 H 81 C 80.972656 0 80.949219 0.0234375 80.949219 0.0507812 V -2.949219 C 80.949219 -2.976562 80.972656 -3 81 -3 H 87 C 87.027344 -3 87.050781 -2.976562 87.050781 -2.949219 V 0.0507812 C 87.050781 0.0234375 87.027344 0 87 0 H 93 C 92.972656 0 92.949219 0.0234375 92.949219 0.0507812 V -2.949219 C 92.949219 -2.976562 92.972656 -3 93 -3 H 99 C 99.027344 -3 99.050781 -2.976562 99.050781 -2.949219 V 0.0507812 C 99.050781 0.0234375 99.027344 0 99 0 H 105 C 104.972656 0 104.949219 0.0234375 104.949219 0.0507812 V -2.949219 C 104.949219 -2.976562 104.972656 -3 105 -3 H 111 C 111.027344 -3 111.050781 -2.976562 111.050781 -2.949219 V 0.0507812 C 111.050781 0.0234375 111.027344 0 111 0 H 117 C 116.972656 0 116.949219 0.0234375 116.949219 0.0507812 V -2.949219 C 116.949219 -2.976562 116.972656 -3 117 -3 H 123 C 123.027344 -3 123.050781 -2.976562 123.050781 -2.949219 V 0.0507812 C 123.050781 0.0234375 123.027344 0 123 0 H 129 C 128.972656 0 128.949219 0.0234375 128.949219 0.0507812 V -2.949219 C 128.949219 -2.976562 128.972656 -3 129 -3 H 135 C 135.027344 -3 135.050781 -2.976562 135.050781 -2.949219 V 0.0507812 C 135.050781 0.0234375 135.027344 0 135 0 H 144 C 144.027344 0 144.050781 0.0234375 144.050781 0.0507812 H 144.050781 V 9.050781 C 144.050781 9.023438 144.027344 9 144 9 H 147 C 147.027344 9 147.050781 9.023438 147.050781 9.050781 V 15.050781 C 147.050781 15.078125 147.027344 15.101562 147 15.101562 H 144 C 144.027344 15.101562 144.050781 15.078125 144.050781 15.050781 V 21.050781 C 144.050781 21.023438 144.027344 21 144 21 H 147 C 147.027344 21 147.050781 21.023438 147.050781 21.050781 V 27.050781 C 147.050781 27.078125 147.027344 27.101562 147 27.101562 H 144 C 144.027344 27.101562 144.050781 27.078125 144.050781 27.050781 V 33.050781 C 144.050781 33.023438 144.027344 33 144 33 H 147 C 147.027344 33 147.050781 33.023438 147.050781 33.050781 V 39.050781 C 147.050781 39.078125 147.027344 39.101562 147 39.101562 H 144 C 144.027344 39.101562 144.050781 39.078125 144.050781 39.050781 V 45.050781 C 144.050781 45.023438 144.027344 45 144 45 H 147 C 147.027344 45 147.050781 45.023438 147.050781 45.050781 V 51.050781 C 147.050781 51.078125 147.027344 51.101562 147 51.101562 H 144 C 144.027344 51.101562 144.050781 51.078125 144.050781 51.050781 V 57.050781 C 144.050781 57.023438 144.027344 57 144 57 H 147 C 147.027344 57 147.050781 57.023438 147.050781 57.050781 V 63.050781 C 147.050781 63.078125 147.027344 63.101562 147 63.101562 H 144 C 144.027344 63.101562 144.050781 63.078125 144.050781 63.050781 V 69.050781 C 144.050781 69.023438 144.027344 69 144 69 H 147 C 147.027344 69 147.050781 69.023438 147.050781 69.050781 V 75.050781 C 147.050781 75.078125 147.027344 75.101562 147 75.101562 H 144 C 144.027344 75.101562 144.050781 75.078125 144.050781 75.050781 V 81.050781 C 144.050781 81.023438 144.027344 81 144 81 H 147 C 147.027344 81 147.050781 81.023438 147.050781 81.050781 V 87.050781 C 147.050781 87.078125 147.027344 87.101562 147 87.101562 H 144 C 144.027344 87.101562 144.050781 87.078125 144.050781 87.050781 V 93.050781 C 144.050781 93.023438 144.027344 93 144 93 H 147 C 147.027344 93 147.050781 93.023438 147.050781 93.050781 V 99.050781 C 147.050781 99.078125 147.027344 99.101562 147 99.101562 H 144 C 144.027344 99.101562 144.050781 99.078125 144.050781 99.050781 V 105.050781 C 144.050781 105.023438 144.027344 105 144 105 H 147 C 147.027344 105 147.050781 105.023438 147.050781 105.050781 V 111.050781 C 147.050781 111.078125 147.027344 111.101562 147 111.101562 H 144 C 144.027344 111.101562 144.050781 111.078125 144.050781 111.050781 V 117.050781 C 144.050781 117.023438 144.027344 117 144 117 H 147 C 147.027344 117 147.050781 117.023438 147.050781 117.050781 V 123.050781 C 147.050781 123.078125 147.027344 123.101562 147 123.101562 H 144 C 144.027344 123.101562 144.050781 123.078125 144.050781 123.050781 V 129.050781 C 144.050781 129.023438 144.027344 129 144 129 H 147 C 147.027344 129 147.050781 129.023438 147.050781 129.050781 V 135.050781 C 147.050781 135.078125 147.027344 135.101562 147 135.101562 H 144 C 144.027344 135.101562 144.050781 135.078125 144.050781 135.050781 V 144.050781 C 144.050781 144.078125 144.027344 144.101562 144 144.101562 H 144 L 135 144.101562 C 135.027344 144.101562 135.050781 144.078125 135.050781 144.050781 V 147.050781 C 135.050781 147.078125 135.027344 147.101562 135 147.101562 H 129 C 128.972656 147.101562 128.949219 147.078125 128.949219 147.050781 V 144.050781 C 128.949219 144.078125 128.972656 144.101562 129 144.101562 H 123 C 123.027344 144.101562 123.050781 144.078125 123.050781 144.050781 V 147.050781 C 123.050781 147.078125 123.027344 147.101562 123 147.101562 H 117 C 116.972656 147.101562 116.949219 147.078125 116.949219 147.050781 V 144.050781 C 116.949219 144.078125 116.972656 144.101562 117 144.101562 H 111 C 111.027344 144.101562 111.050781 144.078125 111.050781 144.050781 V 147.050781 C 111.050781 147.078125 111.027344 147.101562 111 147.101562 H 105 C 104.972656 147.101562 104.949219 147.078125 104.949219 147.050781 V 144.050781 C 104.949219 144.078125 104.972656 144.101562 105 144.101562 H 99 C 99.027344 144.101562 99.050781 144.078125 99.050781 144.050781 V 147.050781 C 99.050781 147.078125 99.027344 147.101562 99 147.101562 H 93 C 92.972656 147.101562 92.949219 147.078125 92.949219 147.050781 V 144.050781 C 92.949219 144.078125 92.972656 144.101562 93 144.101562 H 87 C 87.027344 144.101562 87.050781 144.078125 87.050781 144.050781 V 147.050781 C 87.050781 147.078125 87.027344 147.101562 87 147.101562 H 81 C 80.972656 147.101562 80.949219 147.078125 80.949219 147.050781 V 144.050781 C 80.949219 144.078125 80.972656 144.101562 81 144.101562 H 75 C 75.027344 144.101562 75.050781 144.078125 75.050781 144.050781 V 147.050781 C 75.050781 147.078125 75.027344 147.101562 75 147.101562 H 69 C 68.972656 147.101562 68.949219 147.078125 68.949219 147.050781 V 144.050781 C 68.949219 144.078125 68.972656 144.101562 69 144.101562 H 63 C 63.027344 144.101562 63.050781 144.078125 63.050781 144.050781 V 147.050781 C 63.050781 147.078125 63.027344 147.101562 63 147.101562 H 57 C 56.972656 147.101562 56.949219 147.078125 56.949219 147.050781 V 144.050781 C 56.949219 144.078125 56.972656 144.101562 57 144.101562 H 51 C 51.027344 144.101562 51.050781 144.078125 51.050781 144.050781 V 147.050781 C 51.050781 147.078125 51.027344 147.101562 51 147.101562 H 45 C 44.972656 147.101562 44.949219 147.078125 44.949219 147.050781 V 144.050781 C 44.949219 144.078125 44.972656 144.101562 45 144.101562 H 39 C 39.027344 144.101562 39.050781 144.078125 39.050781 144.050781 V 147.050781 C 39.050781 147.078125 39.027344 147.101562 39 147.101562 H 33 C 32.972656 147.101562 32.949219 147.078125 32.949219 147.050781 V 144.050781 C 32.949219 144.078125 32.972656 144.101562 33 144.101562 H 27 C 27.027344 144.101562 27.050781 144.078125 27.050781 144.050781 V 147.050781 C 27.050781 147.078125 27.027344 147.101562 27 147.101562 H 21 C 20.972656 147.101562 20.949219 147.078125 20.949219 147.050781 V 144.050781 C 20.949219 144.078125 20.972656 144.101562 21 144.101562 H 15 C 15.027344 144.101562 15.050781 144.078125 15.050781 144.050781 V 147.050781 C 15.050781 147.078125 15.027344 147.101562 15 147.101562 H 9 C 8.972656 147.101562 8.949219 147.078125 8.949219 147.050781 V 144.050781 C 8.949219 144.078125 8.972656 144.101562 9 144.101562 H -0.000000000000035083 C -0.0273438 144.101562 -0.0507813 144.078125 -0.0507813 144.050781 H -0.0507813 V 135.050781 C -0.0507813 135.078125 -0.0273438 135.101562 -0.000000000000032863 135.101562 H -3 C -3.027344 135.101562 -3.050781 135.078125 -3.050781 135.050781 V 129.050781 C -3.050781 129.023438 -3.027344 129 -3 129 H -0.00000000000003153 C -0.0273438 129 -0.0507813 129.023438 -0.0507813 129.050781 V 123.050781 C -0.0507813 123.078125 -0.0273438 123.101562 -0.000000000000029754 123.101562 H -3 C -3.027344 123.101562 -3.050781 123.078125 -3.050781 123.050781 V 117.050781 C -3.050781 117.023438 -3.027344 117 -3 117 H -0.000000000000028422 C -0.0273438 117 -0.0507813 117.023438 -0.0507813 117.050781 V 111.050781 C -0.0507813 111.078125 -0.0273438 111.101562 -0.000000000000027089 111.101562 H -3 C -3.027344 111.101562 -3.050781 111.078125 -3.050781 111.050781 V 105.050781 C -3.050781 105.023438 -3.027344 105 -3 105 H -0.000000000000025313 C -0.0273438 105 -0.0507813 105.023438 -0.0507813 105.050781 V 99.050781 C -0.0507813 99.078125 -0.0273438 99.101562 -0.000000000000023981 99.101562 H -3 C -3.027344 99.101562 -3.050781 99.078125 -3.050781 99.050781 V 93.050781 C -3.050781 93.023438 -3.027344 93 -3 93 H -0.000000000000022649 C -0.0273438 93 -0.0507813 93.023438 -0.0507813 93.050781 V 87.050781 C -0.0507813 87.078125 -0.0273438 87.101562 -0.000000000000021316 87.101562 H -3 C -3.027344 87.101562 -3.050781 87.078125 -3.050781 87.050781 V 81.050781 C -3.050781 81.023438 -3.027344 81 -3 81 H -0.00000000000001954 C -0.0273438 81 -0.0507813 81.023438 -0.0507813 81.050781 V 75.050781 C -0.0507813 75.078125 -0.0273438 75.101562 -0.000000000000018208 75.101562 H -3 C -3.027344 75.101562 -3.050781 75.078125 -3.050781 75.050781 V 69.050781 C -3.050781 69.023438 -3.027344 69 -3 69 H -0.000000000000016875 C -0.0273438 69 -0.0507813 69.023438 -0.0507813 69.050781 V 63.050781 C -0.0507813 63.078125 -0.0273438 63.101562 -0.000000000000015099 63.101562 H -3 C -3.027344 63.101562 -3.050781 63.078125 -3.050781 63.050781 V 57.050781 C -3.050781 57.023438 -3.027344 57 -3 57 H -0.000000000000013767 C -0.0273438 57 -0.0507813 57.023438 -0.0507813 57.050781 V 51.050781 C -0.0507813 51.078125 -0.0273438 51.101562 -0.000000000000012434 51.101562 H -3 C -3.027344 51.101562 -3.050781 51.078125 -3.050781 51.050781 V 45.050781 C -3.050781 45.023438 -3.027344 45 -3 45 H -0.000000000000010658 C -0.0273438 45 -0.0507813 45.023438 -0.0507813 45.050781 V 39.050781 C -0.0507813 39.078125 -0.0273438 39.101562 -0.000000000000009326 39.101562 H -3 C -3.027344 39.101562 -3.050781 39.078125 -3.050781 39.050781 V 33.050781 C -3.050781 33.023438 -3.027344 33 -3 33 H -0.000000000000007994 C -0.0273438 33 -0.0507813 33.023438 -0.0507813 33.050781 V 27.050781 C -0.0507813 27.078125 -0.0273438 27.101562 -0.000000000000006217 27.101562 H -3 C -3.027344 27.101562 -3.050781 27.078125 -3.050781 27.050781 V 21.050781 C -3.050781 21.023438 -3.027344 21 -3 21 H -0.000000000000004885 C -0.0273438 21 -0.0507813 21.023438 -0.0507813 21.050781 V 15.050781 C -0.0507813 15.078125 -0.0273438 15.101562 -0.000000000000003553 15.101562 H -3 C -3.027344 15.101562 -3.050781 15.078125 -3.050781 15.050781 V 9.050781 C -3.050781 9.023438 -3.027344 9 -3 9 H -0.000000000000001776 C -0.0273438 9 -0.0507813 9.023438 -0.0507813 9.050781 L -0.0507812 0.0507812 C -0.0507812 0.0234375 -0.0273438 0 0 0 H 0 " style="fill:none;stroke-width:0.1;stroke-linecap:butt;stroke-linejoin:miter;stroke:rgb(0%,0%,0%);stroke-opacity:1;stroke-miterlimit:10;" transform="matrix(1.0000,0.0000,0.0000,-1.0000,21.8750,157.1016)"/>
</g>
</svg>