<svg xmlns="http://www.w3.org/2000/svg" height="1050mm" version="1.1" viewBox="0 -10 140 1050" width="140mm">
<!--
IntegratedHingeBox - 
Created with Boxes.py (https://festi.info/boxes.py)
Creation date: 2019-11-05 13:43:52
Command line (remove spaces beteen dashes): boxes IntegratedHingeBox - -FingerJoint_angle=90.0 - -FingerJoint_style=rectangular - -FingerJoint_surroundingspaces=2.0 - -FingerJoint_edge_width=1.0 - -FingerJoint_finger=2.0 - -FingerJoint_play=0.0 - -FingerJoint_space=2.0 - -FingerJoint_width=1.0 - -ChestHinge_hinge_strength=1.0 - -ChestHinge_pin_height=2.0 - -ChestHinge_play=0.1 - -x=100 - -y=100 - -h=150 - -outside=0 - -outside=1 - -lidheight=50 - -thickness=3.0 - -format=svg - -tabs=0.0 - -debug=0 - -reference=0 - -burn=0.05
Url: http://localhost:8008/IntegratedHingeBox?FingerJoint_angle=90.0&FingerJoint_style=rectangular&FingerJoint_surroundingspaces=2.0&FingerJoint_edge_width=1.0&FingerJoint_finger=2.0&FingerJoint_play=0.0&FingerJoint_space=2.0&FingerJoint_width=1.0&ChestHinge_hinge_strength=1.0&ChestHinge_pin_height=2.0&ChestHinge_play=0.1&x=100&y=100&h=150&outside=0&outside=1&lidheight=50&thickness=3.0&format=svg&tabs=0.0&debug=0&reference=0&burn=0.05&render=1
SettingsUrl: http://localhost:8008/IntegratedHingeBox?FingerJoint_angle=90.0&FingerJoint_style=rectangular&FingerJoint_surroundingspaces=2.0&FingerJoint_edge_width=1.0&FingerJoint_finger=2.0&FingerJoint_play=0.0&FingerJoint_space=2.0&FingerJoint_width=1.0&ChestHinge_hinge_strength=1.0&ChestHinge_pin_height=2.0&ChestHinge_play=0.1&x=100&y=100&h=150&outside=0&outside=1&lidheight=50&thickness=3.0&format=svg&tabs=0.0&debug=0&reference=0&burn=0.05
--><g id="surface5116">
<path d="M 94 147.101562 H 86 C 85.972656 147.101562 85.949219 147.078125 85.949219 147.050781 V 144.050781 C 85.949219 144.078125 85.972656 144.101562 86 144.101562 H 80 C 80.027344 144.101562 80.050781 144.078125 80.050781 144.050781 V 147.050781 C 80.050781 147.078125 80.027344 147.101562 80 147.101562 H 74 C 73.972656 147.101562 73.949219 147.078125 73.949219 147.050781 V 144.050781 C 73.949219 144.078125 73.972656 144.101562 74 144.101562 H 68 C 68.027344 144.101562 68.050781 144.078125 68.050781 144.050781 V 147.050781 C 68.050781 147.078125 68.027344 147.101562 68 147.101562 H 62 C 61.972656 147.101562 61.949219 147.078125 61.949219 147.050781 V 144.050781 C 61.949219 144.078125 61.972656 144.101562 62 144.101562 H 56 C 56.027344 144.101562 56.050781 144.078125 56.050781 144.050781 V 147.050781 C 56.050781 147.078125 56.027344 147.101562 56 147.101562 H 50 C 49.972656 147.101562 49.949219 147.078125 49.949219 147.050781 V 144.050781 C 49.949219 144.078125 49.972656 144.101562 50 144.101562 H 44 C 44.027344 144.101562 44.050781 144.078125 44.050781 144.050781 V 147.050781 C 44.050781 147.078125 44.027344 147.101562 44 147.101562 H 38 C 37.972656 147.101562 37.949219 147.078125 37.949219 147.050781 V 144.050781 C 37.949219 144.078125 37.972656 144.101562 38 144.101562 H 32 C 32.027344 144.101562 32.050781 144.078125 32.050781 144.050781 V 147.050781 C 32.050781 147.078125 32.027344 147.101562 32 147.101562 H 26 C 25.972656 147.101562 25.949219 147.078125 25.949219 147.050781 V 144.050781 C 25.949219 144.078125 25.972656 144.101562 26 144.101562 H 20 C 20.027344 144.101562 20.050781 144.078125 20.050781 144.050781 V 147.050781 C 20.050781 147.078125 20.027344 147.101562 20 147.101562 H 14 C 13.972656 147.101562 13.949219 147.078125 13.949219 147.050781 V 144.050781 C 13.949219 144.078125 13.972656 144.101562 14 144.101562 H 8 C 8.027344 144.101562 8.050781 144.078125 8.050781 144.050781 V 147.050781 C 8.050781 147.078125 8.027344 147.101562 8 147.101562 H -0.000000000000014211 C -0.0273438 147.101562 -0.0507813 147.078125 -0.0507813 147.050781 V 144.050781 L -0.0507813 135.050781 C -0.0507813 135.078125 -0.0273438 135.101562 -0.000000000000014211 135.101562 H -3 C -3.027344 135.101562 -3.050781 135.078125 -3.050781 135.050781 V 129.050781 C -3.050781 129.023438 -3.027344 129 -3 129 H -0.000000000000014211 C -0.0273438 129 -0.0507813 129.023438 -0.0507813 129.050781 V 123.050781 C -0.0507813 123.078125 -0.0273438 123.101562 -0.000000000000014211 123.101562 H -3 C -3.027344 123.101562 -3.050781 123.078125 -3.050781 123.050781 V 117.050781 C -3.050781 117.023438 -3.027344 117 -3 117 H -0.000000000000014211 C -0.0273438 117 -0.0507813 117.023438 -0.0507813 117.050781 V 111.050781 C -0.0507813 111.078125 -0.0273438 111.101562 -0.000000000000014211 111.101562 H -3 C -3.027344 111.101562 -3.050781 111.078125 -3.050781 111.050781 V 105.050781 C -3.050781 105.023438 -3.027344 105 -3 105 H -0.000000000000014211 C -0.0273438 105 -0.0507813 105.023438 -0.0507813 105.050781 V 99.050781 C -0.0507813 99.078125 -0.0273438 99.101562 -0.000000000000014211 99.101562 H -3 C -3.027344 99.101562 -3.050781 99.078125 -3.050781 99.050781 V 93.050781 C -3.050781 93.023438 -3.027344 93 -3 93 H -0.000000000000014211 C -0.0273438 93 -0.0507813 93.023438 -0.0507813 93.050781 V 87.050781 C -0.0507813 87.078125 -0.0273438 87.101562 -0.000000000000014211 87.101562 H -3 C -3.027344 87.101562 -3.050781 87.078125 -3.050781 87.050781 V 81.050781 C -3.050781 81.023438 -3.027344 81 -3 81 H -0.000000000000014211 C -0.0273438 81 -0.0507813 81.023438 -0.0507813 81.050781 V 75.050781 C -0.0507813 75.078125 -0.0273438 75.101562 -0.000000000000014211 75.101562 H -3 C -3.027344 75.101562 -3.050781 75.078125 -3.050781 75.050781 V 69.050781 C -3.050781 69.023438 -3.027344 69 -3 69 H 0 C -0.0273438 69 -0.0507812 69.023438 -0.0507812 69.050781 V 63.050781 C -0.0507812 63.078125 -0.0273438 63.101562 0 63.101562 H -3 C -3.027344 63.101562 -3.050781 63.078125 -3.050781 63.050781 V 57.050781 C -3.050781 57.023438 -3.027344 57 -3 57 H 0 C -0.0273438 57 -0.0507812 57.023438 -0.0507812 57.050781 V 51.050781 C -0.0507812 51.078125 -0.0273438 51.101562 0 51.101562 H -3 C -3.027344 51.101562 -3.050781 51.078125 -3.050781 51.050781 V 45.050781 C -3.050781 45.023438 -3.027344 45 -3 45 H 0 C -0.0273438 45 -0.0507812 45.023438 -0.0507812 45.050781 V 39.050781 C -0.0507812 39.078125 -0.0273438 39.101562 0 39.101562 H -3 C -3.027344 39.101562 -3.050781 39.078125 -3.050781 39.050781 V 33.050781 C -3.050781 33.023438 -3.027344 33 -3 33 H 0 C -0.0273438 33 -0.0507812 33.023438 -0.0507812 33.050781 V 27.050781 C -0.0507812 27.078125 -0.0273438 27.101562 0 27.101562 H -3 C -3.027344 27.101562 -3.050781 27.078125 -3.050781 27.050781 V 21.050781 C -3.050781 21.023438 -3.027344 21 -3 21 H 0 C -0.0273438 21 -0.0507812 21.023438 -0.0507812 21.050781 V 15.050781 C -0.0507812 15.078125 -0.0273438 15.101562 0 15.101562 H -3 C -3.027344 15.101562 -3.050781 15.078125 -3.050781 15.050781 V 9.050781 C -3.050781 9.023438 -3.027344 9 -3 9 H 0 C -0.0273438 9 -0.0507812 9.023438 -0.0507812 9.050781 V 0.0507812 C -0.0507812 0.0234375 -0.0273438 0 0 0 H 0 " style="fill:none;stroke-width:0.1;stroke-linecap:butt;stroke-linejoin:miter;stroke:rgb(0%,0%,0%);stroke-opacity:1;stroke-miterlimit:10;" transform="matrix(-1.0000,-0.0000,-0.0000,1.0000,115.8750,877.0977)"/>
<path d="M -0.00000000000181899 -0.000000000000904166 C 1.140625 -0.000000000000905054 2.257812 -0.328125 3.21875 -0.945313 C 4.179687 -1.5625 4.941406 -2.441406 5.414062 -3.480469 C 5.886719 -4.519531 6.054687 -5.671875 5.890625 -6.800781 C 5.726562 -7.929688 5.246094 -8.988281 4.496094 -9.851563 C 3.75 -10.714844 2.769531 -11.34375 1.675781 -11.664063 C 0.582031 -11.984375 -0.582031 -11.984375 -1.675781 -11.664063 C -2.769531 -11.34375 -3.75 -10.714844 -4.496094 -9.851563 C -5.242188 -8.988281 -5.726563 -7.929688 -5.890625 -6.800781 C -6.054688 -5.671875 -5.886719 -4.519531 -5.414063 -3.480469 C -4.941406 -2.441406 -4.179688 -1.5625 -3.21875 -0.945313 C -2.257813 -0.328125 -1.144531 -0.000000000000904166 -0.00000000000181899 -0.000000000000904166 " style="fill:none;stroke-width:0.1;stroke-linecap:butt;stroke-linejoin:miter;stroke:rgb(0%,0%,100%);stroke-opacity:1;stroke-miterlimit:10;" transform="matrix(-0.0000,-1.0000,-1.0000,0.0000,12.9258,877.0977)"/>
<path d="M 0 0.00390625 C -0.0273438 0.00390625 -0.0507812 0.0234375 -0.0507812 0.0507812 V -4.4375 C -0.0507812 -4.410156 -0.0273438 -4.386719 0 -4.386719 H -3 C -2.972656 -4.386719 -2.949219 -4.410156 -2.949219 -4.4375 V 0.0507812 C -2.949219 0.0234375 -2.972656 0 -3 0 H 0 " style="fill:none;stroke-width:0.1;stroke-linecap:butt;stroke-linejoin:miter;stroke:rgb(0%,0%,100%);stroke-opacity:1;stroke-miterlimit:10;" transform="matrix(1.0000,-0.0000,-0.0000,-1.0000,21.8750,872.6602)"/>
<path d="M 94 147.101562 H 6 C 6.027344 147.101562 6.050781 147.078125 6.050781 147.050781 C 6.050781 148.839844 5.519531 150.589844 4.527344 152.078125 C 3.53125 153.566406 2.121094 154.726562 0.464844 155.410156 C -1.1875 156.09375 -3.007813 156.273438 -4.765625 155.925781 C -6.519531 155.578125 -8.132813 154.714844 -9.398438 153.449219 C -10.664063 152.183594 -11.527344 150.570312 -11.875 148.816406 C -12.222656 147.0625 -12.046875 145.242188 -11.359375 143.585938 C -10.675781 141.933594 -9.515625 140.519531 -8.027344 139.523438 C -6.539063 138.527344 -4.789063 138 -3 138 H -0.000000000000038192 C -0.0664063 138 -0.0664063 138.101562 -0.000000000000038192 138.101562 H -0.000000000000038192 C -0.0273438 138.101562 -0.0507813 138.078125 -0.0507813 138.050781 H -0.0507813 V 127.550781 C -0.0507813 127.578125 -0.0273438 127.601562 -0.000000000000035083 127.601562 H -3 C -3.027344 127.601562 -3.050781 127.578125 -3.050781 127.550781 V 121.550781 C -3.050781 121.523438 -3.027344 121.5 -3 121.5 H -0.000000000000033307 C -0.0273438 121.5 -0.0507813 121.523438 -0.0507813 121.550781 V 115.550781 C -0.0507813 115.578125 -0.0273438 115.601562 -0.000000000000031974 115.601562 H -3 C -3.027344 115.601562 -3.050781 115.578125 -3.050781 115.550781 V 109.550781 C -3.050781 109.523438 -3.027344 109.5 -3 109.5 H -0.000000000000030198 C -0.0273438 109.5 -0.0507813 109.523438 -0.0507813 109.550781 V 103.550781 C -0.0507813 103.578125 -0.0273438 103.601562 -0.000000000000028422 103.601562 H -3 C -3.027344 103.601562 -3.050781 103.578125 -3.050781 103.550781 V 97.550781 C -3.050781 97.523438 -3.027344 97.5 -3 97.5 H -0.000000000000026645 C -0.0273438 97.5 -0.0507813 97.523438 -0.0507813 97.550781 V 91.550781 C -0.0507813 91.578125 -0.0273438 91.601562 -0.000000000000025313 91.601562 H -3 C -3.027344 91.601562 -3.050781 91.578125 -3.050781 91.550781 V 85.550781 C -3.050781 85.523438 -3.027344 85.5 -3 85.5 H -0.000000000000023537 C -0.0273438 85.5 -0.0507813 85.523438 -0.0507813 85.550781 V 79.550781 C -0.0507813 79.578125 -0.0273438 79.601562 -0.00000000000002176 79.601562 H -3 C -3.027344 79.601562 -3.050781 79.578125 -3.050781 79.550781 V 73.550781 C -3.050781 73.523438 -3.027344 73.5 -3 73.5 H -0.000000000000019984 C -0.0273438 73.5 -0.0507813 73.523438 -0.0507813 73.550781 V 67.550781 C -0.0507813 67.578125 -0.0273438 67.601562 -0.000000000000018652 67.601562 H -3 C -3.027344 67.601562 -3.050781 67.578125 -3.050781 67.550781 V 61.550781 C -3.050781 61.523438 -3.027344 61.5 -3 61.5 H -0.000000000000016875 C -0.0273438 61.5 -0.0507813 61.523438 -0.0507813 61.550781 V 55.550781 C -0.0507813 55.578125 -0.0273438 55.601562 -0.000000000000015099 55.601562 H -3 C -3.027344 55.601562 -3.050781 55.578125 -3.050781 55.550781 V 49.550781 C -3.050781 49.523438 -3.027344 49.5 -3 49.5 H -0.000000000000013323 C -0.0273438 49.5 -0.0507813 49.523438 -0.0507813 49.550781 V 43.550781 C -0.0507813 43.578125 -0.0273438 43.601562 -0.00000000000001199 43.601562 H -3 C -3.027344 43.601562 -3.050781 43.578125 -3.050781 43.550781 V 37.550781 C -3.050781 37.523438 -3.027344 37.5 -3 37.5 H -0.000000000000010214 C -0.0273438 37.5 -0.0507813 37.523438 -0.0507813 37.550781 V 31.550781 C -0.0507813 31.578125 -0.0273438 31.601562 -0.000000000000008438 31.601562 H -3 C -3.027344 31.601562 -3.050781 31.578125 -3.050781 31.550781 V 25.550781 C -3.050781 25.523438 -3.027344 25.5 -3 25.5 H -0.000000000000006661 C -0.0273438 25.5 -0.0507813 25.523438 -0.0507813 25.550781 V 19.550781 C -0.0507813 19.578125 -0.0273438 19.601562 -0.000000000000005329 19.601562 H -3 C -3.027344 19.601562 -3.050781 19.578125 -3.050781 19.550781 V 13.550781 C -3.050781 13.523438 -3.027344 13.5 -3 13.5 H -0.000000000000003553 C -0.0273438 13.5 -0.0507813 13.523438 -0.0507813 13.550781 V 3.050781 L -0.0507812 0.0507812 C -0.0507812 0.0234375 -0.0273438 0 0 0 H 0 " style="fill:none;stroke-width:0.1;stroke-linecap:butt;stroke-linejoin:miter;stroke:rgb(0%,0%,0%);stroke-opacity:1;stroke-miterlimit:10;" transform="matrix(1.0000,0.0000,0.0000,-1.0000,21.8750,1024.1992)"/>
<path d="M 0 0.00390625 C -0.0664062 0.00390625 -0.0664062 0.105469 0 0.105469 H -3 C -2.933594 0.105469 -2.933594 0.00390625 -3 0.00390625 C -1.375 0.00390625 0.21875 -0.421875 1.625 -1.234375 C 3.03125 -2.046875 4.199219 -3.214844 5.011719 -4.621094 C 5.824219 -6.027344 6.25 -7.621094 6.25 -9.246094 C 6.25 -9.273438 6.273437 -9.296875 6.300781 -9.296875 H 94 C 94.027344 -9.296875 94.050781 -9.273438 94.050781 -9.246094 H 94.050781 V 0.753906 C 94.050781 0.726562 94.027344 0.703125 94 0.703125 H 97 C 97.027344 0.703125 97.050781 0.726562 97.050781 0.753906 V 6.753906 C 97.050781 6.78125 97.027344 6.804688 97 6.804688 H 94 C 94.027344 6.804688 94.050781 6.78125 94.050781 6.753906 V 12.753906 C 94.050781 12.726562 94.027344 12.703125 94 12.703125 H 97 C 97.027344 12.703125 97.050781 12.726562 97.050781 12.753906 V 18.753906 C 97.050781 18.78125 97.027344 18.804688 97 18.804688 H 94 C 94.027344 18.804688 94.050781 18.78125 94.050781 18.753906 V 24.753906 C 94.050781 24.726562 94.027344 24.703125 94 24.703125 H 97 C 97.027344 24.703125 97.050781 24.726562 97.050781 24.753906 V 30.753906 C 97.050781 30.78125 97.027344 30.804688 97 30.804688 H 94 C 94.027344 30.804688 94.050781 30.78125 94.050781 30.753906 V 40.753906 L 94.050781 43.753906 C 94.050781 43.78125 94.027344 43.804688 94 43.804688 H 94 L 86 43.804688 C 85.972656 43.804688 85.949219 43.78125 85.949219 43.753906 V 40.753906 C 85.949219 40.78125 85.972656 40.804688 86 40.804688 H 80 C 80.027344 40.804688 80.050781 40.78125 80.050781 40.753906 V 43.753906 C 80.050781 43.78125 80.027344 43.804688 80 43.804688 H 74 C 73.972656 43.804688 73.949219 43.78125 73.949219 43.753906 V 40.753906 C 73.949219 40.78125 73.972656 40.804688 74 40.804688 H 68 C 68.027344 40.804688 68.050781 40.78125 68.050781 40.753906 V 43.753906 C 68.050781 43.78125 68.027344 43.804688 68 43.804688 H 62 C 61.972656 43.804688 61.949219 43.78125 61.949219 43.753906 V 40.753906 C 61.949219 40.78125 61.972656 40.804688 62 40.804688 H 56 C 56.027344 40.804688 56.050781 40.78125 56.050781 40.753906 V 43.753906 C 56.050781 43.78125 56.027344 43.804688 56 43.804688 H 50 C 49.972656 43.804688 49.949219 43.78125 49.949219 43.753906 V 40.753906 C 49.949219 40.78125 49.972656 40.804688 50 40.804688 H 44 C 44.027344 40.804688 44.050781 40.78125 44.050781 40.753906 V 43.753906 C 44.050781 43.78125 44.027344 43.804688 44 43.804688 H 38 C 37.972656 43.804688 37.949219 43.78125 37.949219 43.753906 V 40.753906 C 37.949219 40.78125 37.972656 40.804688 38 40.804688 H 32 C 32.027344 40.804688 32.050781 40.78125 32.050781 40.753906 V 43.753906 C 32.050781 43.78125 32.027344 43.804688 32 43.804688 H 26 C 25.972656 43.804688 25.949219 43.78125 25.949219 43.753906 V 40.753906 C 25.949219 40.78125 25.972656 40.804688 26 40.804688 H 20 C 20.027344 40.804688 20.050781 40.78125 20.050781 40.753906 V 43.753906 C 20.050781 43.78125 20.027344 43.804688 20 43.804688 H 14 C 13.972656 43.804688 13.949219 43.78125 13.949219 43.753906 V 40.753906 C 13.949219 40.78125 13.972656 40.804688 14 40.804688 H 8 C 8.027344 40.804688 8.050781 40.78125 8.050781 40.753906 V 43.753906 C 8.050781 43.78125 8.027344 43.804688 8 43.804688 H 0.000000000000011102 C -0.0273437 43.804688 -0.0507812 43.78125 -0.0507812 43.753906 V 40.753906 L -0.0507812 29.402344 C -0.0507812 29.429688 -0.0273437 29.453125 0.00000000000000755 29.453125 H -3 C -3.027344 29.453125 -3.050781 29.429688 -3.050781 29.402344 V 23.402344 C -3.050781 23.375 -3.027344 23.351562 -3 23.351562 H 0.000000000000005773 C -0.0273437 23.351562 -0.0507812 23.375 -0.0507812 23.402344 V 17.402344 C -0.0507812 17.429688 -0.0273437 17.453125 0.000000000000004441 17.453125 H -3 C -3.027344 17.453125 -3.050781 17.429688 -3.050781 17.402344 V 11.402344 C -3.050781 11.375 -3.027344 11.351562 -3 11.351562 H 0.000000000000002665 C -0.0273437 11.351562 -0.0507812 11.375 -0.0507812 11.402344 V 0.0507812 C -0.0507812 0.0234375 -0.0273438 0 0 0 H 0 " style="fill:none;stroke-width:0.1;stroke-linecap:butt;stroke-linejoin:miter;stroke:rgb(0%,0%,0%);stroke-opacity:1;stroke-miterlimit:10;" transform="matrix(1.0000,-0.0000,-0.0000,-1.0000,21.8750,866.3047)"/>
<path d="M 94 138.101562 H 86 C 85.972656 138.101562 85.949219 138.078125 85.949219 138.050781 V 135.050781 C 85.949219 135.078125 85.972656 135.101562 86 135.101562 H 80 C 80.027344 135.101562 80.050781 135.078125 80.050781 135.050781 V 138.050781 C 80.050781 138.078125 80.027344 138.101562 80 138.101562 H 74 C 73.972656 138.101562 73.949219 138.078125 73.949219 138.050781 V 135.050781 C 73.949219 135.078125 73.972656 135.101562 74 135.101562 H 68 C 68.027344 135.101562 68.050781 135.078125 68.050781 135.050781 V 138.050781 C 68.050781 138.078125 68.027344 138.101562 68 138.101562 H 62 C 61.972656 138.101562 61.949219 138.078125 61.949219 138.050781 V 135.050781 C 61.949219 135.078125 61.972656 135.101562 62 135.101562 H 56 C 56.027344 135.101562 56.050781 135.078125 56.050781 135.050781 V 138.050781 C 56.050781 138.078125 56.027344 138.101562 56 138.101562 H 50 C 49.972656 138.101562 49.949219 138.078125 49.949219 138.050781 V 135.050781 C 49.949219 135.078125 49.972656 135.101562 50 135.101562 H 44 C 44.027344 135.101562 44.050781 135.078125 44.050781 135.050781 V 138.050781 C 44.050781 138.078125 44.027344 138.101562 44 138.101562 H 38 C 37.972656 138.101562 37.949219 138.078125 37.949219 138.050781 V 135.050781 C 37.949219 135.078125 37.972656 135.101562 38 135.101562 H 32 C 32.027344 135.101562 32.050781 135.078125 32.050781 135.050781 V 138.050781 C 32.050781 138.078125 32.027344 138.101562 32 138.101562 H 26 C 25.972656 138.101562 25.949219 138.078125 25.949219 138.050781 V 135.050781 C 25.949219 135.078125 25.972656 135.101562 26 135.101562 H 20 C 20.027344 135.101562 20.050781 135.078125 20.050781 135.050781 V 138.050781 C 20.050781 138.078125 20.027344 138.101562 20 138.101562 H 14 C 13.972656 138.101562 13.949219 138.078125 13.949219 138.050781 V 135.050781 C 13.949219 135.078125 13.972656 135.101562 14 135.101562 H 8 C 8.027344 135.101562 8.050781 135.078125 8.050781 135.050781 V 138.050781 C 8.050781 138.078125 8.027344 138.101562 8 138.101562 H -0.000000000000014211 C -0.0273438 138.101562 -0.0507813 138.078125 -0.0507813 138.050781 V 135.050781 L -0.0507813 124.550781 C -0.0507813 124.578125 -0.0273438 124.601562 -0.000000000000014211 124.601562 H -3 C -3.027344 124.601562 -3.050781 124.578125 -3.050781 124.550781 V 118.550781 C -3.050781 118.523438 -3.027344 118.5 -3 118.5 H -0.000000000000014211 C -0.0273438 118.5 -0.0507813 118.523438 -0.0507813 118.550781 V 112.550781 C -0.0507813 112.578125 -0.0273438 112.601562 -0.000000000000014211 112.601562 H -3 C -3.027344 112.601562 -3.050781 112.578125 -3.050781 112.550781 V 106.550781 C -3.050781 106.523438 -3.027344 106.5 -3 106.5 H -0.000000000000014211 C -0.0273438 106.5 -0.0507813 106.523438 -0.0507813 106.550781 V 100.550781 C -0.0507813 100.578125 -0.0273438 100.601562 -0.000000000000014211 100.601562 H -3 C -3.027344 100.601562 -3.050781 100.578125 -3.050781 100.550781 V 94.550781 C -3.050781 94.523438 -3.027344 94.5 -3 94.5 H -0.000000000000014211 C -0.0273438 94.5 -0.0507813 94.523438 -0.0507813 94.550781 V 88.550781 C -0.0507813 88.578125 -0.0273438 88.601562 -0.000000000000014211 88.601562 H -3 C -3.027344 88.601562 -3.050781 88.578125 -3.050781 88.550781 V 82.550781 C -3.050781 82.523438 -3.027344 82.5 -3 82.5 H -0.000000000000014211 C -0.0273438 82.5 -0.0507813 82.523438 -0.0507813 82.550781 V 76.550781 C -0.0507813 76.578125 -0.0273438 76.601562 -0.000000000000014211 76.601562 H -3 C -3.027344 76.601562 -3.050781 76.578125 -3.050781 76.550781 V 70.550781 C -3.050781 70.523438 -3.027344 70.5 -3 70.5 H -0.000000000000014211 C -0.0273438 70.5 -0.0507813 70.523438 -0.0507813 70.550781 V 64.550781 C -0.0507813 64.578125 -0.0273438 64.601562 -0.000000000000014211 64.601562 H -3 C -3.027344 64.601562 -3.050781 64.578125 -3.050781 64.550781 V 58.550781 C -3.050781 58.523438 -3.027344 58.5 -3 58.5 H -0.000000000000014211 C -0.0273438 58.5 -0.0507813 58.523438 -0.0507813 58.550781 V 52.550781 C -0.0507813 52.578125 -0.0273438 52.601562 -0.000000000000014211 52.601562 H -3 C -3.027344 52.601562 -3.050781 52.578125 -3.050781 52.550781 V 46.550781 C -3.050781 46.523438 -3.027344 46.5 -3 46.5 H -0.000000000000014211 C -0.0273438 46.5 -0.0507813 46.523438 -0.0507813 46.550781 V 40.550781 C -0.0507813 40.578125 -0.0273438 40.601562 -0.000000000000014211 40.601562 H -3 C -3.027344 40.601562 -3.050781 40.578125 -3.050781 40.550781 V 34.550781 C -3.050781 34.523438 -3.027344 34.5 -3 34.5 H -0.000000000000014211 C -0.0273438 34.5 -0.0507813 34.523438 -0.0507813 34.550781 L -0.0507812 28.550781 C -0.0507812 28.578125 -0.0273438 28.601562 0 28.601562 H -3 C -3.027344 28.601562 -3.050781 28.578125 -3.050781 28.550781 V 22.550781 C -3.050781 22.523438 -3.027344 22.5 -3 22.5 H 0 C -0.0273438 22.5 -0.0507812 22.523438 -0.0507812 22.550781 V 16.550781 C -0.0507812 16.578125 -0.0273438 16.601562 0 16.601562 H -3 C -3.027344 16.601562 -3.050781 16.578125 -3.050781 16.550781 V 10.550781 C -3.050781 10.523438 -3.027344 10.5 -3 10.5 H 0 C -0.0273438 10.5 -0.0507812 10.523438 -0.0507812 10.550781 V 0.0507812 C -0.0507812 0.0234375 -0.0273438 0 0 0 H 0 " style="fill:none;stroke-width:0.1;stroke-linecap:butt;stroke-linejoin:miter;stroke:rgb(0%,0%,0%);stroke-opacity:1;stroke-miterlimit:10;" transform="matrix(-1.0000,-0.0000,-0.0000,1.0000,115.8750,682.8984)"/>
<path d="M 0 -0.000000000000042633 C 1.140625 -0.000000000000042633 2.257812 -0.328125 3.21875 -0.945313 C 4.179688 -1.5625 4.941406 -2.441406 5.414062 -3.480469 C 5.886719 -4.519531 6.054688 -5.671875 5.890625 -6.800781 C 5.726562 -7.929688 5.246094 -8.988281 4.496094 -9.851563 C 3.75 -10.714844 2.769531 -11.34375 1.675781 -11.664063 C 0.582031 -11.984375 -0.582031 -11.984375 -1.675781 -11.664063 C -2.769531 -11.34375 -3.75 -10.714844 -4.496094 -9.851563 C -5.242188 -8.988281 -5.726562 -7.929688 -5.890625 -6.800781 C -6.054688 -5.671875 -5.886719 -4.519531 -5.414062 -3.480469 C -4.941406 -2.441406 -4.179688 -1.5625 -3.21875 -0.945313 C -2.257812 -0.328125 -1.144531 -0.000000000000042633 0 -0.000000000000042633 " style="fill:none;stroke-width:0.1;stroke-linecap:butt;stroke-linejoin:miter;stroke:rgb(0%,0%,100%);stroke-opacity:1;stroke-miterlimit:10;" transform="matrix(-0.0000,-1.0000,-1.0000,0.0000,112.9258,673.8984)"/>
<path d="M 0 0.00390625 C -0.0273438 0.00390625 -0.0507812 0.0234375 -0.0507812 0.0507812 V -4.4375 C -0.0507812 -4.410156 -0.0273438 -4.386719 0 -4.386719 H -3 C -2.972656 -4.386719 -2.949219 -4.410156 -2.949219 -4.4375 V 0.0507812 C -2.949219 0.0234375 -2.972656 0 -3 0 H 0 " style="fill:none;stroke-width:0.1;stroke-linecap:butt;stroke-linejoin:miter;stroke:rgb(0%,0%,100%);stroke-opacity:1;stroke-miterlimit:10;" transform="matrix(1.0000,-0.0000,-0.0000,-1.0000,118.8750,669.4609)"/>
<path d="M 94 138.101562 C 94.066406 138.101562 94.066406 138 94 138 H 97 C 98.789062 138 100.539062 138.53125 102.027344 139.523438 C 103.515625 140.519531 104.675781 141.929688 105.359375 143.585938 C 106.042969 145.238281 106.222656 147.058594 105.875 148.816406 C 105.527344 150.570312 104.664062 152.183594 103.398437 153.449219 C 102.132812 154.714844 100.519531 155.578125 98.765625 155.925781 C 97.011719 156.273438 95.191406 156.097656 93.535156 155.410156 C 91.882812 154.726562 90.46875 153.566406 89.472656 152.078125 C 88.476562 150.589844 87.949219 148.839844 87.949219 147.050781 C 87.949219 147.078125 87.972656 147.101562 88 147.101562 H -0.000000000000049738 C -0.0273438 147.101562 -0.0507813 147.078125 -0.0507813 147.050781 H -0.0507813 V 138.050781 C -0.0507813 138.078125 -0.0273438 138.101562 -0.000000000000046629 138.101562 H -3 C -3.027344 138.101562 -3.050781 138.078125 -3.050781 138.050781 V 132.050781 C -3.050781 132.023438 -3.027344 132 -3 132 H -0.000000000000044409 C -0.0273438 132 -0.0507813 132.023438 -0.0507813 132.050781 V 126.050781 C -0.0507813 126.078125 -0.0273438 126.101562 -0.000000000000042633 126.101562 H -3 C -3.027344 126.101562 -3.050781 126.078125 -3.050781 126.050781 V 120.050781 C -3.050781 120.023438 -3.027344 120 -3 120 H -0.000000000000040412 C -0.0273438 120 -0.0507813 120.023438 -0.0507813 120.050781 V 114.050781 C -0.0507813 114.078125 -0.0273438 114.101562 -0.000000000000038636 114.101562 H -3 C -3.027344 114.101562 -3.050781 114.078125 -3.050781 114.050781 V 108.050781 C -3.050781 108.023438 -3.027344 108 -3 108 H -0.000000000000036415 C -0.0273438 108 -0.0507813 108.023438 -0.0507813 108.050781 V 102.050781 C -0.0507813 102.078125 -0.0273438 102.101562 -0.000000000000034639 102.101562 H -3 C -3.027344 102.101562 -3.050781 102.078125 -3.050781 102.050781 V 96.050781 C -3.050781 96.023438 -3.027344 96 -3 96 H -0.000000000000032419 C -0.0273438 96 -0.0507813 96.023438 -0.0507813 96.050781 V 90.050781 C -0.0507813 90.078125 -0.0273438 90.101562 -0.000000000000030642 90.101562 H -3 C -3.027344 90.101562 -3.050781 90.078125 -3.050781 90.050781 V 84.050781 C -3.050781 84.023438 -3.027344 84 -3 84 H -0.000000000000028422 C -0.0273438 84 -0.0507813 84.023438 -0.0507813 84.050781 V 78.050781 C -0.0507813 78.078125 -0.0273438 78.101562 -0.000000000000026201 78.101562 H -3 C -3.027344 78.101562 -3.050781 78.078125 -3.050781 78.050781 V 72.050781 C -3.050781 72.023438 -3.027344 72 -3 72 H -0.000000000000024425 C -0.0273438 72 -0.0507813 72.023438 -0.0507813 72.050781 V 66.050781 C -0.0507813 66.078125 -0.0273438 66.101562 -0.000000000000022204 66.101562 H -3 C -3.027344 66.101562 -3.050781 66.078125 -3.050781 66.050781 V 60.050781 C -3.050781 60.023438 -3.027344 60 -3 60 H -0.000000000000020428 C -0.0273438 60 -0.0507813 60.023438 -0.0507813 60.050781 V 54.050781 C -0.0507813 54.078125 -0.0273438 54.101562 -0.000000000000018208 54.101562 H -3 C -3.027344 54.101562 -3.050781 54.078125 -3.050781 54.050781 V 48.050781 C -3.050781 48.023438 -3.027344 48 -3 48 H -0.000000000000015987 C -0.0273438 48 -0.0507813 48.023438 -0.0507813 48.050781 V 42.050781 C -0.0507813 42.078125 -0.0273438 42.101562 -0.000000000000014211 42.101562 H -3 C -3.027344 42.101562 -3.050781 42.078125 -3.050781 42.050781 V 36.050781 C -3.050781 36.023438 -3.027344 36 -3 36 H -0.00000000000001199 C -0.0273438 36 -0.0507813 36.023438 -0.0507813 36.050781 V 30.050781 C -0.0507813 30.078125 -0.0273438 30.101562 -0.000000000000010214 30.101562 H -3 C -3.027344 30.101562 -3.050781 30.078125 -3.050781 30.050781 V 24.050781 C -3.050781 24.023438 -3.027344 24 -3 24 H -0.000000000000007994 C -0.0273438 24 -0.0507813 24.023438 -0.0507813 24.050781 V 18.050781 C -0.0507813 18.078125 -0.0273438 18.101562 -0.000000000000006217 18.101562 H -3 C -3.027344 18.101562 -3.050781 18.078125 -3.050781 18.050781 V 12.050781 C -3.050781 12.023438 -3.027344 12 -3 12 H -0.000000000000003997 C -0.0273438 12 -0.0507813 12.023438 -0.0507813 12.050781 V 3.050781 L -0.0507812 0.0507812 C -0.0507812 0.0234375 -0.0273438 0 0 0 H 0 " style="fill:none;stroke-width:0.1;stroke-linecap:butt;stroke-linejoin:miter;stroke:rgb(0%,0%,0%);stroke-opacity:1;stroke-miterlimit:10;" transform="matrix(1.0000,0.0000,0.0000,-1.0000,21.8750,821.0000)"/>
<path d="M 0 -0.00390625 H 87.699219 C 87.726562 -0.00390625 87.75 0.0195312 87.75 0.046875 C 87.75 1.671875 88.175781 3.265625 88.988281 4.671875 C 89.800781 6.078125 90.96875 7.246094 92.375 8.058594 C 93.78125 8.871094 95.375 9.296875 97 9.296875 C 96.933594 9.296875 96.933594 9.398438 97 9.398438 H 94 C 94.066406 9.398438 94.066406 9.296875 94 9.296875 H 94 C 94.027344 9.296875 94.050781 9.320312 94.050781 9.347656 H 94.050781 V 20.699219 C 94.050781 20.671875 94.027344 20.648438 94 20.648438 H 97 C 97.027344 20.648438 97.050781 20.671875 97.050781 20.699219 V 26.699219 C 97.050781 26.726562 97.027344 26.75 97 26.75 H 94 C 94.027344 26.75 94.050781 26.726562 94.050781 26.699219 V 32.699219 C 94.050781 32.671875 94.027344 32.648438 94 32.648438 H 97 C 97.027344 32.648438 97.050781 32.671875 97.050781 32.699219 V 38.699219 C 97.050781 38.726562 97.027344 38.75 97 38.75 H 94 C 94.027344 38.75 94.050781 38.726562 94.050781 38.699219 V 50.050781 L 94.050781 53.050781 C 94.050781 53.078125 94.027344 53.101562 94 53.101562 H 94 L 86 53.101562 C 85.972656 53.101562 85.949219 53.078125 85.949219 53.050781 V 50.050781 C 85.949219 50.078125 85.972656 50.101562 86 50.101562 H 80 C 80.027344 50.101562 80.050781 50.078125 80.050781 50.050781 V 53.050781 C 80.050781 53.078125 80.027344 53.101562 80 53.101562 H 74 C 73.972656 53.101562 73.949219 53.078125 73.949219 53.050781 V 50.050781 C 73.949219 50.078125 73.972656 50.101562 74 50.101562 H 68 C 68.027344 50.101562 68.050781 50.078125 68.050781 50.050781 V 53.050781 C 68.050781 53.078125 68.027344 53.101562 68 53.101562 H 62 C 61.972656 53.101562 61.949219 53.078125 61.949219 53.050781 V 50.050781 C 61.949219 50.078125 61.972656 50.101562 62 50.101562 H 56 C 56.027344 50.101562 56.050781 50.078125 56.050781 50.050781 V 53.050781 C 56.050781 53.078125 56.027344 53.101562 56 53.101562 H 50 C 49.972656 53.101562 49.949219 53.078125 49.949219 53.050781 V 50.050781 C 49.949219 50.078125 49.972656 50.101562 50 50.101562 H 44 C 44.027344 50.101562 44.050781 50.078125 44.050781 50.050781 V 53.050781 C 44.050781 53.078125 44.027344 53.101562 44 53.101562 H 38 C 37.972656 53.101562 37.949219 53.078125 37.949219 53.050781 V 50.050781 C 37.949219 50.078125 37.972656 50.101562 38 50.101562 H 32 C 32.027344 50.101562 32.050781 50.078125 32.050781 50.050781 V 53.050781 C 32.050781 53.078125 32.027344 53.101562 32 53.101562 H 26 C 25.972656 53.101562 25.949219 53.078125 25.949219 53.050781 V 50.050781 C 25.949219 50.078125 25.972656 50.101562 26 50.101562 H 20 C 20.027344 50.101562 20.050781 50.078125 20.050781 50.050781 V 53.050781 C 20.050781 53.078125 20.027344 53.101562 20 53.101562 H 14 C 13.972656 53.101562 13.949219 53.078125 13.949219 53.050781 V 50.050781 C 13.949219 50.078125 13.972656 50.101562 14 50.101562 H 8 C 8.027344 50.101562 8.050781 50.078125 8.050781 50.050781 V 53.050781 C 8.050781 53.078125 8.027344 53.101562 8 53.101562 H 0.00000000000001199 C -0.0273437 53.101562 -0.0507812 53.078125 -0.0507812 53.050781 V 50.050781 L -0.0507812 40.050781 C -0.0507812 40.078125 -0.0273437 40.101562 0.000000000000008882 40.101562 H -3 C -3.027344 40.101562 -3.050781 40.078125 -3.050781 40.050781 V 34.050781 C -3.050781 34.023438 -3.027344 34 -3 34 H 0.00000000000000755 C -0.0273437 34 -0.0507812 34.023438 -0.0507812 34.050781 V 28.050781 C -0.0507812 28.078125 -0.0273437 28.101562 0.000000000000006217 28.101562 H -3 C -3.027344 28.101562 -3.050781 28.078125 -3.050781 28.050781 V 22.050781 C -3.050781 22.023438 -3.027344 22 -3 22 H 0.000000000000004885 C -0.0273437 22 -0.0507812 22.023438 -0.0507812 22.050781 V 16.050781 C -0.0507812 16.078125 -0.0273437 16.101562 0.000000000000003553 16.101562 H -3 C -3.027344 16.101562 -3.050781 16.078125 -3.050781 16.050781 V 10.050781 C -3.050781 10.023438 -3.027344 10 -3 10 H 0.00000000000000222 C -0.0273437 10 -0.0507812 10.023438 -0.0507812 10.050781 V 0.0507812 C -0.0507812 0.0234375 -0.0273438 0 0 0 H 0 " style="fill:none;stroke-width:0.1;stroke-linecap:butt;stroke-linejoin:miter;stroke:rgb(0%,0%,0%);stroke-opacity:1;stroke-miterlimit:10;" transform="matrix(1.0000,-0.0000,-0.0000,-1.0000,21.8750,672.3945)"/>
<path d="M 0 0 H 8 C 8.027344 0 8.050781 0.0234375 8.050781 0.0507812 V 3.050781 C 8.050781 3.023438 8.027344 3 8 3 H 14 C 13.972656 3 13.949219 3.023438 13.949219 3.050781 V 0.0507812 C 13.949219 0.0234375 13.972656 0 14 0 H 20 C 20.027344 0 20.050781 0.0234375 20.050781 0.0507812 V 3.050781 C 20.050781 3.023438 20.027344 3 20 3 H 26 C 25.972656 3 25.949219 3.023438 25.949219 3.050781 V 0.0507812 C 25.949219 0.0234375 25.972656 0 26 0 H 32 C 32.027344 0 32.050781 0.0234375 32.050781 0.0507812 V 3.050781 C 32.050781 3.023438 32.027344 3 32 3 H 38 C 37.972656 3 37.949219 3.023438 37.949219 3.050781 V 0.0507812 C 37.949219 0.0234375 37.972656 0 38 0 H 44 C 44.027344 0 44.050781 0.0234375 44.050781 0.0507812 V 3.050781 C 44.050781 3.023438 44.027344 3 44 3 H 50 C 49.972656 3 49.949219 3.023438 49.949219 3.050781 V 0.0507812 C 49.949219 0.0234375 49.972656 0 50 0 H 56 C 56.027344 0 56.050781 0.0234375 56.050781 0.0507812 V 3.050781 C 56.050781 3.023438 56.027344 3 56 3 H 62 C 61.972656 3 61.949219 3.023438 61.949219 3.050781 V 0.0507812 C 61.949219 0.0234375 61.972656 0 62 0 H 68 C 68.027344 0 68.050781 0.0234375 68.050781 0.0507812 V 3.050781 C 68.050781 3.023438 68.027344 3 68 3 H 74 C 73.972656 3 73.949219 3.023438 73.949219 3.050781 V 0.0507812 C 73.949219 0.0234375 73.972656 0 74 0 H 80 C 80.027344 0 80.050781 0.0234375 80.050781 0.0507812 V 3.050781 C 80.050781 3.023438 80.027344 3 80 3 H 86 C 85.972656 3 85.949219 3.023438 85.949219 3.050781 V 0.0507812 C 85.949219 0.0234375 85.972656 0 86 0 H 94 L 97 0 C 97.027344 0 97.050781 0.0234375 97.050781 0.0507812 V 3.050781 L 97.050781 12.050781 C 97.050781 12.078125 97.027344 12.101562 97 12.101562 H 94 C 94.027344 12.101562 94.050781 12.078125 94.050781 12.050781 V 18.050781 C 94.050781 18.023438 94.027344 18 94 18 H 97 C 97.027344 18 97.050781 18.023438 97.050781 18.050781 V 24.050781 C 97.050781 24.078125 97.027344 24.101562 97 24.101562 H 94 C 94.027344 24.101562 94.050781 24.078125 94.050781 24.050781 V 30.050781 C 94.050781 30.023438 94.027344 30 94 30 H 97 C 97.027344 30 97.050781 30.023438 97.050781 30.050781 V 36.050781 C 97.050781 36.078125 97.027344 36.101562 97 36.101562 H 94 C 94.027344 36.101562 94.050781 36.078125 94.050781 36.050781 V 42.050781 C 94.050781 42.023438 94.027344 42 94 42 H 97 C 97.027344 42 97.050781 42.023438 97.050781 42.050781 V 48.050781 C 97.050781 48.078125 97.027344 48.101562 97 48.101562 H 94 C 94.027344 48.101562 94.050781 48.078125 94.050781 48.050781 V 54.050781 C 94.050781 54.023438 94.027344 54 94 54 H 97 C 97.027344 54 97.050781 54.023438 97.050781 54.050781 V 60.050781 C 97.050781 60.078125 97.027344 60.101562 97 60.101562 H 94 C 94.027344 60.101562 94.050781 60.078125 94.050781 60.050781 V 66.050781 C 94.050781 66.023438 94.027344 66 94 66 H 97 C 97.027344 66 97.050781 66.023438 97.050781 66.050781 V 72.050781 C 97.050781 72.078125 97.027344 72.101562 97 72.101562 H 94 C 94.027344 72.101562 94.050781 72.078125 94.050781 72.050781 V 78.050781 C 94.050781 78.023438 94.027344 78 94 78 H 97 C 97.027344 78 97.050781 78.023438 97.050781 78.050781 V 84.050781 C 97.050781 84.078125 97.027344 84.101562 97 84.101562 H 94 C 94.027344 84.101562 94.050781 84.078125 94.050781 84.050781 V 90.050781 C 94.050781 90.023438 94.027344 90 94 90 H 97 C 97.027344 90 97.050781 90.023438 97.050781 90.050781 V 96.050781 C 97.050781 96.078125 97.027344 96.101562 97 96.101562 H 94 C 94.027344 96.101562 94.050781 96.078125 94.050781 96.050781 V 102.050781 C 94.050781 102.023438 94.027344 102 94 102 H 97 C 97.027344 102 97.050781 102.023438 97.050781 102.050781 V 108.050781 C 97.050781 108.078125 97.027344 108.101562 97 108.101562 H 94 C 94.027344 108.101562 94.050781 108.078125 94.050781 108.050781 V 114.050781 C 94.050781 114.023438 94.027344 114 94 114 H 97 C 97.027344 114 97.050781 114.023438 97.050781 114.050781 V 120.050781 C 97.050781 120.078125 97.027344 120.101562 97 120.101562 H 94 C 94.027344 120.101562 94.050781 120.078125 94.050781 120.050781 V 126.050781 C 94.050781 126.023438 94.027344 126 94 126 H 97 C 97.027344 126 97.050781 126.023438 97.050781 126.050781 V 132.050781 C 97.050781 132.078125 97.027344 132.101562 97 132.101562 H 94 C 94.027344 132.101562 94.050781 132.078125 94.050781 132.050781 V 138.050781 C 94.050781 138.023438 94.027344 138 94 138 H 97 C 97.027344 138 97.050781 138.023438 97.050781 138.050781 V 147.050781 C 97.050781 147.078125 97.027344 147.101562 97 147.101562 H 94 L -0.000000000000035971 147.101562 H -3 C -3.027344 147.101562 -3.050781 147.078125 -3.050781 147.050781 H -3.050781 V 138.050781 C -3.050781 138.023438 -3.027344 138 -3 138 H -0.000000000000033751 C -0.0273438 138 -0.0507813 138.023438 -0.0507813 138.050781 V 132.050781 C -0.0507813 132.078125 -0.0273438 132.101562 -0.000000000000032419 132.101562 H -3 C -3.027344 132.101562 -3.050781 132.078125 -3.050781 132.050781 V 126.050781 C -3.050781 126.023438 -3.027344 126 -3 126 H -0.000000000000031086 C -0.0273438 126 -0.0507813 126.023438 -0.0507813 126.050781 V 120.050781 C -0.0507813 120.078125 -0.0273438 120.101562 -0.000000000000029754 120.101562 H -3 C -3.027344 120.101562 -3.050781 120.078125 -3.050781 120.050781 V 114.050781 C -3.050781 114.023438 -3.027344 114 -3 114 H -0.000000000000027978 C -0.0273438 114 -0.0507813 114.023438 -0.0507813 114.050781 V 108.050781 C -0.0507813 108.078125 -0.0273438 108.101562 -0.000000000000026645 108.101562 H -3 C -3.027344 108.101562 -3.050781 108.078125 -3.050781 108.050781 V 102.050781 C -3.050781 102.023438 -3.027344 102 -3 102 H -0.000000000000025313 C -0.0273438 102 -0.0507813 102.023438 -0.0507813 102.050781 V 96.050781 C -0.0507813 96.078125 -0.0273438 96.101562 -0.000000000000023537 96.101562 H -3 C -3.027344 96.101562 -3.050781 96.078125 -3.050781 96.050781 V 90.050781 C -3.050781 90.023438 -3.027344 90 -3 90 H -0.000000000000022204 C -0.0273438 90 -0.0507813 90.023438 -0.0507813 90.050781 V 84.050781 C -0.0507813 84.078125 -0.0273438 84.101562 -0.000000000000020872 84.101562 H -3 C -3.027344 84.101562 -3.050781 84.078125 -3.050781 84.050781 V 78.050781 C -3.050781 78.023438 -3.027344 78 -3 78 H -0.000000000000019096 C -0.0273438 78 -0.0507813 78.023438 -0.0507813 78.050781 V 72.050781 C -0.0507813 72.078125 -0.0273438 72.101562 -0.000000000000017764 72.101562 H -3 C -3.027344 72.101562 -3.050781 72.078125 -3.050781 72.050781 V 66.050781 C -3.050781 66.023438 -3.027344 66 -3 66 H -0.000000000000016431 C -0.0273438 66 -0.0507813 66.023438 -0.0507813 66.050781 V 60.050781 C -0.0507813 60.078125 -0.0273438 60.101562 -0.000000000000014655 60.101562 H -3 C -3.027344 60.101562 -3.050781 60.078125 -3.050781 60.050781 V 54.050781 C -3.050781 54.023438 -3.027344 54 -3 54 H -0.000000000000013323 C -0.0273438 54 -0.0507813 54.023438 -0.0507813 54.050781 V 48.050781 C -0.0507813 48.078125 -0.0273438 48.101562 -0.00000000000001199 48.101562 H -3 C -3.027344 48.101562 -3.050781 48.078125 -3.050781 48.050781 V 42.050781 C -3.050781 42.023438 -3.027344 42 -3 42 H -0.000000000000010214 C -0.0273438 42 -0.0507813 42.023438 -0.0507813 42.050781 V 36.050781 C -0.0507813 36.078125 -0.0273438 36.101562 -0.000000000000008882 36.101562 H -3 C -3.027344 36.101562 -3.050781 36.078125 -3.050781 36.050781 V 30.050781 C -3.050781 30.023438 -3.027344 30 -3 30 H -0.00000000000000755 C -0.0273438 30 -0.0507813 30.023438 -0.0507813 30.050781 V 24.050781 C -0.0507813 24.078125 -0.0273438 24.101562 -0.000000000000006217 24.101562 H -3 C -3.027344 24.101562 -3.050781 24.078125 -3.050781 24.050781 V 18.050781 C -3.050781 18.023438 -3.027344 18 -3 18 H -0.000000000000004441 C -0.0273438 18 -0.0507813 18.023438 -0.0507813 18.050781 V 12.050781 C -0.0507813 12.078125 -0.0273438 12.101562 -0.000000000000003109 12.101562 H -3 C -3.027344 12.101562 -3.050781 12.078125 -3.050781 12.050781 V 3.050781 L -3.050781 0.0507812 C -3.050781 0.0234375 -3.027344 0 -3 0 H 0 " style="fill:none;stroke-width:0.1;stroke-linecap:butt;stroke-linejoin:miter;stroke:rgb(0%,0%,0%);stroke-opacity:1;stroke-miterlimit:10;" transform="matrix(1.0000,0.0000,0.0000,-1.0000,21.8750,617.8008)"/>
<path d="M 0 0 H 8 C 8.027344 0 8.050781 0.0234375 8.050781 0.0507812 V 3.050781 C 8.050781 3.023438 8.027344 3 8 3 H 14 C 13.972656 3 13.949219 3.023438 13.949219 3.050781 V 0.0507812 C 13.949219 0.0234375 13.972656 0 14 0 H 20 C 20.027344 0 20.050781 0.0234375 20.050781 0.0507812 V 3.050781 C 20.050781 3.023438 20.027344 3 20 3 H 26 C 25.972656 3 25.949219 3.023438 25.949219 3.050781 V 0.0507812 C 25.949219 0.0234375 25.972656 0 26 0 H 32 C 32.027344 0 32.050781 0.0234375 32.050781 0.0507812 V 3.050781 C 32.050781 3.023438 32.027344 3 32 3 H 38 C 37.972656 3 37.949219 3.023438 37.949219 3.050781 V 0.0507812 C 37.949219 0.0234375 37.972656 0 38 0 H 44 C 44.027344 0 44.050781 0.0234375 44.050781 0.0507812 V 3.050781 C 44.050781 3.023438 44.027344 3 44 3 H 50 C 49.972656 3 49.949219 3.023438 49.949219 3.050781 V 0.0507812 C 49.949219 0.0234375 49.972656 0 50 0 H 56 C 56.027344 0 56.050781 0.0234375 56.050781 0.0507812 V 3.050781 C 56.050781 3.023438 56.027344 3 56 3 H 62 C 61.972656 3 61.949219 3.023438 61.949219 3.050781 V 0.0507812 C 61.949219 0.0234375 61.972656 0 62 0 H 68 C 68.027344 0 68.050781 0.0234375 68.050781 0.0507812 V 3.050781 C 68.050781 3.023438 68.027344 3 68 3 H 74 C 73.972656 3 73.949219 3.023438 73.949219 3.050781 V 0.0507812 C 73.949219 0.0234375 73.972656 0 74 0 H 80 C 80.027344 0 80.050781 0.0234375 80.050781 0.0507812 V 3.050781 C 80.050781 3.023438 80.027344 3 80 3 H 86 C 85.972656 3 85.949219 3.023438 85.949219 3.050781 V 0.0507812 C 85.949219 0.0234375 85.972656 0 86 0 H 94 L 97 0 C 97.027344 0 97.050781 0.0234375 97.050781 0.0507812 V 3.050781 L 97.050781 13.550781 C 97.050781 13.578125 97.027344 13.601562 97 13.601562 H 94 C 94.027344 13.601562 94.050781 13.578125 94.050781 13.550781 V 19.550781 C 94.050781 19.523438 94.027344 19.5 94 19.5 H 97 C 97.027344 19.5 97.050781 19.523438 97.050781 19.550781 V 25.550781 C 97.050781 25.578125 97.027344 25.601562 97 25.601562 H 94 C 94.027344 25.601562 94.050781 25.578125 94.050781 25.550781 V 31.550781 C 94.050781 31.523438 94.027344 31.5 94 31.5 H 97 C 97.027344 31.5 97.050781 31.523438 97.050781 31.550781 V 37.550781 C 97.050781 37.578125 97.027344 37.601562 97 37.601562 H 94 C 94.027344 37.601562 94.050781 37.578125 94.050781 37.550781 V 43.550781 C 94.050781 43.523438 94.027344 43.5 94 43.5 H 97 C 97.027344 43.5 97.050781 43.523438 97.050781 43.550781 V 49.550781 C 97.050781 49.578125 97.027344 49.601562 97 49.601562 H 94 C 94.027344 49.601562 94.050781 49.578125 94.050781 49.550781 V 55.550781 C 94.050781 55.523438 94.027344 55.5 94 55.5 H 97 C 97.027344 55.5 97.050781 55.523438 97.050781 55.550781 V 61.550781 C 97.050781 61.578125 97.027344 61.601562 97 61.601562 H 94 C 94.027344 61.601562 94.050781 61.578125 94.050781 61.550781 V 67.550781 C 94.050781 67.523438 94.027344 67.5 94 67.5 H 97 C 97.027344 67.5 97.050781 67.523438 97.050781 67.550781 V 73.550781 C 97.050781 73.578125 97.027344 73.601562 97 73.601562 H 94 C 94.027344 73.601562 94.050781 73.578125 94.050781 73.550781 V 79.550781 C 94.050781 79.523438 94.027344 79.5 94 79.5 H 97 C 97.027344 79.5 97.050781 79.523438 97.050781 79.550781 V 85.550781 C 97.050781 85.578125 97.027344 85.601562 97 85.601562 H 94 C 94.027344 85.601562 94.050781 85.578125 94.050781 85.550781 V 91.550781 C 94.050781 91.523438 94.027344 91.5 94 91.5 H 97 C 97.027344 91.5 97.050781 91.523438 97.050781 91.550781 V 97.550781 C 97.050781 97.578125 97.027344 97.601562 97 97.601562 H 94 C 94.027344 97.601562 94.050781 97.578125 94.050781 97.550781 V 103.550781 C 94.050781 103.523438 94.027344 103.5 94 103.5 H 97 C 97.027344 103.5 97.050781 103.523438 97.050781 103.550781 V 109.550781 C 97.050781 109.578125 97.027344 109.601562 97 109.601562 H 94 C 94.027344 109.601562 94.050781 109.578125 94.050781 109.550781 V 115.550781 C 94.050781 115.523438 94.027344 115.5 94 115.5 H 97 C 97.027344 115.5 97.050781 115.523438 97.050781 115.550781 V 121.550781 C 97.050781 121.578125 97.027344 121.601562 97 121.601562 H 94 C 94.027344 121.601562 94.050781 121.578125 94.050781 121.550781 V 127.550781 C 94.050781 127.523438 94.027344 127.5 94 127.5 H 97 C 97.027344 127.5 97.050781 127.523438 97.050781 127.550781 V 138.050781 C 97.050781 138.078125 97.027344 138.101562 97 138.101562 H 94 C 94.027344 138.101562 94.050781 138.078125 94.050781 138.050781 V 147.050781 C 94.050781 147.078125 94.027344 147.101562 94 147.101562 H 94 L -0.000000000000035971 147.101562 C -0.0273438 147.101562 -0.0507813 147.078125 -0.0507813 147.050781 H -0.0507813 V 138.050781 C -0.0507813 138.078125 -0.0273438 138.101562 -0.000000000000033751 138.101562 H -3 C -3.027344 138.101562 -3.050781 138.078125 -3.050781 138.050781 V 127.550781 C -3.050781 127.523438 -3.027344 127.5 -3 127.5 H -0.00000000000003153 C -0.0273438 127.5 -0.0507813 127.523438 -0.0507813 127.550781 V 121.550781 C -0.0507813 121.578125 -0.0273438 121.601562 -0.000000000000029754 121.601562 H -3 C -3.027344 121.601562 -3.050781 121.578125 -3.050781 121.550781 V 115.550781 C -3.050781 115.523438 -3.027344 115.5 -3 115.5 H -0.000000000000028422 C -0.0273438 115.5 -0.0507813 115.523438 -0.0507813 115.550781 V 109.550781 C -0.0507813 109.578125 -0.0273438 109.601562 -0.000000000000027089 109.601562 H -3 C -3.027344 109.601562 -3.050781 109.578125 -3.050781 109.550781 V 103.550781 C -3.050781 103.523438 -3.027344 103.5 -3 103.5 H -0.000000000000025313 C -0.0273438 103.5 -0.0507813 103.523438 -0.0507813 103.550781 V 97.550781 C -0.0507813 97.578125 -0.0273438 97.601562 -0.000000000000023981 97.601562 H -3 C -3.027344 97.601562 -3.050781 97.578125 -3.050781 97.550781 V 91.550781 C -3.050781 91.523438 -3.027344 91.5 -3 91.5 H -0.000000000000022649 C -0.0273438 91.5 -0.0507813 91.523438 -0.0507813 91.550781 V 85.550781 C -0.0507813 85.578125 -0.0273438 85.601562 -0.000000000000020872 85.601562 H -3 C -3.027344 85.601562 -3.050781 85.578125 -3.050781 85.550781 V 79.550781 C -3.050781 79.523438 -3.027344 79.5 -3 79.5 H -0.00000000000001954 C -0.0273438 79.5 -0.0507813 79.523438 -0.0507813 79.550781 V 73.550781 C -0.0507813 73.578125 -0.0273438 73.601562 -0.000000000000018208 73.601562 H -3 C -3.027344 73.601562 -3.050781 73.578125 -3.050781 73.550781 V 67.550781 C -3.050781 67.523438 -3.027344 67.5 -3 67.5 H -0.000000000000016431 C -0.0273438 67.5 -0.0507813 67.523438 -0.0507813 67.550781 V 61.550781 C -0.0507813 61.578125 -0.0273438 61.601562 -0.000000000000015099 61.601562 H -3 C -3.027344 61.601562 -3.050781 61.578125 -3.050781 61.550781 V 55.550781 C -3.050781 55.523438 -3.027344 55.5 -3 55.5 H -0.000000000000013767 C -0.0273438 55.5 -0.0507813 55.523438 -0.0507813 55.550781 V 49.550781 C -0.0507813 49.578125 -0.0273438 49.601562 -0.000000000000012434 49.601562 H -3 C -3.027344 49.601562 -3.050781 49.578125 -3.050781 49.550781 V 43.550781 C -3.050781 43.523438 -3.027344 43.5 -3 43.5 H -0.000000000000010658 C -0.0273438 43.5 -0.0507813 43.523438 -0.0507813 43.550781 V 37.550781 C -0.0507813 37.578125 -0.0273438 37.601562 -0.000000000000009326 37.601562 H -3 C -3.027344 37.601562 -3.050781 37.578125 -3.050781 37.550781 V 31.550781 C -3.050781 31.523438 -3.027344 31.5 -3 31.5 H -0.000000000000007994 C -0.0273438 31.5 -0.0507813 31.523438 -0.0507813 31.550781 V 25.550781 C -0.0507813 25.578125 -0.0273438 25.601562 -0.000000000000006217 25.601562 H -3 C -3.027344 25.601562 -3.050781 25.578125 -3.050781 25.550781 V 19.550781 C -3.050781 19.523438 -3.027344 19.5 -3 19.5 H -0.000000000000004885 C -0.0273438 19.5 -0.0507813 19.523438 -0.0507813 19.550781 V 13.550781 C -0.0507813 13.578125 -0.0273438 13.601562 -0.000000000000003553 13.601562 H -3 C -3.027344 13.601562 -3.050781 13.578125 -3.050781 13.550781 V 3.050781 L -3.050781 0.0507812 C -3.050781 0.0234375 -3.027344 0 -3 0 H 0 " style="fill:none;stroke-width:0.1;stroke-linecap:butt;stroke-linejoin:miter;stroke:rgb(0%,0%,0%);stroke-opacity:1;stroke-miterlimit:10;" transform="matrix(1.0000,0.0000,0.0000,-1.0000,21.8750,469.1992)"/>
<path d="M 0 0 H 8 C 8.027344 0 8.050781 0.0234375 8.050781 0.0507812 V 3.050781 C 8.050781 3.023438 8.027344 3 8 3 H 14 C 13.972656 3 13.949219 3.023438 13.949219 3.050781 V 0.0507812 C 13.949219 0.0234375 13.972656 0 14 0 H 20 C 20.027344 0 20.050781 0.0234375 20.050781 0.0507812 V 3.050781 C 20.050781 3.023438 20.027344 3 20 3 H 26 C 25.972656 3 25.949219 3.023438 25.949219 3.050781 V 0.0507812 C 25.949219 0.0234375 25.972656 0 26 0 H 32 C 32.027344 0 32.050781 0.0234375 32.050781 0.0507812 V 3.050781 C 32.050781 3.023438 32.027344 3 32 3 H 38 C 37.972656 3 37.949219 3.023438 37.949219 3.050781 V 0.0507812 C 37.949219 0.0234375 37.972656 0 38 0 H 44 C 44.027344 0 44.050781 0.0234375 44.050781 0.0507812 V 3.050781 C 44.050781 3.023438 44.027344 3 44 3 H 50 C 49.972656 3 49.949219 3.023438 49.949219 3.050781 V 0.0507812 C 49.949219 0.0234375 49.972656 0 50 0 H 56 C 56.027344 0 56.050781 0.0234375 56.050781 0.0507812 V 3.050781 C 56.050781 3.023438 56.027344 3 56 3 H 62 C 61.972656 3 61.949219 3.023438 61.949219 3.050781 V 0.0507812 C 61.949219 0.0234375 61.972656 0 62 0 H 68 C 68.027344 0 68.050781 0.0234375 68.050781 0.0507812 V 3.050781 C 68.050781 3.023438 68.027344 3 68 3 H 74 C 73.972656 3 73.949219 3.023438 73.949219 3.050781 V 0.0507812 C 73.949219 0.0234375 73.972656 0 74 0 H 80 C 80.027344 0 80.050781 0.0234375 80.050781 0.0507812 V 3.050781 C 80.050781 3.023438 80.027344 3 80 3 H 86 C 85.972656 3 85.949219 3.023438 85.949219 3.050781 V 0.0507812 C 85.949219 0.0234375 85.972656 0 86 0 H 94 L 97 0 C 97.027344 0 97.050781 0.0234375 97.050781 0.0507812 V 3.050781 L 97.050781 13.050781 C 97.050781 13.078125 97.027344 13.101562 97 13.101562 H 94 C 94.027344 13.101562 94.050781 13.078125 94.050781 13.050781 V 19.050781 C 94.050781 19.023438 94.027344 19 94 19 H 97 C 97.027344 19 97.050781 19.023438 97.050781 19.050781 V 25.050781 C 97.050781 25.078125 97.027344 25.101562 97 25.101562 H 94 C 94.027344 25.101562 94.050781 25.078125 94.050781 25.050781 V 31.050781 C 94.050781 31.023438 94.027344 31 94 31 H 97 C 97.027344 31 97.050781 31.023438 97.050781 31.050781 V 37.050781 C 97.050781 37.078125 97.027344 37.101562 97 37.101562 H 94 C 94.027344 37.101562 94.050781 37.078125 94.050781 37.050781 V 43.050781 C 94.050781 43.023438 94.027344 43 94 43 H 97 C 97.027344 43 97.050781 43.023438 97.050781 43.050781 V 53.050781 C 97.050781 53.078125 97.027344 53.101562 97 53.101562 H 94 L -0.000000000000012879 53.101562 H -3 C -3.027344 53.101562 -3.050781 53.078125 -3.050781 53.050781 H -3.050781 V 43.050781 C -3.050781 43.023438 -3.027344 43 -3 43 H -0.000000000000010658 C -0.0273438 43 -0.0507813 43.023438 -0.0507813 43.050781 V 37.050781 C -0.0507813 37.078125 -0.0273438 37.101562 -0.000000000000009326 37.101562 H -3 C -3.027344 37.101562 -3.050781 37.078125 -3.050781 37.050781 V 31.050781 C -3.050781 31.023438 -3.027344 31 -3 31 H -0.00000000000000755 C -0.0273438 31 -0.0507813 31.023438 -0.0507813 31.050781 V 25.050781 C -0.0507813 25.078125 -0.0273438 25.101562 -0.000000000000006217 25.101562 H -3 C -3.027344 25.101562 -3.050781 25.078125 -3.050781 25.050781 V 19.050781 C -3.050781 19.023438 -3.027344 19 -3 19 H -0.000000000000004885 C -0.0273438 19 -0.0507813 19.023438 -0.0507813 19.050781 V 13.050781 C -0.0507813 13.078125 -0.0273438 13.101562 -0.000000000000003109 13.101562 H -3 C -3.027344 13.101562 -3.050781 13.078125 -3.050781 13.050781 V 3.050781 L -3.050781 0.0507812 C -3.050781 0.0234375 -3.027344 0 -3 0 H 0 " style="fill:none;stroke-width:0.1;stroke-linecap:butt;stroke-linejoin:miter;stroke:rgb(0%,0%,0%);stroke-opacity:1;stroke-miterlimit:10;" transform="matrix(1.0000,0.0000,0.0000,-1.0000,21.8750,320.6016)"/>
<path d="M 0 0 H 8 C 8.027344 0 8.050781 0.0234375 8.050781 0.0507812 V 3.050781 C 8.050781 3.023438 8.027344 3 8 3 H 14 C 13.972656 3 13.949219 3.023438 13.949219 3.050781 V 0.0507812 C 13.949219 0.0234375 13.972656 0 14 0 H 20 C 20.027344 0 20.050781 0.0234375 20.050781 0.0507812 V 3.050781 C 20.050781 3.023438 20.027344 3 20 3 H 26 C 25.972656 3 25.949219 3.023438 25.949219 3.050781 V 0.0507812 C 25.949219 0.0234375 25.972656 0 26 0 H 32 C 32.027344 0 32.050781 0.0234375 32.050781 0.0507812 V 3.050781 C 32.050781 3.023438 32.027344 3 32 3 H 38 C 37.972656 3 37.949219 3.023438 37.949219 3.050781 V 0.0507812 C 37.949219 0.0234375 37.972656 0 38 0 H 44 C 44.027344 0 44.050781 0.0234375 44.050781 0.0507812 V 3.050781 C 44.050781 3.023438 44.027344 3 44 3 H 50 C 49.972656 3 49.949219 3.023438 49.949219 3.050781 V 0.0507812 C 49.949219 0.0234375 49.972656 0 50 0 H 56 C 56.027344 0 56.050781 0.0234375 56.050781 0.0507812 V 3.050781 C 56.050781 3.023438 56.027344 3 56 3 H 62 C 61.972656 3 61.949219 3.023438 61.949219 3.050781 V 0.0507812 C 61.949219 0.0234375 61.972656 0 62 0 H 68 C 68.027344 0 68.050781 0.0234375 68.050781 0.0507812 V 3.050781 C 68.050781 3.023438 68.027344 3 68 3 H 74 C 73.972656 3 73.949219 3.023438 73.949219 3.050781 V 0.0507812 C 73.949219 0.0234375 73.972656 0 74 0 H 80 C 80.027344 0 80.050781 0.0234375 80.050781 0.0507812 V 3.050781 C 80.050781 3.023438 80.027344 3 80 3 H 86 C 85.972656 3 85.949219 3.023438 85.949219 3.050781 V 0.0507812 C 85.949219 0.0234375 85.972656 0 86 0 H 94 L 97 0 C 97.027344 0 97.050781 0.0234375 97.050781 0.0507812 V 3.050781 L 97.050781 14.402344 C 97.050781 14.429688 97.027344 14.453125 97 14.453125 H 94 C 94.027344 14.453125 94.050781 14.429688 94.050781 14.402344 V 20.402344 C 94.050781 20.375 94.027344 20.351562 94 20.351562 H 97 C 97.027344 20.351562 97.050781 20.375 97.050781 20.402344 V 26.402344 C 97.050781 26.429688 97.027344 26.453125 97 26.453125 H 94 C 94.027344 26.453125 94.050781 26.429688 94.050781 26.402344 V 32.402344 C 94.050781 32.375 94.027344 32.351562 94 32.351562 H 97 C 97.027344 32.351562 97.050781 32.375 97.050781 32.402344 V 43.753906 C 97.050781 43.78125 97.027344 43.804688 97 43.804688 H 94 C 94.027344 43.804688 94.050781 43.78125 94.050781 43.753906 V 48.265625 C 94.050781 48.238281 94.027344 48.214844 94 48.214844 H 97 C 97.027344 48.214844 97.050781 48.238281 97.050781 48.265625 V 52.753906 C 97.050781 52.78125 97.027344 52.804688 97 52.804688 H -3 C -3.027344 52.804688 -3.050781 52.78125 -3.050781 52.753906 V 48.265625 C -3.050781 48.238281 -3.027344 48.214844 -3 48.214844 H -0.00000000000001199 C -0.0273438 48.214844 -0.0507813 48.238281 -0.0507813 48.265625 V 43.753906 C -0.0507813 43.78125 -0.0273438 43.804688 -0.000000000000010658 43.804688 H -0.000000000000010658 L -3 43.804688 C -3.027344 43.804688 -3.050781 43.78125 -3.050781 43.753906 H -3.050781 V 32.402344 C -3.050781 32.375 -3.027344 32.351562 -3 32.351562 H -0.000000000000007994 C -0.0273438 32.351562 -0.0507813 32.375 -0.0507813 32.402344 V 26.402344 C -0.0507813 26.429688 -0.0273438 26.453125 -0.000000000000006661 26.453125 H -3 C -3.027344 26.453125 -3.050781 26.429688 -3.050781 26.402344 V 20.402344 C -3.050781 20.375 -3.027344 20.351562 -3 20.351562 H -0.000000000000005329 C -0.0273438 20.351562 -0.0507813 20.375 -0.0507813 20.402344 V 14.402344 C -0.0507813 14.429688 -0.0273438 14.453125 -0.000000000000003553 14.453125 H -3 C -3.027344 14.453125 -3.050781 14.429688 -3.050781 14.402344 V 3.050781 L -3.050781 0.0507812 C -3.050781 0.0234375 -3.027344 0 -3 0 H 0 " style="fill:none;stroke-width:0.1;stroke-linecap:butt;stroke-linejoin:miter;stroke:rgb(0%,0%,0%);stroke-opacity:1;stroke-miterlimit:10;" transform="matrix(1.0000,0.0000,0.0000,-1.0000,21.8750,266.0000)"/>
<path d="M 0 0 H 8 C 7.972656 0 7.949219 0.0234375 7.949219 0.0507812 V -2.949219 C 7.949219 -2.976562 7.972656 -3 8 -3 H 14 C 14.027344 -3 14.050781 -2.976562 14.050781 -2.949219 V 0.0507812 C 14.050781 0.0234375 14.027344 0 14 0 H 20 C 19.972656 0 19.949219 0.0234375 19.949219 0.0507812 V -2.949219 C 19.949219 -2.976562 19.972656 -3 20 -3 H 26 C 26.027344 -3 26.050781 -2.976562 26.050781 -2.949219 V 0.0507812 C 26.050781 0.0234375 26.027344 0 26 0 H 32 C 31.972656 0 31.949219 0.0234375 31.949219 0.0507812 V -2.949219 C 31.949219 -2.976562 31.972656 -3 32 -3 H 38 C 38.027344 -3 38.050781 -2.976562 38.050781 -2.949219 V 0.0507812 C 38.050781 0.0234375 38.027344 0 38 0 H 44 C 43.972656 0 43.949219 0.0234375 43.949219 0.0507812 V -2.949219 C 43.949219 -2.976562 43.972656 -3 44 -3 H 50 C 50.027344 -3 50.050781 -2.976562 50.050781 -2.949219 V 0.0507812 C 50.050781 0.0234375 50.027344 0 50 0 H 56 C 55.972656 0 55.949219 0.0234375 55.949219 0.0507812 V -2.949219 C 55.949219 -2.976562 55.972656 -3 56 -3 H 62 C 62.027344 -3 62.050781 -2.976562 62.050781 -2.949219 V 0.0507812 C 62.050781 0.0234375 62.027344 0 62 0 H 68 C 67.972656 0 67.949219 0.0234375 67.949219 0.0507812 V -2.949219 C 67.949219 -2.976562 67.972656 -3 68 -3 H 74 C 74.027344 -3 74.050781 -2.976562 74.050781 -2.949219 V 0.0507812 C 74.050781 0.0234375 74.027344 0 74 0 H 80 C 79.972656 0 79.949219 0.0234375 79.949219 0.0507812 V -2.949219 C 79.949219 -2.976562 79.972656 -3 80 -3 H 86 C 86.027344 -3 86.050781 -2.976562 86.050781 -2.949219 V 0.0507812 C 86.050781 0.0234375 86.027344 0 86 0 H 94 C 94.027344 0 94.050781 0.0234375 94.050781 0.0507812 H 94.050781 V 8.050781 C 94.050781 8.023438 94.027344 8 94 8 H 97 C 97.027344 8 97.050781 8.023438 97.050781 8.050781 V 14.050781 C 97.050781 14.078125 97.027344 14.101562 97 14.101562 H 94 C 94.027344 14.101562 94.050781 14.078125 94.050781 14.050781 V 20.050781 C 94.050781 20.023438 94.027344 20 94 20 H 97 C 97.027344 20 97.050781 20.023438 97.050781 20.050781 V 26.050781 C 97.050781 26.078125 97.027344 26.101562 97 26.101562 H 94 C 94.027344 26.101562 94.050781 26.078125 94.050781 26.050781 V 32.050781 C 94.050781 32.023438 94.027344 32 94 32 H 97 C 97.027344 32 97.050781 32.023438 97.050781 32.050781 V 38.050781 C 97.050781 38.078125 97.027344 38.101562 97 38.101562 H 94 C 94.027344 38.101562 94.050781 38.078125 94.050781 38.050781 V 44.050781 C 94.050781 44.023438 94.027344 44 94 44 H 97 C 97.027344 44 97.050781 44.023438 97.050781 44.050781 V 50.050781 C 97.050781 50.078125 97.027344 50.101562 97 50.101562 H 94 C 94.027344 50.101562 94.050781 50.078125 94.050781 50.050781 V 56.050781 C 94.050781 56.023438 94.027344 56 94 56 H 97 C 97.027344 56 97.050781 56.023438 97.050781 56.050781 V 62.050781 C 97.050781 62.078125 97.027344 62.101562 97 62.101562 H 94 C 94.027344 62.101562 94.050781 62.078125 94.050781 62.050781 V 68.050781 C 94.050781 68.023438 94.027344 68 94 68 H 97 C 97.027344 68 97.050781 68.023438 97.050781 68.050781 V 74.050781 C 97.050781 74.078125 97.027344 74.101562 97 74.101562 H 94 C 94.027344 74.101562 94.050781 74.078125 94.050781 74.050781 V 80.050781 C 94.050781 80.023438 94.027344 80 94 80 H 97 C 97.027344 80 97.050781 80.023438 97.050781 80.050781 V 86.050781 C 97.050781 86.078125 97.027344 86.101562 97 86.101562 H 94 C 94.027344 86.101562 94.050781 86.078125 94.050781 86.050781 V 94.050781 C 94.050781 94.078125 94.027344 94.101562 94 94.101562 H 94 L 86 94.101562 C 86.027344 94.101562 86.050781 94.078125 86.050781 94.050781 V 97.050781 C 86.050781 97.078125 86.027344 97.101562 86 97.101562 H 80 C 79.972656 97.101562 79.949219 97.078125 79.949219 97.050781 V 94.050781 C 79.949219 94.078125 79.972656 94.101562 80 94.101562 H 74 C 74.027344 94.101562 74.050781 94.078125 74.050781 94.050781 V 97.050781 C 74.050781 97.078125 74.027344 97.101562 74 97.101562 H 68 C 67.972656 97.101562 67.949219 97.078125 67.949219 97.050781 V 94.050781 C 67.949219 94.078125 67.972656 94.101562 68 94.101562 H 62 C 62.027344 94.101562 62.050781 94.078125 62.050781 94.050781 V 97.050781 C 62.050781 97.078125 62.027344 97.101562 62 97.101562 H 56 C 55.972656 97.101562 55.949219 97.078125 55.949219 97.050781 V 94.050781 C 55.949219 94.078125 55.972656 94.101562 56 94.101562 H 50 C 50.027344 94.101562 50.050781 94.078125 50.050781 94.050781 V 97.050781 C 50.050781 97.078125 50.027344 97.101562 50 97.101562 H 44 C 43.972656 97.101562 43.949219 97.078125 43.949219 97.050781 V 94.050781 C 43.949219 94.078125 43.972656 94.101562 44 94.101562 H 38 C 38.027344 94.101562 38.050781 94.078125 38.050781 94.050781 V 97.050781 C 38.050781 97.078125 38.027344 97.101562 38 97.101562 H 32 C 31.972656 97.101562 31.949219 97.078125 31.949219 97.050781 V 94.050781 C 31.949219 94.078125 31.972656 94.101562 32 94.101562 H 26 C 26.027344 94.101562 26.050781 94.078125 26.050781 94.050781 V 97.050781 C 26.050781 97.078125 26.027344 97.101562 26 97.101562 H 20 C 19.972656 97.101562 19.949219 97.078125 19.949219 97.050781 V 94.050781 C 19.949219 94.078125 19.972656 94.101562 20 94.101562 H 14 C 14.027344 94.101562 14.050781 94.078125 14.050781 94.050781 V 97.050781 C 14.050781 97.078125 14.027344 97.101562 14 97.101562 H 8 C 7.972656 97.101562 7.949219 97.078125 7.949219 97.050781 V 94.050781 C 7.949219 94.078125 7.972656 94.101562 8 94.101562 H -0.000000000000023093 C -0.0273438 94.101562 -0.0507813 94.078125 -0.0507813 94.050781 H -0.0507813 V 86.050781 C -0.0507813 86.078125 -0.0273438 86.101562 -0.000000000000020872 86.101562 H -3 C -3.027344 86.101562 -3.050781 86.078125 -3.050781 86.050781 V 80.050781 C -3.050781 80.023438 -3.027344 80 -3 80 H -0.00000000000001954 C -0.0273438 80 -0.0507813 80.023438 -0.0507813 80.050781 V 74.050781 C -0.0507813 74.078125 -0.0273438 74.101562 -0.000000000000018208 74.101562 H -3 C -3.027344 74.101562 -3.050781 74.078125 -3.050781 74.050781 V 68.050781 C -3.050781 68.023438 -3.027344 68 -3 68 H -0.000000000000016431 C -0.0273438 68 -0.0507813 68.023438 -0.0507813 68.050781 V 62.050781 C -0.0507813 62.078125 -0.0273438 62.101562 -0.000000000000015099 62.101562 H -3 C -3.027344 62.101562 -3.050781 62.078125 -3.050781 62.050781 V 56.050781 C -3.050781 56.023438 -3.027344 56 -3 56 H -0.000000000000013767 C -0.0273438 56 -0.0507813 56.023438 -0.0507813 56.050781 V 50.050781 C -0.0507813 50.078125 -0.0273438 50.101562 -0.000000000000012434 50.101562 H -3 C -3.027344 50.101562 -3.050781 50.078125 -3.050781 50.050781 V 44.050781 C -3.050781 44.023438 -3.027344 44 -3 44 H -0.000000000000010658 C -0.0273438 44 -0.0507813 44.023438 -0.0507813 44.050781 V 38.050781 C -0.0507813 38.078125 -0.0273438 38.101562 -0.000000000000009326 38.101562 H -3 C -3.027344 38.101562 -3.050781 38.078125 -3.050781 38.050781 V 32.050781 C -3.050781 32.023438 -3.027344 32 -3 32 H -0.000000000000007994 C -0.0273438 32 -0.0507813 32.023438 -0.0507813 32.050781 V 26.050781 C -0.0507813 26.078125 -0.0273438 26.101562 -0.000000000000006217 26.101562 H -3 C -3.027344 26.101562 -3.050781 26.078125 -3.050781 26.050781 V 20.050781 C -3.050781 20.023438 -3.027344 20 -3 20 H -0.000000000000004885 C -0.0273438 20 -0.0507813 20.023438 -0.0507813 20.050781 V 14.050781 C -0.0507813 14.078125 -0.0273438 14.101562 -0.000000000000003553 14.101562 H -3 C -3.027344 14.101562 -3.050781 14.078125 -3.050781 14.050781 V 8.050781 C -3.050781 8.023438 -3.027344 8 -3 8 H -0.000000000000001776 C -0.0273438 8 -0.0507813 8.023438 -0.0507813 8.050781 L -0.0507812 0.0507812 C -0.0507812 0.0234375 -0.0273438 0 0 0 H 0 " style="fill:none;stroke-width:0.1;stroke-linecap:butt;stroke-linejoin:miter;stroke:rgb(0%,0%,0%);stroke-opacity:1;stroke-miterlimit:10;" transform="matrix(1.0000,0.0000,0.0000,-1.0000,21.8750,208.6992)"/>
<path d="M 0 0 H 8 C 7.972656 0 7.949219 0.0234375 7.949219 0.0507812 V -2.949219 C 7.949219 -2.976562 7.972656 -3 8 -3 H 14 C 14.027344 -3 14.050781 -2.976562 14.050781 -2.949219 V 0.0507812 C 14.050781 0.0234375 14.027344 0 14 0 H 20 C 19.972656 0 19.949219 0.0234375 19.949219 0.0507812 V -2.949219 C 19.949219 -2.976562 19.972656 -3 20 -3 H 26 C 26.027344 -3 26.050781 -2.976562 26.050781 -2.949219 V 0.0507812 C 26.050781 0.0234375 26.027344 0 26 0 H 32 C 31.972656 0 31.949219 0.0234375 31.949219 0.0507812 V -2.949219 C 31.949219 -2.976562 31.972656 -3 32 -3 H 38 C 38.027344 -3 38.050781 -2.976562 38.050781 -2.949219 V 0.0507812 C 38.050781 0.0234375 38.027344 0 38 0 H 44 C 43.972656 0 43.949219 0.0234375 43.949219 0.0507812 V -2.949219 C 43.949219 -2.976562 43.972656 -3 44 -3 H 50 C 50.027344 -3 50.050781 -2.976562 50.050781 -2.949219 V 0.0507812 C 50.050781 0.0234375 50.027344 0 50 0 H 56 C 55.972656 0 55.949219 0.0234375 55.949219 0.0507812 V -2.949219 C 55.949219 -2.976562 55.972656 -3 56 -3 H 62 C 62.027344 -3 62.050781 -2.976562 62.050781 -2.949219 V 0.0507812 C 62.050781 0.0234375 62.027344 0 62 0 H 68 C 67.972656 0 67.949219 0.0234375 67.949219 0.0507812 V -2.949219 C 67.949219 -2.976562 67.972656 -3 68 -3 H 74 C 74.027344 -3 74.050781 -2.976562 74.050781 -2.949219 V 0.0507812 C 74.050781 0.0234375 74.027344 0 74 0 H 80 C 79.972656 0 79.949219 0.0234375 79.949219 0.0507812 V -2.949219 C 79.949219 -2.976562 79.972656 -3 80 -3 H 86 C 86.027344 -3 86.050781 -2.976562 86.050781 -2.949219 V 0.0507812 C 86.050781 0.0234375 86.027344 0 86 0 H 94 C 94.027344 0 94.050781 0.0234375 94.050781 0.0507812 H 94.050781 V 8.050781 C 94.050781 8.023438 94.027344 8 94 8 H 97 C 97.027344 8 97.050781 8.023438 97.050781 8.050781 V 14.050781 C 97.050781 14.078125 97.027344 14.101562 97 14.101562 H 94 C 94.027344 14.101562 94.050781 14.078125 94.050781 14.050781 V 20.050781 C 94.050781 20.023438 94.027344 20 94 20 H 97 C 97.027344 20 97.050781 20.023438 97.050781 20.050781 V 26.050781 C 97.050781 26.078125 97.027344 26.101562 97 26.101562 H 94 C 94.027344 26.101562 94.050781 26.078125 94.050781 26.050781 V 32.050781 C 94.050781 32.023438 94.027344 32 94 32 H 97 C 97.027344 32 97.050781 32.023438 97.050781 32.050781 V 38.050781 C 97.050781 38.078125 97.027344 38.101562 97 38.101562 H 94 C 94.027344 38.101562 94.050781 38.078125 94.050781 38.050781 V 44.050781 C 94.050781 44.023438 94.027344 44 94 44 H 97 C 97.027344 44 97.050781 44.023438 97.050781 44.050781 V 50.050781 C 97.050781 50.078125 97.027344 50.101562 97 50.101562 H 94 C 94.027344 50.101562 94.050781 50.078125 94.050781 50.050781 V 56.050781 C 94.050781 56.023438 94.027344 56 94 56 H 97 C 97.027344 56 97.050781 56.023438 97.050781 56.050781 V 62.050781 C 97.050781 62.078125 97.027344 62.101562 97 62.101562 H 94 C 94.027344 62.101562 94.050781 62.078125 94.050781 62.050781 V 68.050781 C 94.050781 68.023438 94.027344 68 94 68 H 97 C 97.027344 68 97.050781 68.023438 97.050781 68.050781 V 74.050781 C 97.050781 74.078125 97.027344 74.101562 97 74.101562 H 94 C 94.027344 74.101562 94.050781 74.078125 94.050781 74.050781 V 80.050781 C 94.050781 80.023438 94.027344 80 94 80 H 97 C 97.027344 80 97.050781 80.023438 97.050781 80.050781 V 86.050781 C 97.050781 86.078125 97.027344 86.101562 97 86.101562 H 94 C 94.027344 86.101562 94.050781 86.078125 94.050781 86.050781 V 94.050781 C 94.050781 94.078125 94.027344 94.101562 94 94.101562 H 94 L 86 94.101562 C 86.027344 94.101562 86.050781 94.078125 86.050781 94.050781 V 97.050781 C 86.050781 97.078125 86.027344 97.101562 86 97.101562 H 80 C 79.972656 97.101562 79.949219 97.078125 79.949219 97.050781 V 94.050781 C 79.949219 94.078125 79.972656 94.101562 80 94.101562 H 74 C 74.027344 94.101562 74.050781 94.078125 74.050781 94.050781 V 97.050781 C 74.050781 97.078125 74.027344 97.101562 74 97.101562 H 68 C 67.972656 97.101562 67.949219 97.078125 67.949219 97.050781 V 94.050781 C 67.949219 94.078125 67.972656 94.101562 68 94.101562 H 62 C 62.027344 94.101562 62.050781 94.078125 62.050781 94.050781 V 97.050781 C 62.050781 97.078125 62.027344 97.101562 62 97.101562 H 56 C 55.972656 97.101562 55.949219 97.078125 55.949219 97.050781 V 94.050781 C 55.949219 94.078125 55.972656 94.101562 56 94.101562 H 50 C 50.027344 94.101562 50.050781 94.078125 50.050781 94.050781 V 97.050781 C 50.050781 97.078125 50.027344 97.101562 50 97.101562 H 44 C 43.972656 97.101562 43.949219 97.078125 43.949219 97.050781 V 94.050781 C 43.949219 94.078125 43.972656 94.101562 44 94.101562 H 38 C 38.027344 94.101562 38.050781 94.078125 38.050781 94.050781 V 97.050781 C 38.050781 97.078125 38.027344 97.101562 38 97.101562 H 32 C 31.972656 97.101562 31.949219 97.078125 31.949219 97.050781 V 94.050781 C 31.949219 94.078125 31.972656 94.101562 32 94.101562 H 26 C 26.027344 94.101562 26.050781 94.078125 26.050781 94.050781 V 97.050781 C 26.050781 97.078125 26.027344 97.101562 26 97.101562 H 20 C 19.972656 97.101562 19.949219 97.078125 19.949219 97.050781 V 94.050781 C 19.949219 94.078125 19.972656 94.101562 20 94.101562 H 14 C 14.027344 94.101562 14.050781 94.078125 14.050781 94.050781 V 97.050781 C 14.050781 97.078125 14.027344 97.101562 14 97.101562 H 8 C 7.972656 97.101562 7.949219 97.078125 7.949219 97.050781 V 94.050781 C 7.949219 94.078125 7.972656 94.101562 8 94.101562 H -0.000000000000023093 C -0.0273438 94.101562 -0.0507813 94.078125 -0.0507813 94.050781 H -0.0507813 V 86.050781 C -0.0507813 86.078125 -0.0273438 86.101562 -0.000000000000020872 86.101562 H -3 C -3.027344 86.101562 -3.050781 86.078125 -3.050781 86.050781 V 80.050781 C -3.050781 80.023438 -3.027344 80 -3 80 H -0.00000000000001954 C -0.0273438 80 -0.0507813 80.023438 -0.0507813 80.050781 V 74.050781 C -0.0507813 74.078125 -0.0273438 74.101562 -0.000000000000018208 74.101562 H -3 C -3.027344 74.101562 -3.050781 74.078125 -3.050781 74.050781 V 68.050781 C -3.050781 68.023438 -3.027344 68 -3 68 H -0.000000000000016431 C -0.0273438 68 -0.0507813 68.023438 -0.0507813 68.050781 V 62.050781 C -0.0507813 62.078125 -0.0273438 62.101562 -0.000000000000015099 62.101562 H -3 C -3.027344 62.101562 -3.050781 62.078125 -3.050781 62.050781 V 56.050781 C -3.050781 56.023438 -3.027344 56 -3 56 H -0.000000000000013767 C -0.0273438 56 -0.0507813 56.023438 -0.0507813 56.050781 V 50.050781 C -0.0507813 50.078125 -0.0273438 50.101562 -0.000000000000012434 50.101562 H -3 C -3.027344 50.101562 -3.050781 50.078125 -3.050781 50.050781 V 44.050781 C -3.050781 44.023438 -3.027344 44 -3 44 H -0.000000000000010658 C -0.0273438 44 -0.0507813 44.023438 -0.0507813 44.050781 V 38.050781 C -0.0507813 38.078125 -0.0273438 38.101562 -0.000000000000009326 38.101562 H -3 C -3.027344 38.101562 -3.050781 38.078125 -3.050781 38.050781 V 32.050781 C -3.050781 32.023438 -3.027344 32 -3 32 H -0.000000000000007994 C -0.0273438 32 -0.0507813 32.023438 -0.0507813 32.050781 V 26.050781 C -0.0507813 26.078125 -0.0273438 26.101562 -0.000000000000006217 26.101562 H -3 C -3.027344 26.101562 -3.050781 26.078125 -3.050781 26.050781 V 20.050781 C -3.050781 20.023438 -3.027344 20 -3 20 H -0.000000000000004885 C -0.0273438 20 -0.0507813 20.023438 -0.0507813 20.050781 V 14.050781 C -0.0507813 14.078125 -0.0273438 14.101562 -0.000000000000003553 14.101562 H -3 C -3.027344 14.101562 -3.050781 14.078125 -3.050781 14.050781 V 8.050781 C -3.050781 8.023438 -3.027344 8 -3 8 H -0.000000000000001776 C -0.0273438 8 -0.0507813 8.023438 -0.0507813 8.050781 L -0.0507812 0.0507812 C -0.0507812 0.0234375 -0.0273438 0 0 0 H 0 " style="fill:none;stroke-width:0.1;stroke-linecap:butt;stroke-linejoin:miter;stroke:rgb(0%,0%,0%);stroke-opacity:1;stroke-miterlimit:10;" transform="matrix(1.0000,0.0000,0.0000,-1.0000,21.8750,107.1016)"/>
</g>
</svg>