<svg xmlns="http://www.w3.org/2000/svg" height="280mm" version="1.1" viewBox="0 -10 270 280" width="270mm">
<!--
NotesHolder - 
Created with Boxes.py (https://festi.info/boxes.py)
Creation date: 2019-11-05 15:03:50
Command line (remove spaces beteen dashes): boxes NotesHolder - -FingerJoint_angle=90.0 - -FingerJoint_style=rectangular - -FingerJoint_surroundingspaces=1 - -FingerJoint_edge_width=1.0 - -FingerJoint_finger=2.0 - -FingerJoint_play=0.0 - -FingerJoint_space=2.0 - -FingerJoint_width=1.0 - -Stackable_angle=60 - -Stackable_height=2.0 - -Stackable_holedistance=1.0 - -Stackable_width=4.0 - -x=115 - -y=115 - -h=50 - -bottom_edge=s - -opening=40 - -thickness=3.0 - -format=svg - -tabs=0.0 - -debug=0 - -reference=0 - -burn=0.05
Url: http://localhost:8008/NotesHolder?FingerJoint_angle=90.0&FingerJoint_style=rectangular&FingerJoint_surroundingspaces=1&FingerJoint_edge_width=1.0&FingerJoint_finger=2.0&FingerJoint_play=0.0&FingerJoint_space=2.0&FingerJoint_width=1.0&Stackable_angle=60&Stackable_height=2.0&Stackable_holedistance=1.0&Stackable_width=4.0&x=115&y=115&h=50&bottom_edge=s&opening=40&thickness=3.0&format=svg&tabs=0.0&debug=0&reference=0&burn=0.05&render=1
SettingsUrl: http://localhost:8008/NotesHolder?FingerJoint_angle=90.0&FingerJoint_style=rectangular&FingerJoint_surroundingspaces=1&FingerJoint_edge_width=1.0&FingerJoint_finger=2.0&FingerJoint_play=0.0&FingerJoint_space=2.0&FingerJoint_width=1.0&Stackable_angle=60&Stackable_height=2.0&Stackable_holedistance=1.0&Stackable_width=4.0&x=115&y=115&h=50&bottom_edge=s&opening=40&thickness=3.0&format=svg&tabs=0.0&debug=0&reference=0&burn=0.05
--><g id="surface5416">
<path d="M 0 0 C -0.0273438 0 -0.0507812 0.0234375 -0.0507812 0.0507812 V -2.949219 C -0.0507812 -2.921875 -0.0273438 -2.898438 0 -2.898438 H -6 C -5.972656 -2.898438 -5.949219 -2.921875 -5.949219 -2.949219 V 0.0507812 C -5.949219 0.0234375 -5.972656 0 -6 0 H 0 " style="fill:none;stroke-width:0.1;stroke-linecap:butt;stroke-linejoin:miter;stroke:rgb(0%,0%,100%);stroke-opacity:1;stroke-miterlimit:10;" transform="matrix(-1.0000,0.0000,0.0000,1.0000,19.5469,249.2500)"/>
<path d="M 0 0 C -0.0273438 0 -0.0507812 0.0234375 -0.0507812 0.0507812 V -2.949219 C -0.0507812 -2.921875 -0.0273438 -2.898438 0 -2.898438 H -6 C -5.972656 -2.898438 -5.949219 -2.921875 -5.949219 -2.949219 V 0.0507812 C -5.949219 0.0234375 -5.972656 0 -6 0 H 0 " style="fill:none;stroke-width:0.1;stroke-linecap:butt;stroke-linejoin:miter;stroke:rgb(0%,0%,100%);stroke-opacity:1;stroke-miterlimit:10;" transform="matrix(-1.0000,0.0000,0.0000,1.0000,31.5469,249.2500)"/>
<path d="M 0 0 C -0.0273438 0 -0.0507812 0.0234375 -0.0507812 0.0507812 V -2.949219 C -0.0507812 -2.921875 -0.0273438 -2.898438 0 -2.898438 H -6 C -5.972656 -2.898438 -5.949219 -2.921875 -5.949219 -2.949219 V 0.0507812 C -5.949219 0.0234375 -5.972656 0 -6 0 H 0 " style="fill:none;stroke-width:0.1;stroke-linecap:butt;stroke-linejoin:miter;stroke:rgb(0%,0%,100%);stroke-opacity:1;stroke-miterlimit:10;" transform="matrix(-1.0000,0.0000,0.0000,1.0000,43.5469,249.2500)"/>
<path d="M 0 0 C -0.0273438 0 -0.0507812 0.0234375 -0.0507812 0.0507812 V -2.949219 C -0.0507812 -2.921875 -0.0273438 -2.898438 0 -2.898438 H -6 C -5.972656 -2.898438 -5.949219 -2.921875 -5.949219 -2.949219 V 0.0507812 C -5.949219 0.0234375 -5.972656 0 -6 0 H 0 " style="fill:none;stroke-width:0.1;stroke-linecap:butt;stroke-linejoin:miter;stroke:rgb(0%,0%,100%);stroke-opacity:1;stroke-miterlimit:10;" transform="matrix(-1.0000,0.0000,0.0000,1.0000,55.5469,249.2500)"/>
<path d="M 0 0 C -0.0273438 0 -0.0507812 0.0234375 -0.0507812 0.0507812 V -2.949219 C -0.0507812 -2.921875 -0.0273438 -2.898438 0 -2.898438 H -6 C -5.972656 -2.898438 -5.949219 -2.921875 -5.949219 -2.949219 V 0.0507812 C -5.949219 0.0234375 -5.972656 0 -6 0 H 0 " style="fill:none;stroke-width:0.1;stroke-linecap:butt;stroke-linejoin:miter;stroke:rgb(0%,0%,100%);stroke-opacity:1;stroke-miterlimit:10;" transform="matrix(-1.0000,0.0000,0.0000,1.0000,67.5469,249.2500)"/>
<path d="M 0 0 C -0.0273438 0 -0.0507812 0.0234375 -0.0507812 0.0507812 V -2.949219 C -0.0507812 -2.921875 -0.0273438 -2.898438 0 -2.898438 H -6 C -5.972656 -2.898438 -5.949219 -2.921875 -5.949219 -2.949219 V 0.0507812 C -5.949219 0.0234375 -5.972656 0 -6 0 H 0 " style="fill:none;stroke-width:0.1;stroke-linecap:butt;stroke-linejoin:miter;stroke:rgb(0%,0%,100%);stroke-opacity:1;stroke-miterlimit:10;" transform="matrix(-1.0000,0.0000,0.0000,1.0000,79.5469,249.2500)"/>
<path d="M 0 0 C -0.0273438 0 -0.0507812 0.0234375 -0.0507812 0.0507812 V -2.949219 C -0.0507812 -2.921875 -0.0273438 -2.898438 0 -2.898438 H -6 C -5.972656 -2.898438 -5.949219 -2.921875 -5.949219 -2.949219 V 0.0507812 C -5.949219 0.0234375 -5.972656 0 -6 0 H 0 " style="fill:none;stroke-width:0.1;stroke-linecap:butt;stroke-linejoin:miter;stroke:rgb(0%,0%,100%);stroke-opacity:1;stroke-miterlimit:10;" transform="matrix(-1.0000,0.0000,0.0000,1.0000,91.5469,249.2500)"/>
<path d="M 0 0 C -0.0273438 0 -0.0507812 0.0234375 -0.0507812 0.0507812 V -2.949219 C -0.0507812 -2.921875 -0.0273438 -2.898438 0 -2.898438 H -6 C -5.972656 -2.898438 -5.949219 -2.921875 -5.949219 -2.949219 V 0.0507812 C -5.949219 0.0234375 -5.972656 0 -6 0 H 0 " style="fill:none;stroke-width:0.1;stroke-linecap:butt;stroke-linejoin:miter;stroke:rgb(0%,0%,100%);stroke-opacity:1;stroke-miterlimit:10;" transform="matrix(-1.0000,0.0000,0.0000,1.0000,103.5469,249.2500)"/>
<path d="M 0 0 C -0.0273438 0 -0.0507812 0.0234375 -0.0507812 0.0507812 V -2.949219 C -0.0507812 -2.921875 -0.0273438 -2.898438 0 -2.898438 H -6 C -5.972656 -2.898438 -5.949219 -2.921875 -5.949219 -2.949219 V 0.0507812 C -5.949219 0.0234375 -5.972656 0 -6 0 H 0 " style="fill:none;stroke-width:0.1;stroke-linecap:butt;stroke-linejoin:miter;stroke:rgb(0%,0%,100%);stroke-opacity:1;stroke-miterlimit:10;" transform="matrix(-1.0000,0.0000,0.0000,1.0000,115.5469,249.2500)"/>
<path d="M -0.00390625 0 H 11.996094 C 13.058594 0 14.101563 0.28125 15.019531 0.808594 C 15.9375 1.339844 16.703125 2.101562 17.234375 3.023438 C 17.757813 3.929688 18.507813 4.679688 19.414063 5.203125 C 20.320313 5.726562 21.34375 6 22.390625 6 H 92.605469 C 93.648438 6 94.675781 5.726562 95.582031 5.203125 C 96.488281 4.679688 97.238281 3.929688 97.761719 3.023438 C 98.292969 2.105469 99.054688 1.339844 99.976563 0.808594 C 100.894531 0.277344 101.941406 0 103 0 H 115 L 118 0 C 118.027344 0 118.050781 0.0234375 118.050781 0.0507812 V 12.050781 L 118.050781 16.050781 C 118.050781 16.078125 118.027344 16.101562 118 16.101562 H 115 C 115.027344 16.101562 115.050781 16.078125 115.050781 16.050781 V 22.050781 C 115.050781 22.023438 115.027344 22 115 22 H 118 C 118.027344 22 118.050781 22.023438 118.050781 22.050781 V 28.050781 C 118.050781 28.078125 118.027344 28.101562 118 28.101562 H 115 C 115.027344 28.101562 115.050781 28.078125 115.050781 28.050781 V 34.050781 C 115.050781 34.023438 115.027344 34 115 34 H 118 C 118.027344 34 118.050781 34.023438 118.050781 34.050781 V 40.050781 C 118.050781 40.078125 118.027344 40.101562 118 40.101562 H 115 C 115.027344 40.101562 115.050781 40.078125 115.050781 40.050781 V 46.050781 C 115.050781 46.023438 115.027344 46 115 46 H 118 C 118.027344 46 118.050781 46.023438 118.050781 46.050781 V 52.050781 C 118.050781 52.078125 118.027344 52.101562 118 52.101562 H 115 C 115.027344 52.101562 115.050781 52.078125 115.050781 52.050781 V 58.050781 C 115.050781 58.023438 115.027344 58 115 58 H 118 C 118.027344 58 118.050781 58.023438 118.050781 58.050781 V 62.050781 C 118.050781 62.078125 118.027344 62.101562 118 62.101562 H 115 L -0.000000000000015099 62.101562 H -3 C -3.027344 62.101562 -3.050781 62.078125 -3.050781 62.050781 H -3.050781 V 58.050781 C -3.050781 58.023438 -3.027344 58 -3 58 H -0.000000000000014211 C -0.0273438 58 -0.0507813 58.023438 -0.0507813 58.050781 V 52.050781 C -0.0507813 52.078125 -0.0273438 52.101562 -0.000000000000012879 52.101562 H -3 C -3.027344 52.101562 -3.050781 52.078125 -3.050781 52.050781 V 46.050781 C -3.050781 46.023438 -3.027344 46 -3 46 H -0.000000000000011102 C -0.0273438 46 -0.0507813 46.023438 -0.0507813 46.050781 V 40.050781 C -0.0507813 40.078125 -0.0273438 40.101562 -0.00000000000000977 40.101562 H -3 C -3.027344 40.101562 -3.050781 40.078125 -3.050781 40.050781 V 34.050781 C -3.050781 34.023438 -3.027344 34 -3 34 H -0.000000000000008438 C -0.0273438 34 -0.0507813 34.023438 -0.0507813 34.050781 V 28.050781 C -0.0507813 28.078125 -0.0273438 28.101562 -0.000000000000007105 28.101562 H -3 C -3.027344 28.101562 -3.050781 28.078125 -3.050781 28.050781 V 22.050781 C -3.050781 22.023438 -3.027344 22 -3 22 H -0.000000000000005329 C -0.0273438 22 -0.0507813 22.023438 -0.0507813 22.050781 V 16.050781 C -0.0507813 16.078125 -0.0273438 16.101562 -0.000000000000003997 16.101562 H -3 C -3.027344 16.101562 -3.050781 16.078125 -3.050781 16.050781 V 12.050781 L -3.050781 0.0507812 C -3.050781 0.0234375 -3.027344 0 -3 0 H 0 " style="fill:none;stroke-width:0.1;stroke-linecap:butt;stroke-linejoin:miter;stroke:rgb(0%,0%,0%);stroke-opacity:1;stroke-miterlimit:10;" transform="matrix(1.0000,0.0000,0.0000,-1.0000,13.0508,258.3008)"/>
<path d="M 0 0 C -0.0273438 0 -0.0507812 0.0234375 -0.0507812 0.0507812 V -2.949219 C -0.0507812 -2.921875 -0.0273438 -2.898438 0 -2.898438 H -6 C -5.972656 -2.898438 -5.949219 -2.921875 -5.949219 -2.949219 V 0.0507812 C -5.949219 0.0234375 -5.972656 0 -6 0 H 0 " style="fill:none;stroke-width:0.1;stroke-linecap:butt;stroke-linejoin:miter;stroke:rgb(0%,0%,100%);stroke-opacity:1;stroke-miterlimit:10;" transform="matrix(-1.0000,0.0000,0.0000,1.0000,143.8945,249.2500)"/>
<path d="M 0 0 C -0.0273438 0 -0.0507812 0.0234375 -0.0507812 0.0507812 V -2.949219 C -0.0507812 -2.921875 -0.0273438 -2.898438 0 -2.898438 H -6 C -5.972656 -2.898438 -5.949219 -2.921875 -5.949219 -2.949219 V 0.0507812 C -5.949219 0.0234375 -5.972656 0 -6 0 H 0 " style="fill:none;stroke-width:0.1;stroke-linecap:butt;stroke-linejoin:miter;stroke:rgb(0%,0%,100%);stroke-opacity:1;stroke-miterlimit:10;" transform="matrix(-1.0000,0.0000,0.0000,1.0000,155.8945,249.2500)"/>
<path d="M -0.00390625 0 H 11.996094 C 13.058594 0 14.101563 0.28125 15.019531 0.808594 C 15.9375 1.339844 16.703125 2.101562 17.234375 3.023438 C 17.757813 3.929688 18.507813 4.679688 19.414063 5.203125 C 20.320313 5.726562 21.34375 6 22.390625 6 H 34.5 C 34.527344 6 34.550781 6.023438 34.550781 6.050781 V 12.050781 L 34.550781 62.050781 C 34.550781 62.078125 34.527344 62.101562 34.5 62.101562 H 34.5 L -0.000000000000014211 62.101562 C -0.0273438 62.101562 -0.0507813 62.078125 -0.0507813 62.050781 H -0.0507813 V 58.050781 C -0.0507813 58.078125 -0.0273438 58.101562 -0.000000000000014211 58.101562 H -3 C -3.027344 58.101562 -3.050781 58.078125 -3.050781 58.050781 V 52.050781 C -3.050781 52.023438 -3.027344 52 -3 52 H -0.000000000000014211 C -0.0273438 52 -0.0507813 52.023438 -0.0507813 52.050781 V 46.050781 C -0.0507813 46.078125 -0.0273438 46.101562 -0.000000000000014211 46.101562 H -3 C -3.027344 46.101562 -3.050781 46.078125 -3.050781 46.050781 V 40.050781 C -3.050781 40.023438 -3.027344 40 -3 40 H 0 C -0.0273438 40 -0.0507812 40.023438 -0.0507812 40.050781 V 34.050781 C -0.0507812 34.078125 -0.0273438 34.101562 0 34.101562 H -3 C -3.027344 34.101562 -3.050781 34.078125 -3.050781 34.050781 V 28.050781 C -3.050781 28.023438 -3.027344 28 -3 28 H 0 C -0.0273438 28 -0.0507812 28.023438 -0.0507812 28.050781 V 22.050781 C -0.0507812 22.078125 -0.0273438 22.101562 0 22.101562 H -3 C -3.027344 22.101562 -3.050781 22.078125 -3.050781 22.050781 V 16.050781 C -3.050781 16.023438 -3.027344 16 -3 16 H 0 C -0.0273438 16 -0.0507812 16.023438 -0.0507812 16.050781 V 12.050781 L -0.0507812 0.0507812 C -0.0507812 0.0234375 -0.0273438 0 0 0 H 0 " style="fill:none;stroke-width:0.1;stroke-linecap:butt;stroke-linejoin:miter;stroke:rgb(0%,0%,0%);stroke-opacity:1;stroke-miterlimit:10;" transform="matrix(1.0000,0.0000,0.0000,-1.0000,135.6484,258.3008)"/>
<path d="M 0 0 C -0.0273438 0 -0.0507812 0.0234375 -0.0507812 0.0507812 V -2.949219 C -0.0507812 -2.921875 -0.0273438 -2.898438 0 -2.898438 H -6 C -5.972656 -2.898438 -5.949219 -2.921875 -5.949219 -2.949219 V 0.0507812 C -5.949219 0.0234375 -5.972656 0 -6 0 H 0 " style="fill:none;stroke-width:0.1;stroke-linecap:butt;stroke-linejoin:miter;stroke:rgb(0%,0%,100%);stroke-opacity:1;stroke-miterlimit:10;" transform="matrix(1.0000,0.0000,-0.0000,1.0000,197.9961,249.2500)"/>
<path d="M 0 0 C -0.0273438 0 -0.0507812 0.0234375 -0.0507812 0.0507812 V -2.949219 C -0.0507812 -2.921875 -0.0273438 -2.898438 0 -2.898438 H -6 C -5.972656 -2.898438 -5.949219 -2.921875 -5.949219 -2.949219 V 0.0507812 C -5.949219 0.0234375 -5.972656 0 -6 0 H 0 " style="fill:none;stroke-width:0.1;stroke-linecap:butt;stroke-linejoin:miter;stroke:rgb(0%,0%,100%);stroke-opacity:1;stroke-miterlimit:10;" transform="matrix(1.0000,0.0000,-0.0000,1.0000,185.9961,249.2500)"/>
<path d="M -0.00390625 0 H 11.996094 C 13.058594 0 14.101563 0.28125 15.019531 0.808594 C 15.9375 1.339844 16.703125 2.101562 17.234375 3.023438 C 17.757813 3.929688 18.507813 4.679688 19.414063 5.203125 C 20.320313 5.726562 21.34375 6 22.390625 6 H 34.5 C 34.527344 6 34.550781 6.023438 34.550781 6.050781 V 12.050781 L 34.550781 62.050781 C 34.550781 62.078125 34.527344 62.101562 34.5 62.101562 H 34.5 L -0.000000000000028422 62.101562 C -0.0273438 62.101562 -0.0507813 62.078125 -0.0507813 62.050781 H -0.0507813 V 58.050781 C -0.0507813 58.078125 -0.0273438 58.101562 -0.000000000000028422 58.101562 H -3 C -3.027344 58.101562 -3.050781 58.078125 -3.050781 58.050781 V 52.050781 C -3.050781 52.023438 -3.027344 52 -3 52 H -0.000000000000028422 C -0.0273438 52 -0.0507813 52.023438 -0.0507813 52.050781 V 46.050781 C -0.0507813 46.078125 -0.0273438 46.101562 -0.000000000000028422 46.101562 H -3 C -3.027344 46.101562 -3.050781 46.078125 -3.050781 46.050781 V 40.050781 C -3.050781 40.023438 -3.027344 40 -3 40 H -0.000000000000028422 C -0.0273438 40 -0.0507813 40.023438 -0.0507813 40.050781 V 34.050781 C -0.0507813 34.078125 -0.0273438 34.101562 -0.000000000000028422 34.101562 H -3 C -3.027344 34.101562 -3.050781 34.078125 -3.050781 34.050781 V 28.050781 C -3.050781 28.023438 -3.027344 28 -3 28 H -0.000000000000028422 C -0.0273438 28 -0.0507813 28.023438 -0.0507813 28.050781 V 22.050781 C -0.0507813 22.078125 -0.0273438 22.101562 -0.000000000000028422 22.101562 H -3 C -3.027344 22.101562 -3.050781 22.078125 -3.050781 22.050781 V 16.050781 C -3.050781 16.023438 -3.027344 16 -3 16 H 0 C -0.0273438 16 -0.0507812 16.023438 -0.0507812 16.050781 V 12.050781 L -0.0507812 0.0507812 C -0.0507812 0.0234375 -0.0273438 0 0 0 H 0 " style="fill:none;stroke-width:0.1;stroke-linecap:butt;stroke-linejoin:miter;stroke:rgb(0%,0%,0%);stroke-opacity:1;stroke-miterlimit:10;" transform="matrix(-1.0000,0.0000,-0.0000,-1.0000,206.2422,258.3008)"/>
<path d="M 0 0 C -0.0273438 0 -0.0507812 0.0234375 -0.0507812 0.0507812 V -2.949219 C -0.0507812 -2.921875 -0.0273438 -2.898438 0 -2.898438 H -6 C -5.972656 -2.898438 -5.949219 -2.921875 -5.949219 -2.949219 V 0.0507812 C -5.949219 0.0234375 -5.972656 0 -6 0 H 0 " style="fill:none;stroke-width:0.1;stroke-linecap:butt;stroke-linejoin:miter;stroke:rgb(0%,0%,100%);stroke-opacity:1;stroke-miterlimit:10;" transform="matrix(-1.0000,0.0000,0.0000,1.0000,19.5469,185.6523)"/>
<path d="M 0 0 C -0.0273438 0 -0.0507812 0.0234375 -0.0507812 0.0507812 V -2.949219 C -0.0507812 -2.921875 -0.0273438 -2.898438 0 -2.898438 H -6 C -5.972656 -2.898438 -5.949219 -2.921875 -5.949219 -2.949219 V 0.0507812 C -5.949219 0.0234375 -5.972656 0 -6 0 H 0 " style="fill:none;stroke-width:0.1;stroke-linecap:butt;stroke-linejoin:miter;stroke:rgb(0%,0%,100%);stroke-opacity:1;stroke-miterlimit:10;" transform="matrix(-1.0000,0.0000,0.0000,1.0000,31.5469,185.6523)"/>
<path d="M 0 0 C -0.0273438 0 -0.0507812 0.0234375 -0.0507812 0.0507812 V -2.949219 C -0.0507812 -2.921875 -0.0273438 -2.898438 0 -2.898438 H -6 C -5.972656 -2.898438 -5.949219 -2.921875 -5.949219 -2.949219 V 0.0507812 C -5.949219 0.0234375 -5.972656 0 -6 0 H 0 " style="fill:none;stroke-width:0.1;stroke-linecap:butt;stroke-linejoin:miter;stroke:rgb(0%,0%,100%);stroke-opacity:1;stroke-miterlimit:10;" transform="matrix(-1.0000,0.0000,0.0000,1.0000,43.5469,185.6523)"/>
<path d="M 0 0 C -0.0273438 0 -0.0507812 0.0234375 -0.0507812 0.0507812 V -2.949219 C -0.0507812 -2.921875 -0.0273438 -2.898438 0 -2.898438 H -6 C -5.972656 -2.898438 -5.949219 -2.921875 -5.949219 -2.949219 V 0.0507812 C -5.949219 0.0234375 -5.972656 0 -6 0 H 0 " style="fill:none;stroke-width:0.1;stroke-linecap:butt;stroke-linejoin:miter;stroke:rgb(0%,0%,100%);stroke-opacity:1;stroke-miterlimit:10;" transform="matrix(-1.0000,0.0000,0.0000,1.0000,55.5469,185.6523)"/>
<path d="M 0 0 C -0.0273438 0 -0.0507812 0.0234375 -0.0507812 0.0507812 V -2.949219 C -0.0507812 -2.921875 -0.0273438 -2.898438 0 -2.898438 H -6 C -5.972656 -2.898438 -5.949219 -2.921875 -5.949219 -2.949219 V 0.0507812 C -5.949219 0.0234375 -5.972656 0 -6 0 H 0 " style="fill:none;stroke-width:0.1;stroke-linecap:butt;stroke-linejoin:miter;stroke:rgb(0%,0%,100%);stroke-opacity:1;stroke-miterlimit:10;" transform="matrix(-1.0000,0.0000,0.0000,1.0000,67.5469,185.6523)"/>
<path d="M 0 0 C -0.0273438 0 -0.0507812 0.0234375 -0.0507812 0.0507812 V -2.949219 C -0.0507812 -2.921875 -0.0273438 -2.898438 0 -2.898438 H -6 C -5.972656 -2.898438 -5.949219 -2.921875 -5.949219 -2.949219 V 0.0507812 C -5.949219 0.0234375 -5.972656 0 -6 0 H 0 " style="fill:none;stroke-width:0.1;stroke-linecap:butt;stroke-linejoin:miter;stroke:rgb(0%,0%,100%);stroke-opacity:1;stroke-miterlimit:10;" transform="matrix(-1.0000,0.0000,0.0000,1.0000,79.5469,185.6523)"/>
<path d="M 0 0 C -0.0273438 0 -0.0507812 0.0234375 -0.0507812 0.0507812 V -2.949219 C -0.0507812 -2.921875 -0.0273438 -2.898438 0 -2.898438 H -6 C -5.972656 -2.898438 -5.949219 -2.921875 -5.949219 -2.949219 V 0.0507812 C -5.949219 0.0234375 -5.972656 0 -6 0 H 0 " style="fill:none;stroke-width:0.1;stroke-linecap:butt;stroke-linejoin:miter;stroke:rgb(0%,0%,100%);stroke-opacity:1;stroke-miterlimit:10;" transform="matrix(-1.0000,0.0000,0.0000,1.0000,91.5469,185.6523)"/>
<path d="M 0 0 C -0.0273438 0 -0.0507812 0.0234375 -0.0507812 0.0507812 V -2.949219 C -0.0507812 -2.921875 -0.0273438 -2.898438 0 -2.898438 H -6 C -5.972656 -2.898438 -5.949219 -2.921875 -5.949219 -2.949219 V 0.0507812 C -5.949219 0.0234375 -5.972656 0 -6 0 H 0 " style="fill:none;stroke-width:0.1;stroke-linecap:butt;stroke-linejoin:miter;stroke:rgb(0%,0%,100%);stroke-opacity:1;stroke-miterlimit:10;" transform="matrix(-1.0000,0.0000,0.0000,1.0000,103.5469,185.6523)"/>
<path d="M 0 0 C -0.0273438 0 -0.0507812 0.0234375 -0.0507812 0.0507812 V -2.949219 C -0.0507812 -2.921875 -0.0273438 -2.898438 0 -2.898438 H -6 C -5.972656 -2.898438 -5.949219 -2.921875 -5.949219 -2.949219 V 0.0507812 C -5.949219 0.0234375 -5.972656 0 -6 0 H 0 " style="fill:none;stroke-width:0.1;stroke-linecap:butt;stroke-linejoin:miter;stroke:rgb(0%,0%,100%);stroke-opacity:1;stroke-miterlimit:10;" transform="matrix(-1.0000,0.0000,0.0000,1.0000,115.5469,185.6523)"/>
<path d="M -0.00390625 0 H 11.996094 C 13.058594 0 14.101563 0.28125 15.019531 0.808594 C 15.9375 1.339844 16.703125 2.101562 17.234375 3.023438 C 17.757813 3.929688 18.507813 4.679688 19.414063 5.203125 C 20.320313 5.726562 21.34375 6 22.390625 6 H 92.605469 C 93.648438 6 94.675781 5.726562 95.582031 5.203125 C 96.488281 4.679688 97.238281 3.929688 97.761719 3.023438 C 98.292969 2.105469 99.054688 1.339844 99.976563 0.808594 C 100.894531 0.277344 101.941406 0 103 0 H 115 L 118 0 C 118.027344 0 118.050781 0.0234375 118.050781 0.0507812 V 12.050781 L 118.050781 16.050781 C 118.050781 16.078125 118.027344 16.101562 118 16.101562 H 115 C 115.027344 16.101562 115.050781 16.078125 115.050781 16.050781 V 22.050781 C 115.050781 22.023438 115.027344 22 115 22 H 118 C 118.027344 22 118.050781 22.023438 118.050781 22.050781 V 28.050781 C 118.050781 28.078125 118.027344 28.101562 118 28.101562 H 115 C 115.027344 28.101562 115.050781 28.078125 115.050781 28.050781 V 34.050781 C 115.050781 34.023438 115.027344 34 115 34 H 118 C 118.027344 34 118.050781 34.023438 118.050781 34.050781 V 40.050781 C 118.050781 40.078125 118.027344 40.101562 118 40.101562 H 115 C 115.027344 40.101562 115.050781 40.078125 115.050781 40.050781 V 46.050781 C 115.050781 46.023438 115.027344 46 115 46 H 118 C 118.027344 46 118.050781 46.023438 118.050781 46.050781 V 52.050781 C 118.050781 52.078125 118.027344 52.101562 118 52.101562 H 115 C 115.027344 52.101562 115.050781 52.078125 115.050781 52.050781 V 58.050781 C 115.050781 58.023438 115.027344 58 115 58 H 118 C 118.027344 58 118.050781 58.023438 118.050781 58.050781 V 62.050781 C 118.050781 62.078125 118.027344 62.101562 118 62.101562 H 115 L -0.000000000000015099 62.101562 H -3 C -3.027344 62.101562 -3.050781 62.078125 -3.050781 62.050781 H -3.050781 V 58.050781 C -3.050781 58.023438 -3.027344 58 -3 58 H -0.000000000000014211 C -0.0273438 58 -0.0507813 58.023438 -0.0507813 58.050781 V 52.050781 C -0.0507813 52.078125 -0.0273438 52.101562 -0.000000000000012879 52.101562 H -3 C -3.027344 52.101562 -3.050781 52.078125 -3.050781 52.050781 V 46.050781 C -3.050781 46.023438 -3.027344 46 -3 46 H -0.000000000000011546 C -0.0273438 46 -0.0507813 46.023438 -0.0507813 46.050781 V 40.050781 C -0.0507813 40.078125 -0.0273438 40.101562 -0.00000000000000977 40.101562 H -3 C -3.027344 40.101562 -3.050781 40.078125 -3.050781 40.050781 V 34.050781 C -3.050781 34.023438 -3.027344 34 -3 34 H -0.000000000000008438 C -0.0273438 34 -0.0507813 34.023438 -0.0507813 34.050781 V 28.050781 C -0.0507813 28.078125 -0.0273438 28.101562 -0.000000000000007105 28.101562 H -3 C -3.027344 28.101562 -3.050781 28.078125 -3.050781 28.050781 V 22.050781 C -3.050781 22.023438 -3.027344 22 -3 22 H -0.000000000000005329 C -0.0273438 22 -0.0507813 22.023438 -0.0507813 22.050781 V 16.050781 C -0.0507813 16.078125 -0.0273438 16.101562 -0.000000000000003997 16.101562 H -3 C -3.027344 16.101562 -3.050781 16.078125 -3.050781 16.050781 V 12.050781 L -3.050781 0.0507812 C -3.050781 0.0234375 -3.027344 0 -3 0 H 0 " style="fill:none;stroke-width:0.1;stroke-linecap:butt;stroke-linejoin:miter;stroke:rgb(0%,0%,0%);stroke-opacity:1;stroke-miterlimit:10;" transform="matrix(1.0000,0.0000,0.0000,-1.0000,13.0508,194.7031)"/>
<path d="M 0 0 C -0.0273438 0 -0.0507812 0.0234375 -0.0507812 0.0507812 V -2.949219 C -0.0507812 -2.921875 -0.0273438 -2.898438 0 -2.898438 H -6 C -5.972656 -2.898438 -5.949219 -2.921875 -5.949219 -2.949219 V 0.0507812 C -5.949219 0.0234375 -5.972656 0 -6 0 H 0 " style="fill:none;stroke-width:0.1;stroke-linecap:butt;stroke-linejoin:miter;stroke:rgb(0%,0%,100%);stroke-opacity:1;stroke-miterlimit:10;" transform="matrix(-1.0000,0.0000,0.0000,1.0000,142.1445,185.6523)"/>
<path d="M 0 0 C -0.0273438 0 -0.0507812 0.0234375 -0.0507812 0.0507812 V -2.949219 C -0.0507812 -2.921875 -0.0273438 -2.898438 0 -2.898438 H -6 C -5.972656 -2.898438 -5.949219 -2.921875 -5.949219 -2.949219 V 0.0507812 C -5.949219 0.0234375 -5.972656 0 -6 0 H 0 " style="fill:none;stroke-width:0.1;stroke-linecap:butt;stroke-linejoin:miter;stroke:rgb(0%,0%,100%);stroke-opacity:1;stroke-miterlimit:10;" transform="matrix(-1.0000,0.0000,0.0000,1.0000,154.1445,185.6523)"/>
<path d="M 0 0 C -0.0273438 0 -0.0507812 0.0234375 -0.0507812 0.0507812 V -2.949219 C -0.0507812 -2.921875 -0.0273438 -2.898438 0 -2.898438 H -6 C -5.972656 -2.898438 -5.949219 -2.921875 -5.949219 -2.949219 V 0.0507812 C -5.949219 0.0234375 -5.972656 0 -6 0 H 0 " style="fill:none;stroke-width:0.1;stroke-linecap:butt;stroke-linejoin:miter;stroke:rgb(0%,0%,100%);stroke-opacity:1;stroke-miterlimit:10;" transform="matrix(-1.0000,0.0000,0.0000,1.0000,166.1445,185.6523)"/>
<path d="M 0 0 C -0.0273438 0 -0.0507812 0.0234375 -0.0507812 0.0507812 V -2.949219 C -0.0507812 -2.921875 -0.0273438 -2.898438 0 -2.898438 H -6 C -5.972656 -2.898438 -5.949219 -2.921875 -5.949219 -2.949219 V 0.0507812 C -5.949219 0.0234375 -5.972656 0 -6 0 H 0 " style="fill:none;stroke-width:0.1;stroke-linecap:butt;stroke-linejoin:miter;stroke:rgb(0%,0%,100%);stroke-opacity:1;stroke-miterlimit:10;" transform="matrix(-1.0000,0.0000,0.0000,1.0000,178.1445,185.6523)"/>
<path d="M 0 0 C -0.0273438 0 -0.0507812 0.0234375 -0.0507812 0.0507812 V -2.949219 C -0.0507812 -2.921875 -0.0273438 -2.898438 0 -2.898438 H -6 C -5.972656 -2.898438 -5.949219 -2.921875 -5.949219 -2.949219 V 0.0507812 C -5.949219 0.0234375 -5.972656 0 -6 0 H 0 " style="fill:none;stroke-width:0.1;stroke-linecap:butt;stroke-linejoin:miter;stroke:rgb(0%,0%,100%);stroke-opacity:1;stroke-miterlimit:10;" transform="matrix(-1.0000,0.0000,0.0000,1.0000,190.1445,185.6523)"/>
<path d="M 0 0 C -0.0273438 0 -0.0507812 0.0234375 -0.0507812 0.0507812 V -2.949219 C -0.0507812 -2.921875 -0.0273438 -2.898438 0 -2.898438 H -6 C -5.972656 -2.898438 -5.949219 -2.921875 -5.949219 -2.949219 V 0.0507812 C -5.949219 0.0234375 -5.972656 0 -6 0 H 0 " style="fill:none;stroke-width:0.1;stroke-linecap:butt;stroke-linejoin:miter;stroke:rgb(0%,0%,100%);stroke-opacity:1;stroke-miterlimit:10;" transform="matrix(-1.0000,0.0000,0.0000,1.0000,202.1445,185.6523)"/>
<path d="M 0 0 C -0.0273438 0 -0.0507812 0.0234375 -0.0507812 0.0507812 V -2.949219 C -0.0507812 -2.921875 -0.0273438 -2.898438 0 -2.898438 H -6 C -5.972656 -2.898438 -5.949219 -2.921875 -5.949219 -2.949219 V 0.0507812 C -5.949219 0.0234375 -5.972656 0 -6 0 H 0 " style="fill:none;stroke-width:0.1;stroke-linecap:butt;stroke-linejoin:miter;stroke:rgb(0%,0%,100%);stroke-opacity:1;stroke-miterlimit:10;" transform="matrix(-1.0000,0.0000,0.0000,1.0000,214.1445,185.6523)"/>
<path d="M 0 0 C -0.0273438 0 -0.0507812 0.0234375 -0.0507812 0.0507812 V -2.949219 C -0.0507812 -2.921875 -0.0273438 -2.898438 0 -2.898438 H -6 C -5.972656 -2.898438 -5.949219 -2.921875 -5.949219 -2.949219 V 0.0507812 C -5.949219 0.0234375 -5.972656 0 -6 0 H 0 " style="fill:none;stroke-width:0.1;stroke-linecap:butt;stroke-linejoin:miter;stroke:rgb(0%,0%,100%);stroke-opacity:1;stroke-miterlimit:10;" transform="matrix(-1.0000,0.0000,0.0000,1.0000,226.1445,185.6523)"/>
<path d="M 0 0 C -0.0273438 0 -0.0507812 0.0234375 -0.0507812 0.0507812 V -2.949219 C -0.0507812 -2.921875 -0.0273438 -2.898438 0 -2.898438 H -6 C -5.972656 -2.898438 -5.949219 -2.921875 -5.949219 -2.949219 V 0.0507812 C -5.949219 0.0234375 -5.972656 0 -6 0 H 0 " style="fill:none;stroke-width:0.1;stroke-linecap:butt;stroke-linejoin:miter;stroke:rgb(0%,0%,100%);stroke-opacity:1;stroke-miterlimit:10;" transform="matrix(-1.0000,0.0000,0.0000,1.0000,238.1445,185.6523)"/>
<path d="M -0.00390625 0 H 11.996094 C 13.058594 0 14.101563 0.28125 15.019531 0.808594 C 15.9375 1.339844 16.703125 2.101562 17.234375 3.023438 C 17.757813 3.929688 18.507813 4.679688 19.414063 5.203125 C 20.320313 5.726562 21.34375 6 22.390625 6 H 92.605469 C 93.648438 6 94.675781 5.726562 95.582031 5.203125 C 96.488281 4.679688 97.238281 3.929688 97.761719 3.023438 C 98.292969 2.105469 99.054688 1.339844 99.976563 0.808594 C 100.894531 0.277344 101.941406 0 103 0 H 115 C 115.027344 0 115.050781 0.0234375 115.050781 0.0507812 V 12.050781 L 115.050781 16.050781 C 115.050781 16.023438 115.027344 16 115 16 H 118 C 118.027344 16 118.050781 16.023438 118.050781 16.050781 V 22.050781 C 118.050781 22.078125 118.027344 22.101562 118 22.101562 H 115 C 115.027344 22.101562 115.050781 22.078125 115.050781 22.050781 V 28.050781 C 115.050781 28.023438 115.027344 28 115 28 H 118 C 118.027344 28 118.050781 28.023438 118.050781 28.050781 V 34.050781 C 118.050781 34.078125 118.027344 34.101562 118 34.101562 H 115 C 115.027344 34.101562 115.050781 34.078125 115.050781 34.050781 V 40.050781 C 115.050781 40.023438 115.027344 40 115 40 H 118 C 118.027344 40 118.050781 40.023438 118.050781 40.050781 V 46.050781 C 118.050781 46.078125 118.027344 46.101562 118 46.101562 H 115 C 115.027344 46.101562 115.050781 46.078125 115.050781 46.050781 V 52.050781 C 115.050781 52.023438 115.027344 52 115 52 H 118 C 118.027344 52 118.050781 52.023438 118.050781 52.050781 V 58.050781 C 118.050781 58.078125 118.027344 58.101562 118 58.101562 H 115 C 115.027344 58.101562 115.050781 58.078125 115.050781 58.050781 V 62.050781 C 115.050781 62.078125 115.027344 62.101562 115 62.101562 H 115 L -0.000000000000014211 62.101562 C -0.0273438 62.101562 -0.0507813 62.078125 -0.0507813 62.050781 H -0.0507813 V 58.050781 C -0.0507813 58.078125 -0.0273438 58.101562 -0.000000000000014211 58.101562 H -3 C -3.027344 58.101562 -3.050781 58.078125 -3.050781 58.050781 V 52.050781 C -3.050781 52.023438 -3.027344 52 -3 52 H -0.000000000000014211 C -0.0273438 52 -0.0507813 52.023438 -0.0507813 52.050781 V 46.050781 C -0.0507813 46.078125 -0.0273438 46.101562 -0.000000000000014211 46.101562 H -3 C -3.027344 46.101562 -3.050781 46.078125 -3.050781 46.050781 V 40.050781 C -3.050781 40.023438 -3.027344 40 -3 40 H 0 C -0.0273438 40 -0.0507812 40.023438 -0.0507812 40.050781 V 34.050781 C -0.0507812 34.078125 -0.0273438 34.101562 0 34.101562 H -3 C -3.027344 34.101562 -3.050781 34.078125 -3.050781 34.050781 V 28.050781 C -3.050781 28.023438 -3.027344 28 -3 28 H 0 C -0.0273438 28 -0.0507812 28.023438 -0.0507812 28.050781 V 22.050781 C -0.0507812 22.078125 -0.0273438 22.101562 0 22.101562 H -3 C -3.027344 22.101562 -3.050781 22.078125 -3.050781 22.050781 V 16.050781 C -3.050781 16.023438 -3.027344 16 -3 16 H 0 C -0.0273438 16 -0.0507812 16.023438 -0.0507812 16.050781 V 12.050781 L -0.0507812 0.0507812 C -0.0507812 0.0234375 -0.0273438 0 0 0 H 0 " style="fill:none;stroke-width:0.1;stroke-linecap:butt;stroke-linejoin:miter;stroke:rgb(0%,0%,0%);stroke-opacity:1;stroke-miterlimit:10;" transform="matrix(1.0000,0.0000,0.0000,-1.0000,135.6484,194.7031)"/>
<path d="M -0.0078125 0 H 8.242188 C 8.214844 0 8.191406 0.0234375 8.191406 0.0507812 V -2.949219 C 8.191406 -2.976562 8.214844 -3 8.242188 -3 H 14.242188 C 14.269531 -3 14.292969 -2.976562 14.292969 -2.949219 V 0.0507812 C 14.292969 0.0234375 14.269531 0 14.242188 0 H 20.242188 C 20.214844 0 20.191406 0.0234375 20.191406 0.0507812 V -2.949219 C 20.191406 -2.976562 20.214844 -3 20.242188 -3 H 26.242188 C 26.269531 -3 26.292969 -2.976562 26.292969 -2.949219 V 0.0507812 C 26.292969 0.0234375 26.269531 0 26.242188 0 H 34.492188 C 34.519531 0 34.542969 0.0234375 34.542969 0.0507812 C 34.542969 1.621094 34.957031 3.164062 35.742188 4.527344 C 36.527344 5.886719 37.65625 7.019531 39.019531 7.804688 C 40.378906 8.589844 41.921875 9.003906 43.496094 9.003906 H 71.496094 C 73.066406 9.003906 74.609375 8.589844 75.972656 7.804688 C 77.332031 7.019531 78.464844 5.890625 79.25 4.527344 C 80.035156 3.167969 80.449219 1.625 80.449219 0.0507812 C 80.449219 0.0234375 80.472656 0 80.5 0 H 88.75 C 88.722656 0 88.699219 0.0234375 88.699219 0.0507812 V -2.949219 C 88.699219 -2.976562 88.722656 -3 88.75 -3 H 94.75 C 94.777344 -3 94.800781 -2.976562 94.800781 -2.949219 V 0.0507812 C 94.800781 0.0234375 94.777344 0 94.75 0 H 100.75 C 100.722656 0 100.699219 0.0234375 100.699219 0.0507812 V -2.949219 C 100.699219 -2.976562 100.722656 -3 100.75 -3 H 106.75 C 106.777344 -3 106.800781 -2.976562 106.800781 -2.949219 V 0.0507812 C 106.800781 0.0234375 106.777344 0 106.75 0 H 115 C 115.027344 0 115.050781 0.0234375 115.050781 0.0507812 H 115.050781 V 6.550781 C 115.050781 6.523438 115.027344 6.5 115 6.5 H 118 C 118.027344 6.5 118.050781 6.523438 118.050781 6.550781 V 12.550781 C 118.050781 12.578125 118.027344 12.601562 118 12.601562 H 115 C 115.027344 12.601562 115.050781 12.578125 115.050781 12.550781 V 18.550781 C 115.050781 18.523438 115.027344 18.5 115 18.5 H 118 C 118.027344 18.5 118.050781 18.523438 118.050781 18.550781 V 24.550781 C 118.050781 24.578125 118.027344 24.601562 118 24.601562 H 115 C 115.027344 24.601562 115.050781 24.578125 115.050781 24.550781 V 30.550781 C 115.050781 30.523438 115.027344 30.5 115 30.5 H 118 C 118.027344 30.5 118.050781 30.523438 118.050781 30.550781 V 36.550781 C 118.050781 36.578125 118.027344 36.601562 118 36.601562 H 115 C 115.027344 36.601562 115.050781 36.578125 115.050781 36.550781 V 42.550781 C 115.050781 42.523438 115.027344 42.5 115 42.5 H 118 C 118.027344 42.5 118.050781 42.523438 118.050781 42.550781 V 48.550781 C 118.050781 48.578125 118.027344 48.601562 118 48.601562 H 115 C 115.027344 48.601562 115.050781 48.578125 115.050781 48.550781 V 54.550781 C 115.050781 54.523438 115.027344 54.5 115 54.5 H 118 C 118.027344 54.5 118.050781 54.523438 118.050781 54.550781 V 60.550781 C 118.050781 60.578125 118.027344 60.601562 118 60.601562 H 115 C 115.027344 60.601562 115.050781 60.578125 115.050781 60.550781 V 66.550781 C 115.050781 66.523438 115.027344 66.5 115 66.5 H 118 C 118.027344 66.5 118.050781 66.523438 118.050781 66.550781 V 72.550781 C 118.050781 72.578125 118.027344 72.601562 118 72.601562 H 115 C 115.027344 72.601562 115.050781 72.578125 115.050781 72.550781 V 78.550781 C 115.050781 78.523438 115.027344 78.5 115 78.5 H 118 C 118.027344 78.5 118.050781 78.523438 118.050781 78.550781 V 84.550781 C 118.050781 84.578125 118.027344 84.601562 118 84.601562 H 115 C 115.027344 84.601562 115.050781 84.578125 115.050781 84.550781 V 90.550781 C 115.050781 90.523438 115.027344 90.5 115 90.5 H 118 C 118.027344 90.5 118.050781 90.523438 118.050781 90.550781 V 96.550781 C 118.050781 96.578125 118.027344 96.601562 118 96.601562 H 115 C 115.027344 96.601562 115.050781 96.578125 115.050781 96.550781 V 102.550781 C 115.050781 102.523438 115.027344 102.5 115 102.5 H 118 C 118.027344 102.5 118.050781 102.523438 118.050781 102.550781 V 108.550781 C 118.050781 108.578125 118.027344 108.601562 118 108.601562 H 115 C 115.027344 108.601562 115.050781 108.578125 115.050781 108.550781 V 115.050781 C 115.050781 115.078125 115.027344 115.101562 115 115.101562 H 115 L 108.5 115.101562 C 108.527344 115.101562 108.550781 115.078125 108.550781 115.050781 V 118.050781 C 108.550781 118.078125 108.527344 118.101562 108.5 118.101562 H 102.5 C 102.472656 118.101562 102.449219 118.078125 102.449219 118.050781 V 115.050781 C 102.449219 115.078125 102.472656 115.101562 102.5 115.101562 H 96.5 C 96.527344 115.101562 96.550781 115.078125 96.550781 115.050781 V 118.050781 C 96.550781 118.078125 96.527344 118.101562 96.5 118.101562 H 90.5 C 90.472656 118.101562 90.449219 118.078125 90.449219 118.050781 V 115.050781 C 90.449219 115.078125 90.472656 115.101562 90.5 115.101562 H 84.5 C 84.527344 115.101562 84.550781 115.078125 84.550781 115.050781 V 118.050781 C 84.550781 118.078125 84.527344 118.101562 84.5 118.101562 H 78.5 C 78.472656 118.101562 78.449219 118.078125 78.449219 118.050781 V 115.050781 C 78.449219 115.078125 78.472656 115.101562 78.5 115.101562 H 72.5 C 72.527344 115.101562 72.550781 115.078125 72.550781 115.050781 V 118.050781 C 72.550781 118.078125 72.527344 118.101562 72.5 118.101562 H 66.5 C 66.472656 118.101562 66.449219 118.078125 66.449219 118.050781 V 115.050781 C 66.449219 115.078125 66.472656 115.101562 66.5 115.101562 H 60.5 C 60.527344 115.101562 60.550781 115.078125 60.550781 115.050781 V 118.050781 C 60.550781 118.078125 60.527344 118.101562 60.5 118.101562 H 54.5 C 54.472656 118.101562 54.449219 118.078125 54.449219 118.050781 V 115.050781 C 54.449219 115.078125 54.472656 115.101562 54.5 115.101562 H 48.5 C 48.527344 115.101562 48.550781 115.078125 48.550781 115.050781 V 118.050781 C 48.550781 118.078125 48.527344 118.101562 48.5 118.101562 H 42.5 C 42.472656 118.101562 42.449219 118.078125 42.449219 118.050781 V 115.050781 C 42.449219 115.078125 42.472656 115.101562 42.5 115.101562 H 36.5 C 36.527344 115.101562 36.550781 115.078125 36.550781 115.050781 V 118.050781 C 36.550781 118.078125 36.527344 118.101562 36.5 118.101562 H 30.5 C 30.472656 118.101562 30.449219 118.078125 30.449219 118.050781 V 115.050781 C 30.449219 115.078125 30.472656 115.101562 30.5 115.101562 H 24.5 C 24.527344 115.101562 24.550781 115.078125 24.550781 115.050781 V 118.050781 C 24.550781 118.078125 24.527344 118.101562 24.5 118.101562 H 18.5 C 18.472656 118.101562 18.449219 118.078125 18.449219 118.050781 V 115.050781 C 18.449219 115.078125 18.472656 115.101562 18.5 115.101562 H 12.5 C 12.527344 115.101562 12.550781 115.078125 12.550781 115.050781 V 118.050781 C 12.550781 118.078125 12.527344 118.101562 12.5 118.101562 H 6.5 C 6.472656 118.101562 6.449219 118.078125 6.449219 118.050781 V 115.050781 C 6.449219 115.078125 6.472656 115.101562 6.5 115.101562 H 0.00000000000000977 C -0.0273437 115.101562 -0.0507812 115.078125 -0.0507812 115.050781 H -0.0507812 V 108.550781 C -0.0507812 108.578125 -0.0273437 108.601562 0.000000000000009326 108.601562 H -3 C -3.027344 108.601562 -3.050781 108.578125 -3.050781 108.550781 V 102.550781 C -3.050781 102.523438 -3.027344 102.5 -3 102.5 H 0.000000000000008438 C -0.0273437 102.5 -0.0507812 102.523438 -0.0507812 102.550781 V 96.550781 C -0.0507812 96.578125 -0.0273437 96.601562 0.000000000000007994 96.601562 H -3 C -3.027344 96.601562 -3.050781 96.578125 -3.050781 96.550781 V 90.550781 C -3.050781 90.523438 -3.027344 90.5 -3 90.5 H 0.00000000000000755 C -0.0273437 90.5 -0.0507812 90.523438 -0.0507812 90.550781 V 84.550781 C -0.0507812 84.578125 -0.0273437 84.601562 0.000000000000007105 84.601562 H -3 C -3.027344 84.601562 -3.050781 84.578125 -3.050781 84.550781 V 78.550781 C -3.050781 78.523438 -3.027344 78.5 -3 78.5 H 0.000000000000006661 C -0.0273437 78.5 -0.0507812 78.523438 -0.0507812 78.550781 V 72.550781 C -0.0507812 72.578125 -0.0273437 72.601562 0.000000000000006217 72.601562 H -3 C -3.027344 72.601562 -3.050781 72.578125 -3.050781 72.550781 V 66.550781 C -3.050781 66.523438 -3.027344 66.5 -3 66.5 H 0.000000000000005773 C -0.0273437 66.5 -0.0507812 66.523438 -0.0507812 66.550781 V 60.550781 C -0.0507812 60.578125 -0.0273437 60.601562 0.000000000000005329 60.601562 H -3 C -3.027344 60.601562 -3.050781 60.578125 -3.050781 60.550781 V 54.550781 C -3.050781 54.523438 -3.027344 54.5 -3 54.5 H 0.000000000000004885 C -0.0273437 54.5 -0.0507812 54.523438 -0.0507812 54.550781 V 48.550781 C -0.0507812 48.578125 -0.0273437 48.601562 0.000000000000003997 48.601562 H -3 C -3.027344 48.601562 -3.050781 48.578125 -3.050781 48.550781 V 42.550781 C -3.050781 42.523438 -3.027344 42.5 -3 42.5 H 0.000000000000003553 C -0.0273437 42.5 -0.0507812 42.523438 -0.0507812 42.550781 V 36.550781 C -0.0507812 36.578125 -0.0273437 36.601562 0.000000000000003109 36.601562 H -3 C -3.027344 36.601562 -3.050781 36.578125 -3.050781 36.550781 V 30.550781 C -3.050781 30.523438 -3.027344 30.5 -3 30.5 H 0.000000000000002665 C -0.0273437 30.5 -0.0507812 30.523438 -0.0507812 30.550781 V 24.550781 C -0.0507812 24.578125 -0.0273437 24.601562 0.00000000000000222 24.601562 H -3 C -3.027344 24.601562 -3.050781 24.578125 -3.050781 24.550781 V 18.550781 C -3.050781 18.523438 -3.027344 18.5 -3 18.5 H 0.000000000000001776 C -0.0273437 18.5 -0.0507812 18.523438 -0.0507812 18.550781 V 12.550781 C -0.0507812 12.578125 -0.0273437 12.601562 0.000000000000001332 12.601562 H -3 C -3.027344 12.601562 -3.050781 12.578125 -3.050781 12.550781 V 6.550781 C -3.050781 6.523438 -3.027344 6.5 -3 6.5 H 0.000000000000000888 C -0.0273437 6.5 -0.0507812 6.523438 -0.0507812 6.550781 V 0.0507812 C -0.0507812 0.0234375 -0.0273438 0 0 0 H 0 " style="fill:none;stroke-width:0.1;stroke-linecap:butt;stroke-linejoin:miter;stroke:rgb(0%,0%,0%);stroke-opacity:1;stroke-miterlimit:10;" transform="matrix(1.0000,-0.0000,-0.0000,-1.0000,13.0547,128.1016)"/>
</g>
</svg>