<svg xmlns="http://www.w3.org/2000/svg" height="190mm" version="1.1" viewBox="0 -10 240 190" width="240mm">
<!--
OpenBox - 
Created with Boxes.py (https://festi.info/boxes.py)
Creation date: 2019-11-05 14:20:15
Command line (remove spaces beteen dashes): boxes OpenBox - -FingerJoint_angle=90.0 - -FingerJoint_style=rectangular - -FingerJoint_surroundingspaces=2.0 - -FingerJoint_edge_width=1.0 - -FingerJoint_finger=2.0 - -FingerJoint_play=0.0 - -FingerJoint_space=2.0 - -FingerJoint_width=1.0 - -x=100.0 - -y=100.0 - -h=50 - -outside=0 - -thickness=3.0 - -format=svg - -tabs=0.0 - -debug=0 - -reference=0 - -burn=0.05
Url: http://localhost:8008/OpenBox?FingerJoint_angle=90.0&FingerJoint_style=rectangular&FingerJoint_surroundingspaces=2.0&FingerJoint_edge_width=1.0&FingerJoint_finger=2.0&FingerJoint_play=0.0&FingerJoint_space=2.0&FingerJoint_width=1.0&x=100.0&y=100.0&h=50&outside=0&thickness=3.0&format=svg&tabs=0.0&debug=0&reference=0&burn=0.05&render=1
SettingsUrl: http://localhost:8008/OpenBox?FingerJoint_angle=90.0&FingerJoint_style=rectangular&FingerJoint_surroundingspaces=2.0&FingerJoint_edge_width=1.0&FingerJoint_finger=2.0&FingerJoint_play=0.0&FingerJoint_space=2.0&FingerJoint_width=1.0&x=100.0&y=100.0&h=50&outside=0&thickness=3.0&format=svg&tabs=0.0&debug=0&reference=0&burn=0.05
--><g id="surface5274">
<path d="M 0 0 H 11 C 11.027344 0 11.050781 0.0234375 11.050781 0.0507812 V 3.050781 C 11.050781 3.023438 11.027344 3 11 3 H 17 C 16.972656 3 16.949219 3.023438 16.949219 3.050781 V 0.0507812 C 16.949219 0.0234375 16.972656 0 17 0 H 23 C 23.027344 0 23.050781 0.0234375 23.050781 0.0507812 V 3.050781 C 23.050781 3.023438 23.027344 3 23 3 H 29 C 28.972656 3 28.949219 3.023438 28.949219 3.050781 V 0.0507812 C 28.949219 0.0234375 28.972656 0 29 0 H 35 C 35.027344 0 35.050781 0.0234375 35.050781 0.0507812 V 3.050781 C 35.050781 3.023438 35.027344 3 35 3 H 41 C 40.972656 3 40.949219 3.023438 40.949219 3.050781 V 0.0507812 C 40.949219 0.0234375 40.972656 0 41 0 H 47 C 47.027344 0 47.050781 0.0234375 47.050781 0.0507812 V 3.050781 C 47.050781 3.023438 47.027344 3 47 3 H 53 C 52.972656 3 52.949219 3.023438 52.949219 3.050781 V 0.0507812 C 52.949219 0.0234375 52.972656 0 53 0 H 59 C 59.027344 0 59.050781 0.0234375 59.050781 0.0507812 V 3.050781 C 59.050781 3.023438 59.027344 3 59 3 H 65 C 64.972656 3 64.949219 3.023438 64.949219 3.050781 V 0.0507812 C 64.949219 0.0234375 64.972656 0 65 0 H 71 C 71.027344 0 71.050781 0.0234375 71.050781 0.0507812 V 3.050781 C 71.050781 3.023438 71.027344 3 71 3 H 77 C 76.972656 3 76.949219 3.023438 76.949219 3.050781 V 0.0507812 C 76.949219 0.0234375 76.972656 0 77 0 H 83 C 83.027344 0 83.050781 0.0234375 83.050781 0.0507812 V 3.050781 C 83.050781 3.023438 83.027344 3 83 3 H 89 C 88.972656 3 88.949219 3.023438 88.949219 3.050781 V 0.0507812 C 88.949219 0.0234375 88.972656 0 89 0 H 100 L 103 0 C 103.027344 0 103.050781 0.0234375 103.050781 0.0507812 V 3.050781 L 103.050781 13.050781 C 103.050781 13.078125 103.027344 13.101562 103 13.101562 H 100 C 100.027344 13.101562 100.050781 13.078125 100.050781 13.050781 V 19.050781 C 100.050781 19.023438 100.027344 19 100 19 H 103 C 103.027344 19 103.050781 19.023438 103.050781 19.050781 V 25.050781 C 103.050781 25.078125 103.027344 25.101562 103 25.101562 H 100 C 100.027344 25.101562 100.050781 25.078125 100.050781 25.050781 V 31.050781 C 100.050781 31.023438 100.027344 31 100 31 H 103 C 103.027344 31 103.050781 31.023438 103.050781 31.050781 V 37.050781 C 103.050781 37.078125 103.027344 37.101562 103 37.101562 H 100 C 100.027344 37.101562 100.050781 37.078125 100.050781 37.050781 V 43.050781 C 100.050781 43.023438 100.027344 43 100 43 H 103 C 103.027344 43 103.050781 43.023438 103.050781 43.050781 V 53.050781 C 103.050781 53.078125 103.027344 53.101562 103 53.101562 H 100 L -0.000000000000012879 53.101562 H -3 C -3.027344 53.101562 -3.050781 53.078125 -3.050781 53.050781 H -3.050781 V 43.050781 C -3.050781 43.023438 -3.027344 43 -3 43 H -0.000000000000010658 C -0.0273438 43 -0.0507813 43.023438 -0.0507813 43.050781 V 37.050781 C -0.0507813 37.078125 -0.0273438 37.101562 -0.000000000000009326 37.101562 H -3 C -3.027344 37.101562 -3.050781 37.078125 -3.050781 37.050781 V 31.050781 C -3.050781 31.023438 -3.027344 31 -3 31 H -0.00000000000000755 C -0.0273438 31 -0.0507813 31.023438 -0.0507813 31.050781 V 25.050781 C -0.0507813 25.078125 -0.0273438 25.101562 -0.000000000000006217 25.101562 H -3 C -3.027344 25.101562 -3.050781 25.078125 -3.050781 25.050781 V 19.050781 C -3.050781 19.023438 -3.027344 19 -3 19 H -0.000000000000004885 C -0.0273438 19 -0.0507813 19.023438 -0.0507813 19.050781 V 13.050781 C -0.0507813 13.078125 -0.0273438 13.101562 -0.000000000000003109 13.101562 H -3 C -3.027344 13.101562 -3.050781 13.078125 -3.050781 13.050781 V 3.050781 L -3.050781 0.0507812 C -3.050781 0.0234375 -3.027344 0 -3 0 H 0 " style="fill:none;stroke-width:0.1;stroke-linecap:butt;stroke-linejoin:miter;stroke:rgb(0%,0%,0%);stroke-opacity:1;stroke-miterlimit:10;" transform="matrix(1.0000,0.0000,0.0000,-1.0000,13.0508,167.6992)"/>
<path d="M 0 0 H 11 C 11.027344 0 11.050781 0.0234375 11.050781 0.0507812 V 3.050781 C 11.050781 3.023438 11.027344 3 11 3 H 17 C 16.972656 3 16.949219 3.023438 16.949219 3.050781 V 0.0507812 C 16.949219 0.0234375 16.972656 0 17 0 H 23 C 23.027344 0 23.050781 0.0234375 23.050781 0.0507812 V 3.050781 C 23.050781 3.023438 23.027344 3 23 3 H 29 C 28.972656 3 28.949219 3.023438 28.949219 3.050781 V 0.0507812 C 28.949219 0.0234375 28.972656 0 29 0 H 35 C 35.027344 0 35.050781 0.0234375 35.050781 0.0507812 V 3.050781 C 35.050781 3.023438 35.027344 3 35 3 H 41 C 40.972656 3 40.949219 3.023438 40.949219 3.050781 V 0.0507812 C 40.949219 0.0234375 40.972656 0 41 0 H 47 C 47.027344 0 47.050781 0.0234375 47.050781 0.0507812 V 3.050781 C 47.050781 3.023438 47.027344 3 47 3 H 53 C 52.972656 3 52.949219 3.023438 52.949219 3.050781 V 0.0507812 C 52.949219 0.0234375 52.972656 0 53 0 H 59 C 59.027344 0 59.050781 0.0234375 59.050781 0.0507812 V 3.050781 C 59.050781 3.023438 59.027344 3 59 3 H 65 C 64.972656 3 64.949219 3.023438 64.949219 3.050781 V 0.0507812 C 64.949219 0.0234375 64.972656 0 65 0 H 71 C 71.027344 0 71.050781 0.0234375 71.050781 0.0507812 V 3.050781 C 71.050781 3.023438 71.027344 3 71 3 H 77 C 76.972656 3 76.949219 3.023438 76.949219 3.050781 V 0.0507812 C 76.949219 0.0234375 76.972656 0 77 0 H 83 C 83.027344 0 83.050781 0.0234375 83.050781 0.0507812 V 3.050781 C 83.050781 3.023438 83.027344 3 83 3 H 89 C 88.972656 3 88.949219 3.023438 88.949219 3.050781 V 0.0507812 C 88.949219 0.0234375 88.972656 0 89 0 H 100 C 100.027344 0 100.050781 0.0234375 100.050781 0.0507812 V 3.050781 L 100.050781 53.050781 C 100.050781 53.078125 100.027344 53.101562 100 53.101562 H 100 L -0.000000000000014211 53.101562 C -0.0273438 53.101562 -0.0507813 53.078125 -0.0507813 53.050781 H -0.0507813 L -0.0507812 43.050781 C -0.0507812 43.078125 -0.0273438 43.101562 0 43.101562 H -3 C -3.027344 43.101562 -3.050781 43.078125 -3.050781 43.050781 V 37.050781 C -3.050781 37.023438 -3.027344 37 -3 37 H 0 C -0.0273438 37 -0.0507812 37.023438 -0.0507812 37.050781 V 31.050781 C -0.0507812 31.078125 -0.0273438 31.101562 0 31.101562 H -3 C -3.027344 31.101562 -3.050781 31.078125 -3.050781 31.050781 V 25.050781 C -3.050781 25.023438 -3.027344 25 -3 25 H 0 C -0.0273438 25 -0.0507812 25.023438 -0.0507812 25.050781 V 19.050781 C -0.0507812 19.078125 -0.0273438 19.101562 0 19.101562 H -3 C -3.027344 19.101562 -3.050781 19.078125 -3.050781 19.050781 V 13.050781 C -3.050781 13.023438 -3.027344 13 -3 13 H 0 C -0.0273438 13 -0.0507812 13.023438 -0.0507812 13.050781 V 3.050781 L -0.0507812 0.0507812 C -0.0507812 0.0234375 -0.0273438 0 0 0 H 0 " style="fill:none;stroke-width:0.1;stroke-linecap:butt;stroke-linejoin:miter;stroke:rgb(0%,0%,0%);stroke-opacity:1;stroke-miterlimit:10;" transform="matrix(1.0000,0.0000,0.0000,-1.0000,120.6484,167.6992)"/>
<path d="M 0 0 H 11 C 11.027344 0 11.050781 0.0234375 11.050781 0.0507812 V 3.050781 C 11.050781 3.023438 11.027344 3 11 3 H 17 C 16.972656 3 16.949219 3.023438 16.949219 3.050781 V 0.0507812 C 16.949219 0.0234375 16.972656 0 17 0 H 23 C 23.027344 0 23.050781 0.0234375 23.050781 0.0507812 V 3.050781 C 23.050781 3.023438 23.027344 3 23 3 H 29 C 28.972656 3 28.949219 3.023438 28.949219 3.050781 V 0.0507812 C 28.949219 0.0234375 28.972656 0 29 0 H 35 C 35.027344 0 35.050781 0.0234375 35.050781 0.0507812 V 3.050781 C 35.050781 3.023438 35.027344 3 35 3 H 41 C 40.972656 3 40.949219 3.023438 40.949219 3.050781 V 0.0507812 C 40.949219 0.0234375 40.972656 0 41 0 H 47 C 47.027344 0 47.050781 0.0234375 47.050781 0.0507812 V 3.050781 C 47.050781 3.023438 47.027344 3 47 3 H 53 C 52.972656 3 52.949219 3.023438 52.949219 3.050781 V 0.0507812 C 52.949219 0.0234375 52.972656 0 53 0 H 59 C 59.027344 0 59.050781 0.0234375 59.050781 0.0507812 V 3.050781 C 59.050781 3.023438 59.027344 3 59 3 H 65 C 64.972656 3 64.949219 3.023438 64.949219 3.050781 V 0.0507812 C 64.949219 0.0234375 64.972656 0 65 0 H 71 C 71.027344 0 71.050781 0.0234375 71.050781 0.0507812 V 3.050781 C 71.050781 3.023438 71.027344 3 71 3 H 77 C 76.972656 3 76.949219 3.023438 76.949219 3.050781 V 0.0507812 C 76.949219 0.0234375 76.972656 0 77 0 H 83 C 83.027344 0 83.050781 0.0234375 83.050781 0.0507812 V 3.050781 C 83.050781 3.023438 83.027344 3 83 3 H 89 C 88.972656 3 88.949219 3.023438 88.949219 3.050781 V 0.0507812 C 88.949219 0.0234375 88.972656 0 89 0 H 100 C 100.027344 0 100.050781 0.0234375 100.050781 0.0507812 V 3.050781 L 100.050781 53.050781 C 100.050781 53.078125 100.027344 53.101562 100 53.101562 H 100 L -0.000000000000014211 53.101562 C -0.0273438 53.101562 -0.0507813 53.078125 -0.0507813 53.050781 H -0.0507813 L -0.0507812 43.050781 C -0.0507812 43.078125 -0.0273438 43.101562 0 43.101562 H -3 C -3.027344 43.101562 -3.050781 43.078125 -3.050781 43.050781 V 37.050781 C -3.050781 37.023438 -3.027344 37 -3 37 H 0 C -0.0273438 37 -0.0507812 37.023438 -0.0507812 37.050781 V 31.050781 C -0.0507812 31.078125 -0.0273438 31.101562 0 31.101562 H -3 C -3.027344 31.101562 -3.050781 31.078125 -3.050781 31.050781 V 25.050781 C -3.050781 25.023438 -3.027344 25 -3 25 H 0 C -0.0273438 25 -0.0507812 25.023438 -0.0507812 25.050781 V 19.050781 C -0.0507812 19.078125 -0.0273438 19.101562 0 19.101562 H -3 C -3.027344 19.101562 -3.050781 19.078125 -3.050781 19.050781 V 13.050781 C -3.050781 13.023438 -3.027344 13 -3 13 H 0 C -0.0273438 13 -0.0507812 13.023438 -0.0507812 13.050781 V 3.050781 L -0.0507812 0.0507812 C -0.0507812 0.0234375 -0.0273438 0 0 0 H 0 " style="fill:none;stroke-width:0.1;stroke-linecap:butt;stroke-linejoin:miter;stroke:rgb(0%,0%,0%);stroke-opacity:1;stroke-miterlimit:10;" transform="matrix(1.0000,0.0000,0.0000,-1.0000,120.6484,113.1016)"/>
<path d="M 0 0 H 100 C 100.027344 0 100.050781 0.0234375 100.050781 0.0507812 H 100.050781 V 11.050781 C 100.050781 11.023438 100.027344 11 100 11 H 103 C 103.027344 11 103.050781 11.023438 103.050781 11.050781 V 17.050781 C 103.050781 17.078125 103.027344 17.101562 103 17.101562 H 100 C 100.027344 17.101562 100.050781 17.078125 100.050781 17.050781 V 23.050781 C 100.050781 23.023438 100.027344 23 100 23 H 103 C 103.027344 23 103.050781 23.023438 103.050781 23.050781 V 29.050781 C 103.050781 29.078125 103.027344 29.101562 103 29.101562 H 100 C 100.027344 29.101562 100.050781 29.078125 100.050781 29.050781 V 35.050781 C 100.050781 35.023438 100.027344 35 100 35 H 103 C 103.027344 35 103.050781 35.023438 103.050781 35.050781 V 41.050781 C 103.050781 41.078125 103.027344 41.101562 103 41.101562 H 100 C 100.027344 41.101562 100.050781 41.078125 100.050781 41.050781 V 47.050781 C 100.050781 47.023438 100.027344 47 100 47 H 103 C 103.027344 47 103.050781 47.023438 103.050781 47.050781 V 53.050781 C 103.050781 53.078125 103.027344 53.101562 103 53.101562 H 100 C 100.027344 53.101562 100.050781 53.078125 100.050781 53.050781 V 59.050781 C 100.050781 59.023438 100.027344 59 100 59 H 103 C 103.027344 59 103.050781 59.023438 103.050781 59.050781 V 65.050781 C 103.050781 65.078125 103.027344 65.101562 103 65.101562 H 100 C 100.027344 65.101562 100.050781 65.078125 100.050781 65.050781 V 71.050781 C 100.050781 71.023438 100.027344 71 100 71 H 103 C 103.027344 71 103.050781 71.023438 103.050781 71.050781 V 77.050781 C 103.050781 77.078125 103.027344 77.101562 103 77.101562 H 100 C 100.027344 77.101562 100.050781 77.078125 100.050781 77.050781 V 83.050781 C 100.050781 83.023438 100.027344 83 100 83 H 103 C 103.027344 83 103.050781 83.023438 103.050781 83.050781 V 89.050781 C 103.050781 89.078125 103.027344 89.101562 103 89.101562 H 100 C 100.027344 89.101562 100.050781 89.078125 100.050781 89.050781 V 100.050781 C 100.050781 100.078125 100.027344 100.101562 100 100.101562 H 100 L 89 100.101562 C 89.027344 100.101562 89.050781 100.078125 89.050781 100.050781 V 103.050781 C 89.050781 103.078125 89.027344 103.101562 89 103.101562 H 83 C 82.972656 103.101562 82.949219 103.078125 82.949219 103.050781 V 100.050781 C 82.949219 100.078125 82.972656 100.101562 83 100.101562 H 77 C 77.027344 100.101562 77.050781 100.078125 77.050781 100.050781 V 103.050781 C 77.050781 103.078125 77.027344 103.101562 77 103.101562 H 71 C 70.972656 103.101562 70.949219 103.078125 70.949219 103.050781 V 100.050781 C 70.949219 100.078125 70.972656 100.101562 71 100.101562 H 65 C 65.027344 100.101562 65.050781 100.078125 65.050781 100.050781 V 103.050781 C 65.050781 103.078125 65.027344 103.101562 65 103.101562 H 59 C 58.972656 103.101562 58.949219 103.078125 58.949219 103.050781 V 100.050781 C 58.949219 100.078125 58.972656 100.101562 59 100.101562 H 53 C 53.027344 100.101562 53.050781 100.078125 53.050781 100.050781 V 103.050781 C 53.050781 103.078125 53.027344 103.101562 53 103.101562 H 47 C 46.972656 103.101562 46.949219 103.078125 46.949219 103.050781 V 100.050781 C 46.949219 100.078125 46.972656 100.101562 47 100.101562 H 41 C 41.027344 100.101562 41.050781 100.078125 41.050781 100.050781 V 103.050781 C 41.050781 103.078125 41.027344 103.101562 41 103.101562 H 35 C 34.972656 103.101562 34.949219 103.078125 34.949219 103.050781 V 100.050781 C 34.949219 100.078125 34.972656 100.101562 35 100.101562 H 29 C 29.027344 100.101562 29.050781 100.078125 29.050781 100.050781 V 103.050781 C 29.050781 103.078125 29.027344 103.101562 29 103.101562 H 23 C 22.972656 103.101562 22.949219 103.078125 22.949219 103.050781 V 100.050781 C 22.949219 100.078125 22.972656 100.101562 23 100.101562 H 17 C 17.027344 100.101562 17.050781 100.078125 17.050781 100.050781 V 103.050781 C 17.050781 103.078125 17.027344 103.101562 17 103.101562 H 11 C 10.972656 103.101562 10.949219 103.078125 10.949219 103.050781 V 100.050781 C 10.949219 100.078125 10.972656 100.101562 11 100.101562 H -0.000000000000024425 C -0.0273438 100.101562 -0.0507813 100.078125 -0.0507813 100.050781 H -0.0507813 V 89.050781 C -0.0507813 89.078125 -0.0273438 89.101562 -0.00000000000002176 89.101562 H -3 C -3.027344 89.101562 -3.050781 89.078125 -3.050781 89.050781 V 83.050781 C -3.050781 83.023438 -3.027344 83 -3 83 H -0.000000000000020428 C -0.0273438 83 -0.0507813 83.023438 -0.0507813 83.050781 V 77.050781 C -0.0507813 77.078125 -0.0273438 77.101562 -0.000000000000019096 77.101562 H -3 C -3.027344 77.101562 -3.050781 77.078125 -3.050781 77.050781 V 71.050781 C -3.050781 71.023438 -3.027344 71 -3 71 H -0.000000000000017319 C -0.0273438 71 -0.0507813 71.023438 -0.0507813 71.050781 V 65.050781 C -0.0507813 65.078125 -0.0273438 65.101562 -0.000000000000015987 65.101562 H -3 C -3.027344 65.101562 -3.050781 65.078125 -3.050781 65.050781 V 59.050781 C -3.050781 59.023438 -3.027344 59 -3 59 H -0.000000000000014655 C -0.0273438 59 -0.0507813 59.023438 -0.0507813 59.050781 V 53.050781 C -0.0507813 53.078125 -0.0273438 53.101562 -0.000000000000013323 53.101562 H -3 C -3.027344 53.101562 -3.050781 53.078125 -3.050781 53.050781 V 47.050781 C -3.050781 47.023438 -3.027344 47 -3 47 H -0.000000000000011546 C -0.0273438 47 -0.0507813 47.023438 -0.0507813 47.050781 V 41.050781 C -0.0507813 41.078125 -0.0273438 41.101562 -0.000000000000010214 41.101562 H -3 C -3.027344 41.101562 -3.050781 41.078125 -3.050781 41.050781 V 35.050781 C -3.050781 35.023438 -3.027344 35 -3 35 H -0.000000000000008882 C -0.0273438 35 -0.0507813 35.023438 -0.0507813 35.050781 V 29.050781 C -0.0507813 29.078125 -0.0273438 29.101562 -0.000000000000007105 29.101562 H -3 C -3.027344 29.101562 -3.050781 29.078125 -3.050781 29.050781 V 23.050781 C -3.050781 23.023438 -3.027344 23 -3 23 H -0.000000000000005773 C -0.0273438 23 -0.0507813 23.023438 -0.0507813 23.050781 V 17.050781 C -0.0507813 17.078125 -0.0273438 17.101562 -0.000000000000004441 17.101562 H -3 C -3.027344 17.101562 -3.050781 17.078125 -3.050781 17.050781 V 11.050781 C -3.050781 11.023438 -3.027344 11 -3 11 H -0.000000000000002665 C -0.0273438 11 -0.0507813 11.023438 -0.0507813 11.050781 L -0.0507812 0.0507812 C -0.0507812 0.0234375 -0.0273438 0 0 0 H 0 " style="fill:none;stroke-width:0.1;stroke-linecap:butt;stroke-linejoin:miter;stroke:rgb(0%,0%,0%);stroke-opacity:1;stroke-miterlimit:10;" transform="matrix(1.0000,0.0000,0.0000,-1.0000,13.0508,113.1016)"/>
</g>
</svg>