solid OpenSCAD_Model
  facet normal 0.866025 0.5 0
    outer loop
      vertex 38.3689 17.0829 23
      vertex 33.9787 24.687 5
      vertex 33.9787 24.687 23
    endloop
  endfacet
  facet normal 0.866025 0.5 0
    outer loop
      vertex 33.9787 24.687 5
      vertex 38.3689 17.0829 23
      vertex 38.3689 17.0829 5
    endloop
  endfacet
  facet normal 0 1 -0
    outer loop
      vertex 4.39019 41.7699 5
      vertex -4.39019 41.7699 23
      vertex 4.39019 41.7699 23
    endloop
  endfacet
  facet normal 0 1 0
    outer loop
      vertex -4.39019 41.7699 23
      vertex 4.39019 41.7699 5
      vertex -4.39019 41.7699 5
    endloop
  endfacet
  facet normal -0.951056 0.309017 0
    outer loop
      vertex -41.0822 8.73229 5
      vertex -38.3689 17.0829 23
      vertex -38.3689 17.0829 5
    endloop
  endfacet
  facet normal -0.951056 0.309017 0
    outer loop
      vertex -38.3689 17.0829 23
      vertex -41.0822 8.73229 5
      vertex -41.0822 8.73229 23
    endloop
  endfacet
  facet normal 0.743145 0.669131 0
    outer loop
      vertex 33.9787 24.687 23
      vertex 28.1035 31.2121 5
      vertex 28.1035 31.2121 23
    endloop
  endfacet
  facet normal 0.743145 0.669131 0
    outer loop
      vertex 28.1035 31.2121 5
      vertex 33.9787 24.687 23
      vertex 33.9787 24.687 5
    endloop
  endfacet
  facet normal 0.207912 0.978148 -0
    outer loop
      vertex 12.9787 39.9444 5
      vertex 4.39019 41.7699 23
      vertex 12.9787 39.9444 23
    endloop
  endfacet
  facet normal 0.207912 0.978148 0
    outer loop
      vertex 4.39019 41.7699 23
      vertex 12.9787 39.9444 5
      vertex 4.39019 41.7699 5
    endloop
  endfacet
  facet normal -0.406737 0.913545 0
    outer loop
      vertex -12.9787 39.9444 5
      vertex -21 36.3731 23
      vertex -12.9787 39.9444 23
    endloop
  endfacet
  facet normal -0.406737 0.913545 0
    outer loop
      vertex -21 36.3731 23
      vertex -12.9787 39.9444 5
      vertex -21 36.3731 5
    endloop
  endfacet
  facet normal -0.866025 0.5 0
    outer loop
      vertex -38.3689 17.0829 5
      vertex -33.9787 24.687 23
      vertex -33.9787 24.687 5
    endloop
  endfacet
  facet normal -0.866025 0.5 0
    outer loop
      vertex -33.9787 24.687 23
      vertex -38.3689 17.0829 5
      vertex -38.3689 17.0829 23
    endloop
  endfacet
  facet normal -0.587785 0.809017 0
    outer loop
      vertex -21 36.3731 5
      vertex -28.1035 31.2121 23
      vertex -21 36.3731 23
    endloop
  endfacet
  facet normal -0.587785 0.809017 0
    outer loop
      vertex -28.1035 31.2121 23
      vertex -21 36.3731 5
      vertex -28.1035 31.2121 5
    endloop
  endfacet
  facet normal 0.994522 -0.104528 0
    outer loop
      vertex 41.0822 -8.73229 23
      vertex 42 0 5
      vertex 42 0 23
    endloop
  endfacet
  facet normal 0.994522 -0.104528 0
    outer loop
      vertex 42 0 5
      vertex 41.0822 -8.73229 23
      vertex 41.0822 -8.73229 5
    endloop
  endfacet
  facet normal 0.207912 -0.978148 0
    outer loop
      vertex 4.39019 -41.7699 5
      vertex 12.9787 -39.9444 23
      vertex 4.39019 -41.7699 23
    endloop
  endfacet
  facet normal 0.207912 -0.978148 0
    outer loop
      vertex 12.9787 -39.9444 23
      vertex 4.39019 -41.7699 5
      vertex 12.9787 -39.9444 5
    endloop
  endfacet
  facet normal 0.587785 0.809017 -0
    outer loop
      vertex 28.1035 31.2121 5
      vertex 21 36.3731 23
      vertex 28.1035 31.2121 23
    endloop
  endfacet
  facet normal 0.587785 0.809017 0
    outer loop
      vertex 21 36.3731 23
      vertex 28.1035 31.2121 5
      vertex 21 36.3731 5
    endloop
  endfacet
  facet normal 0.406737 0.913545 -0
    outer loop
      vertex 21 36.3731 5
      vertex 12.9787 39.9444 23
      vertex 21 36.3731 23
    endloop
  endfacet
  facet normal 0.406737 0.913545 0
    outer loop
      vertex 12.9787 39.9444 23
      vertex 21 36.3731 5
      vertex 12.9787 39.9444 5
    endloop
  endfacet
  facet normal -0.994522 0.104528 0
    outer loop
      vertex -42 0 5
      vertex -41.0822 8.73229 23
      vertex -41.0822 8.73229 5
    endloop
  endfacet
  facet normal -0.994522 0.104528 0
    outer loop
      vertex -41.0822 8.73229 23
      vertex -42 0 5
      vertex -42 0 23
    endloop
  endfacet
  facet normal -0.743145 0.669131 0
    outer loop
      vertex -33.9787 24.687 5
      vertex -28.1035 31.2121 23
      vertex -28.1035 31.2121 5
    endloop
  endfacet
  facet normal -0.743145 0.669131 0
    outer loop
      vertex -28.1035 31.2121 23
      vertex -33.9787 24.687 5
      vertex -33.9787 24.687 23
    endloop
  endfacet
  facet normal -0.207912 0.978148 0
    outer loop
      vertex -4.39019 41.7699 5
      vertex -12.9787 39.9444 23
      vertex -4.39019 41.7699 23
    endloop
  endfacet
  facet normal -0.207912 0.978148 0
    outer loop
      vertex -12.9787 39.9444 23
      vertex -4.39019 41.7699 5
      vertex -12.9787 39.9444 5
    endloop
  endfacet
  facet normal 0.994522 0.104528 0
    outer loop
      vertex 42 0 23
      vertex 41.0822 8.73229 5
      vertex 41.0822 8.73229 23
    endloop
  endfacet
  facet normal 0.994522 0.104528 0
    outer loop
      vertex 41.0822 8.73229 5
      vertex 42 0 23
      vertex 42 0 5
    endloop
  endfacet
  facet normal -0.587785 -0.809017 0
    outer loop
      vertex -28.1035 -31.2121 5
      vertex -21 -36.3731 23
      vertex -28.1035 -31.2121 23
    endloop
  endfacet
  facet normal -0.587785 -0.809017 -0
    outer loop
      vertex -21 -36.3731 23
      vertex -28.1035 -31.2121 5
      vertex -21 -36.3731 5
    endloop
  endfacet
  facet normal -0.866025 -0.5 0
    outer loop
      vertex -33.9787 -24.687 5
      vertex -38.3689 -17.0829 23
      vertex -38.3689 -17.0829 5
    endloop
  endfacet
  facet normal -0.866025 -0.5 0
    outer loop
      vertex -38.3689 -17.0829 23
      vertex -33.9787 -24.687 5
      vertex -33.9787 -24.687 23
    endloop
  endfacet
  facet normal 0.587785 -0.809017 0
    outer loop
      vertex 21 -36.3731 5
      vertex 28.1035 -31.2121 23
      vertex 21 -36.3731 23
    endloop
  endfacet
  facet normal 0.587785 -0.809017 0
    outer loop
      vertex 28.1035 -31.2121 23
      vertex 21 -36.3731 5
      vertex 28.1035 -31.2121 5
    endloop
  endfacet
  facet normal 0.951056 0.309017 0
    outer loop
      vertex 41.0822 8.73229 23
      vertex 38.3689 17.0829 5
      vertex 38.3689 17.0829 23
    endloop
  endfacet
  facet normal 0.951056 0.309017 0
    outer loop
      vertex 38.3689 17.0829 5
      vertex 41.0822 8.73229 23
      vertex 41.0822 8.73229 5
    endloop
  endfacet
  facet normal 0 0 1
    outer loop
      vertex 30 0 23
      vertex 42 0 23
      vertex 41.0822 8.73229 23
    endloop
  endfacet
  facet normal 0 0 1
    outer loop
      vertex 29.3444 6.23735 23
      vertex 41.0822 8.73229 23
      vertex 38.3689 17.0829 23
    endloop
  endfacet
  facet normal 0 0 1
    outer loop
      vertex 42 0 23
      vertex 30 0 23
      vertex 41.0822 -8.73229 23
    endloop
  endfacet
  facet normal 0 0 1
    outer loop
      vertex 27.4064 12.2021 23
      vertex 38.3689 17.0829 23
      vertex 33.9787 24.687 23
    endloop
  endfacet
  facet normal -0 0 1
    outer loop
      vertex 29.3444 -6.23735 23
      vertex 41.0822 -8.73229 23
      vertex 30 0 23
    endloop
  endfacet
  facet normal 0 0 1
    outer loop
      vertex 41.0822 -8.73229 23
      vertex 29.3444 -6.23735 23
      vertex 38.3689 -17.0829 23
    endloop
  endfacet
  facet normal 0 0 1
    outer loop
      vertex 41.0822 8.73229 23
      vertex 29.3444 6.23735 23
      vertex 30 0 23
    endloop
  endfacet
  facet normal 0 0 1
    outer loop
      vertex 24.2705 17.6336 23
      vertex 33.9787 24.687 23
      vertex 28.1035 31.2121 23
    endloop
  endfacet
  facet normal 0 0 1
    outer loop
      vertex 38.3689 17.0829 23
      vertex 27.4064 12.2021 23
      vertex 29.3444 6.23735 23
    endloop
  endfacet
  facet normal 0 0 1
    outer loop
      vertex 33.9787 24.687 23
      vertex 24.2705 17.6336 23
      vertex 27.4064 12.2021 23
    endloop
  endfacet
  facet normal 0 0 1
    outer loop
      vertex 20.0739 22.2943 23
      vertex 28.1035 31.2121 23
      vertex 21 36.3731 23
    endloop
  endfacet
  facet normal 0 0 1
    outer loop
      vertex 28.1035 31.2121 23
      vertex 20.0739 22.2943 23
      vertex 24.2705 17.6336 23
    endloop
  endfacet
  facet normal 0 0 1
    outer loop
      vertex 21 36.3731 23
      vertex 15 25.9808 23
      vertex 20.0739 22.2943 23
    endloop
  endfacet
  facet normal 0 0 1
    outer loop
      vertex 12.9787 39.9444 23
      vertex 15 25.9808 23
      vertex 21 36.3731 23
    endloop
  endfacet
  facet normal 0 0 1
    outer loop
      vertex 12.9787 39.9444 23
      vertex 9.27051 28.5317 23
      vertex 15 25.9808 23
    endloop
  endfacet
  facet normal 0 0 1
    outer loop
      vertex 4.39019 41.7699 23
      vertex 9.27051 28.5317 23
      vertex 12.9787 39.9444 23
    endloop
  endfacet
  facet normal 0 0 1
    outer loop
      vertex 4.39019 41.7699 23
      vertex 3.13585 29.8357 23
      vertex 9.27051 28.5317 23
    endloop
  endfacet
  facet normal 0 0 1
    outer loop
      vertex 4.39019 41.7699 23
      vertex -3.13585 29.8357 23
      vertex 3.13585 29.8357 23
    endloop
  endfacet
  facet normal -0 0 1
    outer loop
      vertex -4.39019 41.7699 23
      vertex -3.13585 29.8357 23
      vertex 4.39019 41.7699 23
    endloop
  endfacet
  facet normal 0 0 1
    outer loop
      vertex -4.39019 41.7699 23
      vertex -9.27051 28.5317 23
      vertex -3.13585 29.8357 23
    endloop
  endfacet
  facet normal -0 0 1
    outer loop
      vertex -12.9787 39.9444 23
      vertex -9.27051 28.5317 23
      vertex -4.39019 41.7699 23
    endloop
  endfacet
  facet normal 0 0 1
    outer loop
      vertex -12.9787 39.9444 23
      vertex -15 25.9808 23
      vertex -9.27051 28.5317 23
    endloop
  endfacet
  facet normal -0 0 1
    outer loop
      vertex -21 36.3731 23
      vertex -15 25.9808 23
      vertex -12.9787 39.9444 23
    endloop
  endfacet
  facet normal 0 0 1
    outer loop
      vertex -15 25.9808 23
      vertex -21 36.3731 23
      vertex -20.0739 22.2943 23
    endloop
  endfacet
  facet normal -0 0 1
    outer loop
      vertex -28.1035 31.2121 23
      vertex -20.0739 22.2943 23
      vertex -21 36.3731 23
    endloop
  endfacet
  facet normal 0 0 1
    outer loop
      vertex -20.0739 22.2943 23
      vertex -28.1035 31.2121 23
      vertex -24.2705 17.6336 23
    endloop
  endfacet
  facet normal -0 0 1
    outer loop
      vertex -33.9787 24.687 23
      vertex -24.2705 17.6336 23
      vertex -28.1035 31.2121 23
    endloop
  endfacet
  facet normal 0 0 1
    outer loop
      vertex -24.2705 17.6336 23
      vertex -33.9787 24.687 23
      vertex -27.4064 12.2021 23
    endloop
  endfacet
  facet normal -0 0 1
    outer loop
      vertex -38.3689 17.0829 23
      vertex -27.4064 12.2021 23
      vertex -33.9787 24.687 23
    endloop
  endfacet
  facet normal 0 0 1
    outer loop
      vertex -27.4064 12.2021 23
      vertex -38.3689 17.0829 23
      vertex -29.3444 6.23735 23
    endloop
  endfacet
  facet normal -0 0 1
    outer loop
      vertex 27.4064 -12.2021 23
      vertex 38.3689 -17.0829 23
      vertex 29.3444 -6.23735 23
    endloop
  endfacet
  facet normal 0 0 1
    outer loop
      vertex 38.3689 -17.0829 23
      vertex 27.4064 -12.2021 23
      vertex 33.9787 -24.687 23
    endloop
  endfacet
  facet normal -0 0 1
    outer loop
      vertex 24.2705 -17.6336 23
      vertex 33.9787 -24.687 23
      vertex 27.4064 -12.2021 23
    endloop
  endfacet
  facet normal 0 0 1
    outer loop
      vertex 33.9787 -24.687 23
      vertex 24.2705 -17.6336 23
      vertex 28.1035 -31.2121 23
    endloop
  endfacet
  facet normal -0 0 1
    outer loop
      vertex 20.0739 -22.2943 23
      vertex 28.1035 -31.2121 23
      vertex 24.2705 -17.6336 23
    endloop
  endfacet
  facet normal 0 0 1
    outer loop
      vertex 28.1035 -31.2121 23
      vertex 20.0739 -22.2943 23
      vertex 21 -36.3731 23
    endloop
  endfacet
  facet normal -0 0 1
    outer loop
      vertex 15 -25.9808 23
      vertex 21 -36.3731 23
      vertex 20.0739 -22.2943 23
    endloop
  endfacet
  facet normal 0 0 1
    outer loop
      vertex 15 -25.9808 23
      vertex 12.9787 -39.9444 23
      vertex 21 -36.3731 23
    endloop
  endfacet
  facet normal -0 0 1
    outer loop
      vertex 9.27051 -28.5317 23
      vertex 12.9787 -39.9444 23
      vertex 15 -25.9808 23
    endloop
  endfacet
  facet normal 0 0 1
    outer loop
      vertex 9.27051 -28.5317 23
      vertex 4.39019 -41.7699 23
      vertex 12.9787 -39.9444 23
    endloop
  endfacet
  facet normal -0 0 1
    outer loop
      vertex 3.13585 -29.8357 23
      vertex 4.39019 -41.7699 23
      vertex 9.27051 -28.5317 23
    endloop
  endfacet
  facet normal -0 0 1
    outer loop
      vertex -3.13585 -29.8357 23
      vertex 4.39019 -41.7699 23
      vertex 3.13585 -29.8357 23
    endloop
  endfacet
  facet normal 0 0 1
    outer loop
      vertex -3.13585 -29.8357 23
      vertex -4.39019 -41.7699 23
      vertex 4.39019 -41.7699 23
    endloop
  endfacet
  facet normal 0 0 1
    outer loop
      vertex -9.27051 -28.5317 23
      vertex -4.39019 -41.7699 23
      vertex -3.13585 -29.8357 23
    endloop
  endfacet
  facet normal 0 0 1
    outer loop
      vertex -9.27051 -28.5317 23
      vertex -12.9787 -39.9444 23
      vertex -4.39019 -41.7699 23
    endloop
  endfacet
  facet normal 0 0 1
    outer loop
      vertex -15 -25.9808 23
      vertex -12.9787 -39.9444 23
      vertex -9.27051 -28.5317 23
    endloop
  endfacet
  facet normal 0 0 1
    outer loop
      vertex -21 -36.3731 23
      vertex -15 -25.9808 23
      vertex -20.0739 -22.2943 23
    endloop
  endfacet
  facet normal 0 0 1
    outer loop
      vertex -15 -25.9808 23
      vertex -21 -36.3731 23
      vertex -12.9787 -39.9444 23
    endloop
  endfacet
  facet normal 0 0 1
    outer loop
      vertex -28.1035 -31.2121 23
      vertex -20.0739 -22.2943 23
      vertex -24.2705 -17.6336 23
    endloop
  endfacet
  facet normal 0 0 1
    outer loop
      vertex -33.9787 -24.687 23
      vertex -24.2705 -17.6336 23
      vertex -27.4064 -12.2021 23
    endloop
  endfacet
  facet normal 0 0 1
    outer loop
      vertex -20.0739 -22.2943 23
      vertex -28.1035 -31.2121 23
      vertex -21 -36.3731 23
    endloop
  endfacet
  facet normal 0 0 1
    outer loop
      vertex -38.3689 -17.0829 23
      vertex -27.4064 -12.2021 23
      vertex -29.3444 -6.23735 23
    endloop
  endfacet
  facet normal 0 0 1
    outer loop
      vertex -41.0822 -8.73229 23
      vertex -29.3444 -6.23735 23
      vertex -30 0 23
    endloop
  endfacet
  facet normal -0 0 1
    outer loop
      vertex -41.0822 8.73229 23
      vertex -29.3444 6.23735 23
      vertex -38.3689 17.0829 23
    endloop
  endfacet
  facet normal 0 0 1
    outer loop
      vertex -24.2705 -17.6336 23
      vertex -33.9787 -24.687 23
      vertex -28.1035 -31.2121 23
    endloop
  endfacet
  facet normal 0 0 1
    outer loop
      vertex -29.3444 6.23735 23
      vertex -41.0822 8.73229 23
      vertex -30 0 23
    endloop
  endfacet
  facet normal 0 0 1
    outer loop
      vertex -27.4064 -12.2021 23
      vertex -38.3689 -17.0829 23
      vertex -33.9787 -24.687 23
    endloop
  endfacet
  facet normal 0 0 1
    outer loop
      vertex -42 0 23
      vertex -30 0 23
      vertex -41.0822 8.73229 23
    endloop
  endfacet
  facet normal 0 0 1
    outer loop
      vertex -29.3444 -6.23735 23
      vertex -41.0822 -8.73229 23
      vertex -38.3689 -17.0829 23
    endloop
  endfacet
  facet normal 0 0 1
    outer loop
      vertex -30 0 23
      vertex -42 0 23
      vertex -41.0822 -8.73229 23
    endloop
  endfacet
  facet normal 0.866025 -0.5 0
    outer loop
      vertex 33.9787 -24.687 23
      vertex 38.3689 -17.0829 5
      vertex 38.3689 -17.0829 23
    endloop
  endfacet
  facet normal 0.866025 -0.5 0
    outer loop
      vertex 38.3689 -17.0829 5
      vertex 33.9787 -24.687 23
      vertex 33.9787 -24.687 5
    endloop
  endfacet
  facet normal -0.994522 -0.104528 0
    outer loop
      vertex -41.0822 -8.73229 5
      vertex -42 0 23
      vertex -42 0 5
    endloop
  endfacet
  facet normal -0.994522 -0.104528 0
    outer loop
      vertex -42 0 23
      vertex -41.0822 -8.73229 5
      vertex -41.0822 -8.73229 23
    endloop
  endfacet
  facet normal -0.743145 -0.669131 0
    outer loop
      vertex -28.1035 -31.2121 5
      vertex -33.9787 -24.687 23
      vertex -33.9787 -24.687 5
    endloop
  endfacet
  facet normal -0.743145 -0.669131 0
    outer loop
      vertex -33.9787 -24.687 23
      vertex -28.1035 -31.2121 5
      vertex -28.1035 -31.2121 23
    endloop
  endfacet
  facet normal 0.406737 -0.913545 0
    outer loop
      vertex 12.9787 -39.9444 5
      vertex 21 -36.3731 23
      vertex 12.9787 -39.9444 23
    endloop
  endfacet
  facet normal 0.406737 -0.913545 0
    outer loop
      vertex 21 -36.3731 23
      vertex 12.9787 -39.9444 5
      vertex 21 -36.3731 5
    endloop
  endfacet
  facet normal 0.951056 -0.309017 0
    outer loop
      vertex 38.3689 -17.0829 23
      vertex 41.0822 -8.73229 5
      vertex 41.0822 -8.73229 23
    endloop
  endfacet
  facet normal 0.951056 -0.309017 0
    outer loop
      vertex 41.0822 -8.73229 5
      vertex 38.3689 -17.0829 23
      vertex 38.3689 -17.0829 5
    endloop
  endfacet
  facet normal -0.406737 -0.913545 0
    outer loop
      vertex -21 -36.3731 5
      vertex -12.9787 -39.9444 23
      vertex -21 -36.3731 23
    endloop
  endfacet
  facet normal -0.406737 -0.913545 -0
    outer loop
      vertex -12.9787 -39.9444 23
      vertex -21 -36.3731 5
      vertex -12.9787 -39.9444 5
    endloop
  endfacet
  facet normal 0 -1 0
    outer loop
      vertex -4.39019 -41.7699 5
      vertex 4.39019 -41.7699 23
      vertex -4.39019 -41.7699 23
    endloop
  endfacet
  facet normal 0 -1 -0
    outer loop
      vertex 4.39019 -41.7699 23
      vertex -4.39019 -41.7699 5
      vertex 4.39019 -41.7699 5
    endloop
  endfacet
  facet normal 0 0 -1
    outer loop
      vertex 58.6889 -12.4747 0
      vertex 58.6889 12.4747 0
      vertex 60 0 0
    endloop
  endfacet
  facet normal 0 0 -1
    outer loop
      vertex 54.8127 -24.4042 0
      vertex 58.6889 12.4747 0
      vertex 58.6889 -12.4747 0
    endloop
  endfacet
  facet normal 0 0 -1
    outer loop
      vertex 54.8127 -24.4042 0
      vertex 54.8127 24.4042 0
      vertex 58.6889 12.4747 0
    endloop
  endfacet
  facet normal 0 0 -1
    outer loop
      vertex 48.541 -35.2671 0
      vertex 54.8127 24.4042 0
      vertex 54.8127 -24.4042 0
    endloop
  endfacet
  facet normal 0 0 -1
    outer loop
      vertex 48.541 -35.2671 0
      vertex 48.541 35.2671 0
      vertex 54.8127 24.4042 0
    endloop
  endfacet
  facet normal 0 0 -1
    outer loop
      vertex 40.1478 -44.5887 0
      vertex 48.541 35.2671 0
      vertex 48.541 -35.2671 0
    endloop
  endfacet
  facet normal 0 0 -1
    outer loop
      vertex 40.1478 -44.5887 0
      vertex 40.1478 44.5887 0
      vertex 48.541 35.2671 0
    endloop
  endfacet
  facet normal 0 0 -1
    outer loop
      vertex 30 -51.9615 0
      vertex 40.1478 44.5887 0
      vertex 40.1478 -44.5887 0
    endloop
  endfacet
  facet normal 0 0 -1
    outer loop
      vertex 30 -51.9615 0
      vertex 30 51.9615 0
      vertex 40.1478 44.5887 0
    endloop
  endfacet
  facet normal 0 0 -1
    outer loop
      vertex 18.541 -57.0634 0
      vertex 30 51.9615 0
      vertex 30 -51.9615 0
    endloop
  endfacet
  facet normal 0 0 -1
    outer loop
      vertex 18.541 -57.0634 0
      vertex 18.541 57.0634 0
      vertex 30 51.9615 0
    endloop
  endfacet
  facet normal 0 0 -1
    outer loop
      vertex 6.27171 -59.6713 0
      vertex 18.541 57.0634 0
      vertex 18.541 -57.0634 0
    endloop
  endfacet
  facet normal 0 0 -1
    outer loop
      vertex 6.27171 -59.6713 0
      vertex 6.27171 59.6713 0
      vertex 18.541 57.0634 0
    endloop
  endfacet
  facet normal 0 0 -1
    outer loop
      vertex -6.27171 -59.6713 0
      vertex 6.27171 59.6713 0
      vertex 6.27171 -59.6713 0
    endloop
  endfacet
  facet normal 0 0 -1
    outer loop
      vertex -6.27171 -59.6713 0
      vertex -6.27171 59.6713 0
      vertex 6.27171 59.6713 0
    endloop
  endfacet
  facet normal 0 0 -1
    outer loop
      vertex -18.541 -57.0634 0
      vertex -6.27171 59.6713 0
      vertex -6.27171 -59.6713 0
    endloop
  endfacet
  facet normal 0 0 -1
    outer loop
      vertex -18.541 -57.0634 0
      vertex -18.541 57.0634 0
      vertex -6.27171 59.6713 0
    endloop
  endfacet
  facet normal 0 0 -1
    outer loop
      vertex -30 -51.9615 0
      vertex -18.541 57.0634 0
      vertex -18.541 -57.0634 0
    endloop
  endfacet
  facet normal 0 0 -1
    outer loop
      vertex -30 -51.9615 0
      vertex -30 51.9615 0
      vertex -18.541 57.0634 0
    endloop
  endfacet
  facet normal 0 0 -1
    outer loop
      vertex -40.1478 -44.5887 0
      vertex -30 51.9615 0
      vertex -30 -51.9615 0
    endloop
  endfacet
  facet normal 0 0 -1
    outer loop
      vertex -40.1478 -44.5887 0
      vertex -40.1478 44.5887 0
      vertex -30 51.9615 0
    endloop
  endfacet
  facet normal 0 0 -1
    outer loop
      vertex -48.541 -35.2671 0
      vertex -40.1478 44.5887 0
      vertex -40.1478 -44.5887 0
    endloop
  endfacet
  facet normal 0 0 -1
    outer loop
      vertex -48.541 -35.2671 0
      vertex -48.541 35.2671 0
      vertex -40.1478 44.5887 0
    endloop
  endfacet
  facet normal 0 0 -1
    outer loop
      vertex -54.8127 -24.4042 0
      vertex -48.541 35.2671 0
      vertex -48.541 -35.2671 0
    endloop
  endfacet
  facet normal 0 0 -1
    outer loop
      vertex -54.8127 -24.4042 0
      vertex -54.8127 24.4042 0
      vertex -48.541 35.2671 0
    endloop
  endfacet
  facet normal 0 0 -1
    outer loop
      vertex -58.6889 -12.4747 0
      vertex -54.8127 24.4042 0
      vertex -54.8127 -24.4042 0
    endloop
  endfacet
  facet normal 0 0 -1
    outer loop
      vertex -58.6889 -12.4747 0
      vertex -58.6889 12.4747 0
      vertex -54.8127 24.4042 0
    endloop
  endfacet
  facet normal 0 -0 -1
    outer loop
      vertex -58.6889 12.4747 0
      vertex -58.6889 -12.4747 0
      vertex -60 0 0
    endloop
  endfacet
  facet normal -0.951056 -0.309017 0
    outer loop
      vertex -38.3689 -17.0829 5
      vertex -41.0822 -8.73229 23
      vertex -41.0822 -8.73229 5
    endloop
  endfacet
  facet normal -0.951056 -0.309017 0
    outer loop
      vertex -41.0822 -8.73229 23
      vertex -38.3689 -17.0829 5
      vertex -38.3689 -17.0829 23
    endloop
  endfacet
  facet normal 0.743145 -0.669131 0
    outer loop
      vertex 28.1035 -31.2121 23
      vertex 33.9787 -24.687 5
      vertex 33.9787 -24.687 23
    endloop
  endfacet
  facet normal 0.743145 -0.669131 0
    outer loop
      vertex 33.9787 -24.687 5
      vertex 28.1035 -31.2121 23
      vertex 28.1035 -31.2121 5
    endloop
  endfacet
  facet normal -0.207912 -0.978148 0
    outer loop
      vertex -12.9787 -39.9444 5
      vertex -4.39019 -41.7699 23
      vertex -12.9787 -39.9444 23
    endloop
  endfacet
  facet normal -0.207912 -0.978148 -0
    outer loop
      vertex -4.39019 -41.7699 23
      vertex -12.9787 -39.9444 5
      vertex -4.39019 -41.7699 5
    endloop
  endfacet
  facet normal 0.866025 0.5 0
    outer loop
      vertex 27.4064 12.2021 30
      vertex 24.2705 17.6336 23
      vertex 24.2705 17.6336 30
    endloop
  endfacet
  facet normal 0.866025 0.5 0
    outer loop
      vertex 24.2705 17.6336 23
      vertex 27.4064 12.2021 30
      vertex 27.4064 12.2021 23
    endloop
  endfacet
  facet normal -0.951057 0.309017 0
    outer loop
      vertex -29.3444 6.23735 23
      vertex -27.4064 12.2021 30
      vertex -27.4064 12.2021 23
    endloop
  endfacet
  facet normal -0.951057 0.309017 0
    outer loop
      vertex -27.4064 12.2021 30
      vertex -29.3444 6.23735 23
      vertex -29.3444 6.23735 30
    endloop
  endfacet
  facet normal 0.743145 0.669131 0
    outer loop
      vertex 24.2705 17.6336 30
      vertex 20.0739 22.2943 23
      vertex 20.0739 22.2943 30
    endloop
  endfacet
  facet normal 0.743145 0.669131 0
    outer loop
      vertex 20.0739 22.2943 23
      vertex 24.2705 17.6336 30
      vertex 24.2705 17.6336 23
    endloop
  endfacet
  facet normal -0.406737 0.913545 0
    outer loop
      vertex -9.27051 28.5317 23
      vertex -15 25.9808 30
      vertex -9.27051 28.5317 30
    endloop
  endfacet
  facet normal -0.406737 0.913545 0
    outer loop
      vertex -15 25.9808 30
      vertex -9.27051 28.5317 23
      vertex -15 25.9808 23
    endloop
  endfacet
  facet normal -0.866025 0.5 0
    outer loop
      vertex -27.4064 12.2021 23
      vertex -24.2705 17.6336 30
      vertex -24.2705 17.6336 23
    endloop
  endfacet
  facet normal -0.866025 0.5 0
    outer loop
      vertex -24.2705 17.6336 30
      vertex -27.4064 12.2021 23
      vertex -27.4064 12.2021 30
    endloop
  endfacet
  facet normal 0.994522 -0.104529 0
    outer loop
      vertex 29.3444 -6.23735 30
      vertex 30 0 23
      vertex 30 0 30
    endloop
  endfacet
  facet normal 0.994522 -0.104529 0
    outer loop
      vertex 30 0 23
      vertex 29.3444 -6.23735 30
      vertex 29.3444 -6.23735 23
    endloop
  endfacet
  facet normal 0.587785 0.809017 -0
    outer loop
      vertex 20.0739 22.2943 23
      vertex 15 25.9808 30
      vertex 20.0739 22.2943 30
    endloop
  endfacet
  facet normal 0.587785 0.809017 0
    outer loop
      vertex 15 25.9808 30
      vertex 20.0739 22.2943 23
      vertex 15 25.9808 23
    endloop
  endfacet
  facet normal 0 1 -0
    outer loop
      vertex 3.13585 29.8357 23
      vertex -3.13585 29.8357 30
      vertex 3.13585 29.8357 30
    endloop
  endfacet
  facet normal 0 1 0
    outer loop
      vertex -3.13585 29.8357 30
      vertex 3.13585 29.8357 23
      vertex -3.13585 29.8357 23
    endloop
  endfacet
  facet normal 0.406737 0.913545 -0
    outer loop
      vertex 15 25.9808 23
      vertex 9.27051 28.5317 30
      vertex 15 25.9808 30
    endloop
  endfacet
  facet normal 0.406737 0.913545 0
    outer loop
      vertex 9.27051 28.5317 30
      vertex 15 25.9808 23
      vertex 9.27051 28.5317 23
    endloop
  endfacet
  facet normal -0.994522 0.104529 0
    outer loop
      vertex -30 0 23
      vertex -29.3444 6.23735 30
      vertex -29.3444 6.23735 23
    endloop
  endfacet
  facet normal -0.994522 0.104529 0
    outer loop
      vertex -29.3444 6.23735 30
      vertex -30 0 23
      vertex -30 0 30
    endloop
  endfacet
  facet normal -0.587785 0.809017 0
    outer loop
      vertex -15 25.9808 23
      vertex -20.0739 22.2943 30
      vertex -15 25.9808 30
    endloop
  endfacet
  facet normal -0.587785 0.809017 0
    outer loop
      vertex -20.0739 22.2943 30
      vertex -15 25.9808 23
      vertex -20.0739 22.2943 23
    endloop
  endfacet
  facet normal -0.207911 0.978148 0
    outer loop
      vertex -3.13585 29.8357 23
      vertex -9.27051 28.5317 30
      vertex -3.13585 29.8357 30
    endloop
  endfacet
  facet normal -0.207911 0.978148 0
    outer loop
      vertex -9.27051 28.5317 30
      vertex -3.13585 29.8357 23
      vertex -9.27051 28.5317 23
    endloop
  endfacet
  facet normal -0.743145 0.669131 0
    outer loop
      vertex -24.2705 17.6336 23
      vertex -20.0739 22.2943 30
      vertex -20.0739 22.2943 23
    endloop
  endfacet
  facet normal -0.743145 0.669131 0
    outer loop
      vertex -20.0739 22.2943 30
      vertex -24.2705 17.6336 23
      vertex -24.2705 17.6336 30
    endloop
  endfacet
  facet normal 0.994522 0.104529 0
    outer loop
      vertex 30 0 30
      vertex 29.3444 6.23735 23
      vertex 29.3444 6.23735 30
    endloop
  endfacet
  facet normal 0.994522 0.104529 0
    outer loop
      vertex 29.3444 6.23735 23
      vertex 30 0 30
      vertex 30 0 23
    endloop
  endfacet
  facet normal -0.207911 -0.978148 0
    outer loop
      vertex -9.27051 -28.5317 23
      vertex -3.13585 -29.8357 30
      vertex -9.27051 -28.5317 30
    endloop
  endfacet
  facet normal -0.207911 -0.978148 -0
    outer loop
      vertex -3.13585 -29.8357 30
      vertex -9.27051 -28.5317 23
      vertex -3.13585 -29.8357 23
    endloop
  endfacet
  facet normal 0.587785 -0.809017 0
    outer loop
      vertex 15 -25.9808 23
      vertex 20.0739 -22.2943 30
      vertex 15 -25.9808 30
    endloop
  endfacet
  facet normal 0.587785 -0.809017 0
    outer loop
      vertex 20.0739 -22.2943 30
      vertex 15 -25.9808 23
      vertex 20.0739 -22.2943 23
    endloop
  endfacet
  facet normal 0.951057 0.309017 0
    outer loop
      vertex 29.3444 6.23735 30
      vertex 27.4064 12.2021 23
      vertex 27.4064 12.2021 30
    endloop
  endfacet
  facet normal 0.951057 0.309017 0
    outer loop
      vertex 27.4064 12.2021 23
      vertex 29.3444 6.23735 30
      vertex 29.3444 6.23735 23
    endloop
  endfacet
  facet normal 0.207911 0.978148 -0
    outer loop
      vertex 9.27051 28.5317 23
      vertex 3.13585 29.8357 30
      vertex 9.27051 28.5317 30
    endloop
  endfacet
  facet normal 0.207911 0.978148 0
    outer loop
      vertex 3.13585 29.8357 30
      vertex 9.27051 28.5317 23
      vertex 3.13585 29.8357 23
    endloop
  endfacet
  facet normal 0 0 1
    outer loop
      vertex 16 0 30
      vertex 30 0 30
      vertex 29.3444 6.23735 30
    endloop
  endfacet
  facet normal 0 0 1
    outer loop
      vertex 15.6504 3.32659 30
      vertex 29.3444 6.23735 30
      vertex 27.4064 12.2021 30
    endloop
  endfacet
  facet normal 0 0 1
    outer loop
      vertex 30 0 30
      vertex 16 0 30
      vertex 29.3444 -6.23735 30
    endloop
  endfacet
  facet normal 0 0 1
    outer loop
      vertex 14.6167 6.50779 30
      vertex 27.4064 12.2021 30
      vertex 24.2705 17.6336 30
    endloop
  endfacet
  facet normal -0 0 1
    outer loop
      vertex 15.6504 -3.32659 30
      vertex 29.3444 -6.23735 30
      vertex 16 0 30
    endloop
  endfacet
  facet normal 0 0 1
    outer loop
      vertex 12.9443 9.40456 30
      vertex 24.2705 17.6336 30
      vertex 20.0739 22.2943 30
    endloop
  endfacet
  facet normal 0 0 1
    outer loop
      vertex 29.3444 -6.23735 30
      vertex 15.6504 -3.32659 30
      vertex 27.4064 -12.2021 30
    endloop
  endfacet
  facet normal -0 0 1
    outer loop
      vertex 14.6167 -6.50779 30
      vertex 27.4064 -12.2021 30
      vertex 15.6504 -3.32659 30
    endloop
  endfacet
  facet normal 0 0 1
    outer loop
      vertex 29.3444 6.23735 30
      vertex 15.6504 3.32659 30
      vertex 16 0 30
    endloop
  endfacet
  facet normal 0 0 1
    outer loop
      vertex 10.7061 11.8903 30
      vertex 20.0739 22.2943 30
      vertex 15 25.9808 30
    endloop
  endfacet
  facet normal 0 0 1
    outer loop
      vertex 27.4064 12.2021 30
      vertex 14.6167 6.50779 30
      vertex 15.6504 3.32659 30
    endloop
  endfacet
  facet normal 0 0 1
    outer loop
      vertex 24.2705 17.6336 30
      vertex 12.9443 9.40456 30
      vertex 14.6167 6.50779 30
    endloop
  endfacet
  facet normal 0 0 1
    outer loop
      vertex 20.0739 22.2943 30
      vertex 10.7061 11.8903 30
      vertex 12.9443 9.40456 30
    endloop
  endfacet
  facet normal 0 0 1
    outer loop
      vertex 8 13.8564 30
      vertex 15 25.9808 30
      vertex 9.27051 28.5317 30
    endloop
  endfacet
  facet normal 0 0 1
    outer loop
      vertex 15 25.9808 30
      vertex 8 13.8564 30
      vertex 10.7061 11.8903 30
    endloop
  endfacet
  facet normal 0 0 1
    outer loop
      vertex 9.27051 28.5317 30
      vertex 4.94427 15.2169 30
      vertex 8 13.8564 30
    endloop
  endfacet
  facet normal 0 0 1
    outer loop
      vertex 3.13585 29.8357 30
      vertex 4.94427 15.2169 30
      vertex 9.27051 28.5317 30
    endloop
  endfacet
  facet normal 0 0 1
    outer loop
      vertex 3.13585 29.8357 30
      vertex 1.67245 15.9123 30
      vertex 4.94427 15.2169 30
    endloop
  endfacet
  facet normal 0 0 1
    outer loop
      vertex 3.13585 29.8357 30
      vertex -1.67245 15.9123 30
      vertex 1.67245 15.9123 30
    endloop
  endfacet
  facet normal -0 0 1
    outer loop
      vertex -3.13585 29.8357 30
      vertex -1.67245 15.9123 30
      vertex 3.13585 29.8357 30
    endloop
  endfacet
  facet normal 0 0 1
    outer loop
      vertex -3.13585 29.8357 30
      vertex -4.94427 15.2169 30
      vertex -1.67245 15.9123 30
    endloop
  endfacet
  facet normal -0 0 1
    outer loop
      vertex -9.27051 28.5317 30
      vertex -4.94427 15.2169 30
      vertex -3.13585 29.8357 30
    endloop
  endfacet
  facet normal 0 0 1
    outer loop
      vertex -4.94427 15.2169 30
      vertex -9.27051 28.5317 30
      vertex -8 13.8564 30
    endloop
  endfacet
  facet normal -0 0 1
    outer loop
      vertex -15 25.9808 30
      vertex -8 13.8564 30
      vertex -9.27051 28.5317 30
    endloop
  endfacet
  facet normal 0 0 1
    outer loop
      vertex -8 13.8564 30
      vertex -15 25.9808 30
      vertex -10.7061 11.8903 30
    endloop
  endfacet
  facet normal -0 0 1
    outer loop
      vertex -20.0739 22.2943 30
      vertex -10.7061 11.8903 30
      vertex -15 25.9808 30
    endloop
  endfacet
  facet normal 0 0 1
    outer loop
      vertex -10.7061 11.8903 30
      vertex -20.0739 22.2943 30
      vertex -12.9443 9.40456 30
    endloop
  endfacet
  facet normal -0 0 1
    outer loop
      vertex -24.2705 17.6336 30
      vertex -12.9443 9.40456 30
      vertex -20.0739 22.2943 30
    endloop
  endfacet
  facet normal 0 0 1
    outer loop
      vertex -12.9443 9.40456 30
      vertex -24.2705 17.6336 30
      vertex -14.6167 6.50779 30
    endloop
  endfacet
  facet normal -0 0 1
    outer loop
      vertex -27.4064 12.2021 30
      vertex -14.6167 6.50779 30
      vertex -24.2705 17.6336 30
    endloop
  endfacet
  facet normal 0 0 1
    outer loop
      vertex 27.4064 -12.2021 30
      vertex 14.6167 -6.50779 30
      vertex 24.2705 -17.6336 30
    endloop
  endfacet
  facet normal -0 0 1
    outer loop
      vertex 12.9443 -9.40456 30
      vertex 24.2705 -17.6336 30
      vertex 14.6167 -6.50779 30
    endloop
  endfacet
  facet normal 0 0 1
    outer loop
      vertex 24.2705 -17.6336 30
      vertex 12.9443 -9.40456 30
      vertex 20.0739 -22.2943 30
    endloop
  endfacet
  facet normal -0 0 1
    outer loop
      vertex 10.7061 -11.8903 30
      vertex 20.0739 -22.2943 30
      vertex 12.9443 -9.40456 30
    endloop
  endfacet
  facet normal 0 0 1
    outer loop
      vertex 20.0739 -22.2943 30
      vertex 10.7061 -11.8903 30
      vertex 15 -25.9808 30
    endloop
  endfacet
  facet normal -0 0 1
    outer loop
      vertex 8 -13.8564 30
      vertex 15 -25.9808 30
      vertex 10.7061 -11.8903 30
    endloop
  endfacet
  facet normal 0 0 1
    outer loop
      vertex 15 -25.9808 30
      vertex 8 -13.8564 30
      vertex 9.27051 -28.5317 30
    endloop
  endfacet
  facet normal -0 0 1
    outer loop
      vertex 4.94427 -15.2169 30
      vertex 9.27051 -28.5317 30
      vertex 8 -13.8564 30
    endloop
  endfacet
  facet normal 0 0 1
    outer loop
      vertex 4.94427 -15.2169 30
      vertex 3.13585 -29.8357 30
      vertex 9.27051 -28.5317 30
    endloop
  endfacet
  facet normal -0 0 1
    outer loop
      vertex 1.67245 -15.9123 30
      vertex 3.13585 -29.8357 30
      vertex 4.94427 -15.2169 30
    endloop
  endfacet
  facet normal -0 0 1
    outer loop
      vertex -1.67245 -15.9123 30
      vertex 3.13585 -29.8357 30
      vertex 1.67245 -15.9123 30
    endloop
  endfacet
  facet normal 0 0 1
    outer loop
      vertex -1.67245 -15.9123 30
      vertex -3.13585 -29.8357 30
      vertex 3.13585 -29.8357 30
    endloop
  endfacet
  facet normal 0 0 1
    outer loop
      vertex -4.94427 -15.2169 30
      vertex -3.13585 -29.8357 30
      vertex -1.67245 -15.9123 30
    endloop
  endfacet
  facet normal 0 0 1
    outer loop
      vertex -9.27051 -28.5317 30
      vertex -4.94427 -15.2169 30
      vertex -8 -13.8564 30
    endloop
  endfacet
  facet normal 0 0 1
    outer loop
      vertex -4.94427 -15.2169 30
      vertex -9.27051 -28.5317 30
      vertex -3.13585 -29.8357 30
    endloop
  endfacet
  facet normal 0 0 1
    outer loop
      vertex -15 -25.9808 30
      vertex -8 -13.8564 30
      vertex -10.7061 -11.8903 30
    endloop
  endfacet
  facet normal 0 0 1
    outer loop
      vertex -20.0739 -22.2943 30
      vertex -10.7061 -11.8903 30
      vertex -12.9443 -9.40456 30
    endloop
  endfacet
  facet normal 0 0 1
    outer loop
      vertex -24.2705 -17.6336 30
      vertex -12.9443 -9.40456 30
      vertex -14.6167 -6.50779 30
    endloop
  endfacet
  facet normal 0 0 1
    outer loop
      vertex -8 -13.8564 30
      vertex -15 -25.9808 30
      vertex -9.27051 -28.5317 30
    endloop
  endfacet
  facet normal 0 0 1
    outer loop
      vertex -27.4064 -12.2021 30
      vertex -14.6167 -6.50779 30
      vertex -15.6504 -3.32659 30
    endloop
  endfacet
  facet normal 0 0 1
    outer loop
      vertex -29.3444 -6.23735 30
      vertex -15.6504 -3.32659 30
      vertex -16 0 30
    endloop
  endfacet
  facet normal 0 0 1
    outer loop
      vertex -14.6167 6.50779 30
      vertex -27.4064 12.2021 30
      vertex -15.6504 3.32659 30
    endloop
  endfacet
  facet normal 0 0 1
    outer loop
      vertex -10.7061 -11.8903 30
      vertex -20.0739 -22.2943 30
      vertex -15 -25.9808 30
    endloop
  endfacet
  facet normal -0 0 1
    outer loop
      vertex -29.3444 6.23735 30
      vertex -15.6504 3.32659 30
      vertex -27.4064 12.2021 30
    endloop
  endfacet
  facet normal 0 0 1
    outer loop
      vertex -12.9443 -9.40456 30
      vertex -24.2705 -17.6336 30
      vertex -20.0739 -22.2943 30
    endloop
  endfacet
  facet normal 0 0 1
    outer loop
      vertex -15.6504 3.32659 30
      vertex -29.3444 6.23735 30
      vertex -16 0 30
    endloop
  endfacet
  facet normal 0 0 1
    outer loop
      vertex -14.6167 -6.50779 30
      vertex -27.4064 -12.2021 30
      vertex -24.2705 -17.6336 30
    endloop
  endfacet
  facet normal 0 0 1
    outer loop
      vertex -30 0 30
      vertex -16 0 30
      vertex -29.3444 6.23735 30
    endloop
  endfacet
  facet normal 0 0 1
    outer loop
      vertex -15.6504 -3.32659 30
      vertex -29.3444 -6.23735 30
      vertex -27.4064 -12.2021 30
    endloop
  endfacet
  facet normal 0 0 1
    outer loop
      vertex -16 0 30
      vertex -30 0 30
      vertex -29.3444 -6.23735 30
    endloop
  endfacet
  facet normal 0.951057 -0.309017 0
    outer loop
      vertex 27.4064 -12.2021 30
      vertex 29.3444 -6.23735 23
      vertex 29.3444 -6.23735 30
    endloop
  endfacet
  facet normal 0.951057 -0.309017 0
    outer loop
      vertex 29.3444 -6.23735 23
      vertex 27.4064 -12.2021 30
      vertex 27.4064 -12.2021 23
    endloop
  endfacet
  facet normal 0.866025 -0.5 0
    outer loop
      vertex 24.2705 -17.6336 30
      vertex 27.4064 -12.2021 23
      vertex 27.4064 -12.2021 30
    endloop
  endfacet
  facet normal 0.866025 -0.5 0
    outer loop
      vertex 27.4064 -12.2021 23
      vertex 24.2705 -17.6336 30
      vertex 24.2705 -17.6336 23
    endloop
  endfacet
  facet normal -0.994522 -0.104529 0
    outer loop
      vertex -29.3444 -6.23735 23
      vertex -30 0 30
      vertex -30 0 23
    endloop
  endfacet
  facet normal -0.994522 -0.104529 0
    outer loop
      vertex -30 0 30
      vertex -29.3444 -6.23735 23
      vertex -29.3444 -6.23735 30
    endloop
  endfacet
  facet normal 0.207911 -0.978148 0
    outer loop
      vertex 3.13585 -29.8357 23
      vertex 9.27051 -28.5317 30
      vertex 3.13585 -29.8357 30
    endloop
  endfacet
  facet normal 0.207911 -0.978148 0
    outer loop
      vertex 9.27051 -28.5317 30
      vertex 3.13585 -29.8357 23
      vertex 9.27051 -28.5317 23
    endloop
  endfacet
  facet normal 0.406737 -0.913545 0
    outer loop
      vertex 9.27051 -28.5317 23
      vertex 15 -25.9808 30
      vertex 9.27051 -28.5317 30
    endloop
  endfacet
  facet normal 0.406737 -0.913545 0
    outer loop
      vertex 15 -25.9808 30
      vertex 9.27051 -28.5317 23
      vertex 15 -25.9808 23
    endloop
  endfacet
  facet normal 0.743145 -0.669131 0
    outer loop
      vertex 20.0739 -22.2943 30
      vertex 24.2705 -17.6336 23
      vertex 24.2705 -17.6336 30
    endloop
  endfacet
  facet normal 0.743145 -0.669131 0
    outer loop
      vertex 24.2705 -17.6336 23
      vertex 20.0739 -22.2943 30
      vertex 20.0739 -22.2943 23
    endloop
  endfacet
  facet normal -0.406737 -0.913545 0
    outer loop
      vertex -15 -25.9808 23
      vertex -9.27051 -28.5317 30
      vertex -15 -25.9808 30
    endloop
  endfacet
  facet normal -0.406737 -0.913545 -0
    outer loop
      vertex -9.27051 -28.5317 30
      vertex -15 -25.9808 23
      vertex -9.27051 -28.5317 23
    endloop
  endfacet
  facet normal 0 -1 0
    outer loop
      vertex -3.13585 -29.8357 23
      vertex 3.13585 -29.8357 30
      vertex -3.13585 -29.8357 30
    endloop
  endfacet
  facet normal 0 -1 -0
    outer loop
      vertex 3.13585 -29.8357 30
      vertex -3.13585 -29.8357 23
      vertex 3.13585 -29.8357 23
    endloop
  endfacet
  facet normal -0.951057 -0.309017 0
    outer loop
      vertex -27.4064 -12.2021 23
      vertex -29.3444 -6.23735 30
      vertex -29.3444 -6.23735 23
    endloop
  endfacet
  facet normal -0.951057 -0.309017 0
    outer loop
      vertex -29.3444 -6.23735 30
      vertex -27.4064 -12.2021 23
      vertex -27.4064 -12.2021 30
    endloop
  endfacet
  facet normal -0.743145 -0.669131 0
    outer loop
      vertex -20.0739 -22.2943 23
      vertex -24.2705 -17.6336 30
      vertex -24.2705 -17.6336 23
    endloop
  endfacet
  facet normal -0.743145 -0.669131 0
    outer loop
      vertex -24.2705 -17.6336 30
      vertex -20.0739 -22.2943 23
      vertex -20.0739 -22.2943 30
    endloop
  endfacet
  facet normal -0.866025 -0.5 0
    outer loop
      vertex -24.2705 -17.6336 23
      vertex -27.4064 -12.2021 30
      vertex -27.4064 -12.2021 23
    endloop
  endfacet
  facet normal -0.866025 -0.5 0
    outer loop
      vertex -27.4064 -12.2021 30
      vertex -24.2705 -17.6336 23
      vertex -24.2705 -17.6336 30
    endloop
  endfacet
  facet normal -0.587785 -0.809017 0
    outer loop
      vertex -20.0739 -22.2943 23
      vertex -15 -25.9808 30
      vertex -20.0739 -22.2943 30
    endloop
  endfacet
  facet normal -0.587785 -0.809017 -0
    outer loop
      vertex -15 -25.9808 30
      vertex -20.0739 -22.2943 23
      vertex -15 -25.9808 23
    endloop
  endfacet
  facet normal 0.866025 0.5 0
    outer loop
      vertex 54.8127 24.4042 5
      vertex 48.541 35.2671 0
      vertex 48.541 35.2671 5
    endloop
  endfacet
  facet normal 0.866025 0.5 0
    outer loop
      vertex 48.541 35.2671 0
      vertex 54.8127 24.4042 5
      vertex 54.8127 24.4042 0
    endloop
  endfacet
  facet normal -0.951057 0.309017 0
    outer loop
      vertex -58.6889 12.4747 0
      vertex -54.8127 24.4042 5
      vertex -54.8127 24.4042 0
    endloop
  endfacet
  facet normal -0.951057 0.309017 0
    outer loop
      vertex -54.8127 24.4042 5
      vertex -58.6889 12.4747 0
      vertex -58.6889 12.4747 5
    endloop
  endfacet
  facet normal 0.743145 0.669131 0
    outer loop
      vertex 48.541 35.2671 5
      vertex 40.1478 44.5887 0
      vertex 40.1478 44.5887 5
    endloop
  endfacet
  facet normal 0.743145 0.669131 0
    outer loop
      vertex 40.1478 44.5887 0
      vertex 48.541 35.2671 5
      vertex 48.541 35.2671 0
    endloop
  endfacet
  facet normal 0.207912 0.978148 -0
    outer loop
      vertex 18.541 57.0634 0
      vertex 6.27171 59.6713 5
      vertex 18.541 57.0634 5
    endloop
  endfacet
  facet normal 0.207912 0.978148 0
    outer loop
      vertex 6.27171 59.6713 5
      vertex 18.541 57.0634 0
      vertex 6.27171 59.6713 0
    endloop
  endfacet
  facet normal 0.406737 0.913545 -0
    outer loop
      vertex 30 51.9615 0
      vertex 18.541 57.0634 5
      vertex 30 51.9615 5
    endloop
  endfacet
  facet normal 0.406737 0.913545 0
    outer loop
      vertex 18.541 57.0634 5
      vertex 30 51.9615 0
      vertex 18.541 57.0634 0
    endloop
  endfacet
  facet normal -0.406737 0.913545 0
    outer loop
      vertex -18.541 57.0634 0
      vertex -30 51.9615 5
      vertex -18.541 57.0634 5
    endloop
  endfacet
  facet normal -0.406737 0.913545 0
    outer loop
      vertex -30 51.9615 5
      vertex -18.541 57.0634 0
      vertex -30 51.9615 0
    endloop
  endfacet
  facet normal 0.994522 -0.104529 0
    outer loop
      vertex 58.6889 -12.4747 5
      vertex 60 0 0
      vertex 60 0 5
    endloop
  endfacet
  facet normal 0.994522 -0.104529 0
    outer loop
      vertex 60 0 0
      vertex 58.6889 -12.4747 5
      vertex 58.6889 -12.4747 0
    endloop
  endfacet
  facet normal 0.951057 0.309017 0
    outer loop
      vertex 58.6889 12.4747 5
      vertex 54.8127 24.4042 0
      vertex 54.8127 24.4042 5
    endloop
  endfacet
  facet normal 0.951057 0.309017 0
    outer loop
      vertex 54.8127 24.4042 0
      vertex 58.6889 12.4747 5
      vertex 58.6889 12.4747 0
    endloop
  endfacet
  facet normal 0.587785 0.809017 -0
    outer loop
      vertex 40.1478 44.5887 0
      vertex 30 51.9615 5
      vertex 40.1478 44.5887 5
    endloop
  endfacet
  facet normal 0.587785 0.809017 0
    outer loop
      vertex 30 51.9615 5
      vertex 40.1478 44.5887 0
      vertex 30 51.9615 0
    endloop
  endfacet
  facet normal 0 1 -0
    outer loop
      vertex 6.27171 59.6713 0
      vertex -6.27171 59.6713 5
      vertex 6.27171 59.6713 5
    endloop
  endfacet
  facet normal 0 1 0
    outer loop
      vertex -6.27171 59.6713 5
      vertex 6.27171 59.6713 0
      vertex -6.27171 59.6713 0
    endloop
  endfacet
  facet normal -0.994522 0.104529 0
    outer loop
      vertex -60 0 0
      vertex -58.6889 12.4747 5
      vertex -58.6889 12.4747 0
    endloop
  endfacet
  facet normal -0.994522 0.104529 0
    outer loop
      vertex -58.6889 12.4747 5
      vertex -60 0 0
      vertex -60 0 5
    endloop
  endfacet
  facet normal -0.866025 0.5 0
    outer loop
      vertex -54.8127 24.4042 0
      vertex -48.541 35.2671 5
      vertex -48.541 35.2671 0
    endloop
  endfacet
  facet normal -0.866025 0.5 0
    outer loop
      vertex -48.541 35.2671 5
      vertex -54.8127 24.4042 0
      vertex -54.8127 24.4042 5
    endloop
  endfacet
  facet normal -0.587785 0.809017 0
    outer loop
      vertex -30 51.9615 0
      vertex -40.1478 44.5887 5
      vertex -30 51.9615 5
    endloop
  endfacet
  facet normal -0.587785 0.809017 0
    outer loop
      vertex -40.1478 44.5887 5
      vertex -30 51.9615 0
      vertex -40.1478 44.5887 0
    endloop
  endfacet
  facet normal -0.207912 0.978148 0
    outer loop
      vertex -6.27171 59.6713 0
      vertex -18.541 57.0634 5
      vertex -6.27171 59.6713 5
    endloop
  endfacet
  facet normal -0.207912 0.978148 0
    outer loop
      vertex -18.541 57.0634 5
      vertex -6.27171 59.6713 0
      vertex -18.541 57.0634 0
    endloop
  endfacet
  facet normal -0.743145 0.669131 0
    outer loop
      vertex -48.541 35.2671 0
      vertex -40.1478 44.5887 5
      vertex -40.1478 44.5887 0
    endloop
  endfacet
  facet normal -0.743145 0.669131 0
    outer loop
      vertex -40.1478 44.5887 5
      vertex -48.541 35.2671 0
      vertex -48.541 35.2671 5
    endloop
  endfacet
  facet normal 0.994522 0.104529 0
    outer loop
      vertex 60 0 5
      vertex 58.6889 12.4747 0
      vertex 58.6889 12.4747 5
    endloop
  endfacet
  facet normal 0.994522 0.104529 0
    outer loop
      vertex 58.6889 12.4747 0
      vertex 60 0 5
      vertex 60 0 0
    endloop
  endfacet
  facet normal -0.207912 -0.978148 0
    outer loop
      vertex -18.541 -57.0634 0
      vertex -6.27171 -59.6713 5
      vertex -18.541 -57.0634 5
    endloop
  endfacet
  facet normal -0.207912 -0.978148 -0
    outer loop
      vertex -6.27171 -59.6713 5
      vertex -18.541 -57.0634 0
      vertex -6.27171 -59.6713 0
    endloop
  endfacet
  facet normal 0.587785 -0.809017 0
    outer loop
      vertex 30 -51.9615 0
      vertex 40.1478 -44.5887 5
      vertex 30 -51.9615 5
    endloop
  endfacet
  facet normal 0.587785 -0.809017 0
    outer loop
      vertex 40.1478 -44.5887 5
      vertex 30 -51.9615 0
      vertex 40.1478 -44.5887 0
    endloop
  endfacet
  facet normal 0 0 1
    outer loop
      vertex 42 0 5
      vertex 60 0 5
      vertex 58.6889 12.4747 5
    endloop
  endfacet
  facet normal 0 0 1
    outer loop
      vertex 41.0822 8.73229 5
      vertex 58.6889 12.4747 5
      vertex 54.8127 24.4042 5
    endloop
  endfacet
  facet normal 0 0 1
    outer loop
      vertex 60 0 5
      vertex 42 0 5
      vertex 58.6889 -12.4747 5
    endloop
  endfacet
  facet normal 0 0 1
    outer loop
      vertex 38.3689 17.0829 5
      vertex 54.8127 24.4042 5
      vertex 48.541 35.2671 5
    endloop
  endfacet
  facet normal -0 0 1
    outer loop
      vertex 41.0822 -8.73229 5
      vertex 58.6889 -12.4747 5
      vertex 42 0 5
    endloop
  endfacet
  facet normal 0 0 1
    outer loop
      vertex 58.6889 -12.4747 5
      vertex 41.0822 -8.73229 5
      vertex 54.8127 -24.4042 5
    endloop
  endfacet
  facet normal 0 0 1
    outer loop
      vertex 58.6889 12.4747 5
      vertex 41.0822 8.73229 5
      vertex 42 0 5
    endloop
  endfacet
  facet normal 0 0 1
    outer loop
      vertex 33.9787 24.687 5
      vertex 48.541 35.2671 5
      vertex 40.1478 44.5887 5
    endloop
  endfacet
  facet normal 0 0 1
    outer loop
      vertex 54.8127 24.4042 5
      vertex 38.3689 17.0829 5
      vertex 41.0822 8.73229 5
    endloop
  endfacet
  facet normal 0 0 1
    outer loop
      vertex 48.541 35.2671 5
      vertex 33.9787 24.687 5
      vertex 38.3689 17.0829 5
    endloop
  endfacet
  facet normal 0 0 1
    outer loop
      vertex 28.1035 31.2121 5
      vertex 40.1478 44.5887 5
      vertex 30 51.9615 5
    endloop
  endfacet
  facet normal 0 0 1
    outer loop
      vertex 40.1478 44.5887 5
      vertex 28.1035 31.2121 5
      vertex 33.9787 24.687 5
    endloop
  endfacet
  facet normal 0 0 1
    outer loop
      vertex 30 51.9615 5
      vertex 21 36.3731 5
      vertex 28.1035 31.2121 5
    endloop
  endfacet
  facet normal 0 0 1
    outer loop
      vertex 18.541 57.0634 5
      vertex 21 36.3731 5
      vertex 30 51.9615 5
    endloop
  endfacet
  facet normal 0 0 1
    outer loop
      vertex 18.541 57.0634 5
      vertex 12.9787 39.9444 5
      vertex 21 36.3731 5
    endloop
  endfacet
  facet normal 0 0 1
    outer loop
      vertex 6.27171 59.6713 5
      vertex 12.9787 39.9444 5
      vertex 18.541 57.0634 5
    endloop
  endfacet
  facet normal 0 0 1
    outer loop
      vertex 6.27171 59.6713 5
      vertex 4.39019 41.7699 5
      vertex 12.9787 39.9444 5
    endloop
  endfacet
  facet normal 0 0 1
    outer loop
      vertex 6.27171 59.6713 5
      vertex -4.39019 41.7699 5
      vertex 4.39019 41.7699 5
    endloop
  endfacet
  facet normal -0 0 1
    outer loop
      vertex -6.27171 59.6713 5
      vertex -4.39019 41.7699 5
      vertex 6.27171 59.6713 5
    endloop
  endfacet
  facet normal 0 0 1
    outer loop
      vertex -6.27171 59.6713 5
      vertex -12.9787 39.9444 5
      vertex -4.39019 41.7699 5
    endloop
  endfacet
  facet normal -0 0 1
    outer loop
      vertex -18.541 57.0634 5
      vertex -12.9787 39.9444 5
      vertex -6.27171 59.6713 5
    endloop
  endfacet
  facet normal 0 0 1
    outer loop
      vertex -18.541 57.0634 5
      vertex -21 36.3731 5
      vertex -12.9787 39.9444 5
    endloop
  endfacet
  facet normal -0 0 1
    outer loop
      vertex -30 51.9615 5
      vertex -21 36.3731 5
      vertex -18.541 57.0634 5
    endloop
  endfacet
  facet normal 0 0 1
    outer loop
      vertex -21 36.3731 5
      vertex -30 51.9615 5
      vertex -28.1035 31.2121 5
    endloop
  endfacet
  facet normal -0 0 1
    outer loop
      vertex -40.1478 44.5887 5
      vertex -28.1035 31.2121 5
      vertex -30 51.9615 5
    endloop
  endfacet
  facet normal 0 0 1
    outer loop
      vertex -28.1035 31.2121 5
      vertex -40.1478 44.5887 5
      vertex -33.9787 24.687 5
    endloop
  endfacet
  facet normal -0 0 1
    outer loop
      vertex -48.541 35.2671 5
      vertex -33.9787 24.687 5
      vertex -40.1478 44.5887 5
    endloop
  endfacet
  facet normal 0 0 1
    outer loop
      vertex -33.9787 24.687 5
      vertex -48.541 35.2671 5
      vertex -38.3689 17.0829 5
    endloop
  endfacet
  facet normal -0 0 1
    outer loop
      vertex -54.8127 24.4042 5
      vertex -38.3689 17.0829 5
      vertex -48.541 35.2671 5
    endloop
  endfacet
  facet normal 0 0 1
    outer loop
      vertex -38.3689 17.0829 5
      vertex -54.8127 24.4042 5
      vertex -41.0822 8.73229 5
    endloop
  endfacet
  facet normal -0 0 1
    outer loop
      vertex 38.3689 -17.0829 5
      vertex 54.8127 -24.4042 5
      vertex 41.0822 -8.73229 5
    endloop
  endfacet
  facet normal 0 0 1
    outer loop
      vertex 54.8127 -24.4042 5
      vertex 38.3689 -17.0829 5
      vertex 48.541 -35.2671 5
    endloop
  endfacet
  facet normal -0 0 1
    outer loop
      vertex 33.9787 -24.687 5
      vertex 48.541 -35.2671 5
      vertex 38.3689 -17.0829 5
    endloop
  endfacet
  facet normal 0 0 1
    outer loop
      vertex 48.541 -35.2671 5
      vertex 33.9787 -24.687 5
      vertex 40.1478 -44.5887 5
    endloop
  endfacet
  facet normal -0 0 1
    outer loop
      vertex 28.1035 -31.2121 5
      vertex 40.1478 -44.5887 5
      vertex 33.9787 -24.687 5
    endloop
  endfacet
  facet normal 0 0 1
    outer loop
      vertex 40.1478 -44.5887 5
      vertex 28.1035 -31.2121 5
      vertex 30 -51.9615 5
    endloop
  endfacet
  facet normal -0 0 1
    outer loop
      vertex 21 -36.3731 5
      vertex 30 -51.9615 5
      vertex 28.1035 -31.2121 5
    endloop
  endfacet
  facet normal 0 0 1
    outer loop
      vertex 21 -36.3731 5
      vertex 18.541 -57.0634 5
      vertex 30 -51.9615 5
    endloop
  endfacet
  facet normal -0 0 1
    outer loop
      vertex 12.9787 -39.9444 5
      vertex 18.541 -57.0634 5
      vertex 21 -36.3731 5
    endloop
  endfacet
  facet normal 0 0 1
    outer loop
      vertex 12.9787 -39.9444 5
      vertex 6.27171 -59.6713 5
      vertex 18.541 -57.0634 5
    endloop
  endfacet
  facet normal -0 0 1
    outer loop
      vertex 4.39019 -41.7699 5
      vertex 6.27171 -59.6713 5
      vertex 12.9787 -39.9444 5
    endloop
  endfacet
  facet normal -0 0 1
    outer loop
      vertex -4.39019 -41.7699 5
      vertex 6.27171 -59.6713 5
      vertex 4.39019 -41.7699 5
    endloop
  endfacet
  facet normal 0 0 1
    outer loop
      vertex -4.39019 -41.7699 5
      vertex -6.27171 -59.6713 5
      vertex 6.27171 -59.6713 5
    endloop
  endfacet
  facet normal 0 0 1
    outer loop
      vertex -12.9787 -39.9444 5
      vertex -6.27171 -59.6713 5
      vertex -4.39019 -41.7699 5
    endloop
  endfacet
  facet normal 0 0 1
    outer loop
      vertex -12.9787 -39.9444 5
      vertex -18.541 -57.0634 5
      vertex -6.27171 -59.6713 5
    endloop
  endfacet
  facet normal 0 0 1
    outer loop
      vertex -21 -36.3731 5
      vertex -18.541 -57.0634 5
      vertex -12.9787 -39.9444 5
    endloop
  endfacet
  facet normal 0 0 1
    outer loop
      vertex -30 -51.9615 5
      vertex -21 -36.3731 5
      vertex -28.1035 -31.2121 5
    endloop
  endfacet
  facet normal 0 0 1
    outer loop
      vertex -21 -36.3731 5
      vertex -30 -51.9615 5
      vertex -18.541 -57.0634 5
    endloop
  endfacet
  facet normal 0 0 1
    outer loop
      vertex -40.1478 -44.5887 5
      vertex -28.1035 -31.2121 5
      vertex -33.9787 -24.687 5
    endloop
  endfacet
  facet normal 0 0 1
    outer loop
      vertex -48.541 -35.2671 5
      vertex -33.9787 -24.687 5
      vertex -38.3689 -17.0829 5
    endloop
  endfacet
  facet normal 0 0 1
    outer loop
      vertex -28.1035 -31.2121 5
      vertex -40.1478 -44.5887 5
      vertex -30 -51.9615 5
    endloop
  endfacet
  facet normal 0 0 1
    outer loop
      vertex -54.8127 -24.4042 5
      vertex -38.3689 -17.0829 5
      vertex -41.0822 -8.73229 5
    endloop
  endfacet
  facet normal 0 0 1
    outer loop
      vertex -58.6889 -12.4747 5
      vertex -41.0822 -8.73229 5
      vertex -42 0 5
    endloop
  endfacet
  facet normal -0 0 1
    outer loop
      vertex -58.6889 12.4747 5
      vertex -41.0822 8.73229 5
      vertex -54.8127 24.4042 5
    endloop
  endfacet
  facet normal 0 0 1
    outer loop
      vertex -33.9787 -24.687 5
      vertex -48.541 -35.2671 5
      vertex -40.1478 -44.5887 5
    endloop
  endfacet
  facet normal 0 0 1
    outer loop
      vertex -41.0822 8.73229 5
      vertex -58.6889 12.4747 5
      vertex -42 0 5
    endloop
  endfacet
  facet normal 0 0 1
    outer loop
      vertex -38.3689 -17.0829 5
      vertex -54.8127 -24.4042 5
      vertex -48.541 -35.2671 5
    endloop
  endfacet
  facet normal 0 0 1
    outer loop
      vertex -60 0 5
      vertex -42 0 5
      vertex -58.6889 12.4747 5
    endloop
  endfacet
  facet normal 0 0 1
    outer loop
      vertex -41.0822 -8.73229 5
      vertex -58.6889 -12.4747 5
      vertex -54.8127 -24.4042 5
    endloop
  endfacet
  facet normal 0 0 1
    outer loop
      vertex -42 0 5
      vertex -60 0 5
      vertex -58.6889 -12.4747 5
    endloop
  endfacet
  facet normal 0.951057 -0.309017 0
    outer loop
      vertex 54.8127 -24.4042 5
      vertex 58.6889 -12.4747 0
      vertex 58.6889 -12.4747 5
    endloop
  endfacet
  facet normal 0.951057 -0.309017 0
    outer loop
      vertex 58.6889 -12.4747 0
      vertex 54.8127 -24.4042 5
      vertex 54.8127 -24.4042 0
    endloop
  endfacet
  facet normal 0.866025 -0.5 0
    outer loop
      vertex 48.541 -35.2671 5
      vertex 54.8127 -24.4042 0
      vertex 54.8127 -24.4042 5
    endloop
  endfacet
  facet normal 0.866025 -0.5 0
    outer loop
      vertex 54.8127 -24.4042 0
      vertex 48.541 -35.2671 5
      vertex 48.541 -35.2671 0
    endloop
  endfacet
  facet normal -0.994522 -0.104529 0
    outer loop
      vertex -58.6889 -12.4747 0
      vertex -60 0 5
      vertex -60 0 0
    endloop
  endfacet
  facet normal -0.994522 -0.104529 0
    outer loop
      vertex -60 0 5
      vertex -58.6889 -12.4747 0
      vertex -58.6889 -12.4747 5
    endloop
  endfacet
  facet normal -0.866025 -0.5 0
    outer loop
      vertex -48.541 -35.2671 0
      vertex -54.8127 -24.4042 5
      vertex -54.8127 -24.4042 0
    endloop
  endfacet
  facet normal -0.866025 -0.5 0
    outer loop
      vertex -54.8127 -24.4042 5
      vertex -48.541 -35.2671 0
      vertex -48.541 -35.2671 5
    endloop
  endfacet
  facet normal 0.207912 -0.978148 0
    outer loop
      vertex 6.27171 -59.6713 0
      vertex 18.541 -57.0634 5
      vertex 6.27171 -59.6713 5
    endloop
  endfacet
  facet normal 0.207912 -0.978148 0
    outer loop
      vertex 18.541 -57.0634 5
      vertex 6.27171 -59.6713 0
      vertex 18.541 -57.0634 0
    endloop
  endfacet
  facet normal 0.406737 -0.913545 0
    outer loop
      vertex 18.541 -57.0634 0
      vertex 30 -51.9615 5
      vertex 18.541 -57.0634 5
    endloop
  endfacet
  facet normal 0.406737 -0.913545 0
    outer loop
      vertex 30 -51.9615 5
      vertex 18.541 -57.0634 0
      vertex 30 -51.9615 0
    endloop
  endfacet
  facet normal 0.743145 -0.669131 0
    outer loop
      vertex 40.1478 -44.5887 5
      vertex 48.541 -35.2671 0
      vertex 48.541 -35.2671 5
    endloop
  endfacet
  facet normal 0.743145 -0.669131 0
    outer loop
      vertex 48.541 -35.2671 0
      vertex 40.1478 -44.5887 5
      vertex 40.1478 -44.5887 0
    endloop
  endfacet
  facet normal -0.406737 -0.913545 0
    outer loop
      vertex -30 -51.9615 0
      vertex -18.541 -57.0634 5
      vertex -30 -51.9615 5
    endloop
  endfacet
  facet normal -0.406737 -0.913545 -0
    outer loop
      vertex -18.541 -57.0634 5
      vertex -30 -51.9615 0
      vertex -18.541 -57.0634 0
    endloop
  endfacet
  facet normal 0 -1 0
    outer loop
      vertex -6.27171 -59.6713 0
      vertex 6.27171 -59.6713 5
      vertex -6.27171 -59.6713 5
    endloop
  endfacet
  facet normal 0 -1 -0
    outer loop
      vertex 6.27171 -59.6713 5
      vertex -6.27171 -59.6713 0
      vertex 6.27171 -59.6713 0
    endloop
  endfacet
  facet normal -0.951057 -0.309017 0
    outer loop
      vertex -54.8127 -24.4042 0
      vertex -58.6889 -12.4747 5
      vertex -58.6889 -12.4747 0
    endloop
  endfacet
  facet normal -0.951057 -0.309017 0
    outer loop
      vertex -58.6889 -12.4747 5
      vertex -54.8127 -24.4042 0
      vertex -54.8127 -24.4042 5
    endloop
  endfacet
  facet normal -0.743145 -0.669131 0
    outer loop
      vertex -40.1478 -44.5887 0
      vertex -48.541 -35.2671 5
      vertex -48.541 -35.2671 0
    endloop
  endfacet
  facet normal -0.743145 -0.669131 0
    outer loop
      vertex -48.541 -35.2671 5
      vertex -40.1478 -44.5887 0
      vertex -40.1478 -44.5887 5
    endloop
  endfacet
  facet normal -0.587785 -0.809017 0
    outer loop
      vertex -40.1478 -44.5887 0
      vertex -30 -51.9615 5
      vertex -40.1478 -44.5887 5
    endloop
  endfacet
  facet normal -0.587785 -0.809017 -0
    outer loop
      vertex -30 -51.9615 5
      vertex -40.1478 -44.5887 0
      vertex -30 -51.9615 0
    endloop
  endfacet
  facet normal -0.866025 -0.5 0
    outer loop
      vertex 14.6167 6.50779 5
      vertex 12.9443 9.40456 30
      vertex 12.9443 9.40456 5
    endloop
  endfacet
  facet normal -0.866025 -0.5 0
    outer loop
      vertex 12.9443 9.40456 30
      vertex 14.6167 6.50779 5
      vertex 14.6167 6.50779 30
    endloop
  endfacet
  facet normal 0 -1 0
    outer loop
      vertex -1.67245 15.9123 5
      vertex 1.67245 15.9123 30
      vertex -1.67245 15.9123 30
    endloop
  endfacet
  facet normal 0 -1 -0
    outer loop
      vertex 1.67245 15.9123 30
      vertex -1.67245 15.9123 5
      vertex 1.67245 15.9123 5
    endloop
  endfacet
  facet normal -0.743145 -0.669131 0
    outer loop
      vertex 12.9443 9.40456 5
      vertex 10.7061 11.8903 30
      vertex 10.7061 11.8903 5
    endloop
  endfacet
  facet normal -0.743145 -0.669131 0
    outer loop
      vertex 10.7061 11.8903 30
      vertex 12.9443 9.40456 5
      vertex 12.9443 9.40456 30
    endloop
  endfacet
  facet normal -0.207912 -0.978148 0
    outer loop
      vertex 1.67245 15.9123 5
      vertex 4.94427 15.2169 30
      vertex 1.67245 15.9123 30
    endloop
  endfacet
  facet normal -0.207912 -0.978148 -0
    outer loop
      vertex 4.94427 15.2169 30
      vertex 1.67245 15.9123 5
      vertex 4.94427 15.2169 5
    endloop
  endfacet
  facet normal 0.406737 -0.913545 0
    outer loop
      vertex -8 13.8564 5
      vertex -4.94427 15.2169 30
      vertex -8 13.8564 30
    endloop
  endfacet
  facet normal 0.406737 -0.913545 0
    outer loop
      vertex -4.94427 15.2169 30
      vertex -8 13.8564 5
      vertex -4.94427 15.2169 5
    endloop
  endfacet
  facet normal 0.866025 -0.5 0
    outer loop
      vertex -14.6167 6.50779 30
      vertex -12.9443 9.40456 5
      vertex -12.9443 9.40456 30
    endloop
  endfacet
  facet normal 0.866025 -0.5 0
    outer loop
      vertex -12.9443 9.40456 5
      vertex -14.6167 6.50779 30
      vertex -14.6167 6.50779 5
    endloop
  endfacet
  facet normal 0.587785 -0.809017 0
    outer loop
      vertex -10.7061 11.8903 5
      vertex -8 13.8564 30
      vertex -10.7061 11.8903 30
    endloop
  endfacet
  facet normal 0.587785 -0.809017 0
    outer loop
      vertex -8 13.8564 30
      vertex -10.7061 11.8903 5
      vertex -8 13.8564 5
    endloop
  endfacet
  facet normal -0.994522 0.104529 0
    outer loop
      vertex 15.6504 -3.32659 5
      vertex 16 0 30
      vertex 16 0 5
    endloop
  endfacet
  facet normal -0.994522 0.104529 0
    outer loop
      vertex 16 0 30
      vertex 15.6504 -3.32659 5
      vertex 15.6504 -3.32659 30
    endloop
  endfacet
  facet normal -0.207912 0.978148 0
    outer loop
      vertex 4.94427 -15.2169 5
      vertex 1.67245 -15.9123 30
      vertex 4.94427 -15.2169 30
    endloop
  endfacet
  facet normal -0.207912 0.978148 0
    outer loop
      vertex 1.67245 -15.9123 30
      vertex 4.94427 -15.2169 5
      vertex 1.67245 -15.9123 5
    endloop
  endfacet
  facet normal -0.587785 -0.809017 0
    outer loop
      vertex 8 13.8564 5
      vertex 10.7061 11.8903 30
      vertex 8 13.8564 30
    endloop
  endfacet
  facet normal -0.587785 -0.809017 -0
    outer loop
      vertex 10.7061 11.8903 30
      vertex 8 13.8564 5
      vertex 10.7061 11.8903 5
    endloop
  endfacet
  facet normal -0.406736 -0.913546 0
    outer loop
      vertex 4.94427 15.2169 5
      vertex 8 13.8564 30
      vertex 4.94427 15.2169 30
    endloop
  endfacet
  facet normal -0.406736 -0.913546 -0
    outer loop
      vertex 8 13.8564 30
      vertex 4.94427 15.2169 5
      vertex 8 13.8564 5
    endloop
  endfacet
  facet normal 0.994522 -0.104529 0
    outer loop
      vertex -16 0 30
      vertex -15.6504 3.32659 5
      vertex -15.6504 3.32659 30
    endloop
  endfacet
  facet normal 0.994522 -0.104529 0
    outer loop
      vertex -15.6504 3.32659 5
      vertex -16 0 30
      vertex -16 0 5
    endloop
  endfacet
  facet normal 0.743145 -0.669131 0
    outer loop
      vertex -12.9443 9.40456 30
      vertex -10.7061 11.8903 5
      vertex -10.7061 11.8903 30
    endloop
  endfacet
  facet normal 0.743145 -0.669131 0
    outer loop
      vertex -10.7061 11.8903 5
      vertex -12.9443 9.40456 30
      vertex -12.9443 9.40456 5
    endloop
  endfacet
  facet normal 0.207912 -0.978148 0
    outer loop
      vertex -4.94427 15.2169 5
      vertex -1.67245 15.9123 30
      vertex -4.94427 15.2169 30
    endloop
  endfacet
  facet normal 0.207912 -0.978148 0
    outer loop
      vertex -1.67245 15.9123 30
      vertex -4.94427 15.2169 5
      vertex -1.67245 15.9123 5
    endloop
  endfacet
  facet normal -0.994522 -0.104529 0
    outer loop
      vertex 16 0 5
      vertex 15.6504 3.32659 30
      vertex 15.6504 3.32659 5
    endloop
  endfacet
  facet normal -0.994522 -0.104529 0
    outer loop
      vertex 15.6504 3.32659 30
      vertex 16 0 5
      vertex 16 0 30
    endloop
  endfacet
  facet normal 0.587785 0.809017 -0
    outer loop
      vertex -8 -13.8564 5
      vertex -10.7061 -11.8903 30
      vertex -8 -13.8564 30
    endloop
  endfacet
  facet normal 0.587785 0.809017 0
    outer loop
      vertex -10.7061 -11.8903 30
      vertex -8 -13.8564 5
      vertex -10.7061 -11.8903 5
    endloop
  endfacet
  facet normal 0.866025 0.5 0
    outer loop
      vertex -12.9443 -9.40456 30
      vertex -14.6167 -6.50779 5
      vertex -14.6167 -6.50779 30
    endloop
  endfacet
  facet normal 0.866025 0.5 0
    outer loop
      vertex -14.6167 -6.50779 5
      vertex -12.9443 -9.40456 30
      vertex -12.9443 -9.40456 5
    endloop
  endfacet
  facet normal -0.587785 0.809017 0
    outer loop
      vertex 10.7061 -11.8903 5
      vertex 8 -13.8564 30
      vertex 10.7061 -11.8903 30
    endloop
  endfacet
  facet normal -0.587785 0.809017 0
    outer loop
      vertex 8 -13.8564 30
      vertex 10.7061 -11.8903 5
      vertex 8 -13.8564 5
    endloop
  endfacet
  facet normal -0.951057 -0.309017 0
    outer loop
      vertex 15.6504 3.32659 5
      vertex 14.6167 6.50779 30
      vertex 14.6167 6.50779 5
    endloop
  endfacet
  facet normal -0.951057 -0.309017 0
    outer loop
      vertex 14.6167 6.50779 30
      vertex 15.6504 3.32659 5
      vertex 15.6504 3.32659 30
    endloop
  endfacet
  facet normal 0.951057 -0.309017 0
    outer loop
      vertex -15.6504 3.32659 30
      vertex -14.6167 6.50779 5
      vertex -14.6167 6.50779 30
    endloop
  endfacet
  facet normal 0.951057 -0.309017 0
    outer loop
      vertex -14.6167 6.50779 5
      vertex -15.6504 3.32659 30
      vertex -15.6504 3.32659 5
    endloop
  endfacet
  facet normal -0.866025 0.5 0
    outer loop
      vertex 12.9443 -9.40456 5
      vertex 14.6167 -6.50779 30
      vertex 14.6167 -6.50779 5
    endloop
  endfacet
  facet normal -0.866025 0.5 0
    outer loop
      vertex 14.6167 -6.50779 30
      vertex 12.9443 -9.40456 5
      vertex 12.9443 -9.40456 30
    endloop
  endfacet
  facet normal 0 1 -0
    outer loop
      vertex 1.67245 -15.9123 5
      vertex -1.67245 -15.9123 30
      vertex 1.67245 -15.9123 30
    endloop
  endfacet
  facet normal 0 1 0
    outer loop
      vertex -1.67245 -15.9123 30
      vertex 1.67245 -15.9123 5
      vertex -1.67245 -15.9123 5
    endloop
  endfacet
  facet normal 0 0 1
    outer loop
      vertex 15.6504 3.32659 5
      vertex 15.6504 -3.32659 5
      vertex 16 0 5
    endloop
  endfacet
  facet normal 0 0 1
    outer loop
      vertex 14.6167 6.50779 5
      vertex 15.6504 -3.32659 5
      vertex 15.6504 3.32659 5
    endloop
  endfacet
  facet normal 0 0 1
    outer loop
      vertex 14.6167 6.50779 5
      vertex 14.6167 -6.50779 5
      vertex 15.6504 -3.32659 5
    endloop
  endfacet
  facet normal 0 0 1
    outer loop
      vertex 12.9443 9.40456 5
      vertex 14.6167 -6.50779 5
      vertex 14.6167 6.50779 5
    endloop
  endfacet
  facet normal 0 0 1
    outer loop
      vertex 12.9443 9.40456 5
      vertex 12.9443 -9.40456 5
      vertex 14.6167 -6.50779 5
    endloop
  endfacet
  facet normal 0 0 1
    outer loop
      vertex 10.7061 11.8903 5
      vertex 12.9443 -9.40456 5
      vertex 12.9443 9.40456 5
    endloop
  endfacet
  facet normal 0 0 1
    outer loop
      vertex 10.7061 11.8903 5
      vertex 10.7061 -11.8903 5
      vertex 12.9443 -9.40456 5
    endloop
  endfacet
  facet normal 0 0 1
    outer loop
      vertex 8 13.8564 5
      vertex 10.7061 -11.8903 5
      vertex 10.7061 11.8903 5
    endloop
  endfacet
  facet normal 0 0 1
    outer loop
      vertex 8 13.8564 5
      vertex 8 -13.8564 5
      vertex 10.7061 -11.8903 5
    endloop
  endfacet
  facet normal 0 0 1
    outer loop
      vertex 4.94427 15.2169 5
      vertex 8 -13.8564 5
      vertex 8 13.8564 5
    endloop
  endfacet
  facet normal 0 0 1
    outer loop
      vertex 4.94427 15.2169 5
      vertex 4.94427 -15.2169 5
      vertex 8 -13.8564 5
    endloop
  endfacet
  facet normal 0 0 1
    outer loop
      vertex 1.67245 15.9123 5
      vertex 4.94427 -15.2169 5
      vertex 4.94427 15.2169 5
    endloop
  endfacet
  facet normal 0 0 1
    outer loop
      vertex 1.67245 15.9123 5
      vertex 1.67245 -15.9123 5
      vertex 4.94427 -15.2169 5
    endloop
  endfacet
  facet normal -0 0 1
    outer loop
      vertex -1.67245 15.9123 5
      vertex 1.67245 -15.9123 5
      vertex 1.67245 15.9123 5
    endloop
  endfacet
  facet normal 0 0 1
    outer loop
      vertex -1.67245 15.9123 5
      vertex -1.67245 -15.9123 5
      vertex 1.67245 -15.9123 5
    endloop
  endfacet
  facet normal -0 0 1
    outer loop
      vertex -4.94427 15.2169 5
      vertex -1.67245 -15.9123 5
      vertex -1.67245 15.9123 5
    endloop
  endfacet
  facet normal 0 0 1
    outer loop
      vertex -4.94427 15.2169 5
      vertex -4.94427 -15.2169 5
      vertex -1.67245 -15.9123 5
    endloop
  endfacet
  facet normal -0 0 1
    outer loop
      vertex -8 13.8564 5
      vertex -4.94427 -15.2169 5
      vertex -4.94427 15.2169 5
    endloop
  endfacet
  facet normal 0 0 1
    outer loop
      vertex -8 13.8564 5
      vertex -8 -13.8564 5
      vertex -4.94427 -15.2169 5
    endloop
  endfacet
  facet normal -0 0 1
    outer loop
      vertex -10.7061 11.8903 5
      vertex -8 -13.8564 5
      vertex -8 13.8564 5
    endloop
  endfacet
  facet normal 0 0 1
    outer loop
      vertex -10.7061 11.8903 5
      vertex -10.7061 -11.8903 5
      vertex -8 -13.8564 5
    endloop
  endfacet
  facet normal -0 0 1
    outer loop
      vertex -12.9443 9.40456 5
      vertex -10.7061 -11.8903 5
      vertex -10.7061 11.8903 5
    endloop
  endfacet
  facet normal 0 0 1
    outer loop
      vertex -12.9443 9.40456 5
      vertex -12.9443 -9.40456 5
      vertex -10.7061 -11.8903 5
    endloop
  endfacet
  facet normal -0 0 1
    outer loop
      vertex -14.6167 6.50779 5
      vertex -12.9443 -9.40456 5
      vertex -12.9443 9.40456 5
    endloop
  endfacet
  facet normal 0 0 1
    outer loop
      vertex -14.6167 6.50779 5
      vertex -14.6167 -6.50779 5
      vertex -12.9443 -9.40456 5
    endloop
  endfacet
  facet normal -0 0 1
    outer loop
      vertex -15.6504 3.32659 5
      vertex -14.6167 -6.50779 5
      vertex -14.6167 6.50779 5
    endloop
  endfacet
  facet normal 0 0 1
    outer loop
      vertex -15.6504 3.32659 5
      vertex -15.6504 -3.32659 5
      vertex -14.6167 -6.50779 5
    endloop
  endfacet
  facet normal 0 -0 1
    outer loop
      vertex -15.6504 -3.32659 5
      vertex -15.6504 3.32659 5
      vertex -16 0 5
    endloop
  endfacet
  facet normal 0.743145 0.669131 0
    outer loop
      vertex -10.7061 -11.8903 30
      vertex -12.9443 -9.40456 5
      vertex -12.9443 -9.40456 30
    endloop
  endfacet
  facet normal 0.743145 0.669131 0
    outer loop
      vertex -12.9443 -9.40456 5
      vertex -10.7061 -11.8903 30
      vertex -10.7061 -11.8903 5
    endloop
  endfacet
  facet normal -0.406736 0.913546 0
    outer loop
      vertex 8 -13.8564 5
      vertex 4.94427 -15.2169 30
      vertex 8 -13.8564 30
    endloop
  endfacet
  facet normal -0.406736 0.913546 0
    outer loop
      vertex 4.94427 -15.2169 30
      vertex 8 -13.8564 5
      vertex 4.94427 -15.2169 5
    endloop
  endfacet
  facet normal -0.951057 0.309017 0
    outer loop
      vertex 14.6167 -6.50779 5
      vertex 15.6504 -3.32659 30
      vertex 15.6504 -3.32659 5
    endloop
  endfacet
  facet normal -0.951057 0.309017 0
    outer loop
      vertex 15.6504 -3.32659 30
      vertex 14.6167 -6.50779 5
      vertex 14.6167 -6.50779 30
    endloop
  endfacet
  facet normal 0.406736 0.913546 -0
    outer loop
      vertex -4.94427 -15.2169 5
      vertex -8 -13.8564 30
      vertex -4.94427 -15.2169 30
    endloop
  endfacet
  facet normal 0.406736 0.913546 0
    outer loop
      vertex -8 -13.8564 30
      vertex -4.94427 -15.2169 5
      vertex -8 -13.8564 5
    endloop
  endfacet
  facet normal 0.951057 0.309017 0
    outer loop
      vertex -14.6167 -6.50779 30
      vertex -15.6504 -3.32659 5
      vertex -15.6504 -3.32659 30
    endloop
  endfacet
  facet normal 0.951057 0.309017 0
    outer loop
      vertex -15.6504 -3.32659 5
      vertex -14.6167 -6.50779 30
      vertex -14.6167 -6.50779 5
    endloop
  endfacet
  facet normal 0.994522 0.104529 0
    outer loop
      vertex -15.6504 -3.32659 30
      vertex -16 0 5
      vertex -16 0 30
    endloop
  endfacet
  facet normal 0.994522 0.104529 0
    outer loop
      vertex -16 0 5
      vertex -15.6504 -3.32659 30
      vertex -15.6504 -3.32659 5
    endloop
  endfacet
  facet normal -0.743145 0.669131 0
    outer loop
      vertex 10.7061 -11.8903 5
      vertex 12.9443 -9.40456 30
      vertex 12.9443 -9.40456 5
    endloop
  endfacet
  facet normal -0.743145 0.669131 0
    outer loop
      vertex 12.9443 -9.40456 30
      vertex 10.7061 -11.8903 5
      vertex 10.7061 -11.8903 30
    endloop
  endfacet
  facet normal 0.207912 0.978148 -0
    outer loop
      vertex -1.67245 -15.9123 5
      vertex -4.94427 -15.2169 30
      vertex -1.67245 -15.9123 30
    endloop
  endfacet
  facet normal 0.207912 0.978148 0
    outer loop
      vertex -4.94427 -15.2169 30
      vertex -1.67245 -15.9123 5
      vertex -4.94427 -15.2169 5
    endloop
  endfacet
endsolid OpenSCAD_Model
