<?xml version="1.0" encoding="UTF-8" standalone="no"?>
<svg
   xmlns:dc="http://purl.org/dc/elements/1.1/"
   xmlns:cc="http://creativecommons.org/ns#"
   xmlns:rdf="http://www.w3.org/1999/02/22-rdf-syntax-ns#"
   xmlns:svg="http://www.w3.org/2000/svg"
   xmlns="http://www.w3.org/2000/svg"
   xmlns:sodipodi="http://sodipodi.sourceforge.net/DTD/sodipodi-0.dtd"
   xmlns:inkscape="http://www.inkscape.org/namespaces/inkscape"
   height="300mm"
   version="1.1"
   viewBox="0 -10 600 300"
   width="600mm"
   id="svg13"
   sodipodi:docname="flexbox2_80x80x80_original_noburn.svg"
   inkscape:version="0.92.2 (5c3e80d, 2017-08-06)">
  <metadata
     id="metadata19">
    <rdf:RDF>
      <cc:Work
         rdf:about="">
        <dc:format>image/svg+xml</dc:format>
        <dc:type
           rdf:resource="http://purl.org/dc/dcmitype/StillImage" />
        <dc:title></dc:title>
      </cc:Work>
    </rdf:RDF>
  </metadata>
  <defs
     id="defs17" />
  <sodipodi:namedview
     pagecolor="#ffffff"
     bordercolor="#666666"
     borderopacity="1"
     objecttolerance="10"
     gridtolerance="10"
     guidetolerance="10"
     inkscape:pageopacity="0"
     inkscape:pageshadow="2"
     inkscape:window-width="1920"
     inkscape:window-height="1017"
     id="namedview15"
     showgrid="false"
     inkscape:zoom="1.465743"
     inkscape:cx="259.97312"
     inkscape:cy="408.31958"
     inkscape:window-x="-8"
     inkscape:window-y="-8"
     inkscape:window-maximized="1"
     inkscape:current-layer="g854" />
  <!--
FlexBox2 - 
Created with Boxes.py (https://festi.info/boxes.py)
Creation date: 2019-10-31 14:21:18
Command line (remove spaces beteen dashes): boxes FlexBox2 - -FingerJoint_angle=90.0 - -FingerJoint_style=rectangular - -FingerJoint_surroundingspaces=2.0 - -FingerJoint_edge_width=1.0 - -FingerJoint_finger=2.0 - -FingerJoint_play=0.0 - -FingerJoint_space=2.0 - -FingerJoint_width=1.0 - -Flex_stretch=1.05 - -Flex_connection=1.0 - -Flex_distance=0.5 - -Flex_width=5.0 - -x=80 - -y=80 - -h=80 - -outside=0 - -outside=1 - -radius=15 - -latchsize=9 - -thickness=3.0 - -format=svg - -tabs=0.0 - -debug=0 - -reference=0 - -burn=0
Url: http://localhost:8008/FlexBox2?FingerJoint_angle=90.0&FingerJoint_style=rectangular&FingerJoint_surroundingspaces=2.0&FingerJoint_edge_width=1.0&FingerJoint_finger=2.0&FingerJoint_play=0.0&FingerJoint_space=2.0&FingerJoint_width=1.0&Flex_stretch=1.05&Flex_connection=1.0&Flex_distance=0.5&Flex_width=5.0&x=80&y=80&h=80&outside=0&outside=1&radius=15&latchsize=9&thickness=3.0&format=svg&tabs=0.0&debug=0&reference=0&burn=0&render=1
SettingsUrl: http://localhost:8008/FlexBox2?FingerJoint_angle=90.0&FingerJoint_style=rectangular&FingerJoint_surroundingspaces=2.0&FingerJoint_edge_width=1.0&FingerJoint_finger=2.0&FingerJoint_play=0.0&FingerJoint_space=2.0&FingerJoint_width=1.0&Flex_stretch=1.05&Flex_connection=1.0&Flex_distance=0.5&Flex_width=5.0&x=80&y=80&h=80&outside=0&outside=1&radius=15&latchsize=9&thickness=3.0&format=svg&tabs=0.0&debug=0&reference=0&burn=0
-->
  <g
     id="g854">
    <g
       transform="rotate(90,94.92532,76.089321)"
       style="stroke:#ff0000;stroke-width:0.1;stroke-miterlimit:4;stroke-dasharray:none;stroke-opacity:1"
       id="surface8774">
      <path
         inkscape:connector-curvature="0"
         id="path2"
         transform="matrix(1,0,0,-1,13,169.25)"
         style="fill:none;stroke:#ff0000;stroke-width:0.1;stroke-linecap:butt;stroke-linejoin:miter;stroke-miterlimit:4;stroke-dasharray:none;stroke-opacity:1"
         d="m 0,0 h 8.5 v 0 3 h 6 V 0 h 6 v 0 3 h 6 V 0 h 6 v 0 3 h 6 V 0 h 6 v 0 3 h 6 V 0 H 59 m 2.03125,0 v 15.398438 m 0,3 v 27.800781 m 0,3 V 77 m 1.5,3 V 64.601562 m 0,-3 V 33.800781 m 0,-3 V 3 m 1.5,-3 v 15.398438 m 0,3 v 27.800781 m 0,3 V 77 m 1.5,3 V 64.601562 m 0,-3 V 33.800781 m 0,-3 V 3 m 1.5,-3 v 15.398438 m 0,3 v 27.800781 m 0,3 V 77 m 1.5,3 V 64.601562 m 0,-3 V 33.800781 m 0,-3 V 3 m 1.5,-3 v 15.398438 m 0,3 v 27.800781 m 0,3 V 77 m 1.5,3 V 64.601562 m 0,-3 V 33.800781 m 0,-3 V 3 m 1.5,-3 v 15.398438 m 0,3 v 27.800781 m 0,3 V 77 m 1.5,3 V 64.601562 m 0,-3 V 33.800781 m 0,-3 V 3 m 1.5,-3 v 15.398438 m 0,3 v 27.800781 m 0,3 V 77 m 1.5,3 V 64.601562 m 0,-3 V 33.800781 m 0,-3 V 3 m 1.5,-3 v 15.398438 m 0,3 v 27.800781 m 0,3 V 77 m 1.5,3 V 64.601562 m 0,-3 V 33.800781 m 0,-3 V 3 M 59,0 h 23.5625 44 m 2.03125,0 v 15.398438 m 0,3 v 27.800781 m 0,3 V 77 m 1.5,3 V 64.601562 m 0,-3 V 33.800781 m 0,-3 V 3 m 1.5,-3 v 15.398438 m 0,3 v 27.800781 m 0,3 V 77 m 1.5,3 V 64.601562 m 0,-3 V 33.800781 m 0,-3 V 3 m 1.5,-3 v 15.398438 m 0,3 v 27.800781 m 0,3 V 77 m 1.5,3 V 64.601562 m 0,-3 V 33.800781 m 0,-3 V 3 m 1.5,-3 v 15.398438 m 0,3 v 27.800781 m 0,3 V 77 m 1.5,3 V 64.601562 m 0,-3 V 33.800781 m 0,-3 V 3 m 1.5,-3 v 15.398438 m 0,3 v 27.800781 m 0,3 V 77 m 1.5,3 V 64.601562 m 0,-3 V 33.800781 m 0,-3 V 3 m 1.5,-3 v 15.398438 m 0,3 v 27.800781 m 0,3 V 77 m 1.5,3 V 64.601562 m 0,-3 V 33.800781 m 0,-3 V 3 m 1.5,-3 v 15.398438 m 0,3 v 27.800781 m 0,3 V 77 m 1.5,3 V 64.601562 m 0,-3 V 33.800781 m 0,-3 V 3 M 126.5625,0 h 23.5625 v 3.300781 h 14.10156 V 0 c 0,-0.414062 0.33594,-0.75 0.75,-0.75 0.39453,0 0.71094,0.320312 0.71094,0.7109375 0,0.9492185 1.42578,0.9492185 1.42578,0 0,-0.3945315 0.32031,-0.7109375 0.71094,-0.7109375 0.39453,0 0.71094,0.320312 0.71094,0.7109375 0,0.9492185 1.42578,0.9492185 1.42578,0 0,-0.3945315 0.32031,-0.7109375 0.71093,-0.7109375 0.39454,0 0.71094,0.320312 0.71094,0.7109375 0,0.9492185 1.42578,0.9492185 1.42578,0 0,-0.3945315 0.32032,-0.7109375 0.71094,-0.7109375 0.39453,0 0.71094,0.320312 0.71094,0.7109375 0,0.9492185 1.42578,0.9492185 1.42578,0 0,-0.3945315 0.32031,-0.7109375 0.71094,-0.7109375 0.41406,0 0.75,0.335938 0.75,0.75 v 80 c 0,0.414062 -0.33594,0.75 -0.75,0.75 -0.39453,0 -0.71094,-0.320312 -0.71094,-0.710938 0,-0.949218 -1.42578,-0.949218 -1.42578,0 0,0.394532 -0.32031,0.710938 -0.71094,0.710938 -0.39453,0 -0.71094,-0.320312 -0.71094,-0.710938 0,-0.949218 -1.42578,-0.949218 -1.42578,0 0,0.394532 -0.32031,0.710938 -0.71094,0.710938 -0.39453,0 -0.71093,-0.320312 -0.71093,-0.710938 0,-0.949218 -1.42578,-0.949218 -1.42578,0 0,0.394532 -0.32032,0.710938 -0.71094,0.710938 -0.39453,0 -0.71094,-0.320312 -0.71094,-0.710938 0,-0.949218 -1.42578,-0.949218 -1.42578,0 0,0.394532 -0.32031,0.710938 -0.71094,0.710938 -0.41406,0 -0.75,-0.335938 -0.75,-0.75 V 76.699219 H 150.125 V 80 h -23.5625 -44 H 59 50.5 v 0 -3 h -6 v 3 h -6 v 0 -3 h -6 v 3 h -6 v 0 -3 h -6 v 3 h -6 v 0 -3 h -6 v 3 H 0 v -3 -10 0 h -3 v -6 h 3 v -6 0 h -3 v -6 h 3 v -6 0 h -3 v -6 h 3 v -6 0 h -3 v -6 h 3 v -6 0 H -3 V 13 H 0 V 3 0" />
      <path
         inkscape:connector-curvature="0"
         id="path4"
         transform="matrix(1,0,0,-1,194.625,170)"
         style="fill:none;stroke:#ff0000;stroke-width:0.1;stroke-linecap:butt;stroke-linejoin:miter;stroke-miterlimit:4;stroke-dasharray:none;stroke-opacity:1"
         d="m 0,0 h 10 v 0 3 h 6 V 0 h 6 v 0 3 h 6 V 0 h 6 v 0 3 h 6 V 0 h 6 v 0 3 h 6 V 0 h 6 v 0 3 h 6 V 0 h 10 3 v 3 10 0 h -3 v 6 h 3 v 6 0 h -3 v 6 h 3 v 6 0 h -3 v 6 h 3 v 6 0 h -3 v 6 h 3 v 6 0 h -3 v 6 h 3 v 10 3 H 74 64 v 0 -3 h -6 v 3 h -6 v 0 -3 h -6 v 3 h -6 v 0 -3 h -6 v 3 h -6 v 0 -3 h -6 v 3 h -6 v 0 -3 h -6 v 3 H 0 -3 v -3 -10 0 h 3 v -6 h -3 v -6 0 h 3 v -6 h -3 v -6 0 h 3 v -6 h -3 v -6 0 h 3 v -6 h -3 v -6 0 H 0 V 13 H -3 V 3 0 h 3" />
      <path
         inkscape:connector-curvature="0"
         id="path6"
         transform="matrix(1,0,0,-1,13,84)"
         style="fill:none;stroke:#ff0000;stroke-width:0.1;stroke-linecap:butt;stroke-linejoin:miter;stroke-miterlimit:4;stroke-dasharray:none;stroke-opacity:1"
         d="m 0,0 h 10 v 0 -3 h 6 v 3 h 6 v 0 -3 h 6 v 3 h 6 v 0 -3 h 6 v 3 h 6 v 0 -3 h 6 v 3 h 6 v 0 -3 h 6 v 3 h 10 v 8.5 0 h 3 v 6 h -3 v 6 0 h 3 v 6 h -3 v 6 0 h 3 v 6 h -3 v 6 0 h 3 v 6 H 74 V 59 c 0,2.632812 -0.691406,5.21875 -2.007813,7.5 C 70.675781,68.78125 68.78125,70.675781 66.5,71.992188 64.21875,73.308594 61.632812,74 59,74 H 15 C 12.367187,74 9.78125,73.308594 7.5,71.992188 5.21875,70.675781 3.324219,68.78125 2.007812,66.5 0.691406,64.21875 0,61.632812 0,59 H -3 V 45.5 H 0 V 32 25 25 h -3 v -6 h 3 v -6 0 H -3 V 7 H 0 V 0" />
      <path
         inkscape:connector-curvature="0"
         id="path8"
         transform="rotate(180,84.25,42)"
         style="fill:none;stroke:#ff0000;stroke-width:0.1;stroke-linecap:butt;stroke-linejoin:miter;stroke-miterlimit:4;stroke-dasharray:none;stroke-opacity:1"
         d="m 0,0 h 10 v 0 -3 h 6 v 3 h 6 v 0 -3 h 6 v 3 h 6 v 0 -3 h 6 v 3 h 6 v 0 -3 h 6 v 3 h 6 v 0 -3 h 6 v 3 h 10 v 8.5 0 h 3 v 6 h -3 v 6 0 h 3 v 6 h -3 v 6 0 h 3 v 6 h -3 v 6 0 h 3 v 6 H 74 V 59 c 0,2.632812 -0.691406,5.21875 -2.007813,7.5 C 70.675781,68.78125 68.78125,70.675781 66.5,71.992188 64.21875,73.308594 61.632812,74 59,74 H 15 C 12.367187,74 9.78125,73.308594 7.5,71.992188 5.21875,70.675781 3.324219,68.78125 2.007812,66.5 0.691406,64.21875 0,61.632812 0,59 H -3 V 45.5 H 0 V 32 25 25 h -3 v -6 h 3 v -6 0 H -3 V 7 H 0 V 0" />
      <path
         inkscape:connector-curvature="0"
         id="path10"
         transform="matrix(1,0,0,-1,176,84)"
         style="fill:none;stroke:#ff0000;stroke-width:0.1;stroke-linecap:butt;stroke-linejoin:miter;stroke-miterlimit:4;stroke-dasharray:none;stroke-opacity:1"
         d="m 0,0 h 10 v 0 -3 h 6 v 3 h 6 v 0 -3 h 6 v 3 h 6 v 0 -3 h 6 v 3 h 6 v 0 -3 h 6 v 3 h 6 v 0 -3 h 6 v 3 h 10 3 v 0 7 0 h -3 v 6 h 3 v 6 0 h -3 v 6 h 3 v 7 0 H 74 0 -3 v 0 -7 0 h 3 v -6 h -3 v -6 0 H 0 V 7 H -3 V 0 0 h 3" />
    </g>
    <g
       id="text4517"
       style="font-style:normal;font-weight:normal;font-size:20.60119247px;line-height:1.25;font-family:sans-serif;letter-spacing:0px;word-spacing:0px;fill:#000000;fill-opacity:1;stroke:none;stroke-width:0.51502979"
       transform="matrix(1.1231126,0,0,1.1231126,219.69948,-83.102304)"
       aria-label="Elias">
      <path
         inkscape:connector-curvature="0"
         id="path4519"
         style="font-style:normal;font-variant:normal;font-weight:normal;font-stretch:normal;font-family:'Franklin Gothic Heavy';-inkscape-font-specification:'Franklin Gothic Heavy, ';stroke-width:0.51502979"
         d="m -171.11296,217.63172 v 3.27929 h -10.33078 v -13.73077 h 10.33078 v 3.16864 h -6.19645 v 1.99171 h 5.00947 v 3.04793 h -5.00947 v 2.2432 z" />
      <path
         inkscape:connector-curvature="0"
         id="path4521"
         style="font-style:normal;font-variant:normal;font-weight:normal;font-stretch:normal;font-family:'Franklin Gothic Heavy';-inkscape-font-specification:'Franklin Gothic Heavy, ';stroke-width:0.51502979"
         d="m -165.64077,207.18024 v 13.73077 h -3.95326 v -13.73077 z" />
      <path
         inkscape:connector-curvature="0"
         id="path4523"
         style="font-style:normal;font-variant:normal;font-weight:normal;font-stretch:normal;font-family:'Franklin Gothic Heavy';-inkscape-font-specification:'Franklin Gothic Heavy, ';stroke-width:0.51502979"
         d="m -159.50467,206.74769 v 3.1787 h -4.01361 v -3.1787 z m 0,3.93314 v 10.23018 h -4.01361 v -10.23018 z" />
      <path
         inkscape:connector-curvature="0"
         id="path4525"
         style="font-style:normal;font-variant:normal;font-weight:normal;font-stretch:normal;font-family:'Franklin Gothic Heavy';-inkscape-font-specification:'Franklin Gothic Heavy, ';stroke-width:0.51502979"
         d="m -147.09165,220.91101 h -3.82249 q -0.14083,-0.65385 -0.14083,-1.4284 -1.08639,1.63964 -3.28935,1.63964 -1.81065,0 -2.71597,-0.92544 -0.89527,-0.92544 -0.89527,-2.12249 0,-1.61952 1.46864,-2.61538 1.4787,-1.00592 5.23077,-1.2071 v -0.23136 q 0,-0.67397 -0.31183,-0.89527 -0.30178,-0.2213 -0.89527,-0.2213 -1.38817,0 -1.54911,1.11657 l -3.66154,-0.34202 q 0.78461,-3.20887 5.34142,-3.20887 1.23728,0 2.27337,0.25148 1.0361,0.24142 1.63965,0.76449 0.60355,0.52308 0.80473,1.10651 0.21125,0.58343 0.21125,2.2432 v 4.08402 q 0,1.16687 0.31183,1.99172 z m -4.1645,-4.78817 q -2.56509,0.2716 -2.56509,1.63965 0,0.92544 1.01598,0.92544 0.64379,0 1.09645,-0.38225 0.45266,-0.38224 0.45266,-1.68994 z" />
      <path
         inkscape:connector-curvature="0"
         id="path4527"
         style="font-style:normal;font-variant:normal;font-weight:normal;font-stretch:normal;font-family:'Franklin Gothic Heavy';-inkscape-font-specification:'Franklin Gothic Heavy, ';stroke-width:0.51502979"
         d="m -146.23662,218.01397 3.16864,-0.43255 q 0.2716,1.10651 2.15266,1.10651 1.55918,0 1.55918,-0.60355 0,-0.26154 -0.30178,-0.40236 -0.30177,-0.15089 -1.4284,-0.30178 -3.11835,-0.43254 -3.8929,-1.34793 -0.77456,-0.92544 -0.77456,-2.05207 0,-1.56923 1.30769,-2.53491 1.3077,-0.97574 3.43018,-0.97574 3.7219,0 4.74793,2.6858 l -3.03787,0.57337 q -0.42248,-0.90533 -1.78047,-0.90533 -0.64379,0 -0.96568,0.18107 -0.31184,0.171 -0.31184,0.34201 0,0.50296 0.96568,0.61361 2.5148,0.28166 3.41006,0.57337 0.89527,0.29172 1.529,1.06628 0.63373,0.77455 0.63373,1.871 0,1.67988 -1.40829,2.66568 -1.39822,0.9858 -3.86272,0.9858 -4.15444,0 -5.14024,-3.10828 z" />
    </g>
  </g>
</svg>
