<svg xmlns="http://www.w3.org/2000/svg" height="190mm" version="1.1" viewBox="0 -10 250 190" width="250mm">
<!--
FlexBox2 - 
Created with Boxes.py (https://festi.info/boxes.py)
Creation date: 2019-11-05 12:22:16
Command line (remove spaces beteen dashes): boxes FlexBox2 - -FingerJoint_angle=90.0 - -FingerJoint_style=rectangular - -FingerJoint_surroundingspaces=2.0 - -FingerJoint_edge_width=1.0 - -FingerJoint_finger=2.0 - -FingerJoint_play=0.0 - -FingerJoint_space=2.0 - -FingerJoint_width=1.0 - -Flex_stretch=1.05 - -Flex_connection=1.0 - -Flex_distance=0.5 - -Flex_width=5.0 - -x=50 - -y=50 - -h=100.0 - -outside=0 - -outside=1 - -radius=15 - -latchsize=9 - -thickness=3.0 - -format=svg - -tabs=0.0 - -debug=0 - -reference=0 - -burn=0.05
Url: http://localhost:8008/FlexBox2?FingerJoint_angle=90.0&FingerJoint_style=rectangular&FingerJoint_surroundingspaces=2.0&FingerJoint_edge_width=1.0&FingerJoint_finger=2.0&FingerJoint_play=0.0&FingerJoint_space=2.0&FingerJoint_width=1.0&Flex_stretch=1.05&Flex_connection=1.0&Flex_distance=0.5&Flex_width=5.0&x=50&y=50&h=100.0&outside=0&outside=1&radius=15&latchsize=9&thickness=3.0&format=svg&tabs=0.0&debug=0&reference=0&burn=0.05&render=1
SettingsUrl: http://localhost:8008/FlexBox2?FingerJoint_angle=90.0&FingerJoint_style=rectangular&FingerJoint_surroundingspaces=2.0&FingerJoint_edge_width=1.0&FingerJoint_finger=2.0&FingerJoint_play=0.0&FingerJoint_space=2.0&FingerJoint_width=1.0&Flex_stretch=1.05&Flex_connection=1.0&Flex_distance=0.5&Flex_width=5.0&x=50&y=50&h=100.0&outside=0&outside=1&radius=15&latchsize=9&thickness=3.0&format=svg&tabs=0.0&debug=0&reference=0&burn=0.05
--><g id="surface4624">
<path d="M -0.000000000000001776 0 H 6.5 C 6.527344 0 6.550781 0.0234375 6.550781 0.0507812 V 3.050781 C 6.550781 3.023438 6.527344 3 6.5 3 H 12.5 C 12.472656 3 12.449219 3.023438 12.449219 3.050781 V 0.0507812 C 12.449219 0.0234375 12.472656 0 12.5 0 H 18.5 C 18.527344 0 18.550781 0.0234375 18.550781 0.0507812 V 3.050781 C 18.550781 3.023438 18.527344 3 18.5 3 H 24.5 C 24.472656 3 24.449219 3.023438 24.449219 3.050781 V 0.0507812 C 24.449219 0.0234375 24.472656 0 24.5 0 H 30.5 C 30.527344 0 30.550781 0.0234375 30.550781 0.0507812 V 3.050781 C 30.550781 3.023438 30.527344 3 30.5 3 H 36.5 C 36.472656 3 36.449219 3.023438 36.449219 3.050781 V 0.0507812 C 36.449219 0.0234375 36.472656 0 36.5 0 H 42.5 C 42.527344 0 42.550781 0.0234375 42.550781 0.0507812 V 3.050781 C 42.550781 3.023438 42.527344 3 42.5 3 H 48.5 C 48.472656 3 48.449219 3.023438 48.449219 3.050781 V 0.0507812 C 48.449219 0.0234375 48.472656 0 48.5 0 H 54.5 C 54.527344 0 54.550781 0.0234375 54.550781 0.0507812 V 3.050781 C 54.550781 3.023438 54.527344 3 54.5 3 H 60.5 C 60.472656 3 60.449219 3.023438 60.449219 3.050781 V 0.0507812 C 60.449219 0.0234375 60.472656 0 60.5 0 H 66.5 C 66.527344 0 66.550781 0.0234375 66.550781 0.0507812 V 3.050781 C 66.550781 3.023438 66.527344 3 66.5 3 H 72.5 C 72.472656 3 72.449219 3.023438 72.449219 3.050781 V 0.0507812 C 72.449219 0.0234375 72.472656 0 72.5 0 H 79 M 81.03125 0 V 15.699219 M 81.03125 18.699219 V 47.101562 M 82.53125 50.101562 V 34.398438 M 82.53125 31.398438 V 3 M 84.03125 0 V 15.699219 M 84.03125 18.699219 V 47.101562 M 85.53125 50.101562 V 34.398438 M 85.53125 31.398438 V 3 M 87.03125 0 V 15.699219 M 87.03125 18.699219 V 47.101562 M 88.53125 50.101562 V 34.398438 M 88.53125 31.398438 V 3 M 90.03125 0 V 15.699219 M 90.03125 18.699219 V 47.101562 M 91.53125 50.101562 V 34.398438 M 91.53125 31.398438 V 3 M 93.03125 0 V 15.699219 M 93.03125 18.699219 V 47.101562 M 94.53125 50.101562 V 34.398438 M 94.53125 31.398438 V 3 M 96.03125 0 V 15.699219 M 96.03125 18.699219 V 47.101562 M 97.53125 50.101562 V 34.398438 M 97.53125 31.398438 V 3 M 99.03125 0 V 15.699219 M 99.03125 18.699219 V 47.101562 M 100.53125 50.101562 V 34.398438 M 100.53125 31.398438 V 3 M 79 0 H 102.5625 L 116.5625 0 M 118.59375 0 V 15.699219 M 118.59375 18.699219 V 47.101562 M 120.09375 50.101562 V 34.398438 M 120.09375 31.398438 V 3 M 121.59375 0 V 15.699219 M 121.59375 18.699219 V 47.101562 M 123.09375 50.101562 V 34.398438 M 123.09375 31.398438 V 3 M 124.59375 0 V 15.699219 M 124.59375 18.699219 V 47.101562 M 126.09375 50.101562 V 34.398438 M 126.09375 31.398438 V 3 M 127.59375 0 V 15.699219 M 127.59375 18.699219 V 47.101562 M 129.09375 50.101562 V 34.398438 M 129.09375 31.398438 V 3 M 130.59375 0 V 15.699219 M 130.59375 18.699219 V 47.101562 M 132.09375 50.101562 V 34.398438 M 132.09375 31.398438 V 3 M 133.59375 0 V 15.699219 M 133.59375 18.699219 V 47.101562 M 135.09375 50.101562 V 34.398438 M 135.09375 31.398438 V 3 M 136.59375 0 V 15.699219 M 136.59375 18.699219 V 47.101562 M 138.09375 50.101562 V 34.398438 M 138.09375 31.398438 V 3 M 116.5625 0 H 140.125 C 140.152344 0 140.175781 0.0234375 140.175781 0.0507812 V 3.351562 C 140.175781 3.324219 140.152344 3.300781 140.125 3.300781 H 154.226562 C 154.199219 3.300781 154.175781 3.324219 154.175781 3.351562 V 0.0507812 C 154.175781 -0.390625 154.535156 -0.75 154.976562 -0.75 C 155.398438 -0.75 155.738281 -0.410156 155.738281 0.0117188 C 155.738281 0.894531 157.0625 0.894531 157.0625 0.0117188 C 157.0625 -0.410156 157.402344 -0.75 157.824219 -0.75 C 158.246094 -0.75 158.585938 -0.410156 158.585938 0.0117188 C 158.585938 0.894531 159.910156 0.894531 159.910156 0.0117188 C 159.910156 -0.410156 160.25 -0.75 160.671875 -0.75 C 161.09375 -0.75 161.433594 -0.410156 161.433594 0.0117188 C 161.433594 0.894531 162.757812 0.894531 162.757812 0.0117188 C 162.757812 -0.410156 163.097656 -0.75 163.519531 -0.75 C 163.941406 -0.75 164.28125 -0.410156 164.28125 0.0117188 C 164.28125 0.894531 165.605469 0.894531 165.605469 0.0117188 C 165.605469 -0.410156 165.945312 -0.75 166.367188 -0.75 C 166.808594 -0.75 167.167969 -0.390625 167.167969 0.0507812 V 50.050781 C 167.167969 50.492188 166.808594 50.851562 166.367188 50.851562 C 165.945312 50.851562 165.605469 50.511719 165.605469 50.089844 C 165.605469 49.207031 164.28125 49.207031 164.28125 50.089844 C 164.28125 50.511719 163.941406 50.851562 163.519531 50.851562 C 163.097656 50.851562 162.757812 50.511719 162.757812 50.089844 C 162.757812 49.207031 161.433594 49.207031 161.433594 50.089844 C 161.433594 50.511719 161.09375 50.851562 160.671875 50.851562 C 160.25 50.851562 159.910156 50.511719 159.910156 50.089844 C 159.910156 49.207031 158.585938 49.207031 158.585938 50.089844 C 158.585938 50.511719 158.246094 50.851562 157.824219 50.851562 C 157.402344 50.851562 157.0625 50.511719 157.0625 50.089844 C 157.0625 49.207031 155.738281 49.207031 155.738281 50.089844 C 155.738281 50.511719 155.398438 50.851562 154.976562 50.851562 C 154.535156 50.851562 154.175781 50.492188 154.175781 50.050781 V 46.75 C 154.175781 46.777344 154.199219 46.800781 154.226562 46.800781 H 140.125 C 140.152344 46.800781 140.175781 46.777344 140.175781 46.75 V 50.050781 C 140.175781 50.078125 140.152344 50.101562 140.125 50.101562 H 116.5625 L 102.5625 50.101562 H 79 L 72.5 50.101562 C 72.472656 50.101562 72.449219 50.078125 72.449219 50.050781 V 47.050781 C 72.449219 47.078125 72.472656 47.101562 72.5 47.101562 H 66.5 C 66.527344 47.101562 66.550781 47.078125 66.550781 47.050781 V 50.050781 C 66.550781 50.078125 66.527344 50.101562 66.5 50.101562 H 60.5 C 60.472656 50.101562 60.449219 50.078125 60.449219 50.050781 V 47.050781 C 60.449219 47.078125 60.472656 47.101562 60.5 47.101562 H 54.5 C 54.527344 47.101562 54.550781 47.078125 54.550781 47.050781 V 50.050781 C 54.550781 50.078125 54.527344 50.101562 54.5 50.101562 H 48.5 C 48.472656 50.101562 48.449219 50.078125 48.449219 50.050781 V 47.050781 C 48.449219 47.078125 48.472656 47.101562 48.5 47.101562 H 42.5 C 42.527344 47.101562 42.550781 47.078125 42.550781 47.050781 V 50.050781 C 42.550781 50.078125 42.527344 50.101562 42.5 50.101562 H 36.5 C 36.472656 50.101562 36.449219 50.078125 36.449219 50.050781 V 47.050781 C 36.449219 47.078125 36.472656 47.101562 36.5 47.101562 H 30.5 C 30.527344 47.101562 30.550781 47.078125 30.550781 47.050781 V 50.050781 C 30.550781 50.078125 30.527344 50.101562 30.5 50.101562 H 24.5 C 24.472656 50.101562 24.449219 50.078125 24.449219 50.050781 V 47.050781 C 24.449219 47.078125 24.472656 47.101562 24.5 47.101562 H 18.5 C 18.527344 47.101562 18.550781 47.078125 18.550781 47.050781 V 50.050781 C 18.550781 50.078125 18.527344 50.101562 18.5 50.101562 H 12.5 C 12.472656 50.101562 12.449219 50.078125 12.449219 50.050781 V 47.050781 C 12.449219 47.078125 12.472656 47.101562 12.5 47.101562 H 6.5 C 6.527344 47.101562 6.550781 47.078125 6.550781 47.050781 V 50.050781 C 6.550781 50.078125 6.527344 50.101562 6.5 50.101562 H -0.000000000000014211 C -0.0273438 50.101562 -0.0507813 50.078125 -0.0507813 50.050781 V 47.050781 L -0.0507813 40.050781 C -0.0507813 40.078125 -0.0273438 40.101562 -0.000000000000010658 40.101562 H -3 C -3.027344 40.101562 -3.050781 40.078125 -3.050781 40.050781 V 34.050781 C -3.050781 34.023438 -3.027344 34 -3 34 H -0.000000000000008882 C -0.0273438 34 -0.0507813 34.023438 -0.0507813 34.050781 V 28.050781 C -0.0507813 28.078125 -0.0273438 28.101562 -0.000000000000008882 28.101562 H -3 C -3.027344 28.101562 -3.050781 28.078125 -3.050781 28.050781 V 22.050781 C -3.050781 22.023438 -3.027344 22 -3 22 H -0.000000000000007105 C -0.0273438 22 -0.0507813 22.023438 -0.0507813 22.050781 V 16.050781 C -0.0507813 16.078125 -0.0273438 16.101562 -0.000000000000005329 16.101562 H -3 C -3.027344 16.101562 -3.050781 16.078125 -3.050781 16.050781 V 10.050781 C -3.050781 10.023438 -3.027344 10 -3 10 H -0.000000000000003553 C -0.0273438 10 -0.0507813 10.023438 -0.0507813 10.050781 V 3.050781 L -0.0507813 0.0507812 C -0.0507813 0.0234375 -0.0273438 0 -0.000000000000001776 0 " style="fill:none;stroke-width:0.1;stroke-linecap:butt;stroke-linejoin:miter;stroke:rgb(0%,0%,0%);stroke-opacity:1;stroke-miterlimit:10;" transform="matrix(1.0000,0.0000,0.0000,-1.0000,13.0508,159.4453)"/>
<path d="M 0 0 H 7 C 7.027344 0 7.050781 0.0234375 7.050781 0.0507812 V 3.050781 C 7.050781 3.023438 7.027344 3 7 3 H 13 C 12.972656 3 12.949219 3.023438 12.949219 3.050781 V 0.0507812 C 12.949219 0.0234375 12.972656 0 13 0 H 19 C 19.027344 0 19.050781 0.0234375 19.050781 0.0507812 V 3.050781 C 19.050781 3.023438 19.027344 3 19 3 H 25 C 24.972656 3 24.949219 3.023438 24.949219 3.050781 V 0.0507812 C 24.949219 0.0234375 24.972656 0 25 0 H 31 C 31.027344 0 31.050781 0.0234375 31.050781 0.0507812 V 3.050781 C 31.050781 3.023438 31.027344 3 31 3 H 37 C 36.972656 3 36.949219 3.023438 36.949219 3.050781 V 0.0507812 C 36.949219 0.0234375 36.972656 0 37 0 H 44 L 47 0 C 47.027344 0 47.050781 0.0234375 47.050781 0.0507812 V 3.050781 L 47.050781 10.050781 C 47.050781 10.078125 47.027344 10.101562 47 10.101562 H 44 C 44.027344 10.101562 44.050781 10.078125 44.050781 10.050781 V 16.050781 C 44.050781 16.023438 44.027344 16 44 16 H 47 C 47.027344 16 47.050781 16.023438 47.050781 16.050781 V 22.050781 C 47.050781 22.078125 47.027344 22.101562 47 22.101562 H 44 C 44.027344 22.101562 44.050781 22.078125 44.050781 22.050781 V 28.050781 C 44.050781 28.023438 44.027344 28 44 28 H 47 C 47.027344 28 47.050781 28.023438 47.050781 28.050781 V 34.050781 C 47.050781 34.078125 47.027344 34.101562 47 34.101562 H 44 C 44.027344 34.101562 44.050781 34.078125 44.050781 34.050781 V 40.050781 C 44.050781 40.023438 44.027344 40 44 40 H 47 C 47.027344 40 47.050781 40.023438 47.050781 40.050781 V 47.050781 L 47.050781 50.050781 C 47.050781 50.078125 47.027344 50.101562 47 50.101562 H 44 L 37 50.101562 C 36.972656 50.101562 36.949219 50.078125 36.949219 50.050781 V 47.050781 C 36.949219 47.078125 36.972656 47.101562 37 47.101562 H 31 C 31.027344 47.101562 31.050781 47.078125 31.050781 47.050781 V 50.050781 C 31.050781 50.078125 31.027344 50.101562 31 50.101562 H 25 C 24.972656 50.101562 24.949219 50.078125 24.949219 50.050781 V 47.050781 C 24.949219 47.078125 24.972656 47.101562 25 47.101562 H 19 C 19.027344 47.101562 19.050781 47.078125 19.050781 47.050781 V 50.050781 C 19.050781 50.078125 19.027344 50.101562 19 50.101562 H 13 C 12.972656 50.101562 12.949219 50.078125 12.949219 50.050781 V 47.050781 C 12.949219 47.078125 12.972656 47.101562 13 47.101562 H 7 C 7.027344 47.101562 7.050781 47.078125 7.050781 47.050781 V 50.050781 C 7.050781 50.078125 7.027344 50.101562 7 50.101562 H 0 L -3 50.101562 C -3.027344 50.101562 -3.050781 50.078125 -3.050781 50.050781 V 47.050781 L -3.050781 40.050781 C -3.050781 40.023438 -3.027344 40 -3 40 H 0 C -0.0273438 40 -0.0507812 40.023438 -0.0507812 40.050781 V 34.050781 C -0.0507812 34.078125 -0.0273438 34.101562 0 34.101562 H -3 C -3.027344 34.101562 -3.050781 34.078125 -3.050781 34.050781 V 28.050781 C -3.050781 28.023438 -3.027344 28 -3 28 H 0 C -0.0273438 28 -0.0507812 28.023438 -0.0507812 28.050781 V 22.050781 C -0.0507812 22.078125 -0.0273438 22.101562 0 22.101562 H -3 C -3.027344 22.101562 -3.050781 22.078125 -3.050781 22.050781 V 16.050781 C -3.050781 16.023438 -3.027344 16 -3 16 H 0 C -0.0273438 16 -0.0507812 16.023438 -0.0507812 16.050781 V 10.050781 C -0.0507812 10.078125 -0.0273438 10.101562 0 10.101562 H -3 C -3.027344 10.101562 -3.050781 10.078125 -3.050781 10.050781 V 3.050781 L -3.050781 0.0507812 C -3.050781 0.0234375 -3.027344 0 -3 0 H 0 " style="fill:none;stroke-width:0.1;stroke-linecap:butt;stroke-linejoin:miter;stroke:rgb(0%,0%,0%);stroke-opacity:1;stroke-miterlimit:10;" transform="matrix(1.0000,0.0000,0.0000,-1.0000,184.7734,160.1953)"/>
<path d="M -0.0078125 0 H 6.992187 C 6.964844 0 6.941406 0.0234375 6.941406 0.0507812 V -2.949219 C 6.941406 -2.976562 6.964844 -3 6.992188 -3 H 12.992188 C 13.019531 -3 13.042969 -2.976562 13.042969 -2.949219 V 0.0507812 C 13.042969 0.0234375 13.019531 0 12.992187 0 H 18.992188 C 18.964844 0 18.941406 0.0234375 18.941406 0.0507812 V -2.949219 C 18.941406 -2.976562 18.964844 -3 18.992188 -3 H 24.992188 C 25.019531 -3 25.042969 -2.976562 25.042969 -2.949219 V 0.0507812 C 25.042969 0.0234375 25.019531 0 24.992188 0 H 30.992188 C 30.964844 0 30.941406 0.0234375 30.941406 0.0507812 V -2.949219 C 30.941406 -2.976562 30.964844 -3 30.992188 -3 H 36.992188 C 37.019531 -3 37.042969 -2.976562 37.042969 -2.949219 V 0.0507812 C 37.042969 0.0234375 37.019531 0 36.992188 0 H 43.992188 C 44.019531 0 44.042969 0.0234375 44.042969 0.0507812 V 6.550781 C 44.042969 6.523438 44.019531 6.5 43.992188 6.5 H 46.992188 C 47.019531 6.5 47.042969 6.523438 47.042969 6.550781 V 12.550781 C 47.042969 12.578125 47.019531 12.601562 46.992187 12.601562 H 43.992187 C 44.019531 12.601562 44.042969 12.578125 44.042969 12.550781 V 18.550781 C 44.042969 18.523438 44.019531 18.5 43.992187 18.5 H 46.992187 C 47.019531 18.5 47.042969 18.523438 47.042969 18.550781 V 24.550781 C 47.042969 24.578125 47.019531 24.601562 46.992187 24.601562 H 43.992187 C 44.019531 24.601562 44.042969 24.578125 44.042969 24.550781 V 30.550781 C 44.042969 30.523438 44.019531 30.5 43.992187 30.5 H 46.992187 C 47.019531 30.5 47.042969 30.523438 47.042969 30.550781 V 36.550781 C 47.042969 36.578125 47.019531 36.601562 46.992187 36.601562 H 43.992187 C 44.019531 36.601562 44.042969 36.578125 44.042969 36.550781 V 42.550781 C 44.042969 42.523438 44.019531 42.5 43.992187 42.5 H 46.992187 C 47.019531 42.5 47.042969 42.523438 47.042969 42.550781 V 48.550781 C 47.042969 48.578125 47.019531 48.601562 46.992187 48.601562 H 43.992187 C 44.019531 48.601562 44.042969 48.578125 44.042969 48.550781 V 54.550781 C 44.042969 54.523438 44.019531 54.5 43.992187 54.5 H 46.992187 C 47.019531 54.5 47.042969 54.523438 47.042969 54.550781 V 60.550781 C 47.042969 60.578125 47.019531 60.601562 46.992187 60.601562 H 43.992187 C 44.019531 60.601562 44.042969 60.578125 44.042969 60.550781 V 66.550781 C 44.042969 66.523438 44.019531 66.5 43.992187 66.5 H 46.992187 C 47.019531 66.5 47.042969 66.523438 47.042969 66.550781 V 72.550781 C 47.042969 72.578125 47.019531 72.601562 46.992187 72.601562 H 43.992187 C 44.019531 72.601562 44.042969 72.578125 44.042969 72.550781 V 79.050781 C 44.042969 81.691406 43.347656 84.289062 42.027344 86.574219 C 40.707031 88.863281 38.804687 90.761719 36.519531 92.082031 C 34.230469 93.402344 31.636719 94.097656 28.996094 94.097656 H 14.996094 C 12.355469 94.097656 9.757812 93.402344 7.472656 92.082031 C 5.183594 90.761719 3.285156 88.859375 1.964844 86.574219 C 0.644531 84.285156 -0.0507813 81.691406 -0.0507813 79.050781 C -0.0507813 79.078125 -0.0273438 79.101562 -0.000000000000049738 79.101562 H -3 C -3.027344 79.101562 -3.050781 79.078125 -3.050781 79.050781 V 65.550781 C -3.050781 65.523438 -3.027344 65.5 -3 65.5 H -0.000000000000040856 C -0.0273438 65.5 -0.0507813 65.523438 -0.0507813 65.550781 V 52.050781 L -0.0507813 41.050781 C -0.0507813 41.078125 -0.0273438 41.101562 -0.000000000000024869 41.101562 H -3 C -3.027344 41.101562 -3.050781 41.078125 -3.050781 41.050781 V 35.050781 C -3.050781 35.023438 -3.027344 35 -3 35 H -0.000000000000021316 C -0.0273438 35 -0.0507813 35.023438 -0.0507813 35.050781 V 29.050781 C -0.0507813 29.078125 -0.0273438 29.101562 -0.000000000000017764 29.101562 H -3 C -3.027344 29.101562 -3.050781 29.078125 -3.050781 29.050781 V 23.050781 C -3.050781 23.023438 -3.027344 23 -3 23 H -0.000000000000014211 C -0.0273438 23 -0.0507813 23.023438 -0.0507813 23.050781 V 17.050781 C -0.0507813 17.078125 -0.0273438 17.101562 -0.000000000000010658 17.101562 H -3 C -3.027344 17.101562 -3.050781 17.078125 -3.050781 17.050781 V 11.050781 C -3.050781 11.023438 -3.027344 11 -3 11 H -0.000000000000007105 C -0.0273438 11 -0.0507813 11.023438 -0.0507813 11.050781 L -0.0507812 0.0507812 C -0.0507812 0.0234375 -0.0273438 0 0 0 " style="fill:none;stroke-width:0.1;stroke-linecap:butt;stroke-linejoin:miter;stroke:rgb(0%,0%,0%);stroke-opacity:1;stroke-miterlimit:10;" transform="matrix(1.0000,0.0000,0.0000,-1.0000,13.0586,104.0977)"/>
<path d="M -0.0078125 0 H 6.992188 C 6.964844 0 6.941406 0.0234375 6.941406 0.0507812 V -2.949219 C 6.941406 -2.976562 6.964844 -3 6.992188 -3 H 12.992188 C 13.019531 -3 13.042969 -2.976562 13.042969 -2.949219 V 0.0507812 C 13.042969 0.0234375 13.019531 0 12.992188 0 H 18.992188 C 18.964844 0 18.941406 0.0234375 18.941406 0.0507812 V -2.949219 C 18.941406 -2.976562 18.964844 -3 18.992188 -3 H 24.992188 C 25.019531 -3 25.042969 -2.976562 25.042969 -2.949219 V 0.0507812 C 25.042969 0.0234375 25.019531 0 24.992188 0 H 30.992188 C 30.964844 0 30.941406 0.0234375 30.941406 0.0507812 V -2.949219 C 30.941406 -2.976562 30.964844 -3 30.992188 -3 H 36.992188 C 37.019531 -3 37.042969 -2.976562 37.042969 -2.949219 V 0.0507812 C 37.042969 0.0234375 37.019531 0 36.992188 0 H 43.992188 C 44.019531 0 44.042969 0.0234375 44.042969 0.0507812 V 6.550781 C 44.042969 6.523438 44.019531 6.5 43.992188 6.5 H 46.992188 C 47.019531 6.5 47.042969 6.523438 47.042969 6.550781 V 12.550781 C 47.042969 12.578125 47.019531 12.601562 46.992187 12.601562 H 43.992187 C 44.019531 12.601562 44.042969 12.578125 44.042969 12.550781 V 18.550781 C 44.042969 18.523438 44.019531 18.5 43.992187 18.5 H 46.992187 C 47.019531 18.5 47.042969 18.523438 47.042969 18.550781 V 24.550781 C 47.042969 24.578125 47.019531 24.601562 46.992187 24.601562 H 43.992187 C 44.019531 24.601562 44.042969 24.578125 44.042969 24.550781 V 30.550781 C 44.042969 30.523438 44.019531 30.5 43.992187 30.5 H 46.992187 C 47.019531 30.5 47.042969 30.523438 47.042969 30.550781 V 36.550781 C 47.042969 36.578125 47.019531 36.601562 46.992187 36.601562 H 43.992187 C 44.019531 36.601562 44.042969 36.578125 44.042969 36.550781 V 42.550781 C 44.042969 42.523438 44.019531 42.5 43.992187 42.5 H 46.992187 C 47.019531 42.5 47.042969 42.523438 47.042969 42.550781 V 48.550781 C 47.042969 48.578125 47.019531 48.601562 46.992187 48.601562 H 43.992187 C 44.019531 48.601562 44.042969 48.578125 44.042969 48.550781 V 54.550781 C 44.042969 54.523438 44.019531 54.5 43.992187 54.5 H 46.992187 C 47.019531 54.5 47.042969 54.523438 47.042969 54.550781 V 60.550781 C 47.042969 60.578125 47.019531 60.601562 46.992187 60.601562 H 43.992187 C 44.019531 60.601562 44.042969 60.578125 44.042969 60.550781 V 66.550781 C 44.042969 66.523438 44.019531 66.5 43.992187 66.5 H 46.992187 C 47.019531 66.5 47.042969 66.523438 47.042969 66.550781 V 72.550781 C 47.042969 72.578125 47.019531 72.601562 46.992187 72.601562 H 43.992187 C 44.019531 72.601562 44.042969 72.578125 44.042969 72.550781 V 79.050781 C 44.042969 81.691406 43.347656 84.289062 42.027344 86.574219 C 40.707031 88.863281 38.804687 90.761719 36.519531 92.082031 C 34.230469 93.402344 31.636719 94.097656 28.996094 94.097656 H 14.996094 C 12.355469 94.097656 9.757812 93.402344 7.472656 92.082031 C 5.183594 90.761719 3.285156 88.859375 1.964844 86.574219 C 0.644531 84.285156 -0.0507813 81.691406 -0.0507813 79.050781 C -0.0507813 79.078125 -0.0273438 79.101562 -0.000000000000042633 79.101562 H -3 C -3.027344 79.101562 -3.050781 79.078125 -3.050781 79.050781 V 65.550781 C -3.050781 65.523438 -3.027344 65.5 -3 65.5 H -0.000000000000042633 C -0.0273438 65.5 -0.0507813 65.523438 -0.0507813 65.550781 V 52.050781 L -0.0507813 41.050781 C -0.0507813 41.078125 -0.0273438 41.101562 -0.000000000000028422 41.101562 H -3 C -3.027344 41.101562 -3.050781 41.078125 -3.050781 41.050781 V 35.050781 C -3.050781 35.023438 -3.027344 35 -3 35 H -0.000000000000014211 C -0.0273438 35 -0.0507813 35.023438 -0.0507813 35.050781 V 29.050781 C -0.0507813 29.078125 -0.0273438 29.101562 -0.000000000000014211 29.101562 H -3 C -3.027344 29.101562 -3.050781 29.078125 -3.050781 29.050781 V 23.050781 C -3.050781 23.023438 -3.027344 23 -3 23 H -0.000000000000014211 C -0.0273438 23 -0.0507813 23.023438 -0.0507813 23.050781 V 17.050781 C -0.0507813 17.078125 -0.0273438 17.101562 -0.000000000000014211 17.101562 H -3 C -3.027344 17.101562 -3.050781 17.078125 -3.050781 17.050781 V 11.050781 C -3.050781 11.023438 -3.027344 11 -3 11 H 0 C -0.0273438 11 -0.0507812 11.023438 -0.0507812 11.050781 V 0.0507812 C -0.0507812 0.0234375 -0.0273438 0 0 0 " style="fill:none;stroke-width:0.1;stroke-linecap:butt;stroke-linejoin:miter;stroke:rgb(0%,0%,0%);stroke-opacity:1;stroke-miterlimit:10;" transform="matrix(-1.0000,0.0000,-0.0000,-1.0000,108.6406,104.0977)"/>
<path d="M 0 0 H 7 C 6.972656 0 6.949219 0.0234375 6.949219 0.0507812 V -2.949219 C 6.949219 -2.976562 6.972656 -3 7 -3 H 13 C 13.027344 -3 13.050781 -2.976562 13.050781 -2.949219 V 0.0507812 C 13.050781 0.0234375 13.027344 0 13 0 H 19 C 18.972656 0 18.949219 0.0234375 18.949219 0.0507812 V -2.949219 C 18.949219 -2.976562 18.972656 -3 19 -3 H 25 C 25.027344 -3 25.050781 -2.976562 25.050781 -2.949219 V 0.0507812 C 25.050781 0.0234375 25.027344 0 25 0 H 31 C 30.972656 0 30.949219 0.0234375 30.949219 0.0507812 V -2.949219 C 30.949219 -2.976562 30.972656 -3 31 -3 H 37 C 37.027344 -3 37.050781 -2.976562 37.050781 -2.949219 V 0.0507812 C 37.050781 0.0234375 37.027344 0 37 0 H 44 L 47 0 C 47.027344 0 47.050781 0.0234375 47.050781 0.0507812 H 47.050781 V 11.050781 C 47.050781 11.078125 47.027344 11.101562 47 11.101562 H 44 C 44.027344 11.101562 44.050781 11.078125 44.050781 11.050781 V 17.050781 C 44.050781 17.023438 44.027344 17 44 17 H 47 C 47.027344 17 47.050781 17.023438 47.050781 17.050781 V 23.050781 C 47.050781 23.078125 47.027344 23.101562 47 23.101562 H 44 C 44.027344 23.101562 44.050781 23.078125 44.050781 23.050781 V 29.050781 C 44.050781 29.023438 44.027344 29 44 29 H 47 C 47.027344 29 47.050781 29.023438 47.050781 29.050781 V 35.050781 C 47.050781 35.078125 47.027344 35.101562 47 35.101562 H 44 C 44.027344 35.101562 44.050781 35.078125 44.050781 35.050781 V 41.050781 C 44.050781 41.023438 44.027344 41 44 41 H 47 C 47.027344 41 47.050781 41.023438 47.050781 41.050781 V 52.050781 C 47.050781 52.078125 47.027344 52.101562 47 52.101562 H 44 L -0.000000000000014211 52.101562 H -3 C -3.027344 52.101562 -3.050781 52.078125 -3.050781 52.050781 H -3.050781 V 41.050781 C -3.050781 41.023438 -3.027344 41 -3 41 H 0 C -0.0273438 41 -0.0507812 41.023438 -0.0507812 41.050781 V 35.050781 C -0.0507812 35.078125 -0.0273438 35.101562 0 35.101562 H -3 C -3.027344 35.101562 -3.050781 35.078125 -3.050781 35.050781 V 29.050781 C -3.050781 29.023438 -3.027344 29 -3 29 H 0 C -0.0273438 29 -0.0507812 29.023438 -0.0507812 29.050781 V 23.050781 C -0.0507812 23.078125 -0.0273438 23.101562 0 23.101562 H -3 C -3.027344 23.101562 -3.050781 23.078125 -3.050781 23.050781 V 17.050781 C -3.050781 17.023438 -3.027344 17 -3 17 H 0 C -0.0273438 17 -0.0507812 17.023438 -0.0507812 17.050781 V 11.050781 C -0.0507812 11.078125 -0.0273438 11.101562 0 11.101562 H -3 C -3.027344 11.101562 -3.050781 11.078125 -3.050781 11.050781 V 0.0507812 C -3.050781 0.0234375 -3.027344 0 -3 0 H 0 " style="fill:none;stroke-width:0.1;stroke-linecap:butt;stroke-linejoin:miter;stroke:rgb(0%,0%,0%);stroke-opacity:1;stroke-miterlimit:10;" transform="matrix(1.0000,0.0000,0.0000,-1.0000,116.2500,104.0977)"/>
</g>
</svg>