<svg xmlns="http://www.w3.org/2000/svg" height="240mm" version="1.1" viewBox="0 -10 350 240" width="350mm">
<!--
FlexBox2 - 
Created with Boxes.py (https://festi.info/boxes.py)
Creation date: 2019-10-31 13:18:49
Command line (remove spaces beteen dashes): boxes FlexBox2 - -FingerJoint_angle=90.0 - -FingerJoint_style=rectangular - -FingerJoint_surroundingspaces=2.0 - -FingerJoint_edge_width=1.0 - -FingerJoint_finger=2.0 - -FingerJoint_play=0.0 - -FingerJoint_space=2.0 - -FingerJoint_width=1.0 - -Flex_stretch=1.05 - -Flex_connection=1.0 - -Flex_distance=0.5 - -Flex_width=5.0 - -x=100 - -y=100 - -h=100 - -outside=0 - -outside=1 - -radius=15 - -latchsize=9 - -thickness=3.0 - -format=svg - -tabs=0.0 - -debug=0 - -reference=0 - -burn=0
Url: http://localhost:8008/FlexBox2?FingerJoint_angle=90.0&FingerJoint_style=rectangular&FingerJoint_surroundingspaces=2.0&FingerJoint_edge_width=1.0&FingerJoint_finger=2.0&FingerJoint_play=0.0&FingerJoint_space=2.0&FingerJoint_width=1.0&Flex_stretch=1.05&Flex_connection=1.0&Flex_distance=0.5&Flex_width=5.0&x=100&y=100&h=100&outside=0&outside=1&radius=15&latchsize=9&thickness=3.0&format=svg&tabs=0.0&debug=0&reference=0&burn=0&render=1
SettingsUrl: http://localhost:8008/FlexBox2?FingerJoint_angle=90.0&FingerJoint_style=rectangular&FingerJoint_surroundingspaces=2.0&FingerJoint_edge_width=1.0&FingerJoint_finger=2.0&FingerJoint_play=0.0&FingerJoint_space=2.0&FingerJoint_width=1.0&Flex_stretch=1.05&Flex_connection=1.0&Flex_distance=0.5&Flex_width=5.0&x=100&y=100&h=100&outside=0&outside=1&radius=15&latchsize=9&thickness=3.0&format=svg&tabs=0.0&debug=0&reference=0&burn=0
--><g id="surface8106">
<path d="M -0.000000000000001776 0 H 6.5 V 0 V 3 H 12.5 V 0 H 18.5 V 0 V 3 H 24.5 V 0 H 30.5 V 0 V 3 H 36.5 V 0 H 42.5 V 0 V 3 H 48.5 V 0 H 54.5 V 0 V 3 H 60.5 V 0 H 66.5 V 0 V 3 H 72.5 V 0 H 79 M 81.03125 0 V 16.167969 M 81.03125 19.167969 V 48.5 M 81.03125 51.5 V 80.832031 M 81.03125 83.832031 V 100 M 82.53125 97 V 67.667969 M 82.53125 64.667969 V 35.332031 M 82.53125 32.332031 V 3 M 84.03125 0 V 16.167969 M 84.03125 19.167969 V 48.5 M 84.03125 51.5 V 80.832031 M 84.03125 83.832031 V 100 M 85.53125 97 V 67.667969 M 85.53125 64.667969 V 35.332031 M 85.53125 32.332031 V 3 M 87.03125 0 V 16.167969 M 87.03125 19.167969 V 48.5 M 87.03125 51.5 V 80.832031 M 87.03125 83.832031 V 100 M 88.53125 97 V 67.667969 M 88.53125 64.667969 V 35.332031 M 88.53125 32.332031 V 3 M 90.03125 0 V 16.167969 M 90.03125 19.167969 V 48.5 M 90.03125 51.5 V 80.832031 M 90.03125 83.832031 V 100 M 91.53125 97 V 67.667969 M 91.53125 64.667969 V 35.332031 M 91.53125 32.332031 V 3 M 93.03125 0 V 16.167969 M 93.03125 19.167969 V 48.5 M 93.03125 51.5 V 80.832031 M 93.03125 83.832031 V 100 M 94.53125 97 V 67.667969 M 94.53125 64.667969 V 35.332031 M 94.53125 32.332031 V 3 M 96.03125 0 V 16.167969 M 96.03125 19.167969 V 48.5 M 96.03125 51.5 V 80.832031 M 96.03125 83.832031 V 100 M 97.53125 97 V 67.667969 M 97.53125 64.667969 V 35.332031 M 97.53125 32.332031 V 3 M 99.03125 0 V 16.167969 M 99.03125 19.167969 V 48.5 M 99.03125 51.5 V 80.832031 M 99.03125 83.832031 V 100 M 100.53125 97 V 67.667969 M 100.53125 64.667969 V 35.332031 M 100.53125 32.332031 V 3 M 79 0 H 102.5625 L 166.5625 0 M 168.59375 0 V 16.167969 M 168.59375 19.167969 V 48.5 M 168.59375 51.5 V 80.832031 M 168.59375 83.832031 V 100 M 170.09375 97 V 67.667969 M 170.09375 64.667969 V 35.332031 M 170.09375 32.332031 V 3 M 171.59375 0 V 16.167969 M 171.59375 19.167969 V 48.5 M 171.59375 51.5 V 80.832031 M 171.59375 83.832031 V 100 M 173.09375 97 V 67.667969 M 173.09375 64.667969 V 35.332031 M 173.09375 32.332031 V 3 M 174.59375 0 V 16.167969 M 174.59375 19.167969 V 48.5 M 174.59375 51.5 V 80.832031 M 174.59375 83.832031 V 100 M 176.09375 97 V 67.667969 M 176.09375 64.667969 V 35.332031 M 176.09375 32.332031 V 3 M 177.59375 0 V 16.167969 M 177.59375 19.167969 V 48.5 M 177.59375 51.5 V 80.832031 M 177.59375 83.832031 V 100 M 179.09375 97 V 67.667969 M 179.09375 64.667969 V 35.332031 M 179.09375 32.332031 V 3 M 180.59375 0 V 16.167969 M 180.59375 19.167969 V 48.5 M 180.59375 51.5 V 80.832031 M 180.59375 83.832031 V 100 M 182.09375 97 V 67.667969 M 182.09375 64.667969 V 35.332031 M 182.09375 32.332031 V 3 M 183.59375 0 V 16.167969 M 183.59375 19.167969 V 48.5 M 183.59375 51.5 V 80.832031 M 183.59375 83.832031 V 100 M 185.09375 97 V 67.667969 M 185.09375 64.667969 V 35.332031 M 185.09375 32.332031 V 3 M 186.59375 0 V 16.167969 M 186.59375 19.167969 V 48.5 M 186.59375 51.5 V 80.832031 M 186.59375 83.832031 V 100 M 188.09375 97 V 67.667969 M 188.09375 64.667969 V 35.332031 M 188.09375 32.332031 V 3 M 166.5625 0 H 190.125 V 3.300781 H 204.226562 V 0 C 204.226562 -0.414062 204.5625 -0.75 204.976562 -0.75 C 205.371094 -0.75 205.6875 -0.429688 205.6875 -0.0390625 C 205.6875 0.910156 207.113281 0.910156 207.113281 -0.0390625 C 207.113281 -0.433594 207.433594 -0.75 207.824219 -0.75 C 208.21875 -0.75 208.535156 -0.429688 208.535156 -0.0390625 C 208.535156 0.910156 209.960938 0.910156 209.960938 -0.0390625 C 209.960938 -0.433594 210.28125 -0.75 210.671875 -0.75 C 211.066406 -0.75 211.382812 -0.429688 211.382812 -0.0390625 C 211.382812 0.910156 212.808594 0.910156 212.808594 -0.0390625 C 212.808594 -0.433594 213.128906 -0.75 213.519531 -0.75 C 213.914062 -0.75 214.230469 -0.429688 214.230469 -0.0390625 C 214.230469 0.910156 215.65625 0.910156 215.65625 -0.0390625 C 215.65625 -0.433594 215.976562 -0.75 216.367188 -0.75 C 216.78125 -0.75 217.117188 -0.414062 217.117188 0 L 217.117187 100 C 217.117187 100.414062 216.78125 100.75 216.367187 100.75 C 215.972656 100.75 215.65625 100.429688 215.65625 100.039062 C 215.65625 99.089844 214.230469 99.089844 214.230469 100.039062 C 214.230469 100.433594 213.910156 100.75 213.519531 100.75 C 213.125 100.75 212.808594 100.429688 212.808594 100.039062 C 212.808594 99.089844 211.382812 99.089844 211.382812 100.039062 C 211.382812 100.433594 211.0625 100.75 210.671875 100.75 C 210.277344 100.75 209.960937 100.429688 209.960937 100.039062 C 209.960937 99.089844 208.535156 99.089844 208.535156 100.039062 C 208.535156 100.433594 208.214844 100.75 207.824219 100.75 C 207.429687 100.75 207.113281 100.429688 207.113281 100.039062 C 207.113281 99.089844 205.6875 99.089844 205.6875 100.039062 C 205.6875 100.433594 205.367187 100.75 204.976562 100.75 C 204.5625 100.75 204.226562 100.414062 204.226562 100 V 96.699219 H 190.125 V 100 H 166.5625 L 102.5625 100 H 79 L 72.5 100 H 72.5 V 97 H 66.5 V 100 H 60.5 V 100 V 97 H 54.5 V 100 H 48.5 V 100 V 97 H 42.5 V 100 H 36.5 V 100 V 97 H 30.5 V 100 H 24.5 V 100 V 97 H 18.5 V 100 H 12.5 V 100 V 97 H 6.5 V 100 H -0.000000000000026645 L -0.000000000000024869 97 L -0.000000000000023093 89 H -0.000000000000023093 L -3 89 V 83 H -0.000000000000021316 L -0.00000000000001954 77 H -0.00000000000001954 L -3 77 V 71 H -0.00000000000001954 L -0.000000000000017764 65 H -0.000000000000017764 L -3 65 V 59 H -0.000000000000015987 L -0.000000000000014211 53 H -0.000000000000014211 L -3 53 V 47 H -0.000000000000012434 L -0.000000000000010658 41 H -0.000000000000010658 L -3 41 V 35 H -0.000000000000010658 L -0.000000000000008882 29 H -0.000000000000008882 L -3 29 V 23 H -0.000000000000007105 L -0.000000000000005329 17 H -0.000000000000005329 L -3 17 V 11 H -0.000000000000003553 L -0.000000000000001776 3 V 0 " style="fill:none;stroke-width:0.05;stroke-linecap:butt;stroke-linejoin:miter;stroke:rgb(0%,0%,0%);stroke-opacity:1;stroke-miterlimit:10;" transform="matrix(1.0000,0.0000,0.0000,-1.0000,13.0000,209.2500)"/>
<path d="M 0 0 H 8 V 0 V 3 H 14 V 0 H 20 V 0 V 3 H 26 V 0 H 32 V 0 V 3 H 38 V 0 H 44 V 0 V 3 H 50 V 0 H 56 V 0 V 3 H 62 V 0 H 68 V 0 V 3 H 74 V 0 H 80 V 0 V 3 H 86 V 0 H 94 L 97 0 V 3 L 97 11 H 97 L 94 11 V 17 H 97 V 23 H 97 L 94 23 V 29 H 97 V 35 H 97 L 94 35 V 41 H 97 V 47 H 97 L 94 47 V 53 H 97 V 59 H 97 L 94 59 V 65 H 97 V 71 H 97 L 94 71 V 77 H 97 V 83 H 97 L 94 83 V 89 H 97 V 97 V 100 H 94 L 86 100 H 86 V 97 H 80 V 100 H 74 V 100 V 97 H 68 V 100 H 62 V 100 V 97 H 56 V 100 H 50 V 100 V 97 H 44 V 100 H 38 V 100 V 97 H 32 V 100 H 26 V 100 V 97 H 20 V 100 H 14 V 100 V 97 H 8 V 100 H -0.000000000000028422 L -3 100 V 97 L -3 89 H -3 L -0.000000000000028422 89 V 83 H -3 V 77 H -3 L -0.000000000000028422 77 L 0 71 H -3 V 65 H -3 L 0 65 V 59 H -3 V 53 H -3 L 0 53 V 47 H -3 V 41 H -3 L 0 41 V 35 H -3 V 29 H -3 L 0 29 V 23 H -3 V 17 H -3 L 0 17 V 11 H -3 V 3 V 0 H 0 " style="fill:none;stroke-width:0.05;stroke-linecap:butt;stroke-linejoin:miter;stroke:rgb(0%,0%,0%);stroke-opacity:1;stroke-miterlimit:10;" transform="matrix(1.0000,0.0000,0.0000,-1.0000,234.6250,210.0000)"/>
<path d="M 0 0 H 8 V 0 V -3 H 14 V 0 H 20 V 0 V -3 H 26 V 0 H 32 V 0 V -3 H 38 V 0 H 44 V 0 V -3 H 50 V 0 H 56 V 0 V -3 H 62 V 0 H 68 V 0 V -3 H 74 V 0 H 80 V 0 V -3 H 86 V 0 H 94 V 6.5 H 94 L 97 6.5 V 12.5 H 94 V 18.5 H 94 L 97 18.5 V 24.5 H 94 V 30.5 H 94 L 97 30.5 V 36.5 H 94 V 42.5 H 94 L 97 42.5 V 48.5 H 94 V 54.5 H 94 L 97 54.5 V 60.5 H 94 V 66.5 H 94 L 97 66.5 V 72.5 H 94 V 79 C 94 81.632812 93.308594 84.21875 91.992187 86.5 C 90.675781 88.78125 88.78125 90.675781 86.5 91.992188 C 84.21875 93.308594 81.632812 94 79 94 H 15 C 12.367187 94 9.78125 93.308594 7.5 91.992188 C 5.21875 90.675781 3.324219 88.78125 2.007812 86.5 C 0.691406 84.21875 -0.000000000000051514 81.632812 -0.000000000000049738 79 H -3 V 65.5 H -0.000000000000040856 L -0.000000000000031974 52 L -0.000000000000026645 41 H -0.000000000000026645 L -3 41 V 35 H -0.000000000000023093 L -0.000000000000017764 29 H -0.000000000000017764 L -3 29 V 23 H -0.000000000000014211 L -0.000000000000010658 17 H -0.000000000000010658 L -3 17 V 11 H -0.000000000000007105 L 0 0 " style="fill:none;stroke-width:0.05;stroke-linecap:butt;stroke-linejoin:miter;stroke:rgb(0%,0%,0%);stroke-opacity:1;stroke-miterlimit:10;" transform="matrix(1.0000,0.0000,0.0000,-1.0000,13.0000,104.0000)"/>
<path d="M 0 0 H 8 V 0 V -3 H 14 V 0 H 20 V 0 V -3 H 26 V 0 H 32 V 0 V -3 H 38 V 0 H 44 V 0 V -3 H 50 V 0 H 56 V 0 V -3 H 62 V 0 H 68 V 0 V -3 H 74 V 0 H 80 V 0 V -3 H 86 V 0 H 94 V 6.5 H 94 L 97 6.5 V 12.5 H 94 V 18.5 H 94 L 97 18.5 V 24.5 H 94 V 30.5 H 94 L 97 30.5 V 36.5 H 94 V 42.5 H 94 L 97 42.5 V 48.5 H 94 V 54.5 H 94 L 97 54.5 V 60.5 H 94 V 66.5 H 94 L 97 66.5 V 72.5 H 94 V 79 C 94 81.632812 93.308594 84.21875 91.992187 86.5 C 90.675781 88.78125 88.78125 90.675781 86.5 91.992188 C 84.21875 93.308594 81.632812 94 79 94 H 15 C 12.367187 94 9.78125 93.308594 7.5 91.992188 C 5.21875 90.675781 3.324219 88.78125 2.007812 86.5 C 0.691406 84.21875 -0.000000000000028422 81.632812 -0.000000000000028422 79 H -3 V 65.5 H -0.000000000000028422 V 52 L 0 41 H 0 L -3 41 V 35 H 0 V 29 H 0 L -3 29 V 23 H 0 V 17 H 0 L -3 17 V 11 H 0 V 0 " style="fill:none;stroke-width:0.05;stroke-linecap:butt;stroke-linejoin:miter;stroke:rgb(0%,0%,0%);stroke-opacity:1;stroke-miterlimit:10;" transform="matrix(-1.0000,0.0000,-0.0000,-1.0000,208.5000,104.0000)"/>
<path d="M 0 0 H 8 V 0 V -3 H 14 V 0 H 20 V 0 V -3 H 26 V 0 H 32 V 0 V -3 H 38 V 0 H 44 V 0 V -3 H 50 V 0 H 56 V 0 V -3 H 62 V 0 H 68 V 0 V -3 H 74 V 0 H 80 V 0 V -3 H 86 V 0 H 94 L 97 0 H 97 V 11 H 97 L 94 11 V 17 H 97 V 23 H 97 L 94 23 V 29 H 97 V 35 H 97 L 94 35 V 41 H 97 V 52 H 97 L 94 52 H 0 L -3 52 H -3 V 41 H -3 L 0 41 V 35 H -3 V 29 H -3 L 0 29 V 23 H -3 V 17 H -3 L 0 17 V 11 H -3 V 0 H -3 L 0 0 " style="fill:none;stroke-width:0.05;stroke-linecap:butt;stroke-linejoin:miter;stroke:rgb(0%,0%,0%);stroke-opacity:1;stroke-miterlimit:10;" transform="matrix(1.0000,0.0000,0.0000,-1.0000,216.0000,104.0000)"/>
</g>
</svg>