<svg xmlns="http://www.w3.org/2000/svg" height="170mm" version="1.1" viewBox="0 -10 230 170" width="230mm">
<!--
FlexBox2 - 
Created with Boxes.py (https://festi.info/boxes.py)
Creation date: 2019-10-31 15:26:40
Command line (remove spaces beteen dashes): boxes FlexBox2 - -FingerJoint_angle=90.0 - -FingerJoint_style=rectangular - -FingerJoint_surroundingspaces=2.0 - -FingerJoint_edge_width=1.0 - -FingerJoint_finger=2.0 - -FingerJoint_play=0.0 - -FingerJoint_space=2.0 - -FingerJoint_width=1.0 - -Flex_stretch=1.05 - -Flex_connection=1.0 - -Flex_distance=0.5 - -Flex_width=5.0 - -x=50 - -y=50 - -h=80 - -outside=0 - -outside=1 - -radius=15 - -latchsize=9 - -thickness=3.0 - -format=svg - -tabs=0.0 - -debug=0 - -reference=0 - -burn=0.05
Url: http://localhost:8008/FlexBox2?FingerJoint_angle=90.0&FingerJoint_style=rectangular&FingerJoint_surroundingspaces=2.0&FingerJoint_edge_width=1.0&FingerJoint_finger=2.0&FingerJoint_play=0.0&FingerJoint_space=2.0&FingerJoint_width=1.0&Flex_stretch=1.05&Flex_connection=1.0&Flex_distance=0.5&Flex_width=5.0&x=50&y=50&h=80&outside=0&outside=1&radius=15&latchsize=9&thickness=3.0&format=svg&tabs=0.0&debug=0&reference=0&burn=0.05&render=1
SettingsUrl: http://localhost:8008/FlexBox2?FingerJoint_angle=90.0&FingerJoint_style=rectangular&FingerJoint_surroundingspaces=2.0&FingerJoint_edge_width=1.0&FingerJoint_finger=2.0&FingerJoint_play=0.0&FingerJoint_space=2.0&FingerJoint_width=1.0&Flex_stretch=1.05&Flex_connection=1.0&Flex_distance=0.5&Flex_width=5.0&x=50&y=50&h=80&outside=0&outside=1&radius=15&latchsize=9&thickness=3.0&format=svg&tabs=0.0&debug=0&reference=0&burn=0.05
--><g id="surface8751">
<path d="M -0.000000000000001776 0 H 8.5 C 8.527344 0 8.550781 0.0234375 8.550781 0.0507812 V 3.050781 C 8.550781 3.023438 8.527344 3 8.5 3 H 14.5 C 14.472656 3 14.449219 3.023438 14.449219 3.050781 V 0.0507812 C 14.449219 0.0234375 14.472656 0 14.5 0 H 20.5 C 20.527344 0 20.550781 0.0234375 20.550781 0.0507812 V 3.050781 C 20.550781 3.023438 20.527344 3 20.5 3 H 26.5 C 26.472656 3 26.449219 3.023438 26.449219 3.050781 V 0.0507812 C 26.449219 0.0234375 26.472656 0 26.5 0 H 32.5 C 32.527344 0 32.550781 0.0234375 32.550781 0.0507812 V 3.050781 C 32.550781 3.023438 32.527344 3 32.5 3 H 38.5 C 38.472656 3 38.449219 3.023438 38.449219 3.050781 V 0.0507812 C 38.449219 0.0234375 38.472656 0 38.5 0 H 44.5 C 44.527344 0 44.550781 0.0234375 44.550781 0.0507812 V 3.050781 C 44.550781 3.023438 44.527344 3 44.5 3 H 50.5 C 50.472656 3 50.449219 3.023438 50.449219 3.050781 V 0.0507812 C 50.449219 0.0234375 50.472656 0 50.5 0 H 59 M 61.03125 0 V 15.699219 M 61.03125 18.699219 V 47.101562 M 62.53125 50.101562 V 34.398438 M 62.53125 31.398438 V 3 M 64.03125 0 V 15.699219 M 64.03125 18.699219 V 47.101562 M 65.53125 50.101562 V 34.398438 M 65.53125 31.398438 V 3 M 67.03125 0 V 15.699219 M 67.03125 18.699219 V 47.101562 M 68.53125 50.101562 V 34.398438 M 68.53125 31.398438 V 3 M 70.03125 0 V 15.699219 M 70.03125 18.699219 V 47.101562 M 71.53125 50.101562 V 34.398438 M 71.53125 31.398438 V 3 M 73.03125 0 V 15.699219 M 73.03125 18.699219 V 47.101562 M 74.53125 50.101562 V 34.398438 M 74.53125 31.398438 V 3 M 76.03125 0 V 15.699219 M 76.03125 18.699219 V 47.101562 M 77.53125 50.101562 V 34.398438 M 77.53125 31.398438 V 3 M 79.03125 0 V 15.699219 M 79.03125 18.699219 V 47.101562 M 80.53125 50.101562 V 34.398438 M 80.53125 31.398438 V 3 M 59 0 H 82.5625 L 96.5625 0 M 98.59375 0 V 15.699219 M 98.59375 18.699219 V 47.101562 M 100.09375 50.101562 V 34.398438 M 100.09375 31.398438 V 3 M 101.59375 0 V 15.699219 M 101.59375 18.699219 V 47.101562 M 103.09375 50.101562 V 34.398438 M 103.09375 31.398438 V 3 M 104.59375 0 V 15.699219 M 104.59375 18.699219 V 47.101562 M 106.09375 50.101562 V 34.398438 M 106.09375 31.398438 V 3 M 107.59375 0 V 15.699219 M 107.59375 18.699219 V 47.101562 M 109.09375 50.101562 V 34.398438 M 109.09375 31.398438 V 3 M 110.59375 0 V 15.699219 M 110.59375 18.699219 V 47.101562 M 112.09375 50.101562 V 34.398438 M 112.09375 31.398438 V 3 M 113.59375 0 V 15.699219 M 113.59375 18.699219 V 47.101562 M 115.09375 50.101562 V 34.398438 M 115.09375 31.398438 V 3 M 116.59375 0 V 15.699219 M 116.59375 18.699219 V 47.101562 M 118.09375 50.101562 V 34.398438 M 118.09375 31.398438 V 3 M 96.5625 0 H 120.125 C 120.152344 0 120.175781 0.0234375 120.175781 0.0507812 V 3.351562 C 120.175781 3.324219 120.152344 3.300781 120.125 3.300781 H 134.226562 C 134.199219 3.300781 134.175781 3.324219 134.175781 3.351562 V 0.0507812 C 134.175781 -0.390625 134.535156 -0.75 134.976562 -0.75 C 135.398438 -0.75 135.738281 -0.410156 135.738281 0.0117188 C 135.738281 0.894531 137.0625 0.894531 137.0625 0.0117188 C 137.0625 -0.410156 137.402344 -0.75 137.824219 -0.75 C 138.246094 -0.75 138.585938 -0.410156 138.585938 0.0117188 C 138.585938 0.894531 139.910156 0.894531 139.910156 0.0117188 C 139.910156 -0.410156 140.25 -0.75 140.671875 -0.75 C 141.09375 -0.75 141.433594 -0.410156 141.433594 0.0117188 C 141.433594 0.894531 142.757812 0.894531 142.757812 0.0117188 C 142.757812 -0.410156 143.097656 -0.75 143.519531 -0.75 C 143.941406 -0.75 144.28125 -0.410156 144.28125 0.0117188 C 144.28125 0.894531 145.605469 0.894531 145.605469 0.0117188 C 145.605469 -0.410156 145.945312 -0.75 146.367188 -0.75 C 146.808594 -0.75 147.167969 -0.390625 147.167969 0.0507812 V 50.050781 C 147.167969 50.492188 146.808594 50.851562 146.367188 50.851562 C 145.945312 50.851562 145.605469 50.511719 145.605469 50.089844 C 145.605469 49.207031 144.28125 49.207031 144.28125 50.089844 C 144.28125 50.511719 143.941406 50.851562 143.519531 50.851562 C 143.097656 50.851562 142.757812 50.511719 142.757812 50.089844 C 142.757812 49.207031 141.433594 49.207031 141.433594 50.089844 C 141.433594 50.511719 141.09375 50.851562 140.671875 50.851562 C 140.25 50.851562 139.910156 50.511719 139.910156 50.089844 C 139.910156 49.207031 138.585938 49.207031 138.585938 50.089844 C 138.585938 50.511719 138.246094 50.851562 137.824219 50.851562 C 137.402344 50.851562 137.0625 50.511719 137.0625 50.089844 C 137.0625 49.207031 135.738281 49.207031 135.738281 50.089844 C 135.738281 50.511719 135.398438 50.851562 134.976562 50.851562 C 134.535156 50.851562 134.175781 50.492188 134.175781 50.050781 V 46.75 C 134.175781 46.777344 134.199219 46.800781 134.226562 46.800781 H 120.125 C 120.152344 46.800781 120.175781 46.777344 120.175781 46.75 V 50.050781 C 120.175781 50.078125 120.152344 50.101562 120.125 50.101562 H 96.5625 L 82.5625 50.101562 H 59 L 50.5 50.101562 C 50.472656 50.101562 50.449219 50.078125 50.449219 50.050781 V 47.050781 C 50.449219 47.078125 50.472656 47.101562 50.5 47.101562 H 44.5 C 44.527344 47.101562 44.550781 47.078125 44.550781 47.050781 V 50.050781 C 44.550781 50.078125 44.527344 50.101562 44.5 50.101562 H 38.5 C 38.472656 50.101562 38.449219 50.078125 38.449219 50.050781 V 47.050781 C 38.449219 47.078125 38.472656 47.101562 38.5 47.101562 H 32.5 C 32.527344 47.101562 32.550781 47.078125 32.550781 47.050781 V 50.050781 C 32.550781 50.078125 32.527344 50.101562 32.5 50.101562 H 26.5 C 26.472656 50.101562 26.449219 50.078125 26.449219 50.050781 V 47.050781 C 26.449219 47.078125 26.472656 47.101562 26.5 47.101562 H 20.5 C 20.527344 47.101562 20.550781 47.078125 20.550781 47.050781 V 50.050781 C 20.550781 50.078125 20.527344 50.101562 20.5 50.101562 H 14.5 C 14.472656 50.101562 14.449219 50.078125 14.449219 50.050781 V 47.050781 C 14.449219 47.078125 14.472656 47.101562 14.5 47.101562 H 8.5 C 8.527344 47.101562 8.550781 47.078125 8.550781 47.050781 V 50.050781 C 8.550781 50.078125 8.527344 50.101562 8.5 50.101562 H -0.000000000000014211 C -0.0273438 50.101562 -0.0507813 50.078125 -0.0507813 50.050781 V 47.050781 L -0.0507813 40.050781 C -0.0507813 40.078125 -0.0273438 40.101562 -0.000000000000010658 40.101562 H -3 C -3.027344 40.101562 -3.050781 40.078125 -3.050781 40.050781 V 34.050781 C -3.050781 34.023438 -3.027344 34 -3 34 H -0.000000000000008882 C -0.0273438 34 -0.0507813 34.023438 -0.0507813 34.050781 V 28.050781 C -0.0507813 28.078125 -0.0273438 28.101562 -0.000000000000008882 28.101562 H -3 C -3.027344 28.101562 -3.050781 28.078125 -3.050781 28.050781 V 22.050781 C -3.050781 22.023438 -3.027344 22 -3 22 H -0.000000000000007105 C -0.0273438 22 -0.0507813 22.023438 -0.0507813 22.050781 V 16.050781 C -0.0507813 16.078125 -0.0273438 16.101562 -0.000000000000005329 16.101562 H -3 C -3.027344 16.101562 -3.050781 16.078125 -3.050781 16.050781 V 10.050781 C -3.050781 10.023438 -3.027344 10 -3 10 H -0.000000000000003553 C -0.0273438 10 -0.0507813 10.023438 -0.0507813 10.050781 V 3.050781 L -0.0507813 0.0507812 C -0.0507813 0.0234375 -0.0273438 0 -0.000000000000001776 0 " style="fill:none;stroke-width:0.1;stroke-linecap:butt;stroke-linejoin:miter;stroke:rgb(0%,0%,0%);stroke-opacity:1;stroke-miterlimit:10;" transform="matrix(1.0000,0.0000,0.0000,-1.0000,13.0508,139.4453)"/>
<path d="M 0 0 H 7 C 7.027344 0 7.050781 0.0234375 7.050781 0.0507812 V 3.050781 C 7.050781 3.023438 7.027344 3 7 3 H 13 C 12.972656 3 12.949219 3.023438 12.949219 3.050781 V 0.0507812 C 12.949219 0.0234375 12.972656 0 13 0 H 19 C 19.027344 0 19.050781 0.0234375 19.050781 0.0507812 V 3.050781 C 19.050781 3.023438 19.027344 3 19 3 H 25 C 24.972656 3 24.949219 3.023438 24.949219 3.050781 V 0.0507812 C 24.949219 0.0234375 24.972656 0 25 0 H 31 C 31.027344 0 31.050781 0.0234375 31.050781 0.0507812 V 3.050781 C 31.050781 3.023438 31.027344 3 31 3 H 37 C 36.972656 3 36.949219 3.023438 36.949219 3.050781 V 0.0507812 C 36.949219 0.0234375 36.972656 0 37 0 H 44 L 47 0 C 47.027344 0 47.050781 0.0234375 47.050781 0.0507812 V 3.050781 L 47.050781 10.050781 C 47.050781 10.078125 47.027344 10.101562 47 10.101562 H 44 C 44.027344 10.101562 44.050781 10.078125 44.050781 10.050781 V 16.050781 C 44.050781 16.023438 44.027344 16 44 16 H 47 C 47.027344 16 47.050781 16.023438 47.050781 16.050781 V 22.050781 C 47.050781 22.078125 47.027344 22.101562 47 22.101562 H 44 C 44.027344 22.101562 44.050781 22.078125 44.050781 22.050781 V 28.050781 C 44.050781 28.023438 44.027344 28 44 28 H 47 C 47.027344 28 47.050781 28.023438 47.050781 28.050781 V 34.050781 C 47.050781 34.078125 47.027344 34.101562 47 34.101562 H 44 C 44.027344 34.101562 44.050781 34.078125 44.050781 34.050781 V 40.050781 C 44.050781 40.023438 44.027344 40 44 40 H 47 C 47.027344 40 47.050781 40.023438 47.050781 40.050781 V 47.050781 L 47.050781 50.050781 C 47.050781 50.078125 47.027344 50.101562 47 50.101562 H 44 L 37 50.101562 C 36.972656 50.101562 36.949219 50.078125 36.949219 50.050781 V 47.050781 C 36.949219 47.078125 36.972656 47.101562 37 47.101562 H 31 C 31.027344 47.101562 31.050781 47.078125 31.050781 47.050781 V 50.050781 C 31.050781 50.078125 31.027344 50.101562 31 50.101562 H 25 C 24.972656 50.101562 24.949219 50.078125 24.949219 50.050781 V 47.050781 C 24.949219 47.078125 24.972656 47.101562 25 47.101562 H 19 C 19.027344 47.101562 19.050781 47.078125 19.050781 47.050781 V 50.050781 C 19.050781 50.078125 19.027344 50.101562 19 50.101562 H 13 C 12.972656 50.101562 12.949219 50.078125 12.949219 50.050781 V 47.050781 C 12.949219 47.078125 12.972656 47.101562 13 47.101562 H 7 C 7.027344 47.101562 7.050781 47.078125 7.050781 47.050781 V 50.050781 C 7.050781 50.078125 7.027344 50.101562 7 50.101562 H 0 L -3 50.101562 C -3.027344 50.101562 -3.050781 50.078125 -3.050781 50.050781 V 47.050781 L -3.050781 40.050781 C -3.050781 40.023438 -3.027344 40 -3 40 H 0 C -0.0273438 40 -0.0507812 40.023438 -0.0507812 40.050781 V 34.050781 C -0.0507812 34.078125 -0.0273438 34.101562 0 34.101562 H -3 C -3.027344 34.101562 -3.050781 34.078125 -3.050781 34.050781 V 28.050781 C -3.050781 28.023438 -3.027344 28 -3 28 H 0 C -0.0273438 28 -0.0507812 28.023438 -0.0507812 28.050781 V 22.050781 C -0.0507812 22.078125 -0.0273438 22.101562 0 22.101562 H -3 C -3.027344 22.101562 -3.050781 22.078125 -3.050781 22.050781 V 16.050781 C -3.050781 16.023438 -3.027344 16 -3 16 H 0 C -0.0273438 16 -0.0507812 16.023438 -0.0507812 16.050781 V 10.050781 C -0.0507812 10.078125 -0.0273438 10.101562 0 10.101562 H -3 C -3.027344 10.101562 -3.050781 10.078125 -3.050781 10.050781 V 3.050781 L -3.050781 0.0507812 C -3.050781 0.0234375 -3.027344 0 -3 0 H 0 " style="fill:none;stroke-width:0.1;stroke-linecap:butt;stroke-linejoin:miter;stroke:rgb(0%,0%,0%);stroke-opacity:1;stroke-miterlimit:10;" transform="matrix(1.0000,0.0000,0.0000,-1.0000,164.7734,140.1953)"/>
<path d="M -0.0078125 0 H 6.992187 C 6.964844 0 6.941406 0.0234375 6.941406 0.0507812 V -2.949219 C 6.941406 -2.976562 6.964844 -3 6.992188 -3 H 12.992188 C 13.019531 -3 13.042969 -2.976562 13.042969 -2.949219 V 0.0507812 C 13.042969 0.0234375 13.019531 0 12.992187 0 H 18.992188 C 18.964844 0 18.941406 0.0234375 18.941406 0.0507812 V -2.949219 C 18.941406 -2.976562 18.964844 -3 18.992188 -3 H 24.992188 C 25.019531 -3 25.042969 -2.976562 25.042969 -2.949219 V 0.0507812 C 25.042969 0.0234375 25.019531 0 24.992188 0 H 30.992188 C 30.964844 0 30.941406 0.0234375 30.941406 0.0507812 V -2.949219 C 30.941406 -2.976562 30.964844 -3 30.992188 -3 H 36.992188 C 37.019531 -3 37.042969 -2.976562 37.042969 -2.949219 V 0.0507812 C 37.042969 0.0234375 37.019531 0 36.992188 0 H 43.992188 C 44.019531 0 44.042969 0.0234375 44.042969 0.0507812 V 8.550781 C 44.042969 8.523438 44.019531 8.5 43.992187 8.5 H 46.992187 C 47.019531 8.5 47.042969 8.523438 47.042969 8.550781 V 14.550781 C 47.042969 14.578125 47.019531 14.601562 46.992187 14.601562 H 43.992187 C 44.019531 14.601562 44.042969 14.578125 44.042969 14.550781 V 20.550781 C 44.042969 20.523438 44.019531 20.5 43.992187 20.5 H 46.992187 C 47.019531 20.5 47.042969 20.523438 47.042969 20.550781 V 26.550781 C 47.042969 26.578125 47.019531 26.601562 46.992187 26.601562 H 43.992187 C 44.019531 26.601562 44.042969 26.578125 44.042969 26.550781 V 32.550781 C 44.042969 32.523438 44.019531 32.5 43.992187 32.5 H 46.992187 C 47.019531 32.5 47.042969 32.523438 47.042969 32.550781 V 38.550781 C 47.042969 38.578125 47.019531 38.601562 46.992187 38.601562 H 43.992187 C 44.019531 38.601562 44.042969 38.578125 44.042969 38.550781 V 44.550781 C 44.042969 44.523438 44.019531 44.5 43.992187 44.5 H 46.992187 C 47.019531 44.5 47.042969 44.523438 47.042969 44.550781 V 50.550781 C 47.042969 50.578125 47.019531 50.601562 46.992187 50.601562 H 43.992187 C 44.019531 50.601562 44.042969 50.578125 44.042969 50.550781 V 59.050781 C 44.042969 61.691406 43.347656 64.289062 42.027344 66.574219 C 40.707031 68.863281 38.804687 70.761719 36.519531 72.082031 C 34.230469 73.402344 31.636719 74.097656 28.996094 74.097656 H 14.996094 C 12.355469 74.097656 9.757812 73.402344 7.472656 72.082031 C 5.183594 70.761719 3.285156 68.859375 1.964844 66.574219 C 0.644531 64.285156 -0.0507813 61.691406 -0.0507813 59.050781 C -0.0507813 59.078125 -0.0273438 59.101562 -0.000000000000037303 59.101562 H -3 C -3.027344 59.101562 -3.050781 59.078125 -3.050781 59.050781 V 45.550781 C -3.050781 45.523438 -3.027344 45.5 -3 45.5 H -0.000000000000028422 C -0.0273438 45.5 -0.0507813 45.523438 -0.0507813 45.550781 V 32.050781 L -0.0507813 25.050781 C -0.0507813 25.078125 -0.0273438 25.101562 -0.000000000000015987 25.101562 H -3 C -3.027344 25.101562 -3.050781 25.078125 -3.050781 25.050781 V 19.050781 C -3.050781 19.023438 -3.027344 19 -3 19 H -0.000000000000012434 C -0.0273438 19 -0.0507813 19.023438 -0.0507813 19.050781 V 13.050781 C -0.0507813 13.078125 -0.0273438 13.101562 -0.000000000000008882 13.101562 H -3 C -3.027344 13.101562 -3.050781 13.078125 -3.050781 13.050781 V 7.050781 C -3.050781 7.023438 -3.027344 7 -3 7 H -0.000000000000005329 C -0.0273438 7 -0.0507813 7.023438 -0.0507813 7.050781 L -0.0507812 0.0507812 C -0.0507812 0.0234375 -0.0273438 0 0 0 " style="fill:none;stroke-width:0.1;stroke-linecap:butt;stroke-linejoin:miter;stroke:rgb(0%,0%,0%);stroke-opacity:1;stroke-miterlimit:10;" transform="matrix(1.0000,0.0000,0.0000,-1.0000,13.0586,84.0977)"/>
<path d="M -0.0078125 0 H 6.992188 C 6.964844 0 6.941406 0.0234375 6.941406 0.0507812 V -2.949219 C 6.941406 -2.976562 6.964844 -3 6.992188 -3 H 12.992188 C 13.019531 -3 13.042969 -2.976562 13.042969 -2.949219 V 0.0507812 C 13.042969 0.0234375 13.019531 0 12.992188 0 H 18.992188 C 18.964844 0 18.941406 0.0234375 18.941406 0.0507812 V -2.949219 C 18.941406 -2.976562 18.964844 -3 18.992188 -3 H 24.992188 C 25.019531 -3 25.042969 -2.976562 25.042969 -2.949219 V 0.0507812 C 25.042969 0.0234375 25.019531 0 24.992188 0 H 30.992188 C 30.964844 0 30.941406 0.0234375 30.941406 0.0507812 V -2.949219 C 30.941406 -2.976562 30.964844 -3 30.992188 -3 H 36.992188 C 37.019531 -3 37.042969 -2.976562 37.042969 -2.949219 V 0.0507812 C 37.042969 0.0234375 37.019531 0 36.992188 0 H 43.992188 C 44.019531 0 44.042969 0.0234375 44.042969 0.0507812 V 8.550781 C 44.042969 8.523438 44.019531 8.5 43.992187 8.5 H 46.992187 C 47.019531 8.5 47.042969 8.523438 47.042969 8.550781 V 14.550781 C 47.042969 14.578125 47.019531 14.601562 46.992187 14.601562 H 43.992187 C 44.019531 14.601562 44.042969 14.578125 44.042969 14.550781 V 20.550781 C 44.042969 20.523438 44.019531 20.5 43.992187 20.5 H 46.992187 C 47.019531 20.5 47.042969 20.523438 47.042969 20.550781 V 26.550781 C 47.042969 26.578125 47.019531 26.601562 46.992187 26.601562 H 43.992187 C 44.019531 26.601562 44.042969 26.578125 44.042969 26.550781 V 32.550781 C 44.042969 32.523438 44.019531 32.5 43.992187 32.5 H 46.992187 C 47.019531 32.5 47.042969 32.523438 47.042969 32.550781 V 38.550781 C 47.042969 38.578125 47.019531 38.601562 46.992187 38.601562 H 43.992187 C 44.019531 38.601562 44.042969 38.578125 44.042969 38.550781 V 44.550781 C 44.042969 44.523438 44.019531 44.5 43.992187 44.5 H 46.992187 C 47.019531 44.5 47.042969 44.523438 47.042969 44.550781 V 50.550781 C 47.042969 50.578125 47.019531 50.601562 46.992187 50.601562 H 43.992187 C 44.019531 50.601562 44.042969 50.578125 44.042969 50.550781 V 59.050781 C 44.042969 61.691406 43.347656 64.289062 42.027344 66.574219 C 40.707031 68.863281 38.804687 70.761719 36.519531 72.082031 C 34.230469 73.402344 31.636719 74.097656 28.996094 74.097656 H 14.996094 C 12.355469 74.097656 9.757812 73.402344 7.472656 72.082031 C 5.183594 70.761719 3.285156 68.859375 1.964844 66.574219 C 0.644531 64.285156 -0.0507813 61.691406 -0.0507813 59.050781 C -0.0507813 59.078125 -0.0273438 59.101562 -0.000000000000028422 59.101562 H -3 C -3.027344 59.101562 -3.050781 59.078125 -3.050781 59.050781 V 45.550781 C -3.050781 45.523438 -3.027344 45.5 -3 45.5 H -0.000000000000028422 C -0.0273438 45.5 -0.0507813 45.523438 -0.0507813 45.550781 V 32.050781 L -0.0507813 25.050781 C -0.0507813 25.078125 -0.0273438 25.101562 -0.000000000000014211 25.101562 H -3 C -3.027344 25.101562 -3.050781 25.078125 -3.050781 25.050781 V 19.050781 C -3.050781 19.023438 -3.027344 19 -3 19 H -0.000000000000014211 C -0.0273438 19 -0.0507813 19.023438 -0.0507813 19.050781 L -0.0507812 13.050781 C -0.0507812 13.078125 -0.0273438 13.101562 0 13.101562 H -3 C -3.027344 13.101562 -3.050781 13.078125 -3.050781 13.050781 V 7.050781 C -3.050781 7.023438 -3.027344 7 -3 7 H 0 C -0.0273438 7 -0.0507812 7.023438 -0.0507812 7.050781 V 0.0507812 C -0.0507812 0.0234375 -0.0273438 0 0 0 " style="fill:none;stroke-width:0.1;stroke-linecap:butt;stroke-linejoin:miter;stroke:rgb(0%,0%,0%);stroke-opacity:1;stroke-miterlimit:10;" transform="matrix(-1.0000,0.0000,-0.0000,-1.0000,108.6406,84.0977)"/>
<path d="M 0 0 H 7 C 6.972656 0 6.949219 0.0234375 6.949219 0.0507812 V -2.949219 C 6.949219 -2.976562 6.972656 -3 7 -3 H 13 C 13.027344 -3 13.050781 -2.976562 13.050781 -2.949219 V 0.0507812 C 13.050781 0.0234375 13.027344 0 13 0 H 19 C 18.972656 0 18.949219 0.0234375 18.949219 0.0507812 V -2.949219 C 18.949219 -2.976562 18.972656 -3 19 -3 H 25 C 25.027344 -3 25.050781 -2.976562 25.050781 -2.949219 V 0.0507812 C 25.050781 0.0234375 25.027344 0 25 0 H 31 C 30.972656 0 30.949219 0.0234375 30.949219 0.0507812 V -2.949219 C 30.949219 -2.976562 30.972656 -3 31 -3 H 37 C 37.027344 -3 37.050781 -2.976562 37.050781 -2.949219 V 0.0507812 C 37.050781 0.0234375 37.027344 0 37 0 H 44 L 47 0 C 47.027344 0 47.050781 0.0234375 47.050781 0.0507812 H 47.050781 V 7.050781 C 47.050781 7.078125 47.027344 7.101562 47 7.101562 H 44 C 44.027344 7.101562 44.050781 7.078125 44.050781 7.050781 V 13.050781 C 44.050781 13.023438 44.027344 13 44 13 H 47 C 47.027344 13 47.050781 13.023438 47.050781 13.050781 V 19.050781 C 47.050781 19.078125 47.027344 19.101562 47 19.101562 H 44 C 44.027344 19.101562 44.050781 19.078125 44.050781 19.050781 V 25.050781 C 44.050781 25.023438 44.027344 25 44 25 H 47 C 47.027344 25 47.050781 25.023438 47.050781 25.050781 V 32.050781 C 47.050781 32.078125 47.027344 32.101562 47 32.101562 H 44 L 0 32.101562 H -3 C -3.027344 32.101562 -3.050781 32.078125 -3.050781 32.050781 H -3.050781 V 25.050781 C -3.050781 25.023438 -3.027344 25 -3 25 H 0 C -0.0273438 25 -0.0507812 25.023438 -0.0507812 25.050781 V 19.050781 C -0.0507812 19.078125 -0.0273438 19.101562 0 19.101562 H -3 C -3.027344 19.101562 -3.050781 19.078125 -3.050781 19.050781 V 13.050781 C -3.050781 13.023438 -3.027344 13 -3 13 H 0 C -0.0273438 13 -0.0507812 13.023438 -0.0507812 13.050781 V 7.050781 C -0.0507812 7.078125 -0.0273438 7.101562 0 7.101562 H -3 C -3.027344 7.101562 -3.050781 7.078125 -3.050781 7.050781 V 0.0507812 C -3.050781 0.0234375 -3.027344 0 -3 0 H 0 " style="fill:none;stroke-width:0.1;stroke-linecap:butt;stroke-linejoin:miter;stroke:rgb(0%,0%,0%);stroke-opacity:1;stroke-miterlimit:10;" transform="matrix(1.0000,0.0000,0.0000,-1.0000,116.2500,84.0977)"/>
</g>
</svg>