<svg xmlns="http://www.w3.org/2000/svg" height="890mm" version="1.1" viewBox="0 -10 230 890" width="230mm">
<!--
IntegratedHingeBox - 
Created with Boxes.py (https://festi.info/boxes.py)
Creation date: 2019-11-08 11:10:08
Command line (remove spaces beteen dashes): boxes IntegratedHingeBox - -FingerJoint_angle=90.0 - -FingerJoint_style=rectangular - -FingerJoint_surroundingspaces=2.0 - -FingerJoint_edge_width=1.0 - -FingerJoint_finger=2.0 - -FingerJoint_play=0.0 - -FingerJoint_space=2.0 - -FingerJoint_width=1.0 - -ChestHinge_hinge_strength=1.0 - -ChestHinge_pin_height=2.0 - -ChestHinge_play=0.1 - -x=200 - -y=100 - -h=80 - -outside=0 - -outside=1 - -lidheight=30 - -thickness=3.0 - -format=svg - -tabs=0.0 - -debug=0 - -reference=0 - -burn=0.05
Url: http://localhost:8008/IntegratedHingeBox?FingerJoint_angle=90.0&FingerJoint_style=rectangular&FingerJoint_surroundingspaces=2.0&FingerJoint_edge_width=1.0&FingerJoint_finger=2.0&FingerJoint_play=0.0&FingerJoint_space=2.0&FingerJoint_width=1.0&ChestHinge_hinge_strength=1.0&ChestHinge_pin_height=2.0&ChestHinge_play=0.1&x=200&y=100&h=80&outside=0&outside=1&lidheight=30&thickness=3.0&format=svg&tabs=0.0&debug=0&reference=0&burn=0.05&render=1
SettingsUrl: http://localhost:8008/IntegratedHingeBox?FingerJoint_angle=90.0&FingerJoint_style=rectangular&FingerJoint_surroundingspaces=2.0&FingerJoint_edge_width=1.0&FingerJoint_finger=2.0&FingerJoint_play=0.0&FingerJoint_space=2.0&FingerJoint_width=1.0&ChestHinge_hinge_strength=1.0&ChestHinge_pin_height=2.0&ChestHinge_play=0.1&x=200&y=100&h=80&outside=0&outside=1&lidheight=30&thickness=3.0&format=svg&tabs=0.0&debug=0&reference=0&burn=0.05
--><g id="surface15883">
<path d="M 94 77.101562 H 86 C 85.972656 77.101562 85.949219 77.078125 85.949219 77.050781 V 74.050781 C 85.949219 74.078125 85.972656 74.101562 86 74.101562 H 80 C 80.027344 74.101562 80.050781 74.078125 80.050781 74.050781 V 77.050781 C 80.050781 77.078125 80.027344 77.101562 80 77.101562 H 74 C 73.972656 77.101562 73.949219 77.078125 73.949219 77.050781 V 74.050781 C 73.949219 74.078125 73.972656 74.101562 74 74.101562 H 68 C 68.027344 74.101562 68.050781 74.078125 68.050781 74.050781 V 77.050781 C 68.050781 77.078125 68.027344 77.101562 68 77.101562 H 62 C 61.972656 77.101562 61.949219 77.078125 61.949219 77.050781 V 74.050781 C 61.949219 74.078125 61.972656 74.101562 62 74.101562 H 56 C 56.027344 74.101562 56.050781 74.078125 56.050781 74.050781 V 77.050781 C 56.050781 77.078125 56.027344 77.101562 56 77.101562 H 50 C 49.972656 77.101562 49.949219 77.078125 49.949219 77.050781 V 74.050781 C 49.949219 74.078125 49.972656 74.101562 50 74.101562 H 44 C 44.027344 74.101562 44.050781 74.078125 44.050781 74.050781 V 77.050781 C 44.050781 77.078125 44.027344 77.101562 44 77.101562 H 38 C 37.972656 77.101562 37.949219 77.078125 37.949219 77.050781 V 74.050781 C 37.949219 74.078125 37.972656 74.101562 38 74.101562 H 32 C 32.027344 74.101562 32.050781 74.078125 32.050781 74.050781 V 77.050781 C 32.050781 77.078125 32.027344 77.101562 32 77.101562 H 26 C 25.972656 77.101562 25.949219 77.078125 25.949219 77.050781 V 74.050781 C 25.949219 74.078125 25.972656 74.101562 26 74.101562 H 20 C 20.027344 74.101562 20.050781 74.078125 20.050781 74.050781 V 77.050781 C 20.050781 77.078125 20.027344 77.101562 20 77.101562 H 14 C 13.972656 77.101562 13.949219 77.078125 13.949219 77.050781 V 74.050781 C 13.949219 74.078125 13.972656 74.101562 14 74.101562 H 8 C 8.027344 74.101562 8.050781 74.078125 8.050781 74.050781 V 77.050781 C 8.050781 77.078125 8.027344 77.101562 8 77.101562 H 0 C -0.0273438 77.101562 -0.0507812 77.078125 -0.0507812 77.050781 V 74.050781 L -0.0507812 64.050781 C -0.0507812 64.078125 -0.0273438 64.101562 0 64.101562 H -3 C -3.027344 64.101562 -3.050781 64.078125 -3.050781 64.050781 V 58.050781 C -3.050781 58.023438 -3.027344 58 -3 58 H 0 C -0.0273438 58 -0.0507812 58.023438 -0.0507812 58.050781 V 52.050781 C -0.0507812 52.078125 -0.0273438 52.101562 0 52.101562 H -3 C -3.027344 52.101562 -3.050781 52.078125 -3.050781 52.050781 V 46.050781 C -3.050781 46.023438 -3.027344 46 -3 46 H 0 C -0.0273438 46 -0.0507812 46.023438 -0.0507812 46.050781 V 40.050781 C -0.0507812 40.078125 -0.0273438 40.101562 0 40.101562 H -3 C -3.027344 40.101562 -3.050781 40.078125 -3.050781 40.050781 V 34.050781 C -3.050781 34.023438 -3.027344 34 -3 34 H 0 C -0.0273438 34 -0.0507812 34.023438 -0.0507812 34.050781 V 28.050781 C -0.0507812 28.078125 -0.0273438 28.101562 0 28.101562 H -3 C -3.027344 28.101562 -3.050781 28.078125 -3.050781 28.050781 V 22.050781 C -3.050781 22.023438 -3.027344 22 -3 22 H 0 C -0.0273438 22 -0.0507812 22.023438 -0.0507812 22.050781 V 16.050781 C -0.0507812 16.078125 -0.0273438 16.101562 0 16.101562 H -3 C -3.027344 16.101562 -3.050781 16.078125 -3.050781 16.050781 V 10.050781 C -3.050781 10.023438 -3.027344 10 -3 10 H 0 C -0.0273438 10 -0.0507812 10.023438 -0.0507812 10.050781 V 0.0507812 C -0.0507812 0.0234375 -0.0273438 0 0 0 H 0 " style="fill:none;stroke-width:0.1;stroke-linecap:butt;stroke-linejoin:miter;stroke:rgb(0%,0%,0%);stroke-opacity:1;stroke-miterlimit:10;" transform="matrix(-1.0000,-0.0000,-0.0000,1.0000,115.8750,787.0977)"/>
<path d="M 0 0.000000000000934364 C 1.140625 0.000000000000933476 2.257812 -0.328125 3.21875 -0.945312 C 4.179688 -1.5625 4.941406 -2.441406 5.414062 -3.480469 C 5.886719 -4.519531 6.054688 -5.671875 5.890625 -6.800781 C 5.726562 -7.929687 5.246094 -8.988281 4.496094 -9.851562 C 3.75 -10.714844 2.769531 -11.34375 1.675781 -11.664062 C 0.582031 -11.984375 -0.582031 -11.984375 -1.675781 -11.664062 C -2.769531 -11.34375 -3.75 -10.714844 -4.496094 -9.851562 C -5.242188 -8.988281 -5.726562 -7.929687 -5.890625 -6.800781 C -6.054688 -5.671875 -5.886719 -4.519531 -5.414062 -3.480469 C -4.941406 -2.441406 -4.179688 -1.5625 -3.21875 -0.945312 C -2.257812 -0.328125 -1.144531 0.000000000000934364 0 0.000000000000934364 " style="fill:none;stroke-width:0.1;stroke-linecap:butt;stroke-linejoin:miter;stroke:rgb(0%,0%,100%);stroke-opacity:1;stroke-miterlimit:10;" transform="matrix(-0.0000,-1.0000,-1.0000,0.0000,12.9258,787.0977)"/>
<path d="M 0 0.00390625 C -0.0273438 0.00390625 -0.0507812 0.0234375 -0.0507812 0.0507812 V -4.4375 C -0.0507812 -4.410156 -0.0273438 -4.386719 0 -4.386719 H -3 C -2.972656 -4.386719 -2.949219 -4.410156 -2.949219 -4.4375 V 0.0507812 C -2.949219 0.0234375 -2.972656 0 -3 0 H 0 " style="fill:none;stroke-width:0.1;stroke-linecap:butt;stroke-linejoin:miter;stroke:rgb(0%,0%,100%);stroke-opacity:1;stroke-miterlimit:10;" transform="matrix(1.0000,-0.0000,-0.0000,-1.0000,21.8750,782.6602)"/>
<path d="M 94 77.101562 H 6 C 6.027344 77.101562 6.050781 77.078125 6.050781 77.050781 C 6.050781 78.839844 5.519531 80.589844 4.527344 82.078125 C 3.53125 83.566406 2.121094 84.726562 0.464844 85.410156 C -1.1875 86.09375 -3.007813 86.273438 -4.765625 85.925781 C -6.519531 85.578125 -8.132813 84.714844 -9.398438 83.449219 C -10.664063 82.183594 -11.527344 80.570312 -11.875 78.816406 C -12.222656 77.0625 -12.046875 75.242188 -11.359375 73.585938 C -10.675781 71.933594 -9.515625 70.519531 -8.027344 69.523438 C -6.539063 68.527344 -4.789063 68 -3 68 H -0.000000000000018652 C -0.0664063 68 -0.0664063 68.101562 -0.000000000000018652 68.101562 H -0.000000000000018652 C -0.0273438 68.101562 -0.0507813 68.078125 -0.0507813 68.050781 H -0.0507813 V 56.550781 C -0.0507813 56.578125 -0.0273438 56.601562 -0.000000000000015543 56.601562 H -3 C -3.027344 56.601562 -3.050781 56.578125 -3.050781 56.550781 V 50.550781 C -3.050781 50.523438 -3.027344 50.5 -3 50.5 H -0.000000000000013767 C -0.0273438 50.5 -0.0507813 50.523438 -0.0507813 50.550781 V 44.550781 C -0.0507813 44.578125 -0.0273438 44.601562 -0.00000000000001199 44.601562 H -3 C -3.027344 44.601562 -3.050781 44.578125 -3.050781 44.550781 V 38.550781 C -3.050781 38.523438 -3.027344 38.5 -3 38.5 H -0.000000000000010658 C -0.0273438 38.5 -0.0507813 38.523438 -0.0507813 38.550781 V 32.550781 C -0.0507813 32.578125 -0.0273438 32.601562 -0.000000000000008882 32.601562 H -3 C -3.027344 32.601562 -3.050781 32.578125 -3.050781 32.550781 V 26.550781 C -3.050781 26.523438 -3.027344 26.5 -3 26.5 H -0.000000000000007105 C -0.0273438 26.5 -0.0507813 26.523438 -0.0507813 26.550781 V 20.550781 C -0.0507813 20.578125 -0.0273438 20.601562 -0.000000000000005329 20.601562 H -3 C -3.027344 20.601562 -3.050781 20.578125 -3.050781 20.550781 V 14.550781 C -3.050781 14.523438 -3.027344 14.5 -3 14.5 H -0.000000000000003997 C -0.0273438 14.5 -0.0507813 14.523438 -0.0507813 14.550781 V 3.050781 L -0.0507812 0.0507812 C -0.0507812 0.0234375 -0.0273438 0 0 0 H 0 " style="fill:none;stroke-width:0.1;stroke-linecap:butt;stroke-linejoin:miter;stroke:rgb(0%,0%,0%);stroke-opacity:1;stroke-miterlimit:10;" transform="matrix(1.0000,0.0000,0.0000,-1.0000,21.8750,864.1992)"/>
<path d="M 0 0.00390625 C -0.0664062 0.00390625 -0.0664062 0.105469 0 0.105469 H -3 C -2.933594 0.105469 -2.933594 0.00390625 -3 0.00390625 C -1.375 0.00390625 0.21875 -0.421875 1.625 -1.234375 C 3.03125 -2.046875 4.199219 -3.214844 5.011719 -4.621094 C 5.824219 -6.027344 6.25 -7.621094 6.25 -9.246094 C 6.25 -9.273438 6.273437 -9.296875 6.300781 -9.296875 H 94 C 94.027344 -9.296875 94.050781 -9.273438 94.050781 -9.246094 H 94.050781 V -3.246094 C 94.050781 -3.273438 94.027344 -3.296875 94 -3.296875 H 97 C 97.027344 -3.296875 97.050781 -3.273438 97.050781 -3.246094 V 2.753906 C 97.050781 2.78125 97.027344 2.804688 97 2.804688 H 94 C 94.027344 2.804688 94.050781 2.78125 94.050781 2.753906 V 8.753906 C 94.050781 8.726562 94.027344 8.703125 94 8.703125 H 97 C 97.027344 8.703125 97.050781 8.726562 97.050781 8.753906 V 14.753906 C 97.050781 14.78125 97.027344 14.804688 97 14.804688 H 94 C 94.027344 14.804688 94.050781 14.78125 94.050781 14.753906 V 20.753906 L 94.050781 23.753906 C 94.050781 23.78125 94.027344 23.804688 94 23.804688 H 94 L 86 23.804688 C 85.972656 23.804688 85.949219 23.78125 85.949219 23.753906 V 20.753906 C 85.949219 20.78125 85.972656 20.804688 86 20.804688 H 80 C 80.027344 20.804688 80.050781 20.78125 80.050781 20.753906 V 23.753906 C 80.050781 23.78125 80.027344 23.804688 80 23.804688 H 74 C 73.972656 23.804688 73.949219 23.78125 73.949219 23.753906 V 20.753906 C 73.949219 20.78125 73.972656 20.804688 74 20.804688 H 68 C 68.027344 20.804688 68.050781 20.78125 68.050781 20.753906 V 23.753906 C 68.050781 23.78125 68.027344 23.804688 68 23.804688 H 62 C 61.972656 23.804688 61.949219 23.78125 61.949219 23.753906 V 20.753906 C 61.949219 20.78125 61.972656 20.804688 62 20.804688 H 56 C 56.027344 20.804688 56.050781 20.78125 56.050781 20.753906 V 23.753906 C 56.050781 23.78125 56.027344 23.804688 56 23.804688 H 50 C 49.972656 23.804688 49.949219 23.78125 49.949219 23.753906 V 20.753906 C 49.949219 20.78125 49.972656 20.804688 50 20.804688 H 44 C 44.027344 20.804688 44.050781 20.78125 44.050781 20.753906 V 23.753906 C 44.050781 23.78125 44.027344 23.804688 44 23.804688 H 38 C 37.972656 23.804688 37.949219 23.78125 37.949219 23.753906 V 20.753906 C 37.949219 20.78125 37.972656 20.804688 38 20.804688 H 32 C 32.027344 20.804688 32.050781 20.78125 32.050781 20.753906 V 23.753906 C 32.050781 23.78125 32.027344 23.804688 32 23.804688 H 26 C 25.972656 23.804688 25.949219 23.78125 25.949219 23.753906 V 20.753906 C 25.949219 20.78125 25.972656 20.804688 26 20.804688 H 20 C 20.027344 20.804688 20.050781 20.78125 20.050781 20.753906 V 23.753906 C 20.050781 23.78125 20.027344 23.804688 20 23.804688 H 14 C 13.972656 23.804688 13.949219 23.78125 13.949219 23.753906 V 20.753906 C 13.949219 20.78125 13.972656 20.804688 14 20.804688 H 8 C 8.027344 20.804688 8.050781 20.78125 8.050781 20.753906 V 23.753906 C 8.050781 23.78125 8.027344 23.804688 8 23.804688 H 0.000000000000005773 C -0.0273437 23.804688 -0.0507812 23.78125 -0.0507812 23.753906 V 20.753906 L -0.0507812 13.402344 C -0.0507812 13.429688 -0.0273437 13.453125 0.000000000000003109 13.453125 H -3 C -3.027344 13.453125 -3.050781 13.429688 -3.050781 13.402344 V 7.402344 C -3.050781 7.375 -3.027344 7.351562 -3 7.351562 H 0.000000000000001776 C -0.0273437 7.351562 -0.0507812 7.375 -0.0507812 7.402344 V 0.0507812 C -0.0507812 0.0234375 -0.0273438 0 0 0 H 0 " style="fill:none;stroke-width:0.1;stroke-linecap:butt;stroke-linejoin:miter;stroke:rgb(0%,0%,0%);stroke-opacity:1;stroke-miterlimit:10;" transform="matrix(1.0000,-0.0000,-0.0000,-1.0000,21.8750,776.3047)"/>
<path d="M 94 68.101562 H 86 C 85.972656 68.101562 85.949219 68.078125 85.949219 68.050781 V 65.050781 C 85.949219 65.078125 85.972656 65.101562 86 65.101562 H 80 C 80.027344 65.101562 80.050781 65.078125 80.050781 65.050781 V 68.050781 C 80.050781 68.078125 80.027344 68.101562 80 68.101562 H 74 C 73.972656 68.101562 73.949219 68.078125 73.949219 68.050781 V 65.050781 C 73.949219 65.078125 73.972656 65.101562 74 65.101562 H 68 C 68.027344 65.101562 68.050781 65.078125 68.050781 65.050781 V 68.050781 C 68.050781 68.078125 68.027344 68.101562 68 68.101562 H 62 C 61.972656 68.101562 61.949219 68.078125 61.949219 68.050781 V 65.050781 C 61.949219 65.078125 61.972656 65.101562 62 65.101562 H 56 C 56.027344 65.101562 56.050781 65.078125 56.050781 65.050781 V 68.050781 C 56.050781 68.078125 56.027344 68.101562 56 68.101562 H 50 C 49.972656 68.101562 49.949219 68.078125 49.949219 68.050781 V 65.050781 C 49.949219 65.078125 49.972656 65.101562 50 65.101562 H 44 C 44.027344 65.101562 44.050781 65.078125 44.050781 65.050781 V 68.050781 C 44.050781 68.078125 44.027344 68.101562 44 68.101562 H 38 C 37.972656 68.101562 37.949219 68.078125 37.949219 68.050781 V 65.050781 C 37.949219 65.078125 37.972656 65.101562 38 65.101562 H 32 C 32.027344 65.101562 32.050781 65.078125 32.050781 65.050781 V 68.050781 C 32.050781 68.078125 32.027344 68.101562 32 68.101562 H 26 C 25.972656 68.101562 25.949219 68.078125 25.949219 68.050781 V 65.050781 C 25.949219 65.078125 25.972656 65.101562 26 65.101562 H 20 C 20.027344 65.101562 20.050781 65.078125 20.050781 65.050781 V 68.050781 C 20.050781 68.078125 20.027344 68.101562 20 68.101562 H 14 C 13.972656 68.101562 13.949219 68.078125 13.949219 68.050781 V 65.050781 C 13.949219 65.078125 13.972656 65.101562 14 65.101562 H 8 C 8.027344 65.101562 8.050781 65.078125 8.050781 65.050781 V 68.050781 C 8.050781 68.078125 8.027344 68.101562 8 68.101562 H 0 C -0.0273438 68.101562 -0.0507812 68.078125 -0.0507812 68.050781 V 65.050781 L -0.0507812 53.550781 C -0.0507812 53.578125 -0.0273438 53.601562 0 53.601562 H -3 C -3.027344 53.601562 -3.050781 53.578125 -3.050781 53.550781 V 47.550781 C -3.050781 47.523438 -3.027344 47.5 -3 47.5 H 0 C -0.0273438 47.5 -0.0507812 47.523438 -0.0507812 47.550781 V 41.550781 C -0.0507812 41.578125 -0.0273438 41.601562 0 41.601562 H -3 C -3.027344 41.601562 -3.050781 41.578125 -3.050781 41.550781 V 35.550781 C -3.050781 35.523438 -3.027344 35.5 -3 35.5 H 0 C -0.0273438 35.5 -0.0507812 35.523438 -0.0507812 35.550781 V 29.550781 C -0.0507812 29.578125 -0.0273438 29.601562 0 29.601562 H -3 C -3.027344 29.601562 -3.050781 29.578125 -3.050781 29.550781 V 23.550781 C -3.050781 23.523438 -3.027344 23.5 -3 23.5 H 0 C -0.0273438 23.5 -0.0507812 23.523438 -0.0507812 23.550781 V 17.550781 C -0.0507812 17.578125 -0.0273438 17.601562 0 17.601562 H -3 C -3.027344 17.601562 -3.050781 17.578125 -3.050781 17.550781 V 11.550781 C -3.050781 11.523438 -3.027344 11.5 -3 11.5 H 0 C -0.0273438 11.5 -0.0507812 11.523438 -0.0507812 11.550781 V 0.0507812 C -0.0507812 0.0234375 -0.0273438 0 0 0 H 0 " style="fill:none;stroke-width:0.1;stroke-linecap:butt;stroke-linejoin:miter;stroke:rgb(0%,0%,0%);stroke-opacity:1;stroke-miterlimit:10;" transform="matrix(-1.0000,-0.0000,-0.0000,1.0000,115.8750,682.8984)"/>
<path d="M -0.00000000000181899 -0.000000000000895284 C 1.140625 -0.000000000000895284 2.257812 -0.328125 3.21875 -0.945313 C 4.179687 -1.5625 4.941406 -2.441406 5.414062 -3.480469 C 5.886719 -4.519531 6.054687 -5.671875 5.890625 -6.800781 C 5.726562 -7.929688 5.246094 -8.988281 4.496094 -9.851563 C 3.75 -10.714844 2.769531 -11.34375 1.675781 -11.664063 C 0.582031 -11.984375 -0.582031 -11.984375 -1.675781 -11.664063 C -2.769531 -11.34375 -3.75 -10.714844 -4.496094 -9.851563 C -5.242188 -8.988281 -5.726563 -7.929688 -5.890625 -6.800781 C -6.054688 -5.671875 -5.886719 -4.519531 -5.414063 -3.480469 C -4.941406 -2.441406 -4.179688 -1.5625 -3.21875 -0.945313 C -2.257813 -0.328125 -1.144531 -0.000000000000895284 -0.00000000000181899 -0.000000000000895284 " style="fill:none;stroke-width:0.1;stroke-linecap:butt;stroke-linejoin:miter;stroke:rgb(0%,0%,100%);stroke-opacity:1;stroke-miterlimit:10;" transform="matrix(-0.0000,-1.0000,-1.0000,0.0000,112.9258,673.8984)"/>
<path d="M 0 0.00390625 C -0.0273438 0.00390625 -0.0507812 0.0234375 -0.0507812 0.0507812 V -4.4375 C -0.0507812 -4.410156 -0.0273438 -4.386719 0 -4.386719 H -3 C -2.972656 -4.386719 -2.949219 -4.410156 -2.949219 -4.4375 V 0.0507812 C -2.949219 0.0234375 -2.972656 0 -3 0 H 0 " style="fill:none;stroke-width:0.1;stroke-linecap:butt;stroke-linejoin:miter;stroke:rgb(0%,0%,100%);stroke-opacity:1;stroke-miterlimit:10;" transform="matrix(1.0000,-0.0000,-0.0000,-1.0000,118.8750,669.4609)"/>
<path d="M 94 68.101562 C 94.066406 68.101562 94.066406 68 94 68 H 97 C 98.789062 68 100.539062 68.53125 102.027344 69.523438 C 103.515625 70.519531 104.675781 71.929688 105.359375 73.585938 C 106.042969 75.238281 106.222656 77.058594 105.875 78.816406 C 105.527344 80.570312 104.664062 82.183594 103.398437 83.449219 C 102.132812 84.714844 100.519531 85.578125 98.765625 85.925781 C 97.011719 86.273438 95.191406 86.097656 93.535156 85.410156 C 91.882812 84.726562 90.46875 83.566406 89.472656 82.078125 C 88.476562 80.589844 87.949219 78.839844 87.949219 77.050781 C 87.949219 77.078125 87.972656 77.101562 88 77.101562 H -0.000000000000026201 C -0.0273438 77.101562 -0.0507813 77.078125 -0.0507813 77.050781 H -0.0507813 V 67.050781 C -0.0507813 67.078125 -0.0273438 67.101562 -0.000000000000022649 67.101562 H -3 C -3.027344 67.101562 -3.050781 67.078125 -3.050781 67.050781 V 61.050781 C -3.050781 61.023438 -3.027344 61 -3 61 H -0.000000000000020872 C -0.0273438 61 -0.0507813 61.023438 -0.0507813 61.050781 V 55.050781 C -0.0507813 55.078125 -0.0273438 55.101562 -0.000000000000018652 55.101562 H -3 C -3.027344 55.101562 -3.050781 55.078125 -3.050781 55.050781 V 49.050781 C -3.050781 49.023438 -3.027344 49 -3 49 H -0.000000000000016875 C -0.0273438 49 -0.0507813 49.023438 -0.0507813 49.050781 V 43.050781 C -0.0507813 43.078125 -0.0273438 43.101562 -0.000000000000014655 43.101562 H -3 C -3.027344 43.101562 -3.050781 43.078125 -3.050781 43.050781 V 37.050781 C -3.050781 37.023438 -3.027344 37 -3 37 H -0.000000000000012434 C -0.0273438 37 -0.0507813 37.023438 -0.0507813 37.050781 V 31.050781 C -0.0507813 31.078125 -0.0273438 31.101562 -0.000000000000010658 31.101562 H -3 C -3.027344 31.101562 -3.050781 31.078125 -3.050781 31.050781 V 25.050781 C -3.050781 25.023438 -3.027344 25 -3 25 H -0.000000000000008438 C -0.0273438 25 -0.0507813 25.023438 -0.0507813 25.050781 V 19.050781 C -0.0507813 19.078125 -0.0273438 19.101562 -0.000000000000006661 19.101562 H -3 C -3.027344 19.101562 -3.050781 19.078125 -3.050781 19.050781 V 13.050781 C -3.050781 13.023438 -3.027344 13 -3 13 H -0.000000000000004441 C -0.0273438 13 -0.0507813 13.023438 -0.0507813 13.050781 V 3.050781 L -0.0507812 0.0507812 C -0.0507812 0.0234375 -0.0273438 0 0 0 H 0 " style="fill:none;stroke-width:0.1;stroke-linecap:butt;stroke-linejoin:miter;stroke:rgb(0%,0%,0%);stroke-opacity:1;stroke-miterlimit:10;" transform="matrix(1.0000,0.0000,0.0000,-1.0000,21.8750,751.0000)"/>
<path d="M 0 -0.00390625 H 87.699219 C 87.726562 -0.00390625 87.75 0.0195312 87.75 0.046875 C 87.75 1.671875 88.175781 3.265625 88.988281 4.671875 C 89.800781 6.078125 90.96875 7.246094 92.375 8.058594 C 93.78125 8.871094 95.375 9.296875 97 9.296875 C 96.933594 9.296875 96.933594 9.398438 97 9.398438 H 94 C 94.066406 9.398438 94.066406 9.296875 94 9.296875 H 94 C 94.027344 9.296875 94.050781 9.320312 94.050781 9.347656 H 94.050781 V 16.699219 C 94.050781 16.671875 94.027344 16.648438 94 16.648438 H 97 C 97.027344 16.648438 97.050781 16.671875 97.050781 16.699219 V 22.699219 C 97.050781 22.726562 97.027344 22.75 97 22.75 H 94 C 94.027344 22.75 94.050781 22.726562 94.050781 22.699219 V 30.050781 L 94.050781 33.050781 C 94.050781 33.078125 94.027344 33.101562 94 33.101562 H 94 L 86 33.101562 C 85.972656 33.101562 85.949219 33.078125 85.949219 33.050781 V 30.050781 C 85.949219 30.078125 85.972656 30.101562 86 30.101562 H 80 C 80.027344 30.101562 80.050781 30.078125 80.050781 30.050781 V 33.050781 C 80.050781 33.078125 80.027344 33.101562 80 33.101562 H 74 C 73.972656 33.101562 73.949219 33.078125 73.949219 33.050781 V 30.050781 C 73.949219 30.078125 73.972656 30.101562 74 30.101562 H 68 C 68.027344 30.101562 68.050781 30.078125 68.050781 30.050781 V 33.050781 C 68.050781 33.078125 68.027344 33.101562 68 33.101562 H 62 C 61.972656 33.101562 61.949219 33.078125 61.949219 33.050781 V 30.050781 C 61.949219 30.078125 61.972656 30.101562 62 30.101562 H 56 C 56.027344 30.101562 56.050781 30.078125 56.050781 30.050781 V 33.050781 C 56.050781 33.078125 56.027344 33.101562 56 33.101562 H 50 C 49.972656 33.101562 49.949219 33.078125 49.949219 33.050781 V 30.050781 C 49.949219 30.078125 49.972656 30.101562 50 30.101562 H 44 C 44.027344 30.101562 44.050781 30.078125 44.050781 30.050781 V 33.050781 C 44.050781 33.078125 44.027344 33.101562 44 33.101562 H 38 C 37.972656 33.101562 37.949219 33.078125 37.949219 33.050781 V 30.050781 C 37.949219 30.078125 37.972656 30.101562 38 30.101562 H 32 C 32.027344 30.101562 32.050781 30.078125 32.050781 30.050781 V 33.050781 C 32.050781 33.078125 32.027344 33.101562 32 33.101562 H 26 C 25.972656 33.101562 25.949219 33.078125 25.949219 33.050781 V 30.050781 C 25.949219 30.078125 25.972656 30.101562 26 30.101562 H 20 C 20.027344 30.101562 20.050781 30.078125 20.050781 30.050781 V 33.050781 C 20.050781 33.078125 20.027344 33.101562 20 33.101562 H 14 C 13.972656 33.101562 13.949219 33.078125 13.949219 33.050781 V 30.050781 C 13.949219 30.078125 13.972656 30.101562 14 30.101562 H 8 C 8.027344 30.101562 8.050781 30.078125 8.050781 30.050781 V 33.050781 C 8.050781 33.078125 8.027344 33.101562 8 33.101562 H 0.00000000000000755 C -0.0273437 33.101562 -0.0507812 33.078125 -0.0507812 33.050781 V 30.050781 L -0.0507812 24.050781 C -0.0507812 24.078125 -0.0273437 24.101562 0.000000000000005329 24.101562 H -3 C -3.027344 24.101562 -3.050781 24.078125 -3.050781 24.050781 V 18.050781 C -3.050781 18.023438 -3.027344 18 -3 18 H 0.000000000000003997 C -0.0273437 18 -0.0507812 18.023438 -0.0507812 18.050781 V 12.050781 C -0.0507812 12.078125 -0.0273437 12.101562 0.000000000000002665 12.101562 H -3 C -3.027344 12.101562 -3.050781 12.078125 -3.050781 12.050781 V 6.050781 C -3.050781 6.023438 -3.027344 6 -3 6 H 0.000000000000001332 C -0.0273437 6 -0.0507812 6.023438 -0.0507812 6.050781 V 0.0507812 C -0.0507812 0.0234375 -0.0273438 0 0 0 H 0 " style="fill:none;stroke-width:0.1;stroke-linecap:butt;stroke-linejoin:miter;stroke:rgb(0%,0%,0%);stroke-opacity:1;stroke-miterlimit:10;" transform="matrix(1.0000,-0.0000,-0.0000,-1.0000,21.8750,672.3945)"/>
<path d="M 0 0 H 10 C 10.027344 0 10.050781 0.0234375 10.050781 0.0507812 V 3.050781 C 10.050781 3.023438 10.027344 3 10 3 H 16 C 15.972656 3 15.949219 3.023438 15.949219 3.050781 V 0.0507812 C 15.949219 0.0234375 15.972656 0 16 0 H 22 C 22.027344 0 22.050781 0.0234375 22.050781 0.0507812 V 3.050781 C 22.050781 3.023438 22.027344 3 22 3 H 28 C 27.972656 3 27.949219 3.023438 27.949219 3.050781 V 0.0507812 C 27.949219 0.0234375 27.972656 0 28 0 H 34 C 34.027344 0 34.050781 0.0234375 34.050781 0.0507812 V 3.050781 C 34.050781 3.023438 34.027344 3 34 3 H 40 C 39.972656 3 39.949219 3.023438 39.949219 3.050781 V 0.0507812 C 39.949219 0.0234375 39.972656 0 40 0 H 46 C 46.027344 0 46.050781 0.0234375 46.050781 0.0507812 V 3.050781 C 46.050781 3.023438 46.027344 3 46 3 H 52 C 51.972656 3 51.949219 3.023438 51.949219 3.050781 V 0.0507812 C 51.949219 0.0234375 51.972656 0 52 0 H 58 C 58.027344 0 58.050781 0.0234375 58.050781 0.0507812 V 3.050781 C 58.050781 3.023438 58.027344 3 58 3 H 64 C 63.972656 3 63.949219 3.023438 63.949219 3.050781 V 0.0507812 C 63.949219 0.0234375 63.972656 0 64 0 H 70 C 70.027344 0 70.050781 0.0234375 70.050781 0.0507812 V 3.050781 C 70.050781 3.023438 70.027344 3 70 3 H 76 C 75.972656 3 75.949219 3.023438 75.949219 3.050781 V 0.0507812 C 75.949219 0.0234375 75.972656 0 76 0 H 82 C 82.027344 0 82.050781 0.0234375 82.050781 0.0507812 V 3.050781 C 82.050781 3.023438 82.027344 3 82 3 H 88 C 87.972656 3 87.949219 3.023438 87.949219 3.050781 V 0.0507812 C 87.949219 0.0234375 87.972656 0 88 0 H 94 C 94.027344 0 94.050781 0.0234375 94.050781 0.0507812 V 3.050781 C 94.050781 3.023438 94.027344 3 94 3 H 100 C 99.972656 3 99.949219 3.023438 99.949219 3.050781 V 0.0507812 C 99.949219 0.0234375 99.972656 0 100 0 H 106 C 106.027344 0 106.050781 0.0234375 106.050781 0.0507812 V 3.050781 C 106.050781 3.023438 106.027344 3 106 3 H 112 C 111.972656 3 111.949219 3.023438 111.949219 3.050781 V 0.0507812 C 111.949219 0.0234375 111.972656 0 112 0 H 118 C 118.027344 0 118.050781 0.0234375 118.050781 0.0507812 V 3.050781 C 118.050781 3.023438 118.027344 3 118 3 H 124 C 123.972656 3 123.949219 3.023438 123.949219 3.050781 V 0.0507812 C 123.949219 0.0234375 123.972656 0 124 0 H 130 C 130.027344 0 130.050781 0.0234375 130.050781 0.0507812 V 3.050781 C 130.050781 3.023438 130.027344 3 130 3 H 136 C 135.972656 3 135.949219 3.023438 135.949219 3.050781 V 0.0507812 C 135.949219 0.0234375 135.972656 0 136 0 H 142 C 142.027344 0 142.050781 0.0234375 142.050781 0.0507812 V 3.050781 C 142.050781 3.023438 142.027344 3 142 3 H 148 C 147.972656 3 147.949219 3.023438 147.949219 3.050781 V 0.0507812 C 147.949219 0.0234375 147.972656 0 148 0 H 154 C 154.027344 0 154.050781 0.0234375 154.050781 0.0507812 V 3.050781 C 154.050781 3.023438 154.027344 3 154 3 H 160 C 159.972656 3 159.949219 3.023438 159.949219 3.050781 V 0.0507812 C 159.949219 0.0234375 159.972656 0 160 0 H 166 C 166.027344 0 166.050781 0.0234375 166.050781 0.0507812 V 3.050781 C 166.050781 3.023438 166.027344 3 166 3 H 172 C 171.972656 3 171.949219 3.023438 171.949219 3.050781 V 0.0507812 C 171.949219 0.0234375 171.972656 0 172 0 H 178 C 178.027344 0 178.050781 0.0234375 178.050781 0.0507812 V 3.050781 C 178.050781 3.023438 178.027344 3 178 3 H 184 C 183.972656 3 183.949219 3.023438 183.949219 3.050781 V 0.0507812 C 183.949219 0.0234375 183.972656 0 184 0 H 194 L 197 0 C 197.027344 0 197.050781 0.0234375 197.050781 0.0507812 V 3.050781 L 197.050781 13.050781 C 197.050781 13.078125 197.027344 13.101562 197 13.101562 H 194 C 194.027344 13.101562 194.050781 13.078125 194.050781 13.050781 V 19.050781 C 194.050781 19.023438 194.027344 19 194 19 H 197 C 197.027344 19 197.050781 19.023438 197.050781 19.050781 V 25.050781 C 197.050781 25.078125 197.027344 25.101562 197 25.101562 H 194 C 194.027344 25.101562 194.050781 25.078125 194.050781 25.050781 V 31.050781 C 194.050781 31.023438 194.027344 31 194 31 H 197 C 197.027344 31 197.050781 31.023438 197.050781 31.050781 V 37.050781 C 197.050781 37.078125 197.027344 37.101562 197 37.101562 H 194 C 194.027344 37.101562 194.050781 37.078125 194.050781 37.050781 V 43.050781 C 194.050781 43.023438 194.027344 43 194 43 H 197 C 197.027344 43 197.050781 43.023438 197.050781 43.050781 V 49.050781 C 197.050781 49.078125 197.027344 49.101562 197 49.101562 H 194 C 194.027344 49.101562 194.050781 49.078125 194.050781 49.050781 V 55.050781 C 194.050781 55.023438 194.027344 55 194 55 H 197 C 197.027344 55 197.050781 55.023438 197.050781 55.050781 V 61.050781 C 197.050781 61.078125 197.027344 61.101562 197 61.101562 H 194 C 194.027344 61.101562 194.050781 61.078125 194.050781 61.050781 V 67.050781 C 194.050781 67.023438 194.027344 67 194 67 H 197 C 197.027344 67 197.050781 67.023438 197.050781 67.050781 V 77.050781 C 197.050781 77.078125 197.027344 77.101562 197 77.101562 H 194 L -0.000000000000019096 77.101562 H -3 C -3.027344 77.101562 -3.050781 77.078125 -3.050781 77.050781 H -3.050781 V 67.050781 C -3.050781 67.023438 -3.027344 67 -3 67 H -0.000000000000016431 C -0.0273438 67 -0.0507813 67.023438 -0.0507813 67.050781 V 61.050781 C -0.0507813 61.078125 -0.0273438 61.101562 -0.000000000000015099 61.101562 H -3 C -3.027344 61.101562 -3.050781 61.078125 -3.050781 61.050781 V 55.050781 C -3.050781 55.023438 -3.027344 55 -3 55 H -0.000000000000013323 C -0.0273438 55 -0.0507813 55.023438 -0.0507813 55.050781 V 49.050781 C -0.0507813 49.078125 -0.0273438 49.101562 -0.00000000000001199 49.101562 H -3 C -3.027344 49.101562 -3.050781 49.078125 -3.050781 49.050781 V 43.050781 C -3.050781 43.023438 -3.027344 43 -3 43 H -0.000000000000010658 C -0.0273438 43 -0.0507813 43.023438 -0.0507813 43.050781 V 37.050781 C -0.0507813 37.078125 -0.0273438 37.101562 -0.000000000000008882 37.101562 H -3 C -3.027344 37.101562 -3.050781 37.078125 -3.050781 37.050781 V 31.050781 C -3.050781 31.023438 -3.027344 31 -3 31 H -0.00000000000000755 C -0.0273438 31 -0.0507813 31.023438 -0.0507813 31.050781 V 25.050781 C -0.0507813 25.078125 -0.0273438 25.101562 -0.000000000000006217 25.101562 H -3 C -3.027344 25.101562 -3.050781 25.078125 -3.050781 25.050781 V 19.050781 C -3.050781 19.023438 -3.027344 19 -3 19 H -0.000000000000004441 C -0.0273438 19 -0.0507813 19.023438 -0.0507813 19.050781 V 13.050781 C -0.0507813 13.078125 -0.0273438 13.101562 -0.000000000000003109 13.101562 H -3 C -3.027344 13.101562 -3.050781 13.078125 -3.050781 13.050781 V 3.050781 L -3.050781 0.0507812 C -3.050781 0.0234375 -3.027344 0 -3 0 H 0 " style="fill:none;stroke-width:0.1;stroke-linecap:butt;stroke-linejoin:miter;stroke:rgb(0%,0%,0%);stroke-opacity:1;stroke-miterlimit:10;" transform="matrix(1.0000,0.0000,0.0000,-1.0000,21.8750,637.8008)"/>
<path d="M 0 0 H 10 C 10.027344 0 10.050781 0.0234375 10.050781 0.0507812 V 3.050781 C 10.050781 3.023438 10.027344 3 10 3 H 16 C 15.972656 3 15.949219 3.023438 15.949219 3.050781 V 0.0507812 C 15.949219 0.0234375 15.972656 0 16 0 H 22 C 22.027344 0 22.050781 0.0234375 22.050781 0.0507812 V 3.050781 C 22.050781 3.023438 22.027344 3 22 3 H 28 C 27.972656 3 27.949219 3.023438 27.949219 3.050781 V 0.0507812 C 27.949219 0.0234375 27.972656 0 28 0 H 34 C 34.027344 0 34.050781 0.0234375 34.050781 0.0507812 V 3.050781 C 34.050781 3.023438 34.027344 3 34 3 H 40 C 39.972656 3 39.949219 3.023438 39.949219 3.050781 V 0.0507812 C 39.949219 0.0234375 39.972656 0 40 0 H 46 C 46.027344 0 46.050781 0.0234375 46.050781 0.0507812 V 3.050781 C 46.050781 3.023438 46.027344 3 46 3 H 52 C 51.972656 3 51.949219 3.023438 51.949219 3.050781 V 0.0507812 C 51.949219 0.0234375 51.972656 0 52 0 H 58 C 58.027344 0 58.050781 0.0234375 58.050781 0.0507812 V 3.050781 C 58.050781 3.023438 58.027344 3 58 3 H 64 C 63.972656 3 63.949219 3.023438 63.949219 3.050781 V 0.0507812 C 63.949219 0.0234375 63.972656 0 64 0 H 70 C 70.027344 0 70.050781 0.0234375 70.050781 0.0507812 V 3.050781 C 70.050781 3.023438 70.027344 3 70 3 H 76 C 75.972656 3 75.949219 3.023438 75.949219 3.050781 V 0.0507812 C 75.949219 0.0234375 75.972656 0 76 0 H 82 C 82.027344 0 82.050781 0.0234375 82.050781 0.0507812 V 3.050781 C 82.050781 3.023438 82.027344 3 82 3 H 88 C 87.972656 3 87.949219 3.023438 87.949219 3.050781 V 0.0507812 C 87.949219 0.0234375 87.972656 0 88 0 H 94 C 94.027344 0 94.050781 0.0234375 94.050781 0.0507812 V 3.050781 C 94.050781 3.023438 94.027344 3 94 3 H 100 C 99.972656 3 99.949219 3.023438 99.949219 3.050781 V 0.0507812 C 99.949219 0.0234375 99.972656 0 100 0 H 106 C 106.027344 0 106.050781 0.0234375 106.050781 0.0507812 V 3.050781 C 106.050781 3.023438 106.027344 3 106 3 H 112 C 111.972656 3 111.949219 3.023438 111.949219 3.050781 V 0.0507812 C 111.949219 0.0234375 111.972656 0 112 0 H 118 C 118.027344 0 118.050781 0.0234375 118.050781 0.0507812 V 3.050781 C 118.050781 3.023438 118.027344 3 118 3 H 124 C 123.972656 3 123.949219 3.023438 123.949219 3.050781 V 0.0507812 C 123.949219 0.0234375 123.972656 0 124 0 H 130 C 130.027344 0 130.050781 0.0234375 130.050781 0.0507812 V 3.050781 C 130.050781 3.023438 130.027344 3 130 3 H 136 C 135.972656 3 135.949219 3.023438 135.949219 3.050781 V 0.0507812 C 135.949219 0.0234375 135.972656 0 136 0 H 142 C 142.027344 0 142.050781 0.0234375 142.050781 0.0507812 V 3.050781 C 142.050781 3.023438 142.027344 3 142 3 H 148 C 147.972656 3 147.949219 3.023438 147.949219 3.050781 V 0.0507812 C 147.949219 0.0234375 147.972656 0 148 0 H 154 C 154.027344 0 154.050781 0.0234375 154.050781 0.0507812 V 3.050781 C 154.050781 3.023438 154.027344 3 154 3 H 160 C 159.972656 3 159.949219 3.023438 159.949219 3.050781 V 0.0507812 C 159.949219 0.0234375 159.972656 0 160 0 H 166 C 166.027344 0 166.050781 0.0234375 166.050781 0.0507812 V 3.050781 C 166.050781 3.023438 166.027344 3 166 3 H 172 C 171.972656 3 171.949219 3.023438 171.949219 3.050781 V 0.0507812 C 171.949219 0.0234375 171.972656 0 172 0 H 178 C 178.027344 0 178.050781 0.0234375 178.050781 0.0507812 V 3.050781 C 178.050781 3.023438 178.027344 3 178 3 H 184 C 183.972656 3 183.949219 3.023438 183.949219 3.050781 V 0.0507812 C 183.949219 0.0234375 183.972656 0 184 0 H 194 L 197 0 C 197.027344 0 197.050781 0.0234375 197.050781 0.0507812 V 3.050781 L 197.050781 14.550781 C 197.050781 14.578125 197.027344 14.601562 197 14.601562 H 194 C 194.027344 14.601562 194.050781 14.578125 194.050781 14.550781 V 20.550781 C 194.050781 20.523438 194.027344 20.5 194 20.5 H 197 C 197.027344 20.5 197.050781 20.523438 197.050781 20.550781 V 26.550781 C 197.050781 26.578125 197.027344 26.601562 197 26.601562 H 194 C 194.027344 26.601562 194.050781 26.578125 194.050781 26.550781 V 32.550781 C 194.050781 32.523438 194.027344 32.5 194 32.5 H 197 C 197.027344 32.5 197.050781 32.523438 197.050781 32.550781 V 38.550781 C 197.050781 38.578125 197.027344 38.601562 197 38.601562 H 194 C 194.027344 38.601562 194.050781 38.578125 194.050781 38.550781 V 44.550781 C 194.050781 44.523438 194.027344 44.5 194 44.5 H 197 C 197.027344 44.5 197.050781 44.523438 197.050781 44.550781 V 50.550781 C 197.050781 50.578125 197.027344 50.601562 197 50.601562 H 194 C 194.027344 50.601562 194.050781 50.578125 194.050781 50.550781 V 56.550781 C 194.050781 56.523438 194.027344 56.5 194 56.5 H 197 C 197.027344 56.5 197.050781 56.523438 197.050781 56.550781 V 68.050781 C 197.050781 68.078125 197.027344 68.101562 197 68.101562 H 194 C 194.027344 68.101562 194.050781 68.078125 194.050781 68.050781 V 77.050781 C 194.050781 77.078125 194.027344 77.101562 194 77.101562 H 194 L -0.000000000000019096 77.101562 C -0.0273438 77.101562 -0.0507813 77.078125 -0.0507813 77.050781 H -0.0507813 V 68.050781 C -0.0507813 68.078125 -0.0273438 68.101562 -0.000000000000016875 68.101562 H -3 C -3.027344 68.101562 -3.050781 68.078125 -3.050781 68.050781 V 56.550781 C -3.050781 56.523438 -3.027344 56.5 -3 56.5 H -0.000000000000014211 C -0.0273438 56.5 -0.0507813 56.523438 -0.0507813 56.550781 V 50.550781 C -0.0507813 50.578125 -0.0273438 50.601562 -0.000000000000012434 50.601562 H -3 C -3.027344 50.601562 -3.050781 50.578125 -3.050781 50.550781 V 44.550781 C -3.050781 44.523438 -3.027344 44.5 -3 44.5 H -0.000000000000011102 C -0.0273438 44.5 -0.0507813 44.523438 -0.0507813 44.550781 V 38.550781 C -0.0507813 38.578125 -0.0273438 38.601562 -0.00000000000000977 38.601562 H -3 C -3.027344 38.601562 -3.050781 38.578125 -3.050781 38.550781 V 32.550781 C -3.050781 32.523438 -3.027344 32.5 -3 32.5 H -0.000000000000007994 C -0.0273438 32.5 -0.0507813 32.523438 -0.0507813 32.550781 V 26.550781 C -0.0507813 26.578125 -0.0273438 26.601562 -0.000000000000006661 26.601562 H -3 C -3.027344 26.601562 -3.050781 26.578125 -3.050781 26.550781 V 20.550781 C -3.050781 20.523438 -3.027344 20.5 -3 20.5 H -0.000000000000005329 C -0.0273438 20.5 -0.0507813 20.523438 -0.0507813 20.550781 V 14.550781 C -0.0507813 14.578125 -0.0273438 14.601562 -0.000000000000003553 14.601562 H -3 C -3.027344 14.601562 -3.050781 14.578125 -3.050781 14.550781 V 3.050781 L -3.050781 0.0507812 C -3.050781 0.0234375 -3.027344 0 -3 0 H 0 " style="fill:none;stroke-width:0.1;stroke-linecap:butt;stroke-linejoin:miter;stroke:rgb(0%,0%,0%);stroke-opacity:1;stroke-miterlimit:10;" transform="matrix(1.0000,0.0000,0.0000,-1.0000,21.8750,559.1992)"/>
<path d="M 0 0 H 10 C 10.027344 0 10.050781 0.0234375 10.050781 0.0507812 V 3.050781 C 10.050781 3.023438 10.027344 3 10 3 H 16 C 15.972656 3 15.949219 3.023438 15.949219 3.050781 V 0.0507812 C 15.949219 0.0234375 15.972656 0 16 0 H 22 C 22.027344 0 22.050781 0.0234375 22.050781 0.0507812 V 3.050781 C 22.050781 3.023438 22.027344 3 22 3 H 28 C 27.972656 3 27.949219 3.023438 27.949219 3.050781 V 0.0507812 C 27.949219 0.0234375 27.972656 0 28 0 H 34 C 34.027344 0 34.050781 0.0234375 34.050781 0.0507812 V 3.050781 C 34.050781 3.023438 34.027344 3 34 3 H 40 C 39.972656 3 39.949219 3.023438 39.949219 3.050781 V 0.0507812 C 39.949219 0.0234375 39.972656 0 40 0 H 46 C 46.027344 0 46.050781 0.0234375 46.050781 0.0507812 V 3.050781 C 46.050781 3.023438 46.027344 3 46 3 H 52 C 51.972656 3 51.949219 3.023438 51.949219 3.050781 V 0.0507812 C 51.949219 0.0234375 51.972656 0 52 0 H 58 C 58.027344 0 58.050781 0.0234375 58.050781 0.0507812 V 3.050781 C 58.050781 3.023438 58.027344 3 58 3 H 64 C 63.972656 3 63.949219 3.023438 63.949219 3.050781 V 0.0507812 C 63.949219 0.0234375 63.972656 0 64 0 H 70 C 70.027344 0 70.050781 0.0234375 70.050781 0.0507812 V 3.050781 C 70.050781 3.023438 70.027344 3 70 3 H 76 C 75.972656 3 75.949219 3.023438 75.949219 3.050781 V 0.0507812 C 75.949219 0.0234375 75.972656 0 76 0 H 82 C 82.027344 0 82.050781 0.0234375 82.050781 0.0507812 V 3.050781 C 82.050781 3.023438 82.027344 3 82 3 H 88 C 87.972656 3 87.949219 3.023438 87.949219 3.050781 V 0.0507812 C 87.949219 0.0234375 87.972656 0 88 0 H 94 C 94.027344 0 94.050781 0.0234375 94.050781 0.0507812 V 3.050781 C 94.050781 3.023438 94.027344 3 94 3 H 100 C 99.972656 3 99.949219 3.023438 99.949219 3.050781 V 0.0507812 C 99.949219 0.0234375 99.972656 0 100 0 H 106 C 106.027344 0 106.050781 0.0234375 106.050781 0.0507812 V 3.050781 C 106.050781 3.023438 106.027344 3 106 3 H 112 C 111.972656 3 111.949219 3.023438 111.949219 3.050781 V 0.0507812 C 111.949219 0.0234375 111.972656 0 112 0 H 118 C 118.027344 0 118.050781 0.0234375 118.050781 0.0507812 V 3.050781 C 118.050781 3.023438 118.027344 3 118 3 H 124 C 123.972656 3 123.949219 3.023438 123.949219 3.050781 V 0.0507812 C 123.949219 0.0234375 123.972656 0 124 0 H 130 C 130.027344 0 130.050781 0.0234375 130.050781 0.0507812 V 3.050781 C 130.050781 3.023438 130.027344 3 130 3 H 136 C 135.972656 3 135.949219 3.023438 135.949219 3.050781 V 0.0507812 C 135.949219 0.0234375 135.972656 0 136 0 H 142 C 142.027344 0 142.050781 0.0234375 142.050781 0.0507812 V 3.050781 C 142.050781 3.023438 142.027344 3 142 3 H 148 C 147.972656 3 147.949219 3.023438 147.949219 3.050781 V 0.0507812 C 147.949219 0.0234375 147.972656 0 148 0 H 154 C 154.027344 0 154.050781 0.0234375 154.050781 0.0507812 V 3.050781 C 154.050781 3.023438 154.027344 3 154 3 H 160 C 159.972656 3 159.949219 3.023438 159.949219 3.050781 V 0.0507812 C 159.949219 0.0234375 159.972656 0 160 0 H 166 C 166.027344 0 166.050781 0.0234375 166.050781 0.0507812 V 3.050781 C 166.050781 3.023438 166.027344 3 166 3 H 172 C 171.972656 3 171.949219 3.023438 171.949219 3.050781 V 0.0507812 C 171.949219 0.0234375 171.972656 0 172 0 H 178 C 178.027344 0 178.050781 0.0234375 178.050781 0.0507812 V 3.050781 C 178.050781 3.023438 178.027344 3 178 3 H 184 C 183.972656 3 183.949219 3.023438 183.949219 3.050781 V 0.0507812 C 183.949219 0.0234375 183.972656 0 184 0 H 194 L 197 0 C 197.027344 0 197.050781 0.0234375 197.050781 0.0507812 V 3.050781 L 197.050781 9.050781 C 197.050781 9.078125 197.027344 9.101562 197 9.101562 H 194 C 194.027344 9.101562 194.050781 9.078125 194.050781 9.050781 V 15.050781 C 194.050781 15.023438 194.027344 15 194 15 H 197 C 197.027344 15 197.050781 15.023438 197.050781 15.050781 V 21.050781 C 197.050781 21.078125 197.027344 21.101562 197 21.101562 H 194 C 194.027344 21.101562 194.050781 21.078125 194.050781 21.050781 V 27.050781 C 194.050781 27.023438 194.027344 27 194 27 H 197 C 197.027344 27 197.050781 27.023438 197.050781 27.050781 V 33.050781 C 197.050781 33.078125 197.027344 33.101562 197 33.101562 H 194 L -0.000000000000007994 33.101562 H -3 C -3.027344 33.101562 -3.050781 33.078125 -3.050781 33.050781 H -3.050781 V 27.050781 C -3.050781 27.023438 -3.027344 27 -3 27 H -0.000000000000006661 C -0.0273438 27 -0.0507813 27.023438 -0.0507813 27.050781 V 21.050781 C -0.0507813 21.078125 -0.0273438 21.101562 -0.000000000000004885 21.101562 H -3 C -3.027344 21.101562 -3.050781 21.078125 -3.050781 21.050781 V 15.050781 C -3.050781 15.023438 -3.027344 15 -3 15 H -0.000000000000003553 C -0.0273438 15 -0.0507813 15.023438 -0.0507813 15.050781 V 9.050781 C -0.0507813 9.078125 -0.0273438 9.101562 -0.00000000000000222 9.101562 H -3 C -3.027344 9.101562 -3.050781 9.078125 -3.050781 9.050781 V 3.050781 L -3.050781 0.0507812 C -3.050781 0.0234375 -3.027344 0 -3 0 H 0 " style="fill:none;stroke-width:0.1;stroke-linecap:butt;stroke-linejoin:miter;stroke:rgb(0%,0%,0%);stroke-opacity:1;stroke-miterlimit:10;" transform="matrix(1.0000,0.0000,0.0000,-1.0000,21.8750,480.6016)"/>
<path d="M 0 0 H 10 C 10.027344 0 10.050781 0.0234375 10.050781 0.0507812 V 3.050781 C 10.050781 3.023438 10.027344 3 10 3 H 16 C 15.972656 3 15.949219 3.023438 15.949219 3.050781 V 0.0507812 C 15.949219 0.0234375 15.972656 0 16 0 H 22 C 22.027344 0 22.050781 0.0234375 22.050781 0.0507812 V 3.050781 C 22.050781 3.023438 22.027344 3 22 3 H 28 C 27.972656 3 27.949219 3.023438 27.949219 3.050781 V 0.0507812 C 27.949219 0.0234375 27.972656 0 28 0 H 34 C 34.027344 0 34.050781 0.0234375 34.050781 0.0507812 V 3.050781 C 34.050781 3.023438 34.027344 3 34 3 H 40 C 39.972656 3 39.949219 3.023438 39.949219 3.050781 V 0.0507812 C 39.949219 0.0234375 39.972656 0 40 0 H 46 C 46.027344 0 46.050781 0.0234375 46.050781 0.0507812 V 3.050781 C 46.050781 3.023438 46.027344 3 46 3 H 52 C 51.972656 3 51.949219 3.023438 51.949219 3.050781 V 0.0507812 C 51.949219 0.0234375 51.972656 0 52 0 H 58 C 58.027344 0 58.050781 0.0234375 58.050781 0.0507812 V 3.050781 C 58.050781 3.023438 58.027344 3 58 3 H 64 C 63.972656 3 63.949219 3.023438 63.949219 3.050781 V 0.0507812 C 63.949219 0.0234375 63.972656 0 64 0 H 70 C 70.027344 0 70.050781 0.0234375 70.050781 0.0507812 V 3.050781 C 70.050781 3.023438 70.027344 3 70 3 H 76 C 75.972656 3 75.949219 3.023438 75.949219 3.050781 V 0.0507812 C 75.949219 0.0234375 75.972656 0 76 0 H 82 C 82.027344 0 82.050781 0.0234375 82.050781 0.0507812 V 3.050781 C 82.050781 3.023438 82.027344 3 82 3 H 88 C 87.972656 3 87.949219 3.023438 87.949219 3.050781 V 0.0507812 C 87.949219 0.0234375 87.972656 0 88 0 H 94 C 94.027344 0 94.050781 0.0234375 94.050781 0.0507812 V 3.050781 C 94.050781 3.023438 94.027344 3 94 3 H 100 C 99.972656 3 99.949219 3.023438 99.949219 3.050781 V 0.0507812 C 99.949219 0.0234375 99.972656 0 100 0 H 106 C 106.027344 0 106.050781 0.0234375 106.050781 0.0507812 V 3.050781 C 106.050781 3.023438 106.027344 3 106 3 H 112 C 111.972656 3 111.949219 3.023438 111.949219 3.050781 V 0.0507812 C 111.949219 0.0234375 111.972656 0 112 0 H 118 C 118.027344 0 118.050781 0.0234375 118.050781 0.0507812 V 3.050781 C 118.050781 3.023438 118.027344 3 118 3 H 124 C 123.972656 3 123.949219 3.023438 123.949219 3.050781 V 0.0507812 C 123.949219 0.0234375 123.972656 0 124 0 H 130 C 130.027344 0 130.050781 0.0234375 130.050781 0.0507812 V 3.050781 C 130.050781 3.023438 130.027344 3 130 3 H 136 C 135.972656 3 135.949219 3.023438 135.949219 3.050781 V 0.0507812 C 135.949219 0.0234375 135.972656 0 136 0 H 142 C 142.027344 0 142.050781 0.0234375 142.050781 0.0507812 V 3.050781 C 142.050781 3.023438 142.027344 3 142 3 H 148 C 147.972656 3 147.949219 3.023438 147.949219 3.050781 V 0.0507812 C 147.949219 0.0234375 147.972656 0 148 0 H 154 C 154.027344 0 154.050781 0.0234375 154.050781 0.0507812 V 3.050781 C 154.050781 3.023438 154.027344 3 154 3 H 160 C 159.972656 3 159.949219 3.023438 159.949219 3.050781 V 0.0507812 C 159.949219 0.0234375 159.972656 0 160 0 H 166 C 166.027344 0 166.050781 0.0234375 166.050781 0.0507812 V 3.050781 C 166.050781 3.023438 166.027344 3 166 3 H 172 C 171.972656 3 171.949219 3.023438 171.949219 3.050781 V 0.0507812 C 171.949219 0.0234375 171.972656 0 172 0 H 178 C 178.027344 0 178.050781 0.0234375 178.050781 0.0507812 V 3.050781 C 178.050781 3.023438 178.027344 3 178 3 H 184 C 183.972656 3 183.949219 3.023438 183.949219 3.050781 V 0.0507812 C 183.949219 0.0234375 183.972656 0 184 0 H 194 L 197 0 C 197.027344 0 197.050781 0.0234375 197.050781 0.0507812 V 3.050781 L 197.050781 10.402344 C 197.050781 10.429688 197.027344 10.453125 197 10.453125 H 194 C 194.027344 10.453125 194.050781 10.429688 194.050781 10.402344 V 16.402344 C 194.050781 16.375 194.027344 16.351562 194 16.351562 H 197 C 197.027344 16.351562 197.050781 16.375 197.050781 16.402344 V 23.753906 C 197.050781 23.78125 197.027344 23.804688 197 23.804688 H 194 C 194.027344 23.804688 194.050781 23.78125 194.050781 23.753906 V 28.265625 C 194.050781 28.238281 194.027344 28.214844 194 28.214844 H 197 C 197.027344 28.214844 197.050781 28.238281 197.050781 28.265625 V 32.753906 C 197.050781 32.78125 197.027344 32.804688 197 32.804688 H -3 C -3.027344 32.804688 -3.050781 32.78125 -3.050781 32.753906 V 28.265625 C -3.050781 28.238281 -3.027344 28.214844 -3 28.214844 H -0.000000000000006661 C -0.0273438 28.214844 -0.0507813 28.238281 -0.0507813 28.265625 V 23.753906 C -0.0507813 23.78125 -0.0273438 23.804688 -0.000000000000005773 23.804688 H -0.000000000000005773 L -3 23.804688 C -3.027344 23.804688 -3.050781 23.78125 -3.050781 23.753906 H -3.050781 V 16.402344 C -3.050781 16.375 -3.027344 16.351562 -3 16.351562 H -0.000000000000003997 C -0.0273438 16.351562 -0.0507813 16.375 -0.0507813 16.402344 V 10.402344 C -0.0507813 10.429688 -0.0273438 10.453125 -0.000000000000002665 10.453125 H -3 C -3.027344 10.453125 -3.050781 10.429688 -3.050781 10.402344 V 3.050781 L -3.050781 0.0507812 C -3.050781 0.0234375 -3.027344 0 -3 0 H 0 " style="fill:none;stroke-width:0.1;stroke-linecap:butt;stroke-linejoin:miter;stroke:rgb(0%,0%,0%);stroke-opacity:1;stroke-miterlimit:10;" transform="matrix(1.0000,0.0000,0.0000,-1.0000,21.8750,446.0000)"/>
<path d="M 0 0 H 8 C 7.972656 0 7.949219 0.0234375 7.949219 0.0507812 V -2.949219 C 7.949219 -2.976562 7.972656 -3 8 -3 H 14 C 14.027344 -3 14.050781 -2.976562 14.050781 -2.949219 V 0.0507812 C 14.050781 0.0234375 14.027344 0 14 0 H 20 C 19.972656 0 19.949219 0.0234375 19.949219 0.0507812 V -2.949219 C 19.949219 -2.976562 19.972656 -3 20 -3 H 26 C 26.027344 -3 26.050781 -2.976562 26.050781 -2.949219 V 0.0507812 C 26.050781 0.0234375 26.027344 0 26 0 H 32 C 31.972656 0 31.949219 0.0234375 31.949219 0.0507812 V -2.949219 C 31.949219 -2.976562 31.972656 -3 32 -3 H 38 C 38.027344 -3 38.050781 -2.976562 38.050781 -2.949219 V 0.0507812 C 38.050781 0.0234375 38.027344 0 38 0 H 44 C 43.972656 0 43.949219 0.0234375 43.949219 0.0507812 V -2.949219 C 43.949219 -2.976562 43.972656 -3 44 -3 H 50 C 50.027344 -3 50.050781 -2.976562 50.050781 -2.949219 V 0.0507812 C 50.050781 0.0234375 50.027344 0 50 0 H 56 C 55.972656 0 55.949219 0.0234375 55.949219 0.0507812 V -2.949219 C 55.949219 -2.976562 55.972656 -3 56 -3 H 62 C 62.027344 -3 62.050781 -2.976562 62.050781 -2.949219 V 0.0507812 C 62.050781 0.0234375 62.027344 0 62 0 H 68 C 67.972656 0 67.949219 0.0234375 67.949219 0.0507812 V -2.949219 C 67.949219 -2.976562 67.972656 -3 68 -3 H 74 C 74.027344 -3 74.050781 -2.976562 74.050781 -2.949219 V 0.0507812 C 74.050781 0.0234375 74.027344 0 74 0 H 80 C 79.972656 0 79.949219 0.0234375 79.949219 0.0507812 V -2.949219 C 79.949219 -2.976562 79.972656 -3 80 -3 H 86 C 86.027344 -3 86.050781 -2.976562 86.050781 -2.949219 V 0.0507812 C 86.050781 0.0234375 86.027344 0 86 0 H 94 C 94.027344 0 94.050781 0.0234375 94.050781 0.0507812 H 94.050781 V 10.050781 C 94.050781 10.023438 94.027344 10 94 10 H 97 C 97.027344 10 97.050781 10.023438 97.050781 10.050781 V 16.050781 C 97.050781 16.078125 97.027344 16.101562 97 16.101562 H 94 C 94.027344 16.101562 94.050781 16.078125 94.050781 16.050781 V 22.050781 C 94.050781 22.023438 94.027344 22 94 22 H 97 C 97.027344 22 97.050781 22.023438 97.050781 22.050781 V 28.050781 C 97.050781 28.078125 97.027344 28.101562 97 28.101562 H 94 C 94.027344 28.101562 94.050781 28.078125 94.050781 28.050781 V 34.050781 C 94.050781 34.023438 94.027344 34 94 34 H 97 C 97.027344 34 97.050781 34.023438 97.050781 34.050781 V 40.050781 C 97.050781 40.078125 97.027344 40.101562 97 40.101562 H 94 C 94.027344 40.101562 94.050781 40.078125 94.050781 40.050781 V 46.050781 C 94.050781 46.023438 94.027344 46 94 46 H 97 C 97.027344 46 97.050781 46.023438 97.050781 46.050781 V 52.050781 C 97.050781 52.078125 97.027344 52.101562 97 52.101562 H 94 C 94.027344 52.101562 94.050781 52.078125 94.050781 52.050781 V 58.050781 C 94.050781 58.023438 94.027344 58 94 58 H 97 C 97.027344 58 97.050781 58.023438 97.050781 58.050781 V 64.050781 C 97.050781 64.078125 97.027344 64.101562 97 64.101562 H 94 C 94.027344 64.101562 94.050781 64.078125 94.050781 64.050781 V 70.050781 C 94.050781 70.023438 94.027344 70 94 70 H 97 C 97.027344 70 97.050781 70.023438 97.050781 70.050781 V 76.050781 C 97.050781 76.078125 97.027344 76.101562 97 76.101562 H 94 C 94.027344 76.101562 94.050781 76.078125 94.050781 76.050781 V 82.050781 C 94.050781 82.023438 94.027344 82 94 82 H 97 C 97.027344 82 97.050781 82.023438 97.050781 82.050781 V 88.050781 C 97.050781 88.078125 97.027344 88.101562 97 88.101562 H 94 C 94.027344 88.101562 94.050781 88.078125 94.050781 88.050781 V 94.050781 C 94.050781 94.023438 94.027344 94 94 94 H 97 C 97.027344 94 97.050781 94.023438 97.050781 94.050781 V 100.050781 C 97.050781 100.078125 97.027344 100.101562 97 100.101562 H 94 C 94.027344 100.101562 94.050781 100.078125 94.050781 100.050781 V 106.050781 C 94.050781 106.023438 94.027344 106 94 106 H 97 C 97.027344 106 97.050781 106.023438 97.050781 106.050781 V 112.050781 C 97.050781 112.078125 97.027344 112.101562 97 112.101562 H 94 C 94.027344 112.101562 94.050781 112.078125 94.050781 112.050781 V 118.050781 C 94.050781 118.023438 94.027344 118 94 118 H 97 C 97.027344 118 97.050781 118.023438 97.050781 118.050781 V 124.050781 C 97.050781 124.078125 97.027344 124.101562 97 124.101562 H 94 C 94.027344 124.101562 94.050781 124.078125 94.050781 124.050781 V 130.050781 C 94.050781 130.023438 94.027344 130 94 130 H 97 C 97.027344 130 97.050781 130.023438 97.050781 130.050781 V 136.050781 C 97.050781 136.078125 97.027344 136.101562 97 136.101562 H 94 C 94.027344 136.101562 94.050781 136.078125 94.050781 136.050781 V 142.050781 C 94.050781 142.023438 94.027344 142 94 142 H 97 C 97.027344 142 97.050781 142.023438 97.050781 142.050781 V 148.050781 C 97.050781 148.078125 97.027344 148.101562 97 148.101562 H 94 C 94.027344 148.101562 94.050781 148.078125 94.050781 148.050781 V 154.050781 C 94.050781 154.023438 94.027344 154 94 154 H 97 C 97.027344 154 97.050781 154.023438 97.050781 154.050781 V 160.050781 C 97.050781 160.078125 97.027344 160.101562 97 160.101562 H 94 C 94.027344 160.101562 94.050781 160.078125 94.050781 160.050781 V 166.050781 C 94.050781 166.023438 94.027344 166 94 166 H 97 C 97.027344 166 97.050781 166.023438 97.050781 166.050781 V 172.050781 C 97.050781 172.078125 97.027344 172.101562 97 172.101562 H 94 C 94.027344 172.101562 94.050781 172.078125 94.050781 172.050781 V 178.050781 C 94.050781 178.023438 94.027344 178 94 178 H 97 C 97.027344 178 97.050781 178.023438 97.050781 178.050781 V 184.050781 C 97.050781 184.078125 97.027344 184.101562 97 184.101562 H 94 C 94.027344 184.101562 94.050781 184.078125 94.050781 184.050781 V 194.050781 C 94.050781 194.078125 94.027344 194.101562 94 194.101562 H 94 L 86 194.101562 C 86.027344 194.101562 86.050781 194.078125 86.050781 194.050781 V 197.050781 C 86.050781 197.078125 86.027344 197.101562 86 197.101562 H 80 C 79.972656 197.101562 79.949219 197.078125 79.949219 197.050781 V 194.050781 C 79.949219 194.078125 79.972656 194.101562 80 194.101562 H 74 C 74.027344 194.101562 74.050781 194.078125 74.050781 194.050781 V 197.050781 C 74.050781 197.078125 74.027344 197.101562 74 197.101562 H 68 C 67.972656 197.101562 67.949219 197.078125 67.949219 197.050781 V 194.050781 C 67.949219 194.078125 67.972656 194.101562 68 194.101562 H 62 C 62.027344 194.101562 62.050781 194.078125 62.050781 194.050781 V 197.050781 C 62.050781 197.078125 62.027344 197.101562 62 197.101562 H 56 C 55.972656 197.101562 55.949219 197.078125 55.949219 197.050781 V 194.050781 C 55.949219 194.078125 55.972656 194.101562 56 194.101562 H 50 C 50.027344 194.101562 50.050781 194.078125 50.050781 194.050781 V 197.050781 C 50.050781 197.078125 50.027344 197.101562 50 197.101562 H 44 C 43.972656 197.101562 43.949219 197.078125 43.949219 197.050781 V 194.050781 C 43.949219 194.078125 43.972656 194.101562 44 194.101562 H 38 C 38.027344 194.101562 38.050781 194.078125 38.050781 194.050781 V 197.050781 C 38.050781 197.078125 38.027344 197.101562 38 197.101562 H 32 C 31.972656 197.101562 31.949219 197.078125 31.949219 197.050781 V 194.050781 C 31.949219 194.078125 31.972656 194.101562 32 194.101562 H 26 C 26.027344 194.101562 26.050781 194.078125 26.050781 194.050781 V 197.050781 C 26.050781 197.078125 26.027344 197.101562 26 197.101562 H 20 C 19.972656 197.101562 19.949219 197.078125 19.949219 197.050781 V 194.050781 C 19.949219 194.078125 19.972656 194.101562 20 194.101562 H 14 C 14.027344 194.101562 14.050781 194.078125 14.050781 194.050781 V 197.050781 C 14.050781 197.078125 14.027344 197.101562 14 197.101562 H 8 C 7.972656 197.101562 7.949219 197.078125 7.949219 197.050781 V 194.050781 C 7.949219 194.078125 7.972656 194.101562 8 194.101562 H -0.000000000000047518 C -0.0273438 194.101562 -0.0507813 194.078125 -0.0507813 194.050781 H -0.0507813 V 184.050781 C -0.0507813 184.078125 -0.0273438 184.101562 -0.000000000000045297 184.101562 H -3 C -3.027344 184.101562 -3.050781 184.078125 -3.050781 184.050781 V 178.050781 C -3.050781 178.023438 -3.027344 178 -3 178 H -0.000000000000043965 C -0.0273438 178 -0.0507813 178.023438 -0.0507813 178.050781 V 172.050781 C -0.0507813 172.078125 -0.0273438 172.101562 -0.000000000000042188 172.101562 H -3 C -3.027344 172.101562 -3.050781 172.078125 -3.050781 172.050781 V 166.050781 C -3.050781 166.023438 -3.027344 166 -3 166 H -0.000000000000040856 C -0.0273438 166 -0.0507813 166.023438 -0.0507813 166.050781 V 160.050781 C -0.0507813 160.078125 -0.0273438 160.101562 -0.000000000000039524 160.101562 H -3 C -3.027344 160.101562 -3.050781 160.078125 -3.050781 160.050781 V 154.050781 C -3.050781 154.023438 -3.027344 154 -3 154 H -0.000000000000037748 C -0.0273438 154 -0.0507813 154.023438 -0.0507813 154.050781 V 148.050781 C -0.0507813 148.078125 -0.0273438 148.101562 -0.000000000000036415 148.101562 H -3 C -3.027344 148.101562 -3.050781 148.078125 -3.050781 148.050781 V 142.050781 C -3.050781 142.023438 -3.027344 142 -3 142 H -0.000000000000035083 C -0.0273438 142 -0.0507813 142.023438 -0.0507813 142.050781 V 136.050781 C -0.0507813 136.078125 -0.0273438 136.101562 -0.000000000000033307 136.101562 H -3 C -3.027344 136.101562 -3.050781 136.078125 -3.050781 136.050781 V 130.050781 C -3.050781 130.023438 -3.027344 130 -3 130 H -0.000000000000031974 C -0.0273438 130 -0.0507813 130.023438 -0.0507813 130.050781 V 124.050781 C -0.0507813 124.078125 -0.0273438 124.101562 -0.000000000000030642 124.101562 H -3 C -3.027344 124.101562 -3.050781 124.078125 -3.050781 124.050781 V 118.050781 C -3.050781 118.023438 -3.027344 118 -3 118 H -0.000000000000028866 C -0.0273438 118 -0.0507813 118.023438 -0.0507813 118.050781 V 112.050781 C -0.0507813 112.078125 -0.0273438 112.101562 -0.000000000000027534 112.101562 H -3 C -3.027344 112.101562 -3.050781 112.078125 -3.050781 112.050781 V 106.050781 C -3.050781 106.023438 -3.027344 106 -3 106 H -0.000000000000026201 C -0.0273438 106 -0.0507813 106.023438 -0.0507813 106.050781 V 100.050781 C -0.0507813 100.078125 -0.0273438 100.101562 -0.000000000000024869 100.101562 H -3 C -3.027344 100.101562 -3.050781 100.078125 -3.050781 100.050781 V 94.050781 C -3.050781 94.023438 -3.027344 94 -3 94 H -0.000000000000023093 C -0.0273438 94 -0.0507813 94.023438 -0.0507813 94.050781 V 88.050781 C -0.0507813 88.078125 -0.0273438 88.101562 -0.00000000000002176 88.101562 H -3 C -3.027344 88.101562 -3.050781 88.078125 -3.050781 88.050781 V 82.050781 C -3.050781 82.023438 -3.027344 82 -3 82 H -0.000000000000020428 C -0.0273438 82 -0.0507813 82.023438 -0.0507813 82.050781 V 76.050781 C -0.0507813 76.078125 -0.0273438 76.101562 -0.000000000000018652 76.101562 H -3 C -3.027344 76.101562 -3.050781 76.078125 -3.050781 76.050781 V 70.050781 C -3.050781 70.023438 -3.027344 70 -3 70 H -0.000000000000017319 C -0.0273438 70 -0.0507813 70.023438 -0.0507813 70.050781 V 64.050781 C -0.0507813 64.078125 -0.0273438 64.101562 -0.000000000000015987 64.101562 H -3 C -3.027344 64.101562 -3.050781 64.078125 -3.050781 64.050781 V 58.050781 C -3.050781 58.023438 -3.027344 58 -3 58 H -0.000000000000014211 C -0.0273438 58 -0.0507813 58.023438 -0.0507813 58.050781 V 52.050781 C -0.0507813 52.078125 -0.0273438 52.101562 -0.000000000000012879 52.101562 H -3 C -3.027344 52.101562 -3.050781 52.078125 -3.050781 52.050781 V 46.050781 C -3.050781 46.023438 -3.027344 46 -3 46 H -0.000000000000011546 C -0.0273438 46 -0.0507813 46.023438 -0.0507813 46.050781 V 40.050781 C -0.0507813 40.078125 -0.0273438 40.101562 -0.00000000000000977 40.101562 H -3 C -3.027344 40.101562 -3.050781 40.078125 -3.050781 40.050781 V 34.050781 C -3.050781 34.023438 -3.027344 34 -3 34 H -0.000000000000008438 C -0.0273438 34 -0.0507813 34.023438 -0.0507813 34.050781 V 28.050781 C -0.0507813 28.078125 -0.0273438 28.101562 -0.000000000000007105 28.101562 H -3 C -3.027344 28.101562 -3.050781 28.078125 -3.050781 28.050781 V 22.050781 C -3.050781 22.023438 -3.027344 22 -3 22 H -0.000000000000005329 C -0.0273438 22 -0.0507813 22.023438 -0.0507813 22.050781 V 16.050781 C -0.0507813 16.078125 -0.0273438 16.101562 -0.000000000000003997 16.101562 H -3 C -3.027344 16.101562 -3.050781 16.078125 -3.050781 16.050781 V 10.050781 C -3.050781 10.023438 -3.027344 10 -3 10 H -0.000000000000002665 C -0.0273438 10 -0.0507813 10.023438 -0.0507813 10.050781 L -0.0507812 0.0507812 C -0.0507812 0.0234375 -0.0273438 0 0 0 H 0 " style="fill:none;stroke-width:0.1;stroke-linecap:butt;stroke-linejoin:miter;stroke:rgb(0%,0%,0%);stroke-opacity:1;stroke-miterlimit:10;" transform="matrix(1.0000,0.0000,0.0000,-1.0000,21.8750,408.6992)"/>
<path d="M 0 0 H 8 C 7.972656 0 7.949219 0.0234375 7.949219 0.0507812 V -2.949219 C 7.949219 -2.976562 7.972656 -3 8 -3 H 14 C 14.027344 -3 14.050781 -2.976562 14.050781 -2.949219 V 0.0507812 C 14.050781 0.0234375 14.027344 0 14 0 H 20 C 19.972656 0 19.949219 0.0234375 19.949219 0.0507812 V -2.949219 C 19.949219 -2.976562 19.972656 -3 20 -3 H 26 C 26.027344 -3 26.050781 -2.976562 26.050781 -2.949219 V 0.0507812 C 26.050781 0.0234375 26.027344 0 26 0 H 32 C 31.972656 0 31.949219 0.0234375 31.949219 0.0507812 V -2.949219 C 31.949219 -2.976562 31.972656 -3 32 -3 H 38 C 38.027344 -3 38.050781 -2.976562 38.050781 -2.949219 V 0.0507812 C 38.050781 0.0234375 38.027344 0 38 0 H 44 C 43.972656 0 43.949219 0.0234375 43.949219 0.0507812 V -2.949219 C 43.949219 -2.976562 43.972656 -3 44 -3 H 50 C 50.027344 -3 50.050781 -2.976562 50.050781 -2.949219 V 0.0507812 C 50.050781 0.0234375 50.027344 0 50 0 H 56 C 55.972656 0 55.949219 0.0234375 55.949219 0.0507812 V -2.949219 C 55.949219 -2.976562 55.972656 -3 56 -3 H 62 C 62.027344 -3 62.050781 -2.976562 62.050781 -2.949219 V 0.0507812 C 62.050781 0.0234375 62.027344 0 62 0 H 68 C 67.972656 0 67.949219 0.0234375 67.949219 0.0507812 V -2.949219 C 67.949219 -2.976562 67.972656 -3 68 -3 H 74 C 74.027344 -3 74.050781 -2.976562 74.050781 -2.949219 V 0.0507812 C 74.050781 0.0234375 74.027344 0 74 0 H 80 C 79.972656 0 79.949219 0.0234375 79.949219 0.0507812 V -2.949219 C 79.949219 -2.976562 79.972656 -3 80 -3 H 86 C 86.027344 -3 86.050781 -2.976562 86.050781 -2.949219 V 0.0507812 C 86.050781 0.0234375 86.027344 0 86 0 H 94 C 94.027344 0 94.050781 0.0234375 94.050781 0.0507812 H 94.050781 V 10.050781 C 94.050781 10.023438 94.027344 10 94 10 H 97 C 97.027344 10 97.050781 10.023438 97.050781 10.050781 V 16.050781 C 97.050781 16.078125 97.027344 16.101562 97 16.101562 H 94 C 94.027344 16.101562 94.050781 16.078125 94.050781 16.050781 V 22.050781 C 94.050781 22.023438 94.027344 22 94 22 H 97 C 97.027344 22 97.050781 22.023438 97.050781 22.050781 V 28.050781 C 97.050781 28.078125 97.027344 28.101562 97 28.101562 H 94 C 94.027344 28.101562 94.050781 28.078125 94.050781 28.050781 V 34.050781 C 94.050781 34.023438 94.027344 34 94 34 H 97 C 97.027344 34 97.050781 34.023438 97.050781 34.050781 V 40.050781 C 97.050781 40.078125 97.027344 40.101562 97 40.101562 H 94 C 94.027344 40.101562 94.050781 40.078125 94.050781 40.050781 V 46.050781 C 94.050781 46.023438 94.027344 46 94 46 H 97 C 97.027344 46 97.050781 46.023438 97.050781 46.050781 V 52.050781 C 97.050781 52.078125 97.027344 52.101562 97 52.101562 H 94 C 94.027344 52.101562 94.050781 52.078125 94.050781 52.050781 V 58.050781 C 94.050781 58.023438 94.027344 58 94 58 H 97 C 97.027344 58 97.050781 58.023438 97.050781 58.050781 V 64.050781 C 97.050781 64.078125 97.027344 64.101562 97 64.101562 H 94 C 94.027344 64.101562 94.050781 64.078125 94.050781 64.050781 V 70.050781 C 94.050781 70.023438 94.027344 70 94 70 H 97 C 97.027344 70 97.050781 70.023438 97.050781 70.050781 V 76.050781 C 97.050781 76.078125 97.027344 76.101562 97 76.101562 H 94 C 94.027344 76.101562 94.050781 76.078125 94.050781 76.050781 V 82.050781 C 94.050781 82.023438 94.027344 82 94 82 H 97 C 97.027344 82 97.050781 82.023438 97.050781 82.050781 V 88.050781 C 97.050781 88.078125 97.027344 88.101562 97 88.101562 H 94 C 94.027344 88.101562 94.050781 88.078125 94.050781 88.050781 V 94.050781 C 94.050781 94.023438 94.027344 94 94 94 H 97 C 97.027344 94 97.050781 94.023438 97.050781 94.050781 V 100.050781 C 97.050781 100.078125 97.027344 100.101562 97 100.101562 H 94 C 94.027344 100.101562 94.050781 100.078125 94.050781 100.050781 V 106.050781 C 94.050781 106.023438 94.027344 106 94 106 H 97 C 97.027344 106 97.050781 106.023438 97.050781 106.050781 V 112.050781 C 97.050781 112.078125 97.027344 112.101562 97 112.101562 H 94 C 94.027344 112.101562 94.050781 112.078125 94.050781 112.050781 V 118.050781 C 94.050781 118.023438 94.027344 118 94 118 H 97 C 97.027344 118 97.050781 118.023438 97.050781 118.050781 V 124.050781 C 97.050781 124.078125 97.027344 124.101562 97 124.101562 H 94 C 94.027344 124.101562 94.050781 124.078125 94.050781 124.050781 V 130.050781 C 94.050781 130.023438 94.027344 130 94 130 H 97 C 97.027344 130 97.050781 130.023438 97.050781 130.050781 V 136.050781 C 97.050781 136.078125 97.027344 136.101562 97 136.101562 H 94 C 94.027344 136.101562 94.050781 136.078125 94.050781 136.050781 V 142.050781 C 94.050781 142.023438 94.027344 142 94 142 H 97 C 97.027344 142 97.050781 142.023438 97.050781 142.050781 V 148.050781 C 97.050781 148.078125 97.027344 148.101562 97 148.101562 H 94 C 94.027344 148.101562 94.050781 148.078125 94.050781 148.050781 V 154.050781 C 94.050781 154.023438 94.027344 154 94 154 H 97 C 97.027344 154 97.050781 154.023438 97.050781 154.050781 V 160.050781 C 97.050781 160.078125 97.027344 160.101562 97 160.101562 H 94 C 94.027344 160.101562 94.050781 160.078125 94.050781 160.050781 V 166.050781 C 94.050781 166.023438 94.027344 166 94 166 H 97 C 97.027344 166 97.050781 166.023438 97.050781 166.050781 V 172.050781 C 97.050781 172.078125 97.027344 172.101562 97 172.101562 H 94 C 94.027344 172.101562 94.050781 172.078125 94.050781 172.050781 V 178.050781 C 94.050781 178.023438 94.027344 178 94 178 H 97 C 97.027344 178 97.050781 178.023438 97.050781 178.050781 V 184.050781 C 97.050781 184.078125 97.027344 184.101562 97 184.101562 H 94 C 94.027344 184.101562 94.050781 184.078125 94.050781 184.050781 V 194.050781 C 94.050781 194.078125 94.027344 194.101562 94 194.101562 H 94 L 86 194.101562 C 86.027344 194.101562 86.050781 194.078125 86.050781 194.050781 V 197.050781 C 86.050781 197.078125 86.027344 197.101562 86 197.101562 H 80 C 79.972656 197.101562 79.949219 197.078125 79.949219 197.050781 V 194.050781 C 79.949219 194.078125 79.972656 194.101562 80 194.101562 H 74 C 74.027344 194.101562 74.050781 194.078125 74.050781 194.050781 V 197.050781 C 74.050781 197.078125 74.027344 197.101562 74 197.101562 H 68 C 67.972656 197.101562 67.949219 197.078125 67.949219 197.050781 V 194.050781 C 67.949219 194.078125 67.972656 194.101562 68 194.101562 H 62 C 62.027344 194.101562 62.050781 194.078125 62.050781 194.050781 V 197.050781 C 62.050781 197.078125 62.027344 197.101562 62 197.101562 H 56 C 55.972656 197.101562 55.949219 197.078125 55.949219 197.050781 V 194.050781 C 55.949219 194.078125 55.972656 194.101562 56 194.101562 H 50 C 50.027344 194.101562 50.050781 194.078125 50.050781 194.050781 V 197.050781 C 50.050781 197.078125 50.027344 197.101562 50 197.101562 H 44 C 43.972656 197.101562 43.949219 197.078125 43.949219 197.050781 V 194.050781 C 43.949219 194.078125 43.972656 194.101562 44 194.101562 H 38 C 38.027344 194.101562 38.050781 194.078125 38.050781 194.050781 V 197.050781 C 38.050781 197.078125 38.027344 197.101562 38 197.101562 H 32 C 31.972656 197.101562 31.949219 197.078125 31.949219 197.050781 V 194.050781 C 31.949219 194.078125 31.972656 194.101562 32 194.101562 H 26 C 26.027344 194.101562 26.050781 194.078125 26.050781 194.050781 V 197.050781 C 26.050781 197.078125 26.027344 197.101562 26 197.101562 H 20 C 19.972656 197.101562 19.949219 197.078125 19.949219 197.050781 V 194.050781 C 19.949219 194.078125 19.972656 194.101562 20 194.101562 H 14 C 14.027344 194.101562 14.050781 194.078125 14.050781 194.050781 V 197.050781 C 14.050781 197.078125 14.027344 197.101562 14 197.101562 H 8 C 7.972656 197.101562 7.949219 197.078125 7.949219 197.050781 V 194.050781 C 7.949219 194.078125 7.972656 194.101562 8 194.101562 H -0.000000000000047518 C -0.0273438 194.101562 -0.0507813 194.078125 -0.0507813 194.050781 H -0.0507813 V 184.050781 C -0.0507813 184.078125 -0.0273438 184.101562 -0.000000000000044853 184.101562 H -3 C -3.027344 184.101562 -3.050781 184.078125 -3.050781 184.050781 V 178.050781 C -3.050781 178.023438 -3.027344 178 -3 178 H -0.000000000000043521 C -0.0273438 178 -0.0507813 178.023438 -0.0507813 178.050781 V 172.050781 C -0.0507813 172.078125 -0.0273438 172.101562 -0.000000000000041744 172.101562 H -3 C -3.027344 172.101562 -3.050781 172.078125 -3.050781 172.050781 V 166.050781 C -3.050781 166.023438 -3.027344 166 -3 166 H -0.000000000000040412 C -0.0273438 166 -0.0507813 166.023438 -0.0507813 166.050781 V 160.050781 C -0.0507813 160.078125 -0.0273438 160.101562 -0.00000000000003908 160.101562 H -3 C -3.027344 160.101562 -3.050781 160.078125 -3.050781 160.050781 V 154.050781 C -3.050781 154.023438 -3.027344 154 -3 154 H -0.000000000000037303 C -0.0273438 154 -0.0507813 154.023438 -0.0507813 154.050781 V 148.050781 C -0.0507813 148.078125 -0.0273438 148.101562 -0.000000000000035971 148.101562 H -3 C -3.027344 148.101562 -3.050781 148.078125 -3.050781 148.050781 V 142.050781 C -3.050781 142.023438 -3.027344 142 -3 142 H -0.000000000000034639 C -0.0273438 142 -0.0507813 142.023438 -0.0507813 142.050781 V 136.050781 C -0.0507813 136.078125 -0.0273438 136.101562 -0.000000000000033307 136.101562 H -3 C -3.027344 136.101562 -3.050781 136.078125 -3.050781 136.050781 V 130.050781 C -3.050781 130.023438 -3.027344 130 -3 130 H -0.00000000000003153 C -0.0273438 130 -0.0507813 130.023438 -0.0507813 130.050781 V 124.050781 C -0.0507813 124.078125 -0.0273438 124.101562 -0.000000000000030198 124.101562 H -3 C -3.027344 124.101562 -3.050781 124.078125 -3.050781 124.050781 V 118.050781 C -3.050781 118.023438 -3.027344 118 -3 118 H -0.000000000000028866 C -0.0273438 118 -0.0507813 118.023438 -0.0507813 118.050781 V 112.050781 C -0.0507813 112.078125 -0.0273438 112.101562 -0.000000000000027089 112.101562 H -3 C -3.027344 112.101562 -3.050781 112.078125 -3.050781 112.050781 V 106.050781 C -3.050781 106.023438 -3.027344 106 -3 106 H -0.000000000000025757 C -0.0273438 106 -0.0507813 106.023438 -0.0507813 106.050781 V 100.050781 C -0.0507813 100.078125 -0.0273438 100.101562 -0.000000000000024425 100.101562 H -3 C -3.027344 100.101562 -3.050781 100.078125 -3.050781 100.050781 V 94.050781 C -3.050781 94.023438 -3.027344 94 -3 94 H -0.000000000000022649 C -0.0273438 94 -0.0507813 94.023438 -0.0507813 94.050781 V 88.050781 C -0.0507813 88.078125 -0.0273438 88.101562 -0.000000000000021316 88.101562 H -3 C -3.027344 88.101562 -3.050781 88.078125 -3.050781 88.050781 V 82.050781 C -3.050781 82.023438 -3.027344 82 -3 82 H -0.000000000000019984 C -0.0273438 82 -0.0507813 82.023438 -0.0507813 82.050781 V 76.050781 C -0.0507813 76.078125 -0.0273438 76.101562 -0.000000000000018652 76.101562 H -3 C -3.027344 76.101562 -3.050781 76.078125 -3.050781 76.050781 V 70.050781 C -3.050781 70.023438 -3.027344 70 -3 70 H -0.000000000000016875 C -0.0273438 70 -0.0507813 70.023438 -0.0507813 70.050781 V 64.050781 C -0.0507813 64.078125 -0.0273438 64.101562 -0.000000000000015543 64.101562 H -3 C -3.027344 64.101562 -3.050781 64.078125 -3.050781 64.050781 V 58.050781 C -3.050781 58.023438 -3.027344 58 -3 58 H -0.000000000000014211 C -0.0273438 58 -0.0507813 58.023438 -0.0507813 58.050781 V 52.050781 C -0.0507813 52.078125 -0.0273438 52.101562 -0.000000000000012434 52.101562 H -3 C -3.027344 52.101562 -3.050781 52.078125 -3.050781 52.050781 V 46.050781 C -3.050781 46.023438 -3.027344 46 -3 46 H -0.000000000000011102 C -0.0273438 46 -0.0507813 46.023438 -0.0507813 46.050781 V 40.050781 C -0.0507813 40.078125 -0.0273438 40.101562 -0.00000000000000977 40.101562 H -3 C -3.027344 40.101562 -3.050781 40.078125 -3.050781 40.050781 V 34.050781 C -3.050781 34.023438 -3.027344 34 -3 34 H -0.000000000000007994 C -0.0273438 34 -0.0507813 34.023438 -0.0507813 34.050781 V 28.050781 C -0.0507813 28.078125 -0.0273438 28.101562 -0.000000000000006661 28.101562 H -3 C -3.027344 28.101562 -3.050781 28.078125 -3.050781 28.050781 V 22.050781 C -3.050781 22.023438 -3.027344 22 -3 22 H -0.000000000000005329 C -0.0273438 22 -0.0507813 22.023438 -0.0507813 22.050781 V 16.050781 C -0.0507813 16.078125 -0.0273438 16.101562 -0.000000000000003553 16.101562 H -3 C -3.027344 16.101562 -3.050781 16.078125 -3.050781 16.050781 V 10.050781 C -3.050781 10.023438 -3.027344 10 -3 10 H -0.00000000000000222 C -0.0273438 10 -0.0507813 10.023438 -0.0507813 10.050781 L -0.0507812 0.0507812 C -0.0507812 0.0234375 -0.0273438 0 0 0 H 0 " style="fill:none;stroke-width:0.1;stroke-linecap:butt;stroke-linejoin:miter;stroke:rgb(0%,0%,0%);stroke-opacity:1;stroke-miterlimit:10;" transform="matrix(1.0000,0.0000,0.0000,-1.0000,21.8750,207.1016)"/>
</g>
</svg>