<svg xmlns="http://www.w3.org/2000/svg" height="420mm" version="1.1" viewBox="0 -10 550 420" width="550mm">
<!--
NotesHolder - 
Created with Boxes.py (https://festi.info/boxes.py)
Creation date: 2019-11-05 15:54:50
Command line (remove spaces beteen dashes): boxes NotesHolder - -FingerJoint_angle=90.0 - -FingerJoint_style=rectangular - -FingerJoint_surroundingspaces=1 - -FingerJoint_edge_width=1.0 - -FingerJoint_finger=2.0 - -FingerJoint_play=0.0 - -FingerJoint_space=2.0 - -FingerJoint_width=1.0 - -Stackable_angle=60 - -Stackable_height=2.0 - -Stackable_holedistance=1.0 - -Stackable_width=4.0 - -x=255 - -y=255 - -h=50 - -bottom_edge=s - -opening=40 - -thickness=3.0 - -format=svg - -tabs=0.0 - -debug=0 - -reference=0 - -burn=0.05
Url: http://localhost:8008/NotesHolder?FingerJoint_angle=90.0&FingerJoint_style=rectangular&FingerJoint_surroundingspaces=1&FingerJoint_edge_width=1.0&FingerJoint_finger=2.0&FingerJoint_play=0.0&FingerJoint_space=2.0&FingerJoint_width=1.0&Stackable_angle=60&Stackable_height=2.0&Stackable_holedistance=1.0&Stackable_width=4.0&x=255&y=255&h=50&bottom_edge=s&opening=40&thickness=3.0&format=svg&tabs=0.0&debug=0&reference=0&burn=0.05&render=1
SettingsUrl: http://localhost:8008/NotesHolder?FingerJoint_angle=90.0&FingerJoint_style=rectangular&FingerJoint_surroundingspaces=1&FingerJoint_edge_width=1.0&FingerJoint_finger=2.0&FingerJoint_play=0.0&FingerJoint_space=2.0&FingerJoint_width=1.0&Stackable_angle=60&Stackable_height=2.0&Stackable_holedistance=1.0&Stackable_width=4.0&x=255&y=255&h=50&bottom_edge=s&opening=40&thickness=3.0&format=svg&tabs=0.0&debug=0&reference=0&burn=0.05
--><g id="surface5269">
<path d="M 0 0 C -0.0273438 0 -0.0507812 0.0234375 -0.0507812 0.0507812 V -2.949219 C -0.0507812 -2.921875 -0.0273438 -2.898438 0 -2.898438 H -6 C -5.972656 -2.898438 -5.949219 -2.921875 -5.949219 -2.949219 V 0.0507812 C -5.949219 0.0234375 -5.972656 0 -6 0 H 0 " style="fill:none;stroke-width:0.1;stroke-linecap:butt;stroke-linejoin:miter;stroke:rgb(0%,0%,100%);stroke-opacity:1;stroke-miterlimit:10;" transform="matrix(-1.0000,0.0000,0.0000,1.0000,17.5469,389.2500)"/>
<path d="M 0 0 C -0.0273438 0 -0.0507812 0.0234375 -0.0507812 0.0507812 V -2.949219 C -0.0507812 -2.921875 -0.0273438 -2.898438 0 -2.898438 H -6 C -5.972656 -2.898438 -5.949219 -2.921875 -5.949219 -2.949219 V 0.0507812 C -5.949219 0.0234375 -5.972656 0 -6 0 H 0 " style="fill:none;stroke-width:0.1;stroke-linecap:butt;stroke-linejoin:miter;stroke:rgb(0%,0%,100%);stroke-opacity:1;stroke-miterlimit:10;" transform="matrix(-1.0000,0.0000,0.0000,1.0000,29.5469,389.2500)"/>
<path d="M 0 0 C -0.0273438 0 -0.0507812 0.0234375 -0.0507812 0.0507812 V -2.949219 C -0.0507812 -2.921875 -0.0273438 -2.898438 0 -2.898438 H -6 C -5.972656 -2.898438 -5.949219 -2.921875 -5.949219 -2.949219 V 0.0507812 C -5.949219 0.0234375 -5.972656 0 -6 0 H 0 " style="fill:none;stroke-width:0.1;stroke-linecap:butt;stroke-linejoin:miter;stroke:rgb(0%,0%,100%);stroke-opacity:1;stroke-miterlimit:10;" transform="matrix(-1.0000,0.0000,0.0000,1.0000,41.5469,389.2500)"/>
<path d="M 0 0 C -0.0273438 0 -0.0507812 0.0234375 -0.0507812 0.0507812 V -2.949219 C -0.0507812 -2.921875 -0.0273438 -2.898438 0 -2.898438 H -6 C -5.972656 -2.898438 -5.949219 -2.921875 -5.949219 -2.949219 V 0.0507812 C -5.949219 0.0234375 -5.972656 0 -6 0 H 0 " style="fill:none;stroke-width:0.1;stroke-linecap:butt;stroke-linejoin:miter;stroke:rgb(0%,0%,100%);stroke-opacity:1;stroke-miterlimit:10;" transform="matrix(-1.0000,0.0000,0.0000,1.0000,53.5469,389.2500)"/>
<path d="M 0 0 C -0.0273438 0 -0.0507812 0.0234375 -0.0507812 0.0507812 V -2.949219 C -0.0507812 -2.921875 -0.0273438 -2.898438 0 -2.898438 H -6 C -5.972656 -2.898438 -5.949219 -2.921875 -5.949219 -2.949219 V 0.0507812 C -5.949219 0.0234375 -5.972656 0 -6 0 H 0 " style="fill:none;stroke-width:0.1;stroke-linecap:butt;stroke-linejoin:miter;stroke:rgb(0%,0%,100%);stroke-opacity:1;stroke-miterlimit:10;" transform="matrix(-1.0000,0.0000,0.0000,1.0000,65.5469,389.2500)"/>
<path d="M 0 0 C -0.0273438 0 -0.0507812 0.0234375 -0.0507812 0.0507812 V -2.949219 C -0.0507812 -2.921875 -0.0273438 -2.898438 0 -2.898438 H -6 C -5.972656 -2.898438 -5.949219 -2.921875 -5.949219 -2.949219 V 0.0507812 C -5.949219 0.0234375 -5.972656 0 -6 0 H 0 " style="fill:none;stroke-width:0.1;stroke-linecap:butt;stroke-linejoin:miter;stroke:rgb(0%,0%,100%);stroke-opacity:1;stroke-miterlimit:10;" transform="matrix(-1.0000,0.0000,0.0000,1.0000,77.5469,389.2500)"/>
<path d="M 0 0 C -0.0273438 0 -0.0507812 0.0234375 -0.0507812 0.0507812 V -2.949219 C -0.0507812 -2.921875 -0.0273438 -2.898438 0 -2.898438 H -6 C -5.972656 -2.898438 -5.949219 -2.921875 -5.949219 -2.949219 V 0.0507812 C -5.949219 0.0234375 -5.972656 0 -6 0 H 0 " style="fill:none;stroke-width:0.1;stroke-linecap:butt;stroke-linejoin:miter;stroke:rgb(0%,0%,100%);stroke-opacity:1;stroke-miterlimit:10;" transform="matrix(-1.0000,0.0000,0.0000,1.0000,89.5469,389.2500)"/>
<path d="M 0 0 C -0.0273438 0 -0.0507812 0.0234375 -0.0507812 0.0507812 V -2.949219 C -0.0507812 -2.921875 -0.0273438 -2.898438 0 -2.898438 H -6 C -5.972656 -2.898438 -5.949219 -2.921875 -5.949219 -2.949219 V 0.0507812 C -5.949219 0.0234375 -5.972656 0 -6 0 H 0 " style="fill:none;stroke-width:0.1;stroke-linecap:butt;stroke-linejoin:miter;stroke:rgb(0%,0%,100%);stroke-opacity:1;stroke-miterlimit:10;" transform="matrix(-1.0000,0.0000,0.0000,1.0000,101.5469,389.2500)"/>
<path d="M 0 0 C -0.0273438 0 -0.0507812 0.0234375 -0.0507812 0.0507812 V -2.949219 C -0.0507812 -2.921875 -0.0273438 -2.898438 0 -2.898438 H -6 C -5.972656 -2.898438 -5.949219 -2.921875 -5.949219 -2.949219 V 0.0507812 C -5.949219 0.0234375 -5.972656 0 -6 0 H 0 " style="fill:none;stroke-width:0.1;stroke-linecap:butt;stroke-linejoin:miter;stroke:rgb(0%,0%,100%);stroke-opacity:1;stroke-miterlimit:10;" transform="matrix(-1.0000,0.0000,0.0000,1.0000,113.5469,389.2500)"/>
<path d="M 0 0 C -0.0273438 0 -0.0507812 0.0234375 -0.0507812 0.0507812 V -2.949219 C -0.0507812 -2.921875 -0.0273438 -2.898438 0 -2.898438 H -6 C -5.972656 -2.898438 -5.949219 -2.921875 -5.949219 -2.949219 V 0.0507812 C -5.949219 0.0234375 -5.972656 0 -6 0 H 0 " style="fill:none;stroke-width:0.1;stroke-linecap:butt;stroke-linejoin:miter;stroke:rgb(0%,0%,100%);stroke-opacity:1;stroke-miterlimit:10;" transform="matrix(-1.0000,0.0000,0.0000,1.0000,125.5469,389.2500)"/>
<path d="M 0 0 C -0.0273438 0 -0.0507812 0.0234375 -0.0507812 0.0507812 V -2.949219 C -0.0507812 -2.921875 -0.0273438 -2.898438 0 -2.898438 H -6 C -5.972656 -2.898438 -5.949219 -2.921875 -5.949219 -2.949219 V 0.0507812 C -5.949219 0.0234375 -5.972656 0 -6 0 H 0 " style="fill:none;stroke-width:0.1;stroke-linecap:butt;stroke-linejoin:miter;stroke:rgb(0%,0%,100%);stroke-opacity:1;stroke-miterlimit:10;" transform="matrix(-1.0000,0.0000,0.0000,1.0000,137.5469,389.2500)"/>
<path d="M 0 0 C -0.0273438 0 -0.0507812 0.0234375 -0.0507812 0.0507812 V -2.949219 C -0.0507812 -2.921875 -0.0273438 -2.898438 0 -2.898438 H -6 C -5.972656 -2.898438 -5.949219 -2.921875 -5.949219 -2.949219 V 0.0507812 C -5.949219 0.0234375 -5.972656 0 -6 0 H 0 " style="fill:none;stroke-width:0.1;stroke-linecap:butt;stroke-linejoin:miter;stroke:rgb(0%,0%,100%);stroke-opacity:1;stroke-miterlimit:10;" transform="matrix(-1.0000,0.0000,0.0000,1.0000,149.5469,389.2500)"/>
<path d="M 0 0 C -0.0273438 0 -0.0507812 0.0234375 -0.0507812 0.0507812 V -2.949219 C -0.0507812 -2.921875 -0.0273438 -2.898438 0 -2.898438 H -6 C -5.972656 -2.898438 -5.949219 -2.921875 -5.949219 -2.949219 V 0.0507812 C -5.949219 0.0234375 -5.972656 0 -6 0 H 0 " style="fill:none;stroke-width:0.1;stroke-linecap:butt;stroke-linejoin:miter;stroke:rgb(0%,0%,100%);stroke-opacity:1;stroke-miterlimit:10;" transform="matrix(-1.0000,0.0000,0.0000,1.0000,161.5469,389.2500)"/>
<path d="M 0 0 C -0.0273438 0 -0.0507812 0.0234375 -0.0507812 0.0507812 V -2.949219 C -0.0507812 -2.921875 -0.0273438 -2.898438 0 -2.898438 H -6 C -5.972656 -2.898438 -5.949219 -2.921875 -5.949219 -2.949219 V 0.0507812 C -5.949219 0.0234375 -5.972656 0 -6 0 H 0 " style="fill:none;stroke-width:0.1;stroke-linecap:butt;stroke-linejoin:miter;stroke:rgb(0%,0%,100%);stroke-opacity:1;stroke-miterlimit:10;" transform="matrix(-1.0000,0.0000,0.0000,1.0000,173.5469,389.2500)"/>
<path d="M 0 0 C -0.0273438 0 -0.0507812 0.0234375 -0.0507812 0.0507812 V -2.949219 C -0.0507812 -2.921875 -0.0273438 -2.898438 0 -2.898438 H -6 C -5.972656 -2.898438 -5.949219 -2.921875 -5.949219 -2.949219 V 0.0507812 C -5.949219 0.0234375 -5.972656 0 -6 0 H 0 " style="fill:none;stroke-width:0.1;stroke-linecap:butt;stroke-linejoin:miter;stroke:rgb(0%,0%,100%);stroke-opacity:1;stroke-miterlimit:10;" transform="matrix(-1.0000,0.0000,0.0000,1.0000,185.5469,389.2500)"/>
<path d="M 0 0 C -0.0273438 0 -0.0507812 0.0234375 -0.0507812 0.0507812 V -2.949219 C -0.0507812 -2.921875 -0.0273438 -2.898438 0 -2.898438 H -6 C -5.972656 -2.898438 -5.949219 -2.921875 -5.949219 -2.949219 V 0.0507812 C -5.949219 0.0234375 -5.972656 0 -6 0 H 0 " style="fill:none;stroke-width:0.1;stroke-linecap:butt;stroke-linejoin:miter;stroke:rgb(0%,0%,100%);stroke-opacity:1;stroke-miterlimit:10;" transform="matrix(-1.0000,0.0000,0.0000,1.0000,197.5469,389.2500)"/>
<path d="M 0 0 C -0.0273438 0 -0.0507812 0.0234375 -0.0507812 0.0507812 V -2.949219 C -0.0507812 -2.921875 -0.0273438 -2.898438 0 -2.898438 H -6 C -5.972656 -2.898438 -5.949219 -2.921875 -5.949219 -2.949219 V 0.0507812 C -5.949219 0.0234375 -5.972656 0 -6 0 H 0 " style="fill:none;stroke-width:0.1;stroke-linecap:butt;stroke-linejoin:miter;stroke:rgb(0%,0%,100%);stroke-opacity:1;stroke-miterlimit:10;" transform="matrix(-1.0000,0.0000,0.0000,1.0000,209.5469,389.2500)"/>
<path d="M 0 0 C -0.0273438 0 -0.0507812 0.0234375 -0.0507812 0.0507812 V -2.949219 C -0.0507812 -2.921875 -0.0273438 -2.898438 0 -2.898438 H -6 C -5.972656 -2.898438 -5.949219 -2.921875 -5.949219 -2.949219 V 0.0507812 C -5.949219 0.0234375 -5.972656 0 -6 0 H 0 " style="fill:none;stroke-width:0.1;stroke-linecap:butt;stroke-linejoin:miter;stroke:rgb(0%,0%,100%);stroke-opacity:1;stroke-miterlimit:10;" transform="matrix(-1.0000,0.0000,0.0000,1.0000,221.5469,389.2500)"/>
<path d="M 0 0 C -0.0273438 0 -0.0507812 0.0234375 -0.0507812 0.0507812 V -2.949219 C -0.0507812 -2.921875 -0.0273438 -2.898438 0 -2.898438 H -6 C -5.972656 -2.898438 -5.949219 -2.921875 -5.949219 -2.949219 V 0.0507812 C -5.949219 0.0234375 -5.972656 0 -6 0 H 0 " style="fill:none;stroke-width:0.1;stroke-linecap:butt;stroke-linejoin:miter;stroke:rgb(0%,0%,100%);stroke-opacity:1;stroke-miterlimit:10;" transform="matrix(-1.0000,0.0000,0.0000,1.0000,233.5469,389.2500)"/>
<path d="M 0 0 C -0.0273438 0 -0.0507812 0.0234375 -0.0507812 0.0507812 V -2.949219 C -0.0507812 -2.921875 -0.0273438 -2.898438 0 -2.898438 H -6 C -5.972656 -2.898438 -5.949219 -2.921875 -5.949219 -2.949219 V 0.0507812 C -5.949219 0.0234375 -5.972656 0 -6 0 H 0 " style="fill:none;stroke-width:0.1;stroke-linecap:butt;stroke-linejoin:miter;stroke:rgb(0%,0%,100%);stroke-opacity:1;stroke-miterlimit:10;" transform="matrix(-1.0000,0.0000,0.0000,1.0000,245.5469,389.2500)"/>
<path d="M 0 0 C -0.0273438 0 -0.0507812 0.0234375 -0.0507812 0.0507812 V -2.949219 C -0.0507812 -2.921875 -0.0273438 -2.898438 0 -2.898438 H -6 C -5.972656 -2.898438 -5.949219 -2.921875 -5.949219 -2.949219 V 0.0507812 C -5.949219 0.0234375 -5.972656 0 -6 0 H 0 " style="fill:none;stroke-width:0.1;stroke-linecap:butt;stroke-linejoin:miter;stroke:rgb(0%,0%,100%);stroke-opacity:1;stroke-miterlimit:10;" transform="matrix(-1.0000,0.0000,0.0000,1.0000,257.5469,389.2500)"/>
<path d="M -0.00390625 0 H 11.996094 C 13.058594 0 14.101563 0.28125 15.019531 0.808594 C 15.9375 1.339844 16.703125 2.101562 17.234375 3.023438 C 17.757813 3.929688 18.507813 4.679688 19.414063 5.203125 C 20.320313 5.726562 21.34375 6 22.390625 6 H 232.605469 C 233.648438 6 234.675781 5.726562 235.582031 5.203125 C 236.488281 4.679688 237.238281 3.929688 237.761719 3.023438 C 238.292969 2.105469 239.054688 1.339844 239.976563 0.808594 C 240.894531 0.277344 241.941406 0 243 0 H 255 L 258 0 C 258.027344 0 258.050781 0.0234375 258.050781 0.0507812 V 12.050781 L 258.050781 16.050781 C 258.050781 16.078125 258.027344 16.101562 258 16.101562 H 255 C 255.027344 16.101562 255.050781 16.078125 255.050781 16.050781 V 22.050781 C 255.050781 22.023438 255.027344 22 255 22 H 258 C 258.027344 22 258.050781 22.023438 258.050781 22.050781 V 28.050781 C 258.050781 28.078125 258.027344 28.101562 258 28.101562 H 255 C 255.027344 28.101562 255.050781 28.078125 255.050781 28.050781 V 34.050781 C 255.050781 34.023438 255.027344 34 255 34 H 258 C 258.027344 34 258.050781 34.023438 258.050781 34.050781 V 40.050781 C 258.050781 40.078125 258.027344 40.101562 258 40.101562 H 255 C 255.027344 40.101562 255.050781 40.078125 255.050781 40.050781 V 46.050781 C 255.050781 46.023438 255.027344 46 255 46 H 258 C 258.027344 46 258.050781 46.023438 258.050781 46.050781 V 52.050781 C 258.050781 52.078125 258.027344 52.101562 258 52.101562 H 255 C 255.027344 52.101562 255.050781 52.078125 255.050781 52.050781 V 58.050781 C 255.050781 58.023438 255.027344 58 255 58 H 258 C 258.027344 58 258.050781 58.023438 258.050781 58.050781 V 62.050781 C 258.050781 62.078125 258.027344 62.101562 258 62.101562 H 255 L -0.000000000000015099 62.101562 H -3 C -3.027344 62.101562 -3.050781 62.078125 -3.050781 62.050781 H -3.050781 V 58.050781 C -3.050781 58.023438 -3.027344 58 -3 58 H -0.000000000000014211 C -0.0273438 58 -0.0507813 58.023438 -0.0507813 58.050781 V 52.050781 C -0.0507813 52.078125 -0.0273438 52.101562 -0.000000000000012879 52.101562 H -3 C -3.027344 52.101562 -3.050781 52.078125 -3.050781 52.050781 V 46.050781 C -3.050781 46.023438 -3.027344 46 -3 46 H -0.000000000000011102 C -0.0273438 46 -0.0507813 46.023438 -0.0507813 46.050781 V 40.050781 C -0.0507813 40.078125 -0.0273438 40.101562 -0.00000000000000977 40.101562 H -3 C -3.027344 40.101562 -3.050781 40.078125 -3.050781 40.050781 V 34.050781 C -3.050781 34.023438 -3.027344 34 -3 34 H -0.000000000000008438 C -0.0273438 34 -0.0507813 34.023438 -0.0507813 34.050781 V 28.050781 C -0.0507813 28.078125 -0.0273438 28.101562 -0.000000000000007105 28.101562 H -3 C -3.027344 28.101562 -3.050781 28.078125 -3.050781 28.050781 V 22.050781 C -3.050781 22.023438 -3.027344 22 -3 22 H -0.000000000000005329 C -0.0273438 22 -0.0507813 22.023438 -0.0507813 22.050781 V 16.050781 C -0.0507813 16.078125 -0.0273438 16.101562 -0.000000000000003997 16.101562 H -3 C -3.027344 16.101562 -3.050781 16.078125 -3.050781 16.050781 V 12.050781 L -3.050781 0.0507812 C -3.050781 0.0234375 -3.027344 0 -3 0 H 0 " style="fill:none;stroke-width:0.1;stroke-linecap:butt;stroke-linejoin:miter;stroke:rgb(0%,0%,0%);stroke-opacity:1;stroke-miterlimit:10;" transform="matrix(1.0000,0.0000,0.0000,-1.0000,13.0508,398.3008)"/>
<path d="M 0 0 C -0.0273438 0 -0.0507812 0.0234375 -0.0507812 0.0507812 V -2.949219 C -0.0507812 -2.921875 -0.0273438 -2.898438 0 -2.898438 H -6 C -5.972656 -2.898438 -5.949219 -2.921875 -5.949219 -2.949219 V 0.0507812 C -5.949219 0.0234375 -5.972656 0 -6 0 H 0 " style="fill:none;stroke-width:0.1;stroke-linecap:butt;stroke-linejoin:miter;stroke:rgb(0%,0%,100%);stroke-opacity:1;stroke-miterlimit:10;" transform="matrix(-1.0000,0.0000,0.0000,1.0000,280.8945,389.2500)"/>
<path d="M 0 0 C -0.0273438 0 -0.0507812 0.0234375 -0.0507812 0.0507812 V -2.949219 C -0.0507812 -2.921875 -0.0273438 -2.898438 0 -2.898438 H -6 C -5.972656 -2.898438 -5.949219 -2.921875 -5.949219 -2.949219 V 0.0507812 C -5.949219 0.0234375 -5.972656 0 -6 0 H 0 " style="fill:none;stroke-width:0.1;stroke-linecap:butt;stroke-linejoin:miter;stroke:rgb(0%,0%,100%);stroke-opacity:1;stroke-miterlimit:10;" transform="matrix(-1.0000,0.0000,0.0000,1.0000,292.8945,389.2500)"/>
<path d="M 0 0 C -0.0273438 0 -0.0507812 0.0234375 -0.0507812 0.0507812 V -2.949219 C -0.0507812 -2.921875 -0.0273438 -2.898438 0 -2.898438 H -6 C -5.972656 -2.898438 -5.949219 -2.921875 -5.949219 -2.949219 V 0.0507812 C -5.949219 0.0234375 -5.972656 0 -6 0 H 0 " style="fill:none;stroke-width:0.1;stroke-linecap:butt;stroke-linejoin:miter;stroke:rgb(0%,0%,100%);stroke-opacity:1;stroke-miterlimit:10;" transform="matrix(-1.0000,0.0000,0.0000,1.0000,304.8945,389.2500)"/>
<path d="M 0 0 C -0.0273438 0 -0.0507812 0.0234375 -0.0507812 0.0507812 V -2.949219 C -0.0507812 -2.921875 -0.0273438 -2.898438 0 -2.898438 H -6 C -5.972656 -2.898438 -5.949219 -2.921875 -5.949219 -2.949219 V 0.0507812 C -5.949219 0.0234375 -5.972656 0 -6 0 H 0 " style="fill:none;stroke-width:0.1;stroke-linecap:butt;stroke-linejoin:miter;stroke:rgb(0%,0%,100%);stroke-opacity:1;stroke-miterlimit:10;" transform="matrix(-1.0000,0.0000,0.0000,1.0000,316.8945,389.2500)"/>
<path d="M 0 0 C -0.0273438 0 -0.0507812 0.0234375 -0.0507812 0.0507812 V -2.949219 C -0.0507812 -2.921875 -0.0273438 -2.898438 0 -2.898438 H -6 C -5.972656 -2.898438 -5.949219 -2.921875 -5.949219 -2.949219 V 0.0507812 C -5.949219 0.0234375 -5.972656 0 -6 0 H 0 " style="fill:none;stroke-width:0.1;stroke-linecap:butt;stroke-linejoin:miter;stroke:rgb(0%,0%,100%);stroke-opacity:1;stroke-miterlimit:10;" transform="matrix(-1.0000,0.0000,0.0000,1.0000,328.8945,389.2500)"/>
<path d="M 0 0 C -0.0273438 0 -0.0507812 0.0234375 -0.0507812 0.0507812 V -2.949219 C -0.0507812 -2.921875 -0.0273438 -2.898438 0 -2.898438 H -6 C -5.972656 -2.898438 -5.949219 -2.921875 -5.949219 -2.949219 V 0.0507812 C -5.949219 0.0234375 -5.972656 0 -6 0 H 0 " style="fill:none;stroke-width:0.1;stroke-linecap:butt;stroke-linejoin:miter;stroke:rgb(0%,0%,100%);stroke-opacity:1;stroke-miterlimit:10;" transform="matrix(-1.0000,0.0000,0.0000,1.0000,340.8945,389.2500)"/>
<path d="M -0.00390625 0 H 11.996094 C 13.058594 0 14.101562 0.28125 15.019531 0.808594 C 15.9375 1.339844 16.703125 2.101562 17.234375 3.023438 C 17.757812 3.929688 18.507812 4.679688 19.414062 5.203125 C 20.320312 5.726562 21.34375 6 22.390625 6 H 76.5 C 76.527344 6 76.550781 6.023438 76.550781 6.050781 V 12.050781 L 76.550781 62.050781 C 76.550781 62.078125 76.527344 62.101562 76.5 62.101562 H 76.5 L 0 62.101562 C -0.0273438 62.101562 -0.0507812 62.078125 -0.0507812 62.050781 H -0.0507812 V 58.050781 C -0.0507812 58.078125 -0.0273438 58.101562 0 58.101562 H -3 C -3.027344 58.101562 -3.050781 58.078125 -3.050781 58.050781 V 52.050781 C -3.050781 52.023438 -3.027344 52 -3 52 H 0 C -0.0273438 52 -0.0507812 52.023438 -0.0507812 52.050781 V 46.050781 C -0.0507812 46.078125 -0.0273438 46.101562 0 46.101562 H -3 C -3.027344 46.101562 -3.050781 46.078125 -3.050781 46.050781 V 40.050781 C -3.050781 40.023438 -3.027344 40 -3 40 H 0 C -0.0273438 40 -0.0507812 40.023438 -0.0507812 40.050781 V 34.050781 C -0.0507812 34.078125 -0.0273438 34.101562 0 34.101562 H -3 C -3.027344 34.101562 -3.050781 34.078125 -3.050781 34.050781 V 28.050781 C -3.050781 28.023438 -3.027344 28 -3 28 H 0 C -0.0273438 28 -0.0507812 28.023438 -0.0507812 28.050781 V 22.050781 C -0.0507812 22.078125 -0.0273438 22.101562 0 22.101562 H -3 C -3.027344 22.101562 -3.050781 22.078125 -3.050781 22.050781 V 16.050781 C -3.050781 16.023438 -3.027344 16 -3 16 H 0 C -0.0273438 16 -0.0507812 16.023438 -0.0507812 16.050781 V 12.050781 L -0.0507812 0.0507812 C -0.0507812 0.0234375 -0.0273438 0 0 0 H 0 " style="fill:none;stroke-width:0.1;stroke-linecap:butt;stroke-linejoin:miter;stroke:rgb(0%,0%,0%);stroke-opacity:1;stroke-miterlimit:10;" transform="matrix(1.0000,0.0000,0.0000,-1.0000,275.6484,398.3008)"/>
<path d="M 0 0 C -0.0273438 0 -0.0507812 0.0234375 -0.0507812 0.0507812 V -2.949219 C -0.0507812 -2.921875 -0.0273438 -2.898438 0 -2.898438 H -6 C -5.972656 -2.898438 -5.949219 -2.921875 -5.949219 -2.949219 V 0.0507812 C -5.949219 0.0234375 -5.972656 0 -6 0 H 0 " style="fill:none;stroke-width:0.1;stroke-linecap:butt;stroke-linejoin:miter;stroke:rgb(0%,0%,100%);stroke-opacity:1;stroke-miterlimit:10;" transform="matrix(1.0000,0.0000,-0.0000,1.0000,424.9961,389.2500)"/>
<path d="M 0 0 C -0.0273438 0 -0.0507812 0.0234375 -0.0507812 0.0507812 V -2.949219 C -0.0507812 -2.921875 -0.0273438 -2.898438 0 -2.898438 H -6 C -5.972656 -2.898438 -5.949219 -2.921875 -5.949219 -2.949219 V 0.0507812 C -5.949219 0.0234375 -5.972656 0 -6 0 H 0 " style="fill:none;stroke-width:0.1;stroke-linecap:butt;stroke-linejoin:miter;stroke:rgb(0%,0%,100%);stroke-opacity:1;stroke-miterlimit:10;" transform="matrix(1.0000,0.0000,-0.0000,1.0000,412.9961,389.2500)"/>
<path d="M 0 0 C -0.0273438 0 -0.0507812 0.0234375 -0.0507812 0.0507812 V -2.949219 C -0.0507812 -2.921875 -0.0273438 -2.898438 0 -2.898438 H -6 C -5.972656 -2.898438 -5.949219 -2.921875 -5.949219 -2.949219 V 0.0507812 C -5.949219 0.0234375 -5.972656 0 -6 0 H 0 " style="fill:none;stroke-width:0.1;stroke-linecap:butt;stroke-linejoin:miter;stroke:rgb(0%,0%,100%);stroke-opacity:1;stroke-miterlimit:10;" transform="matrix(1.0000,0.0000,-0.0000,1.0000,400.9961,389.2500)"/>
<path d="M 0 0 C -0.0273438 0 -0.0507812 0.0234375 -0.0507812 0.0507812 V -2.949219 C -0.0507812 -2.921875 -0.0273438 -2.898438 0 -2.898438 H -6 C -5.972656 -2.898438 -5.949219 -2.921875 -5.949219 -2.949219 V 0.0507812 C -5.949219 0.0234375 -5.972656 0 -6 0 H 0 " style="fill:none;stroke-width:0.1;stroke-linecap:butt;stroke-linejoin:miter;stroke:rgb(0%,0%,100%);stroke-opacity:1;stroke-miterlimit:10;" transform="matrix(1.0000,0.0000,-0.0000,1.0000,388.9961,389.2500)"/>
<path d="M 0 0 C -0.0273438 0 -0.0507812 0.0234375 -0.0507812 0.0507812 V -2.949219 C -0.0507812 -2.921875 -0.0273438 -2.898438 0 -2.898438 H -6 C -5.972656 -2.898438 -5.949219 -2.921875 -5.949219 -2.949219 V 0.0507812 C -5.949219 0.0234375 -5.972656 0 -6 0 H 0 " style="fill:none;stroke-width:0.1;stroke-linecap:butt;stroke-linejoin:miter;stroke:rgb(0%,0%,100%);stroke-opacity:1;stroke-miterlimit:10;" transform="matrix(1.0000,0.0000,-0.0000,1.0000,376.9961,389.2500)"/>
<path d="M 0 0 C -0.0273438 0 -0.0507812 0.0234375 -0.0507812 0.0507812 V -2.949219 C -0.0507812 -2.921875 -0.0273438 -2.898438 0 -2.898438 H -6 C -5.972656 -2.898438 -5.949219 -2.921875 -5.949219 -2.949219 V 0.0507812 C -5.949219 0.0234375 -5.972656 0 -6 0 H 0 " style="fill:none;stroke-width:0.1;stroke-linecap:butt;stroke-linejoin:miter;stroke:rgb(0%,0%,100%);stroke-opacity:1;stroke-miterlimit:10;" transform="matrix(1.0000,0.0000,-0.0000,1.0000,364.9961,389.2500)"/>
<path d="M -0.00390625 0 H 11.996094 C 13.058594 0 14.101562 0.28125 15.019531 0.808594 C 15.9375 1.339844 16.703125 2.101562 17.234375 3.023438 C 17.757812 3.929688 18.507812 4.679688 19.414062 5.203125 C 20.320312 5.726562 21.34375 6 22.390625 6 H 76.5 C 76.527344 6 76.550781 6.023438 76.550781 6.050781 V 12.050781 L 76.550781 62.050781 C 76.550781 62.078125 76.527344 62.101562 76.5 62.101562 H 76.5 L 0 62.101562 C -0.0273438 62.101562 -0.0507812 62.078125 -0.0507812 62.050781 H -0.0507812 V 58.050781 C -0.0507812 58.078125 -0.0273438 58.101562 0 58.101562 H -3 C -3.027344 58.101562 -3.050781 58.078125 -3.050781 58.050781 V 52.050781 C -3.050781 52.023438 -3.027344 52 -3 52 H 0 C -0.0273438 52 -0.0507812 52.023438 -0.0507812 52.050781 V 46.050781 C -0.0507812 46.078125 -0.0273438 46.101562 0 46.101562 H -3 C -3.027344 46.101562 -3.050781 46.078125 -3.050781 46.050781 V 40.050781 C -3.050781 40.023438 -3.027344 40 -3 40 H 0 C -0.0273438 40 -0.0507812 40.023438 -0.0507812 40.050781 V 34.050781 C -0.0507812 34.078125 -0.0273438 34.101562 0 34.101562 H -3 C -3.027344 34.101562 -3.050781 34.078125 -3.050781 34.050781 V 28.050781 C -3.050781 28.023438 -3.027344 28 -3 28 H 0 C -0.0273438 28 -0.0507812 28.023438 -0.0507812 28.050781 V 22.050781 C -0.0507812 22.078125 -0.0273438 22.101562 0 22.101562 H -3 C -3.027344 22.101562 -3.050781 22.078125 -3.050781 22.050781 V 16.050781 C -3.050781 16.023438 -3.027344 16 -3 16 H 0 C -0.0273438 16 -0.0507812 16.023438 -0.0507812 16.050781 V 12.050781 L -0.0507812 0.0507812 C -0.0507812 0.0234375 -0.0273438 0 0 0 H 0 " style="fill:none;stroke-width:0.1;stroke-linecap:butt;stroke-linejoin:miter;stroke:rgb(0%,0%,0%);stroke-opacity:1;stroke-miterlimit:10;" transform="matrix(-1.0000,0.0000,-0.0000,-1.0000,430.2422,398.3008)"/>
<path d="M 0 0 C -0.0273438 0 -0.0507812 0.0234375 -0.0507812 0.0507812 V -2.949219 C -0.0507812 -2.921875 -0.0273438 -2.898438 0 -2.898438 H -6 C -5.972656 -2.898438 -5.949219 -2.921875 -5.949219 -2.949219 V 0.0507812 C -5.949219 0.0234375 -5.972656 0 -6 0 H 0 " style="fill:none;stroke-width:0.1;stroke-linecap:butt;stroke-linejoin:miter;stroke:rgb(0%,0%,100%);stroke-opacity:1;stroke-miterlimit:10;" transform="matrix(-1.0000,0.0000,0.0000,1.0000,17.5469,325.6523)"/>
<path d="M 0 0 C -0.0273438 0 -0.0507812 0.0234375 -0.0507812 0.0507812 V -2.949219 C -0.0507812 -2.921875 -0.0273438 -2.898438 0 -2.898438 H -6 C -5.972656 -2.898438 -5.949219 -2.921875 -5.949219 -2.949219 V 0.0507812 C -5.949219 0.0234375 -5.972656 0 -6 0 H 0 " style="fill:none;stroke-width:0.1;stroke-linecap:butt;stroke-linejoin:miter;stroke:rgb(0%,0%,100%);stroke-opacity:1;stroke-miterlimit:10;" transform="matrix(-1.0000,0.0000,0.0000,1.0000,29.5469,325.6523)"/>
<path d="M 0 0 C -0.0273438 0 -0.0507812 0.0234375 -0.0507812 0.0507812 V -2.949219 C -0.0507812 -2.921875 -0.0273438 -2.898438 0 -2.898438 H -6 C -5.972656 -2.898438 -5.949219 -2.921875 -5.949219 -2.949219 V 0.0507812 C -5.949219 0.0234375 -5.972656 0 -6 0 H 0 " style="fill:none;stroke-width:0.1;stroke-linecap:butt;stroke-linejoin:miter;stroke:rgb(0%,0%,100%);stroke-opacity:1;stroke-miterlimit:10;" transform="matrix(-1.0000,0.0000,0.0000,1.0000,41.5469,325.6523)"/>
<path d="M 0 0 C -0.0273438 0 -0.0507812 0.0234375 -0.0507812 0.0507812 V -2.949219 C -0.0507812 -2.921875 -0.0273438 -2.898438 0 -2.898438 H -6 C -5.972656 -2.898438 -5.949219 -2.921875 -5.949219 -2.949219 V 0.0507812 C -5.949219 0.0234375 -5.972656 0 -6 0 H 0 " style="fill:none;stroke-width:0.1;stroke-linecap:butt;stroke-linejoin:miter;stroke:rgb(0%,0%,100%);stroke-opacity:1;stroke-miterlimit:10;" transform="matrix(-1.0000,0.0000,0.0000,1.0000,53.5469,325.6523)"/>
<path d="M 0 0 C -0.0273438 0 -0.0507812 0.0234375 -0.0507812 0.0507812 V -2.949219 C -0.0507812 -2.921875 -0.0273438 -2.898438 0 -2.898438 H -6 C -5.972656 -2.898438 -5.949219 -2.921875 -5.949219 -2.949219 V 0.0507812 C -5.949219 0.0234375 -5.972656 0 -6 0 H 0 " style="fill:none;stroke-width:0.1;stroke-linecap:butt;stroke-linejoin:miter;stroke:rgb(0%,0%,100%);stroke-opacity:1;stroke-miterlimit:10;" transform="matrix(-1.0000,0.0000,0.0000,1.0000,65.5469,325.6523)"/>
<path d="M 0 0 C -0.0273438 0 -0.0507812 0.0234375 -0.0507812 0.0507812 V -2.949219 C -0.0507812 -2.921875 -0.0273438 -2.898438 0 -2.898438 H -6 C -5.972656 -2.898438 -5.949219 -2.921875 -5.949219 -2.949219 V 0.0507812 C -5.949219 0.0234375 -5.972656 0 -6 0 H 0 " style="fill:none;stroke-width:0.1;stroke-linecap:butt;stroke-linejoin:miter;stroke:rgb(0%,0%,100%);stroke-opacity:1;stroke-miterlimit:10;" transform="matrix(-1.0000,0.0000,0.0000,1.0000,77.5469,325.6523)"/>
<path d="M 0 0 C -0.0273438 0 -0.0507812 0.0234375 -0.0507812 0.0507812 V -2.949219 C -0.0507812 -2.921875 -0.0273438 -2.898438 0 -2.898438 H -6 C -5.972656 -2.898438 -5.949219 -2.921875 -5.949219 -2.949219 V 0.0507812 C -5.949219 0.0234375 -5.972656 0 -6 0 H 0 " style="fill:none;stroke-width:0.1;stroke-linecap:butt;stroke-linejoin:miter;stroke:rgb(0%,0%,100%);stroke-opacity:1;stroke-miterlimit:10;" transform="matrix(-1.0000,0.0000,0.0000,1.0000,89.5469,325.6523)"/>
<path d="M 0 0 C -0.0273438 0 -0.0507812 0.0234375 -0.0507812 0.0507812 V -2.949219 C -0.0507812 -2.921875 -0.0273438 -2.898438 0 -2.898438 H -6 C -5.972656 -2.898438 -5.949219 -2.921875 -5.949219 -2.949219 V 0.0507812 C -5.949219 0.0234375 -5.972656 0 -6 0 H 0 " style="fill:none;stroke-width:0.1;stroke-linecap:butt;stroke-linejoin:miter;stroke:rgb(0%,0%,100%);stroke-opacity:1;stroke-miterlimit:10;" transform="matrix(-1.0000,0.0000,0.0000,1.0000,101.5469,325.6523)"/>
<path d="M 0 0 C -0.0273438 0 -0.0507812 0.0234375 -0.0507812 0.0507812 V -2.949219 C -0.0507812 -2.921875 -0.0273438 -2.898438 0 -2.898438 H -6 C -5.972656 -2.898438 -5.949219 -2.921875 -5.949219 -2.949219 V 0.0507812 C -5.949219 0.0234375 -5.972656 0 -6 0 H 0 " style="fill:none;stroke-width:0.1;stroke-linecap:butt;stroke-linejoin:miter;stroke:rgb(0%,0%,100%);stroke-opacity:1;stroke-miterlimit:10;" transform="matrix(-1.0000,0.0000,0.0000,1.0000,113.5469,325.6523)"/>
<path d="M 0 0 C -0.0273438 0 -0.0507812 0.0234375 -0.0507812 0.0507812 V -2.949219 C -0.0507812 -2.921875 -0.0273438 -2.898438 0 -2.898438 H -6 C -5.972656 -2.898438 -5.949219 -2.921875 -5.949219 -2.949219 V 0.0507812 C -5.949219 0.0234375 -5.972656 0 -6 0 H 0 " style="fill:none;stroke-width:0.1;stroke-linecap:butt;stroke-linejoin:miter;stroke:rgb(0%,0%,100%);stroke-opacity:1;stroke-miterlimit:10;" transform="matrix(-1.0000,0.0000,0.0000,1.0000,125.5469,325.6523)"/>
<path d="M 0 0 C -0.0273438 0 -0.0507812 0.0234375 -0.0507812 0.0507812 V -2.949219 C -0.0507812 -2.921875 -0.0273438 -2.898438 0 -2.898438 H -6 C -5.972656 -2.898438 -5.949219 -2.921875 -5.949219 -2.949219 V 0.0507812 C -5.949219 0.0234375 -5.972656 0 -6 0 H 0 " style="fill:none;stroke-width:0.1;stroke-linecap:butt;stroke-linejoin:miter;stroke:rgb(0%,0%,100%);stroke-opacity:1;stroke-miterlimit:10;" transform="matrix(-1.0000,0.0000,0.0000,1.0000,137.5469,325.6523)"/>
<path d="M 0 0 C -0.0273438 0 -0.0507812 0.0234375 -0.0507812 0.0507812 V -2.949219 C -0.0507812 -2.921875 -0.0273438 -2.898438 0 -2.898438 H -6 C -5.972656 -2.898438 -5.949219 -2.921875 -5.949219 -2.949219 V 0.0507812 C -5.949219 0.0234375 -5.972656 0 -6 0 H 0 " style="fill:none;stroke-width:0.1;stroke-linecap:butt;stroke-linejoin:miter;stroke:rgb(0%,0%,100%);stroke-opacity:1;stroke-miterlimit:10;" transform="matrix(-1.0000,0.0000,0.0000,1.0000,149.5469,325.6523)"/>
<path d="M 0 0 C -0.0273438 0 -0.0507812 0.0234375 -0.0507812 0.0507812 V -2.949219 C -0.0507812 -2.921875 -0.0273438 -2.898438 0 -2.898438 H -6 C -5.972656 -2.898438 -5.949219 -2.921875 -5.949219 -2.949219 V 0.0507812 C -5.949219 0.0234375 -5.972656 0 -6 0 H 0 " style="fill:none;stroke-width:0.1;stroke-linecap:butt;stroke-linejoin:miter;stroke:rgb(0%,0%,100%);stroke-opacity:1;stroke-miterlimit:10;" transform="matrix(-1.0000,0.0000,0.0000,1.0000,161.5469,325.6523)"/>
<path d="M 0 0 C -0.0273438 0 -0.0507812 0.0234375 -0.0507812 0.0507812 V -2.949219 C -0.0507812 -2.921875 -0.0273438 -2.898438 0 -2.898438 H -6 C -5.972656 -2.898438 -5.949219 -2.921875 -5.949219 -2.949219 V 0.0507812 C -5.949219 0.0234375 -5.972656 0 -6 0 H 0 " style="fill:none;stroke-width:0.1;stroke-linecap:butt;stroke-linejoin:miter;stroke:rgb(0%,0%,100%);stroke-opacity:1;stroke-miterlimit:10;" transform="matrix(-1.0000,0.0000,0.0000,1.0000,173.5469,325.6523)"/>
<path d="M 0 0 C -0.0273438 0 -0.0507812 0.0234375 -0.0507812 0.0507812 V -2.949219 C -0.0507812 -2.921875 -0.0273438 -2.898438 0 -2.898438 H -6 C -5.972656 -2.898438 -5.949219 -2.921875 -5.949219 -2.949219 V 0.0507812 C -5.949219 0.0234375 -5.972656 0 -6 0 H 0 " style="fill:none;stroke-width:0.1;stroke-linecap:butt;stroke-linejoin:miter;stroke:rgb(0%,0%,100%);stroke-opacity:1;stroke-miterlimit:10;" transform="matrix(-1.0000,0.0000,0.0000,1.0000,185.5469,325.6523)"/>
<path d="M 0 0 C -0.0273438 0 -0.0507812 0.0234375 -0.0507812 0.0507812 V -2.949219 C -0.0507812 -2.921875 -0.0273438 -2.898438 0 -2.898438 H -6 C -5.972656 -2.898438 -5.949219 -2.921875 -5.949219 -2.949219 V 0.0507812 C -5.949219 0.0234375 -5.972656 0 -6 0 H 0 " style="fill:none;stroke-width:0.1;stroke-linecap:butt;stroke-linejoin:miter;stroke:rgb(0%,0%,100%);stroke-opacity:1;stroke-miterlimit:10;" transform="matrix(-1.0000,0.0000,0.0000,1.0000,197.5469,325.6523)"/>
<path d="M 0 0 C -0.0273438 0 -0.0507812 0.0234375 -0.0507812 0.0507812 V -2.949219 C -0.0507812 -2.921875 -0.0273438 -2.898438 0 -2.898438 H -6 C -5.972656 -2.898438 -5.949219 -2.921875 -5.949219 -2.949219 V 0.0507812 C -5.949219 0.0234375 -5.972656 0 -6 0 H 0 " style="fill:none;stroke-width:0.1;stroke-linecap:butt;stroke-linejoin:miter;stroke:rgb(0%,0%,100%);stroke-opacity:1;stroke-miterlimit:10;" transform="matrix(-1.0000,0.0000,0.0000,1.0000,209.5469,325.6523)"/>
<path d="M 0 0 C -0.0273438 0 -0.0507812 0.0234375 -0.0507812 0.0507812 V -2.949219 C -0.0507812 -2.921875 -0.0273438 -2.898438 0 -2.898438 H -6 C -5.972656 -2.898438 -5.949219 -2.921875 -5.949219 -2.949219 V 0.0507812 C -5.949219 0.0234375 -5.972656 0 -6 0 H 0 " style="fill:none;stroke-width:0.1;stroke-linecap:butt;stroke-linejoin:miter;stroke:rgb(0%,0%,100%);stroke-opacity:1;stroke-miterlimit:10;" transform="matrix(-1.0000,0.0000,0.0000,1.0000,221.5469,325.6523)"/>
<path d="M 0 0 C -0.0273438 0 -0.0507812 0.0234375 -0.0507812 0.0507812 V -2.949219 C -0.0507812 -2.921875 -0.0273438 -2.898438 0 -2.898438 H -6 C -5.972656 -2.898438 -5.949219 -2.921875 -5.949219 -2.949219 V 0.0507812 C -5.949219 0.0234375 -5.972656 0 -6 0 H 0 " style="fill:none;stroke-width:0.1;stroke-linecap:butt;stroke-linejoin:miter;stroke:rgb(0%,0%,100%);stroke-opacity:1;stroke-miterlimit:10;" transform="matrix(-1.0000,0.0000,0.0000,1.0000,233.5469,325.6523)"/>
<path d="M 0 0 C -0.0273438 0 -0.0507812 0.0234375 -0.0507812 0.0507812 V -2.949219 C -0.0507812 -2.921875 -0.0273438 -2.898438 0 -2.898438 H -6 C -5.972656 -2.898438 -5.949219 -2.921875 -5.949219 -2.949219 V 0.0507812 C -5.949219 0.0234375 -5.972656 0 -6 0 H 0 " style="fill:none;stroke-width:0.1;stroke-linecap:butt;stroke-linejoin:miter;stroke:rgb(0%,0%,100%);stroke-opacity:1;stroke-miterlimit:10;" transform="matrix(-1.0000,0.0000,0.0000,1.0000,245.5469,325.6523)"/>
<path d="M 0 0 C -0.0273438 0 -0.0507812 0.0234375 -0.0507812 0.0507812 V -2.949219 C -0.0507812 -2.921875 -0.0273438 -2.898438 0 -2.898438 H -6 C -5.972656 -2.898438 -5.949219 -2.921875 -5.949219 -2.949219 V 0.0507812 C -5.949219 0.0234375 -5.972656 0 -6 0 H 0 " style="fill:none;stroke-width:0.1;stroke-linecap:butt;stroke-linejoin:miter;stroke:rgb(0%,0%,100%);stroke-opacity:1;stroke-miterlimit:10;" transform="matrix(-1.0000,0.0000,0.0000,1.0000,257.5469,325.6523)"/>
<path d="M -0.00390625 0 H 11.996094 C 13.058594 0 14.101563 0.28125 15.019531 0.808594 C 15.9375 1.339844 16.703125 2.101562 17.234375 3.023438 C 17.757813 3.929688 18.507813 4.679688 19.414063 5.203125 C 20.320313 5.726562 21.34375 6 22.390625 6 H 232.605469 C 233.648438 6 234.675781 5.726562 235.582031 5.203125 C 236.488281 4.679688 237.238281 3.929688 237.761719 3.023438 C 238.292969 2.105469 239.054688 1.339844 239.976563 0.808594 C 240.894531 0.277344 241.941406 0 243 0 H 255 L 258 0 C 258.027344 0 258.050781 0.0234375 258.050781 0.0507812 V 12.050781 L 258.050781 16.050781 C 258.050781 16.078125 258.027344 16.101562 258 16.101562 H 255 C 255.027344 16.101562 255.050781 16.078125 255.050781 16.050781 V 22.050781 C 255.050781 22.023438 255.027344 22 255 22 H 258 C 258.027344 22 258.050781 22.023438 258.050781 22.050781 V 28.050781 C 258.050781 28.078125 258.027344 28.101562 258 28.101562 H 255 C 255.027344 28.101562 255.050781 28.078125 255.050781 28.050781 V 34.050781 C 255.050781 34.023438 255.027344 34 255 34 H 258 C 258.027344 34 258.050781 34.023438 258.050781 34.050781 V 40.050781 C 258.050781 40.078125 258.027344 40.101562 258 40.101562 H 255 C 255.027344 40.101562 255.050781 40.078125 255.050781 40.050781 V 46.050781 C 255.050781 46.023438 255.027344 46 255 46 H 258 C 258.027344 46 258.050781 46.023438 258.050781 46.050781 V 52.050781 C 258.050781 52.078125 258.027344 52.101562 258 52.101562 H 255 C 255.027344 52.101562 255.050781 52.078125 255.050781 52.050781 V 58.050781 C 255.050781 58.023438 255.027344 58 255 58 H 258 C 258.027344 58 258.050781 58.023438 258.050781 58.050781 V 62.050781 C 258.050781 62.078125 258.027344 62.101562 258 62.101562 H 255 L -0.000000000000015099 62.101562 H -3 C -3.027344 62.101562 -3.050781 62.078125 -3.050781 62.050781 H -3.050781 V 58.050781 C -3.050781 58.023438 -3.027344 58 -3 58 H -0.000000000000014211 C -0.0273438 58 -0.0507813 58.023438 -0.0507813 58.050781 V 52.050781 C -0.0507813 52.078125 -0.0273438 52.101562 -0.000000000000012879 52.101562 H -3 C -3.027344 52.101562 -3.050781 52.078125 -3.050781 52.050781 V 46.050781 C -3.050781 46.023438 -3.027344 46 -3 46 H -0.000000000000011546 C -0.0273438 46 -0.0507813 46.023438 -0.0507813 46.050781 V 40.050781 C -0.0507813 40.078125 -0.0273438 40.101562 -0.00000000000000977 40.101562 H -3 C -3.027344 40.101562 -3.050781 40.078125 -3.050781 40.050781 V 34.050781 C -3.050781 34.023438 -3.027344 34 -3 34 H -0.000000000000008438 C -0.0273438 34 -0.0507813 34.023438 -0.0507813 34.050781 V 28.050781 C -0.0507813 28.078125 -0.0273438 28.101562 -0.000000000000007105 28.101562 H -3 C -3.027344 28.101562 -3.050781 28.078125 -3.050781 28.050781 V 22.050781 C -3.050781 22.023438 -3.027344 22 -3 22 H -0.000000000000005329 C -0.0273438 22 -0.0507813 22.023438 -0.0507813 22.050781 V 16.050781 C -0.0507813 16.078125 -0.0273438 16.101562 -0.000000000000003997 16.101562 H -3 C -3.027344 16.101562 -3.050781 16.078125 -3.050781 16.050781 V 12.050781 L -3.050781 0.0507812 C -3.050781 0.0234375 -3.027344 0 -3 0 H 0 " style="fill:none;stroke-width:0.1;stroke-linecap:butt;stroke-linejoin:miter;stroke:rgb(0%,0%,0%);stroke-opacity:1;stroke-miterlimit:10;" transform="matrix(1.0000,0.0000,0.0000,-1.0000,13.0508,334.7031)"/>
<path d="M 0 0 C -0.0273438 0 -0.0507812 0.0234375 -0.0507812 0.0507812 V -2.949219 C -0.0507812 -2.921875 -0.0273438 -2.898438 0 -2.898438 H -6 C -5.972656 -2.898438 -5.949219 -2.921875 -5.949219 -2.949219 V 0.0507812 C -5.949219 0.0234375 -5.972656 0 -6 0 H 0 " style="fill:none;stroke-width:0.1;stroke-linecap:butt;stroke-linejoin:miter;stroke:rgb(0%,0%,100%);stroke-opacity:1;stroke-miterlimit:10;" transform="matrix(-1.0000,0.0000,0.0000,1.0000,280.1445,325.6523)"/>
<path d="M 0 0 C -0.0273438 0 -0.0507812 0.0234375 -0.0507812 0.0507812 V -2.949219 C -0.0507812 -2.921875 -0.0273438 -2.898438 0 -2.898438 H -6 C -5.972656 -2.898438 -5.949219 -2.921875 -5.949219 -2.949219 V 0.0507812 C -5.949219 0.0234375 -5.972656 0 -6 0 H 0 " style="fill:none;stroke-width:0.1;stroke-linecap:butt;stroke-linejoin:miter;stroke:rgb(0%,0%,100%);stroke-opacity:1;stroke-miterlimit:10;" transform="matrix(-1.0000,0.0000,0.0000,1.0000,292.1445,325.6523)"/>
<path d="M 0 0 C -0.0273438 0 -0.0507812 0.0234375 -0.0507812 0.0507812 V -2.949219 C -0.0507812 -2.921875 -0.0273438 -2.898438 0 -2.898438 H -6 C -5.972656 -2.898438 -5.949219 -2.921875 -5.949219 -2.949219 V 0.0507812 C -5.949219 0.0234375 -5.972656 0 -6 0 H 0 " style="fill:none;stroke-width:0.1;stroke-linecap:butt;stroke-linejoin:miter;stroke:rgb(0%,0%,100%);stroke-opacity:1;stroke-miterlimit:10;" transform="matrix(-1.0000,0.0000,0.0000,1.0000,304.1445,325.6523)"/>
<path d="M 0 0 C -0.0273438 0 -0.0507812 0.0234375 -0.0507812 0.0507812 V -2.949219 C -0.0507812 -2.921875 -0.0273438 -2.898438 0 -2.898438 H -6 C -5.972656 -2.898438 -5.949219 -2.921875 -5.949219 -2.949219 V 0.0507812 C -5.949219 0.0234375 -5.972656 0 -6 0 H 0 " style="fill:none;stroke-width:0.1;stroke-linecap:butt;stroke-linejoin:miter;stroke:rgb(0%,0%,100%);stroke-opacity:1;stroke-miterlimit:10;" transform="matrix(-1.0000,0.0000,0.0000,1.0000,316.1445,325.6523)"/>
<path d="M 0 0 C -0.0273438 0 -0.0507812 0.0234375 -0.0507812 0.0507812 V -2.949219 C -0.0507812 -2.921875 -0.0273438 -2.898438 0 -2.898438 H -6 C -5.972656 -2.898438 -5.949219 -2.921875 -5.949219 -2.949219 V 0.0507812 C -5.949219 0.0234375 -5.972656 0 -6 0 H 0 " style="fill:none;stroke-width:0.1;stroke-linecap:butt;stroke-linejoin:miter;stroke:rgb(0%,0%,100%);stroke-opacity:1;stroke-miterlimit:10;" transform="matrix(-1.0000,0.0000,0.0000,1.0000,328.1445,325.6523)"/>
<path d="M 0 0 C -0.0273438 0 -0.0507812 0.0234375 -0.0507812 0.0507812 V -2.949219 C -0.0507812 -2.921875 -0.0273438 -2.898438 0 -2.898438 H -6 C -5.972656 -2.898438 -5.949219 -2.921875 -5.949219 -2.949219 V 0.0507812 C -5.949219 0.0234375 -5.972656 0 -6 0 H 0 " style="fill:none;stroke-width:0.1;stroke-linecap:butt;stroke-linejoin:miter;stroke:rgb(0%,0%,100%);stroke-opacity:1;stroke-miterlimit:10;" transform="matrix(-1.0000,0.0000,0.0000,1.0000,340.1445,325.6523)"/>
<path d="M 0 0 C -0.0273438 0 -0.0507812 0.0234375 -0.0507812 0.0507812 V -2.949219 C -0.0507812 -2.921875 -0.0273438 -2.898438 0 -2.898438 H -6 C -5.972656 -2.898438 -5.949219 -2.921875 -5.949219 -2.949219 V 0.0507812 C -5.949219 0.0234375 -5.972656 0 -6 0 H 0 " style="fill:none;stroke-width:0.1;stroke-linecap:butt;stroke-linejoin:miter;stroke:rgb(0%,0%,100%);stroke-opacity:1;stroke-miterlimit:10;" transform="matrix(-1.0000,0.0000,0.0000,1.0000,352.1445,325.6523)"/>
<path d="M 0 0 C -0.0273438 0 -0.0507812 0.0234375 -0.0507812 0.0507812 V -2.949219 C -0.0507812 -2.921875 -0.0273438 -2.898438 0 -2.898438 H -6 C -5.972656 -2.898438 -5.949219 -2.921875 -5.949219 -2.949219 V 0.0507812 C -5.949219 0.0234375 -5.972656 0 -6 0 H 0 " style="fill:none;stroke-width:0.1;stroke-linecap:butt;stroke-linejoin:miter;stroke:rgb(0%,0%,100%);stroke-opacity:1;stroke-miterlimit:10;" transform="matrix(-1.0000,0.0000,0.0000,1.0000,364.1445,325.6523)"/>
<path d="M 0 0 C -0.0273438 0 -0.0507812 0.0234375 -0.0507812 0.0507812 V -2.949219 C -0.0507812 -2.921875 -0.0273438 -2.898438 0 -2.898438 H -6 C -5.972656 -2.898438 -5.949219 -2.921875 -5.949219 -2.949219 V 0.0507812 C -5.949219 0.0234375 -5.972656 0 -6 0 H 0 " style="fill:none;stroke-width:0.1;stroke-linecap:butt;stroke-linejoin:miter;stroke:rgb(0%,0%,100%);stroke-opacity:1;stroke-miterlimit:10;" transform="matrix(-1.0000,0.0000,0.0000,1.0000,376.1445,325.6523)"/>
<path d="M 0 0 C -0.0273438 0 -0.0507812 0.0234375 -0.0507812 0.0507812 V -2.949219 C -0.0507812 -2.921875 -0.0273438 -2.898438 0 -2.898438 H -6 C -5.972656 -2.898438 -5.949219 -2.921875 -5.949219 -2.949219 V 0.0507812 C -5.949219 0.0234375 -5.972656 0 -6 0 H 0 " style="fill:none;stroke-width:0.1;stroke-linecap:butt;stroke-linejoin:miter;stroke:rgb(0%,0%,100%);stroke-opacity:1;stroke-miterlimit:10;" transform="matrix(-1.0000,0.0000,0.0000,1.0000,388.1445,325.6523)"/>
<path d="M 0 0 C -0.0273438 0 -0.0507812 0.0234375 -0.0507812 0.0507812 V -2.949219 C -0.0507812 -2.921875 -0.0273438 -2.898438 0 -2.898438 H -6 C -5.972656 -2.898438 -5.949219 -2.921875 -5.949219 -2.949219 V 0.0507812 C -5.949219 0.0234375 -5.972656 0 -6 0 H 0 " style="fill:none;stroke-width:0.1;stroke-linecap:butt;stroke-linejoin:miter;stroke:rgb(0%,0%,100%);stroke-opacity:1;stroke-miterlimit:10;" transform="matrix(-1.0000,0.0000,0.0000,1.0000,400.1445,325.6523)"/>
<path d="M 0 0 C -0.0273438 0 -0.0507812 0.0234375 -0.0507812 0.0507812 V -2.949219 C -0.0507812 -2.921875 -0.0273438 -2.898438 0 -2.898438 H -6 C -5.972656 -2.898438 -5.949219 -2.921875 -5.949219 -2.949219 V 0.0507812 C -5.949219 0.0234375 -5.972656 0 -6 0 H 0 " style="fill:none;stroke-width:0.1;stroke-linecap:butt;stroke-linejoin:miter;stroke:rgb(0%,0%,100%);stroke-opacity:1;stroke-miterlimit:10;" transform="matrix(-1.0000,0.0000,0.0000,1.0000,412.1445,325.6523)"/>
<path d="M 0 0 C -0.0273438 0 -0.0507812 0.0234375 -0.0507812 0.0507812 V -2.949219 C -0.0507812 -2.921875 -0.0273438 -2.898438 0 -2.898438 H -6 C -5.972656 -2.898438 -5.949219 -2.921875 -5.949219 -2.949219 V 0.0507812 C -5.949219 0.0234375 -5.972656 0 -6 0 H 0 " style="fill:none;stroke-width:0.1;stroke-linecap:butt;stroke-linejoin:miter;stroke:rgb(0%,0%,100%);stroke-opacity:1;stroke-miterlimit:10;" transform="matrix(-1.0000,0.0000,0.0000,1.0000,424.1445,325.6523)"/>
<path d="M 0 0 C -0.0273438 0 -0.0507812 0.0234375 -0.0507812 0.0507812 V -2.949219 C -0.0507812 -2.921875 -0.0273438 -2.898438 0 -2.898438 H -6 C -5.972656 -2.898438 -5.949219 -2.921875 -5.949219 -2.949219 V 0.0507812 C -5.949219 0.0234375 -5.972656 0 -6 0 H 0 " style="fill:none;stroke-width:0.1;stroke-linecap:butt;stroke-linejoin:miter;stroke:rgb(0%,0%,100%);stroke-opacity:1;stroke-miterlimit:10;" transform="matrix(-1.0000,0.0000,0.0000,1.0000,436.1445,325.6523)"/>
<path d="M 0 0 C -0.0273438 0 -0.0507812 0.0234375 -0.0507812 0.0507812 V -2.949219 C -0.0507812 -2.921875 -0.0273438 -2.898438 0 -2.898438 H -6 C -5.972656 -2.898438 -5.949219 -2.921875 -5.949219 -2.949219 V 0.0507812 C -5.949219 0.0234375 -5.972656 0 -6 0 H 0 " style="fill:none;stroke-width:0.1;stroke-linecap:butt;stroke-linejoin:miter;stroke:rgb(0%,0%,100%);stroke-opacity:1;stroke-miterlimit:10;" transform="matrix(-1.0000,0.0000,0.0000,1.0000,448.1445,325.6523)"/>
<path d="M 0 0 C -0.0273438 0 -0.0507812 0.0234375 -0.0507812 0.0507812 V -2.949219 C -0.0507812 -2.921875 -0.0273438 -2.898438 0 -2.898438 H -6 C -5.972656 -2.898438 -5.949219 -2.921875 -5.949219 -2.949219 V 0.0507812 C -5.949219 0.0234375 -5.972656 0 -6 0 H 0 " style="fill:none;stroke-width:0.1;stroke-linecap:butt;stroke-linejoin:miter;stroke:rgb(0%,0%,100%);stroke-opacity:1;stroke-miterlimit:10;" transform="matrix(-1.0000,0.0000,0.0000,1.0000,460.1445,325.6523)"/>
<path d="M 0 0 C -0.0273438 0 -0.0507812 0.0234375 -0.0507812 0.0507812 V -2.949219 C -0.0507812 -2.921875 -0.0273438 -2.898438 0 -2.898438 H -6 C -5.972656 -2.898438 -5.949219 -2.921875 -5.949219 -2.949219 V 0.0507812 C -5.949219 0.0234375 -5.972656 0 -6 0 H 0 " style="fill:none;stroke-width:0.1;stroke-linecap:butt;stroke-linejoin:miter;stroke:rgb(0%,0%,100%);stroke-opacity:1;stroke-miterlimit:10;" transform="matrix(-1.0000,0.0000,0.0000,1.0000,472.1445,325.6523)"/>
<path d="M 0 0 C -0.0273438 0 -0.0507812 0.0234375 -0.0507812 0.0507812 V -2.949219 C -0.0507812 -2.921875 -0.0273438 -2.898438 0 -2.898438 H -6 C -5.972656 -2.898438 -5.949219 -2.921875 -5.949219 -2.949219 V 0.0507812 C -5.949219 0.0234375 -5.972656 0 -6 0 H 0 " style="fill:none;stroke-width:0.1;stroke-linecap:butt;stroke-linejoin:miter;stroke:rgb(0%,0%,100%);stroke-opacity:1;stroke-miterlimit:10;" transform="matrix(-1.0000,0.0000,0.0000,1.0000,484.1445,325.6523)"/>
<path d="M 0 0 C -0.0273438 0 -0.0507812 0.0234375 -0.0507812 0.0507812 V -2.949219 C -0.0507812 -2.921875 -0.0273438 -2.898438 0 -2.898438 H -6 C -5.972656 -2.898438 -5.949219 -2.921875 -5.949219 -2.949219 V 0.0507812 C -5.949219 0.0234375 -5.972656 0 -6 0 H 0 " style="fill:none;stroke-width:0.1;stroke-linecap:butt;stroke-linejoin:miter;stroke:rgb(0%,0%,100%);stroke-opacity:1;stroke-miterlimit:10;" transform="matrix(-1.0000,0.0000,0.0000,1.0000,496.1445,325.6523)"/>
<path d="M 0 0 C -0.0273438 0 -0.0507812 0.0234375 -0.0507812 0.0507812 V -2.949219 C -0.0507812 -2.921875 -0.0273438 -2.898438 0 -2.898438 H -6 C -5.972656 -2.898438 -5.949219 -2.921875 -5.949219 -2.949219 V 0.0507812 C -5.949219 0.0234375 -5.972656 0 -6 0 H 0 " style="fill:none;stroke-width:0.1;stroke-linecap:butt;stroke-linejoin:miter;stroke:rgb(0%,0%,100%);stroke-opacity:1;stroke-miterlimit:10;" transform="matrix(-1.0000,0.0000,0.0000,1.0000,508.1445,325.6523)"/>
<path d="M 0 0 C -0.0273438 0 -0.0507812 0.0234375 -0.0507812 0.0507812 V -2.949219 C -0.0507812 -2.921875 -0.0273438 -2.898438 0 -2.898438 H -6 C -5.972656 -2.898438 -5.949219 -2.921875 -5.949219 -2.949219 V 0.0507812 C -5.949219 0.0234375 -5.972656 0 -6 0 H 0 " style="fill:none;stroke-width:0.1;stroke-linecap:butt;stroke-linejoin:miter;stroke:rgb(0%,0%,100%);stroke-opacity:1;stroke-miterlimit:10;" transform="matrix(-1.0000,0.0000,0.0000,1.0000,520.1445,325.6523)"/>
<path d="M -0.00390625 0 H 11.996094 C 13.058594 0 14.101562 0.28125 15.019531 0.808594 C 15.9375 1.339844 16.703125 2.101562 17.234375 3.023438 C 17.757812 3.929688 18.507812 4.679688 19.414062 5.203125 C 20.320312 5.726562 21.34375 6 22.390625 6 H 232.605469 C 233.648438 6 234.675781 5.726562 235.582031 5.203125 C 236.488281 4.679688 237.238281 3.929688 237.761719 3.023438 C 238.292969 2.105469 239.054688 1.339844 239.976563 0.808594 C 240.894531 0.277344 241.941406 0 243 0 H 255 C 255.027344 0 255.050781 0.0234375 255.050781 0.0507812 V 12.050781 L 255.050781 16.050781 C 255.050781 16.023438 255.027344 16 255 16 H 258 C 258.027344 16 258.050781 16.023438 258.050781 16.050781 V 22.050781 C 258.050781 22.078125 258.027344 22.101562 258 22.101562 H 255 C 255.027344 22.101562 255.050781 22.078125 255.050781 22.050781 V 28.050781 C 255.050781 28.023438 255.027344 28 255 28 H 258 C 258.027344 28 258.050781 28.023438 258.050781 28.050781 V 34.050781 C 258.050781 34.078125 258.027344 34.101562 258 34.101562 H 255 C 255.027344 34.101562 255.050781 34.078125 255.050781 34.050781 V 40.050781 C 255.050781 40.023438 255.027344 40 255 40 H 258 C 258.027344 40 258.050781 40.023438 258.050781 40.050781 V 46.050781 C 258.050781 46.078125 258.027344 46.101562 258 46.101562 H 255 C 255.027344 46.101562 255.050781 46.078125 255.050781 46.050781 V 52.050781 C 255.050781 52.023438 255.027344 52 255 52 H 258 C 258.027344 52 258.050781 52.023438 258.050781 52.050781 V 58.050781 C 258.050781 58.078125 258.027344 58.101562 258 58.101562 H 255 C 255.027344 58.101562 255.050781 58.078125 255.050781 58.050781 V 62.050781 C 255.050781 62.078125 255.027344 62.101562 255 62.101562 H 255 L 0 62.101562 C -0.0273438 62.101562 -0.0507812 62.078125 -0.0507812 62.050781 H -0.0507812 V 58.050781 C -0.0507812 58.078125 -0.0273438 58.101562 0 58.101562 H -3 C -3.027344 58.101562 -3.050781 58.078125 -3.050781 58.050781 V 52.050781 C -3.050781 52.023438 -3.027344 52 -3 52 H 0 C -0.0273438 52 -0.0507812 52.023438 -0.0507812 52.050781 V 46.050781 C -0.0507812 46.078125 -0.0273438 46.101562 0 46.101562 H -3 C -3.027344 46.101562 -3.050781 46.078125 -3.050781 46.050781 V 40.050781 C -3.050781 40.023438 -3.027344 40 -3 40 H 0 C -0.0273438 40 -0.0507812 40.023438 -0.0507812 40.050781 V 34.050781 C -0.0507812 34.078125 -0.0273438 34.101562 0 34.101562 H -3 C -3.027344 34.101562 -3.050781 34.078125 -3.050781 34.050781 V 28.050781 C -3.050781 28.023438 -3.027344 28 -3 28 H 0 C -0.0273438 28 -0.0507812 28.023438 -0.0507812 28.050781 V 22.050781 C -0.0507812 22.078125 -0.0273438 22.101562 0 22.101562 H -3 C -3.027344 22.101562 -3.050781 22.078125 -3.050781 22.050781 V 16.050781 C -3.050781 16.023438 -3.027344 16 -3 16 H 0 C -0.0273438 16 -0.0507812 16.023438 -0.0507812 16.050781 V 12.050781 L -0.0507812 0.0507812 C -0.0507812 0.0234375 -0.0273438 0 0 0 H 0 " style="fill:none;stroke-width:0.1;stroke-linecap:butt;stroke-linejoin:miter;stroke:rgb(0%,0%,0%);stroke-opacity:1;stroke-miterlimit:10;" transform="matrix(1.0000,0.0000,0.0000,-1.0000,275.6484,334.7031)"/>
<path d="M -0.0078125 0 H 5.242188 C 5.214844 0 5.191406 0.0234375 5.191406 0.0507812 V -2.949219 C 5.191406 -2.976562 5.214844 -3 5.242188 -3 H 11.242188 C 11.269531 -3 11.292969 -2.976562 11.292969 -2.949219 V 0.0507812 C 11.292969 0.0234375 11.269531 0 11.242188 0 H 17.242188 C 17.214844 0 17.191406 0.0234375 17.191406 0.0507812 V -2.949219 C 17.191406 -2.976562 17.214844 -3 17.242188 -3 H 23.242188 C 23.269531 -3 23.292969 -2.976562 23.292969 -2.949219 V 0.0507812 C 23.292969 0.0234375 23.269531 0 23.242188 0 H 29.242188 C 29.214844 0 29.191406 0.0234375 29.191406 0.0507812 V -2.949219 C 29.191406 -2.976562 29.214844 -3 29.242187 -3 H 35.242188 C 35.269531 -3 35.292969 -2.976562 35.292969 -2.949219 V 0.0507812 C 35.292969 0.0234375 35.269531 0 35.242188 0 H 41.242188 C 41.214844 0 41.191406 0.0234375 41.191406 0.0507812 V -2.949219 C 41.191406 -2.976562 41.214844 -3 41.242188 -3 H 47.242188 C 47.269531 -3 47.292969 -2.976562 47.292969 -2.949219 V 0.0507812 C 47.292969 0.0234375 47.269531 0 47.242188 0 H 53.242188 C 53.214844 0 53.191406 0.0234375 53.191406 0.0507812 V -2.949219 C 53.191406 -2.976562 53.214844 -3 53.242188 -3 H 59.242188 C 59.269531 -3 59.292969 -2.976562 59.292969 -2.949219 V 0.0507812 C 59.292969 0.0234375 59.269531 0 59.242188 0 H 65.242188 C 65.214844 0 65.191406 0.0234375 65.191406 0.0507812 V -2.949219 C 65.191406 -2.976562 65.214844 -3 65.242188 -3 H 71.242188 C 71.269531 -3 71.292969 -2.976562 71.292969 -2.949219 V 0.0507812 C 71.292969 0.0234375 71.269531 0 71.242188 0 H 76.492188 C 76.519531 0 76.542969 0.0234375 76.542969 0.0507812 C 76.542969 1.621094 76.957031 3.164062 77.742188 4.527344 C 78.527344 5.886719 79.65625 7.019531 81.019531 7.804688 C 82.378906 8.589844 83.921875 9.003906 85.496094 9.003906 H 169.496094 C 171.066406 9.003906 172.609375 8.589844 173.972656 7.804688 C 175.332031 7.019531 176.464844 5.890625 177.25 4.527344 C 178.035156 3.167969 178.449219 1.625 178.449219 0.0507812 C 178.449219 0.0234375 178.472656 0 178.5 0 H 183.75 C 183.722656 0 183.699219 0.0234375 183.699219 0.0507812 V -2.949219 C 183.699219 -2.976562 183.722656 -3 183.75 -3 H 189.75 C 189.777344 -3 189.800781 -2.976562 189.800781 -2.949219 V 0.0507812 C 189.800781 0.0234375 189.777344 0 189.75 0 H 195.75 C 195.722656 0 195.699219 0.0234375 195.699219 0.0507812 V -2.949219 C 195.699219 -2.976562 195.722656 -3 195.75 -3 H 201.75 C 201.777344 -3 201.800781 -2.976562 201.800781 -2.949219 V 0.0507812 C 201.800781 0.0234375 201.777344 0 201.75 0 H 207.75 C 207.722656 0 207.699219 0.0234375 207.699219 0.0507812 V -2.949219 C 207.699219 -2.976562 207.722656 -3 207.75 -3 H 213.75 C 213.777344 -3 213.800781 -2.976562 213.800781 -2.949219 V 0.0507812 C 213.800781 0.0234375 213.777344 0 213.75 0 H 219.75 C 219.722656 0 219.699219 0.0234375 219.699219 0.0507812 V -2.949219 C 219.699219 -2.976562 219.722656 -3 219.75 -3 H 225.75 C 225.777344 -3 225.800781 -2.976562 225.800781 -2.949219 V 0.0507812 C 225.800781 0.0234375 225.777344 0 225.75 0 H 231.75 C 231.722656 0 231.699219 0.0234375 231.699219 0.0507812 V -2.949219 C 231.699219 -2.976562 231.722656 -3 231.75 -3 H 237.75 C 237.777344 -3 237.800781 -2.976562 237.800781 -2.949219 V 0.0507812 C 237.800781 0.0234375 237.777344 0 237.75 0 H 243.75 C 243.722656 0 243.699219 0.0234375 243.699219 0.0507812 V -2.949219 C 243.699219 -2.976562 243.722656 -3 243.75 -3 H 249.75 C 249.777344 -3 249.800781 -2.976562 249.800781 -2.949219 V 0.0507812 C 249.800781 0.0234375 249.777344 0 249.75 0 H 255 C 255.027344 0 255.050781 0.0234375 255.050781 0.0507812 H 255.050781 V 4.550781 C 255.050781 4.523438 255.027344 4.5 255 4.5 H 258 C 258.027344 4.5 258.050781 4.523438 258.050781 4.550781 V 10.550781 C 258.050781 10.578125 258.027344 10.601562 258 10.601562 H 255 C 255.027344 10.601562 255.050781 10.578125 255.050781 10.550781 V 16.550781 C 255.050781 16.523438 255.027344 16.5 255 16.5 H 258 C 258.027344 16.5 258.050781 16.523438 258.050781 16.550781 V 22.550781 C 258.050781 22.578125 258.027344 22.601562 258 22.601562 H 255 C 255.027344 22.601562 255.050781 22.578125 255.050781 22.550781 V 28.550781 C 255.050781 28.523438 255.027344 28.5 255 28.5 H 258 C 258.027344 28.5 258.050781 28.523438 258.050781 28.550781 V 34.550781 C 258.050781 34.578125 258.027344 34.601562 258 34.601562 H 255 C 255.027344 34.601562 255.050781 34.578125 255.050781 34.550781 V 40.550781 C 255.050781 40.523438 255.027344 40.5 255 40.5 H 258 C 258.027344 40.5 258.050781 40.523438 258.050781 40.550781 V 46.550781 C 258.050781 46.578125 258.027344 46.601562 258 46.601562 H 255 C 255.027344 46.601562 255.050781 46.578125 255.050781 46.550781 V 52.550781 C 255.050781 52.523438 255.027344 52.5 255 52.5 H 258 C 258.027344 52.5 258.050781 52.523438 258.050781 52.550781 V 58.550781 C 258.050781 58.578125 258.027344 58.601562 258 58.601562 H 255 C 255.027344 58.601562 255.050781 58.578125 255.050781 58.550781 V 64.550781 C 255.050781 64.523438 255.027344 64.5 255 64.5 H 258 C 258.027344 64.5 258.050781 64.523438 258.050781 64.550781 V 70.550781 C 258.050781 70.578125 258.027344 70.601562 258 70.601562 H 255 C 255.027344 70.601562 255.050781 70.578125 255.050781 70.550781 V 76.550781 C 255.050781 76.523438 255.027344 76.5 255 76.5 H 258 C 258.027344 76.5 258.050781 76.523438 258.050781 76.550781 V 82.550781 C 258.050781 82.578125 258.027344 82.601562 258 82.601562 H 255 C 255.027344 82.601562 255.050781 82.578125 255.050781 82.550781 V 88.550781 C 255.050781 88.523438 255.027344 88.5 255 88.5 H 258 C 258.027344 88.5 258.050781 88.523438 258.050781 88.550781 V 94.550781 C 258.050781 94.578125 258.027344 94.601562 258 94.601562 H 255 C 255.027344 94.601562 255.050781 94.578125 255.050781 94.550781 V 100.550781 C 255.050781 100.523438 255.027344 100.5 255 100.5 H 258 C 258.027344 100.5 258.050781 100.523438 258.050781 100.550781 V 106.550781 C 258.050781 106.578125 258.027344 106.601562 258 106.601562 H 255 C 255.027344 106.601562 255.050781 106.578125 255.050781 106.550781 V 112.550781 C 255.050781 112.523438 255.027344 112.5 255 112.5 H 258 C 258.027344 112.5 258.050781 112.523438 258.050781 112.550781 V 118.550781 C 258.050781 118.578125 258.027344 118.601562 258 118.601562 H 255 C 255.027344 118.601562 255.050781 118.578125 255.050781 118.550781 V 124.550781 C 255.050781 124.523438 255.027344 124.5 255 124.5 H 258 C 258.027344 124.5 258.050781 124.523438 258.050781 124.550781 V 130.550781 C 258.050781 130.578125 258.027344 130.601562 258 130.601562 H 255 C 255.027344 130.601562 255.050781 130.578125 255.050781 130.550781 V 136.550781 C 255.050781 136.523438 255.027344 136.5 255 136.5 H 258 C 258.027344 136.5 258.050781 136.523438 258.050781 136.550781 V 142.550781 C 258.050781 142.578125 258.027344 142.601562 258 142.601562 H 255 C 255.027344 142.601562 255.050781 142.578125 255.050781 142.550781 V 148.550781 C 255.050781 148.523438 255.027344 148.5 255 148.5 H 258 C 258.027344 148.5 258.050781 148.523438 258.050781 148.550781 V 154.550781 C 258.050781 154.578125 258.027344 154.601562 258 154.601562 H 255 C 255.027344 154.601562 255.050781 154.578125 255.050781 154.550781 V 160.550781 C 255.050781 160.523438 255.027344 160.5 255 160.5 H 258 C 258.027344 160.5 258.050781 160.523438 258.050781 160.550781 V 166.550781 C 258.050781 166.578125 258.027344 166.601562 258 166.601562 H 255 C 255.027344 166.601562 255.050781 166.578125 255.050781 166.550781 V 172.550781 C 255.050781 172.523438 255.027344 172.5 255 172.5 H 258 C 258.027344 172.5 258.050781 172.523438 258.050781 172.550781 V 178.550781 C 258.050781 178.578125 258.027344 178.601562 258 178.601562 H 255 C 255.027344 178.601562 255.050781 178.578125 255.050781 178.550781 V 184.550781 C 255.050781 184.523438 255.027344 184.5 255 184.5 H 258 C 258.027344 184.5 258.050781 184.523438 258.050781 184.550781 V 190.550781 C 258.050781 190.578125 258.027344 190.601562 258 190.601562 H 255 C 255.027344 190.601562 255.050781 190.578125 255.050781 190.550781 V 196.550781 C 255.050781 196.523438 255.027344 196.5 255 196.5 H 258 C 258.027344 196.5 258.050781 196.523438 258.050781 196.550781 V 202.550781 C 258.050781 202.578125 258.027344 202.601562 258 202.601562 H 255 C 255.027344 202.601562 255.050781 202.578125 255.050781 202.550781 V 208.550781 C 255.050781 208.523438 255.027344 208.5 255 208.5 H 258 C 258.027344 208.5 258.050781 208.523438 258.050781 208.550781 V 214.550781 C 258.050781 214.578125 258.027344 214.601562 258 214.601562 H 255 C 255.027344 214.601562 255.050781 214.578125 255.050781 214.550781 V 220.550781 C 255.050781 220.523438 255.027344 220.5 255 220.5 H 258 C 258.027344 220.5 258.050781 220.523438 258.050781 220.550781 V 226.550781 C 258.050781 226.578125 258.027344 226.601562 258 226.601562 H 255 C 255.027344 226.601562 255.050781 226.578125 255.050781 226.550781 V 232.550781 C 255.050781 232.523438 255.027344 232.5 255 232.5 H 258 C 258.027344 232.5 258.050781 232.523438 258.050781 232.550781 V 238.550781 C 258.050781 238.578125 258.027344 238.601562 258 238.601562 H 255 C 255.027344 238.601562 255.050781 238.578125 255.050781 238.550781 V 244.550781 C 255.050781 244.523438 255.027344 244.5 255 244.5 H 258 C 258.027344 244.5 258.050781 244.523438 258.050781 244.550781 V 250.550781 C 258.050781 250.578125 258.027344 250.601562 258 250.601562 H 255 C 255.027344 250.601562 255.050781 250.578125 255.050781 250.550781 V 255.050781 C 255.050781 255.078125 255.027344 255.101562 255 255.101562 H 255 L 250.5 255.101562 C 250.527344 255.101562 250.550781 255.078125 250.550781 255.050781 V 258.050781 C 250.550781 258.078125 250.527344 258.101562 250.5 258.101562 H 244.5 C 244.472656 258.101562 244.449219 258.078125 244.449219 258.050781 V 255.050781 C 244.449219 255.078125 244.472656 255.101562 244.5 255.101562 H 238.5 C 238.527344 255.101562 238.550781 255.078125 238.550781 255.050781 V 258.050781 C 238.550781 258.078125 238.527344 258.101562 238.5 258.101562 H 232.5 C 232.472656 258.101562 232.449219 258.078125 232.449219 258.050781 V 255.050781 C 232.449219 255.078125 232.472656 255.101562 232.5 255.101562 H 226.5 C 226.527344 255.101562 226.550781 255.078125 226.550781 255.050781 V 258.050781 C 226.550781 258.078125 226.527344 258.101562 226.5 258.101562 H 220.5 C 220.472656 258.101562 220.449219 258.078125 220.449219 258.050781 V 255.050781 C 220.449219 255.078125 220.472656 255.101562 220.5 255.101562 H 214.5 C 214.527344 255.101562 214.550781 255.078125 214.550781 255.050781 V 258.050781 C 214.550781 258.078125 214.527344 258.101562 214.5 258.101562 H 208.5 C 208.472656 258.101562 208.449219 258.078125 208.449219 258.050781 V 255.050781 C 208.449219 255.078125 208.472656 255.101562 208.5 255.101562 H 202.5 C 202.527344 255.101562 202.550781 255.078125 202.550781 255.050781 V 258.050781 C 202.550781 258.078125 202.527344 258.101562 202.5 258.101562 H 196.5 C 196.472656 258.101562 196.449219 258.078125 196.449219 258.050781 V 255.050781 C 196.449219 255.078125 196.472656 255.101562 196.5 255.101562 H 190.5 C 190.527344 255.101562 190.550781 255.078125 190.550781 255.050781 V 258.050781 C 190.550781 258.078125 190.527344 258.101562 190.5 258.101562 H 184.5 C 184.472656 258.101562 184.449219 258.078125 184.449219 258.050781 V 255.050781 C 184.449219 255.078125 184.472656 255.101562 184.5 255.101562 H 178.5 C 178.527344 255.101562 178.550781 255.078125 178.550781 255.050781 V 258.050781 C 178.550781 258.078125 178.527344 258.101562 178.5 258.101562 H 172.5 C 172.472656 258.101562 172.449219 258.078125 172.449219 258.050781 V 255.050781 C 172.449219 255.078125 172.472656 255.101562 172.5 255.101562 H 166.5 C 166.527344 255.101562 166.550781 255.078125 166.550781 255.050781 V 258.050781 C 166.550781 258.078125 166.527344 258.101562 166.5 258.101562 H 160.5 C 160.472656 258.101562 160.449219 258.078125 160.449219 258.050781 V 255.050781 C 160.449219 255.078125 160.472656 255.101562 160.5 255.101562 H 154.5 C 154.527344 255.101562 154.550781 255.078125 154.550781 255.050781 V 258.050781 C 154.550781 258.078125 154.527344 258.101562 154.5 258.101562 H 148.5 C 148.472656 258.101562 148.449219 258.078125 148.449219 258.050781 V 255.050781 C 148.449219 255.078125 148.472656 255.101562 148.5 255.101562 H 142.5 C 142.527344 255.101562 142.550781 255.078125 142.550781 255.050781 V 258.050781 C 142.550781 258.078125 142.527344 258.101562 142.5 258.101562 H 136.5 C 136.472656 258.101562 136.449219 258.078125 136.449219 258.050781 V 255.050781 C 136.449219 255.078125 136.472656 255.101562 136.5 255.101562 H 130.5 C 130.527344 255.101562 130.550781 255.078125 130.550781 255.050781 V 258.050781 C 130.550781 258.078125 130.527344 258.101562 130.5 258.101562 H 124.5 C 124.472656 258.101562 124.449219 258.078125 124.449219 258.050781 V 255.050781 C 124.449219 255.078125 124.472656 255.101562 124.5 255.101562 H 118.5 C 118.527344 255.101562 118.550781 255.078125 118.550781 255.050781 V 258.050781 C 118.550781 258.078125 118.527344 258.101562 118.5 258.101562 H 112.5 C 112.472656 258.101562 112.449219 258.078125 112.449219 258.050781 V 255.050781 C 112.449219 255.078125 112.472656 255.101562 112.5 255.101562 H 106.5 C 106.527344 255.101562 106.550781 255.078125 106.550781 255.050781 V 258.050781 C 106.550781 258.078125 106.527344 258.101562 106.5 258.101562 H 100.5 C 100.472656 258.101562 100.449219 258.078125 100.449219 258.050781 V 255.050781 C 100.449219 255.078125 100.472656 255.101562 100.5 255.101562 H 94.5 C 94.527344 255.101562 94.550781 255.078125 94.550781 255.050781 V 258.050781 C 94.550781 258.078125 94.527344 258.101562 94.5 258.101562 H 88.5 C 88.472656 258.101562 88.449219 258.078125 88.449219 258.050781 V 255.050781 C 88.449219 255.078125 88.472656 255.101562 88.5 255.101562 H 82.5 C 82.527344 255.101562 82.550781 255.078125 82.550781 255.050781 V 258.050781 C 82.550781 258.078125 82.527344 258.101562 82.5 258.101562 H 76.5 C 76.472656 258.101562 76.449219 258.078125 76.449219 258.050781 V 255.050781 C 76.449219 255.078125 76.472656 255.101562 76.5 255.101562 H 70.5 C 70.527344 255.101562 70.550781 255.078125 70.550781 255.050781 V 258.050781 C 70.550781 258.078125 70.527344 258.101562 70.5 258.101562 H 64.5 C 64.472656 258.101562 64.449219 258.078125 64.449219 258.050781 V 255.050781 C 64.449219 255.078125 64.472656 255.101562 64.5 255.101562 H 58.5 C 58.527344 255.101562 58.550781 255.078125 58.550781 255.050781 V 258.050781 C 58.550781 258.078125 58.527344 258.101562 58.5 258.101562 H 52.5 C 52.472656 258.101562 52.449219 258.078125 52.449219 258.050781 V 255.050781 C 52.449219 255.078125 52.472656 255.101562 52.5 255.101562 H 46.5 C 46.527344 255.101562 46.550781 255.078125 46.550781 255.050781 V 258.050781 C 46.550781 258.078125 46.527344 258.101562 46.5 258.101562 H 40.5 C 40.472656 258.101562 40.449219 258.078125 40.449219 258.050781 V 255.050781 C 40.449219 255.078125 40.472656 255.101562 40.5 255.101562 H 34.5 C 34.527344 255.101562 34.550781 255.078125 34.550781 255.050781 V 258.050781 C 34.550781 258.078125 34.527344 258.101562 34.5 258.101562 H 28.5 C 28.472656 258.101562 28.449219 258.078125 28.449219 258.050781 V 255.050781 C 28.449219 255.078125 28.472656 255.101562 28.5 255.101562 H 22.5 C 22.527344 255.101562 22.550781 255.078125 22.550781 255.050781 V 258.050781 C 22.550781 258.078125 22.527344 258.101562 22.5 258.101562 H 16.5 C 16.472656 258.101562 16.449219 258.078125 16.449219 258.050781 V 255.050781 C 16.449219 255.078125 16.472656 255.101562 16.5 255.101562 H 10.5 C 10.527344 255.101562 10.550781 255.078125 10.550781 255.050781 V 258.050781 C 10.550781 258.078125 10.527344 258.101562 10.5 258.101562 H 4.5 C 4.472656 258.101562 4.449219 258.078125 4.449219 258.050781 V 255.050781 C 4.449219 255.078125 4.472656 255.101562 4.5 255.101562 H 0.000000000000021316 C -0.0273437 255.101562 -0.0507812 255.078125 -0.0507812 255.050781 H -0.0507812 V 250.550781 C -0.0507812 250.578125 -0.0273437 250.601562 0.000000000000020872 250.601562 H -3 C -3.027344 250.601562 -3.050781 250.578125 -3.050781 250.550781 V 244.550781 C -3.050781 244.523438 -3.027344 244.5 -3 244.5 H 0.000000000000020428 C -0.0273437 244.5 -0.0507812 244.523438 -0.0507812 244.550781 V 238.550781 C -0.0507812 238.578125 -0.0273437 238.601562 0.000000000000019984 238.601562 H -3 C -3.027344 238.601562 -3.050781 238.578125 -3.050781 238.550781 V 232.550781 C -3.050781 232.523438 -3.027344 232.5 -3 232.5 H 0.00000000000001954 C -0.0273437 232.5 -0.0507812 232.523438 -0.0507812 232.550781 V 226.550781 C -0.0507812 226.578125 -0.0273437 226.601562 0.000000000000019096 226.601562 H -3 C -3.027344 226.601562 -3.050781 226.578125 -3.050781 226.550781 V 220.550781 C -3.050781 220.523438 -3.027344 220.5 -3 220.5 H 0.000000000000018208 C -0.0273437 220.5 -0.0507812 220.523438 -0.0507812 220.550781 V 214.550781 C -0.0507812 214.578125 -0.0273437 214.601562 0.000000000000017764 214.601562 H -3 C -3.027344 214.601562 -3.050781 214.578125 -3.050781 214.550781 V 208.550781 C -3.050781 208.523438 -3.027344 208.5 -3 208.5 H 0.000000000000017319 C -0.0273437 208.5 -0.0507812 208.523438 -0.0507812 208.550781 V 202.550781 C -0.0507812 202.578125 -0.0273437 202.601562 0.000000000000016875 202.601562 H -3 C -3.027344 202.601562 -3.050781 202.578125 -3.050781 202.550781 V 196.550781 C -3.050781 196.523438 -3.027344 196.5 -3 196.5 H 0.000000000000016431 C -0.0273437 196.5 -0.0507812 196.523438 -0.0507812 196.550781 V 190.550781 C -0.0507812 190.578125 -0.0273437 190.601562 0.000000000000015987 190.601562 H -3 C -3.027344 190.601562 -3.050781 190.578125 -3.050781 190.550781 V 184.550781 C -3.050781 184.523438 -3.027344 184.5 -3 184.5 H 0.000000000000015543 C -0.0273437 184.5 -0.0507812 184.523438 -0.0507812 184.550781 V 178.550781 C -0.0507812 178.578125 -0.0273437 178.601562 0.000000000000015099 178.601562 H -3 C -3.027344 178.601562 -3.050781 178.578125 -3.050781 178.550781 V 172.550781 C -3.050781 172.523438 -3.027344 172.5 -3 172.5 H 0.000000000000014211 C -0.0273437 172.5 -0.0507812 172.523438 -0.0507812 172.550781 V 166.550781 C -0.0507812 166.578125 -0.0273437 166.601562 0.000000000000013767 166.601562 H -3 C -3.027344 166.601562 -3.050781 166.578125 -3.050781 166.550781 V 160.550781 C -3.050781 160.523438 -3.027344 160.5 -3 160.5 H 0.000000000000013323 C -0.0273437 160.5 -0.0507812 160.523438 -0.0507812 160.550781 V 154.550781 C -0.0507812 154.578125 -0.0273437 154.601562 0.000000000000012879 154.601562 H -3 C -3.027344 154.601562 -3.050781 154.578125 -3.050781 154.550781 V 148.550781 C -3.050781 148.523438 -3.027344 148.5 -3 148.5 H 0.000000000000012434 C -0.0273437 148.5 -0.0507812 148.523438 -0.0507812 148.550781 V 142.550781 C -0.0507812 142.578125 -0.0273437 142.601562 0.00000000000001199 142.601562 H -3 C -3.027344 142.601562 -3.050781 142.578125 -3.050781 142.550781 V 136.550781 C -3.050781 136.523438 -3.027344 136.5 -3 136.5 H 0.000000000000011546 C -0.0273437 136.5 -0.0507812 136.523438 -0.0507812 136.550781 V 130.550781 C -0.0507812 130.578125 -0.0273437 130.601562 0.000000000000011102 130.601562 H -3 C -3.027344 130.601562 -3.050781 130.578125 -3.050781 130.550781 V 124.550781 C -3.050781 124.523438 -3.027344 124.5 -3 124.5 H 0.000000000000010658 C -0.0273437 124.5 -0.0507812 124.523438 -0.0507812 124.550781 V 118.550781 C -0.0507812 118.578125 -0.0273437 118.601562 0.00000000000000977 118.601562 H -3 C -3.027344 118.601562 -3.050781 118.578125 -3.050781 118.550781 V 112.550781 C -3.050781 112.523438 -3.027344 112.5 -3 112.5 H 0.000000000000009326 C -0.0273437 112.5 -0.0507812 112.523438 -0.0507812 112.550781 V 106.550781 C -0.0507812 106.578125 -0.0273437 106.601562 0.000000000000008882 106.601562 H -3 C -3.027344 106.601562 -3.050781 106.578125 -3.050781 106.550781 V 100.550781 C -3.050781 100.523438 -3.027344 100.5 -3 100.5 H 0.000000000000008438 C -0.0273437 100.5 -0.0507812 100.523438 -0.0507812 100.550781 V 94.550781 C -0.0507812 94.578125 -0.0273437 94.601562 0.000000000000007994 94.601562 H -3 C -3.027344 94.601562 -3.050781 94.578125 -3.050781 94.550781 V 88.550781 C -3.050781 88.523438 -3.027344 88.5 -3 88.5 H 0.00000000000000755 C -0.0273437 88.5 -0.0507812 88.523438 -0.0507812 88.550781 V 82.550781 C -0.0507812 82.578125 -0.0273437 82.601562 0.000000000000007105 82.601562 H -3 C -3.027344 82.601562 -3.050781 82.578125 -3.050781 82.550781 V 76.550781 C -3.050781 76.523438 -3.027344 76.5 -3 76.5 H 0.000000000000006661 C -0.0273437 76.5 -0.0507812 76.523438 -0.0507812 76.550781 V 70.550781 C -0.0507812 70.578125 -0.0273437 70.601562 0.000000000000006217 70.601562 H -3 C -3.027344 70.601562 -3.050781 70.578125 -3.050781 70.550781 V 64.550781 C -3.050781 64.523438 -3.027344 64.5 -3 64.5 H 0.000000000000005329 C -0.0273437 64.5 -0.0507812 64.523438 -0.0507812 64.550781 V 58.550781 C -0.0507812 58.578125 -0.0273437 58.601562 0.000000000000004885 58.601562 H -3 C -3.027344 58.601562 -3.050781 58.578125 -3.050781 58.550781 V 52.550781 C -3.050781 52.523438 -3.027344 52.5 -3 52.5 H 0.000000000000004441 C -0.0273437 52.5 -0.0507812 52.523438 -0.0507812 52.550781 V 46.550781 C -0.0507812 46.578125 -0.0273437 46.601562 0.000000000000003997 46.601562 H -3 C -3.027344 46.601562 -3.050781 46.578125 -3.050781 46.550781 V 40.550781 C -3.050781 40.523438 -3.027344 40.5 -3 40.5 H 0.000000000000003553 C -0.0273437 40.5 -0.0507812 40.523438 -0.0507812 40.550781 V 34.550781 C -0.0507812 34.578125 -0.0273437 34.601562 0.000000000000003109 34.601562 H -3 C -3.027344 34.601562 -3.050781 34.578125 -3.050781 34.550781 V 28.550781 C -3.050781 28.523438 -3.027344 28.5 -3 28.5 H 0.000000000000002665 C -0.0273437 28.5 -0.0507812 28.523438 -0.0507812 28.550781 V 22.550781 C -0.0507812 22.578125 -0.0273437 22.601562 0.00000000000000222 22.601562 H -3 C -3.027344 22.601562 -3.050781 22.578125 -3.050781 22.550781 V 16.550781 C -3.050781 16.523438 -3.027344 16.5 -3 16.5 H 0.000000000000001776 C -0.0273437 16.5 -0.0507812 16.523438 -0.0507812 16.550781 V 10.550781 C -0.0507812 10.578125 -0.0273437 10.601562 0.000000000000000888 10.601562 H -3 C -3.027344 10.601562 -3.050781 10.578125 -3.050781 10.550781 V 4.550781 C -3.050781 4.523438 -3.027344 4.5 -3 4.5 H 0.000000000000000444 C -0.0273437 4.5 -0.0507812 4.523438 -0.0507812 4.550781 V 0.0507812 C -0.0507812 0.0234375 -0.0273438 0 0 0 H 0 " style="fill:none;stroke-width:0.1;stroke-linecap:butt;stroke-linejoin:miter;stroke:rgb(0%,0%,0%);stroke-opacity:1;stroke-miterlimit:10;" transform="matrix(1.0000,-0.0000,-0.0000,-1.0000,13.0547,268.1016)"/>
</g>
</svg>