<?xml version='1.0' encoding='utf-8'?>
<svg height="184.80mm" viewBox="0.0 0.0 244.77 184.80" width="244.77mm" xmlns="http://www.w3.org/2000/svg" xmlns:cc="http://creativecommons.org/ns#" xmlns:dc="http://purl.org/dc/elements/1.1/" xmlns:inkscape="http://www.inkscape.org/namespaces/inkscape" xmlns:rdf="http://www.w3.org/1999/02/22-rdf-syntax-ns#" xmlns:svg="http://www.w3.org/2000/svg" xmlns:xlink="http://www.w3.org/1999/xlink">
<!--
FlexBox2 - Box with living hinge and top corners rounded

Created with Boxes.py (https://boxes.hackerspace-bamberg.de/)
Creation date: 2025-03-08 16:30:12
Command line (remove spaces between dashes): boxes FlexBox2 - -x=50 - -y=50 - -labels=0 - -burn=0.05
Url: https://boxes.hackerspace-bamberg.de/FlexBox2?FingerJoint_style=rectangular&FingerJoint_surroundingspaces=2.0&FingerJoint_bottom_lip=0.0&FingerJoint_edge_width=1.0&FingerJoint_extra_length=0.0&FingerJoint_finger=2.0&FingerJoint_play=0.0&FingerJoint_space=2.0&FingerJoint_width=1.0&Flex_stretch=1.05&Flex_connection=1.0&Flex_distance=0.5&Flex_width=5.0&x=50&y=50&h=100.0&outside=0&outside=1&radius=15&latchsize=8&thickness=3.0&format=svg&tabs=0.0&qr_code=0&debug=0&labels=0&reference=100.0&inner_corners=loop&burn=0.05&language=en&render=2
Url short: https://boxes.hackerspace-bamberg.de/FlexBox2?x=50&y=50&labels=0&burn=0.05
SettingsUrl: https://boxes.hackerspace-bamberg.de/FlexBox2?FingerJoint_style=rectangular&FingerJoint_surroundingspaces=2.0&FingerJoint_bottom_lip=0.0&FingerJoint_edge_width=1.0&FingerJoint_extra_length=0.0&FingerJoint_finger=2.0&FingerJoint_play=0.0&FingerJoint_space=2.0&FingerJoint_width=1.0&Flex_stretch=1.05&Flex_connection=1.0&Flex_distance=0.5&Flex_width=5.0&x=50&y=50&h=100.0&outside=0&outside=1&radius=15&latchsize=8&thickness=3.0&format=svg&tabs=0.0&qr_code=0&debug=0&labels=0&reference=100.0&inner_corners=loop&burn=0.05&language=en&render=2
SettingsUrl short: https://boxes.hackerspace-bamberg.de/FlexBox2?x=50&y=50&labels=0&burn=0.05
-->
<title>FlexBox2</title>
<metadata>
<rdf:RDF><cc:Work>
<dc:title>FlexBox - FlexBox2</dc:title>
<dc:date>2025-03-08 16:30:12</dc:date>
<dc:source>https://boxes.hackerspace-bamberg.de/FlexBox2?FingerJoint_style=rectangular&amp;FingerJoint_surroundingspaces=2.0&amp;FingerJoint_bottom_lip=0.0&amp;FingerJoint_edge_width=1.0&amp;FingerJoint_extra_length=0.0&amp;FingerJoint_finger=2.0&amp;FingerJoint_play=0.0&amp;FingerJoint_space=2.0&amp;FingerJoint_width=1.0&amp;Flex_stretch=1.05&amp;Flex_connection=1.0&amp;Flex_distance=0.5&amp;Flex_width=5.0&amp;x=50&amp;y=50&amp;h=100.0&amp;outside=0&amp;outside=1&amp;radius=15&amp;latchsize=8&amp;thickness=3.0&amp;format=svg&amp;tabs=0.0&amp;qr_code=0&amp;debug=0&amp;labels=0&amp;reference=100.0&amp;inner_corners=loop&amp;burn=0.05&amp;language=en&amp;render=2</dc:source>
<dc:source>https://boxes.hackerspace-bamberg.de/FlexBox2?x=50&amp;y=50&amp;labels=0&amp;burn=0.05</dc:source>
<dc:description>Box with living hinge and top corners rounded

Created with Boxes.py (https://boxes.hackerspace-bamberg.de/)
Command line: boxes FlexBox2 --FingerJoint_style=rectangular --FingerJoint_surroundingspaces=2.0 --FingerJoint_bottom_lip=0.0 --FingerJoint_edge_width=1.0 --FingerJoint_extra_length=0.0 --FingerJoint_finger=2.0 --FingerJoint_play=0.0 --FingerJoint_space=2.0 --FingerJoint_width=1.0 --Flex_stretch=1.05 --Flex_connection=1.0 --Flex_distance=0.5 --Flex_width=5.0 --x=50 --y=50 --h=100.0 --outside=0 --outside=1 --radius=15 --latchsize=8 --thickness=3.0 --format=svg --tabs=0.0 --qr_code=0 --debug=0 --labels=0 --reference=100.0 --inner_corners=loop --burn=0.05
Command line short: boxes FlexBox2 --x=50 --y=50 --labels=0 --burn=0.05
Url: https://boxes.hackerspace-bamberg.de/FlexBox2?FingerJoint_style=rectangular&amp;FingerJoint_surroundingspaces=2.0&amp;FingerJoint_bottom_lip=0.0&amp;FingerJoint_edge_width=1.0&amp;FingerJoint_extra_length=0.0&amp;FingerJoint_finger=2.0&amp;FingerJoint_play=0.0&amp;FingerJoint_space=2.0&amp;FingerJoint_width=1.0&amp;Flex_stretch=1.05&amp;Flex_connection=1.0&amp;Flex_distance=0.5&amp;Flex_width=5.0&amp;x=50&amp;y=50&amp;h=100.0&amp;outside=0&amp;outside=1&amp;radius=15&amp;latchsize=8&amp;thickness=3.0&amp;format=svg&amp;tabs=0.0&amp;qr_code=0&amp;debug=0&amp;labels=0&amp;reference=100.0&amp;inner_corners=loop&amp;burn=0.05&amp;language=en&amp;render=2
Url short: https://boxes.hackerspace-bamberg.de/FlexBox2?x=50&amp;y=50&amp;labels=0&amp;burn=0.05
SettingsUrl: https://boxes.hackerspace-bamberg.de/FlexBox2?FingerJoint_style=rectangular&amp;FingerJoint_surroundingspaces=2.0&amp;FingerJoint_bottom_lip=0.0&amp;FingerJoint_edge_width=1.0&amp;FingerJoint_extra_length=0.0&amp;FingerJoint_finger=2.0&amp;FingerJoint_play=0.0&amp;FingerJoint_space=2.0&amp;FingerJoint_width=1.0&amp;Flex_stretch=1.05&amp;Flex_connection=1.0&amp;Flex_distance=0.5&amp;Flex_width=5.0&amp;x=50&amp;y=50&amp;h=100.0&amp;outside=0&amp;outside=1&amp;radius=15&amp;latchsize=8&amp;thickness=3.0&amp;format=svg&amp;tabs=0.0&amp;qr_code=0&amp;debug=0&amp;labels=0&amp;reference=100.0&amp;inner_corners=loop&amp;burn=0.05&amp;language=en&amp;render=2
SettingsUrl short: https://boxes.hackerspace-bamberg.de/FlexBox2?x=50&amp;y=50&amp;labels=0&amp;burn=0.05
</dc:description>
</cc:Work></rdf:RDF></metadata>
<g id="p-0" style="fill:none;stroke-linecap:round;stroke-linejoin:round;">
  <path d="M 10.000 174.800 H 110.000 V 164.800 H 10.000 V 174.800 Z" stroke="rgb(0,0,0)" stroke-width="0.10" />
  <text dominant-baseline="hanging" font-size="6px" style="font-family: sans-serif ; font-weight: normal; font-style: normal; fill: rgb(255,0,0)" text-anchor="middle" transform="matrix( 1.000 0.000 0.000 1.000 60.000 166.800 )">100.0mm, burn:0.05mm</text>
</g>
<g id="p-1" style="fill:none;stroke-linecap:round;stroke-linejoin:round;">
  <path d="M 19.000 159.450 H 25.500 C 25.528 159.450 25.550 159.428 25.550 159.400 V 156.450 C 25.550 156.400 25.500 156.450 25.550 156.450 H 31.450 C 31.500 156.450 31.450 156.400 31.450 156.450 V 159.400 C 31.450 159.428 31.472 159.450 31.500 159.450 H 37.500 C 37.528 159.450 37.550 159.428 37.550 159.400 V 156.450 C 37.550 156.400 37.500 156.450 37.550 156.450 H 43.450 C 43.500 156.450 43.450 156.400 43.450 156.450 V 159.400 C 43.450 159.428 43.472 159.450 43.500 159.450 H 49.500 C 49.528 159.450 49.550 159.428 49.550 159.400 V 156.450 C 49.550 156.400 49.500 156.450 49.550 156.450 H 55.450 C 55.500 156.450 55.450 156.400 55.450 156.450 V 159.400 C 55.450 159.428 55.472 159.450 55.500 159.450 H 61.500 C 61.528 159.450 61.550 159.428 61.550 159.400 V 156.450 C 61.550 156.400 61.500 156.450 61.550 156.450 H 67.450 C 67.500 156.450 67.450 156.400 67.450 156.450 V 159.400 C 67.450 159.428 67.472 159.450 67.500 159.450 H 73.500 C 73.528 159.450 73.550 159.428 73.550 159.400 V 156.450 C 73.550 156.400 73.500 156.450 73.550 156.450 H 79.450 C 79.500 156.450 79.450 156.400 79.450 156.450 V 159.400 C 79.450 159.428 79.472 159.450 79.500 159.450 H 85.500 C 85.528 159.450 85.550 159.428 85.550 159.400 V 156.450 C 85.550 156.400 85.500 156.450 85.550 156.450 H 91.450 C 91.500 156.450 91.450 156.400 91.450 156.450 V 159.400 C 91.450 159.428 91.472 159.450 91.500 159.450 H 98.000 H 121.562 H 135.562 H 159.124 C 159.152 159.450 159.174 159.428 159.174 159.400 V 156.150 C 159.174 156.100 159.124 156.150 159.174 156.150 H 171.674 C 171.724 156.150 171.674 156.100 171.674 156.150 V 159.400 C 171.674 159.540 171.711 159.678 171.781 159.800 C 171.851 159.922 171.952 160.023 172.074 160.093 C 172.196 160.163 172.333 160.200 172.474 160.200 C 172.591 160.200 172.707 160.169 172.808 160.110 C 172.910 160.052 172.994 159.967 173.053 159.866 C 173.112 159.764 173.143 159.649 173.143 159.531 C 173.143 159.431 173.169 159.333 173.219 159.247 C 173.269 159.160 173.341 159.089 173.427 159.039 C 173.513 158.989 173.612 158.963 173.711 158.963 C 173.811 158.963 173.909 158.989 173.996 159.039 C 174.082 159.089 174.154 159.160 174.204 159.247 C 174.254 159.333 174.280 159.431 174.280 159.531 C 174.280 159.649 174.311 159.764 174.370 159.866 C 174.428 159.967 174.513 160.052 174.615 160.110 C 174.716 160.169 174.831 160.200 174.949 160.200 C 175.066 160.200 175.182 160.169 175.283 160.110 C 175.385 160.052 175.469 159.967 175.528 159.866 C 175.587 159.764 175.618 159.649 175.618 159.531 C 175.618 159.431 175.644 159.333 175.694 159.247 C 175.744 159.160 175.816 159.089 175.902 159.039 C 175.988 158.989 176.087 158.963 176.186 158.963 C 176.286 158.963 176.384 158.989 176.471 159.039 C 176.557 159.089 176.629 159.160 176.679 159.247 C 176.729 159.333 176.755 159.431 176.755 159.531 C 176.755 159.649 176.786 159.764 176.845 159.866 C 176.903 159.967 176.988 160.052 177.090 160.110 C 177.191 160.169 177.306 160.200 177.424 160.200 C 177.541 160.200 177.657 160.169 177.758 160.110 C 177.860 160.052 177.944 159.967 178.003 159.866 C 178.062 159.764 178.093 159.649 178.093 159.531 C 178.093 159.431 178.119 159.333 178.169 159.247 C 178.219 159.160 178.291 159.089 178.377 159.039 C 178.463 158.989 178.562 158.963 178.661 158.963 C 178.761 158.963 178.859 158.989 178.946 159.039 C 179.032 159.089 179.104 159.160 179.154 159.247 C 179.204 159.333 179.230 159.431 179.230 159.531 C 179.230 159.649 179.261 159.764 179.320 159.866 C 179.378 159.967 179.463 160.052 179.565 160.110 C 179.666 160.169 179.781 160.200 179.899 160.200 C 180.016 160.200 180.132 160.169 180.233 160.110 C 180.335 160.052 180.419 159.967 180.478 159.866 C 180.537 159.764 180.568 159.649 180.568 159.531 C 180.568 159.431 180.594 159.333 180.644 159.247 C 180.694 159.160 180.766 159.089 180.852 159.039 C 180.938 158.989 181.037 158.963 181.136 158.963 C 181.236 158.963 181.334 158.989 181.421 159.039 C 181.507 159.089 181.579 159.160 181.629 159.247 C 181.679 159.333 181.705 159.431 181.705 159.531 C 181.705 159.649 181.736 159.764 181.795 159.866 C 181.853 159.967 181.938 160.052 182.040 160.110 C 182.141 160.169 182.256 160.200 182.374 160.200 C 182.514 160.200 182.652 160.163 182.774 160.093 C 182.896 160.023 182.996 159.922 183.067 159.800 C 183.137 159.678 183.174 159.540 183.174 159.400 V 109.400 C 183.174 109.260 183.137 109.122 183.067 109.000 C 182.996 108.878 182.896 108.777 182.774 108.707 C 182.652 108.637 182.514 108.600 182.374 108.600 C 182.256 108.600 182.141 108.631 182.040 108.690 C 181.938 108.748 181.853 108.833 181.795 108.934 C 181.736 109.036 181.705 109.151 181.705 109.269 C 181.705 109.369 181.679 109.467 181.629 109.553 C 181.579 109.640 181.507 109.711 181.421 109.761 C 181.334 109.811 181.236 109.838 181.136 109.838 C 181.037 109.838 180.938 109.811 180.852 109.761 C 180.766 109.711 180.694 109.640 180.644 109.553 C 180.594 109.467 180.568 109.369 180.568 109.269 C 180.568 109.151 180.537 109.036 180.478 108.934 C 180.419 108.833 180.335 108.748 180.233 108.690 C 180.132 108.631 180.016 108.600 179.899 108.600 C 179.781 108.600 179.666 108.631 179.565 108.690 C 179.463 108.748 179.378 108.833 179.320 108.934 C 179.261 109.036 179.230 109.151 179.230 109.269 C 179.230 109.369 179.204 109.467 179.154 109.553 C 179.104 109.640 179.032 109.711 178.946 109.761 C 178.859 109.811 178.761 109.838 178.661 109.838 C 178.562 109.838 178.463 109.811 178.377 109.761 C 178.291 109.711 178.219 109.640 178.169 109.553 C 178.119 109.467 178.093 109.369 178.093 109.269 C 178.093 109.151 178.062 109.036 178.003 108.934 C 177.944 108.833 177.860 108.748 177.758 108.690 C 177.657 108.631 177.541 108.600 177.424 108.600 C 177.306 108.600 177.191 108.631 177.090 108.690 C 176.988 108.748 176.903 108.833 176.845 108.934 C 176.786 109.036 176.755 109.151 176.755 109.269 C 176.755 109.369 176.729 109.467 176.679 109.553 C 176.629 109.640 176.557 109.711 176.471 109.761 C 176.384 109.811 176.286 109.837 176.186 109.837 C 176.087 109.837 175.988 109.811 175.902 109.761 C 175.816 109.711 175.744 109.640 175.694 109.553 C 175.644 109.467 175.618 109.369 175.618 109.269 C 175.618 109.151 175.587 109.036 175.528 108.934 C 175.469 108.833 175.385 108.748 175.283 108.690 C 175.182 108.631 175.066 108.600 174.949 108.600 C 174.831 108.600 174.716 108.631 174.615 108.690 C 174.513 108.748 174.428 108.833 174.370 108.934 C 174.311 109.036 174.280 109.151 174.280 109.269 C 174.280 109.369 174.254 109.467 174.204 109.553 C 174.154 109.640 174.082 109.711 173.996 109.761 C 173.909 109.811 173.811 109.837 173.711 109.837 C 173.612 109.837 173.513 109.811 173.427 109.761 C 173.341 109.711 173.269 109.640 173.219 109.553 C 173.169 109.467 173.143 109.369 173.143 109.269 C 173.143 109.151 173.112 109.036 173.053 108.934 C 172.994 108.833 172.910 108.748 172.808 108.690 C 172.707 108.631 172.591 108.600 172.474 108.600 C 172.333 108.600 172.196 108.637 172.074 108.707 C 171.952 108.777 171.851 108.878 171.781 109.000 C 171.711 109.122 171.674 109.260 171.674 109.400 V 112.650 C 171.674 112.700 171.724 112.650 171.674 112.650 H 159.174 C 159.124 112.650 159.174 112.700 159.174 112.650 V 109.400 C 159.174 109.372 159.152 109.350 159.124 109.350 H 135.562 H 121.562 H 98.000 H 91.500 C 91.472 109.350 91.450 109.372 91.450 109.400 V 112.350 C 91.450 112.400 91.500 112.350 91.450 112.350 H 85.550 C 85.500 112.350 85.550 112.400 85.550 112.350 V 109.400 C 85.550 109.372 85.528 109.350 85.500 109.350 H 79.500 C 79.472 109.350 79.450 109.372 79.450 109.400 V 112.350 C 79.450 112.400 79.500 112.350 79.450 112.350 H 73.550 C 73.500 112.350 73.550 112.400 73.550 112.350 V 109.400 C 73.550 109.372 73.528 109.350 73.500 109.350 H 67.500 C 67.472 109.350 67.450 109.372 67.450 109.400 V 112.350 C 67.450 112.400 67.500 112.350 67.450 112.350 H 61.550 C 61.500 112.350 61.550 112.400 61.550 112.350 V 109.400 C 61.550 109.372 61.528 109.350 61.500 109.350 H 55.500 C 55.472 109.350 55.450 109.372 55.450 109.400 V 112.350 C 55.450 112.400 55.500 112.350 55.450 112.350 H 49.550 C 49.500 112.350 49.550 112.400 49.550 112.350 V 109.400 C 49.550 109.372 49.528 109.350 49.500 109.350 H 43.500 C 43.472 109.350 43.450 109.372 43.450 109.400 V 112.350 C 43.450 112.400 43.500 112.350 43.450 112.350 H 37.550 C 37.500 112.350 37.550 112.400 37.550 112.350 V 109.400 C 37.550 109.372 37.528 109.350 37.500 109.350 H 31.500 C 31.472 109.350 31.450 109.372 31.450 109.400 V 112.350 C 31.450 112.400 31.500 112.350 31.450 112.350 H 25.550 C 25.500 112.350 25.550 112.400 25.550 112.350 V 109.400 C 25.550 109.372 25.528 109.350 25.500 109.350 H 19.000 C 18.972 109.350 18.950 109.372 18.950 109.400 V 112.400 V 119.350 C 18.950 119.400 19.000 119.350 18.950 119.350 H 16.000 C 15.972 119.350 15.950 119.372 15.950 119.400 V 125.400 C 15.950 125.428 15.972 125.450 16.000 125.450 H 18.950 C 19.000 125.450 18.950 125.400 18.950 125.450 V 131.350 C 18.950 131.400 19.000 131.350 18.950 131.350 H 16.000 C 15.972 131.350 15.950 131.372 15.950 131.400 V 137.400 C 15.950 137.428 15.972 137.450 16.000 137.450 H 18.950 C 19.000 137.450 18.950 137.400 18.950 137.450 V 143.350 C 18.950 143.400 19.000 143.350 18.950 143.350 H 16.000 C 15.972 143.350 15.950 143.372 15.950 143.400 V 149.400 C 15.950 149.428 15.972 149.450 16.000 149.450 H 18.950 C 19.000 149.450 18.950 149.400 18.950 149.450 V 156.400 V 159.400 C 18.950 159.428 18.972 159.450 19.000 159.450 Z" stroke="rgb(0,0,0)" stroke-width="0.10" />
  <path d="M 100.031 159.450 V 143.750 M 100.031 140.750 V 112.350 M 101.531 109.350 V 125.050 M 101.531 128.050 V 156.450 M 103.031 159.450 V 143.750 M 103.031 140.750 V 112.350 M 104.531 109.350 V 125.050 M 104.531 128.050 V 156.450 M 106.031 159.450 V 143.750 M 106.031 140.750 V 112.350 M 107.531 109.350 V 125.050 M 107.531 128.050 V 156.450 M 109.031 159.450 V 143.750 M 109.031 140.750 V 112.350 M 110.531 109.350 V 125.050 M 110.531 128.050 V 156.450 M 112.031 159.450 V 143.750 M 112.031 140.750 V 112.350 M 113.531 109.350 V 125.050 M 113.531 128.050 V 156.450 M 115.031 159.450 V 143.750 M 115.031 140.750 V 112.350 M 116.531 109.350 V 125.050 M 116.531 128.050 V 156.450 M 118.031 159.450 V 143.750 M 118.031 140.750 V 112.350 M 119.531 109.350 V 125.050 M 119.531 128.050 V 156.450" stroke="rgb(0,0,0)" stroke-width="0.10" />
  <path d="M 137.593 159.450 V 143.750 M 137.593 140.750 V 112.350 M 139.093 109.350 V 125.050 M 139.093 128.050 V 156.450 M 140.593 159.450 V 143.750 M 140.593 140.750 V 112.350 M 142.093 109.350 V 125.050 M 142.093 128.050 V 156.450 M 143.593 159.450 V 143.750 M 143.593 140.750 V 112.350 M 145.093 109.350 V 125.050 M 145.093 128.050 V 156.450 M 146.593 159.450 V 143.750 M 146.593 140.750 V 112.350 M 148.093 109.350 V 125.050 M 148.093 128.050 V 156.450 M 149.593 159.450 V 143.750 M 149.593 140.750 V 112.350 M 151.093 109.350 V 125.050 M 151.093 128.050 V 156.450 M 152.593 159.450 V 143.750 M 152.593 140.750 V 112.350 M 154.093 109.350 V 125.050 M 154.093 128.050 V 156.450 M 155.593 159.450 V 143.750 M 155.593 140.750 V 112.350 M 157.093 109.350 V 125.050 M 157.093 128.050 V 156.450" stroke="rgb(0,0,0)" stroke-width="0.10" />
</g>
<g id="p-2" style="fill:none;stroke-linecap:round;stroke-linejoin:round;">
  <path d="M 187.724 160.200 H 194.724 C 194.752 160.200 194.774 160.178 194.774 160.150 V 157.200 C 194.774 157.150 194.724 157.200 194.774 157.200 H 200.674 C 200.724 157.200 200.674 157.150 200.674 157.200 V 160.150 C 200.674 160.178 200.696 160.200 200.724 160.200 H 206.724 C 206.752 160.200 206.774 160.178 206.774 160.150 V 157.200 C 206.774 157.150 206.724 157.200 206.774 157.200 H 212.674 C 212.724 157.200 212.674 157.150 212.674 157.200 V 160.150 C 212.674 160.178 212.696 160.200 212.724 160.200 H 218.724 C 218.752 160.200 218.774 160.178 218.774 160.150 V 157.200 C 218.774 157.150 218.724 157.200 218.774 157.200 H 224.674 C 224.724 157.200 224.674 157.150 224.674 157.200 V 160.150 C 224.674 160.178 224.696 160.200 224.724 160.200 H 231.724 H 234.724 C 234.752 160.200 234.774 160.178 234.774 160.150 V 157.150 V 150.150 C 234.774 150.122 234.752 150.100 234.724 150.100 H 231.774 C 231.724 150.100 231.774 150.150 231.774 150.100 V 144.200 C 231.774 144.150 231.724 144.200 231.774 144.200 H 234.724 C 234.752 144.200 234.774 144.178 234.774 144.150 V 138.150 C 234.774 138.122 234.752 138.100 234.724 138.100 H 231.774 C 231.724 138.100 231.774 138.150 231.774 138.100 V 132.200 C 231.774 132.150 231.724 132.200 231.774 132.200 H 234.724 C 234.752 132.200 234.774 132.178 234.774 132.150 V 126.150 C 234.774 126.122 234.752 126.100 234.724 126.100 H 231.774 C 231.724 126.100 231.774 126.150 231.774 126.100 V 120.200 C 231.774 120.150 231.724 120.200 231.774 120.200 H 234.724 C 234.752 120.200 234.774 120.178 234.774 120.150 V 113.150 V 110.150 C 234.774 110.122 234.752 110.100 234.724 110.100 H 231.724 H 224.724 C 224.696 110.100 224.674 110.122 224.674 110.150 V 113.100 C 224.674 113.150 224.724 113.100 224.674 113.100 H 218.774 C 218.724 113.100 218.774 113.150 218.774 113.100 V 110.150 C 218.774 110.122 218.752 110.100 218.724 110.100 H 212.724 C 212.696 110.100 212.674 110.122 212.674 110.150 V 113.100 C 212.674 113.150 212.724 113.100 212.674 113.100 H 206.774 C 206.724 113.100 206.774 113.150 206.774 113.100 V 110.150 C 206.774 110.122 206.752 110.100 206.724 110.100 H 200.724 C 200.696 110.100 200.674 110.122 200.674 110.150 V 113.100 C 200.674 113.150 200.724 113.100 200.674 113.100 H 194.774 C 194.724 113.100 194.774 113.150 194.774 113.100 V 110.150 C 194.774 110.122 194.752 110.100 194.724 110.100 H 187.724 H 184.724 C 184.696 110.100 184.674 110.122 184.674 110.150 V 113.150 V 120.150 C 184.674 120.178 184.696 120.200 184.724 120.200 H 187.674 C 187.724 120.200 187.674 120.150 187.674 120.200 V 126.100 C 187.674 126.150 187.724 126.100 187.674 126.100 H 184.724 C 184.696 126.100 184.674 126.122 184.674 126.150 V 132.150 C 184.674 132.178 184.696 132.200 184.724 132.200 H 187.674 C 187.724 132.200 187.674 132.150 187.674 132.200 V 138.100 C 187.674 138.150 187.724 138.100 187.674 138.100 H 184.724 C 184.696 138.100 184.674 138.122 184.674 138.150 V 144.150 C 184.674 144.178 184.696 144.200 184.724 144.200 H 187.674 C 187.724 144.200 187.674 144.150 187.674 144.200 V 150.100 C 187.674 150.150 187.724 150.100 187.674 150.100 H 184.724 C 184.696 150.100 184.674 150.122 184.674 150.150 V 157.150 V 160.150 C 184.674 160.178 184.696 160.200 184.724 160.200 H 187.724 Z" stroke="rgb(0,0,0)" stroke-width="0.10" />
</g>
<g id="p-3" style="fill:none;stroke-linecap:round;stroke-linejoin:round;">
  <path d="M 19.000 104.100 H 25.950 C 26.000 104.100 25.950 104.050 25.950 104.100 V 107.050 C 25.950 107.078 25.972 107.100 26.000 107.100 H 32.000 C 32.028 107.100 32.050 107.078 32.050 107.050 V 104.100 C 32.050 104.050 32.000 104.100 32.050 104.100 H 37.950 C 38.000 104.100 37.950 104.050 37.950 104.100 V 107.050 C 37.950 107.078 37.972 107.100 38.000 107.100 H 44.000 C 44.028 107.100 44.050 107.078 44.050 107.050 V 104.100 C 44.050 104.050 44.000 104.100 44.050 104.100 H 49.950 C 50.000 104.100 49.950 104.050 49.950 104.100 V 107.050 C 49.950 107.078 49.972 107.100 50.000 107.100 H 56.000 C 56.028 107.100 56.050 107.078 56.050 107.050 V 104.100 C 56.050 104.050 56.000 104.100 56.050 104.100 H 63.000 C 63.028 104.100 63.050 104.078 63.050 104.050 V 97.600 C 63.050 97.550 63.000 97.600 63.050 97.600 H 66.000 C 66.028 97.600 66.050 97.578 66.050 97.550 V 91.550 C 66.050 91.522 66.028 91.500 66.000 91.500 H 63.050 C 63.000 91.500 63.050 91.550 63.050 91.500 V 85.600 C 63.050 85.550 63.000 85.600 63.050 85.600 H 66.000 C 66.028 85.600 66.050 85.578 66.050 85.550 V 79.550 C 66.050 79.522 66.028 79.500 66.000 79.500 H 63.050 C 63.000 79.500 63.050 79.550 63.050 79.500 V 73.600 C 63.050 73.550 63.000 73.600 63.050 73.600 H 66.000 C 66.028 73.600 66.050 73.578 66.050 73.550 V 67.550 C 66.050 67.522 66.028 67.500 66.000 67.500 H 63.050 C 63.000 67.500 63.050 67.550 63.050 67.500 V 61.600 C 63.050 61.550 63.000 61.600 63.050 61.600 H 66.000 C 66.028 61.600 66.050 61.578 66.050 61.550 V 55.550 C 66.050 55.522 66.028 55.500 66.000 55.500 H 63.050 C 63.000 55.500 63.050 55.550 63.050 55.500 V 49.600 C 63.050 49.550 63.000 49.600 63.050 49.600 H 66.000 C 66.028 49.600 66.050 49.578 66.050 49.550 V 43.550 C 66.050 43.522 66.028 43.500 66.000 43.500 H 63.050 C 63.000 43.500 63.050 43.550 63.050 43.500 V 37.600 C 63.050 37.550 63.000 37.600 63.050 37.600 H 66.000 C 66.028 37.600 66.050 37.578 66.050 37.550 V 31.550 C 66.050 31.522 66.028 31.500 66.000 31.500 H 63.050 C 63.000 31.500 63.050 31.550 63.050 31.500 V 25.050 C 63.050 22.408 62.355 19.813 61.034 17.525 C 59.713 15.237 57.813 13.337 55.525 12.016 C 53.237 10.695 50.642 10.000 48.000 10.000 H 34.000 C 31.358 10.000 28.763 10.695 26.475 12.016 C 24.187 13.337 22.287 15.237 20.966 17.525 C 19.645 19.813 18.950 22.408 18.950 25.050 C 18.950 25.022 18.972 25.000 19.000 25.000 H 16.000 C 15.972 25.000 15.950 25.022 15.950 25.050 V 37.050 C 15.950 37.078 15.972 37.100 16.000 37.100 H 18.950 C 19.000 37.100 18.950 37.050 18.950 37.100 V 49.050 V 55.500 C 18.950 55.550 19.000 55.500 18.950 55.500 H 16.000 C 15.972 55.500 15.950 55.522 15.950 55.550 V 61.550 C 15.950 61.578 15.972 61.600 16.000 61.600 H 18.950 C 19.000 61.600 18.950 61.550 18.950 61.600 V 67.500 C 18.950 67.550 19.000 67.500 18.950 67.500 H 16.000 C 15.972 67.500 15.950 67.522 15.950 67.550 V 73.550 C 15.950 73.578 15.972 73.600 16.000 73.600 H 18.950 C 19.000 73.600 18.950 73.550 18.950 73.600 V 79.500 C 18.950 79.550 19.000 79.500 18.950 79.500 H 16.000 C 15.972 79.500 15.950 79.522 15.950 79.550 V 85.550 C 15.950 85.578 15.972 85.600 16.000 85.600 H 18.950 C 19.000 85.600 18.950 85.550 18.950 85.600 V 91.500 C 18.950 91.550 19.000 91.500 18.950 91.500 H 16.000 C 15.972 91.500 15.950 91.522 15.950 91.550 V 97.550 C 15.950 97.578 15.972 97.600 16.000 97.600 H 18.950 C 19.000 97.600 18.950 97.550 18.950 97.600 V 104.050 C 18.950 104.078 18.972 104.100 19.000 104.100 Z" stroke="rgb(0,0,0)" stroke-width="0.10" />
</g>
<g id="p-4" style="fill:none;stroke-linecap:round;stroke-linejoin:round;">
  <path d="M 114.600 104.100 H 107.650 C 107.600 104.100 107.650 104.050 107.650 104.100 V 107.050 C 107.650 107.078 107.628 107.100 107.600 107.100 H 101.600 C 101.572 107.100 101.550 107.078 101.550 107.050 V 104.100 C 101.550 104.050 101.600 104.100 101.550 104.100 H 95.650 C 95.600 104.100 95.650 104.050 95.650 104.100 V 107.050 C 95.650 107.078 95.628 107.100 95.600 107.100 H 89.600 C 89.572 107.100 89.550 107.078 89.550 107.050 V 104.100 C 89.550 104.050 89.600 104.100 89.550 104.100 H 83.650 C 83.600 104.100 83.650 104.050 83.650 104.100 V 107.050 C 83.650 107.078 83.628 107.100 83.600 107.100 H 77.600 C 77.572 107.100 77.550 107.078 77.550 107.050 V 104.100 C 77.550 104.050 77.600 104.100 77.550 104.100 H 70.600 C 70.572 104.100 70.550 104.078 70.550 104.050 V 97.600 C 70.550 97.550 70.600 97.600 70.550 97.600 H 67.600 C 67.572 97.600 67.550 97.578 67.550 97.550 V 91.550 C 67.550 91.522 67.572 91.500 67.600 91.500 H 70.550 C 70.600 91.500 70.550 91.550 70.550 91.500 V 85.600 C 70.550 85.550 70.600 85.600 70.550 85.600 H 67.600 C 67.572 85.600 67.550 85.578 67.550 85.550 V 79.550 C 67.550 79.522 67.572 79.500 67.600 79.500 H 70.550 C 70.600 79.500 70.550 79.550 70.550 79.500 V 73.600 C 70.550 73.550 70.600 73.600 70.550 73.600 H 67.600 C 67.572 73.600 67.550 73.578 67.550 73.550 V 67.550 C 67.550 67.522 67.572 67.500 67.600 67.500 H 70.550 C 70.600 67.500 70.550 67.550 70.550 67.500 V 61.600 C 70.550 61.550 70.600 61.600 70.550 61.600 H 67.600 C 67.572 61.600 67.550 61.578 67.550 61.550 V 55.550 C 67.550 55.522 67.572 55.500 67.600 55.500 H 70.550 C 70.600 55.500 70.550 55.550 70.550 55.500 V 49.600 C 70.550 49.550 70.600 49.600 70.550 49.600 H 67.600 C 67.572 49.600 67.550 49.578 67.550 49.550 V 43.550 C 67.550 43.522 67.572 43.500 67.600 43.500 H 70.550 C 70.600 43.500 70.550 43.550 70.550 43.500 V 37.600 C 70.550 37.550 70.600 37.600 70.550 37.600 H 67.600 C 67.572 37.600 67.550 37.578 67.550 37.550 V 31.550 C 67.550 31.522 67.572 31.500 67.600 31.500 H 70.550 C 70.600 31.500 70.550 31.550 70.550 31.500 V 25.050 C 70.550 22.408 71.245 19.813 72.566 17.525 C 73.887 15.237 75.787 13.337 78.075 12.016 C 80.363 10.695 82.958 10.000 85.600 10.000 H 99.600 C 102.242 10.000 104.837 10.695 107.125 12.016 C 109.413 13.337 111.313 15.237 112.634 17.525 C 113.955 19.813 114.650 22.408 114.650 25.050 C 114.650 25.022 114.628 25.000 114.600 25.000 H 117.600 C 117.628 25.000 117.650 25.022 117.650 25.050 V 37.050 C 117.650 37.078 117.628 37.100 117.600 37.100 H 114.650 C 114.600 37.100 114.650 37.050 114.650 37.100 V 49.050 V 55.500 C 114.650 55.550 114.600 55.500 114.650 55.500 H 117.600 C 117.628 55.500 117.650 55.522 117.650 55.550 V 61.550 C 117.650 61.578 117.628 61.600 117.600 61.600 H 114.650 C 114.600 61.600 114.650 61.550 114.650 61.600 V 67.500 C 114.650 67.550 114.600 67.500 114.650 67.500 H 117.600 C 117.628 67.500 117.650 67.522 117.650 67.550 V 73.550 C 117.650 73.578 117.628 73.600 117.600 73.600 H 114.650 C 114.600 73.600 114.650 73.550 114.650 73.600 V 79.500 C 114.650 79.550 114.600 79.500 114.650 79.500 H 117.600 C 117.628 79.500 117.650 79.522 117.650 79.550 V 85.550 C 117.650 85.578 117.628 85.600 117.600 85.600 H 114.650 C 114.600 85.600 114.650 85.550 114.650 85.600 V 91.500 C 114.650 91.550 114.600 91.500 114.650 91.500 H 117.600 C 117.628 91.500 117.650 91.522 117.650 91.550 V 97.550 C 117.650 97.578 117.628 97.600 117.600 97.600 H 114.650 C 114.600 97.600 114.650 97.550 114.650 97.600 V 104.050 C 114.650 104.078 114.628 104.100 114.600 104.100 Z" stroke="rgb(0,0,0)" stroke-width="0.10" />
</g>
<g id="p-5" style="fill:none;stroke-linecap:round;stroke-linejoin:round;">
  <path d="M 122.200 104.100 H 129.150 C 129.200 104.100 129.150 104.050 129.150 104.100 V 107.050 C 129.150 107.078 129.172 107.100 129.200 107.100 H 135.200 C 135.228 107.100 135.250 107.078 135.250 107.050 V 104.100 C 135.250 104.050 135.200 104.100 135.250 104.100 H 141.150 C 141.200 104.100 141.150 104.050 141.150 104.100 V 107.050 C 141.150 107.078 141.172 107.100 141.200 107.100 H 147.200 C 147.228 107.100 147.250 107.078 147.250 107.050 V 104.100 C 147.250 104.050 147.200 104.100 147.250 104.100 H 153.150 C 153.200 104.100 153.150 104.050 153.150 104.100 V 107.050 C 153.150 107.078 153.172 107.100 153.200 107.100 H 159.200 C 159.228 107.100 159.250 107.078 159.250 107.050 V 104.100 C 159.250 104.050 159.200 104.100 159.250 104.100 H 166.200 H 169.200 C 169.228 104.100 169.250 104.078 169.250 104.050 V 97.550 C 169.250 97.522 169.228 97.500 169.200 97.500 H 166.250 C 166.200 97.500 166.250 97.550 166.250 97.500 V 91.600 C 166.250 91.550 166.200 91.600 166.250 91.600 H 169.200 C 169.228 91.600 169.250 91.578 169.250 91.550 V 85.550 C 169.250 85.522 169.228 85.500 169.200 85.500 H 166.250 C 166.200 85.500 166.250 85.550 166.250 85.500 V 79.600 C 166.250 79.550 166.200 79.600 166.250 79.600 H 169.200 C 169.228 79.600 169.250 79.578 169.250 79.550 V 73.550 C 169.250 73.522 169.228 73.500 169.200 73.500 H 166.250 C 166.200 73.500 166.250 73.550 166.250 73.500 V 67.600 C 166.250 67.550 166.200 67.600 166.250 67.600 H 169.200 C 169.228 67.600 169.250 67.578 169.250 67.550 V 61.550 C 169.250 61.522 169.228 61.500 169.200 61.500 H 166.250 C 166.200 61.500 166.250 61.550 166.250 61.500 V 55.600 C 166.250 55.550 166.200 55.600 166.250 55.600 H 169.200 C 169.228 55.600 169.250 55.578 169.250 55.550 V 49.050 C 169.250 49.022 169.228 49.000 169.200 49.000 H 166.200 H 122.200 H 119.200 C 119.172 49.000 119.150 49.022 119.150 49.050 V 55.550 C 119.150 55.578 119.172 55.600 119.200 55.600 H 122.150 C 122.200 55.600 122.150 55.550 122.150 55.600 V 61.500 C 122.150 61.550 122.200 61.500 122.150 61.500 H 119.200 C 119.172 61.500 119.150 61.522 119.150 61.550 V 67.550 C 119.150 67.578 119.172 67.600 119.200 67.600 H 122.150 C 122.200 67.600 122.150 67.550 122.150 67.600 V 73.500 C 122.150 73.550 122.200 73.500 122.150 73.500 H 119.200 C 119.172 73.500 119.150 73.522 119.150 73.550 V 79.550 C 119.150 79.578 119.172 79.600 119.200 79.600 H 122.150 C 122.200 79.600 122.150 79.550 122.150 79.600 V 85.500 C 122.150 85.550 122.200 85.500 122.150 85.500 H 119.200 C 119.172 85.500 119.150 85.522 119.150 85.550 V 91.550 C 119.150 91.578 119.172 91.600 119.200 91.600 H 122.150 C 122.200 91.600 122.150 91.550 122.150 91.600 V 97.500 C 122.150 97.550 122.200 97.500 122.150 97.500 H 119.200 C 119.172 97.500 119.150 97.522 119.150 97.550 V 104.050 C 119.150 104.078 119.172 104.100 119.200 104.100 H 122.200 Z" stroke="rgb(0,0,0)" stroke-width="0.10" />
</g>
</svg>