<?xml version="1.0" encoding="UTF-8"?>
<svg xmlns="http://www.w3.org/2000/svg" version="1.1" viewBox="0 0 2000 2000">
  <defs>
    <style>
      .cls-1 {
        fill: #f2c3b3;
      }

      .cls-2 {
        fill: #e4e1dc;
      }

      .cls-3 {
        fill: #bfbbb6;
      }

      .cls-4 {
        fill: #fff;
      }

      .cls-5 {
        fill: #cbddb6;
      }

      .cls-6 {
        fill: #efece8;
      }
    </style>
  </defs>
  <!-- Generator: Adobe Illustrator 28.6.0, SVG Export Plug-In . SVG Version: 1.2.0 Build 709)  -->
  <g>
    <g id="_x2014_ÎÓÈ_x5F_1">
      <rect class="cls-4" width="2000" height="2000"/>
      <ellipse class="cls-6" cx="934.4" cy="1332.8" rx="344.7" ry="40"/>
      <g>
        <g>
          <path class="cls-3" d="M1190.4,1692.6c1.4-1.6,3.6-3.2,3.7-4.9.4-5.3,5-7.1,7.4-10.7.8-1.1,2.1-2.1,2.4-3.4.3-1.3-3.4-4.1-5.1-4.3-1.2-.1-2.4-.1-4.3-.2-3.1-.4-6.5.5-10.2,2-3.7,1.5-5.8,4.1-8.3,6.6-1.5,1.6-2.6,3.8-3.4,5.9-.7,1.9,1.5,2.8,2.4,4.2,1,1.6,1.7,3.3,2.9,4.7,3.3,3.9,9.3,3.9,12.5.2Z"/>
          <path class="cls-3" d="M1109.3,1686c.6,1.1,1.4,2.6,3.3,2.4,1-.1,1.9,0,4.4.2,1.8-.2,5.1-.5,8.3-1.1,1.9-.3,4.4-3.2,4.6-4.9.3-2.7-2-4.5-3.5-5.1-2.3-.9-5.5-1-7.7,0-3,1.2-5.5,3.6-8,5.7-.8.6-1.7,2.2-1.4,2.8Z"/>
          <path class="cls-3" d="M1015.6,1674.8c2.8-.2,2.6-2.9,4.2-3.9-1.1-1.3-2-2.8-3.3-3.7-.8-.5-2.3-.5-3.3,0-2.3.9-4.4,2.2-6.7,3.1-1.8.7-3.7,1.1-2.9,3.7-.6,2.5.8,3.1,2.7,2.7,3.1-.5,6.2-1.6,9.3-1.9Z"/>
          <path class="cls-3" d="M1042.7,1682.5c.4-1.4-3.6-3.3-5.9-2.6-1.7.5-3.3,1.5-4.8,2.5-.5.3-.8,1.1-1.4,1.9.7.8,1.2,1.9,1.9,2.1,2.2.4,4.7,1,6.8.4,1.5-.4,2.9-2.5,3.4-4.2Z"/>
          <path class="cls-3" d="M1157.7,1706.4c.6-.6.5-2.3.1-3.3-.2-.5-1.7-.4-2.6-.7-2.7-.7-4,1.5-5.4,2.9-.7.7-.8,2.3-.7,3.3,0,.5,1.5.8,2.4,1.1,3.1.6,4.5-1.8,6.1-3.4Z"/>
          <path class="cls-3" d="M1190.8,1713.2c1.2-1.2.3-4.1-1.4-4.5-1.3-.3-5,2.1-5.2,4,0,.6,0,2.6.5,2.8,1.2.4,2.7.1,3.9-.3.9-.3,1.5-1.2,2.2-1.9Z"/>
          <path class="cls-3" d="M1079.5,1659.8c.7-2.8-.7-5.2-2.2-7.6-.3-.4-.6-.7-1-1.1-.3.3-.8.7-.8,1-.4,3.3-.5,6.6,1.8,9.4.4.5,1,.8,1.5,1.2.2-.4.5-.8.6-1.2.1-.5,0-1,.1-1.7Z"/>
          <path class="cls-3" d="M1062.7,1671.6c.5-.4,1.4-.3,1.8-.7.6-.5,1-1.3,1.1-2.1,0-.2-1-.7-1.7-1.1-.9.3-1.8.4-2.5.8-.6.4-.8,1.2-1.2,1.9.9.3.8,2.5,2.5,1.1Z"/>
          <path class="cls-3" d="M1079.8,1668.8c.8-.1,1.5-.6,2.2-1-.6-.8-1.1-1.5-1.9-2.6-1.1.8-2.2,1.1-2.4,1.7-.5,1.6.7,2.1,2.1,1.9Z"/>
        </g>
        <g>
          <path class="cls-1" d="M1333,1520.4c-1.8,2-.4,7.4,2.1,9,2.2,1.5,4.6,2.8,7.7,2.6,1.4-.2,2.7-.5,4.1-.6,3.3-.3,4.9-3.4,8.7-3.3,2.3,0,2.8-3.4.8-4.9-2.2-1.8-4.6-3.4-7-5-1.1-.7-3.1-1.7-3.6-1.4-2.4,1.6-5.2.4-7.6.9-1.9.4-4,1.4-5.2,2.7Z"/>
          <path class="cls-1" d="M1343.2,1537.2c-2.1.5-3.6,3-5,4.8-.4.5.2,1.7.7,2.4,2,3.2,4.3,6.2,8.8,5.5,1.6,0,2.6.3,3.5.1,3.4-.4,6.8-1.7,8-4.2.8-1.7-1.2-4.2-3.2-5.7-1.9-1.5-3.9-3.5-6.1-3.9-1.9-.3-4.6.4-6.7,1Z"/>
          <path class="cls-1" d="M1372.5,1586.6c-.8,2.3,2.5,2.5,4,3.5.9.6,2.1.7,2.5.8,1.3,0,1.8.2,2.2,0,2.7-1.1,5.3-2.3,7.9-3.4.7-.3,1.5-.6,2.3-.9-.6-.9-.9-2.1-1.8-2.5-2.7-1.4-6.2.4-8.9-1.7-.5-.4-2.6.3-3.6.8-1.7.9-4.2,1.9-4.7,3.3Z"/>
          <path class="cls-1" d="M1329.9,1533.9c0-.2-1.1-.4-1.3-.2-1.8,1.6-4.1.6-6.1,1.1-1.3.3-2.4,1.3-3.9.9,0,1.3-.4,2.6-.1,3.8.4,2.4,4.3,4.8,7,4.1,1.5-.4,2.8-1.5,4-2.4,1.7-1.2,0-2-.6-3.1-.4-.8,0-2,0-3,.3,0,.5,0,.8,0,0-.5.3-1,0-1.4Z"/>
          <path class="cls-1" d="M1335.8,1577.3c-.2,1.6,2,3.8,4,4.1,1.6.2,3.1-1.3,3.4-3.3.3-2.7-1-4.3-3.6-4.4-2.2,0-3.5,1.2-3.7,3.6Z"/>
          <path class="cls-1" d="M1335.5,1556.3c.5.7,1.1,1.4,1.9,1.8.5.3,1.3.2,2.2.4.4-.2,1.6-.5,1.6-.6-.3-.9-.6-2-1.3-2.6-.6-.4-1.9-.3-2.9-.2-.6.1-1.5,1-1.5,1.1Z"/>
          <path class="cls-1" d="M1374.6,1538.4c.8.2,1.8-.1,2.7-.2-.9-.8-1.6-1.6-2.6-2.2-.2-.1-1,.4-2.2.9,1,.7,1.5,1.4,2.1,1.6Z"/>
          <path class="cls-1" d="M1385.6,1527.5c.3.1,1-.4,2.2-.9-1-.7-1.5-1.3-2.2-1.5-.4,0-1,.5-1.5.8.5.5.8,1.2,1.5,1.6Z"/>
        </g>
        <g>
          <path class="cls-2" d="M927.1,1705c.7-1.3,1-3,1.8-4.2,3.1-4.3,3.3-5.9-.7-8.7-2.4-1.7-3.6-3.2-3.7-6.2-.2-2.9-2.4-4.7-4.6-4.2-2.7.6-5.3,1.7-7.1,2.3-3.6,2.2-3.7,2.2-4.6,6.7-.3,1.4-.6,3.4,0,4.4,1.1,1.5,3.4,3.8,4.5,3.5,5.8-1.8,6.7,2.8,8.4,6,.4.8-.6,2.2,1.4,2.5,2.2.4,3.6-.4,4.5-2.2Z"/>
          <path class="cls-2" d="M875,1672.8c.4,0,1-1.1,1.2-1.8,1.7-4.9,7.3-6.2,9.7-10.5.9-1.6,5.1-1.7,3.8-4-2.1-3.6-3.8.9-5.7,1.4-1.2.3-2,2.1-3.1,3.2-.5.6-1.1,1.1-1.8,1.5-1.1.6-2.3,1.7-2-1.1.2-2.1-2.1-4.2-.6-6.7.2-.3,0-.9,0-1.2-.3,0-.6-.3-.8-.2-.5.2-1.3.5-1.3.8-.6,2.8-1.2,5.7-1.4,8.5-.2,2.6.3,5.5-2.4,7-3,1.7-5.6,3.7-7.6,6.5-1.1,1.6-4.4,1.2-3.9,4.1.3,1.7,3,1.4,5.9-1.6,2.9-3,5.1-6.5,10-6.1Z"/>
          <path class="cls-2" d="M912.9,1664.8c-1.6,2.4-1.1,4.6-.2,6.8,1,2.4,3.1,2,5.2,1.7,5.6-.6,6.6-1.2,7.7-6.6.4-1.7.3-3.4.5-5.4-1.4-.6-2.3-1.1-3.2-1.3-4.6-1-7.1.5-10,4.8Z"/>
          <path class="cls-2" d="M877,1648.6c.1-2.2.3-4.4.3-6.6,0,0-.5-.2-.7-.2-.5.1-1.3.4-1.3.6,0,2.1.3,4.2.5,6.3,0,0,.5.1.7.2.1,0,.4-.2.4-.3Z"/>
          <path class="cls-2" d="M899.7,1628.3c-.1,1.4-.4,2.3-.2,3.1.1.4,1.2.5,1.8.7.3-.8.8-1.6.8-2.4,0-.3-1.1-.7-2.3-1.4Z"/>
        </g>
        <g>
          <path class="cls-2" d="M1234.1,1699.7c.9,1.2,2.2,2.2,2.9,3.5,2.5,4.7,3.8,5.6,8.1,3.3,2.6-1.4,4.5-1.8,7.2-.6,2.7,1.1,5.2,0,5.8-2.3.7-2.7.9-5.5,1.1-7.4-.3-4.2-.3-4.3-4-7.1-1.2-.9-2.8-2.1-4-1.9-1.9.3-4.9,1.4-5.1,2.5-.9,6-5.5,4.7-9.1,4.9-.9,0-1.7-1.5-2.9.1-1.3,1.8-1.2,3.4,0,5Z"/>
          <path class="cls-2" d="M1276.4,1705c-1.4-2.5-3.6-3-6-3.2-2.6-.2-3.1,1.9-3.9,3.9-1.9,5.3-1.8,6.4,2.5,9.8,1.3,1.1,2.9,1.8,4.6,2.9,1.2-1,2-1.5,2.6-2.3,2.9-3.7,2.7-6.6.2-11.1Z"/>
          <path class="cls-2" d="M1315,1709.5c-1.2-.8-1.9-1.4-2.7-1.6-.4,0-1,.8-1.5,1.3.6.6,1.1,1.4,1.9,1.8.3.1,1.1-.7,2.3-1.5Z"/>
        </g>
        <g>
          <path class="cls-1" d="M646.3,1578.3c-6.1,4.5-13,7.8-19.1,12.4-2.5,1.9-1.4,3.5-.9,5,.4,1.1,2.1,1.7,4.2,3.2,1,.2,3.1.6,5.1,1.2,2.8.9,5.7,1.5,8.2,3,3.3,1.9,6.6,2.3,10.1,1.4,2.2-.5,4.2-1.2,6.3.5,1.1.8,4-2.5,3.1-3.4-2.4-2.2-1.1-3.7,0-5.6.7-1.1,1.5-2.4,1.6-3.7,0-5.1-5.4-13.4-10.3-14.6-2.6-.6-5.5-1.6-8.4.6Z"/>
          <path class="cls-1" d="M659.3,1608.1c-3.1.6-5.2,1.9-6.5,4.7-.6,1.5-1.9,3.3-1.5,4.5.8,2.4,2.2,4.9,4,6.6,1.1,1.1,3.4,1,5.2,1.3,1.3.2,2.6.3,3.9.3,2.8,0,7.8-3.6,8.3-5.8.9-3.6-1.2-10.1-4-11.4-3-1.4-6.2-.9-9.5-.3Z"/>
          <path class="cls-1" d="M632.5,1685.2c-7.9,1.4-15.5,3.5-22.5,7.5-2.2,1.3-1.4,2.7-1.1,4.2.4,1.8,1.6,2,3.1,1.6,1.9-.5,4-1.4,5.7-1.1,3.2.6,6.1.4,8.1-2.3,2.2-2.9,5.8-1.5,8.2-3.4.6-.5.9-1.4,1.8-2.8,0-.3.7-1.8.2-2.2-.9-.9-2.5-1.8-3.6-1.6Z"/>
          <path class="cls-1" d="M665.2,1678.8c-1.9.4-3.9.8-5.7,1.5-1.1.4-2.1,1.5-3.2,2.3.2,2.2-.4,5,.7,6.9.9,1.5,3.1,3.3,5.8,2.4,1.1-.4,2.2-.5,3.3-.8,4.1-1.1,5.8-3.7,5.2-7.7-.4-2.8-3.5-5-6.2-4.5Z"/>
          <path class="cls-1" d="M690.5,1672.4c-.6.3-.9,1.4-1.4,2.1-1.9,2.1-2.3,4.6-.3,6.6,2,2,4.4,1.9,6.5-.3.3-.4.9-.5,1.4-.7,2.1-.8,3.3-2.3,2.6-4.4-.6-1.9-1.5-4.8-2.8-5.2-1.7-.5-4.1,1-6,1.9Z"/>
          <path class="cls-1" d="M679,1632.4c-.8,1.7-.3,2.6,1.2,3.1,1,.3,2.1.3,4,.5-.2-2.7-.3-4.4-.4-6.2-1.8.5-3.7.5-4.8,2.6Z"/>
          <path class="cls-1" d="M622.1,1630.1c.4-.1.3-1.6.4-2.2-2-1-3.4-2.9-4.7-.3-.5,1.1-2.2,2.5-.2,3.3,1.2.5,3-.2,4.5-.7Z"/>
          <path class="cls-1" d="M685.4,1574.5c-.8-.3-1.7-.3-2.5-.4-.2,1.2-.3,1.7-.4,2.2,1.2-.1,2.4-.3,3.6-.4-.2-.5-.3-1.2-.7-1.3Z"/>
        </g>
        <path class="cls-1" d="M1127.8,1422.7h28.9c.5-3.9,1.3-8.8,1.8-13.7.4-4.2.6-8.4.3-12.6-.6-9.6,1.6-13.2,13.1-12.5,5.1.3,10.1,1.2,15.2,2.2,3.4.6,4.5,3.6,4.6,6.6.2,4.5,0,9,0,13.5,0,6.4,0,12.8,0,19.1,5.7,2.7,13.2-1.6,16.9,5.7-2.1,10.6-10.9,8.6-18.7,9.3-.7,2.2-1.5,4.2-1.9,6.3-.4,2.5-.5,5.2-.3,7.7.9,11.3,0,22.5-2,33.6-2.6,14.1-1.2,28.2-1.7,42.3-.2,7.3-1,14.7-1.4,22-.1,1.9.3,3.8.4,5.7.3,4.8.8,9.6.6,14.4-.2,9.7-1.3,19.4-1.2,29.1.1,9.9,1.2,19.8,2,31.2,4.4-3.9,6.1-7.2,7.6-11.2,5.9-15,8.8-30.7,13.2-46.1,2-7.1,4.4-14.1,5.8-21.3,2.3-11.9,3.6-24.1,5.9-36,3.2-16.8,7.3-33.3,17.6-47.4,8-10.9,17.8-19.3,31.9-21.3,9.1-1.3,15.7,2.7,20.4,9.5,2.8,4.1,4.5,9.3,5.2,14.3,1.7,12-2.7,19.3-17.7,26.5-4,1.9-8.4,3-13.4,4.7-1.9,15.8-3.8,31.6-5.8,47.4-1.4,11.4-2.7,22.9-4.3,34.3-1.7,11.9-.5,23.5,2.2,35,.7,3,1.5,5.7,4.8,6.6,3.8,1,6.2-1.4,8.2-3.9,5.9-7.3,7.8-16.2,8.6-25.1,1.1-13.2,0-26.3-3.9-39.1-2.2-7.1-1.7-8.1,4.6-13,5,4.6,5.9,11.2,7,17.2,1.8,9.9,3.7,20.2,3.2,30.1-.7,13.4-3.7,26.5-14.4,36.5-12.9,12-46.7,9.4-54.3-13.6-2.3-7-4.5-13.9-7-21.6-2.2,7.7-4.5,15.1-6.5,22.6-1.9,6.9-5.1,13.1-9.6,18.7-6.2,7.6-20.1,7.6-24.7-5.3-3.7-10.5-6-21.5-6.5-32.9-.6-13.7-2.5-27.4-4-42.5-4.8,6.9-5.8,13.8-7.3,20.3-2.5,11-4.8,21.9-9.5,32.2-1.2,2.6-1.9,5.5-2.2,8.4-.8,8.3-4.7,15.3-8.8,22.2-5,8.4-21,7.7-25.4-1-2.1-4.2-3.5-8.9-4.5-13.6-2.5-11.5-4.6-23.2-7-35.9-1.2,1.8-2.3,2.8-2.6,4-2.2,8-4.6,16-6.1,24.2-1.9,10.6-7.4,19.1-14.6,26.6-5.5,5.7-16.6,8.8-23.6,2.1-.7-.7-1.6-1.2-2-2-4.6-9.1-10-17.8-10.1-28.7-.2-13.4-1.6-26.8-2.5-41.6-2.3,5.6-4.4,9.9-5.9,14.4-3.8,11.5-6.8,23.3-11.1,34.7-4,10.4-8.8,20.7-14.2,30.5-4.2,7.4-11.1,10.7-20.3,10.3-18-.8-27.8-8.8-33-26.5-3.3-11.2-3.7-22.8-5.1-34.1-1.4-11.4-2.3-23.1-1.8-34.6.8-20.5,1.3-41.1,7.1-61,1.9-6.4,4.1-12.8,6.8-18.9,3.1-7,9.1-11.7,15.3-15.7,4.3-2.7,9.1-4.8,13.9-6.5,12.8-4.5,22.4-.9,29.3,10.5,2.1,3.6,4.2,7.2,6.3,10.8,6.2,10.3,4.3,21,1.4,31.6-.6,2.1-3.3,3.5-4.8,5.1-3.3-1.2-4.1-2.7-3.5-5.5,1.9-9.2,2.2-18.6-1.3-27.5-2.1-5.5-4.5-11.5-11.2-12.9-4.4,1.2-5.9,4.5-7.1,7.8-3.6,10-6.5,20-6.8,30.9-.3,14.4-1.1,28.8-2.1,43.3-.8,12.8-2.1,25.5-3.2,38.3-.1,1.6,0,3.2,0,4.8.6,6.7,1.2,13.4,1.7,20.1.7,9,1.1,17.9,1.9,26.9.2,1.7,1.4,3.3,2.5,5.8,7.5-8.8,13-18,16.3-27.9,4.8-14.3,11.9-27.7,17-41.8,3.3-9,6.5-18.1,9.4-27.2.8-2.4.6-5,.8-7.6.8-12.2,1.4-24.4,2.3-36.5.2-2.7,1.6-5.3,2.4-7.8,10.4-2,19.3,1.4,28.1,3.9,7,2,10,8.5,8.8,15.7-.2,1.3-.6,2.6-.4,3.8,1.2,9.6,0,18.9-2,28.3-.5,2.5-.2,5.1-.2,7.7,0,1.8.4,3.7,0,5.4-2.7,10.7-1.9,21.7-2,32.6,0,8.6.6,17.3-1.8,25.8-.3,1.1.1,2.5.3,4.8,1.8-1.5,3-2.3,3.8-3.4.9-1.3,1.9-2.7,2.2-4.2,3.4-15.4,11.5-29.1,15.2-44.4,2.7-10.9,6.5-21.6,4.8-32.8-.8-5.3,0-10.2.8-15.2.3-1.7,1.6-4.3,2.8-4.6,5.2-1.2,10.7-2.4,16-2.4,3.8,0,7.1,2.4,8,7.1,4.2,21.6,4.3,43.4,3.5,65.3-.1,3.2-1.3,6.3-1.1,9.4.5,7.2,1.5,14.4,2.4,22.8,3.9-5.5,5.3-10.7,6.9-15.7,4.6-14,9-28,13.6-42,1.2-3.7,2.4-7.4,4.1-10.8,5.8-11.5,7.7-23.7,7.7-36.4,0-28.7-.2-57.4-.3-86,0-1.2-.3-2.5-.3-2.9-9-4.3-17.4-8.1-25.6-12.2-1.2-.6-2-2.2-3-3.4l-.2.2ZM1277,1466.8c-9.8,6.9-13.3,16.7-13.7,29.2,4.6-1.9,8.1-3.4,11.7-4.7,5.9-2.2,7.9-7.2,9.3-12.5,1.5-5.8,0-8.2-7.3-11.9Z"/>
        <path class="cls-1" d="M749.9,1494.2c9.1-2.6,28.7-2.1,36.4.3,6.3,2,10.5,5.4,12.4,12,2.2,7.5,5.3,14.8,8.3,23,5.4-5.5,11.6-10.3,15.7-16.4,3-4.5,3.2-10.9,4.7-16.4,1.4-5.2,2.2-10.8,4.3-15.7,6.3-14.6,18-23,33-27.1,12.9-3.6,23.5,5.8,24.6,17.4.4,4.5.5,9.1,0,13.5-1.1,9.4-5.1,17.1-13.7,21.9-3.3,1.9-6.7,3.8-10.7,6.1-.2,2-.6,4.4-.8,6.9-1.7,23.1-2.8,46.1-3.3,69.3-.3,14.6.2,29,3,44.1,5.7-5.4,5.3-12.2,6.9-18.2,1.5-5.6,2.7-11.2,4.5-16.7.6-1.7,2.7-2.9,4.3-4.5,3.9,2.7,5.6,5.7,5.2,9.4-1.1,11.1-1.6,22.4-6.6,32.7-3.9,8-10.2,11.5-19,12.7-11.7,1.5-19.3-2.9-25.7-12.6-6.7-10.3-9.6-21.4-11-33.3-2.5-21.9-1.1-43.7-1.1-65.6,0-1.9,0-3.8,0-7.9-5.3,6.2-9.4,10.8-13.2,15.6-.8,1.1-.7,3.1-.7,4.6,0,4.5.2,9,.2,13.5,0,15.5-1.5,30.6-7.5,45.1-1.9,4.7-3,9.8-3.9,14.8-.9,5.5-3.9,10.1-5.9,15.2-3.8,9.5-10.9,16.5-17.5,23.9-1,1.2-2.5,2-3.8,2.9-8.6,5.7-16,2.9-18.6-7.3-2.4-9.2-2.5-18.6-1.2-27.8,3.1-21.9,11.3-41.9,23.2-60.6,1.3-2,2-4.7,2.2-7.1.3-5.1.6-10.4,0-15.4-1.3-10.4-1.2-21.2-5.6-31-1-2.3-2.3-4.5-3.7-7.3-6.3,2.4-10.7,6.4-13.7,11.8-4.9,8.8-6.9,18.5-7.6,28.4-1.1,14.7-1.3,29.5-3,44.1-1.8,15.2-2.7,30.5-4.4,45.8-1,9.3-1.8,18.5-1.5,27.7.1,4.5-1.9,7.3-5.7,10-6.7-4.3-11.1-9.7-10.2-18.5.3-3.1-.6-6.3-.9-9.5-1.4-14-2.7-28.1-4.1-42.1-.6-6.1-1.5-12.1-2.1-18.1-.6-5.4-1.4-10.8-1.3-16.2.2-15.8-.9-31.4-3.2-47-.2-1.6-.2-3.2-.2-4.8.2-27.4.4-54.8.8-82.1,0-4.4.8-8.9,1.7-13.3,1-4.9,5.9-8,11-6.8,7.5,1.7,14.9,3.5,22.3,5.8,8.4,2.5,11,7.6,9.6,17-.4,2.5-.7,5.1-.7,7.7,0,13.8-1.8,27.4-3.5,41.1-.2,1.7.9,3.5,1.4,5.3ZM760,1649.5c8.3-6.7,13.3-14.4,14-23.6,1.1-13.7,1.4-27.5,2-41.3,0-.9-.6-1.9-1.4-4.2-1.4,2.4-2,3.4-2.6,4.5-6.4,12.3-10.7,25.3-13.5,38.8-1.3,6.2-1.6,12.7-2.2,19-.3,2.8.7,5.1,3.8,6.8ZM866.4,1501.1c10.2-3.9,15.8-11.3,15.4-20.2,0-2-1-4.5-2.5-5.7-2.5-2.1-4.7.5-6.8,1.8-.8.5-1.6,1.3-1.9,2.2-2.4,6.8-6.4,13.3-4.3,21.9Z"/>
      </g>
      <g>
        <path class="cls-5" d="M1236.3,1163.5c-2.1-18.6-1.7-37.3-1.2-55.9.5-22,1.1-44.1,1.6-66.1.5-22.4,1.1-44.8,1.6-67.1.3-11,.5-22,.8-33.1,0-2.8.1-5.5.2-8.3,0-1.4,1-7.4.2-8.3-1.7-1.8-11.3,3.2-13.7,4.1-.4.2-.8-.2-.8-.6-4.6-61.1-9.2-122.2-13.9-183.3-26.5,69.2-35,144.6-24.3,217.9,0,.7-.6,1.1-1.1.6-2.2-1.7-4.4-3.5-6.5-5.2-.8,20.7-.2,41.4,1.8,62,7.2,73.9,32.3,145.6,72.8,207.8,0-3.1,0-6.2,0-9.3,0,0,0,0-.1-.1-10.4-16.7-15.4-35.8-17.5-55.1Z"/>
        <path class="cls-1" d="M1197.7,436.1c0,0,.1,0,.2.1,13.1,9.7,27.7,14.4,43.9,15.4-2.6-22.6-10.9-44.2-26.8-61.1-8.2,14.3-13.6,29.7-17.3,45.6Z"/>
        <path class="cls-4" d="M1214.9,384.1s0,0,0,0c0,0,0,0,0,0,23.5-23.1,24.2-64.1,6.9-91-19.6-30.5-59.3-41.3-91.9-26,13.5,6.3,26.1,14.7,37.2,25.1,25.8,24.1,43.5,57,47.7,92.1Z"/>
        <path class="cls-4" d="M1213.8,385c-4.6-40.2-27.2-77.9-59.4-102.2-31.3-23.6-72-32.9-110.7-26.7-9.5,1.5-18.9,4-28,7.3-9.6,3.6-20.1,8.1-27.9,14.9-9,7.8-13.4,22.1-2.4,30.2,9.2,6.8,20.9,4.7,31.2,2.3,39.2-9,79-6,115.8,10.8,30.9,14.1,61.8,34.9,80.7,63.7.2-.2.4-.3.6-.5Z"/>
        <path class="cls-5" d="M1336,1204.1c-31.1,15.9-55.7,42.4-68.4,75,0,0,0,0,0,0,.5,9.6,1.1,19.3,1.9,28.9,14.6-39,39-73,66.5-104Z"/>
        <path class="cls-5" d="M1307.8,946.9c11.5-36.9,25.5-72.9,39.9-108.7,28.6-71.5,58.7-143.7,69.4-220.5,9.5-68,4.9-146.5-41.2-201.5-21.2-25.2-51.3-44.5-84.1-49.6-27.1-4.2-55.1,1.9-76.6,19,.1.9.2,1.8.3,2.7.5-.2.9-.4,1.4-.6,4.7-3.9,9.7-7.4,15.2-10.1,25.1-12.6,55.1-10.5,80.7-.6,27.9,10.8,50.8,30.9,66.6,56.2,36.8,58.6,37.1,134.4,25.6,200.4-13.4,77.2-44.9,149.4-73.6,221.8-14.4,36.4-28,73.1-38.8,110.7-10.7,37-19.1,74.7-25.2,112.8-12.3,76.5-15.2,154.4-8.6,231.6,3.2,0,6.5,0,9.7,0-.8-9.2-1.4-18.4-2-27.7-4.2-75.4.6-151.3,14.3-225.5,6.8-37.3,15.9-74.1,27.2-110.3Z"/>
        <path class="cls-4" d="M1216.4,389.8s0,0-.1,0c28.1,30.2,32.6,75.8,23.9,114.6-4.6,20.6-12.7,40.2-21.8,59.1,0,0,0,0,0,0,0,0,0,0,0,0-.5,1-1,2-1.5,3-5.1,10.4-10.6,20.7-16.1,30.9-5.5,10.3-12.2,20.7-14.5,32.3-2.3,11.5.9,23.7,11.6,29.8,8.3,4.7,18.9,5.1,27.8,2,20.9-7.3,34.3-29.9,44-48.4,21.6-40.9,29-88.5,20.6-134-4.2-22.6-12.1-44.6-23.5-64.6-5.3-9.2-11.8-18.6-21.7-23.3-8-3.8-18.9-5.9-27.5-2.6-.4.3-.8.6-1.1,1Z"/>
        <path class="cls-4" d="M1264.4,408.5c14.5,22.3,23.6,48.9,27.9,75.1,2.4,14.9,3.2,30,2.3,44.9,12.5-10.5,21.5-24.6,26-40.4,8.1-28.3,1.5-59.8-21.2-79.5-18.9-16.5-45.7-25-70.8-22.6,4.8.2,9.6,1.4,13.8,2.9,9.6,3.6,16.6,11.1,22.1,19.5Z"/>
        <path class="cls-5" d="M1369.8,901.7c0,.6-.7.9-1.1.5-3-2.8-6.1-5.6-9.1-8.3-1-1-2.5-3.2-4.1-2.5-.7.3-1.3,4.3-1.5,4.9-2.2,7.3-4.4,14.5-6.6,21.8-4.4,14.5-8.8,29-13.2,43.5-8.9,29.3-17.8,58.7-26.7,88-.2.6-.9.6-1.2.2-3-3.9-6-7.9-9-11.8-11.3,61.7-18.4,124.1-29.3,185.8,2.3-5.1,5.2-9.9,7.9-14.9,4.4-8,8.6-16,13.8-23.6,10-14.8,21.8-28.3,33.7-41.6,12.4-13.9,25.1-27.7,36.2-42.8,5.3-7.2,10.3-14.7,14.6-22.6,1.2-2.1,2.3-4.2,3.3-6.4.5-1,3.4-5.5,3-6.5-.9-2.5-10.8-3-13.3-3.4-.4,0-.6-.6-.4-1,16.5-24.8,30.2-51.3,40.8-79.2,5.1-13.5,9.5-27.3,13.1-41.3,1.8-7.1,3.5-14.3,4.9-21.6.3-1.7.9-3.7,1-5.4.2-2.7.4-2.3-2.3-1.8-3.8.7-7.6,2.1-11.4,3.1-.5.1-.9-.3-.8-.8,5.6-18.6,11.1-37.1,16.4-55.8,18.3-63.7,34.9-127.9,49.9-192.5-7.8,16.1-17.2,31.2-28.4,45.2-43.9,55.1-72.3,120.5-80.2,190.7Z"/>
        <path class="cls-4" d="M1217.1,563.1s0,0,0,0c7.6-15.8,14.5-32,19.2-48.9,3.7-13.2,6-27.3,6.4-41.5-21,4.5-37.1,23.5-44.5,42.9-4.2,10.9-5.7,23-4.2,34.6.7,5.3,2.1,11.2,6.1,15,5.2,4.9,13.1,3.8,17-2.1Z"/>
        <path class="cls-3" d="M1175.6,416.9c-4.9-4.7-8.8-9.9-11.8-15.4-28.2,18.7-52.7,43.3-70.4,72.2-9,14.8-19.5,35.5-3.3,49.5,12.8,11.1,35.1,5.9,40.8-10.3,0-.1.1-.2.2-.3,1.6-22.2,7.4-44.3,18.8-63.1,7.1-11.9,16-22.7,25.8-32.5Z"/>
        <path class="cls-1" d="M1176.5,416c10.6-10.5,22.3-19.9,34.4-28.5.4-.4.9-.7,1.3-1.1-13.1-16-29.2-29.2-47.2-39-4.3,8.6-6.9,18.1-7,27.7,0,0,0,0,0,0,0,1.8,0,3.5.2,5.3,1.3,13.9,8.4,25.9,18.3,35.5Z"/>
        <path class="cls-3" d="M1091.4,403.4c-18,8.2-35.1,18.8-50.2,31.6-7.4,6.3-15.6,13.2-21.1,21.2-4.2,6.1-5.7,17.5,4.8,17.3,5,0,9.7-2.8,13.9-5.3,40.9-23.7,81.6-47.8,122.5-71.7-1.6-3.7-2.7-7.6-3.5-11.5-23,2.6-45.5,8.8-66.5,18.4Z"/>
        <path class="cls-2" d="M1124.6,332c-31.5-7.4-64.6-4.5-94.5,7.6-15.3,6.2-29.8,14.7-42.5,25.3-6.1,5-11.8,10.5-17.1,16.5-5.7,6.4-12.8,14.1-12.4,23.2,1.1,22.7,36.8,6.7,47.7,2.6,16.9-6.4,33.4-14.1,50.2-20.8,31.7-12.6,67.1-22.3,100.8-12,0-9.2,2.3-18.6,6.8-27.6-12.3-6.6-25.5-11.6-39.1-14.8Z"/>
        <path class="cls-4" d="M1153.1,584.9c5.9-3.7,10.2-11.7,13.6-17.6,3.6-6.2,6.6-12.8,9-19.6,9.4-26,11-53.5,14.8-80.6,3.8-26.9,9.8-54,23.5-77.7-.4-.6-.8-1.3-1.2-1.9-.4.3-.8.7-1.2,1,0,0,0,0,0,0,0,0,0,0,0,0-25.3,18-49.8,40.2-64.3,68-14,26.8-17.7,59.5-14.1,89.2.9,7.7,5.6,48.2,20,39.1Z"/>
        <path class="cls-2" d="M1193.6,526.9c3.2-16.3,12.7-33.4,26.2-44.4,0,0,0,0,0,0,2.3-10.6,4.2-21.2,5.7-31.9-3.3-.8-6.6-1.8-9.8-3-8.7,7.6-16.9,15.8-24.4,24.6-1,7.2-1.8,14.5-2.7,21.7-3.4,28.4-8.9,58.1-25.7,82-5.1,7.3-14.3,18-21.7,6.8-.3-.4-.5-.8-.7-1.2-1.3,8-2.7,18,3.3,24.3,7.4,7.8,19.5,3.4,25.9-3.3,5.6-5.8,9.4-13.4,13.1-20.5,4.1-7.7,7.9-15.6,11.5-23.5-3.7-9.6-2.6-22.2-.7-31.4Z"/>
        <path d="M1479.9,659.6c-7.9,17.4-17.8,33.9-29.6,49-10.5,13.3-20.6,26.7-29.5,41.2-18.1,29.4-32,61.3-41.2,94.6-5.1,18.4-8.7,37.1-10.9,56-4.2-3.9-8.5-7.7-12.7-11.6-.4-.3-.9-.2-1.1.3-16.1,53-32.2,106-48.3,159-3.1-4-6.1-8-9.2-12-.3-.4-1.1-.5-1.2.2-11.6,62.9-18.7,126.5-30,189.5.2-50.5,4.4-100.9,12.6-150.7,6.4-38.7,15.1-76.9,26.2-114.5,11.3-38.2,25.4-75.5,40.1-112.5,29.3-73.5,60.8-147.2,72.5-226,10-67.1,6.6-143.8-35.8-200.1-34.7-46-101.5-76.2-155.6-45.4-2.1,1.2-4.1,2.5-6.1,3.8,15.4-18.8,18.5-46.5,11.5-69.4-7.9-25.9-29.9-46.1-56.6-51-15.8-2.9-32.2-.6-46.6,6.4,0,0,0,0,0,0-21.1-9.6-44.4-14.1-68-13-19.4.9-38.6,5.5-56.2,13.8-12.8,6.1-35,20.1-24.6,37.5,10.4,17.4,34.8,7.8,50,5.1,22.9-4.1,46.6-3.3,69.2,2,23.3,5.5,45.4,16.2,65.3,29.3,14.7,9.6,28.6,21,39.8,34.6-43-44-109.5-60.4-168.1-39.4-15.5,5.5-30.2,13.4-43.3,23.3-6.4,4.8-12.4,10-18,15.7-5.5,5.6-11.4,11.7-15.1,18.7-2.9,5.5-4.1,12.7-.4,18.2,3.3,4.9,9.3,6.2,14.9,5.9,8.2-.5,16.4-3.7,24.1-6.4,9.3-3.3,18.4-7,27.5-10.8,40.8-17.2,86.3-38.7,131.3-24.8,0,2.7.3,5.3.7,8-43.4,4.9-85.5,22.8-118.7,51.4-7.5,6.5-16.4,13.8-21.3,22.5-3.1,5.6-4.1,13.8,3.2,16.5,8.6,3.2,19-5,25.8-9,11.9-6.9,23.7-13.9,35.5-20.8,26.6-15.6,53.1-31.1,79.7-46.6.4.9.8,1.7,1.3,2.6-26,17.2-48.9,39.4-66.3,65.4-8,11.9-18.5,27-16.6,42.1,1.4,11.3,10.9,20.9,22.2,22.5,11.1,1.5,23.1-4.3,28.3-14.2-.4,8.1-.2,16.2.4,24.1.6,7.6,1.8,15.2,3.4,22.6,1.2,5.4,2.3,11.6,4.9,16.7-1.3,7.9-3,17.5,1.5,24.7,4.4,7,13.1,8.2,20.4,5.4,8.5-3.2,13.7-11.4,18-18.9,5.7-10,10.7-20.3,15.6-30.7.6,1.4,1.4,2.7,2.2,3.9,4.5,6.2,12.4,7.4,18,3.2-2.9,5.9-5.9,11.7-9,17.5-5.8,10.9-12.3,21.6-17.2,33-4,9.1-6.5,19.4-3.4,29.2,5.2,16.3,24.8,21.5,39.7,16.6,20-6.6,33.1-27.1,42.9-44.5,15.3-27.1,24.2-57.5,26.3-88.5,0,0,0,0,0,0,23.5-19,34.7-50.9,29.5-80.5-5.3-29.8-27.9-50.8-55.9-60.2-14.9-5-31-6.7-46.6-3.9,22.5-16.5,51.8-18.8,78.5-11.5,30.6,8.4,56.7,28.2,74.5,54.2,39.7,57.8,40.7,135.2,29.5,201.9-12.6,74.9-42.4,145.2-70.4,215.4-14,35.2-27.6,70.6-38.6,106.9-10.9,35.9-19.7,72.5-26.3,109.5-9.1,50.9-14,102.6-14.8,154.3-18-30-18.5-66.5-17.8-100.5.8-41,2-81.9,3-122.9.6-23.4,1.1-46.8,1.7-70.2,0-.4-.4-.8-.8-.6-3.4,1.3-7.4,3.6-10.9,4.2-3.2.5-2.4.6-3.1-2.1-.5-1.9-.3-4.2-.5-6.2-.6-8.3-1.3-16.6-1.9-24.8-1.3-16.9-2.6-33.8-3.8-50.7-2.5-33.5-5.1-66.9-7.6-100.4,0-.8-1-.9-1.3-.2-27.3,69.6-36.1,145.7-25.6,219.7-2.1-1.7-4.2-3.3-6.3-5-.4-.3-1.1-.1-1.1.5-3,74.7,12.3,149.7,44.2,217.3,9.2,19.4,19.7,38.1,31.5,56,0,0,0,.1.2.2,0,17.8.5,35.6,1.5,53.3.5,9.1,1.2,18.3,2,27.4,0,0,0,.1,0,.2,0,0,0,0,0,0,0,0,0,0,0,0,0,.2.3.4.6.4,3.7,0,7.3,0,11,0,.1,0,.2,0,.3,0,.2,0,.3-.2.3-.4,14.8-41.1,40.6-76.5,69.5-108.8.5-.6-.1-1.3-.8-1-32,15.4-57.4,41.8-71,74.6-.7-14.4-1.1-28.7-1.1-43.1.1-.7.3-1.5.4-2.2,2.3-7.7,6.5-14.3,10.3-21.4,4.1-7.5,8-14.9,12.8-22,10-15,21.9-28.7,33.9-42.1,22.2-24.9,45.4-49.8,58.7-80.8.2-.4,0-.9-.4-1-3.4-.6-7.6-.8-10.8-2.1-2.7-1.1-2.1-.5-1.2-2.8.7-1.6,2.1-3.2,3-4.6,4-6.2,7.7-12.6,11.3-19,7.1-12.7,13.4-25.7,19.1-39.1,11.6-27.5,20-56.2,25.1-85.6,0-.5-.3-.9-.8-.8-1.9.5-3.8,1-5.7,1.6-1.7.5-4.9,2.1-6.6,1.8-1.1-.2-.8.6-1.4-.4-.2-.3.8-2.6.9-2.9.7-2.3,1.4-4.6,2.1-6.8,2.6-8.8,5.2-17.6,7.8-26.4,5-17.3,10-34.6,14.8-52,9.6-34.7,18.8-69.6,27.4-104.6,4.9-19.8,9.6-39.7,14.2-59.5.2-.7-.9-1.2-1.2-.5ZM1253.9,1228.1c-40.5-62.2-65.6-133.9-72.8-207.8-2-20.6-2.6-41.3-1.8-62,2.2,1.7,4.4,3.5,6.5,5.2.5.4,1.2,0,1.1-.6-10.7-73.3-2.2-148.8,24.3-217.9,4.6,61.1,9.2,122.2,13.9,183.3,0,.4.4.8.8.6,2.4-.9,12-6,13.7-4.1.8.9-.2,6.9-.2,8.3,0,2.8-.1,5.5-.2,8.3-.3,11-.5,22-.8,33.1-.5,22.4-1.1,44.8-1.6,67.1-.5,22-1.1,44.1-1.6,66.1-.5,18.6-.8,37.3,1.2,55.9,2.2,19.4,7.1,38.5,17.5,55.1,0,0,0,0,.1.1,0,3.1,0,6.2,0,9.3ZM1221.9,292.9c17.3,26.9,16.7,67.9-6.9,91,0,0,0,0,0,0,0,0,0,0,0,0-4.3-35.1-22-68-47.7-92.1-11.1-10.4-23.7-18.8-37.2-25.1,32.6-15.3,72.3-4.5,91.9,26ZM1197.9,436.2c0,0-.2,0-.2-.1,3.8-15.9,9.1-31.3,17.3-45.6,15.9,16.9,24.2,38.5,26.8,61.1-16.2-1-30.8-5.7-43.9-15.4ZM1241.9,452.9c.6,6.1.9,12.2.8,18.4-7.8,1.6-15,5.1-21.3,10,2.2-10.1,3.9-20.2,5.3-30.4,4.9,1.1,10,1.8,15.2,2.1ZM1214.4,446.9c-8.1,7.1-15.7,14.7-22.8,22.8,1.5-10.9,3.3-21.7,5.7-32.3,5.4,4,11.1,7.1,17,9.5ZM1132.5,321.8c-36.8-16.8-76.6-19.8-115.8-10.8-10.3,2.4-22.1,4.5-31.2-2.3-11-8.2-6.6-22.5,2.4-30.2,7.8-6.8,18.3-11.3,27.9-14.9,9-3.4,18.4-5.8,28-7.3,38.6-6.2,79.3,3.1,110.7,26.7,32.2,24.3,54.8,61.9,59.4,102.2-.2.2-.4.3-.6.5-19-28.9-49.8-49.6-80.7-63.7ZM1157,374.4c-33.7-10.3-69.2-.6-100.8,12-16.8,6.7-33.3,14.3-50.2,20.8-10.9,4.1-46.6,20.1-47.7-2.6-.4-9.2,6.7-16.8,12.4-23.2,5.3-5.9,11-11.4,17.1-16.5,12.8-10.5,27.2-19.1,42.5-25.3,29.9-12.1,63-14.9,94.5-7.6,13.7,3.2,26.8,8.2,39.1,14.8-4.5,9.1-6.7,18.5-6.8,27.6ZM1038.9,468.2c-4.2,2.4-8.9,5.2-13.9,5.3-10.6.2-9-11.2-4.8-17.3,5.5-8.1,13.7-15,21.1-21.2,15.1-12.8,32.1-23.4,50.2-31.6,21.1-9.5,43.5-15.8,66.5-18.4.7,3.9,1.9,7.8,3.5,11.5-40.9,23.9-81.6,47.9-122.5,71.7ZM1158.1,380.5c-.2-1.8-.2-3.5-.2-5.3,0,0,0,0,0,0,0-9.6,2.7-19.1,7-27.7,18,9.8,34.1,23,47.2,39-.4.4-.9.7-1.3,1.1-12,8.5-23.8,18-34.4,28.5-10-9.6-17-21.5-18.3-35.5ZM1131,512.6c0,0-.1.2-.2.3-5.7,16.2-28,21.4-40.8,10.3-16.2-14-5.7-34.7,3.3-49.5,17.7-28.9,42.2-53.5,70.4-72.2,3,5.5,6.9,10.7,11.8,15.4-9.8,9.9-18.6,20.6-25.8,32.5-11.3,18.8-17.2,41-18.8,63.1ZM1133.1,545.8c-3.5-29.7.2-62.5,14.1-89.2,14.6-27.9,39-50.1,64.3-68,0,0,0,0,0,0,0,0,0,0,0,0,.4-.3.8-.7,1.2-1,.4.6.8,1.3,1.2,1.9-13.7,23.7-19.7,50.9-23.5,77.7-3.9,27.1-5.4,54.7-14.8,80.6-2.5,6.8-5.4,13.4-9,19.6-3.4,5.9-7.7,13.9-13.6,17.6-14.5,9-19.1-31.4-20-39.1ZM1182.8,581.9c-3.7,7.1-7.5,14.7-13.1,20.5-6.4,6.6-18.5,11.1-25.9,3.3-5.9-6.3-4.6-16.3-3.3-24.3.2.4.4.8.7,1.2,7.4,11.1,16.6.4,21.7-6.8,16.8-23.9,22.2-53.6,25.7-82,.9-7.2,1.7-14.4,2.7-21.7,7.5-8.8,15.7-17,24.4-24.6,3.2,1.2,6.4,2.2,9.8,3-1.5,10.7-3.3,21.4-5.7,31.9,0,0,0,0,0,0-13.5,11.1-23,28.1-26.2,44.4-1.8,9.3-3,21.8.7,31.4-3.7,7.9-7.5,15.8-11.5,23.5ZM1200.1,565.2c-4.1-3.8-5.4-9.7-6.1-15-1.5-11.6,0-23.7,4.2-34.6,7.4-19.4,23.5-38.5,44.5-42.9-.4,14.2-2.7,28.3-6.4,41.5-4.7,16.9-11.5,33.1-19.2,48.9,0,0,0,0,0,0-3.9,5.9-11.8,7-17,2.1ZM1299.4,408.6c22.6,19.7,29.3,51.2,21.2,79.5-4.5,15.7-13.4,29.9-26,40.4.9-15,.1-30-2.3-44.9-4.3-26.2-13.3-52.8-27.9-75.1-5.5-8.4-12.5-16-22.1-19.5-4.2-1.6-9-2.7-13.8-2.9,25.1-2.5,51.9,6.1,70.8,22.6ZM1245,391.5c9.9,4.7,16.4,14.1,21.7,23.3,11.4,19.9,19.3,42,23.5,64.6,8.4,45.5,1,93.1-20.6,134-9.8,18.5-23.2,41.1-44,48.4-8.9,3.1-19.5,2.7-27.8-2-10.6-6.1-13.8-18.3-11.6-29.8,2.3-11.6,9-22,14.5-32.3,5.5-10.2,10.9-20.5,16.1-30.9.5-1,1-2,1.5-3,0,0,0,0,0,0,0,0,0,0,0,0,9.2-18.9,17.2-38.6,21.8-59.1,8.7-38.8,4.2-84.5-23.9-114.6,0,0,0,0,.1,0,.4-.3.8-.6,1.1-1,8.6-3.3,19.5-1.2,27.5,2.6ZM1267.5,1279.1c12.7-32.7,37.3-59.2,68.4-75-27.5,31-51.9,64.9-66.5,104-.8-9.6-1.4-19.3-1.9-28.9,0,0,0,0,0,0ZM1266.4,1282.7c.5,9.2,1.2,18.5,2,27.7-3.2,0-6.5,0-9.7,0-6.5-77.2-3.7-155.1,8.6-231.6,6.1-38.1,14.5-75.7,25.2-112.8,10.9-37.6,24.4-74.3,38.8-110.7,28.7-72.4,60.2-144.6,73.6-221.8,11.5-66,11.2-141.8-25.6-200.4-15.8-25.2-38.7-45.4-66.6-56.2-25.6-9.9-55.6-12-80.7.6-5.5,2.7-10.5,6.2-15.2,10.1-.5.2-.9.4-1.4.6,0-.9-.2-1.8-.3-2.7,21.5-17.1,49.5-23.2,76.6-19,32.8,5.1,62.9,24.4,84.1,49.6,46.1,55,50.7,133.4,41.2,201.5-10.7,76.9-40.7,149-69.4,220.5-14.4,35.8-28.4,71.8-39.9,108.7-11.3,36.2-20.3,73-27.2,110.3-13.7,74.3-18.5,150.1-14.3,225.5ZM1428.5,858.2c-5.3,18.6-10.8,37.2-16.4,55.8-.1.5.3.9.8.8,3.7-1,7.6-2.4,11.4-3.1,2.7-.5,2.5-.9,2.3,1.8-.1,1.8-.7,3.7-1,5.4-1.4,7.2-3.1,14.4-4.9,21.6-3.6,14-8,27.8-13.1,41.3-10.5,27.9-24.3,54.4-40.8,79.2-.2.3,0,.9.4,1,2.5.5,12.4,1,13.3,3.4.4,1-2.5,5.5-3,6.5-1.1,2.1-2.2,4.3-3.3,6.4-4.3,7.9-9.3,15.4-14.6,22.6-11.1,15.1-23.7,28.8-36.2,42.8-11.9,13.3-23.7,26.8-33.7,41.6-5.2,7.6-9.4,15.5-13.8,23.6-2.7,5-5.6,9.8-7.9,14.9,11-61.7,18-124.1,29.3-185.8,3,3.9,6,7.9,9,11.8.3.4,1,.4,1.2-.2,8.9-29.3,17.8-58.7,26.7-88,4.4-14.5,8.8-29,13.2-43.5,2.2-7.3,4.4-14.5,6.6-21.8.2-.7.8-4.6,1.5-4.9,1.5-.7,3,1.5,4.1,2.5,3,2.8,6.1,5.6,9.1,8.3.4.4,1.1,0,1.1-.5,7.9-70.2,36.3-135.7,80.2-190.7,11.1-14,20.6-29.1,28.4-45.2-15,64.6-31.6,128.8-49.9,192.5Z"/>
      </g>
      <g>
        <g>
          <path class="cls-1" d="M999.9,539.1c6.8,3,15.9,3,21.1-3.1,4.6-5.3,5-13.7,0-18.8-.4-.4,0-1.4.6-1.1,8.8,3.6,18.3,1.7,25.7-4.1-3.4-4.4-7.3-8.3-11.8-11.3-13.9-9.3-30.4-7.1-45.5-2-3,1-6,2-9,3.1.7,13.8,5.1,31.1,18.9,37.3Z"/>
          <path class="cls-3" d="M722,1252.9s0,0,0,0c-11.6-3.7-29.6-6.8-35.9,7.3-5.3,11.8,4.3,24.9,12.9,32.2,16.4,13.9,40.4,17.6,60.1,8.8-2.1-1.8-4.2-3.6-6.2-5.5-12.8-12.2-23.1-26.8-30.8-42.8Z"/>
          <path class="cls-1" d="M721.2,667.2c3.3-6.2,7.4-12.1,12-17.4,2.5-2.8,5.2-5.5,8-8,2.6-2.3,2.9-2.4,1.4-5.6-.8-1.7-2.3-3.4-3.4-5-20.5-30.2-41.2-60.2-61.8-90.4,6.5,25,12.9,50,19.4,75,.1.4-.2.8-.6.8-33-.5-65.9-1.1-98.9-1.6,21.6,19.9,43.1,39.7,64.7,59.6.4.4.2.9-.3,1.1-28.7,9.8-57.4,19.6-86.1,29.3,44.9.3,89.8,1.9,134.7,2.2.6-14,4.3-27.6,10.8-40Z"/>
          <path class="cls-4" d="M1118.5,1286.4c-.4,0-.6-.3-.6-.6-.7-30.9-2-61.8-5.1-92.5-7.5-73.8-27.1-152.6-73.3-211.9-12.9-16.7-28-31.8-45.5-44.8,0,0-.2-.2-.2-.2-.2-.3-.2-.6.2-.8,0,0,.2-.1.3-.1,51.9-25.7,82.1-76,95.2-131,1.3-5.6,2.5-11.3,3.5-16.9,10.2-56.3,4.6-113.7-8.6-169.3-3.8-16.2-8.3-32.2-13-48.1-4-13.3-7.8-26.8-13.5-39.4-2.7-6-5.9-12.1-9.9-17.5-7.1,5.5-16,7.8-24.6,5.1,3.1,4.5,3.2,10.4.7,15.4-3.3,6.7-10.7,9.5-17.9,8.7-19-2.3-25.6-23.7-26.6-40-26.1,9.3-51.8,20.8-76.6,33.1-27.9,13.9-54.9,30-79.5,49.3-45,35.4-82.3,82.1-98.1,137.7,1.8-1.5,3.7-3.1,5.5-4.6.7-.5,1.6.4.9.9-6.2,4.9-12.1,10.2-17.7,15.7-24.1,23.5-45.9,52.2-57.2,84.2-12.6,35.5-13,74.4-13.7,111.7-1.1,60.3-2.8,130.8-49,176.1-11.8,11.6-26.9,19.3-38.2,31.3-10.4,11-17.9,30.3-7.7,43.2.9,1.1,1.9,2.2,3.1,3.3,13.6,12,33.3,6.9,46.6-2.5,6.2-4.5,12-9.7,17.4-15.4,0-.3.2-.7.6-.7,0,0,0,0,0,0,6.5-6.9,12.4-14.4,17.8-21.8,20-27.1,34.1-58.4,41.3-91.2,8.2-37.4,5.1-75.2,2.3-113-2.4-33.3-3.6-66.1,5.4-98.6,6.9-24.5,18.4-48.7,36.4-67,2.1-2.2,4.4-4.3,6.7-6.3.6-.5,1.6.4.9.9-2.8,2.4-5.4,4.9-8,7.6-.5.5-.9,1-1.4,1.5,0,1.1,0,2.2,0,3.3.3,14.4,2.1,28.7,5.7,42.6,1,4,2.2,8,3.5,11.9,18.5,54.6,69.1,98.6,127.8,101.4,0,0,.1,0,.2,0,.3,0,.5.3.4.6-1.6,24.5-12.9,46-31,62.3-21.7,19.6-47.6,34.1-67.8,55.6-33.5,35.7-52.4,85.6-49.7,134.6,2.4,43.7,23,87.8,58.3,114.4,43.8,33.1,98.9,25.4,149.8,19.1,34.6-4.3,69.2-8.1,103.8-12,20.6-2.3,41.3-4.8,61.9-7.4-1-1.3-1.8-2.8-2.5-4.3-3.3-7.1-3.9-15-4.6-22.7-1-9.6-2.2-19.2-3.6-28.8-2.7-18-6.1-35.8-10.3-53.5-8.6-36.3-20.3-71.7-34.9-106-.3-.8.8-1.4,1.1-.7,14.7,34.4,26.5,69.9,35.1,106.3,3.8,16.1,7,32.3,9.5,48.7,1.2,7.7,2.3,15.5,3.2,23.3,1,8.6,1.3,17.5,3.4,25.9,2,8.1,6.8,16.5,15.4,19,9.5,2.7,20.4-2.7,17-14-2.3-7.7-10.6-12.5-14.4-19.5-3-5.6-4.6-11.8-5.5-18-2.2-14.8-2-29.8-3.7-44.7-2-16.7-5.1-33.4-9.3-49.7-8.2-31.9-20.4-62.6-36.2-91.4-.4-.7.7-1.4,1.1-.7,18.9,34.4,32.7,71.6,40.6,110.1,3.5,17,5.8,34.1,7,51.4,1,14.2.4,30.1,7.5,42.7,0-18.2,1.2-36.1-.1-54.3-1.5-19.3-4.5-38.4-8.9-57.2-8.9-37.1-23.6-72.6-43.5-105.1-.4-.7.7-1.4,1.1-.7,20,32.6,34.8,68.2,43.6,105.4,4.4,18.3,7.4,36.9,8.9,55.7,1.6,19.5.3,38.7.3,58.3.9,1.4,2,2.8,3.1,4.1,4.5,5.1,10,9.5,10.5,16.8,0,1.1,0,2.1-.1,3.1,6.5,2,13.4-.7,14-8,.4-4.4-1.8-9.4-6.8-9.6ZM1004.8,660.7c5.6,10.7,19.1,16.3,30.4,11.7,11.4-4.7,17-18.2,13.5-29.7-.2-.8,1-1.1,1.3-.3,3.7,12.1-2.3,26.3-14.3,31.3-11.9,4.9-26.2-1-32.1-12.2-.4-.7.7-1.4,1.1-.7ZM861.6,694.2c-1.9,12.1-8.9,23.1-19.5,29.2-12.7,7.4-28.1,7.8-42.4,7.8-.8,0-.8-1.3,0-1.3,13,0,26.9-.2,38.9-6,10.9-5.3,18.6-15.3,21.2-27.2,5.7-25.5-15.8-49-41.6-47.2-.8,0-.8-1.2,0-1.3,25.4-1.8,47.3,20.5,43.4,46Z"/>
          <path class="cls-3" d="M706.9,923.6c.3,27.4-3.1,58.1-24.8,77.4,0,0-.1.1-.2.1-.4,32.1-6.1,63.5-18.6,93.3-10.7,25.6-26,50.4-45.3,70.7,23.7-3,46-13.5,64.3-28.8,36.8-30.9,50.7-78.2,52.4-124.8.9-25.4-2.6-50.2-5-75.4-2.2-23.6-1.6-48,10.8-68.8-7.7-12.5-13.4-26-17.3-40.1-21.1,27.2-16.5,64.1-16.2,96.3Z"/>
          <path class="cls-2" d="M1018.9,1311.6c-34.6,3.9-69.3,7.7-103.8,12-50.9,6.3-105.9,14-149.8-19.1-35.3-26.6-55.9-70.8-58.3-114.4-2.7-49,16.1-98.9,49.7-134.6,20.1-21.4,46-35.9,67.8-55.6,18.1-16.4,29.4-37.8,31-62.3,0-.3-.2-.5-.4-.6,0,0-.1,0-.2,0-58.7-2.9-109.4-46.8-127.8-101.4-1.3-3.9-2.5-7.9-3.5-11.9,6.4,9,14.4,19.7,20.2,24.6,19.8,16.7,40.5,31.7,63.9,43.3,28.9,14.3,54.6,27.7,98.5,27.8-5.5,17.2-15.4,47.6-65.9,98.9-48.2,49-103.5,99.6-88.1,175.8,6.5,31.9,25.3,61.1,51.8,80.1,31,22.2,70.1,29.8,108.1,32.2,35.6,2.3,71.4,3.6,107,5.5Z"/>
          <path class="cls-2" d="M993.9,936.2c0,0,.1.2.2.2,17.5,13,32.5,28.2,45.5,44.8-23.7-17.9-49.5-32.9-76.8-44.7,39.8-10.5,72.5-40,94.9-74.6,8.8-13.5,16.1-27.9,22.6-42.6,3.5-8,6.4-23.9,12.8-32-1,5.6-2.2,11.3-3.5,16.9-13.2,54.9-43.3,105.3-95.2,131,0,0-.2,0-.3.1-.3.2-.3.6-.2.8Z"/>
          <path class="cls-2" d="M717.7,777.6c.5-.5.9-1,1.4-1.5,0,.4-.2.9-.3,1.3-.3,1.1-.6,2.3-1.1,3.5,0-1.1,0-2.2,0-3.3Z"/>
          <path class="cls-2" d="M719.4,773.9c-18,18.3-29.6,42.5-36.4,67-9.1,32.5-7.9,65.3-5.4,98.6,2.7,37.8,5.8,75.6-2.3,113-7.2,32.9-21.3,64.2-41.3,91.2-5.5,7.4-11.4,14.9-17.8,21.8,0,0,0,0,0,0-.4,0-.6.4-.6.7-5.4,5.7-11.2,11-17.4,15.4-13.3,9.5-33,14.6-46.6,2.5-1.2-1-2.2-2.1-3.1-3.3,8.4,1.8,17.4.8,25.5-2.1,11-4,20.6-11.3,29.1-19.4,24.7-23.5,41.8-54.8,48.4-88.3,4.4-22.3,4.1-45.2,4.5-67.9.5-35.2,2.5-70.3,4.4-105.5.9-17,1.9-34.2,5.9-50.8,4.6-19.3,13.5-37.6,25.6-53.4,4.3-5.6,29.2-34.9,27.8-19.7Z"/>
          <path d="M1122,1285.9c-2.2-1.1-2.6-.3-2.9-3.2-.5-4.2-.2-8.7-.3-12.9-1-33.2-2.9-66.5-7.4-99.5-7.9-58.8-24.2-118.6-56.2-169.2-15.9-25.1-35.9-47.2-59.6-65.1,45.9-23,75.5-65.6,90.4-113.9,18.4-59.8,16.6-123.3,4.2-184.1-6.7-32.7-15.3-65.7-26.7-97.1-7.6-20.9-20.4-45-45-47.9-15.9-1.9-31.5,5-45.9,10.6-15,5.8-29.9,11.9-44.6,18.5-29.8,13.3-58.8,28.5-85.7,47.1-47.5,32.7-89.2,76.7-110.8,130.9-3.1,7.7-5.7,15.7-7.9,23.7,0,0,0,0,0,0-23.2,20.1-43.3,44.6-57.8,71.6-17.2,32.1-21.6,68.6-23.2,104.5-2.8,67,4.2,145.9-44,199.9-11.3,12.7-26,21-38.6,32.2-10.7,9.4-19.8,23.2-17.6,38.1,1.8,12.5,12.3,20.6,24.4,22.2,14.9,1.9,28.3-5.8,39.1-15.3,3.7-3.2,7.2-6.6,10.6-10.2,40.5-4.7,77.3-30.6,97.2-65.9,24.3-43.2,25.1-95.8,19.6-143.7-3.4-29.7-7.8-61.5,7.9-88.5.7,1.2,1.5,2.3,2.2,3.5,16,24,38.7,43.7,65.2,55.3,14.4,6.3,29.8,10,45.5,10.9-1.8,25.4-14.2,46.7-33.3,63.3-20.3,17.6-43.8,31.4-62.7,50.7-33.2,34-52.5,81.1-52.6,128.6,0,24.1,5.4,48.5,15.7,70.4-11.4-3.5-26.7-5.8-34.7,5.5-7.2,10.1-.9,23.4,6.3,31.5,16.6,18.6,44.8,24.2,67.3,13.9,14.1,11.6,30.6,20,48.4,24.4,26.8,6.5,54.7,4.6,81.8,1.5,63.8-7.4,127.6-14.5,191.3-22.5,0,0,0,0,0,0,5.6,6.7,14.5,10.3,23.3,6.7,3.3-1.4,5.2-3.8,6-6.9,8.4,2.6,16.6-2.5,15.5-11.8-.4-3-1.7-6.1-4.5-7.6ZM989.9,498.6c15.1-5.1,31.5-7.3,45.5,2,4.6,3.1,8.5,7,11.8,11.3-7.4,5.8-16.8,7.8-25.7,4.1-.6-.3-1.1.7-.6,1.1,5.1,5.1,4.7,13.5,0,18.8-5.2,6-14.3,6.1-21.1,3.1-13.9-6.2-18.2-23.5-18.9-37.3,3-1.1,6-2.1,9-3.1ZM729.6,936.2c2.4,25.2,5.9,50,5,75.4-1.7,46.6-15.5,93.9-52.4,124.8-18.3,15.3-40.6,25.8-64.3,28.8,19.3-20.4,34.6-45.2,45.3-70.7,12.5-29.8,18.2-61.3,18.6-93.3,0,0,.2,0,.2-.1,21.7-19.3,25.1-50,24.8-77.4-.3-32.2-4.9-69.1,16.2-96.3,3.9,14,9.6,27.5,17.3,40.1-12.4,20.9-13,45.3-10.8,68.8ZM705.4,911.5c.8,30.4.7,65.8-23.5,88,0-2.6,0-5.3,0-7.9-.8-38.8-8.1-78-4.1-116.7,3.3-31.9,14-64.8,34-90.3,1.5-1.9,3-3.7,4.6-5.5.2,15.8,2.2,31.5,6.3,46.7-19.2,24.1-18.2,56.5-17.3,85.7ZM699,1292.4c-8.6-7.3-18.2-20.4-12.9-32.2,6.3-14.1,24.2-11,35.9-7.3,0,0,0,0,0,0,7.7,15.9,18.1,30.5,30.8,42.8,2,1.9,4.1,3.8,6.2,5.5-19.7,8.8-43.6,5.2-60.1-8.8ZM1125.3,1296c-.6,7.3-7.5,10-14,8,.1-1,.2-2,.1-3.1-.4-7.3-6-11.6-10.5-16.8-1.2-1.3-2.2-2.7-3.1-4.1,0-19.5,1.3-38.7-.3-58.3-1.5-18.8-4.5-37.4-8.9-55.7-8.9-37.2-23.7-72.8-43.6-105.4-.4-.7-1.6,0-1.1.7,19.9,32.5,34.6,68,43.5,105.1,4.5,18.8,7.5,37.9,9,57.2,1.4,18.2.2,36.1.1,54.3-7.1-12.7-6.5-28.5-7.5-42.7-1.2-17.3-3.5-34.5-7-51.4-7.9-38.5-21.7-75.7-40.6-110.1-.4-.7-1.5,0-1.1.7,15.8,28.8,28.1,59.6,36.2,91.4,4.2,16.3,7.3,33,9.3,49.7,1.8,14.8,1.6,29.9,3.8,44.7.9,6.2,2.5,12.5,5.5,18,3.8,7,12,11.8,14.4,19.5,3.4,11.3-7.4,16.6-17,13.9-8.6-2.4-13.4-10.8-15.4-19-2.1-8.4-2.3-17.3-3.3-25.9-.9-7.8-2-15.6-3.2-23.3-2.6-16.3-5.7-32.6-9.5-48.7-8.6-36.4-20.4-71.9-35.1-106.3-.3-.8-1.5-.1-1.1.7,14.6,34.3,26.4,69.7,34.9,106,4.2,17.7,7.6,35.5,10.3,53.5,1.4,9.6,2.6,19.2,3.6,28.8.8,7.6,1.3,15.6,4.6,22.7.7,1.5,1.6,3,2.5,4.3-55.2,6.9-110.5,12.5-165.7,19.3-50.9,6.3-105.9,14-149.8-19.1-35.3-26.6-55.9-70.8-58.3-114.4-2.7-49,16.1-98.9,49.7-134.6,20.1-21.5,46-35.9,67.8-55.6,18.1-16.4,29.4-37.8,31-62.3,0-.3-.2-.5-.4-.6,0,0-.1,0-.2,0-58.7-2.9-109.4-46.8-127.8-101.4-6.3-18.6-9.2-38.2-9.3-57.9,2.9-3.2,6.1-6.2,9.4-9.1.6-.5-.3-1.5-.9-.9-21.9,18.8-35.5,45.8-43.2,73.3-9.1,32.5-7.9,65.3-5.4,98.6,2.7,37.8,5.8,75.6-2.3,112.9-7.2,32.9-21.4,64.2-41.3,91.2-5.4,7.4-11.4,14.9-17.8,21.8,0,0,0,0,0,0-.4,0-.6.4-.6.7-5.4,5.7-11.2,11-17.5,15.4-13.3,9.5-33,14.6-46.6,2.6-14.5-12.8-6.6-34.6,4.7-46.5,11.4-12,26.4-19.7,38.2-31.3,46.2-45.4,47.9-115.8,49-176.2.7-37.3,1.1-76.1,13.7-111.7,11.3-32,33.1-60.7,57.2-84.2,5.6-5.5,11.5-10.7,17.7-15.7.7-.5-.3-1.4-.9-.9-1.9,1.5-3.7,3-5.5,4.6,15.8-55.7,53.1-102.4,98.1-137.7,24.6-19.3,51.6-35.4,79.5-49.3,24.8-12.3,50.5-23.7,76.6-33.1,1,16.3,7.6,37.7,26.6,40,7.2.9,14.6-2,17.9-8.7,2.5-5,2.4-10.9-.7-15.4,8.6,2.6,17.5.4,24.6-5.1,4,5.4,7.2,11.4,9.9,17.5,5.7,12.7,9.5,26.2,13.5,39.4,4.8,15.9,9.2,31.9,13,48.1,14.6,61.2,19.9,124.6,5.1,186.3-13.2,54.9-43.3,105.3-95.2,131,0,0-.2,0-.3.1-.3.2-.3.6-.2.8,0,0,.1.2.2.2,79.6,59.4,109.1,162.2,118.7,256.8,3.1,30.7,4.4,61.6,5.1,92.5,0,.4.3.6.7.7,5,.2,7.1,5.2,6.8,9.6Z"/>
          <path d="M1035.8,673.6c11.9-4.9,17.9-19.2,14.3-31.2-.2-.8-1.5-.5-1.3.3,3.5,11.5-2.2,25-13.5,29.7-11.4,4.7-24.9-1-30.5-11.6-.4-.7-1.5,0-1.1.7,5.9,11.2,20.2,17.1,32.1,12.2Z"/>
          <path d="M571.4,706.1s0,0,0,0c.1.1.3.2.5.2,0,0,0,0,0,0,46.4.2,92.8,2,139.1,2.2.3,0,.4-.1.5-.3,0,0,.1-.2.1-.3.9-26.6,13.5-51.7,34.3-68.3.2-.2.3-.6.1-.8-23.1-34-46.4-67.8-69.5-101.7,0,0,0,0,0,0-.2-.3-.6-.4-.9-.2,0,0,0,0,0,0,0,0,0,0,0,0-.2.1-.3.4-.2.6,0,0,0,0,0,0l11.5,44.3c1.8,7.1,3.7,14.1,5.5,21.2.4,1.7.9,3.4,1.3,5,.2.8,1.9,5.3,1.6,6-.9,2.3-8.2,1-10.1,1-29.8-.5-59.5-1-89.3-1.4-.6,0-.9.7-.5,1.1,11.2,10.4,22.5,20.7,33.7,31.1,5.6,5.2,11.2,10.4,16.9,15.5,2.8,2.6,5.6,5.2,8.4,7.8,1.3,1.2,2.7,2.3,3.8,3.5,2,2.2,2.1,1.8-.5,3.1-6.7,3.1-14.4,4.9-21.5,7.3-7.2,2.4-14.3,4.9-21.5,7.3-14.3,4.9-28.6,9.7-42.9,14.6,0,0,0,0,0,0-.4.1-.5.6-.3,1,0,0,0,0,0,.1ZM661.8,675.7c.4-.2.7-.7.3-1.1-21.6-19.9-43.1-39.7-64.7-59.6,33,.5,65.9,1.1,98.9,1.6.4,0,.7-.4.6-.8-6.5-25-12.9-50-19.4-75,20.5,30.2,41.2,60.2,61.8,90.4,1.1,1.6,2.5,3.2,3.4,5,1.5,3.2,1.2,3.3-1.4,5.6-2.8,2.5-5.5,5.2-8,8-4.7,5.3-8.7,11.2-12,17.4-6.6,12.4-10.3,26-10.8,40-44.9-.2-89.8-1.9-134.7-2.2,28.7-9.8,57.4-19.6,86.1-29.3Z"/>
          <path d="M818.3,648.2c-.8,0-.8,1.4,0,1.3,25.8-1.8,47.3,21.7,41.6,47.2-2.7,11.8-10.3,21.8-21.2,27.2-12,5.8-25.8,6.1-38.9,6-.8,0-.8,1.3,0,1.3,14.3,0,29.7-.3,42.4-7.8,10.6-6.2,17.6-17.2,19.5-29.2,4-25.5-18-47.8-43.4-46Z"/>
        </g>
        <path class="cls-2" d="M831.6,1060.2c-7,7.8-12.3,16.7-15.9,26.5-1.2,3.2,3.9,4.5,5,1.4,3.3-9,8.2-17.1,14.6-24.2,2.2-2.5-1.4-6.2-3.7-3.7Z"/>
        <path class="cls-2" d="M805.7,1100.1c-5.4,6.5-8.2,14.3-8.1,22.7,0,3.4,5.3,3.4,5.2,0-.1-7,2.1-13.6,6.6-19,2.1-2.6-1.5-6.3-3.7-3.7Z"/>
        <path class="cls-2" d="M799.5,1165.3c-3.4-6.5-4.5-13.7-3.1-20.9.6-3.3-4.4-4.7-5-1.4-1.6,8.7-.4,17.1,3.6,24.9,1.5,3,6,.3,4.5-2.6Z"/>
        <path class="cls-2" d="M815.2,1195.7c-4.6-2.8-8.1-6.8-10.6-11.5-1.5-3-6-.4-4.5,2.6,2.9,5.6,7.2,10.1,12.5,13.4,2.9,1.8,5.5-2.7,2.6-4.5Z"/>
        <path class="cls-2" d="M840.6,1220.2c-5.1-2.8-10.1-5.6-15.2-8.4-2.9-1.6-5.6,2.9-2.6,4.5,5.1,2.8,10.1,5.6,15.2,8.4,2.9,1.6,5.6-2.9,2.6-4.5Z"/>
        <path class="cls-2" d="M779,1119c-4.1,9.8-4.5,20.5-1.1,30.6,1,3.2,6.1,1.8,5-1.4-3.1-9.4-2.7-18.8,1.1-27.9,1.3-3.1-3.8-4.4-5-1.4Z"/>
        <path class="cls-2" d="M789,1193.5c-3.8-6-6.3-12.5-7.1-19.5-.4-3.3-5.6-3.3-5.2,0,.9,8,3.4,15.4,7.8,22.2,1.8,2.8,6.3.2,4.5-2.6Z"/>
        <path class="cls-2" d="M816.8,1228.4c-4.9-4.5-9.7-9.1-14.6-13.6-2.5-2.3-6.2,1.4-3.7,3.7,4.9,4.5,9.7,9.1,14.6,13.6,2.5,2.3,6.2-1.4,3.7-3.7Z"/>
        <path class="cls-2" d="M781.3,1218.8c-4.9-7-8.5-14.4-10.8-22.6-.9-3.2-6-1.9-5,1.4,2.4,8.6,6.2,16.6,11.3,23.9,1.9,2.7,6.4.1,4.5-2.6Z"/>
        <path class="cls-2" d="M813.6,1124.6c-4,6.3-5.4,13.4-4.4,20.8.5,3.3,5.5,1.9,5-1.4-.8-6,.6-11.8,3.8-16.8,1.8-2.8-2.7-5.5-4.5-2.6Z"/>
        <path class="cls-2" d="M800.9,1079.6c-3.2,5.2-6.4,10.4-9.6,15.5-1.8,2.9,2.7,5.5,4.5,2.6,3.2-5.2,6.4-10.4,9.6-15.5,1.8-2.9-2.7-5.5-4.5-2.6Z"/>
        <path class="cls-2" d="M832.9,1087.6c-5.4,5.9-8.9,13-10.2,21-.5,3.3,4.5,4.7,5,1.4,1.1-7.1,4-13.3,8.8-18.6,2.2-2.5-1.4-6.2-3.7-3.7Z"/>
        <path class="cls-2" d="M825.8,1179.5c-1.7-6.6-3.5-13.2-5.2-19.8-.9-3.2-5.9-1.9-5,1.4,1.7,6.6,3.5,13.2,5.2,19.8.9,3.2,5.9,1.9,5-1.4Z"/>
        <path class="cls-2" d="M837.2,1150.3c-2.3-6.8-2.7-13.6-1-20.5.8-3.3-4.2-4.7-5-1.4-1.9,7.8-1.6,15.7,1,23.3,1.1,3.2,6.1,1.8,5-1.4Z"/>
        <path class="cls-2" d="M858.2,1200.6c-5.1-4.3-10.3-8.5-15.4-12.8-2.6-2.1-6.3,1.5-3.7,3.7,5.1,4.3,10.3,8.5,15.4,12.8,2.6,2.1,6.3-1.5,3.7-3.7Z"/>
        <path class="cls-2" d="M828.8,1260.3c-8-4.9-15.9-9.9-23.9-14.8-2.9-1.8-5.5,2.7-2.6,4.5,8,4.9,15.9,9.9,23.9,14.8,2.9,1.8,5.5-2.7,2.6-4.5Z"/>
        <path class="cls-2" d="M861.2,1259.3c-5.4-3.7-10.9-7.3-16.3-11-2.8-1.9-5.4,2.6-2.6,4.5,5.4,3.7,10.9,7.3,16.3,11,2.8,1.9,5.4-2.6,2.6-4.5Z"/>
        <path class="cls-2" d="M879.9,1238.5c-4.5-3.1-9-6.3-13.6-9.4-2.8-1.9-5.4,2.6-2.6,4.5,4.5,3.1,9,6.3,13.6,9.4,2.8,1.9,5.4-2.6,2.6-4.5Z"/>
        <path class="cls-2" d="M902.2,1268.3c-5.9-5-12.8-7.9-20.5-8.4-3.4-.2-3.3,5,0,5.2,6.3.4,12.1,2.8,16.8,6.9,2.5,2.2,6.3-1.5,3.7-3.7Z"/>
        <path class="cls-2" d="M888.2,1285.7c-6.1-2.8-12.2-5.5-18.4-8.3-3-1.4-5.7,3.1-2.6,4.5,6.1,2.8,12.2,5.5,18.4,8.3,3,1.4,5.7-3.1,2.6-4.5Z"/>
        <path class="cls-2" d="M935,1283.7c-7-.9-14-1.8-20.9-2.7-3.3-.4-3.3,4.8,0,5.2,7,.9,14,1.8,20.9,2.7,3.3.4,3.3-4.8,0-5.2Z"/>
        <path class="cls-2" d="M1071.7,779.8c-3.2,8.7-6.4,17.3-9.6,26-1.2,3.2,3.9,4.5,5,1.4,3.2-8.7,6.4-17.3,9.6-26,1.2-3.2-3.9-4.5-5-1.4Z"/>
        <path class="cls-2" d="M1048.2,806.7c-2.4,7.7-4.7,15.4-7.1,23-1,3.2,4,4.6,5,1.4,2.4-7.7,4.7-15.4,7.1-23,1-3.2-4-4.6-5-1.4Z"/>
        <path class="cls-2" d="M1057.7,824.5l-6.3,17.7c-1.1,3.2,3.9,4.5,5,1.4,2.1-5.9,4.2-11.8,6.3-17.7,1.1-3.2-3.9-4.5-5-1.4Z"/>
        <path class="cls-2" d="M1031.9,848.9c-2.4,4.5-4.9,9-7.3,13.6-1.6,3,2.9,5.6,4.5,2.6,2.4-4.5,4.9-9,7.3-13.6,1.6-3-2.9-5.6-4.5-2.6Z"/>
        <path class="cls-2" d="M1010.8,862.4c-3.2,6.6-6.4,13.1-9.7,19.7-1.5,3,3,5.7,4.5,2.6,3.2-6.6,6.4-13.1,9.7-19.7,1.5-3-3-5.7-4.5-2.6Z"/>
        <path class="cls-2" d="M1031.3,872.4l-12.5,15.7c-2.1,2.6,1.6,6.3,3.7,3.7l12.5-15.7c2.1-2.6-1.6-6.3-3.7-3.7Z"/>
        <path class="cls-2" d="M997.9,897.5c-4.2,4.9-8.4,9.7-12.5,14.6-2.2,2.5,1.5,6.2,3.7,3.7,4.2-4.9,8.4-9.7,12.5-14.6,2.2-2.5-1.5-6.2-3.7-3.7Z"/>
      </g>
      <g>
        <path class="cls-1" d="M555.7,519.9s0,0,0-.1c-.5-1.7-1.2-3.2-2-4.7-.2-.5-.5-1-.8-1.5-.7-1.2-1.7-2.3-2.8-3.2-1-1.1-2.2-2-3.4-2.9-2.6-3-6.6-4.8-10.6-4.1-1.3-.1-2.7-.2-4,0-3.9.4-8.5,1.9-10.2,5.9-1.1,2.4-1.7,4.9-1.9,7.3-3.4,6.8-3.8,15,0,22.4,1.6,3.2,5.8,5.6,9.4,5.4,0,0,0,0,.1,0,3.7,3.5,9.8,4.5,14.7,2,.8-.4,1.5-.9,2.3-1.4,0,0,.1,0,.2,0,7.1-.4,11.2-5.2,12.1-12.1.6-4.7-.6-9.1-2.9-12.9Z"/>
        <path class="cls-1" d="M491.2,947.4c-14.3-4.9-31.6,4.8-32.6,20.3-.4,5.5,1.5,10.5,4.7,14.5,7.6,12.7,26.5,17,37.4,4.9,11.4-12.6,7-34.1-9.5-39.8Z"/>
        <path class="cls-1" d="M1313.2,692.6c-6.5-2-12.7.2-16.6,4.8-1.1.6-2.2,1.4-3,2.5-6.1,7.8-9.6,17.9-5.6,27.6,2,4.8,5.9,9.2,11.7,8.9,11.4-.6,23.2-6.5,26.7-18.2,3-10.2-2.7-22.4-13.1-25.6Z"/>
        <path class="cls-1" d="M1448.2,1249.2c-6.9-10.9-22.6-14.3-32.3-5.1-5.8,5.4-7.7,14.3-5.4,21.5,3,10.7,15.3,17,26.1,13,11.8-4.4,18.9-17.9,11.6-29.4Z"/>
        <path class="cls-2" d="M750.1,454.5c-.6-.6-1.3-1.1-2.1-1.6-1.3-5.4-8.8-9.4-13.9-7.4-16.7,6.6-17.6,29.7-13.7,44.7,1.3,5,6.9,9.8,12.3,9.4.8,0,1.6-.2,2.4-.3,1.1.4,2.3.6,3.6.7,4,.4,7.8-2.8,9.2-6.6,3.6-3,6.4-7.1,8.1-12,3.3-9.2,1.2-20.1-6-26.9Z"/>
        <path class="cls-2" d="M585.4,792.9c.5-1.6.5-3.4,0-5-.7-2.6-2.6-4.7-4.8-6.1-.9-.5-1.9-1-2.9-1.2-1-.3-2.2-.5-3.3-.5-1.1,0-2.3.1-3.4.4-.8.2-2.2.8-2.8,1.2-.7.6-1.5,1.1-2.2,1.7-1.1,1-1.8,2.2-2.3,3.5-.6,1.5-1,3-1,4.7,0,1.7.4,3.1,1,4.7.7,1.6,1.1,2.6,2.5,3.8,1.2,1.1,2.3,1.8,3.8,2.4,2.1.9,4.1,1.1,6.3.8,1.9-.3,3.3-.7,4.9-1.9,1.1-.8,1.7-1.3,2.4-2.7.2-.4.4-.9.6-1.3.7-1.3,1.1-2.7,1.1-4.3,0-.1,0-.3,0-.4Z"/>
        <path class="cls-2" d="M459.1,1127.2c-1.2-3.4-5.8-6.4-9.3-3.8-.4.3-.9.7-1.3,1-2-2-4.7-3.3-8.1-3.6-8.6-.8-16,7-16.2,15.3-.2,7.3,4.4,13.8,11.5,15.8,6.3,1.7,13.5-.2,18.1-4.8,4.8-4.7,7.4-13.5,5.2-19.9Z"/>
        <path class="cls-2" d="M604.2,1294.1c-.5-.9-1.2-1.6-2-2.2-.8-.7-1.6-1.2-2.7-1.4-.9-.2-1.8-.3-2.7-.5-1.5-.4-3-.4-4.4,0-1.4.4-2.6,1.1-3.7,2.1-1.5,1.6-2.4,3.6-2.4,5.9s.9,4.4,2.4,5.9c1,1,2.3,1.7,3.7,2.1,1.5.4,3,.4,4.4,0,.9-.2,1.8-.3,2.7-.5.6-.3,1.2-.5,1.9-.8.9-.5,1.6-1.2,2.2-2,1-1.3,1.8-3,1.7-4.7,0-1.4-.4-2.7-1.1-3.9Z"/>
        <path class="cls-2" d="M1187.3,711.7c-.3-3.1-.4-6.1-2.1-8.8-1.9-3-5-4.9-8.6-4.9s-7.2,1.8-8.6,4.9c-.9,2-1.6,3.8-1.7,6,0,1.1.1,2.3.2,3.4.1,2.7.2,5.4.8,8,1.2,5,6.5,8.1,11.4,7.4,5.3-.7,8.5-5,9-10.2.2-1.9-.2-3.9-.3-5.8Z"/>
        <path class="cls-2" d="M1287.2,808.8c-1.9-1.7-4.2-2.8-6.8-2.8s-5,1.1-6.8,2.8c-.9.9-1.6,1.9-2,3.1-.6,1.1-.9,2.4-.8,3.7.1,2.5.9,5,2.8,6.8,1.9,1.7,4.2,2.8,6.8,2.8s5-1.1,6.8-2.8c.9-.9,1.6-1.9,2-3.1.6-1.1.9-2.4.8-3.7-.1-2.5-.9-5-2.8-6.8Z"/>
        <path class="cls-2" d="M1573,965.3c-1.9-1.7-4.2-2.8-6.8-2.8s-5,1.1-6.8,2.8c-.9.9-1.6,1.9-2,3.1-.6,1.1-.9,2.4-.8,3.7.1,2.5.9,5,2.8,6.8,1.9,1.7,4.2,2.8,6.8,2.8s5-1.1,6.8-2.8c.9-.9,1.6-1.9,2-3.1.6-1.1.9-2.4.8-3.7-.1-2.5-.9-5-2.8-6.8Z"/>
        <path class="cls-2" d="M1546.6,1083.8c-.4-1.9-1.2-3.8-2.3-5.6,0-.7,0-1.5,0-2.3-.7-5.3-5.9-11.2-11.8-10.4-7.1.9-13,3.6-16.7,10.1-3,5.3-4,11.7-2.8,17.6,1.2,5.8,5.8,13,12,14.4,6.8,1.5,13.6-1.5,17.7-6.9,3.6-4.7,5.3-10.9,4-16.8Z"/>
        <path class="cls-2" d="M1544.3,625c-1.3-6.9-5.7-13.2-11.9-16.7-7.8-4.4-17.4,1.1-17.6,10.1-.1,6.3-.4,12.1,2.6,17.8,1.2,2.2,3,3.6,5,4.3,1.1,3,4.1,4.5,7.2,4.9,5,1.3,10.3-2.4,12.7-6.4,2.7-4.3,2.8-9.1,1.9-13.9Z"/>
        <path class="cls-2" d="M1380.5,549.1c-4.3-5.9-11.5-9.8-18.9-7.5-8.3,2.5-13.1,12.8-7.9,20.3,2.2,3.1,5.4,5.5,8.9,6.4,1.2,1.3,2.7,2.3,4.2,2.9,3,1.3,7.3,1.6,10.1-.6,1.7-1.3,3.4-2.4,4.4-4.4.5-.9,1-2.1,1.3-3.1.5-1.6.7-3.2.7-4.9,0-3.2-1-6.6-2.9-9.2Z"/>
      </g>
    </g>
  </g>
</svg>