<?xml version="1.0" encoding="UTF-8" standalone="no"?>
<!-- Created with Inkscape (http://www.inkscape.org/) -->

<svg
   width="50mm"
   height="80mm"
   viewBox="0 0 50 80"
   version="1.1"
   id="svg1"
   inkscape:version="1.3.2 (091e20e, 2023-11-25, custom)"
   sodipodi:docname="konijn_uitgesplits.svg"
   xmlns:inkscape="http://www.inkscape.org/namespaces/inkscape"
   xmlns:sodipodi="http://sodipodi.sourceforge.net/DTD/sodipodi-0.dtd"
   xmlns="http://www.w3.org/2000/svg"
   xmlns:svg="http://www.w3.org/2000/svg">
  <sodipodi:namedview
     id="namedview1"
     pagecolor="#ffffff"
     bordercolor="#000000"
     borderopacity="0.25"
     inkscape:showpageshadow="2"
     inkscape:pageopacity="0.0"
     inkscape:pagecheckerboard="0"
     inkscape:deskcolor="#d1d1d1"
     inkscape:document-units="mm"
     inkscape:zoom="1"
     inkscape:cx="396.5"
     inkscape:cy="279.5"
     inkscape:window-width="1920"
     inkscape:window-height="991"
     inkscape:window-x="-9"
     inkscape:window-y="-9"
     inkscape:window-maximized="1"
     inkscape:current-layer="layer1" />
  <defs
     id="defs1" />
  <g
     inkscape:label="Layer 1"
     inkscape:groupmode="layer"
     id="layer1">
    <g
       id="g3"
       transform="matrix(0.25851403,0,0,0.25851403,-6.0337234,-9.3216964)">
      <g
         id="g2">
        <g
           id="g1">
          <path
             class="cls-1"
             d="m 148.14945,51.501002 c 1.79917,0.79375 4.20688,0.79375 5.58271,-0.820208 1.21708,-1.402292 1.32292,-3.624792 0,-4.974167 -0.10583,-0.105833 0,-0.370416 0.15875,-0.291041 2.32833,0.9525 4.84187,0.449791 6.79979,-1.084792 -0.89958,-1.164167 -1.93146,-2.196042 -3.12208,-2.989792 -3.67771,-2.460625 -8.04334,-1.878541 -12.03854,-0.529166 -0.79375,0.264583 -1.5875,0.529166 -2.38125,0.820208 0.18521,3.65125 1.34937,8.228542 5.00062,9.868958 z"
             id="path53"
             style="fill:#f2c3b3;stroke:#00ff00;stroke-width:0.264583;stroke-opacity:1" />
          <path
             class="cls-3"
             d="m 74.621744,240.36058 c 0,0 0,0 0,0 -3.069166,-0.97896 -7.831666,-1.79916 -9.498541,1.93146 -1.402292,3.12208 1.137708,6.58813 3.413125,8.51958 4.339166,3.67771 10.689166,4.65667 15.901458,2.32834 -0.555625,-0.47625 -1.11125,-0.9525 -1.640417,-1.45521 -3.386666,-3.22792 -6.111875,-7.09083 -8.149166,-11.32417 z"
             id="path54"
             style="fill:#bfbbb6;stroke:#003200;stroke-width:0.264583;stroke-opacity:1" />
          <path
             class="cls-1"
             d="m 74.410078,85.394127 c 0.873125,-1.640417 1.957916,-3.201459 3.175,-4.60375 0.661458,-0.740833 1.375833,-1.455208 2.116666,-2.116667 0.687917,-0.608541 0.767292,-0.635 0.370417,-1.481666 C 79.860494,76.742252 79.463619,76.29246 79.172578,75.869127 73.748619,67.87871 68.271744,59.94121 62.821328,51.950794 c 1.719791,6.614583 3.413125,13.229166 5.132916,19.84375 0.02646,0.105833 -0.05292,0.211666 -0.15875,0.211666 -8.73125,-0.132291 -17.436041,-0.291041 -26.167291,-0.423333 5.715,5.265208 11.403542,10.503958 17.118541,15.769166 0.105834,0.105834 0.05292,0.238125 -0.07937,0.291042 -7.593541,2.592917 -15.187083,5.185833 -22.780624,7.752292 11.879791,0.07937 23.759583,0.502708 35.639374,0.582083 0.15875,-3.704167 1.137709,-7.3025 2.8575,-10.583333 z"
             id="path55"
             style="opacity:1;fill:#f2c3b3;stroke:#00ff00;stroke-width:0.1;stroke-dasharray:none;stroke-opacity:1" />
          <path
             class="cls-4"
             d="m 179.52903,249.22412 c -0.10583,0 -0.15875,-0.0794 -0.15875,-0.15875 -0.1852,-8.17562 -0.52916,-16.35125 -1.34937,-24.47395 -1.98438,-19.52625 -7.17021,-40.37542 -19.39396,-56.06521 -3.41312,-4.41854 -7.40833,-8.41375 -12.03854,-11.85333 0,0 -0.0529,-0.0529 -0.0529,-0.0529 -0.0529,-0.0794 -0.0529,-0.15875 0.0529,-0.21167 0,0 0.0529,-0.0265 0.0794,-0.0265 13.73187,-6.79979 21.72229,-20.10833 25.18833,-34.66041 0.34396,-1.48167 0.66146,-2.98979 0.92604,-4.47146 2.69875,-14.89604 1.21708,-30.083125 -2.27542,-44.793958 -1.00541,-4.28625 -2.19604,-8.519583 -3.43958,-12.726458 -1.05833,-3.518959 -2.06375,-7.090833 -3.57188,-10.424583 -0.71437,-1.5875 -1.56104,-3.201459 -2.61937,-4.630209 -1.87854,1.455209 -4.23333,2.06375 -6.50875,1.349375 0.82021,1.190625 0.84667,2.751667 0.18521,4.074584 -0.87313,1.772708 -2.83104,2.513541 -4.73604,2.301875 -5.02709,-0.608542 -6.77334,-6.270625 -7.03792,-10.583334 -6.90562,2.460625 -13.70542,5.503334 -20.26708,8.757709 -7.38188,3.677708 -14.52563,7.937499 -21.03438,13.043958 -11.906248,9.36625 -21.775206,21.722291 -25.955622,36.433121 0.47625,-0.396872 0.978958,-0.820205 1.455208,-1.21708 0.185208,-0.132292 0.423333,0.105833 0.238125,0.238125 -1.640417,1.296455 -3.201458,2.698745 -4.683125,4.153955 -6.376458,6.21771 -12.144375,13.81125 -15.134167,22.27792 -3.333749,9.39271 -3.439583,19.685 -3.624791,29.55396 -0.291042,15.95437 -0.740833,34.6075 -12.964583,46.59312 -3.122084,3.06917 -7.117292,5.10646 -10.107084,8.28146 -2.751666,2.91042 -4.736041,8.01688 -2.037291,11.43 0.238125,0.29104 0.502708,0.58208 0.820208,0.87313 3.598333,3.175 8.810625,1.82562 12.329583,-0.66146 1.640417,-1.19063 3.175,-2.56646 4.60375,-4.07459 0,-0.0794 0.05292,-0.1852 0.15875,-0.1852 0,0 0,0 0,0 1.719792,-1.82563 3.280834,-3.81 4.709584,-5.76792 5.291666,-7.17021 9.022291,-15.45167 10.927291,-24.13 2.169583,-9.89542 1.349375,-19.89667 0.608542,-29.89792 -0.635,-8.81062 -0.9525,-17.48896 1.42875,-26.08791 1.825625,-6.4823 4.868333,-12.88521 9.630833,-17.72709 0.555625,-0.58208 1.164167,-1.13771 1.772708,-1.66687 0.15875,-0.13229 0.423334,0.10583 0.238125,0.23812 -0.740833,0.635 -1.42875,1.29646 -2.116666,2.01084 -0.132292,0.13229 -0.238125,0.26458 -0.370417,0.39687 0,0.29104 0,0.58208 0,0.87313 0.07937,3.81 0.555625,7.59354 1.508125,11.27125 0.264583,1.05833 0.582083,2.11666 0.926042,3.14854 4.894791,14.44625 18.282708,26.08791 33.813752,26.82875 0,0 0.0265,0 0.0529,0 0.0794,0 0.1323,0.0794 0.10584,0.15875 -0.42334,6.48229 -3.41313,12.17083 -8.20209,16.48354 -5.741454,5.18583 -12.594163,9.02229 -17.938746,14.71083 -8.863541,9.44563 -13.864166,22.64834 -13.149791,35.61292 0.635,11.56229 6.085416,23.23041 15.425208,30.26833 11.58875,8.75771 26.167289,6.72042 39.634579,5.05354 9.15459,-1.13771 18.30917,-2.14312 27.46375,-3.175 5.45042,-0.60854 10.92729,-1.27 16.37771,-1.95791 -0.26458,-0.34396 -0.47625,-0.74084 -0.66146,-1.13771 -0.87312,-1.87854 -1.03187,-3.96875 -1.21708,-6.00604 -0.26458,-2.54 -0.58208,-5.08 -0.9525,-7.62 -0.71438,-4.7625 -1.61396,-9.47209 -2.72521,-14.15521 -2.27542,-9.60438 -5.37104,-18.97063 -9.23396,-28.04583 -0.0794,-0.21167 0.21167,-0.37042 0.29104,-0.18521 3.88938,9.10166 7.01146,18.49437 9.28688,28.12521 1.00542,4.25979 1.85208,8.54604 2.51354,12.8852 0.3175,2.03729 0.60854,4.10104 0.84667,6.16479 0.26458,2.27542 0.34396,4.63021 0.89958,6.85271 0.52917,2.14313 1.79917,4.36563 4.07458,5.02709 2.51355,0.71437 5.3975,-0.71438 4.49792,-3.70417 -0.60854,-2.03729 -2.80458,-3.30729 -3.81,-5.15938 -0.79375,-1.48166 -1.21708,-3.12208 -1.45521,-4.7625 -0.58208,-3.91583 -0.52916,-7.88458 -0.97896,-11.82687 -0.52916,-4.41854 -1.34937,-8.83708 -2.46062,-13.14979 -2.16958,-8.44021 -5.3975,-16.56292 -9.57792,-24.18292 -0.10583,-0.18521 0.18521,-0.37041 0.29104,-0.18521 5.00063,9.10167 8.65188,18.94417 10.74209,29.13063 0.92604,4.49791 1.53458,9.02229 1.85208,13.59958 0.26458,3.75708 0.10583,7.96396 1.98438,11.29771 0,-4.81542 0.3175,-9.55146 -0.0265,-14.36688 -0.39688,-5.10645 -1.19063,-10.15999 -2.35479,-15.13416 -2.3548,-9.81604 -6.24417,-19.20875 -11.50938,-27.80771 -0.10583,-0.18521 0.18521,-0.37042 0.29104,-0.18521 5.29167,8.62542 9.2075,18.04459 11.53584,27.88709 1.16416,4.84187 1.95791,9.76312 2.35479,14.73729 0.42333,5.15937 0.0794,10.23937 0.0794,15.4252 0.23813,0.37042 0.52917,0.74084 0.82021,1.0848 1.19063,1.34937 2.64583,2.51354 2.77813,4.445 0,0.29104 0,0.55562 -0.0265,0.8202 1.71979,0.52917 3.54541,-0.1852 3.70416,-2.11666 0.10584,-1.16417 -0.47625,-2.48709 -1.79916,-2.54 z M 149.44591,83.674335 c 1.48167,2.831042 5.05354,4.312708 8.04333,3.095625 3.01625,-1.243542 4.49792,-4.815417 3.57188,-7.858125 -0.0529,-0.211666 0.26458,-0.291041 0.34396,-0.07937 0.97895,3.201458 -0.60855,6.958542 -3.78355,8.281458 -3.14854,1.296459 -6.93208,-0.264583 -8.49312,-3.227916 -0.10583,-0.185209 0.18521,-0.370417 0.29104,-0.185209 z m -37.88833,8.863542 c -0.50271,3.201458 -2.35479,6.111875 -5.15938,7.725833 -3.36021,1.95792 -7.434789,2.06375 -11.218331,2.06375 -0.211667,0 -0.211667,-0.34396 0,-0.34396 3.439583,0 7.117291,-0.0529 10.292291,-1.5875 2.88396,-1.40229 4.92125,-4.048123 5.60917,-7.196665 1.50812,-6.746875 -4.18042,-12.964583 -11.00667,-12.488333 -0.211666,0 -0.211666,-0.3175 0,-0.343958 6.72042,-0.47625 12.51479,5.423958 11.48292,12.170833 z"
             id="path56"
             style="fill:#ffffff;stroke-width:0.264583" />
          <path
             class="cls-3"
             d="m 70.626536,153.23329 c 0.07937,7.24959 -0.820208,15.37229 -6.561667,20.47875 0,0 -0.02646,0.0265 -0.05292,0.0265 -0.105834,8.49313 -1.613959,16.80104 -4.92125,24.68563 -2.831042,6.77333 -6.879167,13.335 -11.985625,18.70604 6.270625,-0.79375 12.170833,-3.57188 17.012708,-7.62 9.736667,-8.17563 13.414375,-20.69042 13.864167,-33.02 0.238125,-6.72042 -0.687917,-13.28209 -1.322917,-19.94959 -0.582083,-6.24416 -0.423333,-12.7 2.8575,-18.20333 -2.037292,-3.30729 -3.545417,-6.87917 -4.577292,-10.60979 -5.582708,7.19667 -4.365625,16.95979 -4.28625,25.47937 z"
             id="path57"
             style="fill:#bfbbb6;stroke:#003200;stroke-width:0.1;stroke-dasharray:none;stroke-opacity:1" />
          <path
             class="cls-2"
             d="m 153.17653,255.89162 c -9.15458,1.03188 -18.33562,2.0373 -27.46374,3.175 -13.4673,1.66688 -28.019379,3.70417 -39.634588,-5.05354 -9.339791,-7.03791 -14.790208,-18.7325 -15.425208,-30.26833 -0.714375,-12.96458 4.259792,-26.16729 13.149792,-35.61292 5.318125,-5.66208 12.170833,-9.49854 17.938754,-14.71083 4.78895,-4.33917 7.77875,-10.00125 8.20208,-16.48354 0,-0.0794 -0.0529,-0.13229 -0.10583,-0.15875 0,0 -0.0265,0 -0.0529,0 -15.531043,-0.76729 -28.945417,-12.3825 -33.813751,-26.82875 -0.343958,-1.03188 -0.661458,-2.09021 -0.926041,-3.14854 1.693333,2.38125 3.81,5.21229 5.344583,6.50875 5.23875,4.41854 10.715625,8.38729 16.906875,11.45646 7.646454,3.78354 14.446254,7.32895 26.061454,7.35541 -1.4552,4.55084 -4.07458,12.59417 -17.43604,26.16729 -12.752914,12.96459 -27.384372,26.3525 -23.309789,46.51375 1.719791,8.44021 6.693958,16.16604 13.705416,21.19313 8.202083,5.87375 18.547293,7.88458 28.601463,8.51958 9.41916,0.60854 18.89125,0.9525 28.31041,1.45521 z"
             id="path58"
             style="fill:#e4e1dc;stroke:#006400;stroke-width:0.264583;stroke-opacity:1" />
          <path
             class="cls-2"
             d="m 146.56195,156.56704 c 0,0 0.0265,0.0529 0.0529,0.0529 4.63021,3.43958 8.59896,7.46125 12.03854,11.85333 -6.27063,-4.73604 -13.09687,-8.70479 -20.32,-11.82687 10.53042,-2.77813 19.18229,-10.58334 25.10896,-19.73792 2.32833,-3.57187 4.25979,-7.38187 5.97958,-11.27125 0.92604,-2.11667 1.69333,-6.32354 3.38667,-8.46667 -0.26459,1.48167 -0.58209,2.9898 -0.92604,4.47146 -3.4925,14.52563 -11.45646,27.86063 -25.18834,34.66042 0,0 -0.0529,0 -0.0794,0.0265 -0.0794,0.0529 -0.0794,0.15875 -0.0529,0.21166 z"
             id="path59"
             style="fill:#e4e1dc;stroke:#006400;stroke-width:0.264583;stroke-opacity:1" />
          <path
             class="cls-2"
             d="m 73.484036,114.60413 c 0.132292,-0.1323 0.238125,-0.26459 0.370417,-0.39688 0,0.10583 -0.05292,0.23813 -0.07938,0.34396 -0.07937,0.29104 -0.15875,0.60854 -0.291042,0.92604 0,-0.29104 0,-0.58208 0,-0.87312 z"
             id="path60"
             style="fill:#e4e1dc;stroke-width:0.264583" />
          <path
             class="cls-2"
             d="m 73.933828,113.62517 c -4.7625,4.84187 -7.831667,11.24479 -9.630834,17.72708 -2.407708,8.59896 -2.090208,17.27729 -1.42875,26.08792 0.714375,10.00125 1.534584,20.0025 -0.608541,29.89791 -1.905,8.7048 -5.635625,16.98625 -10.927292,24.13 -1.455208,1.95792 -3.01625,3.9423 -4.709583,5.76792 0,0 0,0 0,0 -0.105833,0 -0.15875,0.10583 -0.15875,0.18521 -1.42875,1.50812 -2.963333,2.91042 -4.60375,4.07458 -3.518958,2.51354 -8.73125,3.86292 -12.329583,0.66146 -0.3175,-0.26458 -0.582083,-0.55562 -0.820208,-0.87312 2.222499,0.47625 4.603749,0.21166 6.746874,-0.55563 2.910417,-1.05833 5.450417,-2.98979 7.699375,-5.13292 6.535209,-6.2177 11.059584,-14.49916 12.805833,-23.3627 1.164167,-5.90021 1.084792,-11.95917 1.190625,-17.96521 0.132292,-9.31334 0.661459,-18.60021 1.164167,-27.91354 0.238125,-4.49792 0.502708,-9.04875 1.561042,-13.44084 1.217083,-5.10646 3.571875,-9.94833 6.773333,-14.12875 1.137708,-1.48166 7.725833,-9.23396 7.355417,-5.21229 z"
             id="path61"
             style="fill:#e4e1dc;stroke:#006400;stroke-width:0.1;stroke-dasharray:none;stroke-opacity:1" />
          <path
             d="m 180.45508,249.09183 c -0.58209,-0.29104 -0.68792,-0.0794 -0.7673,-0.84666 -0.13229,-1.11125 -0.0529,-2.30188 -0.0794,-3.41313 -0.26458,-8.78417 -0.76729,-17.59479 -1.95792,-26.32604 -2.09021,-15.5575 -6.40291,-31.37958 -14.86958,-44.7675 -4.20688,-6.64104 -9.49854,-12.48833 -15.76917,-17.22437 12.14438,-6.08542 19.97604,-17.35667 23.91834,-30.13605 4.86833,-15.82208 4.39208,-32.62312 1.11125,-48.709786 -1.77271,-8.651875 -4.04813,-17.383125 -7.06438,-25.691042 -2.01083,-5.529791 -5.3975,-11.90625 -11.90625,-12.673541 -4.20687,-0.502709 -8.33437,1.322916 -12.14437,2.804583 -3.96875,1.534583 -7.91104,3.148542 -11.80042,4.894792 -7.88458,3.518958 -15.5575,7.540624 -22.67479,12.461874 -12.567709,8.651875 -23.600834,20.293542 -29.315834,34.633958 -0.820208,2.037292 -1.508125,4.153959 -2.090208,6.270622 0,0 0,0 0,0 -6.138334,5.31813 -11.456459,11.80042 -15.292917,18.94417 -4.550833,8.49312 -5.715,18.15042 -6.138333,27.64896 -0.740833,17.72708 1.11125,38.60271 -11.641667,52.89021 -2.989791,3.3602 -6.879166,5.55625 -10.212916,8.51958 -2.831042,2.48708 -5.23875,6.13833 -4.656667,10.08062 0.47625,3.3073 3.254375,5.45042 6.455833,5.87375 3.942292,0.50271 7.487709,-1.53458 10.345209,-4.04812 0.978958,-0.84667 1.905,-1.74625 2.804583,-2.69875 10.715625,-1.24354 20.452291,-8.09625 25.7175,-17.43604 6.429375,-11.43 6.641041,-25.34709 5.185833,-38.02063 -0.899583,-7.85812 -2.06375,-16.27187 2.090208,-23.41562 0.185209,0.3175 0.396875,0.60854 0.582084,0.92604 4.233333,6.35 10.239374,11.56229 17.250833,14.63146 3.809999,1.66687 7.884579,2.64583 12.038539,2.88396 -0.47625,6.72041 -3.75708,12.35604 -8.81062,16.74812 -5.371044,4.65667 -11.588753,8.30792 -16.589378,13.41438 -8.784166,8.99583 -13.890624,21.4577 -13.917083,34.02541 0,6.37646 1.42875,12.83229 4.153959,18.62667 -3.01625,-0.92604 -7.064375,-1.53459 -9.181042,1.45521 -1.905,2.67229 -0.238125,6.19125 1.666875,8.33437 4.392083,4.92125 11.853333,6.40292 17.806458,3.67771 3.730625,3.06917 8.09625,5.29167 12.805833,6.45583 7.090838,1.71979 14.472708,1.21709 21.642918,0.39688 16.88042,-1.95792 33.76083,-3.83646 50.61479,-5.95313 0,0 0,0 0,0 1.48167,1.77271 3.83646,2.72521 6.16479,1.77271 0.87313,-0.37042 1.37583,-1.00542 1.5875,-1.82562 2.2225,0.68791 4.39208,-0.66146 4.10104,-3.12209 -0.10583,-0.79375 -0.44979,-1.61396 -1.19062,-2.01083 z M 145.50362,40.785377 c 3.99521,-1.349375 8.33437,-1.931458 12.03854,0.529167 1.21708,0.820208 2.24896,1.852083 3.12208,2.989792 -1.95791,1.534583 -4.445,2.06375 -6.79979,1.084791 -0.15875,-0.07937 -0.29104,0.185209 -0.15875,0.291042 1.34938,1.349375 1.24354,3.571875 0,4.974167 -1.37583,1.5875 -3.78354,1.613958 -5.58271,0.820208 -3.6777,-1.640417 -4.81541,-6.217708 -5.00062,-9.868958 0.79375,-0.291042 1.5875,-0.555625 2.38125,-0.820209 z M 76.632578,156.56704 c 0.635,6.6675 1.561041,13.22917 1.322916,19.94959 -0.449791,12.32958 -4.101041,24.84437 -13.864166,33.02 -4.841875,4.04812 -10.742083,6.82625 -17.012708,7.62 5.106458,-5.3975 9.154583,-11.95917 11.985624,-18.70605 3.307292,-7.88458 4.815417,-16.21895 4.92125,-24.68562 0,0 0.05292,0 0.05292,-0.0265 5.741458,-5.10646 6.641042,-13.22917 6.561667,-20.47875 -0.07937,-8.51958 -1.296459,-18.28271 4.28625,-25.47937 1.031875,3.70416 2.54,7.27604 4.577291,10.60979 -3.280833,5.52979 -3.439583,11.98562 -2.8575,18.20333 z m -6.402917,-6.53521 c 0.211667,8.04334 0.185208,17.40959 -6.217708,23.28334 0,-0.68792 0,-1.40229 0,-2.09021 -0.211667,-10.26583 -2.143125,-20.6375 -1.084792,-30.87688 0.873125,-8.4402 3.704167,-17.145 8.995833,-23.89187 0.396875,-0.50271 0.79375,-0.97896 1.217084,-1.45521 0.05292,4.18042 0.582083,8.33438 1.666875,12.35604 -5.08,6.37646 -4.815417,14.94896 -4.577292,22.67479 z m -1.693333,100.77979 c -2.275417,-1.93145 -4.815417,-5.3975 -3.413125,-8.51958 1.666875,-3.73062 6.402916,-2.91042 9.498541,-1.93146 0,0 0,0 0,0 2.037292,4.20688 4.788959,8.06979 8.149167,11.32417 0.529166,0.50271 1.084791,1.00542 1.640416,1.45521 -5.212291,2.32833 -11.535833,1.37583 -15.901458,-2.32834 z m 112.791872,0.9525 c -0.15875,1.93146 -1.98437,2.64584 -3.70417,2.11667 0.0265,-0.26458 0.0529,-0.52917 0.0265,-0.82021 -0.10583,-1.93146 -1.5875,-3.06916 -2.77812,-4.445 -0.3175,-0.34396 -0.58209,-0.71437 -0.82021,-1.08479 0,-5.15937 0.34396,-10.23937 -0.0794,-15.42521 -0.39687,-4.97416 -1.19062,-9.89541 -2.35479,-14.73729 -2.35479,-9.8425 -6.27062,-19.26166 -11.53583,-27.88708 -0.10583,-0.18521 -0.42333,0 -0.29104,0.18521 5.26521,8.59896 9.15458,17.99166 11.50937,27.80771 1.19063,4.97416 1.98438,10.0277 2.38125,15.13416 0.37042,4.81542 0.0529,9.55146 0.0265,14.36688 -1.87854,-3.36021 -1.71979,-7.54063 -1.98437,-11.29771 -0.3175,-4.57729 -0.92605,-9.12813 -1.85209,-13.59958 -2.09021,-10.18646 -5.74146,-20.02896 -10.74208,-29.13063 -0.10583,-0.18521 -0.39688,0 -0.29104,0.18521 4.18041,7.62 7.43479,15.76917 9.57791,24.18292 1.11125,4.3127 1.93146,8.73125 2.46063,13.14979 0.47625,3.91583 0.42333,7.91104 1.00542,11.82687 0.23812,1.64042 0.66145,3.30729 1.4552,4.7625 1.00542,1.85208 3.175,3.12208 3.81,5.15938 0.89959,2.98979 -1.95791,4.39208 -4.49791,3.6777 -2.27542,-0.635 -3.54542,-2.8575 -4.07459,-5.02708 -0.55562,-2.2225 -0.60854,-4.57729 -0.87312,-6.85271 -0.23813,-2.06375 -0.52917,-4.1275 -0.84667,-6.16479 -0.68791,-4.31271 -1.50812,-8.62542 -2.51354,-12.88521 -2.27542,-9.63083 -5.3975,-19.02354 -9.28687,-28.1252 -0.0794,-0.21167 -0.39688,-0.0265 -0.29105,0.1852 3.86292,9.07521 6.985,18.44146 9.23396,28.04584 1.11125,4.68312 2.01084,9.3927 2.72521,14.1552 0.37042,2.54 0.68792,5.08 0.9525,7.62 0.21167,2.01084 0.34396,4.1275 1.21708,6.00605 0.18521,0.39687 0.42334,0.79375 0.66146,1.1377 -14.605,1.82563 -29.23645,3.3073 -43.84145,5.10646 -13.4673,1.66688 -28.019379,3.70417 -39.634588,-5.05354 -9.339791,-7.03792 -14.790208,-18.7325 -15.425208,-30.26833 -0.714375,-12.96458 4.259792,-26.16729 13.149792,-35.61292 5.318125,-5.68854 12.170833,-9.49854 17.938754,-14.71083 4.78895,-4.33917 7.77875,-10.00125 8.20208,-16.48354 0,-0.0794 -0.0529,-0.13229 -0.10583,-0.15875 0,0 -0.0265,0 -0.0529,0 -15.531043,-0.76729 -28.945417,-12.3825 -33.813751,-26.82875 -1.666875,-4.92125 -2.434166,-10.10709 -2.460625,-15.31938 0.767292,-0.84666 1.613959,-1.64041 2.487084,-2.40771 0.15875,-0.13229 -0.07937,-0.39687 -0.238125,-0.23812 -5.794375,4.97417 -9.392709,12.11792 -11.43,19.39396 -2.407709,8.59896 -2.090209,17.27729 -1.42875,26.08791 0.714375,10.00125 1.534583,20.0025 -0.608542,29.87146 -1.905,8.70479 -5.662083,16.98625 -10.927291,24.13 -1.42875,1.95792 -3.01625,3.94229 -4.709584,5.76792 0,0 0,0 0,0 -0.105833,0 -0.15875,0.10583 -0.15875,0.18521 -1.42875,1.50812 -2.963333,2.91041 -4.630208,4.07458 -3.518958,2.51354 -8.73125,3.86292 -12.329583,0.68792 -3.836458,-3.38667 -1.74625,-9.15459 1.243541,-12.30313 3.01625,-3.175 6.985,-5.21229 10.107084,-8.28146 12.22375,-12.01208 12.673541,-30.63875 12.964583,-46.61958 0.185208,-9.86896 0.291042,-20.13479 3.624791,-29.55396 2.989792,-8.46666 8.757709,-16.06021 15.134167,-22.27791 1.481667,-1.45521 3.042708,-2.83105 4.683125,-4.153962 0.185208,-0.132291 -0.07937,-0.370416 -0.238125,-0.238125 -0.502708,0.396875 -0.978958,0.79375 -1.455208,1.217084 4.180416,-14.737292 14.049374,-27.093333 25.955627,-36.433125 6.50875,-5.106458 13.6525,-9.36625 21.03437,-13.043958 6.56167,-3.254375 13.36146,-6.270625 20.26709,-8.757708 0.26458,4.312708 2.01083,9.974791 7.03791,10.583333 1.905,0.238125 3.86292,-0.529167 4.73604,-2.301875 0.66146,-1.322917 0.635,-2.883958 -0.18521,-4.074583 2.27542,0.687916 4.63021,0.105833 6.50875,-1.349375 1.05834,1.42875 1.905,3.01625 2.61938,4.630208 1.50812,3.360208 2.51354,6.932083 3.57187,10.424583 1.27,4.206875 2.43417,8.440208 3.43959,12.726458 3.86291,16.1925 5.26521,32.967085 1.34937,49.291875 -3.4925,14.52562 -11.45646,27.86062 -25.18833,34.66042 0,0 -0.0529,0 -0.0794,0.0265 -0.0794,0.0529 -0.0794,0.15875 -0.0529,0.21167 0,0 0.0265,0.0529 0.0529,0.0529 21.06083,15.71625 28.86604,42.91541 31.40604,67.945 0.8202,8.1227 1.16416,16.29833 1.34937,24.47395 0,0.10584 0.0794,0.15875 0.18521,0.18521 1.32292,0.0529 1.87854,1.37584 1.79917,2.54 z"
             id="path62"
             style="stroke:#000000;stroke-width:0.1;stroke-dasharray:none;stroke-opacity:1" />
          <path
             d="m 157.64799,87.08746 c 3.14854,-1.296458 4.73604,-5.08 3.78354,-8.255 -0.0529,-0.211666 -0.39687,-0.132291 -0.34395,0.07937 0.92604,3.042708 -0.58209,6.614583 -3.57188,7.858125 -3.01625,1.243542 -6.58812,-0.264583 -8.06979,-3.069167 -0.10583,-0.185208 -0.39688,0 -0.29104,0.185209 1.56104,2.963333 5.34458,4.524375 8.49312,3.227916 z"
             id="path63"
             style="stroke:#000000;stroke-width:0.1;stroke-dasharray:none;stroke-opacity:1" />
          <path
             d="m 34.775495,95.686418 c 0,0 0,0 0,0 0.02646,0.02646 0.07937,0.05292 0.132291,0.05292 0,0 0,0 0,0 12.276667,0.05292 24.553333,0.529167 36.803542,0.582083 0.07937,0 0.105833,-0.02646 0.132291,-0.07937 0,0 0.02646,-0.05292 0.02646,-0.07937 0.238125,-7.037916 3.571875,-13.678958 9.075208,-18.071041 0.05292,-0.05292 0.07937,-0.15875 0.02646,-0.211667 -6.111875,-8.995833 -12.276666,-17.93875 -18.388541,-26.908124 0,0 0,0 0,0 -0.05292,-0.07938 -0.15875,-0.105834 -0.238125,-0.05292 0,0 0,0 0,0 0,0 0,0 0,0 -0.05292,0.02646 -0.07937,0.105833 -0.05292,0.15875 0,0 0,0 0,0 l 3.042708,11.721041 c 0.47625,1.878542 0.978959,3.730625 1.455209,5.609167 0.105833,0.449792 0.238125,0.899583 0.343958,1.322917 0.05292,0.211666 0.502708,1.402291 0.423333,1.5875 -0.238125,0.608541 -2.169583,0.264583 -2.672291,0.264583 -7.884584,-0.132292 -15.742708,-0.264583 -23.627292,-0.370417 -0.15875,0 -0.238125,0.185209 -0.132291,0.291042 2.963333,2.751667 5.953125,5.476875 8.916458,8.228542 1.481667,1.375833 2.963333,2.751666 4.471458,4.101041 0.740834,0.687917 1.481667,1.375833 2.2225,2.06375 0.343958,0.3175 0.714375,0.608542 1.005417,0.926042 0.529166,0.582083 0.555625,0.47625 -0.132292,0.820208 -1.772708,0.820208 -3.81,1.296458 -5.688541,1.931458 -1.905,0.635 -3.783542,1.296459 -5.688542,1.931459 -3.783542,1.296458 -7.567083,2.566458 -11.350625,3.862916 0,0 0,0 0,0 -0.105833,0.02646 -0.132292,0.15875 -0.07938,0.264584 0,0 0,0 0,0.02646 z m 23.918333,-8.043333 c 0.105833,-0.05292 0.185208,-0.185208 0.07937,-0.291042 -5.715,-5.265208 -11.403542,-10.503958 -17.118542,-15.769166 8.73125,0.132292 17.436042,0.291042 26.167292,0.423333 0.105833,0 0.185208,-0.105833 0.15875,-0.211666 -1.719792,-6.614584 -3.413125,-13.229167 -5.132917,-19.84375 5.423958,7.990416 10.900833,15.927916 16.35125,23.918333 0.291042,0.423333 0.661458,0.846667 0.899583,1.322917 0.396875,0.846666 0.3175,0.873125 -0.370416,1.481666 -0.740834,0.661459 -1.455209,1.375834 -2.116667,2.116667 -1.243542,1.402291 -2.301875,2.963333 -3.175,4.60375 -1.74625,3.280833 -2.725208,6.879166 -2.8575,10.583333 C 59.699239,95.92454 47.819448,95.474752 35.939656,95.395377 43.533198,92.80246 51.12674,90.209543 58.720281,87.643085 Z"
             id="path64"
             style="stroke:#000000;stroke-width:0.1;stroke-dasharray:none;stroke-opacity:1" />
          <path
             d="m 100.10112,80.367044 c -0.211668,0 -0.211668,0.370416 0,0.343958 6.82625,-0.47625 12.51479,5.741458 11.00667,12.488333 -0.71438,3.122083 -2.72521,5.767917 -5.60917,7.196665 -3.175,1.53458 -6.826251,1.61396 -10.292293,1.5875 -0.211666,0 -0.211666,0.34396 0,0.34396 3.783542,0 7.858123,-0.0794 11.218333,-2.06375 2.80458,-1.640417 4.65667,-4.550833 5.15938,-7.725833 1.05833,-6.746875 -4.7625,-12.647083 -11.48292,-12.170833 z"
             id="path65"
             style="stroke:#000000;stroke-width:0.1;stroke-dasharray:none;stroke-opacity:1" />
          <path
             class="cls-2"
             d="m 103.62008,189.37538 c -1.85209,2.06375 -3.25438,4.41854 -4.206878,7.01145 -0.3175,0.84667 1.031878,1.19063 1.322918,0.37042 0.87312,-2.38125 2.16958,-4.52437 3.86292,-6.40292 0.58208,-0.66145 -0.37042,-1.64041 -0.97896,-0.97895 z"
             id="path66"
             style="fill:#e4e1dc;stroke:#006400;stroke-width:0.264583;stroke-opacity:1" />
          <path
             class="cls-2"
             d="m 96.767369,199.93225 c -1.42875,1.71979 -2.169583,3.78354 -2.143125,6.00604 0,0.89959 1.402292,0.89959 1.375833,0 -0.02646,-1.85208 0.555625,-3.59833 1.74625,-5.02708 0.555625,-0.68792 -0.396875,-1.66688 -0.978958,-0.97896 z"
             id="path67"
             style="fill:#e4e1dc;stroke:#006400;stroke-width:0.264583;stroke-opacity:1" />
          <path
             class="cls-2"
             d="m 95.126952,217.18308 c -0.899583,-1.71979 -1.190625,-3.62479 -0.820208,-5.52979 0.15875,-0.87312 -1.164167,-1.24354 -1.322917,-0.37041 -0.423333,2.30187 -0.105833,4.52437 0.9525,6.58812 0.396875,0.79375 1.5875,0.0794 1.190625,-0.68792 z"
             id="path68"
             style="fill:#e4e1dc;stroke:#006400;stroke-width:0.264583;stroke-opacity:1" />
          <path
             class="cls-2"
             d="m 99.280911,225.22642 c -1.217084,-0.74084 -2.143125,-1.79917 -2.804584,-3.04271 -0.396875,-0.79375 -1.5875,-0.10583 -1.190625,0.68792 0.767292,1.48166 1.905,2.67229 3.307292,3.54541 0.767292,0.47625 1.455206,-0.71437 0.687917,-1.19062 z"
             id="path69"
             style="fill:#e4e1dc;stroke:#006400;stroke-width:0.264583;stroke-opacity:1" />
          <path
             class="cls-2"
             d="m 106.00133,231.70871 c -1.34938,-0.74084 -2.67229,-1.48167 -4.02167,-2.2225 -0.76729,-0.42334 -1.48167,0.76729 -0.68792,1.19062 1.34938,0.74084 2.6723,1.48167 4.02167,2.2225 0.76729,0.42334 1.48167,-0.76729 0.68792,-1.19062 z"
             id="path70"
             style="fill:#e4e1dc;stroke:#006400;stroke-width:0.264583;stroke-opacity:1" />
          <path
             class="cls-2"
             d="m 89.702994,204.93288 c -1.084792,2.59291 -1.190625,5.42395 -0.291042,8.09625 0.264584,0.84666 1.613959,0.47625 1.322917,-0.37042 -0.820208,-2.48708 -0.714375,-4.97417 0.291042,-7.38188 0.343958,-0.8202 -1.005417,-1.16416 -1.322917,-0.37041 z"
             id="path71"
             style="fill:#e4e1dc;stroke:#006400;stroke-width:0.264583;stroke-opacity:1" />
          <path
             class="cls-2"
             d="m 92.348827,224.64433 c -1.005416,-1.5875 -1.666875,-3.30729 -1.878541,-5.15937 -0.105834,-0.87313 -1.481667,-0.87313 -1.375834,0 0.238125,2.11667 0.899584,4.07458 2.06375,5.87375 0.47625,0.74083 1.666875,0.0529 1.190625,-0.68792 z"
             id="path72"
             style="fill:#e4e1dc;stroke:#006400;stroke-width:0.264583;stroke-opacity:1" />
          <path
             class="cls-2"
             d="m 99.704244,233.87829 c -1.296458,-1.19062 -2.566458,-2.40771 -3.862917,-3.59833 -0.661458,-0.60854 -1.640416,0.37041 -0.978958,0.97896 1.296458,1.19062 2.566458,2.4077 3.862917,3.59833 0.661458,0.60854 1.640414,-0.37042 0.978958,-0.97896 z"
             id="path73"
             style="fill:#e4e1dc;stroke:#006400;stroke-width:0.264583;stroke-opacity:1" />
          <path
             class="cls-2"
             d="m 90.311536,231.33829 c -1.296459,-1.85208 -2.248959,-3.81 -2.8575,-5.97958 -0.238125,-0.84667 -1.5875,-0.50271 -1.322917,0.37042 0.635,2.27541 1.640417,4.39208 2.989792,6.32354 0.502708,0.71437 1.693333,0.0264 1.190625,-0.68792 z"
             id="path74"
             style="fill:#e4e1dc;stroke:#006400;stroke-width:0.264583;stroke-opacity:1" />
          <path
             class="cls-2"
             d="m 98.857577,206.41454 c -1.058333,1.66688 -1.42875,3.54542 -1.164166,5.50334 0.132291,0.87312 1.455208,0.5027 1.322916,-0.37042 -0.211666,-1.5875 0.15875,-3.12208 1.005413,-4.445 0.47625,-0.74083 -0.714371,-1.45521 -1.190621,-0.68792 z"
             id="path75"
             style="fill:#e4e1dc;stroke:#006400;stroke-width:0.264583;stroke-opacity:1" />
          <path
             class="cls-2"
             d="m 95.497369,194.50829 c -0.846667,1.37584 -1.693333,2.75167 -2.54,4.10104 -0.47625,0.7673 0.714375,1.45521 1.190625,0.68792 0.846667,-1.37583 1.693333,-2.75167 2.54,-4.10104 0.47625,-0.76729 -0.714375,-1.45521 -1.190625,-0.68792 z"
             id="path76"
             style="fill:#e4e1dc;stroke:#006400;stroke-width:0.264583;stroke-opacity:1" />
          <path
             class="cls-2"
             d="m 103.96404,196.62496 c -1.42875,1.56104 -2.3548,3.43958 -2.69875,5.55625 -0.1323,0.87312 1.19062,1.24354 1.32291,0.37042 0.29104,-1.87855 1.05834,-3.51896 2.32834,-4.92125 0.58208,-0.66146 -0.37042,-1.64042 -0.97896,-0.97896 z"
             id="path77"
             style="fill:#e4e1dc;stroke:#006400;stroke-width:0.264583;stroke-opacity:1" />
          <path
             class="cls-2"
             d="m 102.08549,220.94017 c -0.44979,-1.74625 -0.92604,-3.4925 -1.37583,-5.23875 -0.23812,-0.84667 -1.561041,-0.50271 -1.322916,0.37041 0.449792,1.74625 0.926046,3.4925 1.375836,5.23875 0.23812,0.84667 1.56104,0.50271 1.32291,-0.37041 z"
             id="path78"
             style="fill:#e4e1dc;stroke:#006400;stroke-width:0.264583;stroke-opacity:1" />
          <path
             class="cls-2"
             d="m 105.10174,213.21433 c -0.60854,-1.79916 -0.71437,-3.59833 -0.26458,-5.42395 0.21167,-0.87313 -1.11125,-1.24355 -1.32292,-0.37042 -0.5027,2.06375 -0.42333,4.15396 0.26459,6.16479 0.29104,0.84667 1.61396,0.47625 1.32291,-0.37042 z"
             id="path79"
             style="fill:#e4e1dc;stroke:#006400;stroke-width:0.264583;stroke-opacity:1" />
          <path
             class="cls-2"
             d="m 110.65799,226.52287 c -1.34937,-1.1377 -2.7252,-2.24895 -4.07458,-3.38666 -0.68792,-0.55563 -1.66687,0.39687 -0.97896,0.97896 1.34938,1.13771 2.72521,2.24895 4.07459,3.38666 0.68791,0.55563 1.66687,-0.39687 0.97895,-0.97896 z"
             id="path80"
             style="fill:#e4e1dc;stroke:#006400;stroke-width:0.264583;stroke-opacity:1" />
          <path
             class="cls-2"
             d="m 102.87924,242.3185 c -2.11666,-1.29646 -4.206871,-2.61938 -6.323538,-3.91583 -0.767291,-0.47625 -1.455208,0.71437 -0.687916,1.19062 2.116666,1.29646 4.206874,2.61938 6.323544,3.91583 0.76729,0.47625 1.45521,-0.71437 0.68791,-1.19062 z"
             id="path81"
             style="fill:#e4e1dc;stroke:#006400;stroke-width:0.264583;stroke-opacity:1" />
          <path
             class="cls-2"
             d="m 111.45174,242.05392 c -1.42875,-0.97896 -2.88395,-1.93146 -4.3127,-2.91042 -0.74084,-0.50271 -1.42875,0.68792 -0.68792,1.19062 1.42875,0.97896 2.88396,1.93146 4.31271,2.91042 0.74083,0.50271 1.42875,-0.68792 0.68791,-1.19062 z"
             id="path82"
             style="fill:#e4e1dc;stroke:#006400;stroke-width:0.264583;stroke-opacity:1" />
          <path
             class="cls-2"
             d="m 116.39945,236.55058 c -1.19062,-0.82021 -2.38125,-1.66687 -3.59833,-2.48708 -0.74083,-0.50271 -1.42875,0.68792 -0.68792,1.19062 1.19063,0.82021 2.38125,1.66688 3.59834,2.48709 0.74083,0.50271 1.42875,-0.68792 0.68791,-1.19063 z"
             id="path83"
             style="fill:#e4e1dc;stroke:#006400;stroke-width:0.264583;stroke-opacity:1" />
          <path
             class="cls-2"
             d="m 122.29966,244.43517 c -1.56104,-1.32292 -3.38667,-2.09021 -5.42396,-2.2225 -0.89958,-0.0529 -0.87312,1.32291 0,1.37583 1.66688,0.10583 3.20146,0.74083 4.445,1.82562 0.66146,0.58209 1.66688,-0.39687 0.97896,-0.97895 z"
             id="path84"
             style="fill:#e4e1dc;stroke:#006400;stroke-width:0.264583;stroke-opacity:1" />
          <path
             class="cls-2"
             d="m 118.59549,249.03892 c -1.61395,-0.74084 -3.22791,-1.45521 -4.86833,-2.19605 -0.79375,-0.37041 -1.50812,0.82021 -0.68792,1.19063 1.61396,0.74083 3.22792,1.45521 4.86834,2.19604 0.79375,0.37042 1.50812,-0.82021 0.68791,-1.19062 z"
             id="path85"
             style="fill:#e4e1dc;stroke:#006400;stroke-width:0.264583;stroke-opacity:1" />
          <path
             class="cls-2"
             d="m 130.97799,248.50975 c -1.85208,-0.23813 -3.70416,-0.47625 -5.52979,-0.71438 -0.87312,-0.10583 -0.87312,1.27 0,1.37584 1.85209,0.23812 3.70417,0.47625 5.52979,0.71437 0.87313,0.10584 0.87313,-1.27 0,-1.37583 z"
             id="path86"
             style="fill:#e4e1dc;stroke:#006400;stroke-width:0.264583;stroke-opacity:1" />
          <path
             class="cls-2"
             d="m 167.14653,115.18621 c -0.84666,2.30187 -1.69333,4.57729 -2.54,6.87917 -0.3175,0.84666 1.03188,1.19062 1.32292,0.37041 0.84667,-2.30187 1.69333,-4.57729 2.54,-6.87916 0.3175,-0.84667 -1.03187,-1.19063 -1.32292,-0.37042 z"
             id="path87"
             style="fill:#e4e1dc;stroke:#006400;stroke-width:0.264583;stroke-opacity:1" />
          <path
             class="cls-2"
             d="m 160.92883,122.3035 c -0.635,2.03729 -1.24355,4.07458 -1.87855,6.08542 -0.26458,0.84666 1.05834,1.21708 1.32292,0.37041 0.635,-2.03729 1.24354,-4.07458 1.87854,-6.08541 0.26459,-0.84667 -1.05833,-1.21709 -1.32291,-0.37042 z"
             id="path88"
             style="fill:#e4e1dc;stroke:#006400;stroke-width:0.264583;stroke-opacity:1" />
          <path
             class="cls-2"
             d="m 163.44237,127.01308 -1.66688,4.68313 c -0.29104,0.84667 1.03188,1.19062 1.32292,0.37042 0.55562,-1.56105 1.11125,-3.12209 1.66687,-4.68313 0.29105,-0.84667 -1.03187,-1.19062 -1.32291,-0.37042 z"
             id="path89"
             style="fill:#e4e1dc;stroke:#006400;stroke-width:0.264583;stroke-opacity:1" />
          <path
             class="cls-2"
             d="m 156.61612,133.46892 c -0.635,1.19062 -1.29646,2.38125 -1.93146,3.59833 -0.42333,0.79375 0.76729,1.48167 1.19062,0.68792 0.635,-1.19063 1.29646,-2.38125 1.93146,-3.59834 0.42334,-0.79375 -0.76729,-1.48166 -1.19062,-0.68791 z"
             id="path90"
             style="fill:#e4e1dc;stroke:#006400;stroke-width:0.264583;stroke-opacity:1" />
          <path
             class="cls-2"
             d="m 151.03341,137.04079 c -0.84667,1.74625 -1.69333,3.46604 -2.56646,5.21229 -0.39687,0.79375 0.79375,1.50813 1.19063,0.68792 0.84666,-1.74625 1.69333,-3.46604 2.56645,-5.21229 0.39688,-0.79375 -0.79375,-1.50813 -1.19062,-0.68792 z"
             id="path91"
             style="fill:#e4e1dc;stroke:#006400;stroke-width:0.264583;stroke-opacity:1" />
          <path
             class="cls-2"
             d="m 156.45737,139.68663 -3.30729,4.15395 c -0.55563,0.68792 0.42333,1.66688 0.97895,0.97896 l 3.3073,-4.15396 c 0.55562,-0.68791 -0.42334,-1.66687 -0.97896,-0.97895 z"
             id="path92"
             style="fill:#e4e1dc;stroke:#006400;stroke-width:0.264583;stroke-opacity:1" />
          <path
             class="cls-2"
             d="m 147.62029,146.32767 c -1.11125,1.29646 -2.2225,2.56646 -3.3073,3.86291 -0.58208,0.66146 0.39688,1.64042 0.97896,0.97896 1.11125,-1.29646 2.2225,-2.56646 3.30729,-3.86291 0.58209,-0.66146 -0.39687,-1.64042 -0.97895,-0.97896 z"
             id="path93"
             style="fill:#e4e1dc;stroke:#006400;stroke-width:0.264583;stroke-opacity:1" />
        </g>
      </g>
    </g>
  </g>
</svg>
